%TF.GenerationSoftware,KiCad,Pcbnew,(5.1.6-0-10_14)*%
%TF.CreationDate,2020-08-01T15:30:54-04:00*%
%TF.ProjectId,pin-check,70696e2d-6368-4656-936b-2e6b69636164,v1.1.0*%
%TF.SameCoordinates,Original*%
%TF.FileFunction,Legend,Bot*%
%TF.FilePolarity,Positive*%
%FSLAX46Y46*%
G04 Gerber Fmt 4.6, Leading zero omitted, Abs format (unit mm)*
G04 Created by KiCad (PCBNEW (5.1.6-0-10_14)) date 2020-08-01 15:30:54*
%MOMM*%
%LPD*%
G01*
G04 APERTURE LIST*
%ADD10C,0.150000*%
%ADD11C,0.250000*%
%ADD12C,0.010000*%
G04 APERTURE END LIST*
D10*
X178462642Y-99163142D02*
X178516213Y-99210761D01*
X178665023Y-99258380D01*
X178760261Y-99258380D01*
X178897166Y-99210761D01*
X178980499Y-99115523D01*
X179016213Y-99020285D01*
X179040023Y-98829809D01*
X179022166Y-98686952D01*
X178950737Y-98496476D01*
X178891213Y-98401238D01*
X178784070Y-98306000D01*
X178635261Y-98258380D01*
X178540023Y-98258380D01*
X178403118Y-98306000D01*
X178361451Y-98353619D01*
X177903118Y-99258380D02*
X177992404Y-99210761D01*
X178034070Y-99163142D01*
X178069785Y-99067904D01*
X178034070Y-98782190D01*
X177974547Y-98686952D01*
X177920975Y-98639333D01*
X177819785Y-98591714D01*
X177676927Y-98591714D01*
X177587642Y-98639333D01*
X177545975Y-98686952D01*
X177510261Y-98782190D01*
X177545975Y-99067904D01*
X177605499Y-99163142D01*
X177659070Y-99210761D01*
X177760261Y-99258380D01*
X177903118Y-99258380D01*
X176998356Y-99258380D02*
X177087642Y-99210761D01*
X177123356Y-99115523D01*
X177016213Y-98258380D01*
X176617404Y-99258380D02*
X176492404Y-98258380D01*
X176254308Y-98258380D01*
X176117404Y-98306000D01*
X176034070Y-98401238D01*
X175998356Y-98496476D01*
X175974547Y-98686952D01*
X175992404Y-98829809D01*
X176063832Y-99020285D01*
X176123356Y-99115523D01*
X176230499Y-99210761D01*
X176379308Y-99258380D01*
X176617404Y-99258380D01*
X159412642Y-99163142D02*
X159466213Y-99210761D01*
X159615023Y-99258380D01*
X159710261Y-99258380D01*
X159847166Y-99210761D01*
X159930499Y-99115523D01*
X159966213Y-99020285D01*
X159990023Y-98829809D01*
X159972166Y-98686952D01*
X159900737Y-98496476D01*
X159841213Y-98401238D01*
X159734070Y-98306000D01*
X159585261Y-98258380D01*
X159490023Y-98258380D01*
X159353118Y-98306000D01*
X159311451Y-98353619D01*
X158853118Y-99258380D02*
X158942404Y-99210761D01*
X158984070Y-99163142D01*
X159019785Y-99067904D01*
X158984070Y-98782190D01*
X158924547Y-98686952D01*
X158870975Y-98639333D01*
X158769785Y-98591714D01*
X158626927Y-98591714D01*
X158537642Y-98639333D01*
X158495975Y-98686952D01*
X158460261Y-98782190D01*
X158495975Y-99067904D01*
X158555499Y-99163142D01*
X158609070Y-99210761D01*
X158710261Y-99258380D01*
X158853118Y-99258380D01*
X157948356Y-99258380D02*
X158037642Y-99210761D01*
X158073356Y-99115523D01*
X157966213Y-98258380D01*
X156984070Y-99163142D02*
X157037642Y-99210761D01*
X157186451Y-99258380D01*
X157281689Y-99258380D01*
X157418594Y-99210761D01*
X157501927Y-99115523D01*
X157537642Y-99020285D01*
X157561451Y-98829809D01*
X157543594Y-98686952D01*
X157472166Y-98496476D01*
X157412642Y-98401238D01*
X157305499Y-98306000D01*
X157156689Y-98258380D01*
X157061451Y-98258380D01*
X156924547Y-98306000D01*
X156882880Y-98353619D01*
X140362642Y-99163142D02*
X140416213Y-99210761D01*
X140565023Y-99258380D01*
X140660261Y-99258380D01*
X140797166Y-99210761D01*
X140880499Y-99115523D01*
X140916213Y-99020285D01*
X140940023Y-98829809D01*
X140922166Y-98686952D01*
X140850737Y-98496476D01*
X140791213Y-98401238D01*
X140684070Y-98306000D01*
X140535261Y-98258380D01*
X140440023Y-98258380D01*
X140303118Y-98306000D01*
X140261451Y-98353619D01*
X139803118Y-99258380D02*
X139892404Y-99210761D01*
X139934070Y-99163142D01*
X139969785Y-99067904D01*
X139934070Y-98782190D01*
X139874547Y-98686952D01*
X139820975Y-98639333D01*
X139719785Y-98591714D01*
X139576927Y-98591714D01*
X139487642Y-98639333D01*
X139445975Y-98686952D01*
X139410261Y-98782190D01*
X139445975Y-99067904D01*
X139505499Y-99163142D01*
X139559070Y-99210761D01*
X139660261Y-99258380D01*
X139803118Y-99258380D01*
X138898356Y-99258380D02*
X138987642Y-99210761D01*
X139023356Y-99115523D01*
X138916213Y-98258380D01*
X138118594Y-98734571D02*
X137981689Y-98782190D01*
X137940023Y-98829809D01*
X137904308Y-98925047D01*
X137922166Y-99067904D01*
X137981689Y-99163142D01*
X138035261Y-99210761D01*
X138136451Y-99258380D01*
X138517404Y-99258380D01*
X138392404Y-98258380D01*
X138059070Y-98258380D01*
X137969785Y-98306000D01*
X137928118Y-98353619D01*
X137892404Y-98448857D01*
X137904308Y-98544095D01*
X137963832Y-98639333D01*
X138017404Y-98686952D01*
X138118594Y-98734571D01*
X138451927Y-98734571D01*
X121241213Y-99163142D02*
X121294785Y-99210761D01*
X121443594Y-99258380D01*
X121538832Y-99258380D01*
X121675737Y-99210761D01*
X121759070Y-99115523D01*
X121794785Y-99020285D01*
X121818594Y-98829809D01*
X121800737Y-98686952D01*
X121729308Y-98496476D01*
X121669785Y-98401238D01*
X121562642Y-98306000D01*
X121413832Y-98258380D01*
X121318594Y-98258380D01*
X121181689Y-98306000D01*
X121140023Y-98353619D01*
X120681689Y-99258380D02*
X120770975Y-99210761D01*
X120812642Y-99163142D01*
X120848356Y-99067904D01*
X120812642Y-98782190D01*
X120753118Y-98686952D01*
X120699547Y-98639333D01*
X120598356Y-98591714D01*
X120455499Y-98591714D01*
X120366213Y-98639333D01*
X120324547Y-98686952D01*
X120288832Y-98782190D01*
X120324547Y-99067904D01*
X120384070Y-99163142D01*
X120437642Y-99210761D01*
X120538832Y-99258380D01*
X120681689Y-99258380D01*
X119776927Y-99258380D02*
X119866213Y-99210761D01*
X119901927Y-99115523D01*
X119794785Y-98258380D01*
X119407880Y-98972666D02*
X118931689Y-98972666D01*
X119538832Y-99258380D02*
X119080499Y-98258380D01*
X118872166Y-99258380D01*
X178803133Y-97585161D02*
X178660276Y-97632780D01*
X178422180Y-97632780D01*
X178326942Y-97585161D01*
X178279323Y-97537542D01*
X178231704Y-97442304D01*
X178231704Y-97347066D01*
X178279323Y-97251828D01*
X178326942Y-97204209D01*
X178422180Y-97156590D01*
X178612657Y-97108971D01*
X178707895Y-97061352D01*
X178755514Y-97013733D01*
X178803133Y-96918495D01*
X178803133Y-96823257D01*
X178755514Y-96728019D01*
X178707895Y-96680400D01*
X178612657Y-96632780D01*
X178374561Y-96632780D01*
X178231704Y-96680400D01*
X177898371Y-96632780D02*
X177660276Y-97632780D01*
X177469800Y-96918495D01*
X177279323Y-97632780D01*
X177041228Y-96632780D01*
X176231704Y-96966114D02*
X176231704Y-97632780D01*
X176469800Y-96585161D02*
X176707895Y-97299447D01*
X176088847Y-97299447D01*
X159753133Y-97585161D02*
X159610276Y-97632780D01*
X159372180Y-97632780D01*
X159276942Y-97585161D01*
X159229323Y-97537542D01*
X159181704Y-97442304D01*
X159181704Y-97347066D01*
X159229323Y-97251828D01*
X159276942Y-97204209D01*
X159372180Y-97156590D01*
X159562657Y-97108971D01*
X159657895Y-97061352D01*
X159705514Y-97013733D01*
X159753133Y-96918495D01*
X159753133Y-96823257D01*
X159705514Y-96728019D01*
X159657895Y-96680400D01*
X159562657Y-96632780D01*
X159324561Y-96632780D01*
X159181704Y-96680400D01*
X158848371Y-96632780D02*
X158610276Y-97632780D01*
X158419800Y-96918495D01*
X158229323Y-97632780D01*
X157991228Y-96632780D01*
X157705514Y-96632780D02*
X157086466Y-96632780D01*
X157419800Y-97013733D01*
X157276942Y-97013733D01*
X157181704Y-97061352D01*
X157134085Y-97108971D01*
X157086466Y-97204209D01*
X157086466Y-97442304D01*
X157134085Y-97537542D01*
X157181704Y-97585161D01*
X157276942Y-97632780D01*
X157562657Y-97632780D01*
X157657895Y-97585161D01*
X157705514Y-97537542D01*
X140703133Y-97585161D02*
X140560276Y-97632780D01*
X140322180Y-97632780D01*
X140226942Y-97585161D01*
X140179323Y-97537542D01*
X140131704Y-97442304D01*
X140131704Y-97347066D01*
X140179323Y-97251828D01*
X140226942Y-97204209D01*
X140322180Y-97156590D01*
X140512657Y-97108971D01*
X140607895Y-97061352D01*
X140655514Y-97013733D01*
X140703133Y-96918495D01*
X140703133Y-96823257D01*
X140655514Y-96728019D01*
X140607895Y-96680400D01*
X140512657Y-96632780D01*
X140274561Y-96632780D01*
X140131704Y-96680400D01*
X139798371Y-96632780D02*
X139560276Y-97632780D01*
X139369800Y-96918495D01*
X139179323Y-97632780D01*
X138941228Y-96632780D01*
X138607895Y-96728019D02*
X138560276Y-96680400D01*
X138465038Y-96632780D01*
X138226942Y-96632780D01*
X138131704Y-96680400D01*
X138084085Y-96728019D01*
X138036466Y-96823257D01*
X138036466Y-96918495D01*
X138084085Y-97061352D01*
X138655514Y-97632780D01*
X138036466Y-97632780D01*
X121653133Y-97585161D02*
X121510276Y-97632780D01*
X121272180Y-97632780D01*
X121176942Y-97585161D01*
X121129323Y-97537542D01*
X121081704Y-97442304D01*
X121081704Y-97347066D01*
X121129323Y-97251828D01*
X121176942Y-97204209D01*
X121272180Y-97156590D01*
X121462657Y-97108971D01*
X121557895Y-97061352D01*
X121605514Y-97013733D01*
X121653133Y-96918495D01*
X121653133Y-96823257D01*
X121605514Y-96728019D01*
X121557895Y-96680400D01*
X121462657Y-96632780D01*
X121224561Y-96632780D01*
X121081704Y-96680400D01*
X120748371Y-96632780D02*
X120510276Y-97632780D01*
X120319800Y-96918495D01*
X120129323Y-97632780D01*
X119891228Y-96632780D01*
X118986466Y-97632780D02*
X119557895Y-97632780D01*
X119272180Y-97632780D02*
X119272180Y-96632780D01*
X119367419Y-96775638D01*
X119462657Y-96870876D01*
X119557895Y-96918495D01*
X129458570Y-111345671D02*
X129321666Y-111393290D01*
X129279999Y-111440909D01*
X129244285Y-111536147D01*
X129262142Y-111679004D01*
X129321666Y-111774242D01*
X129375237Y-111821861D01*
X129476427Y-111869480D01*
X129857380Y-111869480D01*
X129732380Y-110869480D01*
X129399047Y-110869480D01*
X129309761Y-110917100D01*
X129268094Y-110964719D01*
X129232380Y-111059957D01*
X129244285Y-111155195D01*
X129303808Y-111250433D01*
X129357380Y-111298052D01*
X129458570Y-111345671D01*
X129791904Y-111345671D01*
X128333570Y-111869480D02*
X128904999Y-111869480D01*
X128619285Y-111869480D02*
X128494285Y-110869480D01*
X128607380Y-111012338D01*
X128714523Y-111107576D01*
X128815713Y-111155195D01*
X133078070Y-111345671D02*
X132941166Y-111393290D01*
X132899499Y-111440909D01*
X132863785Y-111536147D01*
X132881642Y-111679004D01*
X132941166Y-111774242D01*
X132994737Y-111821861D01*
X133095927Y-111869480D01*
X133476880Y-111869480D01*
X133351880Y-110869480D01*
X133018547Y-110869480D01*
X132929261Y-110917100D01*
X132887594Y-110964719D01*
X132851880Y-111059957D01*
X132863785Y-111155195D01*
X132923308Y-111250433D01*
X132976880Y-111298052D01*
X133078070Y-111345671D01*
X133411404Y-111345671D01*
X132411404Y-110964719D02*
X132357832Y-110917100D01*
X132256642Y-110869480D01*
X132018547Y-110869480D01*
X131929261Y-110917100D01*
X131887594Y-110964719D01*
X131851880Y-111059957D01*
X131863785Y-111155195D01*
X131929261Y-111298052D01*
X132572118Y-111869480D01*
X131953070Y-111869480D01*
X136697570Y-111218671D02*
X136560666Y-111266290D01*
X136518999Y-111313909D01*
X136483285Y-111409147D01*
X136501142Y-111552004D01*
X136560666Y-111647242D01*
X136614237Y-111694861D01*
X136715427Y-111742480D01*
X137096380Y-111742480D01*
X136971380Y-110742480D01*
X136638047Y-110742480D01*
X136548761Y-110790100D01*
X136507094Y-110837719D01*
X136471380Y-110932957D01*
X136483285Y-111028195D01*
X136542808Y-111123433D01*
X136596380Y-111171052D01*
X136697570Y-111218671D01*
X137030904Y-111218671D01*
X136066618Y-110742480D02*
X135447570Y-110742480D01*
X135828523Y-111123433D01*
X135685666Y-111123433D01*
X135596380Y-111171052D01*
X135554713Y-111218671D01*
X135518999Y-111313909D01*
X135548761Y-111552004D01*
X135608285Y-111647242D01*
X135661856Y-111694861D01*
X135763047Y-111742480D01*
X136048761Y-111742480D01*
X136138047Y-111694861D01*
X136179713Y-111647242D01*
X140253570Y-111218671D02*
X140116666Y-111266290D01*
X140074999Y-111313909D01*
X140039285Y-111409147D01*
X140057142Y-111552004D01*
X140116666Y-111647242D01*
X140170237Y-111694861D01*
X140271427Y-111742480D01*
X140652380Y-111742480D01*
X140527380Y-110742480D01*
X140194047Y-110742480D01*
X140104761Y-110790100D01*
X140063094Y-110837719D01*
X140027380Y-110932957D01*
X140039285Y-111028195D01*
X140098808Y-111123433D01*
X140152380Y-111171052D01*
X140253570Y-111218671D01*
X140586904Y-111218671D01*
X139140475Y-111075814D02*
X139223808Y-111742480D01*
X139330951Y-110694861D02*
X139658332Y-111409147D01*
X139039285Y-111409147D01*
X143752047Y-111647242D02*
X143805618Y-111694861D01*
X143954427Y-111742480D01*
X144049666Y-111742480D01*
X144186570Y-111694861D01*
X144269904Y-111599623D01*
X144305618Y-111504385D01*
X144329427Y-111313909D01*
X144311570Y-111171052D01*
X144240142Y-110980576D01*
X144180618Y-110885338D01*
X144073475Y-110790100D01*
X143924666Y-110742480D01*
X143829427Y-110742480D01*
X143692523Y-110790100D01*
X143650856Y-110837719D01*
X143305618Y-110742480D02*
X142686570Y-110742480D01*
X143067523Y-111123433D01*
X142924666Y-111123433D01*
X142835380Y-111171052D01*
X142793713Y-111218671D01*
X142757999Y-111313909D01*
X142787761Y-111552004D01*
X142847285Y-111647242D01*
X142900856Y-111694861D01*
X143002047Y-111742480D01*
X143287761Y-111742480D01*
X143377047Y-111694861D01*
X143418713Y-111647242D01*
X147308047Y-111647242D02*
X147361618Y-111694861D01*
X147510427Y-111742480D01*
X147605666Y-111742480D01*
X147742570Y-111694861D01*
X147825904Y-111599623D01*
X147861618Y-111504385D01*
X147885427Y-111313909D01*
X147867570Y-111171052D01*
X147796142Y-110980576D01*
X147736618Y-110885338D01*
X147629475Y-110790100D01*
X147480666Y-110742480D01*
X147385427Y-110742480D01*
X147248523Y-110790100D01*
X147206856Y-110837719D01*
X146379475Y-111075814D02*
X146462808Y-111742480D01*
X146569951Y-110694861D02*
X146897332Y-111409147D01*
X146278285Y-111409147D01*
X150927547Y-111647242D02*
X150981118Y-111694861D01*
X151129927Y-111742480D01*
X151225166Y-111742480D01*
X151362070Y-111694861D01*
X151445404Y-111599623D01*
X151481118Y-111504385D01*
X151504927Y-111313909D01*
X151487070Y-111171052D01*
X151415642Y-110980576D01*
X151356118Y-110885338D01*
X151248975Y-110790100D01*
X151100166Y-110742480D01*
X151004927Y-110742480D01*
X150868023Y-110790100D01*
X150826356Y-110837719D01*
X149909689Y-110742480D02*
X150385880Y-110742480D01*
X150493023Y-111218671D01*
X150439451Y-111171052D01*
X150338261Y-111123433D01*
X150100166Y-111123433D01*
X150010880Y-111171052D01*
X149969213Y-111218671D01*
X149933499Y-111313909D01*
X149963261Y-111552004D01*
X150022785Y-111647242D01*
X150076356Y-111694861D01*
X150177547Y-111742480D01*
X150415642Y-111742480D01*
X150504927Y-111694861D01*
X150546594Y-111647242D01*
X155130380Y-111742480D02*
X155005380Y-110742480D01*
X154767285Y-110742480D01*
X154630380Y-110790100D01*
X154547047Y-110885338D01*
X154511332Y-110980576D01*
X154487523Y-111171052D01*
X154505380Y-111313909D01*
X154576808Y-111504385D01*
X154636332Y-111599623D01*
X154743475Y-111694861D01*
X154892285Y-111742480D01*
X155130380Y-111742480D01*
X154100618Y-110742480D02*
X153433951Y-110742480D01*
X153987523Y-111742480D01*
X158749880Y-111742480D02*
X158624880Y-110742480D01*
X158386785Y-110742480D01*
X158249880Y-110790100D01*
X158166547Y-110885338D01*
X158130832Y-110980576D01*
X158107023Y-111171052D01*
X158124880Y-111313909D01*
X158196308Y-111504385D01*
X158255832Y-111599623D01*
X158362975Y-111694861D01*
X158511785Y-111742480D01*
X158749880Y-111742480D01*
X157196308Y-110742480D02*
X157386785Y-110742480D01*
X157487975Y-110790100D01*
X157541547Y-110837719D01*
X157654642Y-110980576D01*
X157726070Y-111171052D01*
X157773689Y-111552004D01*
X157737975Y-111647242D01*
X157696308Y-111694861D01*
X157607023Y-111742480D01*
X157416547Y-111742480D01*
X157315356Y-111694861D01*
X157261785Y-111647242D01*
X157202261Y-111552004D01*
X157172499Y-111313909D01*
X157208213Y-111218671D01*
X157249880Y-111171052D01*
X157339166Y-111123433D01*
X157529642Y-111123433D01*
X157630832Y-111171052D01*
X157684404Y-111218671D01*
X157743927Y-111313909D01*
X162432880Y-111932980D02*
X162307880Y-110932980D01*
X162069785Y-110932980D01*
X161932880Y-110980600D01*
X161849547Y-111075838D01*
X161813832Y-111171076D01*
X161790023Y-111361552D01*
X161807880Y-111504409D01*
X161879308Y-111694885D01*
X161938832Y-111790123D01*
X162045975Y-111885361D01*
X162194785Y-111932980D01*
X162432880Y-111932980D01*
X160920975Y-111266314D02*
X161004308Y-111932980D01*
X161111451Y-110885361D02*
X161438832Y-111599647D01*
X160819785Y-111599647D01*
X165925380Y-111805980D02*
X165800380Y-110805980D01*
X165562285Y-110805980D01*
X165425380Y-110853600D01*
X165342047Y-110948838D01*
X165306332Y-111044076D01*
X165282523Y-111234552D01*
X165300380Y-111377409D01*
X165371808Y-111567885D01*
X165431332Y-111663123D01*
X165538475Y-111758361D01*
X165687285Y-111805980D01*
X165925380Y-111805980D01*
X164401570Y-111805980D02*
X164972999Y-111805980D01*
X164687285Y-111805980D02*
X164562285Y-110805980D01*
X164675380Y-110948838D01*
X164782523Y-111044076D01*
X164883713Y-111091695D01*
X169544880Y-111805980D02*
X169419880Y-110805980D01*
X169181785Y-110805980D01*
X169044880Y-110853600D01*
X168961547Y-110948838D01*
X168925832Y-111044076D01*
X168902023Y-111234552D01*
X168919880Y-111377409D01*
X168991308Y-111567885D01*
X169050832Y-111663123D01*
X169157975Y-111758361D01*
X169306785Y-111805980D01*
X169544880Y-111805980D01*
X168229404Y-110805980D02*
X168134166Y-110805980D01*
X168044880Y-110853600D01*
X168003213Y-110901219D01*
X167967499Y-110996457D01*
X167943689Y-111186933D01*
X167973451Y-111425028D01*
X168044880Y-111615504D01*
X168104404Y-111710742D01*
X168157975Y-111758361D01*
X168259166Y-111805980D01*
X168354404Y-111805980D01*
X168443689Y-111758361D01*
X168485356Y-111710742D01*
X168521070Y-111615504D01*
X168544880Y-111425028D01*
X168515118Y-111186933D01*
X168443689Y-110996457D01*
X168384166Y-110901219D01*
X168330594Y-110853600D01*
X168229404Y-110805980D01*
X182513919Y-114594142D02*
X182567490Y-114641761D01*
X182716300Y-114689380D01*
X182811538Y-114689380D01*
X182948442Y-114641761D01*
X183031776Y-114546523D01*
X183067490Y-114451285D01*
X183091300Y-114260809D01*
X183073442Y-114117952D01*
X183002014Y-113927476D01*
X182942490Y-113832238D01*
X182835347Y-113737000D01*
X182686538Y-113689380D01*
X182591300Y-113689380D01*
X182454395Y-113737000D01*
X182412728Y-113784619D01*
X181954395Y-114689380D02*
X182043680Y-114641761D01*
X182085347Y-114594142D01*
X182121061Y-114498904D01*
X182085347Y-114213190D01*
X182025823Y-114117952D01*
X181972252Y-114070333D01*
X181871061Y-114022714D01*
X181728204Y-114022714D01*
X181638919Y-114070333D01*
X181597252Y-114117952D01*
X181561538Y-114213190D01*
X181597252Y-114498904D01*
X181656776Y-114594142D01*
X181710347Y-114641761D01*
X181811538Y-114689380D01*
X181954395Y-114689380D01*
X181049633Y-114689380D02*
X181138919Y-114641761D01*
X181174633Y-114546523D01*
X181067490Y-113689380D01*
X180668680Y-114689380D02*
X180543680Y-113689380D01*
X180305585Y-113689380D01*
X180168680Y-113737000D01*
X180085347Y-113832238D01*
X180049633Y-113927476D01*
X180025823Y-114117952D01*
X180043680Y-114260809D01*
X180115109Y-114451285D01*
X180174633Y-114546523D01*
X180281776Y-114641761D01*
X180430585Y-114689380D01*
X180668680Y-114689380D01*
X182513919Y-116244142D02*
X182567490Y-116291761D01*
X182716300Y-116339380D01*
X182811538Y-116339380D01*
X182948442Y-116291761D01*
X183031776Y-116196523D01*
X183067490Y-116101285D01*
X183091300Y-115910809D01*
X183073442Y-115767952D01*
X183002014Y-115577476D01*
X182942490Y-115482238D01*
X182835347Y-115387000D01*
X182686538Y-115339380D01*
X182591300Y-115339380D01*
X182454395Y-115387000D01*
X182412728Y-115434619D01*
X182031776Y-115434619D02*
X181978204Y-115387000D01*
X181877014Y-115339380D01*
X181638919Y-115339380D01*
X181549633Y-115387000D01*
X181507966Y-115434619D01*
X181472252Y-115529857D01*
X181484157Y-115625095D01*
X181549633Y-115767952D01*
X182192490Y-116339380D01*
X181573442Y-116339380D01*
X168937642Y-92597742D02*
X168991213Y-92645361D01*
X169140023Y-92692980D01*
X169235261Y-92692980D01*
X169372166Y-92645361D01*
X169455499Y-92550123D01*
X169491213Y-92454885D01*
X169515023Y-92264409D01*
X169497166Y-92121552D01*
X169425737Y-91931076D01*
X169366213Y-91835838D01*
X169259070Y-91740600D01*
X169110261Y-91692980D01*
X169015023Y-91692980D01*
X168878118Y-91740600D01*
X168836451Y-91788219D01*
X168378118Y-92692980D02*
X168467404Y-92645361D01*
X168509070Y-92597742D01*
X168544785Y-92502504D01*
X168509070Y-92216790D01*
X168449547Y-92121552D01*
X168395975Y-92073933D01*
X168294785Y-92026314D01*
X168151927Y-92026314D01*
X168062642Y-92073933D01*
X168020975Y-92121552D01*
X167985261Y-92216790D01*
X168020975Y-92502504D01*
X168080499Y-92597742D01*
X168134070Y-92645361D01*
X168235261Y-92692980D01*
X168378118Y-92692980D01*
X167473356Y-92692980D02*
X167562642Y-92645361D01*
X167598356Y-92550123D01*
X167491213Y-91692980D01*
X166509070Y-92597742D02*
X166562642Y-92645361D01*
X166711451Y-92692980D01*
X166806689Y-92692980D01*
X166943594Y-92645361D01*
X167026927Y-92550123D01*
X167062642Y-92454885D01*
X167086451Y-92264409D01*
X167068594Y-92121552D01*
X166997166Y-91931076D01*
X166937642Y-91835838D01*
X166830499Y-91740600D01*
X166681689Y-91692980D01*
X166586451Y-91692980D01*
X166449547Y-91740600D01*
X166407880Y-91788219D01*
X168199547Y-94247742D02*
X168253118Y-94295361D01*
X168401927Y-94342980D01*
X168497166Y-94342980D01*
X168634070Y-94295361D01*
X168717404Y-94200123D01*
X168753118Y-94104885D01*
X168776927Y-93914409D01*
X168759070Y-93771552D01*
X168687642Y-93581076D01*
X168628118Y-93485838D01*
X168520975Y-93390600D01*
X168372166Y-93342980D01*
X168276927Y-93342980D01*
X168140023Y-93390600D01*
X168098356Y-93438219D01*
X167259070Y-94342980D02*
X167830499Y-94342980D01*
X167544785Y-94342980D02*
X167419785Y-93342980D01*
X167532880Y-93485838D01*
X167640023Y-93581076D01*
X167741213Y-93628695D01*
X149887642Y-92597742D02*
X149941213Y-92645361D01*
X150090023Y-92692980D01*
X150185261Y-92692980D01*
X150322166Y-92645361D01*
X150405499Y-92550123D01*
X150441213Y-92454885D01*
X150465023Y-92264409D01*
X150447166Y-92121552D01*
X150375737Y-91931076D01*
X150316213Y-91835838D01*
X150209070Y-91740600D01*
X150060261Y-91692980D01*
X149965023Y-91692980D01*
X149828118Y-91740600D01*
X149786451Y-91788219D01*
X149328118Y-92692980D02*
X149417404Y-92645361D01*
X149459070Y-92597742D01*
X149494785Y-92502504D01*
X149459070Y-92216790D01*
X149399547Y-92121552D01*
X149345975Y-92073933D01*
X149244785Y-92026314D01*
X149101927Y-92026314D01*
X149012642Y-92073933D01*
X148970975Y-92121552D01*
X148935261Y-92216790D01*
X148970975Y-92502504D01*
X149030499Y-92597742D01*
X149084070Y-92645361D01*
X149185261Y-92692980D01*
X149328118Y-92692980D01*
X148423356Y-92692980D02*
X148512642Y-92645361D01*
X148548356Y-92550123D01*
X148441213Y-91692980D01*
X147643594Y-92169171D02*
X147506689Y-92216790D01*
X147465023Y-92264409D01*
X147429308Y-92359647D01*
X147447166Y-92502504D01*
X147506689Y-92597742D01*
X147560261Y-92645361D01*
X147661451Y-92692980D01*
X148042404Y-92692980D01*
X147917404Y-91692980D01*
X147584070Y-91692980D01*
X147494785Y-91740600D01*
X147453118Y-91788219D01*
X147417404Y-91883457D01*
X147429308Y-91978695D01*
X147488832Y-92073933D01*
X147542404Y-92121552D01*
X147643594Y-92169171D01*
X147976927Y-92169171D01*
X149149547Y-94247742D02*
X149203118Y-94295361D01*
X149351927Y-94342980D01*
X149447166Y-94342980D01*
X149584070Y-94295361D01*
X149667404Y-94200123D01*
X149703118Y-94104885D01*
X149726927Y-93914409D01*
X149709070Y-93771552D01*
X149637642Y-93581076D01*
X149578118Y-93485838D01*
X149470975Y-93390600D01*
X149322166Y-93342980D01*
X149226927Y-93342980D01*
X149090023Y-93390600D01*
X149048356Y-93438219D01*
X148417404Y-93342980D02*
X148322166Y-93342980D01*
X148232880Y-93390600D01*
X148191213Y-93438219D01*
X148155499Y-93533457D01*
X148131689Y-93723933D01*
X148161451Y-93962028D01*
X148232880Y-94152504D01*
X148292404Y-94247742D01*
X148345975Y-94295361D01*
X148447166Y-94342980D01*
X148542404Y-94342980D01*
X148631689Y-94295361D01*
X148673356Y-94247742D01*
X148709070Y-94152504D01*
X148732880Y-93962028D01*
X148703118Y-93723933D01*
X148631689Y-93533457D01*
X148572166Y-93438219D01*
X148518594Y-93390600D01*
X148417404Y-93342980D01*
X130766213Y-92597742D02*
X130819785Y-92645361D01*
X130968594Y-92692980D01*
X131063832Y-92692980D01*
X131200737Y-92645361D01*
X131284070Y-92550123D01*
X131319785Y-92454885D01*
X131343594Y-92264409D01*
X131325737Y-92121552D01*
X131254308Y-91931076D01*
X131194785Y-91835838D01*
X131087642Y-91740600D01*
X130938832Y-91692980D01*
X130843594Y-91692980D01*
X130706689Y-91740600D01*
X130665023Y-91788219D01*
X130206689Y-92692980D02*
X130295975Y-92645361D01*
X130337642Y-92597742D01*
X130373356Y-92502504D01*
X130337642Y-92216790D01*
X130278118Y-92121552D01*
X130224547Y-92073933D01*
X130123356Y-92026314D01*
X129980499Y-92026314D01*
X129891213Y-92073933D01*
X129849547Y-92121552D01*
X129813832Y-92216790D01*
X129849547Y-92502504D01*
X129909070Y-92597742D01*
X129962642Y-92645361D01*
X130063832Y-92692980D01*
X130206689Y-92692980D01*
X129301927Y-92692980D02*
X129391213Y-92645361D01*
X129426927Y-92550123D01*
X129319785Y-91692980D01*
X128932880Y-92407266D02*
X128456689Y-92407266D01*
X129063832Y-92692980D02*
X128605499Y-91692980D01*
X128397166Y-92692980D01*
X130284070Y-93819171D02*
X130147166Y-93866790D01*
X130105499Y-93914409D01*
X130069785Y-94009647D01*
X130087642Y-94152504D01*
X130147166Y-94247742D01*
X130200737Y-94295361D01*
X130301927Y-94342980D01*
X130682880Y-94342980D01*
X130557880Y-93342980D01*
X130224547Y-93342980D01*
X130135261Y-93390600D01*
X130093594Y-93438219D01*
X130057880Y-93533457D01*
X130069785Y-93628695D01*
X130129308Y-93723933D01*
X130182880Y-93771552D01*
X130284070Y-93819171D01*
X130617404Y-93819171D01*
X129081689Y-93342980D02*
X129557880Y-93342980D01*
X129665023Y-93819171D01*
X129611451Y-93771552D01*
X129510261Y-93723933D01*
X129272166Y-93723933D01*
X129182880Y-93771552D01*
X129141213Y-93819171D01*
X129105499Y-93914409D01*
X129135261Y-94152504D01*
X129194785Y-94247742D01*
X129248356Y-94295361D01*
X129349547Y-94342980D01*
X129587642Y-94342980D01*
X129676927Y-94295361D01*
X129718594Y-94247742D01*
X117698660Y-114689380D02*
X117972470Y-114213190D01*
X118270089Y-114689380D02*
X118145089Y-113689380D01*
X117764136Y-113689380D01*
X117674851Y-113737000D01*
X117633184Y-113784619D01*
X117597470Y-113879857D01*
X117615327Y-114022714D01*
X117674851Y-114117952D01*
X117728422Y-114165571D01*
X117829613Y-114213190D01*
X118210565Y-114213190D01*
X117127232Y-114689380D02*
X117216517Y-114641761D01*
X117258184Y-114594142D01*
X117293898Y-114498904D01*
X117258184Y-114213190D01*
X117198660Y-114117952D01*
X117145089Y-114070333D01*
X117043898Y-114022714D01*
X116901041Y-114022714D01*
X116811755Y-114070333D01*
X116770089Y-114117952D01*
X116734375Y-114213190D01*
X116770089Y-114498904D01*
X116829613Y-114594142D01*
X116883184Y-114641761D01*
X116984375Y-114689380D01*
X117127232Y-114689380D01*
X116377232Y-114022714D02*
X116270089Y-114689380D01*
X116020089Y-114213190D01*
X115889136Y-114689380D01*
X115615327Y-114022714D01*
X115002232Y-113689380D02*
X114906994Y-113689380D01*
X114817708Y-113737000D01*
X114776041Y-113784619D01*
X114740327Y-113879857D01*
X114716517Y-114070333D01*
X114746279Y-114308428D01*
X114817708Y-114498904D01*
X114877232Y-114594142D01*
X114930803Y-114641761D01*
X115031994Y-114689380D01*
X115127232Y-114689380D01*
X115216517Y-114641761D01*
X115258184Y-114594142D01*
X115293898Y-114498904D01*
X115317708Y-114308428D01*
X115287946Y-114070333D01*
X115216517Y-113879857D01*
X115156994Y-113784619D01*
X115103422Y-113737000D01*
X115002232Y-113689380D01*
X115918898Y-115815571D02*
X115781994Y-115863190D01*
X115740327Y-115910809D01*
X115704613Y-116006047D01*
X115722470Y-116148904D01*
X115781994Y-116244142D01*
X115835565Y-116291761D01*
X115936755Y-116339380D01*
X116317708Y-116339380D01*
X116192708Y-115339380D01*
X115859375Y-115339380D01*
X115770089Y-115387000D01*
X115728422Y-115434619D01*
X115692708Y-115529857D01*
X115704613Y-115625095D01*
X115764136Y-115720333D01*
X115817708Y-115767952D01*
X115918898Y-115815571D01*
X116252232Y-115815571D01*
X115002232Y-115339380D02*
X114906994Y-115339380D01*
X114817708Y-115387000D01*
X114776041Y-115434619D01*
X114740327Y-115529857D01*
X114716517Y-115720333D01*
X114746279Y-115958428D01*
X114817708Y-116148904D01*
X114877232Y-116244142D01*
X114930803Y-116291761D01*
X115031994Y-116339380D01*
X115127232Y-116339380D01*
X115216517Y-116291761D01*
X115258184Y-116244142D01*
X115293898Y-116148904D01*
X115317708Y-115958428D01*
X115287946Y-115720333D01*
X115216517Y-115529857D01*
X115156994Y-115434619D01*
X115103422Y-115387000D01*
X115002232Y-115339380D01*
D11*
X140496133Y-80976814D02*
X140496133Y-81976814D01*
X140496133Y-81024433D02*
X140400895Y-80976814D01*
X140210419Y-80976814D01*
X140115180Y-81024433D01*
X140067561Y-81072052D01*
X140019942Y-81167290D01*
X140019942Y-81453004D01*
X140067561Y-81548242D01*
X140115180Y-81595861D01*
X140210419Y-81643480D01*
X140400895Y-81643480D01*
X140496133Y-81595861D01*
X139591371Y-81643480D02*
X139591371Y-80976814D01*
X139591371Y-80643480D02*
X139638990Y-80691100D01*
X139591371Y-80738719D01*
X139543752Y-80691100D01*
X139591371Y-80643480D01*
X139591371Y-80738719D01*
X139115180Y-80976814D02*
X139115180Y-81643480D01*
X139115180Y-81072052D02*
X139067561Y-81024433D01*
X138972323Y-80976814D01*
X138829466Y-80976814D01*
X138734228Y-81024433D01*
X138686609Y-81119671D01*
X138686609Y-81643480D01*
X138210419Y-81262528D02*
X137448514Y-81262528D01*
X136543752Y-81595861D02*
X136638990Y-81643480D01*
X136829466Y-81643480D01*
X136924704Y-81595861D01*
X136972323Y-81548242D01*
X137019942Y-81453004D01*
X137019942Y-81167290D01*
X136972323Y-81072052D01*
X136924704Y-81024433D01*
X136829466Y-80976814D01*
X136638990Y-80976814D01*
X136543752Y-81024433D01*
X136115180Y-81643480D02*
X136115180Y-80643480D01*
X135686609Y-81643480D02*
X135686609Y-81119671D01*
X135734228Y-81024433D01*
X135829466Y-80976814D01*
X135972323Y-80976814D01*
X136067561Y-81024433D01*
X136115180Y-81072052D01*
X134829466Y-81595861D02*
X134924704Y-81643480D01*
X135115180Y-81643480D01*
X135210419Y-81595861D01*
X135258038Y-81500623D01*
X135258038Y-81119671D01*
X135210419Y-81024433D01*
X135115180Y-80976814D01*
X134924704Y-80976814D01*
X134829466Y-81024433D01*
X134781847Y-81119671D01*
X134781847Y-81214909D01*
X135258038Y-81310147D01*
X133924704Y-81595861D02*
X134019942Y-81643480D01*
X134210419Y-81643480D01*
X134305657Y-81595861D01*
X134353276Y-81548242D01*
X134400895Y-81453004D01*
X134400895Y-81167290D01*
X134353276Y-81072052D01*
X134305657Y-81024433D01*
X134210419Y-80976814D01*
X134019942Y-80976814D01*
X133924704Y-81024433D01*
X133496133Y-81643480D02*
X133496133Y-80643480D01*
X133400895Y-81262528D02*
X133115180Y-81643480D01*
X133115180Y-80976814D02*
X133496133Y-81357766D01*
X132019942Y-80976814D02*
X131781847Y-81643480D01*
X131543752Y-80976814D01*
X130638990Y-81643480D02*
X131210419Y-81643480D01*
X130924704Y-81643480D02*
X130924704Y-80643480D01*
X131019942Y-80786338D01*
X131115180Y-80881576D01*
X131210419Y-80929195D01*
X130210419Y-81548242D02*
X130162800Y-81595861D01*
X130210419Y-81643480D01*
X130258038Y-81595861D01*
X130210419Y-81548242D01*
X130210419Y-81643480D01*
X129210419Y-81643480D02*
X129781847Y-81643480D01*
X129496133Y-81643480D02*
X129496133Y-80643480D01*
X129591371Y-80786338D01*
X129686609Y-80881576D01*
X129781847Y-80929195D01*
X128781847Y-81548242D02*
X128734228Y-81595861D01*
X128781847Y-81643480D01*
X128829466Y-81595861D01*
X128781847Y-81548242D01*
X128781847Y-81643480D01*
X128115180Y-80643480D02*
X128019942Y-80643480D01*
X127924704Y-80691100D01*
X127877085Y-80738719D01*
X127829466Y-80833957D01*
X127781847Y-81024433D01*
X127781847Y-81262528D01*
X127829466Y-81453004D01*
X127877085Y-81548242D01*
X127924704Y-81595861D01*
X128019942Y-81643480D01*
X128115180Y-81643480D01*
X128210419Y-81595861D01*
X128258038Y-81548242D01*
X128305657Y-81453004D01*
X128353276Y-81262528D01*
X128353276Y-81024433D01*
X128305657Y-80833957D01*
X128258038Y-80738719D01*
X128210419Y-80691100D01*
X128115180Y-80643480D01*
D12*
%TO.C,G\u002A\u002A\u002A*%
G36*
X118804904Y-83621357D02*
G01*
X118842694Y-83595735D01*
X118857037Y-83527560D01*
X118859300Y-83395994D01*
X118859300Y-83392433D01*
X118862047Y-83259085D01*
X118876568Y-83189651D01*
X118912278Y-83163414D01*
X118965134Y-83159600D01*
X119025746Y-83165644D01*
X119057307Y-83197588D01*
X119069233Y-83276152D01*
X119070967Y-83392433D01*
X119073099Y-83525540D01*
X119087075Y-83594822D01*
X119124261Y-83621117D01*
X119196025Y-83625266D01*
X119197967Y-83625266D01*
X119270571Y-83621357D01*
X119308361Y-83595735D01*
X119322703Y-83527560D01*
X119324967Y-83395994D01*
X119324967Y-83392433D01*
X119327099Y-83259326D01*
X119341075Y-83190045D01*
X119378261Y-83163749D01*
X119450025Y-83159600D01*
X119451967Y-83159600D01*
X119524571Y-83163510D01*
X119562361Y-83189132D01*
X119576703Y-83257306D01*
X119578967Y-83388873D01*
X119578967Y-83392433D01*
X119581714Y-83525782D01*
X119596234Y-83595215D01*
X119631945Y-83621452D01*
X119684800Y-83625266D01*
X119745413Y-83619223D01*
X119776974Y-83587278D01*
X119788900Y-83508715D01*
X119790634Y-83392433D01*
X119792766Y-83259326D01*
X119806742Y-83190045D01*
X119843928Y-83163749D01*
X119915691Y-83159600D01*
X119917634Y-83159600D01*
X119990237Y-83163510D01*
X120028027Y-83189132D01*
X120042370Y-83257306D01*
X120044633Y-83388873D01*
X120044634Y-83392433D01*
X120047381Y-83525782D01*
X120061901Y-83595215D01*
X120097612Y-83621452D01*
X120150467Y-83625266D01*
X120211080Y-83619223D01*
X120242640Y-83587278D01*
X120254566Y-83508715D01*
X120256300Y-83392433D01*
X120258433Y-83259326D01*
X120272408Y-83190045D01*
X120309595Y-83163749D01*
X120381358Y-83159600D01*
X120383300Y-83159600D01*
X120455904Y-83163510D01*
X120493694Y-83189132D01*
X120508037Y-83257306D01*
X120510300Y-83388873D01*
X120510300Y-83392433D01*
X120512433Y-83525540D01*
X120526408Y-83594822D01*
X120563595Y-83621117D01*
X120635358Y-83625266D01*
X120637300Y-83625266D01*
X120709904Y-83621357D01*
X120747694Y-83595735D01*
X120762037Y-83527560D01*
X120764300Y-83395994D01*
X120764300Y-83392433D01*
X120767047Y-83259085D01*
X120781568Y-83189651D01*
X120817278Y-83163414D01*
X120870134Y-83159600D01*
X120930746Y-83165644D01*
X120962307Y-83197588D01*
X120974233Y-83276152D01*
X120975967Y-83392433D01*
X120978099Y-83525540D01*
X120992075Y-83594822D01*
X121029261Y-83621117D01*
X121101025Y-83625266D01*
X121102967Y-83625266D01*
X121175571Y-83621357D01*
X121213361Y-83595735D01*
X121227703Y-83527560D01*
X121229967Y-83395994D01*
X121229967Y-83392433D01*
X121232714Y-83259085D01*
X121247234Y-83189651D01*
X121282945Y-83163414D01*
X121335800Y-83159600D01*
X121396413Y-83165644D01*
X121427974Y-83197588D01*
X121439900Y-83276152D01*
X121441634Y-83392433D01*
X121443766Y-83525540D01*
X121457742Y-83594822D01*
X121494928Y-83621117D01*
X121566691Y-83625266D01*
X121568634Y-83625266D01*
X121641237Y-83621357D01*
X121679027Y-83595735D01*
X121693370Y-83527560D01*
X121695633Y-83395994D01*
X121695634Y-83392433D01*
X121697766Y-83259326D01*
X121711742Y-83190045D01*
X121748928Y-83163749D01*
X121820691Y-83159600D01*
X121822634Y-83159600D01*
X121895237Y-83163510D01*
X121933027Y-83189132D01*
X121947370Y-83257306D01*
X121949633Y-83388873D01*
X121949634Y-83392433D01*
X121952381Y-83525782D01*
X121966901Y-83595215D01*
X122002612Y-83621452D01*
X122055467Y-83625266D01*
X122116080Y-83619223D01*
X122147640Y-83587278D01*
X122159566Y-83508715D01*
X122161300Y-83392433D01*
X122161300Y-83159600D01*
X122394134Y-83159600D01*
X122527241Y-83157467D01*
X122596522Y-83143492D01*
X122622817Y-83106305D01*
X122626967Y-83034542D01*
X122626967Y-83032600D01*
X122623141Y-82960317D01*
X122597854Y-82922499D01*
X122530389Y-82907982D01*
X122400031Y-82905601D01*
X122391322Y-82905600D01*
X122257467Y-82903572D01*
X122188770Y-82890676D01*
X122165722Y-82856695D01*
X122168816Y-82791410D01*
X122169072Y-82789183D01*
X122183754Y-82720771D01*
X122222502Y-82684150D01*
X122307895Y-82666939D01*
X122404717Y-82659971D01*
X122534562Y-82648933D01*
X122600791Y-82627891D01*
X122624448Y-82585823D01*
X122626967Y-82543554D01*
X122620621Y-82484182D01*
X122587790Y-82453265D01*
X122507785Y-82441597D01*
X122394134Y-82439933D01*
X122261026Y-82437801D01*
X122191745Y-82423825D01*
X122165450Y-82386639D01*
X122161300Y-82314875D01*
X122161300Y-82312933D01*
X122165210Y-82240329D01*
X122190832Y-82202539D01*
X122259007Y-82188197D01*
X122390573Y-82185933D01*
X122394134Y-82185933D01*
X122527541Y-82183109D01*
X122597010Y-82168498D01*
X122623229Y-82132892D01*
X122626967Y-82082312D01*
X122619326Y-82021334D01*
X122582374Y-81988328D01*
X122495066Y-81972271D01*
X122404717Y-81965895D01*
X122274453Y-81954828D01*
X122206265Y-81932813D01*
X122177576Y-81887469D01*
X122169072Y-81836683D01*
X122165554Y-81770439D01*
X122187667Y-81735767D01*
X122254918Y-81722449D01*
X122386814Y-81720267D01*
X122391322Y-81720266D01*
X122525441Y-81718205D01*
X122595611Y-81704576D01*
X122622547Y-81668216D01*
X122626965Y-81597960D01*
X122626967Y-81593266D01*
X122623057Y-81520663D01*
X122597435Y-81482873D01*
X122529260Y-81468530D01*
X122397694Y-81466267D01*
X122394134Y-81466266D01*
X122260785Y-81463519D01*
X122191352Y-81448999D01*
X122165115Y-81413288D01*
X122161300Y-81360433D01*
X122167344Y-81299820D01*
X122199288Y-81268260D01*
X122277852Y-81256334D01*
X122394134Y-81254600D01*
X122527241Y-81252467D01*
X122596522Y-81238492D01*
X122622817Y-81201305D01*
X122626967Y-81129542D01*
X122626967Y-81127600D01*
X122623057Y-81054996D01*
X122597435Y-81017206D01*
X122529260Y-81002863D01*
X122397694Y-81000600D01*
X122394134Y-81000600D01*
X122260785Y-80997853D01*
X122191352Y-80983332D01*
X122165115Y-80947622D01*
X122161300Y-80894766D01*
X122167344Y-80834154D01*
X122199288Y-80802593D01*
X122277852Y-80790667D01*
X122394134Y-80788933D01*
X122527241Y-80786801D01*
X122596522Y-80772825D01*
X122622817Y-80735639D01*
X122626967Y-80663875D01*
X122626967Y-80661933D01*
X122623141Y-80589650D01*
X122597854Y-80551832D01*
X122530389Y-80537315D01*
X122400031Y-80534934D01*
X122391322Y-80534933D01*
X122257467Y-80532905D01*
X122188770Y-80520010D01*
X122165722Y-80486028D01*
X122168816Y-80420743D01*
X122169072Y-80418516D01*
X122183754Y-80350105D01*
X122222502Y-80313483D01*
X122307895Y-80296272D01*
X122404717Y-80289304D01*
X122534562Y-80278266D01*
X122600791Y-80257225D01*
X122624448Y-80215157D01*
X122626967Y-80172888D01*
X122620621Y-80113515D01*
X122587790Y-80082599D01*
X122507785Y-80070930D01*
X122394134Y-80069266D01*
X122261026Y-80067134D01*
X122191745Y-80053158D01*
X122165450Y-80015972D01*
X122161300Y-79944209D01*
X122161300Y-79942266D01*
X122165210Y-79869663D01*
X122190832Y-79831873D01*
X122259007Y-79817530D01*
X122390573Y-79815267D01*
X122394134Y-79815266D01*
X122527541Y-79812442D01*
X122597010Y-79797831D01*
X122623229Y-79762225D01*
X122626967Y-79711645D01*
X122619326Y-79650667D01*
X122582374Y-79617661D01*
X122495066Y-79601605D01*
X122404717Y-79595229D01*
X122274453Y-79584162D01*
X122206265Y-79562146D01*
X122177576Y-79516802D01*
X122169072Y-79466016D01*
X122165554Y-79399773D01*
X122187667Y-79365101D01*
X122254918Y-79351782D01*
X122386814Y-79349600D01*
X122391322Y-79349600D01*
X122525441Y-79347538D01*
X122595611Y-79333910D01*
X122622547Y-79297550D01*
X122626965Y-79227294D01*
X122626967Y-79222600D01*
X122623057Y-79149996D01*
X122597435Y-79112206D01*
X122529260Y-79097863D01*
X122397694Y-79095600D01*
X122161300Y-79095600D01*
X122161300Y-78862766D01*
X122158553Y-78729418D01*
X122144033Y-78659985D01*
X122108322Y-78633748D01*
X122055467Y-78629933D01*
X121994854Y-78635977D01*
X121963293Y-78667921D01*
X121951367Y-78746485D01*
X121949634Y-78862766D01*
X121947501Y-78995874D01*
X121933525Y-79065155D01*
X121896339Y-79091450D01*
X121824576Y-79095600D01*
X121822634Y-79095600D01*
X121750030Y-79091690D01*
X121712240Y-79066068D01*
X121697897Y-78997893D01*
X121695634Y-78866327D01*
X121695634Y-78862766D01*
X121693501Y-78729659D01*
X121679525Y-78660378D01*
X121642339Y-78634083D01*
X121570576Y-78629933D01*
X121568634Y-78629933D01*
X121496030Y-78633843D01*
X121458240Y-78659465D01*
X121443897Y-78727640D01*
X121441634Y-78859206D01*
X121441634Y-78862766D01*
X121438886Y-78996115D01*
X121424366Y-79065548D01*
X121388655Y-79091785D01*
X121335800Y-79095600D01*
X121275187Y-79089556D01*
X121243627Y-79057612D01*
X121231701Y-78979048D01*
X121229967Y-78862766D01*
X121227834Y-78729659D01*
X121213859Y-78660378D01*
X121176672Y-78634083D01*
X121104909Y-78629933D01*
X121102967Y-78629933D01*
X121030363Y-78633843D01*
X120992573Y-78659465D01*
X120978230Y-78727640D01*
X120975967Y-78859206D01*
X120975967Y-78862766D01*
X120973220Y-78996115D01*
X120958699Y-79065548D01*
X120922989Y-79091785D01*
X120870134Y-79095600D01*
X120809521Y-79089556D01*
X120777960Y-79057612D01*
X120766034Y-78979048D01*
X120764300Y-78862766D01*
X120762168Y-78729659D01*
X120748192Y-78660378D01*
X120711006Y-78634083D01*
X120639242Y-78629933D01*
X120637300Y-78629933D01*
X120564696Y-78633843D01*
X120526906Y-78659465D01*
X120512564Y-78727640D01*
X120510300Y-78859206D01*
X120510300Y-78862766D01*
X120508168Y-78995874D01*
X120494192Y-79065155D01*
X120457006Y-79091450D01*
X120385242Y-79095600D01*
X120383300Y-79095600D01*
X120310696Y-79091690D01*
X120272906Y-79066068D01*
X120258564Y-78997893D01*
X120256300Y-78866327D01*
X120256300Y-78862766D01*
X120253553Y-78729418D01*
X120239033Y-78659985D01*
X120203322Y-78633748D01*
X120150467Y-78629933D01*
X120089854Y-78635977D01*
X120058293Y-78667921D01*
X120046367Y-78746485D01*
X120044634Y-78862766D01*
X120042501Y-78995874D01*
X120028525Y-79065155D01*
X119991339Y-79091450D01*
X119919576Y-79095600D01*
X119917634Y-79095600D01*
X119845030Y-79091690D01*
X119807240Y-79066068D01*
X119792897Y-78997893D01*
X119790634Y-78866327D01*
X119790634Y-78862766D01*
X119787886Y-78729418D01*
X119773366Y-78659985D01*
X119737655Y-78633748D01*
X119684800Y-78629933D01*
X119624187Y-78635977D01*
X119592627Y-78667921D01*
X119580701Y-78746485D01*
X119578967Y-78862766D01*
X119576834Y-78995874D01*
X119562859Y-79065155D01*
X119525672Y-79091450D01*
X119453909Y-79095600D01*
X119451967Y-79095600D01*
X119379363Y-79091690D01*
X119341573Y-79066068D01*
X119327230Y-78997893D01*
X119324967Y-78866327D01*
X119324967Y-78862766D01*
X119322834Y-78729659D01*
X119308859Y-78660378D01*
X119271672Y-78634083D01*
X119199909Y-78629933D01*
X119197967Y-78629933D01*
X119125363Y-78633843D01*
X119087573Y-78659465D01*
X119073230Y-78727640D01*
X119070967Y-78859206D01*
X119070967Y-78862766D01*
X119068220Y-78996115D01*
X119053699Y-79065548D01*
X119017989Y-79091785D01*
X118965134Y-79095600D01*
X118904521Y-79089556D01*
X118872960Y-79057612D01*
X118861034Y-78979048D01*
X118859300Y-78862766D01*
X118857168Y-78729659D01*
X118843192Y-78660378D01*
X118806006Y-78634083D01*
X118734242Y-78629933D01*
X118732300Y-78629933D01*
X118659696Y-78633843D01*
X118621906Y-78659465D01*
X118607564Y-78727640D01*
X118605300Y-78859206D01*
X118605300Y-78862766D01*
X118603168Y-78995874D01*
X118589192Y-79065155D01*
X118552006Y-79091450D01*
X118480242Y-79095600D01*
X118478300Y-79095600D01*
X118405696Y-79091690D01*
X118367906Y-79066068D01*
X118353564Y-78997893D01*
X118351300Y-78866327D01*
X118351300Y-78862766D01*
X118348553Y-78729418D01*
X118334033Y-78659985D01*
X118298322Y-78633748D01*
X118245467Y-78629933D01*
X118184854Y-78635977D01*
X118153293Y-78667921D01*
X118141367Y-78746485D01*
X118139634Y-78862766D01*
X118139634Y-79095600D01*
X117631634Y-79095600D01*
X117631634Y-79349600D01*
X118139634Y-79349600D01*
X118139634Y-79433835D01*
X118360360Y-79433835D01*
X118423163Y-79364916D01*
X118498138Y-79349600D01*
X118574660Y-79363009D01*
X118602679Y-79420419D01*
X118605300Y-79476600D01*
X118859300Y-79476600D01*
X118870691Y-79385836D01*
X118919111Y-79352633D01*
X118965134Y-79349600D01*
X119040770Y-79363269D01*
X119068439Y-79421373D01*
X119070967Y-79476600D01*
X119070615Y-79479412D01*
X119324967Y-79479412D01*
X119334807Y-79388206D01*
X119382301Y-79354030D01*
X119454779Y-79349600D01*
X119544653Y-79358303D01*
X119574164Y-79400259D01*
X119571195Y-79466016D01*
X119798405Y-79466016D01*
X119798516Y-79385087D01*
X119840780Y-79354051D01*
X119917634Y-79349600D01*
X120008878Y-79357871D01*
X120039606Y-79398105D01*
X120036862Y-79466016D01*
X120264072Y-79466016D01*
X120264399Y-79384518D01*
X120307639Y-79353723D01*
X120380488Y-79349600D01*
X120471694Y-79359440D01*
X120505870Y-79406934D01*
X120510128Y-79476600D01*
X120764300Y-79476600D01*
X120775691Y-79385836D01*
X120824111Y-79352633D01*
X120870134Y-79349600D01*
X120945770Y-79363269D01*
X120973439Y-79421373D01*
X120975967Y-79476600D01*
X121229967Y-79476600D01*
X121241357Y-79385836D01*
X121289777Y-79352633D01*
X121335800Y-79349600D01*
X121411436Y-79363269D01*
X121439106Y-79421373D01*
X121441634Y-79476600D01*
X121441282Y-79479412D01*
X121695634Y-79479412D01*
X121705474Y-79388206D01*
X121752968Y-79354030D01*
X121825445Y-79349600D01*
X121915320Y-79358303D01*
X121944831Y-79400259D01*
X121941862Y-79466016D01*
X121911542Y-79556687D01*
X121831462Y-79593167D01*
X121812050Y-79595828D01*
X121730552Y-79595501D01*
X121699756Y-79552261D01*
X121695634Y-79479412D01*
X121441282Y-79479412D01*
X121430243Y-79567363D01*
X121381823Y-79600567D01*
X121335800Y-79603600D01*
X121260164Y-79589931D01*
X121232494Y-79531827D01*
X121229967Y-79476600D01*
X120975967Y-79476600D01*
X120964576Y-79567363D01*
X120916156Y-79600567D01*
X120870134Y-79603600D01*
X120794497Y-79589931D01*
X120766828Y-79531827D01*
X120764300Y-79476600D01*
X120510128Y-79476600D01*
X120510300Y-79479412D01*
X120501597Y-79569286D01*
X120459641Y-79598797D01*
X120393884Y-79595828D01*
X120303213Y-79565509D01*
X120266733Y-79485429D01*
X120264072Y-79466016D01*
X120036862Y-79466016D01*
X120009906Y-79553218D01*
X119941208Y-79581660D01*
X119917634Y-79582433D01*
X119836217Y-79563819D01*
X119802081Y-79491850D01*
X119798405Y-79466016D01*
X119571195Y-79466016D01*
X119540876Y-79556687D01*
X119460796Y-79593167D01*
X119441384Y-79595828D01*
X119359885Y-79595501D01*
X119329090Y-79552261D01*
X119324967Y-79479412D01*
X119070615Y-79479412D01*
X119059576Y-79567363D01*
X119011156Y-79600567D01*
X118965134Y-79603600D01*
X118889497Y-79589931D01*
X118861828Y-79531827D01*
X118859300Y-79476600D01*
X118605300Y-79476600D01*
X118593986Y-79567287D01*
X118545543Y-79600493D01*
X118498138Y-79603600D01*
X118407980Y-79581179D01*
X118366609Y-79540100D01*
X118360360Y-79433835D01*
X118139634Y-79433835D01*
X118139634Y-79603600D01*
X117885634Y-79603600D01*
X117744863Y-79605841D01*
X117668862Y-79618086D01*
X117637747Y-79648619D01*
X117631639Y-79705724D01*
X117631634Y-79709433D01*
X117637012Y-79768087D01*
X117666400Y-79799755D01*
X117739679Y-79812719D01*
X117876731Y-79815264D01*
X117885634Y-79815266D01*
X118139634Y-79815266D01*
X118139634Y-79899502D01*
X118360360Y-79899502D01*
X118423163Y-79830583D01*
X118498138Y-79815266D01*
X118574660Y-79828675D01*
X118602679Y-79886086D01*
X118605300Y-79942266D01*
X118859300Y-79942266D01*
X118870691Y-79851503D01*
X118919111Y-79818299D01*
X118965134Y-79815266D01*
X119040770Y-79828935D01*
X119068439Y-79887039D01*
X119070967Y-79942266D01*
X119324967Y-79942266D01*
X119333238Y-79851022D01*
X119373472Y-79820294D01*
X119441384Y-79823038D01*
X119528585Y-79849994D01*
X119557027Y-79918692D01*
X119557800Y-79942266D01*
X119790634Y-79942266D01*
X119801123Y-79852312D01*
X119850603Y-79819157D01*
X119917634Y-79815266D01*
X120007588Y-79825756D01*
X120040743Y-79875236D01*
X120044019Y-79931683D01*
X120264072Y-79931683D01*
X120264399Y-79850185D01*
X120307639Y-79819389D01*
X120380488Y-79815266D01*
X120471694Y-79825107D01*
X120505870Y-79872601D01*
X120510128Y-79942266D01*
X120764300Y-79942266D01*
X120775691Y-79851503D01*
X120824111Y-79818299D01*
X120870134Y-79815266D01*
X120945770Y-79828935D01*
X120973439Y-79887039D01*
X120975967Y-79942266D01*
X121229967Y-79942266D01*
X121241357Y-79851503D01*
X121289777Y-79818299D01*
X121335800Y-79815266D01*
X121411436Y-79828935D01*
X121439106Y-79887039D01*
X121441634Y-79942266D01*
X121441282Y-79945078D01*
X121695634Y-79945078D01*
X121705474Y-79853873D01*
X121752968Y-79819696D01*
X121825445Y-79815266D01*
X121915320Y-79823969D01*
X121944831Y-79865925D01*
X121941862Y-79931683D01*
X121911542Y-80022354D01*
X121831462Y-80058833D01*
X121812050Y-80061495D01*
X121730552Y-80061168D01*
X121699756Y-80017928D01*
X121695634Y-79945078D01*
X121441282Y-79945078D01*
X121430243Y-80033030D01*
X121381823Y-80066234D01*
X121335800Y-80069266D01*
X121260164Y-80055598D01*
X121232494Y-79997494D01*
X121229967Y-79942266D01*
X120975967Y-79942266D01*
X120964576Y-80033030D01*
X120916156Y-80066234D01*
X120870134Y-80069266D01*
X120794497Y-80055598D01*
X120766828Y-79997494D01*
X120764300Y-79942266D01*
X120510128Y-79942266D01*
X120510300Y-79945078D01*
X120501597Y-80034953D01*
X120459641Y-80064464D01*
X120393884Y-80061495D01*
X120303213Y-80031175D01*
X120266733Y-79951095D01*
X120264072Y-79931683D01*
X120044019Y-79931683D01*
X120044634Y-79942266D01*
X120034144Y-80032221D01*
X119984664Y-80065376D01*
X119917634Y-80069266D01*
X119827679Y-80058777D01*
X119794524Y-80009297D01*
X119790634Y-79942266D01*
X119557800Y-79942266D01*
X119539186Y-80023683D01*
X119467217Y-80057819D01*
X119441384Y-80061495D01*
X119360454Y-80061384D01*
X119329418Y-80019120D01*
X119324967Y-79942266D01*
X119070967Y-79942266D01*
X119059576Y-80033030D01*
X119011156Y-80066234D01*
X118965134Y-80069266D01*
X118889497Y-80055598D01*
X118861828Y-79997494D01*
X118859300Y-79942266D01*
X118605300Y-79942266D01*
X118593986Y-80032954D01*
X118545543Y-80066160D01*
X118498138Y-80069266D01*
X118407980Y-80046846D01*
X118366609Y-80005766D01*
X118360360Y-79899502D01*
X118139634Y-79899502D01*
X118139634Y-80069266D01*
X117885634Y-80069266D01*
X117744863Y-80071507D01*
X117668862Y-80083752D01*
X117637747Y-80114286D01*
X117631639Y-80171390D01*
X117631634Y-80175100D01*
X117637012Y-80233754D01*
X117666400Y-80265421D01*
X117739679Y-80278386D01*
X117876731Y-80280931D01*
X117885634Y-80280933D01*
X118139634Y-80280933D01*
X118139634Y-80419702D01*
X118354178Y-80419702D01*
X118366609Y-80344433D01*
X118422991Y-80296107D01*
X118498138Y-80280933D01*
X118574660Y-80294342D01*
X118602679Y-80351753D01*
X118605300Y-80407933D01*
X118859300Y-80407933D01*
X118870691Y-80317170D01*
X118919111Y-80283966D01*
X118965134Y-80280933D01*
X119040770Y-80294602D01*
X119068439Y-80352706D01*
X119070838Y-80405121D01*
X119324967Y-80405121D01*
X119333670Y-80315247D01*
X119375626Y-80285736D01*
X119441384Y-80288705D01*
X119532054Y-80319024D01*
X119568534Y-80399104D01*
X119569358Y-80405121D01*
X119790634Y-80405121D01*
X119799336Y-80315247D01*
X119841292Y-80285736D01*
X119907050Y-80288705D01*
X119997721Y-80319024D01*
X120034200Y-80399104D01*
X120036862Y-80418516D01*
X120036792Y-80436155D01*
X120256300Y-80436155D01*
X120273060Y-80331697D01*
X120336879Y-80287257D01*
X120411522Y-80280933D01*
X120482498Y-80296184D01*
X120508294Y-80358463D01*
X120510300Y-80407933D01*
X120764300Y-80407933D01*
X120775691Y-80317170D01*
X120824111Y-80283966D01*
X120870134Y-80280933D01*
X120945770Y-80294602D01*
X120973439Y-80352706D01*
X120975967Y-80407933D01*
X121229967Y-80407933D01*
X121241357Y-80317170D01*
X121289777Y-80283966D01*
X121335800Y-80280933D01*
X121411436Y-80294602D01*
X121439106Y-80352706D01*
X121441505Y-80405121D01*
X121695634Y-80405121D01*
X121704336Y-80315247D01*
X121746292Y-80285736D01*
X121812050Y-80288705D01*
X121902721Y-80319024D01*
X121939200Y-80399104D01*
X121941862Y-80418516D01*
X121941535Y-80500015D01*
X121898295Y-80530810D01*
X121825445Y-80534933D01*
X121734240Y-80525093D01*
X121700063Y-80477599D01*
X121695634Y-80405121D01*
X121441505Y-80405121D01*
X121441634Y-80407933D01*
X121430243Y-80498697D01*
X121381823Y-80531900D01*
X121335800Y-80534933D01*
X121260164Y-80521264D01*
X121232494Y-80463160D01*
X121229967Y-80407933D01*
X120975967Y-80407933D01*
X120964576Y-80498697D01*
X120916156Y-80531900D01*
X120870134Y-80534933D01*
X120794497Y-80521264D01*
X120766828Y-80463160D01*
X120764300Y-80407933D01*
X120510300Y-80407933D01*
X120499811Y-80497887D01*
X120450330Y-80531042D01*
X120383300Y-80534933D01*
X120292045Y-80523072D01*
X120258879Y-80474632D01*
X120256300Y-80436155D01*
X120036792Y-80436155D01*
X120036535Y-80500015D01*
X119993295Y-80530810D01*
X119920445Y-80534933D01*
X119829240Y-80525093D01*
X119795063Y-80477599D01*
X119790634Y-80405121D01*
X119569358Y-80405121D01*
X119571195Y-80418516D01*
X119570868Y-80500015D01*
X119527628Y-80530810D01*
X119454779Y-80534933D01*
X119363573Y-80525093D01*
X119329397Y-80477599D01*
X119324967Y-80405121D01*
X119070838Y-80405121D01*
X119070967Y-80407933D01*
X119059576Y-80498697D01*
X119011156Y-80531900D01*
X118965134Y-80534933D01*
X118889497Y-80521264D01*
X118861828Y-80463160D01*
X118859300Y-80407933D01*
X118605300Y-80407933D01*
X118593986Y-80498621D01*
X118545543Y-80531826D01*
X118498138Y-80534933D01*
X118396326Y-80502789D01*
X118354178Y-80419702D01*
X118139634Y-80419702D01*
X118139634Y-80534933D01*
X117631634Y-80534933D01*
X117631634Y-80788933D01*
X117885634Y-80788933D01*
X118026404Y-80791174D01*
X118102405Y-80803419D01*
X118133520Y-80833952D01*
X118139628Y-80891057D01*
X118139634Y-80894766D01*
X118351300Y-80894766D01*
X118364969Y-80819130D01*
X118423073Y-80791461D01*
X118478300Y-80788933D01*
X118569064Y-80800324D01*
X118602267Y-80848744D01*
X118605300Y-80894766D01*
X118859300Y-80894766D01*
X118876785Y-80814206D01*
X118945630Y-80789380D01*
X118965134Y-80788933D01*
X119045694Y-80806418D01*
X119070520Y-80875263D01*
X119070967Y-80894766D01*
X119324967Y-80894766D01*
X119338636Y-80819130D01*
X119396740Y-80791461D01*
X119451967Y-80788933D01*
X119542730Y-80800324D01*
X119575934Y-80848744D01*
X119578967Y-80894766D01*
X119790634Y-80894766D01*
X119804302Y-80819130D01*
X119862406Y-80791461D01*
X119917634Y-80788933D01*
X120008397Y-80800324D01*
X120041601Y-80848744D01*
X120044634Y-80894766D01*
X120256300Y-80894766D01*
X120269969Y-80819130D01*
X120328073Y-80791461D01*
X120383300Y-80788933D01*
X120474064Y-80800324D01*
X120507267Y-80848744D01*
X120510300Y-80894766D01*
X120764300Y-80894766D01*
X120781785Y-80814206D01*
X120850630Y-80789380D01*
X120870134Y-80788933D01*
X120950694Y-80806418D01*
X120975520Y-80875263D01*
X120975967Y-80894766D01*
X121229967Y-80894766D01*
X121247452Y-80814206D01*
X121316297Y-80789380D01*
X121335800Y-80788933D01*
X121416361Y-80806418D01*
X121441187Y-80875263D01*
X121441634Y-80894766D01*
X121695634Y-80894766D01*
X121709302Y-80819130D01*
X121767406Y-80791461D01*
X121822634Y-80788933D01*
X121913397Y-80800324D01*
X121946601Y-80848744D01*
X121949634Y-80894766D01*
X121935965Y-80970403D01*
X121877861Y-80998072D01*
X121822634Y-81000600D01*
X121731870Y-80989209D01*
X121698666Y-80940789D01*
X121695634Y-80894766D01*
X121441634Y-80894766D01*
X121424149Y-80975327D01*
X121355304Y-81000153D01*
X121335800Y-81000600D01*
X121255239Y-80983115D01*
X121230414Y-80914270D01*
X121229967Y-80894766D01*
X120975967Y-80894766D01*
X120958482Y-80975327D01*
X120889637Y-81000153D01*
X120870134Y-81000600D01*
X120789573Y-80983115D01*
X120764747Y-80914270D01*
X120764300Y-80894766D01*
X120510300Y-80894766D01*
X120496631Y-80970403D01*
X120438527Y-80998072D01*
X120383300Y-81000600D01*
X120292537Y-80989209D01*
X120259333Y-80940789D01*
X120256300Y-80894766D01*
X120044634Y-80894766D01*
X120030965Y-80970403D01*
X119972861Y-80998072D01*
X119917634Y-81000600D01*
X119826870Y-80989209D01*
X119793666Y-80940789D01*
X119790634Y-80894766D01*
X119578967Y-80894766D01*
X119565298Y-80970403D01*
X119507194Y-80998072D01*
X119451967Y-81000600D01*
X119361203Y-80989209D01*
X119328000Y-80940789D01*
X119324967Y-80894766D01*
X119070967Y-80894766D01*
X119053482Y-80975327D01*
X118984637Y-81000153D01*
X118965134Y-81000600D01*
X118884573Y-80983115D01*
X118859747Y-80914270D01*
X118859300Y-80894766D01*
X118605300Y-80894766D01*
X118591631Y-80970403D01*
X118533527Y-80998072D01*
X118478300Y-81000600D01*
X118387537Y-80989209D01*
X118354333Y-80940789D01*
X118351300Y-80894766D01*
X118139634Y-80894766D01*
X118134255Y-80953421D01*
X118104867Y-80985088D01*
X118031588Y-80998052D01*
X117894536Y-81000597D01*
X117885634Y-81000600D01*
X117631634Y-81000600D01*
X117631634Y-81254600D01*
X117885634Y-81254600D01*
X118026404Y-81256841D01*
X118102405Y-81269086D01*
X118133520Y-81299619D01*
X118139628Y-81356724D01*
X118139634Y-81360433D01*
X118351300Y-81360433D01*
X118364969Y-81284797D01*
X118423073Y-81257127D01*
X118478300Y-81254600D01*
X118569064Y-81265990D01*
X118602267Y-81314410D01*
X118605300Y-81360433D01*
X118859300Y-81360433D01*
X118876785Y-81279872D01*
X118945630Y-81255047D01*
X118965134Y-81254600D01*
X119045694Y-81272085D01*
X119070520Y-81340930D01*
X119070967Y-81360433D01*
X119324967Y-81360433D01*
X119338636Y-81284797D01*
X119396740Y-81257127D01*
X119451967Y-81254600D01*
X119542730Y-81265990D01*
X119575934Y-81314410D01*
X119578967Y-81360433D01*
X119790634Y-81360433D01*
X119804302Y-81284797D01*
X119862406Y-81257127D01*
X119917634Y-81254600D01*
X120008397Y-81265990D01*
X120041601Y-81314410D01*
X120044634Y-81360433D01*
X120256300Y-81360433D01*
X120269969Y-81284797D01*
X120328073Y-81257127D01*
X120383300Y-81254600D01*
X120474064Y-81265990D01*
X120507267Y-81314410D01*
X120510300Y-81360433D01*
X120764300Y-81360433D01*
X120781785Y-81279872D01*
X120850630Y-81255047D01*
X120870134Y-81254600D01*
X120950694Y-81272085D01*
X120975520Y-81340930D01*
X120975967Y-81360433D01*
X121229967Y-81360433D01*
X121247452Y-81279872D01*
X121316297Y-81255047D01*
X121335800Y-81254600D01*
X121416361Y-81272085D01*
X121441187Y-81340930D01*
X121441634Y-81360433D01*
X121695634Y-81360433D01*
X121709302Y-81284797D01*
X121767406Y-81257127D01*
X121822634Y-81254600D01*
X121913397Y-81265990D01*
X121946601Y-81314410D01*
X121949634Y-81360433D01*
X121935965Y-81436069D01*
X121877861Y-81463739D01*
X121822634Y-81466266D01*
X121731870Y-81454876D01*
X121698666Y-81406456D01*
X121695634Y-81360433D01*
X121441634Y-81360433D01*
X121424149Y-81440994D01*
X121355304Y-81465820D01*
X121335800Y-81466266D01*
X121255239Y-81448782D01*
X121230414Y-81379937D01*
X121229967Y-81360433D01*
X120975967Y-81360433D01*
X120958482Y-81440994D01*
X120889637Y-81465820D01*
X120870134Y-81466266D01*
X120789573Y-81448782D01*
X120764747Y-81379937D01*
X120764300Y-81360433D01*
X120510300Y-81360433D01*
X120496631Y-81436069D01*
X120438527Y-81463739D01*
X120383300Y-81466266D01*
X120292537Y-81454876D01*
X120259333Y-81406456D01*
X120256300Y-81360433D01*
X120044634Y-81360433D01*
X120030965Y-81436069D01*
X119972861Y-81463739D01*
X119917634Y-81466266D01*
X119826870Y-81454876D01*
X119793666Y-81406456D01*
X119790634Y-81360433D01*
X119578967Y-81360433D01*
X119565298Y-81436069D01*
X119507194Y-81463739D01*
X119451967Y-81466266D01*
X119361203Y-81454876D01*
X119328000Y-81406456D01*
X119324967Y-81360433D01*
X119070967Y-81360433D01*
X119053482Y-81440994D01*
X118984637Y-81465820D01*
X118965134Y-81466266D01*
X118884573Y-81448782D01*
X118859747Y-81379937D01*
X118859300Y-81360433D01*
X118605300Y-81360433D01*
X118591631Y-81436069D01*
X118533527Y-81463739D01*
X118478300Y-81466266D01*
X118387537Y-81454876D01*
X118354333Y-81406456D01*
X118351300Y-81360433D01*
X118139634Y-81360433D01*
X118134255Y-81419087D01*
X118104867Y-81450755D01*
X118031588Y-81463719D01*
X117894536Y-81466264D01*
X117885634Y-81466266D01*
X117631634Y-81466266D01*
X117631634Y-81720266D01*
X118139634Y-81720266D01*
X118139634Y-81859035D01*
X118354178Y-81859035D01*
X118366609Y-81783766D01*
X118422991Y-81735441D01*
X118498138Y-81720266D01*
X118574660Y-81733675D01*
X118602679Y-81791086D01*
X118605300Y-81847266D01*
X118859300Y-81847266D01*
X118870691Y-81756503D01*
X118919111Y-81723299D01*
X118965134Y-81720266D01*
X119040770Y-81733935D01*
X119068439Y-81792039D01*
X119070967Y-81847266D01*
X119070615Y-81850078D01*
X119324967Y-81850078D01*
X119334807Y-81758873D01*
X119382301Y-81724696D01*
X119454779Y-81720266D01*
X119544653Y-81728969D01*
X119574164Y-81770925D01*
X119571195Y-81836683D01*
X119566716Y-81850078D01*
X119790634Y-81850078D01*
X119800474Y-81758873D01*
X119847968Y-81724696D01*
X119920445Y-81720266D01*
X120010320Y-81728969D01*
X120039831Y-81770925D01*
X120036862Y-81836683D01*
X120264072Y-81836683D01*
X120264399Y-81755185D01*
X120307639Y-81724389D01*
X120380488Y-81720266D01*
X120471694Y-81730107D01*
X120505870Y-81777601D01*
X120510128Y-81847266D01*
X120764300Y-81847266D01*
X120775691Y-81756503D01*
X120824111Y-81723299D01*
X120870134Y-81720266D01*
X120945770Y-81733935D01*
X120973439Y-81792039D01*
X120975967Y-81847266D01*
X121229967Y-81847266D01*
X121241357Y-81756503D01*
X121289777Y-81723299D01*
X121335800Y-81720266D01*
X121411436Y-81733935D01*
X121439106Y-81792039D01*
X121441634Y-81847266D01*
X121441282Y-81850078D01*
X121695634Y-81850078D01*
X121705474Y-81758873D01*
X121752968Y-81724696D01*
X121825445Y-81720266D01*
X121915320Y-81728969D01*
X121944831Y-81770925D01*
X121941862Y-81836683D01*
X121911542Y-81927354D01*
X121831462Y-81963833D01*
X121812050Y-81966495D01*
X121730552Y-81966168D01*
X121699756Y-81922928D01*
X121695634Y-81850078D01*
X121441282Y-81850078D01*
X121430243Y-81938030D01*
X121381823Y-81971234D01*
X121335800Y-81974266D01*
X121260164Y-81960598D01*
X121232494Y-81902494D01*
X121229967Y-81847266D01*
X120975967Y-81847266D01*
X120964576Y-81938030D01*
X120916156Y-81971234D01*
X120870134Y-81974266D01*
X120794497Y-81960598D01*
X120766828Y-81902494D01*
X120764300Y-81847266D01*
X120510128Y-81847266D01*
X120510300Y-81850078D01*
X120501597Y-81939953D01*
X120459641Y-81969464D01*
X120393884Y-81966495D01*
X120303213Y-81936175D01*
X120266733Y-81856095D01*
X120264072Y-81836683D01*
X120036862Y-81836683D01*
X120006542Y-81927354D01*
X119926462Y-81963833D01*
X119907050Y-81966495D01*
X119825552Y-81966168D01*
X119794756Y-81922928D01*
X119790634Y-81850078D01*
X119566716Y-81850078D01*
X119540876Y-81927354D01*
X119460796Y-81963833D01*
X119441384Y-81966495D01*
X119359885Y-81966168D01*
X119329090Y-81922928D01*
X119324967Y-81850078D01*
X119070615Y-81850078D01*
X119059576Y-81938030D01*
X119011156Y-81971234D01*
X118965134Y-81974266D01*
X118889497Y-81960598D01*
X118861828Y-81902494D01*
X118859300Y-81847266D01*
X118605300Y-81847266D01*
X118593986Y-81937954D01*
X118545543Y-81971160D01*
X118498138Y-81974266D01*
X118396326Y-81942122D01*
X118354178Y-81859035D01*
X118139634Y-81859035D01*
X118139634Y-81974266D01*
X117885634Y-81974266D01*
X117744863Y-81976507D01*
X117668862Y-81988752D01*
X117637747Y-82019286D01*
X117631639Y-82076390D01*
X117631634Y-82080100D01*
X117637012Y-82138754D01*
X117666400Y-82170421D01*
X117739679Y-82183386D01*
X117876731Y-82185931D01*
X117885634Y-82185933D01*
X118139634Y-82185933D01*
X118139634Y-82324702D01*
X118354178Y-82324702D01*
X118366609Y-82249433D01*
X118422991Y-82201107D01*
X118498138Y-82185933D01*
X118574660Y-82199342D01*
X118602679Y-82256753D01*
X118605300Y-82312933D01*
X118859300Y-82312933D01*
X118870691Y-82222170D01*
X118919111Y-82188966D01*
X118965134Y-82185933D01*
X119040770Y-82199602D01*
X119068439Y-82257706D01*
X119070967Y-82312933D01*
X119324967Y-82312933D01*
X119333238Y-82221689D01*
X119373472Y-82190961D01*
X119441384Y-82193705D01*
X119528585Y-82220660D01*
X119557027Y-82289359D01*
X119557800Y-82312933D01*
X119790634Y-82312933D01*
X119801123Y-82222979D01*
X119850603Y-82189824D01*
X119917634Y-82185933D01*
X120007588Y-82196423D01*
X120040743Y-82245903D01*
X120044634Y-82312933D01*
X120041343Y-82341155D01*
X120256300Y-82341155D01*
X120273060Y-82236697D01*
X120336879Y-82192257D01*
X120411522Y-82185933D01*
X120482498Y-82201184D01*
X120508294Y-82263463D01*
X120510300Y-82312933D01*
X120764300Y-82312933D01*
X120775691Y-82222170D01*
X120824111Y-82188966D01*
X120870134Y-82185933D01*
X120945770Y-82199602D01*
X120973439Y-82257706D01*
X120975967Y-82312933D01*
X121229967Y-82312933D01*
X121241357Y-82222170D01*
X121289777Y-82188966D01*
X121335800Y-82185933D01*
X121411436Y-82199602D01*
X121439106Y-82257706D01*
X121441505Y-82310121D01*
X121695634Y-82310121D01*
X121704336Y-82220247D01*
X121746292Y-82190736D01*
X121812050Y-82193705D01*
X121902721Y-82224024D01*
X121939200Y-82304104D01*
X121941862Y-82323516D01*
X121941535Y-82405015D01*
X121898295Y-82435810D01*
X121825445Y-82439933D01*
X121734240Y-82430093D01*
X121700063Y-82382599D01*
X121695634Y-82310121D01*
X121441505Y-82310121D01*
X121441634Y-82312933D01*
X121430243Y-82403697D01*
X121381823Y-82436900D01*
X121335800Y-82439933D01*
X121260164Y-82426264D01*
X121232494Y-82368160D01*
X121229967Y-82312933D01*
X120975967Y-82312933D01*
X120964576Y-82403697D01*
X120916156Y-82436900D01*
X120870134Y-82439933D01*
X120794497Y-82426264D01*
X120766828Y-82368160D01*
X120764300Y-82312933D01*
X120510300Y-82312933D01*
X120499811Y-82402887D01*
X120450330Y-82436042D01*
X120383300Y-82439933D01*
X120292045Y-82428072D01*
X120258879Y-82379632D01*
X120256300Y-82341155D01*
X120041343Y-82341155D01*
X120034144Y-82402887D01*
X119984664Y-82436042D01*
X119917634Y-82439933D01*
X119827679Y-82429444D01*
X119794524Y-82379963D01*
X119790634Y-82312933D01*
X119557800Y-82312933D01*
X119539186Y-82394349D01*
X119467217Y-82428486D01*
X119441384Y-82432162D01*
X119360454Y-82432051D01*
X119329418Y-82389786D01*
X119324967Y-82312933D01*
X119070967Y-82312933D01*
X119059576Y-82403697D01*
X119011156Y-82436900D01*
X118965134Y-82439933D01*
X118889497Y-82426264D01*
X118861828Y-82368160D01*
X118859300Y-82312933D01*
X118605300Y-82312933D01*
X118593986Y-82403621D01*
X118545543Y-82436826D01*
X118498138Y-82439933D01*
X118396326Y-82407789D01*
X118354178Y-82324702D01*
X118139634Y-82324702D01*
X118139634Y-82439933D01*
X117885634Y-82439933D01*
X117744863Y-82442174D01*
X117668862Y-82454419D01*
X117637747Y-82484952D01*
X117631639Y-82542057D01*
X117631634Y-82545766D01*
X117637012Y-82604421D01*
X117666400Y-82636088D01*
X117739679Y-82649052D01*
X117876731Y-82651597D01*
X117885634Y-82651600D01*
X118139634Y-82651600D01*
X118139634Y-82790369D01*
X118354178Y-82790369D01*
X118366609Y-82715100D01*
X118422991Y-82666774D01*
X118498138Y-82651600D01*
X118574660Y-82665009D01*
X118602679Y-82722419D01*
X118605300Y-82778600D01*
X118859300Y-82778600D01*
X118870691Y-82687836D01*
X118919111Y-82654633D01*
X118965134Y-82651600D01*
X119040770Y-82665269D01*
X119068439Y-82723373D01*
X119070838Y-82775788D01*
X119324967Y-82775788D01*
X119333670Y-82685913D01*
X119375626Y-82656402D01*
X119441384Y-82659371D01*
X119532054Y-82689691D01*
X119568534Y-82769771D01*
X119571195Y-82789183D01*
X119571125Y-82806822D01*
X119790634Y-82806822D01*
X119809203Y-82699607D01*
X119872820Y-82658421D01*
X119937058Y-82660397D01*
X120011558Y-82706689D01*
X120036862Y-82789183D01*
X120036792Y-82806822D01*
X120256300Y-82806822D01*
X120273060Y-82702363D01*
X120336879Y-82657924D01*
X120411522Y-82651600D01*
X120482498Y-82666850D01*
X120508294Y-82729130D01*
X120510300Y-82778600D01*
X120764300Y-82778600D01*
X120775691Y-82687836D01*
X120824111Y-82654633D01*
X120870134Y-82651600D01*
X120945770Y-82665269D01*
X120973439Y-82723373D01*
X120975967Y-82778600D01*
X121229967Y-82778600D01*
X121241357Y-82687836D01*
X121289777Y-82654633D01*
X121335800Y-82651600D01*
X121411436Y-82665269D01*
X121439106Y-82723373D01*
X121441505Y-82775788D01*
X121695634Y-82775788D01*
X121704336Y-82685913D01*
X121746292Y-82656402D01*
X121812050Y-82659371D01*
X121902721Y-82689691D01*
X121939200Y-82769771D01*
X121941862Y-82789183D01*
X121941535Y-82870682D01*
X121898295Y-82901477D01*
X121825445Y-82905600D01*
X121734240Y-82895760D01*
X121700063Y-82848266D01*
X121695634Y-82775788D01*
X121441505Y-82775788D01*
X121441634Y-82778600D01*
X121430243Y-82869363D01*
X121381823Y-82902567D01*
X121335800Y-82905600D01*
X121260164Y-82891931D01*
X121232494Y-82833827D01*
X121229967Y-82778600D01*
X120975967Y-82778600D01*
X120964576Y-82869363D01*
X120916156Y-82902567D01*
X120870134Y-82905600D01*
X120794497Y-82891931D01*
X120766828Y-82833827D01*
X120764300Y-82778600D01*
X120510300Y-82778600D01*
X120499811Y-82868554D01*
X120450330Y-82901709D01*
X120383300Y-82905600D01*
X120292045Y-82893738D01*
X120258879Y-82845299D01*
X120256300Y-82806822D01*
X120036792Y-82806822D01*
X120036535Y-82870682D01*
X119993295Y-82901477D01*
X119920445Y-82905600D01*
X119827911Y-82894326D01*
X119793659Y-82847918D01*
X119790634Y-82806822D01*
X119571125Y-82806822D01*
X119570868Y-82870682D01*
X119527628Y-82901477D01*
X119454779Y-82905600D01*
X119363573Y-82895760D01*
X119329397Y-82848266D01*
X119324967Y-82775788D01*
X119070838Y-82775788D01*
X119070967Y-82778600D01*
X119059576Y-82869363D01*
X119011156Y-82902567D01*
X118965134Y-82905600D01*
X118889497Y-82891931D01*
X118861828Y-82833827D01*
X118859300Y-82778600D01*
X118605300Y-82778600D01*
X118593986Y-82869287D01*
X118545543Y-82902493D01*
X118498138Y-82905600D01*
X118396326Y-82873455D01*
X118354178Y-82790369D01*
X118139634Y-82790369D01*
X118139634Y-82905600D01*
X117631634Y-82905600D01*
X117631634Y-83159600D01*
X118139634Y-83159600D01*
X118139634Y-83392433D01*
X118142381Y-83525782D01*
X118156901Y-83595215D01*
X118192612Y-83621452D01*
X118245467Y-83625266D01*
X118306080Y-83619223D01*
X118337640Y-83587278D01*
X118349566Y-83508715D01*
X118351300Y-83392433D01*
X118353433Y-83259326D01*
X118367408Y-83190045D01*
X118404595Y-83163749D01*
X118476358Y-83159600D01*
X118478300Y-83159600D01*
X118550904Y-83163510D01*
X118588694Y-83189132D01*
X118603037Y-83257306D01*
X118605300Y-83388873D01*
X118605300Y-83392433D01*
X118607433Y-83525540D01*
X118621408Y-83594822D01*
X118658595Y-83621117D01*
X118730358Y-83625266D01*
X118732300Y-83625266D01*
X118804904Y-83621357D01*
G37*
X118804904Y-83621357D02*
X118842694Y-83595735D01*
X118857037Y-83527560D01*
X118859300Y-83395994D01*
X118859300Y-83392433D01*
X118862047Y-83259085D01*
X118876568Y-83189651D01*
X118912278Y-83163414D01*
X118965134Y-83159600D01*
X119025746Y-83165644D01*
X119057307Y-83197588D01*
X119069233Y-83276152D01*
X119070967Y-83392433D01*
X119073099Y-83525540D01*
X119087075Y-83594822D01*
X119124261Y-83621117D01*
X119196025Y-83625266D01*
X119197967Y-83625266D01*
X119270571Y-83621357D01*
X119308361Y-83595735D01*
X119322703Y-83527560D01*
X119324967Y-83395994D01*
X119324967Y-83392433D01*
X119327099Y-83259326D01*
X119341075Y-83190045D01*
X119378261Y-83163749D01*
X119450025Y-83159600D01*
X119451967Y-83159600D01*
X119524571Y-83163510D01*
X119562361Y-83189132D01*
X119576703Y-83257306D01*
X119578967Y-83388873D01*
X119578967Y-83392433D01*
X119581714Y-83525782D01*
X119596234Y-83595215D01*
X119631945Y-83621452D01*
X119684800Y-83625266D01*
X119745413Y-83619223D01*
X119776974Y-83587278D01*
X119788900Y-83508715D01*
X119790634Y-83392433D01*
X119792766Y-83259326D01*
X119806742Y-83190045D01*
X119843928Y-83163749D01*
X119915691Y-83159600D01*
X119917634Y-83159600D01*
X119990237Y-83163510D01*
X120028027Y-83189132D01*
X120042370Y-83257306D01*
X120044633Y-83388873D01*
X120044634Y-83392433D01*
X120047381Y-83525782D01*
X120061901Y-83595215D01*
X120097612Y-83621452D01*
X120150467Y-83625266D01*
X120211080Y-83619223D01*
X120242640Y-83587278D01*
X120254566Y-83508715D01*
X120256300Y-83392433D01*
X120258433Y-83259326D01*
X120272408Y-83190045D01*
X120309595Y-83163749D01*
X120381358Y-83159600D01*
X120383300Y-83159600D01*
X120455904Y-83163510D01*
X120493694Y-83189132D01*
X120508037Y-83257306D01*
X120510300Y-83388873D01*
X120510300Y-83392433D01*
X120512433Y-83525540D01*
X120526408Y-83594822D01*
X120563595Y-83621117D01*
X120635358Y-83625266D01*
X120637300Y-83625266D01*
X120709904Y-83621357D01*
X120747694Y-83595735D01*
X120762037Y-83527560D01*
X120764300Y-83395994D01*
X120764300Y-83392433D01*
X120767047Y-83259085D01*
X120781568Y-83189651D01*
X120817278Y-83163414D01*
X120870134Y-83159600D01*
X120930746Y-83165644D01*
X120962307Y-83197588D01*
X120974233Y-83276152D01*
X120975967Y-83392433D01*
X120978099Y-83525540D01*
X120992075Y-83594822D01*
X121029261Y-83621117D01*
X121101025Y-83625266D01*
X121102967Y-83625266D01*
X121175571Y-83621357D01*
X121213361Y-83595735D01*
X121227703Y-83527560D01*
X121229967Y-83395994D01*
X121229967Y-83392433D01*
X121232714Y-83259085D01*
X121247234Y-83189651D01*
X121282945Y-83163414D01*
X121335800Y-83159600D01*
X121396413Y-83165644D01*
X121427974Y-83197588D01*
X121439900Y-83276152D01*
X121441634Y-83392433D01*
X121443766Y-83525540D01*
X121457742Y-83594822D01*
X121494928Y-83621117D01*
X121566691Y-83625266D01*
X121568634Y-83625266D01*
X121641237Y-83621357D01*
X121679027Y-83595735D01*
X121693370Y-83527560D01*
X121695633Y-83395994D01*
X121695634Y-83392433D01*
X121697766Y-83259326D01*
X121711742Y-83190045D01*
X121748928Y-83163749D01*
X121820691Y-83159600D01*
X121822634Y-83159600D01*
X121895237Y-83163510D01*
X121933027Y-83189132D01*
X121947370Y-83257306D01*
X121949633Y-83388873D01*
X121949634Y-83392433D01*
X121952381Y-83525782D01*
X121966901Y-83595215D01*
X122002612Y-83621452D01*
X122055467Y-83625266D01*
X122116080Y-83619223D01*
X122147640Y-83587278D01*
X122159566Y-83508715D01*
X122161300Y-83392433D01*
X122161300Y-83159600D01*
X122394134Y-83159600D01*
X122527241Y-83157467D01*
X122596522Y-83143492D01*
X122622817Y-83106305D01*
X122626967Y-83034542D01*
X122626967Y-83032600D01*
X122623141Y-82960317D01*
X122597854Y-82922499D01*
X122530389Y-82907982D01*
X122400031Y-82905601D01*
X122391322Y-82905600D01*
X122257467Y-82903572D01*
X122188770Y-82890676D01*
X122165722Y-82856695D01*
X122168816Y-82791410D01*
X122169072Y-82789183D01*
X122183754Y-82720771D01*
X122222502Y-82684150D01*
X122307895Y-82666939D01*
X122404717Y-82659971D01*
X122534562Y-82648933D01*
X122600791Y-82627891D01*
X122624448Y-82585823D01*
X122626967Y-82543554D01*
X122620621Y-82484182D01*
X122587790Y-82453265D01*
X122507785Y-82441597D01*
X122394134Y-82439933D01*
X122261026Y-82437801D01*
X122191745Y-82423825D01*
X122165450Y-82386639D01*
X122161300Y-82314875D01*
X122161300Y-82312933D01*
X122165210Y-82240329D01*
X122190832Y-82202539D01*
X122259007Y-82188197D01*
X122390573Y-82185933D01*
X122394134Y-82185933D01*
X122527541Y-82183109D01*
X122597010Y-82168498D01*
X122623229Y-82132892D01*
X122626967Y-82082312D01*
X122619326Y-82021334D01*
X122582374Y-81988328D01*
X122495066Y-81972271D01*
X122404717Y-81965895D01*
X122274453Y-81954828D01*
X122206265Y-81932813D01*
X122177576Y-81887469D01*
X122169072Y-81836683D01*
X122165554Y-81770439D01*
X122187667Y-81735767D01*
X122254918Y-81722449D01*
X122386814Y-81720267D01*
X122391322Y-81720266D01*
X122525441Y-81718205D01*
X122595611Y-81704576D01*
X122622547Y-81668216D01*
X122626965Y-81597960D01*
X122626967Y-81593266D01*
X122623057Y-81520663D01*
X122597435Y-81482873D01*
X122529260Y-81468530D01*
X122397694Y-81466267D01*
X122394134Y-81466266D01*
X122260785Y-81463519D01*
X122191352Y-81448999D01*
X122165115Y-81413288D01*
X122161300Y-81360433D01*
X122167344Y-81299820D01*
X122199288Y-81268260D01*
X122277852Y-81256334D01*
X122394134Y-81254600D01*
X122527241Y-81252467D01*
X122596522Y-81238492D01*
X122622817Y-81201305D01*
X122626967Y-81129542D01*
X122626967Y-81127600D01*
X122623057Y-81054996D01*
X122597435Y-81017206D01*
X122529260Y-81002863D01*
X122397694Y-81000600D01*
X122394134Y-81000600D01*
X122260785Y-80997853D01*
X122191352Y-80983332D01*
X122165115Y-80947622D01*
X122161300Y-80894766D01*
X122167344Y-80834154D01*
X122199288Y-80802593D01*
X122277852Y-80790667D01*
X122394134Y-80788933D01*
X122527241Y-80786801D01*
X122596522Y-80772825D01*
X122622817Y-80735639D01*
X122626967Y-80663875D01*
X122626967Y-80661933D01*
X122623141Y-80589650D01*
X122597854Y-80551832D01*
X122530389Y-80537315D01*
X122400031Y-80534934D01*
X122391322Y-80534933D01*
X122257467Y-80532905D01*
X122188770Y-80520010D01*
X122165722Y-80486028D01*
X122168816Y-80420743D01*
X122169072Y-80418516D01*
X122183754Y-80350105D01*
X122222502Y-80313483D01*
X122307895Y-80296272D01*
X122404717Y-80289304D01*
X122534562Y-80278266D01*
X122600791Y-80257225D01*
X122624448Y-80215157D01*
X122626967Y-80172888D01*
X122620621Y-80113515D01*
X122587790Y-80082599D01*
X122507785Y-80070930D01*
X122394134Y-80069266D01*
X122261026Y-80067134D01*
X122191745Y-80053158D01*
X122165450Y-80015972D01*
X122161300Y-79944209D01*
X122161300Y-79942266D01*
X122165210Y-79869663D01*
X122190832Y-79831873D01*
X122259007Y-79817530D01*
X122390573Y-79815267D01*
X122394134Y-79815266D01*
X122527541Y-79812442D01*
X122597010Y-79797831D01*
X122623229Y-79762225D01*
X122626967Y-79711645D01*
X122619326Y-79650667D01*
X122582374Y-79617661D01*
X122495066Y-79601605D01*
X122404717Y-79595229D01*
X122274453Y-79584162D01*
X122206265Y-79562146D01*
X122177576Y-79516802D01*
X122169072Y-79466016D01*
X122165554Y-79399773D01*
X122187667Y-79365101D01*
X122254918Y-79351782D01*
X122386814Y-79349600D01*
X122391322Y-79349600D01*
X122525441Y-79347538D01*
X122595611Y-79333910D01*
X122622547Y-79297550D01*
X122626965Y-79227294D01*
X122626967Y-79222600D01*
X122623057Y-79149996D01*
X122597435Y-79112206D01*
X122529260Y-79097863D01*
X122397694Y-79095600D01*
X122161300Y-79095600D01*
X122161300Y-78862766D01*
X122158553Y-78729418D01*
X122144033Y-78659985D01*
X122108322Y-78633748D01*
X122055467Y-78629933D01*
X121994854Y-78635977D01*
X121963293Y-78667921D01*
X121951367Y-78746485D01*
X121949634Y-78862766D01*
X121947501Y-78995874D01*
X121933525Y-79065155D01*
X121896339Y-79091450D01*
X121824576Y-79095600D01*
X121822634Y-79095600D01*
X121750030Y-79091690D01*
X121712240Y-79066068D01*
X121697897Y-78997893D01*
X121695634Y-78866327D01*
X121695634Y-78862766D01*
X121693501Y-78729659D01*
X121679525Y-78660378D01*
X121642339Y-78634083D01*
X121570576Y-78629933D01*
X121568634Y-78629933D01*
X121496030Y-78633843D01*
X121458240Y-78659465D01*
X121443897Y-78727640D01*
X121441634Y-78859206D01*
X121441634Y-78862766D01*
X121438886Y-78996115D01*
X121424366Y-79065548D01*
X121388655Y-79091785D01*
X121335800Y-79095600D01*
X121275187Y-79089556D01*
X121243627Y-79057612D01*
X121231701Y-78979048D01*
X121229967Y-78862766D01*
X121227834Y-78729659D01*
X121213859Y-78660378D01*
X121176672Y-78634083D01*
X121104909Y-78629933D01*
X121102967Y-78629933D01*
X121030363Y-78633843D01*
X120992573Y-78659465D01*
X120978230Y-78727640D01*
X120975967Y-78859206D01*
X120975967Y-78862766D01*
X120973220Y-78996115D01*
X120958699Y-79065548D01*
X120922989Y-79091785D01*
X120870134Y-79095600D01*
X120809521Y-79089556D01*
X120777960Y-79057612D01*
X120766034Y-78979048D01*
X120764300Y-78862766D01*
X120762168Y-78729659D01*
X120748192Y-78660378D01*
X120711006Y-78634083D01*
X120639242Y-78629933D01*
X120637300Y-78629933D01*
X120564696Y-78633843D01*
X120526906Y-78659465D01*
X120512564Y-78727640D01*
X120510300Y-78859206D01*
X120510300Y-78862766D01*
X120508168Y-78995874D01*
X120494192Y-79065155D01*
X120457006Y-79091450D01*
X120385242Y-79095600D01*
X120383300Y-79095600D01*
X120310696Y-79091690D01*
X120272906Y-79066068D01*
X120258564Y-78997893D01*
X120256300Y-78866327D01*
X120256300Y-78862766D01*
X120253553Y-78729418D01*
X120239033Y-78659985D01*
X120203322Y-78633748D01*
X120150467Y-78629933D01*
X120089854Y-78635977D01*
X120058293Y-78667921D01*
X120046367Y-78746485D01*
X120044634Y-78862766D01*
X120042501Y-78995874D01*
X120028525Y-79065155D01*
X119991339Y-79091450D01*
X119919576Y-79095600D01*
X119917634Y-79095600D01*
X119845030Y-79091690D01*
X119807240Y-79066068D01*
X119792897Y-78997893D01*
X119790634Y-78866327D01*
X119790634Y-78862766D01*
X119787886Y-78729418D01*
X119773366Y-78659985D01*
X119737655Y-78633748D01*
X119684800Y-78629933D01*
X119624187Y-78635977D01*
X119592627Y-78667921D01*
X119580701Y-78746485D01*
X119578967Y-78862766D01*
X119576834Y-78995874D01*
X119562859Y-79065155D01*
X119525672Y-79091450D01*
X119453909Y-79095600D01*
X119451967Y-79095600D01*
X119379363Y-79091690D01*
X119341573Y-79066068D01*
X119327230Y-78997893D01*
X119324967Y-78866327D01*
X119324967Y-78862766D01*
X119322834Y-78729659D01*
X119308859Y-78660378D01*
X119271672Y-78634083D01*
X119199909Y-78629933D01*
X119197967Y-78629933D01*
X119125363Y-78633843D01*
X119087573Y-78659465D01*
X119073230Y-78727640D01*
X119070967Y-78859206D01*
X119070967Y-78862766D01*
X119068220Y-78996115D01*
X119053699Y-79065548D01*
X119017989Y-79091785D01*
X118965134Y-79095600D01*
X118904521Y-79089556D01*
X118872960Y-79057612D01*
X118861034Y-78979048D01*
X118859300Y-78862766D01*
X118857168Y-78729659D01*
X118843192Y-78660378D01*
X118806006Y-78634083D01*
X118734242Y-78629933D01*
X118732300Y-78629933D01*
X118659696Y-78633843D01*
X118621906Y-78659465D01*
X118607564Y-78727640D01*
X118605300Y-78859206D01*
X118605300Y-78862766D01*
X118603168Y-78995874D01*
X118589192Y-79065155D01*
X118552006Y-79091450D01*
X118480242Y-79095600D01*
X118478300Y-79095600D01*
X118405696Y-79091690D01*
X118367906Y-79066068D01*
X118353564Y-78997893D01*
X118351300Y-78866327D01*
X118351300Y-78862766D01*
X118348553Y-78729418D01*
X118334033Y-78659985D01*
X118298322Y-78633748D01*
X118245467Y-78629933D01*
X118184854Y-78635977D01*
X118153293Y-78667921D01*
X118141367Y-78746485D01*
X118139634Y-78862766D01*
X118139634Y-79095600D01*
X117631634Y-79095600D01*
X117631634Y-79349600D01*
X118139634Y-79349600D01*
X118139634Y-79433835D01*
X118360360Y-79433835D01*
X118423163Y-79364916D01*
X118498138Y-79349600D01*
X118574660Y-79363009D01*
X118602679Y-79420419D01*
X118605300Y-79476600D01*
X118859300Y-79476600D01*
X118870691Y-79385836D01*
X118919111Y-79352633D01*
X118965134Y-79349600D01*
X119040770Y-79363269D01*
X119068439Y-79421373D01*
X119070967Y-79476600D01*
X119070615Y-79479412D01*
X119324967Y-79479412D01*
X119334807Y-79388206D01*
X119382301Y-79354030D01*
X119454779Y-79349600D01*
X119544653Y-79358303D01*
X119574164Y-79400259D01*
X119571195Y-79466016D01*
X119798405Y-79466016D01*
X119798516Y-79385087D01*
X119840780Y-79354051D01*
X119917634Y-79349600D01*
X120008878Y-79357871D01*
X120039606Y-79398105D01*
X120036862Y-79466016D01*
X120264072Y-79466016D01*
X120264399Y-79384518D01*
X120307639Y-79353723D01*
X120380488Y-79349600D01*
X120471694Y-79359440D01*
X120505870Y-79406934D01*
X120510128Y-79476600D01*
X120764300Y-79476600D01*
X120775691Y-79385836D01*
X120824111Y-79352633D01*
X120870134Y-79349600D01*
X120945770Y-79363269D01*
X120973439Y-79421373D01*
X120975967Y-79476600D01*
X121229967Y-79476600D01*
X121241357Y-79385836D01*
X121289777Y-79352633D01*
X121335800Y-79349600D01*
X121411436Y-79363269D01*
X121439106Y-79421373D01*
X121441634Y-79476600D01*
X121441282Y-79479412D01*
X121695634Y-79479412D01*
X121705474Y-79388206D01*
X121752968Y-79354030D01*
X121825445Y-79349600D01*
X121915320Y-79358303D01*
X121944831Y-79400259D01*
X121941862Y-79466016D01*
X121911542Y-79556687D01*
X121831462Y-79593167D01*
X121812050Y-79595828D01*
X121730552Y-79595501D01*
X121699756Y-79552261D01*
X121695634Y-79479412D01*
X121441282Y-79479412D01*
X121430243Y-79567363D01*
X121381823Y-79600567D01*
X121335800Y-79603600D01*
X121260164Y-79589931D01*
X121232494Y-79531827D01*
X121229967Y-79476600D01*
X120975967Y-79476600D01*
X120964576Y-79567363D01*
X120916156Y-79600567D01*
X120870134Y-79603600D01*
X120794497Y-79589931D01*
X120766828Y-79531827D01*
X120764300Y-79476600D01*
X120510128Y-79476600D01*
X120510300Y-79479412D01*
X120501597Y-79569286D01*
X120459641Y-79598797D01*
X120393884Y-79595828D01*
X120303213Y-79565509D01*
X120266733Y-79485429D01*
X120264072Y-79466016D01*
X120036862Y-79466016D01*
X120009906Y-79553218D01*
X119941208Y-79581660D01*
X119917634Y-79582433D01*
X119836217Y-79563819D01*
X119802081Y-79491850D01*
X119798405Y-79466016D01*
X119571195Y-79466016D01*
X119540876Y-79556687D01*
X119460796Y-79593167D01*
X119441384Y-79595828D01*
X119359885Y-79595501D01*
X119329090Y-79552261D01*
X119324967Y-79479412D01*
X119070615Y-79479412D01*
X119059576Y-79567363D01*
X119011156Y-79600567D01*
X118965134Y-79603600D01*
X118889497Y-79589931D01*
X118861828Y-79531827D01*
X118859300Y-79476600D01*
X118605300Y-79476600D01*
X118593986Y-79567287D01*
X118545543Y-79600493D01*
X118498138Y-79603600D01*
X118407980Y-79581179D01*
X118366609Y-79540100D01*
X118360360Y-79433835D01*
X118139634Y-79433835D01*
X118139634Y-79603600D01*
X117885634Y-79603600D01*
X117744863Y-79605841D01*
X117668862Y-79618086D01*
X117637747Y-79648619D01*
X117631639Y-79705724D01*
X117631634Y-79709433D01*
X117637012Y-79768087D01*
X117666400Y-79799755D01*
X117739679Y-79812719D01*
X117876731Y-79815264D01*
X117885634Y-79815266D01*
X118139634Y-79815266D01*
X118139634Y-79899502D01*
X118360360Y-79899502D01*
X118423163Y-79830583D01*
X118498138Y-79815266D01*
X118574660Y-79828675D01*
X118602679Y-79886086D01*
X118605300Y-79942266D01*
X118859300Y-79942266D01*
X118870691Y-79851503D01*
X118919111Y-79818299D01*
X118965134Y-79815266D01*
X119040770Y-79828935D01*
X119068439Y-79887039D01*
X119070967Y-79942266D01*
X119324967Y-79942266D01*
X119333238Y-79851022D01*
X119373472Y-79820294D01*
X119441384Y-79823038D01*
X119528585Y-79849994D01*
X119557027Y-79918692D01*
X119557800Y-79942266D01*
X119790634Y-79942266D01*
X119801123Y-79852312D01*
X119850603Y-79819157D01*
X119917634Y-79815266D01*
X120007588Y-79825756D01*
X120040743Y-79875236D01*
X120044019Y-79931683D01*
X120264072Y-79931683D01*
X120264399Y-79850185D01*
X120307639Y-79819389D01*
X120380488Y-79815266D01*
X120471694Y-79825107D01*
X120505870Y-79872601D01*
X120510128Y-79942266D01*
X120764300Y-79942266D01*
X120775691Y-79851503D01*
X120824111Y-79818299D01*
X120870134Y-79815266D01*
X120945770Y-79828935D01*
X120973439Y-79887039D01*
X120975967Y-79942266D01*
X121229967Y-79942266D01*
X121241357Y-79851503D01*
X121289777Y-79818299D01*
X121335800Y-79815266D01*
X121411436Y-79828935D01*
X121439106Y-79887039D01*
X121441634Y-79942266D01*
X121441282Y-79945078D01*
X121695634Y-79945078D01*
X121705474Y-79853873D01*
X121752968Y-79819696D01*
X121825445Y-79815266D01*
X121915320Y-79823969D01*
X121944831Y-79865925D01*
X121941862Y-79931683D01*
X121911542Y-80022354D01*
X121831462Y-80058833D01*
X121812050Y-80061495D01*
X121730552Y-80061168D01*
X121699756Y-80017928D01*
X121695634Y-79945078D01*
X121441282Y-79945078D01*
X121430243Y-80033030D01*
X121381823Y-80066234D01*
X121335800Y-80069266D01*
X121260164Y-80055598D01*
X121232494Y-79997494D01*
X121229967Y-79942266D01*
X120975967Y-79942266D01*
X120964576Y-80033030D01*
X120916156Y-80066234D01*
X120870134Y-80069266D01*
X120794497Y-80055598D01*
X120766828Y-79997494D01*
X120764300Y-79942266D01*
X120510128Y-79942266D01*
X120510300Y-79945078D01*
X120501597Y-80034953D01*
X120459641Y-80064464D01*
X120393884Y-80061495D01*
X120303213Y-80031175D01*
X120266733Y-79951095D01*
X120264072Y-79931683D01*
X120044019Y-79931683D01*
X120044634Y-79942266D01*
X120034144Y-80032221D01*
X119984664Y-80065376D01*
X119917634Y-80069266D01*
X119827679Y-80058777D01*
X119794524Y-80009297D01*
X119790634Y-79942266D01*
X119557800Y-79942266D01*
X119539186Y-80023683D01*
X119467217Y-80057819D01*
X119441384Y-80061495D01*
X119360454Y-80061384D01*
X119329418Y-80019120D01*
X119324967Y-79942266D01*
X119070967Y-79942266D01*
X119059576Y-80033030D01*
X119011156Y-80066234D01*
X118965134Y-80069266D01*
X118889497Y-80055598D01*
X118861828Y-79997494D01*
X118859300Y-79942266D01*
X118605300Y-79942266D01*
X118593986Y-80032954D01*
X118545543Y-80066160D01*
X118498138Y-80069266D01*
X118407980Y-80046846D01*
X118366609Y-80005766D01*
X118360360Y-79899502D01*
X118139634Y-79899502D01*
X118139634Y-80069266D01*
X117885634Y-80069266D01*
X117744863Y-80071507D01*
X117668862Y-80083752D01*
X117637747Y-80114286D01*
X117631639Y-80171390D01*
X117631634Y-80175100D01*
X117637012Y-80233754D01*
X117666400Y-80265421D01*
X117739679Y-80278386D01*
X117876731Y-80280931D01*
X117885634Y-80280933D01*
X118139634Y-80280933D01*
X118139634Y-80419702D01*
X118354178Y-80419702D01*
X118366609Y-80344433D01*
X118422991Y-80296107D01*
X118498138Y-80280933D01*
X118574660Y-80294342D01*
X118602679Y-80351753D01*
X118605300Y-80407933D01*
X118859300Y-80407933D01*
X118870691Y-80317170D01*
X118919111Y-80283966D01*
X118965134Y-80280933D01*
X119040770Y-80294602D01*
X119068439Y-80352706D01*
X119070838Y-80405121D01*
X119324967Y-80405121D01*
X119333670Y-80315247D01*
X119375626Y-80285736D01*
X119441384Y-80288705D01*
X119532054Y-80319024D01*
X119568534Y-80399104D01*
X119569358Y-80405121D01*
X119790634Y-80405121D01*
X119799336Y-80315247D01*
X119841292Y-80285736D01*
X119907050Y-80288705D01*
X119997721Y-80319024D01*
X120034200Y-80399104D01*
X120036862Y-80418516D01*
X120036792Y-80436155D01*
X120256300Y-80436155D01*
X120273060Y-80331697D01*
X120336879Y-80287257D01*
X120411522Y-80280933D01*
X120482498Y-80296184D01*
X120508294Y-80358463D01*
X120510300Y-80407933D01*
X120764300Y-80407933D01*
X120775691Y-80317170D01*
X120824111Y-80283966D01*
X120870134Y-80280933D01*
X120945770Y-80294602D01*
X120973439Y-80352706D01*
X120975967Y-80407933D01*
X121229967Y-80407933D01*
X121241357Y-80317170D01*
X121289777Y-80283966D01*
X121335800Y-80280933D01*
X121411436Y-80294602D01*
X121439106Y-80352706D01*
X121441505Y-80405121D01*
X121695634Y-80405121D01*
X121704336Y-80315247D01*
X121746292Y-80285736D01*
X121812050Y-80288705D01*
X121902721Y-80319024D01*
X121939200Y-80399104D01*
X121941862Y-80418516D01*
X121941535Y-80500015D01*
X121898295Y-80530810D01*
X121825445Y-80534933D01*
X121734240Y-80525093D01*
X121700063Y-80477599D01*
X121695634Y-80405121D01*
X121441505Y-80405121D01*
X121441634Y-80407933D01*
X121430243Y-80498697D01*
X121381823Y-80531900D01*
X121335800Y-80534933D01*
X121260164Y-80521264D01*
X121232494Y-80463160D01*
X121229967Y-80407933D01*
X120975967Y-80407933D01*
X120964576Y-80498697D01*
X120916156Y-80531900D01*
X120870134Y-80534933D01*
X120794497Y-80521264D01*
X120766828Y-80463160D01*
X120764300Y-80407933D01*
X120510300Y-80407933D01*
X120499811Y-80497887D01*
X120450330Y-80531042D01*
X120383300Y-80534933D01*
X120292045Y-80523072D01*
X120258879Y-80474632D01*
X120256300Y-80436155D01*
X120036792Y-80436155D01*
X120036535Y-80500015D01*
X119993295Y-80530810D01*
X119920445Y-80534933D01*
X119829240Y-80525093D01*
X119795063Y-80477599D01*
X119790634Y-80405121D01*
X119569358Y-80405121D01*
X119571195Y-80418516D01*
X119570868Y-80500015D01*
X119527628Y-80530810D01*
X119454779Y-80534933D01*
X119363573Y-80525093D01*
X119329397Y-80477599D01*
X119324967Y-80405121D01*
X119070838Y-80405121D01*
X119070967Y-80407933D01*
X119059576Y-80498697D01*
X119011156Y-80531900D01*
X118965134Y-80534933D01*
X118889497Y-80521264D01*
X118861828Y-80463160D01*
X118859300Y-80407933D01*
X118605300Y-80407933D01*
X118593986Y-80498621D01*
X118545543Y-80531826D01*
X118498138Y-80534933D01*
X118396326Y-80502789D01*
X118354178Y-80419702D01*
X118139634Y-80419702D01*
X118139634Y-80534933D01*
X117631634Y-80534933D01*
X117631634Y-80788933D01*
X117885634Y-80788933D01*
X118026404Y-80791174D01*
X118102405Y-80803419D01*
X118133520Y-80833952D01*
X118139628Y-80891057D01*
X118139634Y-80894766D01*
X118351300Y-80894766D01*
X118364969Y-80819130D01*
X118423073Y-80791461D01*
X118478300Y-80788933D01*
X118569064Y-80800324D01*
X118602267Y-80848744D01*
X118605300Y-80894766D01*
X118859300Y-80894766D01*
X118876785Y-80814206D01*
X118945630Y-80789380D01*
X118965134Y-80788933D01*
X119045694Y-80806418D01*
X119070520Y-80875263D01*
X119070967Y-80894766D01*
X119324967Y-80894766D01*
X119338636Y-80819130D01*
X119396740Y-80791461D01*
X119451967Y-80788933D01*
X119542730Y-80800324D01*
X119575934Y-80848744D01*
X119578967Y-80894766D01*
X119790634Y-80894766D01*
X119804302Y-80819130D01*
X119862406Y-80791461D01*
X119917634Y-80788933D01*
X120008397Y-80800324D01*
X120041601Y-80848744D01*
X120044634Y-80894766D01*
X120256300Y-80894766D01*
X120269969Y-80819130D01*
X120328073Y-80791461D01*
X120383300Y-80788933D01*
X120474064Y-80800324D01*
X120507267Y-80848744D01*
X120510300Y-80894766D01*
X120764300Y-80894766D01*
X120781785Y-80814206D01*
X120850630Y-80789380D01*
X120870134Y-80788933D01*
X120950694Y-80806418D01*
X120975520Y-80875263D01*
X120975967Y-80894766D01*
X121229967Y-80894766D01*
X121247452Y-80814206D01*
X121316297Y-80789380D01*
X121335800Y-80788933D01*
X121416361Y-80806418D01*
X121441187Y-80875263D01*
X121441634Y-80894766D01*
X121695634Y-80894766D01*
X121709302Y-80819130D01*
X121767406Y-80791461D01*
X121822634Y-80788933D01*
X121913397Y-80800324D01*
X121946601Y-80848744D01*
X121949634Y-80894766D01*
X121935965Y-80970403D01*
X121877861Y-80998072D01*
X121822634Y-81000600D01*
X121731870Y-80989209D01*
X121698666Y-80940789D01*
X121695634Y-80894766D01*
X121441634Y-80894766D01*
X121424149Y-80975327D01*
X121355304Y-81000153D01*
X121335800Y-81000600D01*
X121255239Y-80983115D01*
X121230414Y-80914270D01*
X121229967Y-80894766D01*
X120975967Y-80894766D01*
X120958482Y-80975327D01*
X120889637Y-81000153D01*
X120870134Y-81000600D01*
X120789573Y-80983115D01*
X120764747Y-80914270D01*
X120764300Y-80894766D01*
X120510300Y-80894766D01*
X120496631Y-80970403D01*
X120438527Y-80998072D01*
X120383300Y-81000600D01*
X120292537Y-80989209D01*
X120259333Y-80940789D01*
X120256300Y-80894766D01*
X120044634Y-80894766D01*
X120030965Y-80970403D01*
X119972861Y-80998072D01*
X119917634Y-81000600D01*
X119826870Y-80989209D01*
X119793666Y-80940789D01*
X119790634Y-80894766D01*
X119578967Y-80894766D01*
X119565298Y-80970403D01*
X119507194Y-80998072D01*
X119451967Y-81000600D01*
X119361203Y-80989209D01*
X119328000Y-80940789D01*
X119324967Y-80894766D01*
X119070967Y-80894766D01*
X119053482Y-80975327D01*
X118984637Y-81000153D01*
X118965134Y-81000600D01*
X118884573Y-80983115D01*
X118859747Y-80914270D01*
X118859300Y-80894766D01*
X118605300Y-80894766D01*
X118591631Y-80970403D01*
X118533527Y-80998072D01*
X118478300Y-81000600D01*
X118387537Y-80989209D01*
X118354333Y-80940789D01*
X118351300Y-80894766D01*
X118139634Y-80894766D01*
X118134255Y-80953421D01*
X118104867Y-80985088D01*
X118031588Y-80998052D01*
X117894536Y-81000597D01*
X117885634Y-81000600D01*
X117631634Y-81000600D01*
X117631634Y-81254600D01*
X117885634Y-81254600D01*
X118026404Y-81256841D01*
X118102405Y-81269086D01*
X118133520Y-81299619D01*
X118139628Y-81356724D01*
X118139634Y-81360433D01*
X118351300Y-81360433D01*
X118364969Y-81284797D01*
X118423073Y-81257127D01*
X118478300Y-81254600D01*
X118569064Y-81265990D01*
X118602267Y-81314410D01*
X118605300Y-81360433D01*
X118859300Y-81360433D01*
X118876785Y-81279872D01*
X118945630Y-81255047D01*
X118965134Y-81254600D01*
X119045694Y-81272085D01*
X119070520Y-81340930D01*
X119070967Y-81360433D01*
X119324967Y-81360433D01*
X119338636Y-81284797D01*
X119396740Y-81257127D01*
X119451967Y-81254600D01*
X119542730Y-81265990D01*
X119575934Y-81314410D01*
X119578967Y-81360433D01*
X119790634Y-81360433D01*
X119804302Y-81284797D01*
X119862406Y-81257127D01*
X119917634Y-81254600D01*
X120008397Y-81265990D01*
X120041601Y-81314410D01*
X120044634Y-81360433D01*
X120256300Y-81360433D01*
X120269969Y-81284797D01*
X120328073Y-81257127D01*
X120383300Y-81254600D01*
X120474064Y-81265990D01*
X120507267Y-81314410D01*
X120510300Y-81360433D01*
X120764300Y-81360433D01*
X120781785Y-81279872D01*
X120850630Y-81255047D01*
X120870134Y-81254600D01*
X120950694Y-81272085D01*
X120975520Y-81340930D01*
X120975967Y-81360433D01*
X121229967Y-81360433D01*
X121247452Y-81279872D01*
X121316297Y-81255047D01*
X121335800Y-81254600D01*
X121416361Y-81272085D01*
X121441187Y-81340930D01*
X121441634Y-81360433D01*
X121695634Y-81360433D01*
X121709302Y-81284797D01*
X121767406Y-81257127D01*
X121822634Y-81254600D01*
X121913397Y-81265990D01*
X121946601Y-81314410D01*
X121949634Y-81360433D01*
X121935965Y-81436069D01*
X121877861Y-81463739D01*
X121822634Y-81466266D01*
X121731870Y-81454876D01*
X121698666Y-81406456D01*
X121695634Y-81360433D01*
X121441634Y-81360433D01*
X121424149Y-81440994D01*
X121355304Y-81465820D01*
X121335800Y-81466266D01*
X121255239Y-81448782D01*
X121230414Y-81379937D01*
X121229967Y-81360433D01*
X120975967Y-81360433D01*
X120958482Y-81440994D01*
X120889637Y-81465820D01*
X120870134Y-81466266D01*
X120789573Y-81448782D01*
X120764747Y-81379937D01*
X120764300Y-81360433D01*
X120510300Y-81360433D01*
X120496631Y-81436069D01*
X120438527Y-81463739D01*
X120383300Y-81466266D01*
X120292537Y-81454876D01*
X120259333Y-81406456D01*
X120256300Y-81360433D01*
X120044634Y-81360433D01*
X120030965Y-81436069D01*
X119972861Y-81463739D01*
X119917634Y-81466266D01*
X119826870Y-81454876D01*
X119793666Y-81406456D01*
X119790634Y-81360433D01*
X119578967Y-81360433D01*
X119565298Y-81436069D01*
X119507194Y-81463739D01*
X119451967Y-81466266D01*
X119361203Y-81454876D01*
X119328000Y-81406456D01*
X119324967Y-81360433D01*
X119070967Y-81360433D01*
X119053482Y-81440994D01*
X118984637Y-81465820D01*
X118965134Y-81466266D01*
X118884573Y-81448782D01*
X118859747Y-81379937D01*
X118859300Y-81360433D01*
X118605300Y-81360433D01*
X118591631Y-81436069D01*
X118533527Y-81463739D01*
X118478300Y-81466266D01*
X118387537Y-81454876D01*
X118354333Y-81406456D01*
X118351300Y-81360433D01*
X118139634Y-81360433D01*
X118134255Y-81419087D01*
X118104867Y-81450755D01*
X118031588Y-81463719D01*
X117894536Y-81466264D01*
X117885634Y-81466266D01*
X117631634Y-81466266D01*
X117631634Y-81720266D01*
X118139634Y-81720266D01*
X118139634Y-81859035D01*
X118354178Y-81859035D01*
X118366609Y-81783766D01*
X118422991Y-81735441D01*
X118498138Y-81720266D01*
X118574660Y-81733675D01*
X118602679Y-81791086D01*
X118605300Y-81847266D01*
X118859300Y-81847266D01*
X118870691Y-81756503D01*
X118919111Y-81723299D01*
X118965134Y-81720266D01*
X119040770Y-81733935D01*
X119068439Y-81792039D01*
X119070967Y-81847266D01*
X119070615Y-81850078D01*
X119324967Y-81850078D01*
X119334807Y-81758873D01*
X119382301Y-81724696D01*
X119454779Y-81720266D01*
X119544653Y-81728969D01*
X119574164Y-81770925D01*
X119571195Y-81836683D01*
X119566716Y-81850078D01*
X119790634Y-81850078D01*
X119800474Y-81758873D01*
X119847968Y-81724696D01*
X119920445Y-81720266D01*
X120010320Y-81728969D01*
X120039831Y-81770925D01*
X120036862Y-81836683D01*
X120264072Y-81836683D01*
X120264399Y-81755185D01*
X120307639Y-81724389D01*
X120380488Y-81720266D01*
X120471694Y-81730107D01*
X120505870Y-81777601D01*
X120510128Y-81847266D01*
X120764300Y-81847266D01*
X120775691Y-81756503D01*
X120824111Y-81723299D01*
X120870134Y-81720266D01*
X120945770Y-81733935D01*
X120973439Y-81792039D01*
X120975967Y-81847266D01*
X121229967Y-81847266D01*
X121241357Y-81756503D01*
X121289777Y-81723299D01*
X121335800Y-81720266D01*
X121411436Y-81733935D01*
X121439106Y-81792039D01*
X121441634Y-81847266D01*
X121441282Y-81850078D01*
X121695634Y-81850078D01*
X121705474Y-81758873D01*
X121752968Y-81724696D01*
X121825445Y-81720266D01*
X121915320Y-81728969D01*
X121944831Y-81770925D01*
X121941862Y-81836683D01*
X121911542Y-81927354D01*
X121831462Y-81963833D01*
X121812050Y-81966495D01*
X121730552Y-81966168D01*
X121699756Y-81922928D01*
X121695634Y-81850078D01*
X121441282Y-81850078D01*
X121430243Y-81938030D01*
X121381823Y-81971234D01*
X121335800Y-81974266D01*
X121260164Y-81960598D01*
X121232494Y-81902494D01*
X121229967Y-81847266D01*
X120975967Y-81847266D01*
X120964576Y-81938030D01*
X120916156Y-81971234D01*
X120870134Y-81974266D01*
X120794497Y-81960598D01*
X120766828Y-81902494D01*
X120764300Y-81847266D01*
X120510128Y-81847266D01*
X120510300Y-81850078D01*
X120501597Y-81939953D01*
X120459641Y-81969464D01*
X120393884Y-81966495D01*
X120303213Y-81936175D01*
X120266733Y-81856095D01*
X120264072Y-81836683D01*
X120036862Y-81836683D01*
X120006542Y-81927354D01*
X119926462Y-81963833D01*
X119907050Y-81966495D01*
X119825552Y-81966168D01*
X119794756Y-81922928D01*
X119790634Y-81850078D01*
X119566716Y-81850078D01*
X119540876Y-81927354D01*
X119460796Y-81963833D01*
X119441384Y-81966495D01*
X119359885Y-81966168D01*
X119329090Y-81922928D01*
X119324967Y-81850078D01*
X119070615Y-81850078D01*
X119059576Y-81938030D01*
X119011156Y-81971234D01*
X118965134Y-81974266D01*
X118889497Y-81960598D01*
X118861828Y-81902494D01*
X118859300Y-81847266D01*
X118605300Y-81847266D01*
X118593986Y-81937954D01*
X118545543Y-81971160D01*
X118498138Y-81974266D01*
X118396326Y-81942122D01*
X118354178Y-81859035D01*
X118139634Y-81859035D01*
X118139634Y-81974266D01*
X117885634Y-81974266D01*
X117744863Y-81976507D01*
X117668862Y-81988752D01*
X117637747Y-82019286D01*
X117631639Y-82076390D01*
X117631634Y-82080100D01*
X117637012Y-82138754D01*
X117666400Y-82170421D01*
X117739679Y-82183386D01*
X117876731Y-82185931D01*
X117885634Y-82185933D01*
X118139634Y-82185933D01*
X118139634Y-82324702D01*
X118354178Y-82324702D01*
X118366609Y-82249433D01*
X118422991Y-82201107D01*
X118498138Y-82185933D01*
X118574660Y-82199342D01*
X118602679Y-82256753D01*
X118605300Y-82312933D01*
X118859300Y-82312933D01*
X118870691Y-82222170D01*
X118919111Y-82188966D01*
X118965134Y-82185933D01*
X119040770Y-82199602D01*
X119068439Y-82257706D01*
X119070967Y-82312933D01*
X119324967Y-82312933D01*
X119333238Y-82221689D01*
X119373472Y-82190961D01*
X119441384Y-82193705D01*
X119528585Y-82220660D01*
X119557027Y-82289359D01*
X119557800Y-82312933D01*
X119790634Y-82312933D01*
X119801123Y-82222979D01*
X119850603Y-82189824D01*
X119917634Y-82185933D01*
X120007588Y-82196423D01*
X120040743Y-82245903D01*
X120044634Y-82312933D01*
X120041343Y-82341155D01*
X120256300Y-82341155D01*
X120273060Y-82236697D01*
X120336879Y-82192257D01*
X120411522Y-82185933D01*
X120482498Y-82201184D01*
X120508294Y-82263463D01*
X120510300Y-82312933D01*
X120764300Y-82312933D01*
X120775691Y-82222170D01*
X120824111Y-82188966D01*
X120870134Y-82185933D01*
X120945770Y-82199602D01*
X120973439Y-82257706D01*
X120975967Y-82312933D01*
X121229967Y-82312933D01*
X121241357Y-82222170D01*
X121289777Y-82188966D01*
X121335800Y-82185933D01*
X121411436Y-82199602D01*
X121439106Y-82257706D01*
X121441505Y-82310121D01*
X121695634Y-82310121D01*
X121704336Y-82220247D01*
X121746292Y-82190736D01*
X121812050Y-82193705D01*
X121902721Y-82224024D01*
X121939200Y-82304104D01*
X121941862Y-82323516D01*
X121941535Y-82405015D01*
X121898295Y-82435810D01*
X121825445Y-82439933D01*
X121734240Y-82430093D01*
X121700063Y-82382599D01*
X121695634Y-82310121D01*
X121441505Y-82310121D01*
X121441634Y-82312933D01*
X121430243Y-82403697D01*
X121381823Y-82436900D01*
X121335800Y-82439933D01*
X121260164Y-82426264D01*
X121232494Y-82368160D01*
X121229967Y-82312933D01*
X120975967Y-82312933D01*
X120964576Y-82403697D01*
X120916156Y-82436900D01*
X120870134Y-82439933D01*
X120794497Y-82426264D01*
X120766828Y-82368160D01*
X120764300Y-82312933D01*
X120510300Y-82312933D01*
X120499811Y-82402887D01*
X120450330Y-82436042D01*
X120383300Y-82439933D01*
X120292045Y-82428072D01*
X120258879Y-82379632D01*
X120256300Y-82341155D01*
X120041343Y-82341155D01*
X120034144Y-82402887D01*
X119984664Y-82436042D01*
X119917634Y-82439933D01*
X119827679Y-82429444D01*
X119794524Y-82379963D01*
X119790634Y-82312933D01*
X119557800Y-82312933D01*
X119539186Y-82394349D01*
X119467217Y-82428486D01*
X119441384Y-82432162D01*
X119360454Y-82432051D01*
X119329418Y-82389786D01*
X119324967Y-82312933D01*
X119070967Y-82312933D01*
X119059576Y-82403697D01*
X119011156Y-82436900D01*
X118965134Y-82439933D01*
X118889497Y-82426264D01*
X118861828Y-82368160D01*
X118859300Y-82312933D01*
X118605300Y-82312933D01*
X118593986Y-82403621D01*
X118545543Y-82436826D01*
X118498138Y-82439933D01*
X118396326Y-82407789D01*
X118354178Y-82324702D01*
X118139634Y-82324702D01*
X118139634Y-82439933D01*
X117885634Y-82439933D01*
X117744863Y-82442174D01*
X117668862Y-82454419D01*
X117637747Y-82484952D01*
X117631639Y-82542057D01*
X117631634Y-82545766D01*
X117637012Y-82604421D01*
X117666400Y-82636088D01*
X117739679Y-82649052D01*
X117876731Y-82651597D01*
X117885634Y-82651600D01*
X118139634Y-82651600D01*
X118139634Y-82790369D01*
X118354178Y-82790369D01*
X118366609Y-82715100D01*
X118422991Y-82666774D01*
X118498138Y-82651600D01*
X118574660Y-82665009D01*
X118602679Y-82722419D01*
X118605300Y-82778600D01*
X118859300Y-82778600D01*
X118870691Y-82687836D01*
X118919111Y-82654633D01*
X118965134Y-82651600D01*
X119040770Y-82665269D01*
X119068439Y-82723373D01*
X119070838Y-82775788D01*
X119324967Y-82775788D01*
X119333670Y-82685913D01*
X119375626Y-82656402D01*
X119441384Y-82659371D01*
X119532054Y-82689691D01*
X119568534Y-82769771D01*
X119571195Y-82789183D01*
X119571125Y-82806822D01*
X119790634Y-82806822D01*
X119809203Y-82699607D01*
X119872820Y-82658421D01*
X119937058Y-82660397D01*
X120011558Y-82706689D01*
X120036862Y-82789183D01*
X120036792Y-82806822D01*
X120256300Y-82806822D01*
X120273060Y-82702363D01*
X120336879Y-82657924D01*
X120411522Y-82651600D01*
X120482498Y-82666850D01*
X120508294Y-82729130D01*
X120510300Y-82778600D01*
X120764300Y-82778600D01*
X120775691Y-82687836D01*
X120824111Y-82654633D01*
X120870134Y-82651600D01*
X120945770Y-82665269D01*
X120973439Y-82723373D01*
X120975967Y-82778600D01*
X121229967Y-82778600D01*
X121241357Y-82687836D01*
X121289777Y-82654633D01*
X121335800Y-82651600D01*
X121411436Y-82665269D01*
X121439106Y-82723373D01*
X121441505Y-82775788D01*
X121695634Y-82775788D01*
X121704336Y-82685913D01*
X121746292Y-82656402D01*
X121812050Y-82659371D01*
X121902721Y-82689691D01*
X121939200Y-82769771D01*
X121941862Y-82789183D01*
X121941535Y-82870682D01*
X121898295Y-82901477D01*
X121825445Y-82905600D01*
X121734240Y-82895760D01*
X121700063Y-82848266D01*
X121695634Y-82775788D01*
X121441505Y-82775788D01*
X121441634Y-82778600D01*
X121430243Y-82869363D01*
X121381823Y-82902567D01*
X121335800Y-82905600D01*
X121260164Y-82891931D01*
X121232494Y-82833827D01*
X121229967Y-82778600D01*
X120975967Y-82778600D01*
X120964576Y-82869363D01*
X120916156Y-82902567D01*
X120870134Y-82905600D01*
X120794497Y-82891931D01*
X120766828Y-82833827D01*
X120764300Y-82778600D01*
X120510300Y-82778600D01*
X120499811Y-82868554D01*
X120450330Y-82901709D01*
X120383300Y-82905600D01*
X120292045Y-82893738D01*
X120258879Y-82845299D01*
X120256300Y-82806822D01*
X120036792Y-82806822D01*
X120036535Y-82870682D01*
X119993295Y-82901477D01*
X119920445Y-82905600D01*
X119827911Y-82894326D01*
X119793659Y-82847918D01*
X119790634Y-82806822D01*
X119571125Y-82806822D01*
X119570868Y-82870682D01*
X119527628Y-82901477D01*
X119454779Y-82905600D01*
X119363573Y-82895760D01*
X119329397Y-82848266D01*
X119324967Y-82775788D01*
X119070838Y-82775788D01*
X119070967Y-82778600D01*
X119059576Y-82869363D01*
X119011156Y-82902567D01*
X118965134Y-82905600D01*
X118889497Y-82891931D01*
X118861828Y-82833827D01*
X118859300Y-82778600D01*
X118605300Y-82778600D01*
X118593986Y-82869287D01*
X118545543Y-82902493D01*
X118498138Y-82905600D01*
X118396326Y-82873455D01*
X118354178Y-82790369D01*
X118139634Y-82790369D01*
X118139634Y-82905600D01*
X117631634Y-82905600D01*
X117631634Y-83159600D01*
X118139634Y-83159600D01*
X118139634Y-83392433D01*
X118142381Y-83525782D01*
X118156901Y-83595215D01*
X118192612Y-83621452D01*
X118245467Y-83625266D01*
X118306080Y-83619223D01*
X118337640Y-83587278D01*
X118349566Y-83508715D01*
X118351300Y-83392433D01*
X118353433Y-83259326D01*
X118367408Y-83190045D01*
X118404595Y-83163749D01*
X118476358Y-83159600D01*
X118478300Y-83159600D01*
X118550904Y-83163510D01*
X118588694Y-83189132D01*
X118603037Y-83257306D01*
X118605300Y-83388873D01*
X118605300Y-83392433D01*
X118607433Y-83525540D01*
X118621408Y-83594822D01*
X118658595Y-83621117D01*
X118730358Y-83625266D01*
X118732300Y-83625266D01*
X118804904Y-83621357D01*
G36*
X146744904Y-83621357D02*
G01*
X146782694Y-83595735D01*
X146797037Y-83527560D01*
X146799300Y-83395994D01*
X146799300Y-83392433D01*
X146802047Y-83259085D01*
X146816568Y-83189651D01*
X146852278Y-83163414D01*
X146905134Y-83159600D01*
X146965746Y-83165644D01*
X146997307Y-83197588D01*
X147009233Y-83276152D01*
X147010967Y-83392433D01*
X147013099Y-83525540D01*
X147027075Y-83594822D01*
X147064261Y-83621117D01*
X147136025Y-83625266D01*
X147137967Y-83625266D01*
X147210571Y-83621357D01*
X147248361Y-83595735D01*
X147262703Y-83527560D01*
X147264967Y-83395994D01*
X147264967Y-83392433D01*
X147267099Y-83259326D01*
X147281075Y-83190045D01*
X147318261Y-83163749D01*
X147390025Y-83159600D01*
X147391967Y-83159600D01*
X147464571Y-83163510D01*
X147502361Y-83189132D01*
X147516703Y-83257306D01*
X147518967Y-83388873D01*
X147518967Y-83392433D01*
X147521714Y-83525782D01*
X147536234Y-83595215D01*
X147571945Y-83621452D01*
X147624800Y-83625266D01*
X147685413Y-83619223D01*
X147716974Y-83587278D01*
X147728900Y-83508715D01*
X147730634Y-83392433D01*
X147732766Y-83259326D01*
X147746742Y-83190045D01*
X147783928Y-83163749D01*
X147855691Y-83159600D01*
X147857634Y-83159600D01*
X147930237Y-83163510D01*
X147968027Y-83189132D01*
X147982370Y-83257306D01*
X147984633Y-83388873D01*
X147984634Y-83392433D01*
X147987381Y-83525782D01*
X148001901Y-83595215D01*
X148037612Y-83621452D01*
X148090467Y-83625266D01*
X148151080Y-83619223D01*
X148182640Y-83587278D01*
X148194566Y-83508715D01*
X148196300Y-83392433D01*
X148198433Y-83259326D01*
X148212408Y-83190045D01*
X148249595Y-83163749D01*
X148321358Y-83159600D01*
X148323300Y-83159600D01*
X148395904Y-83163510D01*
X148433694Y-83189132D01*
X148448037Y-83257306D01*
X148450300Y-83388873D01*
X148450300Y-83392433D01*
X148452433Y-83525540D01*
X148466408Y-83594822D01*
X148503595Y-83621117D01*
X148575358Y-83625266D01*
X148577300Y-83625266D01*
X148649904Y-83621357D01*
X148687694Y-83595735D01*
X148702037Y-83527560D01*
X148704300Y-83395994D01*
X148704300Y-83392433D01*
X148707047Y-83259085D01*
X148721568Y-83189651D01*
X148757278Y-83163414D01*
X148810134Y-83159600D01*
X148870746Y-83165644D01*
X148902307Y-83197588D01*
X148914233Y-83276152D01*
X148915967Y-83392433D01*
X148918099Y-83525540D01*
X148932075Y-83594822D01*
X148969261Y-83621117D01*
X149041025Y-83625266D01*
X149042967Y-83625266D01*
X149115571Y-83621357D01*
X149153361Y-83595735D01*
X149167703Y-83527560D01*
X149169967Y-83395994D01*
X149169967Y-83392433D01*
X149172714Y-83259085D01*
X149187234Y-83189651D01*
X149222945Y-83163414D01*
X149275800Y-83159600D01*
X149336413Y-83165644D01*
X149367974Y-83197588D01*
X149379900Y-83276152D01*
X149381634Y-83392433D01*
X149383766Y-83525540D01*
X149397742Y-83594822D01*
X149434928Y-83621117D01*
X149506691Y-83625266D01*
X149508634Y-83625266D01*
X149581237Y-83621357D01*
X149619027Y-83595735D01*
X149633370Y-83527560D01*
X149635633Y-83395994D01*
X149635634Y-83392433D01*
X149637766Y-83259326D01*
X149651742Y-83190045D01*
X149688928Y-83163749D01*
X149760691Y-83159600D01*
X149762634Y-83159600D01*
X149835237Y-83163510D01*
X149873027Y-83189132D01*
X149887370Y-83257306D01*
X149889633Y-83388873D01*
X149889634Y-83392433D01*
X149892381Y-83525782D01*
X149906901Y-83595215D01*
X149942612Y-83621452D01*
X149995467Y-83625266D01*
X150056080Y-83619223D01*
X150087640Y-83587278D01*
X150099566Y-83508715D01*
X150101300Y-83392433D01*
X150101300Y-83159600D01*
X150334134Y-83159600D01*
X150467241Y-83157467D01*
X150536522Y-83143492D01*
X150562817Y-83106305D01*
X150566967Y-83034542D01*
X150566967Y-83032600D01*
X150563141Y-82960317D01*
X150537854Y-82922499D01*
X150470389Y-82907982D01*
X150340031Y-82905601D01*
X150331322Y-82905600D01*
X150197467Y-82903572D01*
X150128770Y-82890676D01*
X150105722Y-82856695D01*
X150108816Y-82791410D01*
X150109072Y-82789183D01*
X150123754Y-82720771D01*
X150162502Y-82684150D01*
X150247895Y-82666939D01*
X150344717Y-82659971D01*
X150474562Y-82648933D01*
X150540791Y-82627891D01*
X150564448Y-82585823D01*
X150566967Y-82543554D01*
X150560621Y-82484182D01*
X150527790Y-82453265D01*
X150447785Y-82441597D01*
X150334134Y-82439933D01*
X150201026Y-82437801D01*
X150131745Y-82423825D01*
X150105450Y-82386639D01*
X150101300Y-82314875D01*
X150101300Y-82312933D01*
X150105210Y-82240329D01*
X150130832Y-82202539D01*
X150199007Y-82188197D01*
X150330573Y-82185933D01*
X150334134Y-82185933D01*
X150467541Y-82183109D01*
X150537010Y-82168498D01*
X150563229Y-82132892D01*
X150566967Y-82082312D01*
X150559326Y-82021334D01*
X150522374Y-81988328D01*
X150435066Y-81972271D01*
X150344717Y-81965895D01*
X150214453Y-81954828D01*
X150146265Y-81932813D01*
X150117576Y-81887469D01*
X150109072Y-81836683D01*
X150105554Y-81770439D01*
X150127667Y-81735767D01*
X150194918Y-81722449D01*
X150326814Y-81720267D01*
X150331322Y-81720266D01*
X150465441Y-81718205D01*
X150535611Y-81704576D01*
X150562547Y-81668216D01*
X150566965Y-81597960D01*
X150566967Y-81593266D01*
X150563057Y-81520663D01*
X150537435Y-81482873D01*
X150469260Y-81468530D01*
X150337694Y-81466267D01*
X150334134Y-81466266D01*
X150200785Y-81463519D01*
X150131352Y-81448999D01*
X150105115Y-81413288D01*
X150101300Y-81360433D01*
X150107344Y-81299820D01*
X150139288Y-81268260D01*
X150217852Y-81256334D01*
X150334134Y-81254600D01*
X150467241Y-81252467D01*
X150536522Y-81238492D01*
X150562817Y-81201305D01*
X150566967Y-81129542D01*
X150566967Y-81127600D01*
X150563057Y-81054996D01*
X150537435Y-81017206D01*
X150469260Y-81002863D01*
X150337694Y-81000600D01*
X150334134Y-81000600D01*
X150200785Y-80997853D01*
X150131352Y-80983332D01*
X150105115Y-80947622D01*
X150101300Y-80894766D01*
X150107344Y-80834154D01*
X150139288Y-80802593D01*
X150217852Y-80790667D01*
X150334134Y-80788933D01*
X150467241Y-80786801D01*
X150536522Y-80772825D01*
X150562817Y-80735639D01*
X150566967Y-80663875D01*
X150566967Y-80661933D01*
X150563141Y-80589650D01*
X150537854Y-80551832D01*
X150470389Y-80537315D01*
X150340031Y-80534934D01*
X150331322Y-80534933D01*
X150197467Y-80532905D01*
X150128770Y-80520010D01*
X150105722Y-80486028D01*
X150108816Y-80420743D01*
X150109072Y-80418516D01*
X150123754Y-80350105D01*
X150162502Y-80313483D01*
X150247895Y-80296272D01*
X150344717Y-80289304D01*
X150474562Y-80278266D01*
X150540791Y-80257225D01*
X150564448Y-80215157D01*
X150566967Y-80172888D01*
X150560621Y-80113515D01*
X150527790Y-80082599D01*
X150447785Y-80070930D01*
X150334134Y-80069266D01*
X150201026Y-80067134D01*
X150131745Y-80053158D01*
X150105450Y-80015972D01*
X150101300Y-79944209D01*
X150101300Y-79942266D01*
X150105210Y-79869663D01*
X150130832Y-79831873D01*
X150199007Y-79817530D01*
X150330573Y-79815267D01*
X150334134Y-79815266D01*
X150467541Y-79812442D01*
X150537010Y-79797831D01*
X150563229Y-79762225D01*
X150566967Y-79711645D01*
X150559326Y-79650667D01*
X150522374Y-79617661D01*
X150435066Y-79601605D01*
X150344717Y-79595229D01*
X150214453Y-79584162D01*
X150146265Y-79562146D01*
X150117576Y-79516802D01*
X150109072Y-79466016D01*
X150105554Y-79399773D01*
X150127667Y-79365101D01*
X150194918Y-79351782D01*
X150326814Y-79349600D01*
X150331322Y-79349600D01*
X150465441Y-79347538D01*
X150535611Y-79333910D01*
X150562547Y-79297550D01*
X150566965Y-79227294D01*
X150566967Y-79222600D01*
X150563057Y-79149996D01*
X150537435Y-79112206D01*
X150469260Y-79097863D01*
X150337694Y-79095600D01*
X150101300Y-79095600D01*
X150101300Y-78862766D01*
X150098553Y-78729418D01*
X150084033Y-78659985D01*
X150048322Y-78633748D01*
X149995467Y-78629933D01*
X149934854Y-78635977D01*
X149903293Y-78667921D01*
X149891367Y-78746485D01*
X149889634Y-78862766D01*
X149887501Y-78995874D01*
X149873525Y-79065155D01*
X149836339Y-79091450D01*
X149764576Y-79095600D01*
X149762634Y-79095600D01*
X149690030Y-79091690D01*
X149652240Y-79066068D01*
X149637897Y-78997893D01*
X149635634Y-78866327D01*
X149635634Y-78862766D01*
X149633501Y-78729659D01*
X149619525Y-78660378D01*
X149582339Y-78634083D01*
X149510576Y-78629933D01*
X149508634Y-78629933D01*
X149436030Y-78633843D01*
X149398240Y-78659465D01*
X149383897Y-78727640D01*
X149381634Y-78859206D01*
X149381634Y-78862766D01*
X149378886Y-78996115D01*
X149364366Y-79065548D01*
X149328655Y-79091785D01*
X149275800Y-79095600D01*
X149215187Y-79089556D01*
X149183627Y-79057612D01*
X149171701Y-78979048D01*
X149169967Y-78862766D01*
X149167834Y-78729659D01*
X149153859Y-78660378D01*
X149116672Y-78634083D01*
X149044909Y-78629933D01*
X149042967Y-78629933D01*
X148970363Y-78633843D01*
X148932573Y-78659465D01*
X148918230Y-78727640D01*
X148915967Y-78859206D01*
X148915967Y-78862766D01*
X148913220Y-78996115D01*
X148898699Y-79065548D01*
X148862989Y-79091785D01*
X148810134Y-79095600D01*
X148749521Y-79089556D01*
X148717960Y-79057612D01*
X148706034Y-78979048D01*
X148704300Y-78862766D01*
X148702168Y-78729659D01*
X148688192Y-78660378D01*
X148651006Y-78634083D01*
X148579242Y-78629933D01*
X148577300Y-78629933D01*
X148504696Y-78633843D01*
X148466906Y-78659465D01*
X148452564Y-78727640D01*
X148450300Y-78859206D01*
X148450300Y-78862766D01*
X148448168Y-78995874D01*
X148434192Y-79065155D01*
X148397006Y-79091450D01*
X148325242Y-79095600D01*
X148323300Y-79095600D01*
X148250696Y-79091690D01*
X148212906Y-79066068D01*
X148198564Y-78997893D01*
X148196300Y-78866327D01*
X148196300Y-78862766D01*
X148193553Y-78729418D01*
X148179033Y-78659985D01*
X148143322Y-78633748D01*
X148090467Y-78629933D01*
X148029854Y-78635977D01*
X147998293Y-78667921D01*
X147986367Y-78746485D01*
X147984634Y-78862766D01*
X147982501Y-78995874D01*
X147968525Y-79065155D01*
X147931339Y-79091450D01*
X147859576Y-79095600D01*
X147857634Y-79095600D01*
X147785030Y-79091690D01*
X147747240Y-79066068D01*
X147732897Y-78997893D01*
X147730634Y-78866327D01*
X147730634Y-78862766D01*
X147727886Y-78729418D01*
X147713366Y-78659985D01*
X147677655Y-78633748D01*
X147624800Y-78629933D01*
X147564187Y-78635977D01*
X147532627Y-78667921D01*
X147520701Y-78746485D01*
X147518967Y-78862766D01*
X147516834Y-78995874D01*
X147502859Y-79065155D01*
X147465672Y-79091450D01*
X147393909Y-79095600D01*
X147391967Y-79095600D01*
X147319363Y-79091690D01*
X147281573Y-79066068D01*
X147267230Y-78997893D01*
X147264967Y-78866327D01*
X147264967Y-78862766D01*
X147262834Y-78729659D01*
X147248859Y-78660378D01*
X147211672Y-78634083D01*
X147139909Y-78629933D01*
X147137967Y-78629933D01*
X147065363Y-78633843D01*
X147027573Y-78659465D01*
X147013230Y-78727640D01*
X147010967Y-78859206D01*
X147010967Y-78862766D01*
X147008220Y-78996115D01*
X146993699Y-79065548D01*
X146957989Y-79091785D01*
X146905134Y-79095600D01*
X146844521Y-79089556D01*
X146812960Y-79057612D01*
X146801034Y-78979048D01*
X146799300Y-78862766D01*
X146797168Y-78729659D01*
X146783192Y-78660378D01*
X146746006Y-78634083D01*
X146674242Y-78629933D01*
X146672300Y-78629933D01*
X146599696Y-78633843D01*
X146561906Y-78659465D01*
X146547564Y-78727640D01*
X146545300Y-78859206D01*
X146545300Y-78862766D01*
X146543168Y-78995874D01*
X146529192Y-79065155D01*
X146492006Y-79091450D01*
X146420242Y-79095600D01*
X146418300Y-79095600D01*
X146345696Y-79091690D01*
X146307906Y-79066068D01*
X146293564Y-78997893D01*
X146291300Y-78866327D01*
X146291300Y-78862766D01*
X146288553Y-78729418D01*
X146274033Y-78659985D01*
X146238322Y-78633748D01*
X146185467Y-78629933D01*
X146124854Y-78635977D01*
X146093293Y-78667921D01*
X146081367Y-78746485D01*
X146079634Y-78862766D01*
X146079634Y-79095600D01*
X145571634Y-79095600D01*
X145571634Y-79349600D01*
X146079634Y-79349600D01*
X146079634Y-79433835D01*
X146300360Y-79433835D01*
X146363163Y-79364916D01*
X146438138Y-79349600D01*
X146514660Y-79363009D01*
X146542679Y-79420419D01*
X146545300Y-79476600D01*
X146799300Y-79476600D01*
X146810691Y-79385836D01*
X146859111Y-79352633D01*
X146905134Y-79349600D01*
X146980770Y-79363269D01*
X147008439Y-79421373D01*
X147010967Y-79476600D01*
X147010615Y-79479412D01*
X147264967Y-79479412D01*
X147274807Y-79388206D01*
X147322301Y-79354030D01*
X147394779Y-79349600D01*
X147484653Y-79358303D01*
X147514164Y-79400259D01*
X147511195Y-79466016D01*
X147738405Y-79466016D01*
X147738516Y-79385087D01*
X147780780Y-79354051D01*
X147857634Y-79349600D01*
X147948878Y-79357871D01*
X147979606Y-79398105D01*
X147976862Y-79466016D01*
X148204072Y-79466016D01*
X148204399Y-79384518D01*
X148247639Y-79353723D01*
X148320488Y-79349600D01*
X148411694Y-79359440D01*
X148445870Y-79406934D01*
X148450128Y-79476600D01*
X148704300Y-79476600D01*
X148715691Y-79385836D01*
X148764111Y-79352633D01*
X148810134Y-79349600D01*
X148885770Y-79363269D01*
X148913439Y-79421373D01*
X148915967Y-79476600D01*
X149169967Y-79476600D01*
X149181357Y-79385836D01*
X149229777Y-79352633D01*
X149275800Y-79349600D01*
X149351436Y-79363269D01*
X149379106Y-79421373D01*
X149381634Y-79476600D01*
X149381282Y-79479412D01*
X149635634Y-79479412D01*
X149645474Y-79388206D01*
X149692968Y-79354030D01*
X149765445Y-79349600D01*
X149855320Y-79358303D01*
X149884831Y-79400259D01*
X149881862Y-79466016D01*
X149851542Y-79556687D01*
X149771462Y-79593167D01*
X149752050Y-79595828D01*
X149670552Y-79595501D01*
X149639756Y-79552261D01*
X149635634Y-79479412D01*
X149381282Y-79479412D01*
X149370243Y-79567363D01*
X149321823Y-79600567D01*
X149275800Y-79603600D01*
X149200164Y-79589931D01*
X149172494Y-79531827D01*
X149169967Y-79476600D01*
X148915967Y-79476600D01*
X148904576Y-79567363D01*
X148856156Y-79600567D01*
X148810134Y-79603600D01*
X148734497Y-79589931D01*
X148706828Y-79531827D01*
X148704300Y-79476600D01*
X148450128Y-79476600D01*
X148450300Y-79479412D01*
X148441597Y-79569286D01*
X148399641Y-79598797D01*
X148333884Y-79595828D01*
X148243213Y-79565509D01*
X148206733Y-79485429D01*
X148204072Y-79466016D01*
X147976862Y-79466016D01*
X147949906Y-79553218D01*
X147881208Y-79581660D01*
X147857634Y-79582433D01*
X147776217Y-79563819D01*
X147742081Y-79491850D01*
X147738405Y-79466016D01*
X147511195Y-79466016D01*
X147480876Y-79556687D01*
X147400796Y-79593167D01*
X147381384Y-79595828D01*
X147299885Y-79595501D01*
X147269090Y-79552261D01*
X147264967Y-79479412D01*
X147010615Y-79479412D01*
X146999576Y-79567363D01*
X146951156Y-79600567D01*
X146905134Y-79603600D01*
X146829497Y-79589931D01*
X146801828Y-79531827D01*
X146799300Y-79476600D01*
X146545300Y-79476600D01*
X146533986Y-79567287D01*
X146485543Y-79600493D01*
X146438138Y-79603600D01*
X146347980Y-79581179D01*
X146306609Y-79540100D01*
X146300360Y-79433835D01*
X146079634Y-79433835D01*
X146079634Y-79603600D01*
X145825634Y-79603600D01*
X145684863Y-79605841D01*
X145608862Y-79618086D01*
X145577747Y-79648619D01*
X145571639Y-79705724D01*
X145571634Y-79709433D01*
X145577012Y-79768087D01*
X145606400Y-79799755D01*
X145679679Y-79812719D01*
X145816731Y-79815264D01*
X145825634Y-79815266D01*
X146079634Y-79815266D01*
X146079634Y-79899502D01*
X146300360Y-79899502D01*
X146363163Y-79830583D01*
X146438138Y-79815266D01*
X146514660Y-79828675D01*
X146542679Y-79886086D01*
X146545300Y-79942266D01*
X146799300Y-79942266D01*
X146810691Y-79851503D01*
X146859111Y-79818299D01*
X146905134Y-79815266D01*
X146980770Y-79828935D01*
X147008439Y-79887039D01*
X147010967Y-79942266D01*
X147264967Y-79942266D01*
X147273238Y-79851022D01*
X147313472Y-79820294D01*
X147381384Y-79823038D01*
X147468585Y-79849994D01*
X147497027Y-79918692D01*
X147497800Y-79942266D01*
X147730634Y-79942266D01*
X147741123Y-79852312D01*
X147790603Y-79819157D01*
X147857634Y-79815266D01*
X147947588Y-79825756D01*
X147980743Y-79875236D01*
X147984019Y-79931683D01*
X148204072Y-79931683D01*
X148204399Y-79850185D01*
X148247639Y-79819389D01*
X148320488Y-79815266D01*
X148411694Y-79825107D01*
X148445870Y-79872601D01*
X148450128Y-79942266D01*
X148704300Y-79942266D01*
X148715691Y-79851503D01*
X148764111Y-79818299D01*
X148810134Y-79815266D01*
X148885770Y-79828935D01*
X148913439Y-79887039D01*
X148915967Y-79942266D01*
X149169967Y-79942266D01*
X149181357Y-79851503D01*
X149229777Y-79818299D01*
X149275800Y-79815266D01*
X149351436Y-79828935D01*
X149379106Y-79887039D01*
X149381634Y-79942266D01*
X149381282Y-79945078D01*
X149635634Y-79945078D01*
X149645474Y-79853873D01*
X149692968Y-79819696D01*
X149765445Y-79815266D01*
X149855320Y-79823969D01*
X149884831Y-79865925D01*
X149881862Y-79931683D01*
X149851542Y-80022354D01*
X149771462Y-80058833D01*
X149752050Y-80061495D01*
X149670552Y-80061168D01*
X149639756Y-80017928D01*
X149635634Y-79945078D01*
X149381282Y-79945078D01*
X149370243Y-80033030D01*
X149321823Y-80066234D01*
X149275800Y-80069266D01*
X149200164Y-80055598D01*
X149172494Y-79997494D01*
X149169967Y-79942266D01*
X148915967Y-79942266D01*
X148904576Y-80033030D01*
X148856156Y-80066234D01*
X148810134Y-80069266D01*
X148734497Y-80055598D01*
X148706828Y-79997494D01*
X148704300Y-79942266D01*
X148450128Y-79942266D01*
X148450300Y-79945078D01*
X148441597Y-80034953D01*
X148399641Y-80064464D01*
X148333884Y-80061495D01*
X148243213Y-80031175D01*
X148206733Y-79951095D01*
X148204072Y-79931683D01*
X147984019Y-79931683D01*
X147984634Y-79942266D01*
X147974144Y-80032221D01*
X147924664Y-80065376D01*
X147857634Y-80069266D01*
X147767679Y-80058777D01*
X147734524Y-80009297D01*
X147730634Y-79942266D01*
X147497800Y-79942266D01*
X147479186Y-80023683D01*
X147407217Y-80057819D01*
X147381384Y-80061495D01*
X147300454Y-80061384D01*
X147269418Y-80019120D01*
X147264967Y-79942266D01*
X147010967Y-79942266D01*
X146999576Y-80033030D01*
X146951156Y-80066234D01*
X146905134Y-80069266D01*
X146829497Y-80055598D01*
X146801828Y-79997494D01*
X146799300Y-79942266D01*
X146545300Y-79942266D01*
X146533986Y-80032954D01*
X146485543Y-80066160D01*
X146438138Y-80069266D01*
X146347980Y-80046846D01*
X146306609Y-80005766D01*
X146300360Y-79899502D01*
X146079634Y-79899502D01*
X146079634Y-80069266D01*
X145825634Y-80069266D01*
X145684863Y-80071507D01*
X145608862Y-80083752D01*
X145577747Y-80114286D01*
X145571639Y-80171390D01*
X145571634Y-80175100D01*
X145577012Y-80233754D01*
X145606400Y-80265421D01*
X145679679Y-80278386D01*
X145816731Y-80280931D01*
X145825634Y-80280933D01*
X146079634Y-80280933D01*
X146079634Y-80419702D01*
X146294178Y-80419702D01*
X146306609Y-80344433D01*
X146362991Y-80296107D01*
X146438138Y-80280933D01*
X146514660Y-80294342D01*
X146542679Y-80351753D01*
X146545300Y-80407933D01*
X146799300Y-80407933D01*
X146810691Y-80317170D01*
X146859111Y-80283966D01*
X146905134Y-80280933D01*
X146980770Y-80294602D01*
X147008439Y-80352706D01*
X147010838Y-80405121D01*
X147264967Y-80405121D01*
X147273670Y-80315247D01*
X147315626Y-80285736D01*
X147381384Y-80288705D01*
X147472054Y-80319024D01*
X147508534Y-80399104D01*
X147509358Y-80405121D01*
X147730634Y-80405121D01*
X147739336Y-80315247D01*
X147781292Y-80285736D01*
X147847050Y-80288705D01*
X147937721Y-80319024D01*
X147974200Y-80399104D01*
X147976862Y-80418516D01*
X147976792Y-80436155D01*
X148196300Y-80436155D01*
X148213060Y-80331697D01*
X148276879Y-80287257D01*
X148351522Y-80280933D01*
X148422498Y-80296184D01*
X148448294Y-80358463D01*
X148450300Y-80407933D01*
X148704300Y-80407933D01*
X148715691Y-80317170D01*
X148764111Y-80283966D01*
X148810134Y-80280933D01*
X148885770Y-80294602D01*
X148913439Y-80352706D01*
X148915967Y-80407933D01*
X149169967Y-80407933D01*
X149181357Y-80317170D01*
X149229777Y-80283966D01*
X149275800Y-80280933D01*
X149351436Y-80294602D01*
X149379106Y-80352706D01*
X149381505Y-80405121D01*
X149635634Y-80405121D01*
X149644336Y-80315247D01*
X149686292Y-80285736D01*
X149752050Y-80288705D01*
X149842721Y-80319024D01*
X149879200Y-80399104D01*
X149881862Y-80418516D01*
X149881535Y-80500015D01*
X149838295Y-80530810D01*
X149765445Y-80534933D01*
X149674240Y-80525093D01*
X149640063Y-80477599D01*
X149635634Y-80405121D01*
X149381505Y-80405121D01*
X149381634Y-80407933D01*
X149370243Y-80498697D01*
X149321823Y-80531900D01*
X149275800Y-80534933D01*
X149200164Y-80521264D01*
X149172494Y-80463160D01*
X149169967Y-80407933D01*
X148915967Y-80407933D01*
X148904576Y-80498697D01*
X148856156Y-80531900D01*
X148810134Y-80534933D01*
X148734497Y-80521264D01*
X148706828Y-80463160D01*
X148704300Y-80407933D01*
X148450300Y-80407933D01*
X148439811Y-80497887D01*
X148390330Y-80531042D01*
X148323300Y-80534933D01*
X148232045Y-80523072D01*
X148198879Y-80474632D01*
X148196300Y-80436155D01*
X147976792Y-80436155D01*
X147976535Y-80500015D01*
X147933295Y-80530810D01*
X147860445Y-80534933D01*
X147769240Y-80525093D01*
X147735063Y-80477599D01*
X147730634Y-80405121D01*
X147509358Y-80405121D01*
X147511195Y-80418516D01*
X147510868Y-80500015D01*
X147467628Y-80530810D01*
X147394779Y-80534933D01*
X147303573Y-80525093D01*
X147269397Y-80477599D01*
X147264967Y-80405121D01*
X147010838Y-80405121D01*
X147010967Y-80407933D01*
X146999576Y-80498697D01*
X146951156Y-80531900D01*
X146905134Y-80534933D01*
X146829497Y-80521264D01*
X146801828Y-80463160D01*
X146799300Y-80407933D01*
X146545300Y-80407933D01*
X146533986Y-80498621D01*
X146485543Y-80531826D01*
X146438138Y-80534933D01*
X146336326Y-80502789D01*
X146294178Y-80419702D01*
X146079634Y-80419702D01*
X146079634Y-80534933D01*
X145571634Y-80534933D01*
X145571634Y-80788933D01*
X145825634Y-80788933D01*
X145966404Y-80791174D01*
X146042405Y-80803419D01*
X146073520Y-80833952D01*
X146079628Y-80891057D01*
X146079634Y-80894766D01*
X146291300Y-80894766D01*
X146304969Y-80819130D01*
X146363073Y-80791461D01*
X146418300Y-80788933D01*
X146509064Y-80800324D01*
X146542267Y-80848744D01*
X146545300Y-80894766D01*
X146799300Y-80894766D01*
X146816785Y-80814206D01*
X146885630Y-80789380D01*
X146905134Y-80788933D01*
X146985694Y-80806418D01*
X147010520Y-80875263D01*
X147010967Y-80894766D01*
X147264967Y-80894766D01*
X147278636Y-80819130D01*
X147336740Y-80791461D01*
X147391967Y-80788933D01*
X147482730Y-80800324D01*
X147515934Y-80848744D01*
X147518967Y-80894766D01*
X147730634Y-80894766D01*
X147744302Y-80819130D01*
X147802406Y-80791461D01*
X147857634Y-80788933D01*
X147948397Y-80800324D01*
X147981601Y-80848744D01*
X147984634Y-80894766D01*
X148196300Y-80894766D01*
X148209969Y-80819130D01*
X148268073Y-80791461D01*
X148323300Y-80788933D01*
X148414064Y-80800324D01*
X148447267Y-80848744D01*
X148450300Y-80894766D01*
X148704300Y-80894766D01*
X148721785Y-80814206D01*
X148790630Y-80789380D01*
X148810134Y-80788933D01*
X148890694Y-80806418D01*
X148915520Y-80875263D01*
X148915967Y-80894766D01*
X149169967Y-80894766D01*
X149187452Y-80814206D01*
X149256297Y-80789380D01*
X149275800Y-80788933D01*
X149356361Y-80806418D01*
X149381187Y-80875263D01*
X149381634Y-80894766D01*
X149635634Y-80894766D01*
X149649302Y-80819130D01*
X149707406Y-80791461D01*
X149762634Y-80788933D01*
X149853397Y-80800324D01*
X149886601Y-80848744D01*
X149889634Y-80894766D01*
X149875965Y-80970403D01*
X149817861Y-80998072D01*
X149762634Y-81000600D01*
X149671870Y-80989209D01*
X149638666Y-80940789D01*
X149635634Y-80894766D01*
X149381634Y-80894766D01*
X149364149Y-80975327D01*
X149295304Y-81000153D01*
X149275800Y-81000600D01*
X149195239Y-80983115D01*
X149170414Y-80914270D01*
X149169967Y-80894766D01*
X148915967Y-80894766D01*
X148898482Y-80975327D01*
X148829637Y-81000153D01*
X148810134Y-81000600D01*
X148729573Y-80983115D01*
X148704747Y-80914270D01*
X148704300Y-80894766D01*
X148450300Y-80894766D01*
X148436631Y-80970403D01*
X148378527Y-80998072D01*
X148323300Y-81000600D01*
X148232537Y-80989209D01*
X148199333Y-80940789D01*
X148196300Y-80894766D01*
X147984634Y-80894766D01*
X147970965Y-80970403D01*
X147912861Y-80998072D01*
X147857634Y-81000600D01*
X147766870Y-80989209D01*
X147733666Y-80940789D01*
X147730634Y-80894766D01*
X147518967Y-80894766D01*
X147505298Y-80970403D01*
X147447194Y-80998072D01*
X147391967Y-81000600D01*
X147301203Y-80989209D01*
X147268000Y-80940789D01*
X147264967Y-80894766D01*
X147010967Y-80894766D01*
X146993482Y-80975327D01*
X146924637Y-81000153D01*
X146905134Y-81000600D01*
X146824573Y-80983115D01*
X146799747Y-80914270D01*
X146799300Y-80894766D01*
X146545300Y-80894766D01*
X146531631Y-80970403D01*
X146473527Y-80998072D01*
X146418300Y-81000600D01*
X146327537Y-80989209D01*
X146294333Y-80940789D01*
X146291300Y-80894766D01*
X146079634Y-80894766D01*
X146074255Y-80953421D01*
X146044867Y-80985088D01*
X145971588Y-80998052D01*
X145834536Y-81000597D01*
X145825634Y-81000600D01*
X145571634Y-81000600D01*
X145571634Y-81254600D01*
X145825634Y-81254600D01*
X145966404Y-81256841D01*
X146042405Y-81269086D01*
X146073520Y-81299619D01*
X146079628Y-81356724D01*
X146079634Y-81360433D01*
X146291300Y-81360433D01*
X146304969Y-81284797D01*
X146363073Y-81257127D01*
X146418300Y-81254600D01*
X146509064Y-81265990D01*
X146542267Y-81314410D01*
X146545300Y-81360433D01*
X146799300Y-81360433D01*
X146816785Y-81279872D01*
X146885630Y-81255047D01*
X146905134Y-81254600D01*
X146985694Y-81272085D01*
X147010520Y-81340930D01*
X147010967Y-81360433D01*
X147264967Y-81360433D01*
X147278636Y-81284797D01*
X147336740Y-81257127D01*
X147391967Y-81254600D01*
X147482730Y-81265990D01*
X147515934Y-81314410D01*
X147518967Y-81360433D01*
X147730634Y-81360433D01*
X147744302Y-81284797D01*
X147802406Y-81257127D01*
X147857634Y-81254600D01*
X147948397Y-81265990D01*
X147981601Y-81314410D01*
X147984634Y-81360433D01*
X148196300Y-81360433D01*
X148209969Y-81284797D01*
X148268073Y-81257127D01*
X148323300Y-81254600D01*
X148414064Y-81265990D01*
X148447267Y-81314410D01*
X148450300Y-81360433D01*
X148704300Y-81360433D01*
X148721785Y-81279872D01*
X148790630Y-81255047D01*
X148810134Y-81254600D01*
X148890694Y-81272085D01*
X148915520Y-81340930D01*
X148915967Y-81360433D01*
X149169967Y-81360433D01*
X149187452Y-81279872D01*
X149256297Y-81255047D01*
X149275800Y-81254600D01*
X149356361Y-81272085D01*
X149381187Y-81340930D01*
X149381634Y-81360433D01*
X149635634Y-81360433D01*
X149649302Y-81284797D01*
X149707406Y-81257127D01*
X149762634Y-81254600D01*
X149853397Y-81265990D01*
X149886601Y-81314410D01*
X149889634Y-81360433D01*
X149875965Y-81436069D01*
X149817861Y-81463739D01*
X149762634Y-81466266D01*
X149671870Y-81454876D01*
X149638666Y-81406456D01*
X149635634Y-81360433D01*
X149381634Y-81360433D01*
X149364149Y-81440994D01*
X149295304Y-81465820D01*
X149275800Y-81466266D01*
X149195239Y-81448782D01*
X149170414Y-81379937D01*
X149169967Y-81360433D01*
X148915967Y-81360433D01*
X148898482Y-81440994D01*
X148829637Y-81465820D01*
X148810134Y-81466266D01*
X148729573Y-81448782D01*
X148704747Y-81379937D01*
X148704300Y-81360433D01*
X148450300Y-81360433D01*
X148436631Y-81436069D01*
X148378527Y-81463739D01*
X148323300Y-81466266D01*
X148232537Y-81454876D01*
X148199333Y-81406456D01*
X148196300Y-81360433D01*
X147984634Y-81360433D01*
X147970965Y-81436069D01*
X147912861Y-81463739D01*
X147857634Y-81466266D01*
X147766870Y-81454876D01*
X147733666Y-81406456D01*
X147730634Y-81360433D01*
X147518967Y-81360433D01*
X147505298Y-81436069D01*
X147447194Y-81463739D01*
X147391967Y-81466266D01*
X147301203Y-81454876D01*
X147268000Y-81406456D01*
X147264967Y-81360433D01*
X147010967Y-81360433D01*
X146993482Y-81440994D01*
X146924637Y-81465820D01*
X146905134Y-81466266D01*
X146824573Y-81448782D01*
X146799747Y-81379937D01*
X146799300Y-81360433D01*
X146545300Y-81360433D01*
X146531631Y-81436069D01*
X146473527Y-81463739D01*
X146418300Y-81466266D01*
X146327537Y-81454876D01*
X146294333Y-81406456D01*
X146291300Y-81360433D01*
X146079634Y-81360433D01*
X146074255Y-81419087D01*
X146044867Y-81450755D01*
X145971588Y-81463719D01*
X145834536Y-81466264D01*
X145825634Y-81466266D01*
X145571634Y-81466266D01*
X145571634Y-81720266D01*
X146079634Y-81720266D01*
X146079634Y-81859035D01*
X146294178Y-81859035D01*
X146306609Y-81783766D01*
X146362991Y-81735441D01*
X146438138Y-81720266D01*
X146514660Y-81733675D01*
X146542679Y-81791086D01*
X146545300Y-81847266D01*
X146799300Y-81847266D01*
X146810691Y-81756503D01*
X146859111Y-81723299D01*
X146905134Y-81720266D01*
X146980770Y-81733935D01*
X147008439Y-81792039D01*
X147010967Y-81847266D01*
X147010615Y-81850078D01*
X147264967Y-81850078D01*
X147274807Y-81758873D01*
X147322301Y-81724696D01*
X147394779Y-81720266D01*
X147484653Y-81728969D01*
X147514164Y-81770925D01*
X147511195Y-81836683D01*
X147506716Y-81850078D01*
X147730634Y-81850078D01*
X147740474Y-81758873D01*
X147787968Y-81724696D01*
X147860445Y-81720266D01*
X147950320Y-81728969D01*
X147979831Y-81770925D01*
X147976862Y-81836683D01*
X148204072Y-81836683D01*
X148204399Y-81755185D01*
X148247639Y-81724389D01*
X148320488Y-81720266D01*
X148411694Y-81730107D01*
X148445870Y-81777601D01*
X148450128Y-81847266D01*
X148704300Y-81847266D01*
X148715691Y-81756503D01*
X148764111Y-81723299D01*
X148810134Y-81720266D01*
X148885770Y-81733935D01*
X148913439Y-81792039D01*
X148915967Y-81847266D01*
X149169967Y-81847266D01*
X149181357Y-81756503D01*
X149229777Y-81723299D01*
X149275800Y-81720266D01*
X149351436Y-81733935D01*
X149379106Y-81792039D01*
X149381634Y-81847266D01*
X149381282Y-81850078D01*
X149635634Y-81850078D01*
X149645474Y-81758873D01*
X149692968Y-81724696D01*
X149765445Y-81720266D01*
X149855320Y-81728969D01*
X149884831Y-81770925D01*
X149881862Y-81836683D01*
X149851542Y-81927354D01*
X149771462Y-81963833D01*
X149752050Y-81966495D01*
X149670552Y-81966168D01*
X149639756Y-81922928D01*
X149635634Y-81850078D01*
X149381282Y-81850078D01*
X149370243Y-81938030D01*
X149321823Y-81971234D01*
X149275800Y-81974266D01*
X149200164Y-81960598D01*
X149172494Y-81902494D01*
X149169967Y-81847266D01*
X148915967Y-81847266D01*
X148904576Y-81938030D01*
X148856156Y-81971234D01*
X148810134Y-81974266D01*
X148734497Y-81960598D01*
X148706828Y-81902494D01*
X148704300Y-81847266D01*
X148450128Y-81847266D01*
X148450300Y-81850078D01*
X148441597Y-81939953D01*
X148399641Y-81969464D01*
X148333884Y-81966495D01*
X148243213Y-81936175D01*
X148206733Y-81856095D01*
X148204072Y-81836683D01*
X147976862Y-81836683D01*
X147946542Y-81927354D01*
X147866462Y-81963833D01*
X147847050Y-81966495D01*
X147765552Y-81966168D01*
X147734756Y-81922928D01*
X147730634Y-81850078D01*
X147506716Y-81850078D01*
X147480876Y-81927354D01*
X147400796Y-81963833D01*
X147381384Y-81966495D01*
X147299885Y-81966168D01*
X147269090Y-81922928D01*
X147264967Y-81850078D01*
X147010615Y-81850078D01*
X146999576Y-81938030D01*
X146951156Y-81971234D01*
X146905134Y-81974266D01*
X146829497Y-81960598D01*
X146801828Y-81902494D01*
X146799300Y-81847266D01*
X146545300Y-81847266D01*
X146533986Y-81937954D01*
X146485543Y-81971160D01*
X146438138Y-81974266D01*
X146336326Y-81942122D01*
X146294178Y-81859035D01*
X146079634Y-81859035D01*
X146079634Y-81974266D01*
X145825634Y-81974266D01*
X145684863Y-81976507D01*
X145608862Y-81988752D01*
X145577747Y-82019286D01*
X145571639Y-82076390D01*
X145571634Y-82080100D01*
X145577012Y-82138754D01*
X145606400Y-82170421D01*
X145679679Y-82183386D01*
X145816731Y-82185931D01*
X145825634Y-82185933D01*
X146079634Y-82185933D01*
X146079634Y-82324702D01*
X146294178Y-82324702D01*
X146306609Y-82249433D01*
X146362991Y-82201107D01*
X146438138Y-82185933D01*
X146514660Y-82199342D01*
X146542679Y-82256753D01*
X146545300Y-82312933D01*
X146799300Y-82312933D01*
X146810691Y-82222170D01*
X146859111Y-82188966D01*
X146905134Y-82185933D01*
X146980770Y-82199602D01*
X147008439Y-82257706D01*
X147010967Y-82312933D01*
X147264967Y-82312933D01*
X147273238Y-82221689D01*
X147313472Y-82190961D01*
X147381384Y-82193705D01*
X147468585Y-82220660D01*
X147497027Y-82289359D01*
X147497800Y-82312933D01*
X147730634Y-82312933D01*
X147741123Y-82222979D01*
X147790603Y-82189824D01*
X147857634Y-82185933D01*
X147947588Y-82196423D01*
X147980743Y-82245903D01*
X147984634Y-82312933D01*
X147981343Y-82341155D01*
X148196300Y-82341155D01*
X148213060Y-82236697D01*
X148276879Y-82192257D01*
X148351522Y-82185933D01*
X148422498Y-82201184D01*
X148448294Y-82263463D01*
X148450300Y-82312933D01*
X148704300Y-82312933D01*
X148715691Y-82222170D01*
X148764111Y-82188966D01*
X148810134Y-82185933D01*
X148885770Y-82199602D01*
X148913439Y-82257706D01*
X148915967Y-82312933D01*
X149169967Y-82312933D01*
X149181357Y-82222170D01*
X149229777Y-82188966D01*
X149275800Y-82185933D01*
X149351436Y-82199602D01*
X149379106Y-82257706D01*
X149381505Y-82310121D01*
X149635634Y-82310121D01*
X149644336Y-82220247D01*
X149686292Y-82190736D01*
X149752050Y-82193705D01*
X149842721Y-82224024D01*
X149879200Y-82304104D01*
X149881862Y-82323516D01*
X149881535Y-82405015D01*
X149838295Y-82435810D01*
X149765445Y-82439933D01*
X149674240Y-82430093D01*
X149640063Y-82382599D01*
X149635634Y-82310121D01*
X149381505Y-82310121D01*
X149381634Y-82312933D01*
X149370243Y-82403697D01*
X149321823Y-82436900D01*
X149275800Y-82439933D01*
X149200164Y-82426264D01*
X149172494Y-82368160D01*
X149169967Y-82312933D01*
X148915967Y-82312933D01*
X148904576Y-82403697D01*
X148856156Y-82436900D01*
X148810134Y-82439933D01*
X148734497Y-82426264D01*
X148706828Y-82368160D01*
X148704300Y-82312933D01*
X148450300Y-82312933D01*
X148439811Y-82402887D01*
X148390330Y-82436042D01*
X148323300Y-82439933D01*
X148232045Y-82428072D01*
X148198879Y-82379632D01*
X148196300Y-82341155D01*
X147981343Y-82341155D01*
X147974144Y-82402887D01*
X147924664Y-82436042D01*
X147857634Y-82439933D01*
X147767679Y-82429444D01*
X147734524Y-82379963D01*
X147730634Y-82312933D01*
X147497800Y-82312933D01*
X147479186Y-82394349D01*
X147407217Y-82428486D01*
X147381384Y-82432162D01*
X147300454Y-82432051D01*
X147269418Y-82389786D01*
X147264967Y-82312933D01*
X147010967Y-82312933D01*
X146999576Y-82403697D01*
X146951156Y-82436900D01*
X146905134Y-82439933D01*
X146829497Y-82426264D01*
X146801828Y-82368160D01*
X146799300Y-82312933D01*
X146545300Y-82312933D01*
X146533986Y-82403621D01*
X146485543Y-82436826D01*
X146438138Y-82439933D01*
X146336326Y-82407789D01*
X146294178Y-82324702D01*
X146079634Y-82324702D01*
X146079634Y-82439933D01*
X145825634Y-82439933D01*
X145684863Y-82442174D01*
X145608862Y-82454419D01*
X145577747Y-82484952D01*
X145571639Y-82542057D01*
X145571634Y-82545766D01*
X145577012Y-82604421D01*
X145606400Y-82636088D01*
X145679679Y-82649052D01*
X145816731Y-82651597D01*
X145825634Y-82651600D01*
X146079634Y-82651600D01*
X146079634Y-82790369D01*
X146294178Y-82790369D01*
X146306609Y-82715100D01*
X146362991Y-82666774D01*
X146438138Y-82651600D01*
X146514660Y-82665009D01*
X146542679Y-82722419D01*
X146545300Y-82778600D01*
X146799300Y-82778600D01*
X146810691Y-82687836D01*
X146859111Y-82654633D01*
X146905134Y-82651600D01*
X146980770Y-82665269D01*
X147008439Y-82723373D01*
X147010838Y-82775788D01*
X147264967Y-82775788D01*
X147273670Y-82685913D01*
X147315626Y-82656402D01*
X147381384Y-82659371D01*
X147472054Y-82689691D01*
X147508534Y-82769771D01*
X147511195Y-82789183D01*
X147511125Y-82806822D01*
X147730634Y-82806822D01*
X147749203Y-82699607D01*
X147812820Y-82658421D01*
X147877058Y-82660397D01*
X147951558Y-82706689D01*
X147976862Y-82789183D01*
X147976792Y-82806822D01*
X148196300Y-82806822D01*
X148213060Y-82702363D01*
X148276879Y-82657924D01*
X148351522Y-82651600D01*
X148422498Y-82666850D01*
X148448294Y-82729130D01*
X148450300Y-82778600D01*
X148704300Y-82778600D01*
X148715691Y-82687836D01*
X148764111Y-82654633D01*
X148810134Y-82651600D01*
X148885770Y-82665269D01*
X148913439Y-82723373D01*
X148915967Y-82778600D01*
X149169967Y-82778600D01*
X149181357Y-82687836D01*
X149229777Y-82654633D01*
X149275800Y-82651600D01*
X149351436Y-82665269D01*
X149379106Y-82723373D01*
X149381505Y-82775788D01*
X149635634Y-82775788D01*
X149644336Y-82685913D01*
X149686292Y-82656402D01*
X149752050Y-82659371D01*
X149842721Y-82689691D01*
X149879200Y-82769771D01*
X149881862Y-82789183D01*
X149881535Y-82870682D01*
X149838295Y-82901477D01*
X149765445Y-82905600D01*
X149674240Y-82895760D01*
X149640063Y-82848266D01*
X149635634Y-82775788D01*
X149381505Y-82775788D01*
X149381634Y-82778600D01*
X149370243Y-82869363D01*
X149321823Y-82902567D01*
X149275800Y-82905600D01*
X149200164Y-82891931D01*
X149172494Y-82833827D01*
X149169967Y-82778600D01*
X148915967Y-82778600D01*
X148904576Y-82869363D01*
X148856156Y-82902567D01*
X148810134Y-82905600D01*
X148734497Y-82891931D01*
X148706828Y-82833827D01*
X148704300Y-82778600D01*
X148450300Y-82778600D01*
X148439811Y-82868554D01*
X148390330Y-82901709D01*
X148323300Y-82905600D01*
X148232045Y-82893738D01*
X148198879Y-82845299D01*
X148196300Y-82806822D01*
X147976792Y-82806822D01*
X147976535Y-82870682D01*
X147933295Y-82901477D01*
X147860445Y-82905600D01*
X147767911Y-82894326D01*
X147733659Y-82847918D01*
X147730634Y-82806822D01*
X147511125Y-82806822D01*
X147510868Y-82870682D01*
X147467628Y-82901477D01*
X147394779Y-82905600D01*
X147303573Y-82895760D01*
X147269397Y-82848266D01*
X147264967Y-82775788D01*
X147010838Y-82775788D01*
X147010967Y-82778600D01*
X146999576Y-82869363D01*
X146951156Y-82902567D01*
X146905134Y-82905600D01*
X146829497Y-82891931D01*
X146801828Y-82833827D01*
X146799300Y-82778600D01*
X146545300Y-82778600D01*
X146533986Y-82869287D01*
X146485543Y-82902493D01*
X146438138Y-82905600D01*
X146336326Y-82873455D01*
X146294178Y-82790369D01*
X146079634Y-82790369D01*
X146079634Y-82905600D01*
X145571634Y-82905600D01*
X145571634Y-83159600D01*
X146079634Y-83159600D01*
X146079634Y-83392433D01*
X146082381Y-83525782D01*
X146096901Y-83595215D01*
X146132612Y-83621452D01*
X146185467Y-83625266D01*
X146246080Y-83619223D01*
X146277640Y-83587278D01*
X146289566Y-83508715D01*
X146291300Y-83392433D01*
X146293433Y-83259326D01*
X146307408Y-83190045D01*
X146344595Y-83163749D01*
X146416358Y-83159600D01*
X146418300Y-83159600D01*
X146490904Y-83163510D01*
X146528694Y-83189132D01*
X146543037Y-83257306D01*
X146545300Y-83388873D01*
X146545300Y-83392433D01*
X146547433Y-83525540D01*
X146561408Y-83594822D01*
X146598595Y-83621117D01*
X146670358Y-83625266D01*
X146672300Y-83625266D01*
X146744904Y-83621357D01*
G37*
X146744904Y-83621357D02*
X146782694Y-83595735D01*
X146797037Y-83527560D01*
X146799300Y-83395994D01*
X146799300Y-83392433D01*
X146802047Y-83259085D01*
X146816568Y-83189651D01*
X146852278Y-83163414D01*
X146905134Y-83159600D01*
X146965746Y-83165644D01*
X146997307Y-83197588D01*
X147009233Y-83276152D01*
X147010967Y-83392433D01*
X147013099Y-83525540D01*
X147027075Y-83594822D01*
X147064261Y-83621117D01*
X147136025Y-83625266D01*
X147137967Y-83625266D01*
X147210571Y-83621357D01*
X147248361Y-83595735D01*
X147262703Y-83527560D01*
X147264967Y-83395994D01*
X147264967Y-83392433D01*
X147267099Y-83259326D01*
X147281075Y-83190045D01*
X147318261Y-83163749D01*
X147390025Y-83159600D01*
X147391967Y-83159600D01*
X147464571Y-83163510D01*
X147502361Y-83189132D01*
X147516703Y-83257306D01*
X147518967Y-83388873D01*
X147518967Y-83392433D01*
X147521714Y-83525782D01*
X147536234Y-83595215D01*
X147571945Y-83621452D01*
X147624800Y-83625266D01*
X147685413Y-83619223D01*
X147716974Y-83587278D01*
X147728900Y-83508715D01*
X147730634Y-83392433D01*
X147732766Y-83259326D01*
X147746742Y-83190045D01*
X147783928Y-83163749D01*
X147855691Y-83159600D01*
X147857634Y-83159600D01*
X147930237Y-83163510D01*
X147968027Y-83189132D01*
X147982370Y-83257306D01*
X147984633Y-83388873D01*
X147984634Y-83392433D01*
X147987381Y-83525782D01*
X148001901Y-83595215D01*
X148037612Y-83621452D01*
X148090467Y-83625266D01*
X148151080Y-83619223D01*
X148182640Y-83587278D01*
X148194566Y-83508715D01*
X148196300Y-83392433D01*
X148198433Y-83259326D01*
X148212408Y-83190045D01*
X148249595Y-83163749D01*
X148321358Y-83159600D01*
X148323300Y-83159600D01*
X148395904Y-83163510D01*
X148433694Y-83189132D01*
X148448037Y-83257306D01*
X148450300Y-83388873D01*
X148450300Y-83392433D01*
X148452433Y-83525540D01*
X148466408Y-83594822D01*
X148503595Y-83621117D01*
X148575358Y-83625266D01*
X148577300Y-83625266D01*
X148649904Y-83621357D01*
X148687694Y-83595735D01*
X148702037Y-83527560D01*
X148704300Y-83395994D01*
X148704300Y-83392433D01*
X148707047Y-83259085D01*
X148721568Y-83189651D01*
X148757278Y-83163414D01*
X148810134Y-83159600D01*
X148870746Y-83165644D01*
X148902307Y-83197588D01*
X148914233Y-83276152D01*
X148915967Y-83392433D01*
X148918099Y-83525540D01*
X148932075Y-83594822D01*
X148969261Y-83621117D01*
X149041025Y-83625266D01*
X149042967Y-83625266D01*
X149115571Y-83621357D01*
X149153361Y-83595735D01*
X149167703Y-83527560D01*
X149169967Y-83395994D01*
X149169967Y-83392433D01*
X149172714Y-83259085D01*
X149187234Y-83189651D01*
X149222945Y-83163414D01*
X149275800Y-83159600D01*
X149336413Y-83165644D01*
X149367974Y-83197588D01*
X149379900Y-83276152D01*
X149381634Y-83392433D01*
X149383766Y-83525540D01*
X149397742Y-83594822D01*
X149434928Y-83621117D01*
X149506691Y-83625266D01*
X149508634Y-83625266D01*
X149581237Y-83621357D01*
X149619027Y-83595735D01*
X149633370Y-83527560D01*
X149635633Y-83395994D01*
X149635634Y-83392433D01*
X149637766Y-83259326D01*
X149651742Y-83190045D01*
X149688928Y-83163749D01*
X149760691Y-83159600D01*
X149762634Y-83159600D01*
X149835237Y-83163510D01*
X149873027Y-83189132D01*
X149887370Y-83257306D01*
X149889633Y-83388873D01*
X149889634Y-83392433D01*
X149892381Y-83525782D01*
X149906901Y-83595215D01*
X149942612Y-83621452D01*
X149995467Y-83625266D01*
X150056080Y-83619223D01*
X150087640Y-83587278D01*
X150099566Y-83508715D01*
X150101300Y-83392433D01*
X150101300Y-83159600D01*
X150334134Y-83159600D01*
X150467241Y-83157467D01*
X150536522Y-83143492D01*
X150562817Y-83106305D01*
X150566967Y-83034542D01*
X150566967Y-83032600D01*
X150563141Y-82960317D01*
X150537854Y-82922499D01*
X150470389Y-82907982D01*
X150340031Y-82905601D01*
X150331322Y-82905600D01*
X150197467Y-82903572D01*
X150128770Y-82890676D01*
X150105722Y-82856695D01*
X150108816Y-82791410D01*
X150109072Y-82789183D01*
X150123754Y-82720771D01*
X150162502Y-82684150D01*
X150247895Y-82666939D01*
X150344717Y-82659971D01*
X150474562Y-82648933D01*
X150540791Y-82627891D01*
X150564448Y-82585823D01*
X150566967Y-82543554D01*
X150560621Y-82484182D01*
X150527790Y-82453265D01*
X150447785Y-82441597D01*
X150334134Y-82439933D01*
X150201026Y-82437801D01*
X150131745Y-82423825D01*
X150105450Y-82386639D01*
X150101300Y-82314875D01*
X150101300Y-82312933D01*
X150105210Y-82240329D01*
X150130832Y-82202539D01*
X150199007Y-82188197D01*
X150330573Y-82185933D01*
X150334134Y-82185933D01*
X150467541Y-82183109D01*
X150537010Y-82168498D01*
X150563229Y-82132892D01*
X150566967Y-82082312D01*
X150559326Y-82021334D01*
X150522374Y-81988328D01*
X150435066Y-81972271D01*
X150344717Y-81965895D01*
X150214453Y-81954828D01*
X150146265Y-81932813D01*
X150117576Y-81887469D01*
X150109072Y-81836683D01*
X150105554Y-81770439D01*
X150127667Y-81735767D01*
X150194918Y-81722449D01*
X150326814Y-81720267D01*
X150331322Y-81720266D01*
X150465441Y-81718205D01*
X150535611Y-81704576D01*
X150562547Y-81668216D01*
X150566965Y-81597960D01*
X150566967Y-81593266D01*
X150563057Y-81520663D01*
X150537435Y-81482873D01*
X150469260Y-81468530D01*
X150337694Y-81466267D01*
X150334134Y-81466266D01*
X150200785Y-81463519D01*
X150131352Y-81448999D01*
X150105115Y-81413288D01*
X150101300Y-81360433D01*
X150107344Y-81299820D01*
X150139288Y-81268260D01*
X150217852Y-81256334D01*
X150334134Y-81254600D01*
X150467241Y-81252467D01*
X150536522Y-81238492D01*
X150562817Y-81201305D01*
X150566967Y-81129542D01*
X150566967Y-81127600D01*
X150563057Y-81054996D01*
X150537435Y-81017206D01*
X150469260Y-81002863D01*
X150337694Y-81000600D01*
X150334134Y-81000600D01*
X150200785Y-80997853D01*
X150131352Y-80983332D01*
X150105115Y-80947622D01*
X150101300Y-80894766D01*
X150107344Y-80834154D01*
X150139288Y-80802593D01*
X150217852Y-80790667D01*
X150334134Y-80788933D01*
X150467241Y-80786801D01*
X150536522Y-80772825D01*
X150562817Y-80735639D01*
X150566967Y-80663875D01*
X150566967Y-80661933D01*
X150563141Y-80589650D01*
X150537854Y-80551832D01*
X150470389Y-80537315D01*
X150340031Y-80534934D01*
X150331322Y-80534933D01*
X150197467Y-80532905D01*
X150128770Y-80520010D01*
X150105722Y-80486028D01*
X150108816Y-80420743D01*
X150109072Y-80418516D01*
X150123754Y-80350105D01*
X150162502Y-80313483D01*
X150247895Y-80296272D01*
X150344717Y-80289304D01*
X150474562Y-80278266D01*
X150540791Y-80257225D01*
X150564448Y-80215157D01*
X150566967Y-80172888D01*
X150560621Y-80113515D01*
X150527790Y-80082599D01*
X150447785Y-80070930D01*
X150334134Y-80069266D01*
X150201026Y-80067134D01*
X150131745Y-80053158D01*
X150105450Y-80015972D01*
X150101300Y-79944209D01*
X150101300Y-79942266D01*
X150105210Y-79869663D01*
X150130832Y-79831873D01*
X150199007Y-79817530D01*
X150330573Y-79815267D01*
X150334134Y-79815266D01*
X150467541Y-79812442D01*
X150537010Y-79797831D01*
X150563229Y-79762225D01*
X150566967Y-79711645D01*
X150559326Y-79650667D01*
X150522374Y-79617661D01*
X150435066Y-79601605D01*
X150344717Y-79595229D01*
X150214453Y-79584162D01*
X150146265Y-79562146D01*
X150117576Y-79516802D01*
X150109072Y-79466016D01*
X150105554Y-79399773D01*
X150127667Y-79365101D01*
X150194918Y-79351782D01*
X150326814Y-79349600D01*
X150331322Y-79349600D01*
X150465441Y-79347538D01*
X150535611Y-79333910D01*
X150562547Y-79297550D01*
X150566965Y-79227294D01*
X150566967Y-79222600D01*
X150563057Y-79149996D01*
X150537435Y-79112206D01*
X150469260Y-79097863D01*
X150337694Y-79095600D01*
X150101300Y-79095600D01*
X150101300Y-78862766D01*
X150098553Y-78729418D01*
X150084033Y-78659985D01*
X150048322Y-78633748D01*
X149995467Y-78629933D01*
X149934854Y-78635977D01*
X149903293Y-78667921D01*
X149891367Y-78746485D01*
X149889634Y-78862766D01*
X149887501Y-78995874D01*
X149873525Y-79065155D01*
X149836339Y-79091450D01*
X149764576Y-79095600D01*
X149762634Y-79095600D01*
X149690030Y-79091690D01*
X149652240Y-79066068D01*
X149637897Y-78997893D01*
X149635634Y-78866327D01*
X149635634Y-78862766D01*
X149633501Y-78729659D01*
X149619525Y-78660378D01*
X149582339Y-78634083D01*
X149510576Y-78629933D01*
X149508634Y-78629933D01*
X149436030Y-78633843D01*
X149398240Y-78659465D01*
X149383897Y-78727640D01*
X149381634Y-78859206D01*
X149381634Y-78862766D01*
X149378886Y-78996115D01*
X149364366Y-79065548D01*
X149328655Y-79091785D01*
X149275800Y-79095600D01*
X149215187Y-79089556D01*
X149183627Y-79057612D01*
X149171701Y-78979048D01*
X149169967Y-78862766D01*
X149167834Y-78729659D01*
X149153859Y-78660378D01*
X149116672Y-78634083D01*
X149044909Y-78629933D01*
X149042967Y-78629933D01*
X148970363Y-78633843D01*
X148932573Y-78659465D01*
X148918230Y-78727640D01*
X148915967Y-78859206D01*
X148915967Y-78862766D01*
X148913220Y-78996115D01*
X148898699Y-79065548D01*
X148862989Y-79091785D01*
X148810134Y-79095600D01*
X148749521Y-79089556D01*
X148717960Y-79057612D01*
X148706034Y-78979048D01*
X148704300Y-78862766D01*
X148702168Y-78729659D01*
X148688192Y-78660378D01*
X148651006Y-78634083D01*
X148579242Y-78629933D01*
X148577300Y-78629933D01*
X148504696Y-78633843D01*
X148466906Y-78659465D01*
X148452564Y-78727640D01*
X148450300Y-78859206D01*
X148450300Y-78862766D01*
X148448168Y-78995874D01*
X148434192Y-79065155D01*
X148397006Y-79091450D01*
X148325242Y-79095600D01*
X148323300Y-79095600D01*
X148250696Y-79091690D01*
X148212906Y-79066068D01*
X148198564Y-78997893D01*
X148196300Y-78866327D01*
X148196300Y-78862766D01*
X148193553Y-78729418D01*
X148179033Y-78659985D01*
X148143322Y-78633748D01*
X148090467Y-78629933D01*
X148029854Y-78635977D01*
X147998293Y-78667921D01*
X147986367Y-78746485D01*
X147984634Y-78862766D01*
X147982501Y-78995874D01*
X147968525Y-79065155D01*
X147931339Y-79091450D01*
X147859576Y-79095600D01*
X147857634Y-79095600D01*
X147785030Y-79091690D01*
X147747240Y-79066068D01*
X147732897Y-78997893D01*
X147730634Y-78866327D01*
X147730634Y-78862766D01*
X147727886Y-78729418D01*
X147713366Y-78659985D01*
X147677655Y-78633748D01*
X147624800Y-78629933D01*
X147564187Y-78635977D01*
X147532627Y-78667921D01*
X147520701Y-78746485D01*
X147518967Y-78862766D01*
X147516834Y-78995874D01*
X147502859Y-79065155D01*
X147465672Y-79091450D01*
X147393909Y-79095600D01*
X147391967Y-79095600D01*
X147319363Y-79091690D01*
X147281573Y-79066068D01*
X147267230Y-78997893D01*
X147264967Y-78866327D01*
X147264967Y-78862766D01*
X147262834Y-78729659D01*
X147248859Y-78660378D01*
X147211672Y-78634083D01*
X147139909Y-78629933D01*
X147137967Y-78629933D01*
X147065363Y-78633843D01*
X147027573Y-78659465D01*
X147013230Y-78727640D01*
X147010967Y-78859206D01*
X147010967Y-78862766D01*
X147008220Y-78996115D01*
X146993699Y-79065548D01*
X146957989Y-79091785D01*
X146905134Y-79095600D01*
X146844521Y-79089556D01*
X146812960Y-79057612D01*
X146801034Y-78979048D01*
X146799300Y-78862766D01*
X146797168Y-78729659D01*
X146783192Y-78660378D01*
X146746006Y-78634083D01*
X146674242Y-78629933D01*
X146672300Y-78629933D01*
X146599696Y-78633843D01*
X146561906Y-78659465D01*
X146547564Y-78727640D01*
X146545300Y-78859206D01*
X146545300Y-78862766D01*
X146543168Y-78995874D01*
X146529192Y-79065155D01*
X146492006Y-79091450D01*
X146420242Y-79095600D01*
X146418300Y-79095600D01*
X146345696Y-79091690D01*
X146307906Y-79066068D01*
X146293564Y-78997893D01*
X146291300Y-78866327D01*
X146291300Y-78862766D01*
X146288553Y-78729418D01*
X146274033Y-78659985D01*
X146238322Y-78633748D01*
X146185467Y-78629933D01*
X146124854Y-78635977D01*
X146093293Y-78667921D01*
X146081367Y-78746485D01*
X146079634Y-78862766D01*
X146079634Y-79095600D01*
X145571634Y-79095600D01*
X145571634Y-79349600D01*
X146079634Y-79349600D01*
X146079634Y-79433835D01*
X146300360Y-79433835D01*
X146363163Y-79364916D01*
X146438138Y-79349600D01*
X146514660Y-79363009D01*
X146542679Y-79420419D01*
X146545300Y-79476600D01*
X146799300Y-79476600D01*
X146810691Y-79385836D01*
X146859111Y-79352633D01*
X146905134Y-79349600D01*
X146980770Y-79363269D01*
X147008439Y-79421373D01*
X147010967Y-79476600D01*
X147010615Y-79479412D01*
X147264967Y-79479412D01*
X147274807Y-79388206D01*
X147322301Y-79354030D01*
X147394779Y-79349600D01*
X147484653Y-79358303D01*
X147514164Y-79400259D01*
X147511195Y-79466016D01*
X147738405Y-79466016D01*
X147738516Y-79385087D01*
X147780780Y-79354051D01*
X147857634Y-79349600D01*
X147948878Y-79357871D01*
X147979606Y-79398105D01*
X147976862Y-79466016D01*
X148204072Y-79466016D01*
X148204399Y-79384518D01*
X148247639Y-79353723D01*
X148320488Y-79349600D01*
X148411694Y-79359440D01*
X148445870Y-79406934D01*
X148450128Y-79476600D01*
X148704300Y-79476600D01*
X148715691Y-79385836D01*
X148764111Y-79352633D01*
X148810134Y-79349600D01*
X148885770Y-79363269D01*
X148913439Y-79421373D01*
X148915967Y-79476600D01*
X149169967Y-79476600D01*
X149181357Y-79385836D01*
X149229777Y-79352633D01*
X149275800Y-79349600D01*
X149351436Y-79363269D01*
X149379106Y-79421373D01*
X149381634Y-79476600D01*
X149381282Y-79479412D01*
X149635634Y-79479412D01*
X149645474Y-79388206D01*
X149692968Y-79354030D01*
X149765445Y-79349600D01*
X149855320Y-79358303D01*
X149884831Y-79400259D01*
X149881862Y-79466016D01*
X149851542Y-79556687D01*
X149771462Y-79593167D01*
X149752050Y-79595828D01*
X149670552Y-79595501D01*
X149639756Y-79552261D01*
X149635634Y-79479412D01*
X149381282Y-79479412D01*
X149370243Y-79567363D01*
X149321823Y-79600567D01*
X149275800Y-79603600D01*
X149200164Y-79589931D01*
X149172494Y-79531827D01*
X149169967Y-79476600D01*
X148915967Y-79476600D01*
X148904576Y-79567363D01*
X148856156Y-79600567D01*
X148810134Y-79603600D01*
X148734497Y-79589931D01*
X148706828Y-79531827D01*
X148704300Y-79476600D01*
X148450128Y-79476600D01*
X148450300Y-79479412D01*
X148441597Y-79569286D01*
X148399641Y-79598797D01*
X148333884Y-79595828D01*
X148243213Y-79565509D01*
X148206733Y-79485429D01*
X148204072Y-79466016D01*
X147976862Y-79466016D01*
X147949906Y-79553218D01*
X147881208Y-79581660D01*
X147857634Y-79582433D01*
X147776217Y-79563819D01*
X147742081Y-79491850D01*
X147738405Y-79466016D01*
X147511195Y-79466016D01*
X147480876Y-79556687D01*
X147400796Y-79593167D01*
X147381384Y-79595828D01*
X147299885Y-79595501D01*
X147269090Y-79552261D01*
X147264967Y-79479412D01*
X147010615Y-79479412D01*
X146999576Y-79567363D01*
X146951156Y-79600567D01*
X146905134Y-79603600D01*
X146829497Y-79589931D01*
X146801828Y-79531827D01*
X146799300Y-79476600D01*
X146545300Y-79476600D01*
X146533986Y-79567287D01*
X146485543Y-79600493D01*
X146438138Y-79603600D01*
X146347980Y-79581179D01*
X146306609Y-79540100D01*
X146300360Y-79433835D01*
X146079634Y-79433835D01*
X146079634Y-79603600D01*
X145825634Y-79603600D01*
X145684863Y-79605841D01*
X145608862Y-79618086D01*
X145577747Y-79648619D01*
X145571639Y-79705724D01*
X145571634Y-79709433D01*
X145577012Y-79768087D01*
X145606400Y-79799755D01*
X145679679Y-79812719D01*
X145816731Y-79815264D01*
X145825634Y-79815266D01*
X146079634Y-79815266D01*
X146079634Y-79899502D01*
X146300360Y-79899502D01*
X146363163Y-79830583D01*
X146438138Y-79815266D01*
X146514660Y-79828675D01*
X146542679Y-79886086D01*
X146545300Y-79942266D01*
X146799300Y-79942266D01*
X146810691Y-79851503D01*
X146859111Y-79818299D01*
X146905134Y-79815266D01*
X146980770Y-79828935D01*
X147008439Y-79887039D01*
X147010967Y-79942266D01*
X147264967Y-79942266D01*
X147273238Y-79851022D01*
X147313472Y-79820294D01*
X147381384Y-79823038D01*
X147468585Y-79849994D01*
X147497027Y-79918692D01*
X147497800Y-79942266D01*
X147730634Y-79942266D01*
X147741123Y-79852312D01*
X147790603Y-79819157D01*
X147857634Y-79815266D01*
X147947588Y-79825756D01*
X147980743Y-79875236D01*
X147984019Y-79931683D01*
X148204072Y-79931683D01*
X148204399Y-79850185D01*
X148247639Y-79819389D01*
X148320488Y-79815266D01*
X148411694Y-79825107D01*
X148445870Y-79872601D01*
X148450128Y-79942266D01*
X148704300Y-79942266D01*
X148715691Y-79851503D01*
X148764111Y-79818299D01*
X148810134Y-79815266D01*
X148885770Y-79828935D01*
X148913439Y-79887039D01*
X148915967Y-79942266D01*
X149169967Y-79942266D01*
X149181357Y-79851503D01*
X149229777Y-79818299D01*
X149275800Y-79815266D01*
X149351436Y-79828935D01*
X149379106Y-79887039D01*
X149381634Y-79942266D01*
X149381282Y-79945078D01*
X149635634Y-79945078D01*
X149645474Y-79853873D01*
X149692968Y-79819696D01*
X149765445Y-79815266D01*
X149855320Y-79823969D01*
X149884831Y-79865925D01*
X149881862Y-79931683D01*
X149851542Y-80022354D01*
X149771462Y-80058833D01*
X149752050Y-80061495D01*
X149670552Y-80061168D01*
X149639756Y-80017928D01*
X149635634Y-79945078D01*
X149381282Y-79945078D01*
X149370243Y-80033030D01*
X149321823Y-80066234D01*
X149275800Y-80069266D01*
X149200164Y-80055598D01*
X149172494Y-79997494D01*
X149169967Y-79942266D01*
X148915967Y-79942266D01*
X148904576Y-80033030D01*
X148856156Y-80066234D01*
X148810134Y-80069266D01*
X148734497Y-80055598D01*
X148706828Y-79997494D01*
X148704300Y-79942266D01*
X148450128Y-79942266D01*
X148450300Y-79945078D01*
X148441597Y-80034953D01*
X148399641Y-80064464D01*
X148333884Y-80061495D01*
X148243213Y-80031175D01*
X148206733Y-79951095D01*
X148204072Y-79931683D01*
X147984019Y-79931683D01*
X147984634Y-79942266D01*
X147974144Y-80032221D01*
X147924664Y-80065376D01*
X147857634Y-80069266D01*
X147767679Y-80058777D01*
X147734524Y-80009297D01*
X147730634Y-79942266D01*
X147497800Y-79942266D01*
X147479186Y-80023683D01*
X147407217Y-80057819D01*
X147381384Y-80061495D01*
X147300454Y-80061384D01*
X147269418Y-80019120D01*
X147264967Y-79942266D01*
X147010967Y-79942266D01*
X146999576Y-80033030D01*
X146951156Y-80066234D01*
X146905134Y-80069266D01*
X146829497Y-80055598D01*
X146801828Y-79997494D01*
X146799300Y-79942266D01*
X146545300Y-79942266D01*
X146533986Y-80032954D01*
X146485543Y-80066160D01*
X146438138Y-80069266D01*
X146347980Y-80046846D01*
X146306609Y-80005766D01*
X146300360Y-79899502D01*
X146079634Y-79899502D01*
X146079634Y-80069266D01*
X145825634Y-80069266D01*
X145684863Y-80071507D01*
X145608862Y-80083752D01*
X145577747Y-80114286D01*
X145571639Y-80171390D01*
X145571634Y-80175100D01*
X145577012Y-80233754D01*
X145606400Y-80265421D01*
X145679679Y-80278386D01*
X145816731Y-80280931D01*
X145825634Y-80280933D01*
X146079634Y-80280933D01*
X146079634Y-80419702D01*
X146294178Y-80419702D01*
X146306609Y-80344433D01*
X146362991Y-80296107D01*
X146438138Y-80280933D01*
X146514660Y-80294342D01*
X146542679Y-80351753D01*
X146545300Y-80407933D01*
X146799300Y-80407933D01*
X146810691Y-80317170D01*
X146859111Y-80283966D01*
X146905134Y-80280933D01*
X146980770Y-80294602D01*
X147008439Y-80352706D01*
X147010838Y-80405121D01*
X147264967Y-80405121D01*
X147273670Y-80315247D01*
X147315626Y-80285736D01*
X147381384Y-80288705D01*
X147472054Y-80319024D01*
X147508534Y-80399104D01*
X147509358Y-80405121D01*
X147730634Y-80405121D01*
X147739336Y-80315247D01*
X147781292Y-80285736D01*
X147847050Y-80288705D01*
X147937721Y-80319024D01*
X147974200Y-80399104D01*
X147976862Y-80418516D01*
X147976792Y-80436155D01*
X148196300Y-80436155D01*
X148213060Y-80331697D01*
X148276879Y-80287257D01*
X148351522Y-80280933D01*
X148422498Y-80296184D01*
X148448294Y-80358463D01*
X148450300Y-80407933D01*
X148704300Y-80407933D01*
X148715691Y-80317170D01*
X148764111Y-80283966D01*
X148810134Y-80280933D01*
X148885770Y-80294602D01*
X148913439Y-80352706D01*
X148915967Y-80407933D01*
X149169967Y-80407933D01*
X149181357Y-80317170D01*
X149229777Y-80283966D01*
X149275800Y-80280933D01*
X149351436Y-80294602D01*
X149379106Y-80352706D01*
X149381505Y-80405121D01*
X149635634Y-80405121D01*
X149644336Y-80315247D01*
X149686292Y-80285736D01*
X149752050Y-80288705D01*
X149842721Y-80319024D01*
X149879200Y-80399104D01*
X149881862Y-80418516D01*
X149881535Y-80500015D01*
X149838295Y-80530810D01*
X149765445Y-80534933D01*
X149674240Y-80525093D01*
X149640063Y-80477599D01*
X149635634Y-80405121D01*
X149381505Y-80405121D01*
X149381634Y-80407933D01*
X149370243Y-80498697D01*
X149321823Y-80531900D01*
X149275800Y-80534933D01*
X149200164Y-80521264D01*
X149172494Y-80463160D01*
X149169967Y-80407933D01*
X148915967Y-80407933D01*
X148904576Y-80498697D01*
X148856156Y-80531900D01*
X148810134Y-80534933D01*
X148734497Y-80521264D01*
X148706828Y-80463160D01*
X148704300Y-80407933D01*
X148450300Y-80407933D01*
X148439811Y-80497887D01*
X148390330Y-80531042D01*
X148323300Y-80534933D01*
X148232045Y-80523072D01*
X148198879Y-80474632D01*
X148196300Y-80436155D01*
X147976792Y-80436155D01*
X147976535Y-80500015D01*
X147933295Y-80530810D01*
X147860445Y-80534933D01*
X147769240Y-80525093D01*
X147735063Y-80477599D01*
X147730634Y-80405121D01*
X147509358Y-80405121D01*
X147511195Y-80418516D01*
X147510868Y-80500015D01*
X147467628Y-80530810D01*
X147394779Y-80534933D01*
X147303573Y-80525093D01*
X147269397Y-80477599D01*
X147264967Y-80405121D01*
X147010838Y-80405121D01*
X147010967Y-80407933D01*
X146999576Y-80498697D01*
X146951156Y-80531900D01*
X146905134Y-80534933D01*
X146829497Y-80521264D01*
X146801828Y-80463160D01*
X146799300Y-80407933D01*
X146545300Y-80407933D01*
X146533986Y-80498621D01*
X146485543Y-80531826D01*
X146438138Y-80534933D01*
X146336326Y-80502789D01*
X146294178Y-80419702D01*
X146079634Y-80419702D01*
X146079634Y-80534933D01*
X145571634Y-80534933D01*
X145571634Y-80788933D01*
X145825634Y-80788933D01*
X145966404Y-80791174D01*
X146042405Y-80803419D01*
X146073520Y-80833952D01*
X146079628Y-80891057D01*
X146079634Y-80894766D01*
X146291300Y-80894766D01*
X146304969Y-80819130D01*
X146363073Y-80791461D01*
X146418300Y-80788933D01*
X146509064Y-80800324D01*
X146542267Y-80848744D01*
X146545300Y-80894766D01*
X146799300Y-80894766D01*
X146816785Y-80814206D01*
X146885630Y-80789380D01*
X146905134Y-80788933D01*
X146985694Y-80806418D01*
X147010520Y-80875263D01*
X147010967Y-80894766D01*
X147264967Y-80894766D01*
X147278636Y-80819130D01*
X147336740Y-80791461D01*
X147391967Y-80788933D01*
X147482730Y-80800324D01*
X147515934Y-80848744D01*
X147518967Y-80894766D01*
X147730634Y-80894766D01*
X147744302Y-80819130D01*
X147802406Y-80791461D01*
X147857634Y-80788933D01*
X147948397Y-80800324D01*
X147981601Y-80848744D01*
X147984634Y-80894766D01*
X148196300Y-80894766D01*
X148209969Y-80819130D01*
X148268073Y-80791461D01*
X148323300Y-80788933D01*
X148414064Y-80800324D01*
X148447267Y-80848744D01*
X148450300Y-80894766D01*
X148704300Y-80894766D01*
X148721785Y-80814206D01*
X148790630Y-80789380D01*
X148810134Y-80788933D01*
X148890694Y-80806418D01*
X148915520Y-80875263D01*
X148915967Y-80894766D01*
X149169967Y-80894766D01*
X149187452Y-80814206D01*
X149256297Y-80789380D01*
X149275800Y-80788933D01*
X149356361Y-80806418D01*
X149381187Y-80875263D01*
X149381634Y-80894766D01*
X149635634Y-80894766D01*
X149649302Y-80819130D01*
X149707406Y-80791461D01*
X149762634Y-80788933D01*
X149853397Y-80800324D01*
X149886601Y-80848744D01*
X149889634Y-80894766D01*
X149875965Y-80970403D01*
X149817861Y-80998072D01*
X149762634Y-81000600D01*
X149671870Y-80989209D01*
X149638666Y-80940789D01*
X149635634Y-80894766D01*
X149381634Y-80894766D01*
X149364149Y-80975327D01*
X149295304Y-81000153D01*
X149275800Y-81000600D01*
X149195239Y-80983115D01*
X149170414Y-80914270D01*
X149169967Y-80894766D01*
X148915967Y-80894766D01*
X148898482Y-80975327D01*
X148829637Y-81000153D01*
X148810134Y-81000600D01*
X148729573Y-80983115D01*
X148704747Y-80914270D01*
X148704300Y-80894766D01*
X148450300Y-80894766D01*
X148436631Y-80970403D01*
X148378527Y-80998072D01*
X148323300Y-81000600D01*
X148232537Y-80989209D01*
X148199333Y-80940789D01*
X148196300Y-80894766D01*
X147984634Y-80894766D01*
X147970965Y-80970403D01*
X147912861Y-80998072D01*
X147857634Y-81000600D01*
X147766870Y-80989209D01*
X147733666Y-80940789D01*
X147730634Y-80894766D01*
X147518967Y-80894766D01*
X147505298Y-80970403D01*
X147447194Y-80998072D01*
X147391967Y-81000600D01*
X147301203Y-80989209D01*
X147268000Y-80940789D01*
X147264967Y-80894766D01*
X147010967Y-80894766D01*
X146993482Y-80975327D01*
X146924637Y-81000153D01*
X146905134Y-81000600D01*
X146824573Y-80983115D01*
X146799747Y-80914270D01*
X146799300Y-80894766D01*
X146545300Y-80894766D01*
X146531631Y-80970403D01*
X146473527Y-80998072D01*
X146418300Y-81000600D01*
X146327537Y-80989209D01*
X146294333Y-80940789D01*
X146291300Y-80894766D01*
X146079634Y-80894766D01*
X146074255Y-80953421D01*
X146044867Y-80985088D01*
X145971588Y-80998052D01*
X145834536Y-81000597D01*
X145825634Y-81000600D01*
X145571634Y-81000600D01*
X145571634Y-81254600D01*
X145825634Y-81254600D01*
X145966404Y-81256841D01*
X146042405Y-81269086D01*
X146073520Y-81299619D01*
X146079628Y-81356724D01*
X146079634Y-81360433D01*
X146291300Y-81360433D01*
X146304969Y-81284797D01*
X146363073Y-81257127D01*
X146418300Y-81254600D01*
X146509064Y-81265990D01*
X146542267Y-81314410D01*
X146545300Y-81360433D01*
X146799300Y-81360433D01*
X146816785Y-81279872D01*
X146885630Y-81255047D01*
X146905134Y-81254600D01*
X146985694Y-81272085D01*
X147010520Y-81340930D01*
X147010967Y-81360433D01*
X147264967Y-81360433D01*
X147278636Y-81284797D01*
X147336740Y-81257127D01*
X147391967Y-81254600D01*
X147482730Y-81265990D01*
X147515934Y-81314410D01*
X147518967Y-81360433D01*
X147730634Y-81360433D01*
X147744302Y-81284797D01*
X147802406Y-81257127D01*
X147857634Y-81254600D01*
X147948397Y-81265990D01*
X147981601Y-81314410D01*
X147984634Y-81360433D01*
X148196300Y-81360433D01*
X148209969Y-81284797D01*
X148268073Y-81257127D01*
X148323300Y-81254600D01*
X148414064Y-81265990D01*
X148447267Y-81314410D01*
X148450300Y-81360433D01*
X148704300Y-81360433D01*
X148721785Y-81279872D01*
X148790630Y-81255047D01*
X148810134Y-81254600D01*
X148890694Y-81272085D01*
X148915520Y-81340930D01*
X148915967Y-81360433D01*
X149169967Y-81360433D01*
X149187452Y-81279872D01*
X149256297Y-81255047D01*
X149275800Y-81254600D01*
X149356361Y-81272085D01*
X149381187Y-81340930D01*
X149381634Y-81360433D01*
X149635634Y-81360433D01*
X149649302Y-81284797D01*
X149707406Y-81257127D01*
X149762634Y-81254600D01*
X149853397Y-81265990D01*
X149886601Y-81314410D01*
X149889634Y-81360433D01*
X149875965Y-81436069D01*
X149817861Y-81463739D01*
X149762634Y-81466266D01*
X149671870Y-81454876D01*
X149638666Y-81406456D01*
X149635634Y-81360433D01*
X149381634Y-81360433D01*
X149364149Y-81440994D01*
X149295304Y-81465820D01*
X149275800Y-81466266D01*
X149195239Y-81448782D01*
X149170414Y-81379937D01*
X149169967Y-81360433D01*
X148915967Y-81360433D01*
X148898482Y-81440994D01*
X148829637Y-81465820D01*
X148810134Y-81466266D01*
X148729573Y-81448782D01*
X148704747Y-81379937D01*
X148704300Y-81360433D01*
X148450300Y-81360433D01*
X148436631Y-81436069D01*
X148378527Y-81463739D01*
X148323300Y-81466266D01*
X148232537Y-81454876D01*
X148199333Y-81406456D01*
X148196300Y-81360433D01*
X147984634Y-81360433D01*
X147970965Y-81436069D01*
X147912861Y-81463739D01*
X147857634Y-81466266D01*
X147766870Y-81454876D01*
X147733666Y-81406456D01*
X147730634Y-81360433D01*
X147518967Y-81360433D01*
X147505298Y-81436069D01*
X147447194Y-81463739D01*
X147391967Y-81466266D01*
X147301203Y-81454876D01*
X147268000Y-81406456D01*
X147264967Y-81360433D01*
X147010967Y-81360433D01*
X146993482Y-81440994D01*
X146924637Y-81465820D01*
X146905134Y-81466266D01*
X146824573Y-81448782D01*
X146799747Y-81379937D01*
X146799300Y-81360433D01*
X146545300Y-81360433D01*
X146531631Y-81436069D01*
X146473527Y-81463739D01*
X146418300Y-81466266D01*
X146327537Y-81454876D01*
X146294333Y-81406456D01*
X146291300Y-81360433D01*
X146079634Y-81360433D01*
X146074255Y-81419087D01*
X146044867Y-81450755D01*
X145971588Y-81463719D01*
X145834536Y-81466264D01*
X145825634Y-81466266D01*
X145571634Y-81466266D01*
X145571634Y-81720266D01*
X146079634Y-81720266D01*
X146079634Y-81859035D01*
X146294178Y-81859035D01*
X146306609Y-81783766D01*
X146362991Y-81735441D01*
X146438138Y-81720266D01*
X146514660Y-81733675D01*
X146542679Y-81791086D01*
X146545300Y-81847266D01*
X146799300Y-81847266D01*
X146810691Y-81756503D01*
X146859111Y-81723299D01*
X146905134Y-81720266D01*
X146980770Y-81733935D01*
X147008439Y-81792039D01*
X147010967Y-81847266D01*
X147010615Y-81850078D01*
X147264967Y-81850078D01*
X147274807Y-81758873D01*
X147322301Y-81724696D01*
X147394779Y-81720266D01*
X147484653Y-81728969D01*
X147514164Y-81770925D01*
X147511195Y-81836683D01*
X147506716Y-81850078D01*
X147730634Y-81850078D01*
X147740474Y-81758873D01*
X147787968Y-81724696D01*
X147860445Y-81720266D01*
X147950320Y-81728969D01*
X147979831Y-81770925D01*
X147976862Y-81836683D01*
X148204072Y-81836683D01*
X148204399Y-81755185D01*
X148247639Y-81724389D01*
X148320488Y-81720266D01*
X148411694Y-81730107D01*
X148445870Y-81777601D01*
X148450128Y-81847266D01*
X148704300Y-81847266D01*
X148715691Y-81756503D01*
X148764111Y-81723299D01*
X148810134Y-81720266D01*
X148885770Y-81733935D01*
X148913439Y-81792039D01*
X148915967Y-81847266D01*
X149169967Y-81847266D01*
X149181357Y-81756503D01*
X149229777Y-81723299D01*
X149275800Y-81720266D01*
X149351436Y-81733935D01*
X149379106Y-81792039D01*
X149381634Y-81847266D01*
X149381282Y-81850078D01*
X149635634Y-81850078D01*
X149645474Y-81758873D01*
X149692968Y-81724696D01*
X149765445Y-81720266D01*
X149855320Y-81728969D01*
X149884831Y-81770925D01*
X149881862Y-81836683D01*
X149851542Y-81927354D01*
X149771462Y-81963833D01*
X149752050Y-81966495D01*
X149670552Y-81966168D01*
X149639756Y-81922928D01*
X149635634Y-81850078D01*
X149381282Y-81850078D01*
X149370243Y-81938030D01*
X149321823Y-81971234D01*
X149275800Y-81974266D01*
X149200164Y-81960598D01*
X149172494Y-81902494D01*
X149169967Y-81847266D01*
X148915967Y-81847266D01*
X148904576Y-81938030D01*
X148856156Y-81971234D01*
X148810134Y-81974266D01*
X148734497Y-81960598D01*
X148706828Y-81902494D01*
X148704300Y-81847266D01*
X148450128Y-81847266D01*
X148450300Y-81850078D01*
X148441597Y-81939953D01*
X148399641Y-81969464D01*
X148333884Y-81966495D01*
X148243213Y-81936175D01*
X148206733Y-81856095D01*
X148204072Y-81836683D01*
X147976862Y-81836683D01*
X147946542Y-81927354D01*
X147866462Y-81963833D01*
X147847050Y-81966495D01*
X147765552Y-81966168D01*
X147734756Y-81922928D01*
X147730634Y-81850078D01*
X147506716Y-81850078D01*
X147480876Y-81927354D01*
X147400796Y-81963833D01*
X147381384Y-81966495D01*
X147299885Y-81966168D01*
X147269090Y-81922928D01*
X147264967Y-81850078D01*
X147010615Y-81850078D01*
X146999576Y-81938030D01*
X146951156Y-81971234D01*
X146905134Y-81974266D01*
X146829497Y-81960598D01*
X146801828Y-81902494D01*
X146799300Y-81847266D01*
X146545300Y-81847266D01*
X146533986Y-81937954D01*
X146485543Y-81971160D01*
X146438138Y-81974266D01*
X146336326Y-81942122D01*
X146294178Y-81859035D01*
X146079634Y-81859035D01*
X146079634Y-81974266D01*
X145825634Y-81974266D01*
X145684863Y-81976507D01*
X145608862Y-81988752D01*
X145577747Y-82019286D01*
X145571639Y-82076390D01*
X145571634Y-82080100D01*
X145577012Y-82138754D01*
X145606400Y-82170421D01*
X145679679Y-82183386D01*
X145816731Y-82185931D01*
X145825634Y-82185933D01*
X146079634Y-82185933D01*
X146079634Y-82324702D01*
X146294178Y-82324702D01*
X146306609Y-82249433D01*
X146362991Y-82201107D01*
X146438138Y-82185933D01*
X146514660Y-82199342D01*
X146542679Y-82256753D01*
X146545300Y-82312933D01*
X146799300Y-82312933D01*
X146810691Y-82222170D01*
X146859111Y-82188966D01*
X146905134Y-82185933D01*
X146980770Y-82199602D01*
X147008439Y-82257706D01*
X147010967Y-82312933D01*
X147264967Y-82312933D01*
X147273238Y-82221689D01*
X147313472Y-82190961D01*
X147381384Y-82193705D01*
X147468585Y-82220660D01*
X147497027Y-82289359D01*
X147497800Y-82312933D01*
X147730634Y-82312933D01*
X147741123Y-82222979D01*
X147790603Y-82189824D01*
X147857634Y-82185933D01*
X147947588Y-82196423D01*
X147980743Y-82245903D01*
X147984634Y-82312933D01*
X147981343Y-82341155D01*
X148196300Y-82341155D01*
X148213060Y-82236697D01*
X148276879Y-82192257D01*
X148351522Y-82185933D01*
X148422498Y-82201184D01*
X148448294Y-82263463D01*
X148450300Y-82312933D01*
X148704300Y-82312933D01*
X148715691Y-82222170D01*
X148764111Y-82188966D01*
X148810134Y-82185933D01*
X148885770Y-82199602D01*
X148913439Y-82257706D01*
X148915967Y-82312933D01*
X149169967Y-82312933D01*
X149181357Y-82222170D01*
X149229777Y-82188966D01*
X149275800Y-82185933D01*
X149351436Y-82199602D01*
X149379106Y-82257706D01*
X149381505Y-82310121D01*
X149635634Y-82310121D01*
X149644336Y-82220247D01*
X149686292Y-82190736D01*
X149752050Y-82193705D01*
X149842721Y-82224024D01*
X149879200Y-82304104D01*
X149881862Y-82323516D01*
X149881535Y-82405015D01*
X149838295Y-82435810D01*
X149765445Y-82439933D01*
X149674240Y-82430093D01*
X149640063Y-82382599D01*
X149635634Y-82310121D01*
X149381505Y-82310121D01*
X149381634Y-82312933D01*
X149370243Y-82403697D01*
X149321823Y-82436900D01*
X149275800Y-82439933D01*
X149200164Y-82426264D01*
X149172494Y-82368160D01*
X149169967Y-82312933D01*
X148915967Y-82312933D01*
X148904576Y-82403697D01*
X148856156Y-82436900D01*
X148810134Y-82439933D01*
X148734497Y-82426264D01*
X148706828Y-82368160D01*
X148704300Y-82312933D01*
X148450300Y-82312933D01*
X148439811Y-82402887D01*
X148390330Y-82436042D01*
X148323300Y-82439933D01*
X148232045Y-82428072D01*
X148198879Y-82379632D01*
X148196300Y-82341155D01*
X147981343Y-82341155D01*
X147974144Y-82402887D01*
X147924664Y-82436042D01*
X147857634Y-82439933D01*
X147767679Y-82429444D01*
X147734524Y-82379963D01*
X147730634Y-82312933D01*
X147497800Y-82312933D01*
X147479186Y-82394349D01*
X147407217Y-82428486D01*
X147381384Y-82432162D01*
X147300454Y-82432051D01*
X147269418Y-82389786D01*
X147264967Y-82312933D01*
X147010967Y-82312933D01*
X146999576Y-82403697D01*
X146951156Y-82436900D01*
X146905134Y-82439933D01*
X146829497Y-82426264D01*
X146801828Y-82368160D01*
X146799300Y-82312933D01*
X146545300Y-82312933D01*
X146533986Y-82403621D01*
X146485543Y-82436826D01*
X146438138Y-82439933D01*
X146336326Y-82407789D01*
X146294178Y-82324702D01*
X146079634Y-82324702D01*
X146079634Y-82439933D01*
X145825634Y-82439933D01*
X145684863Y-82442174D01*
X145608862Y-82454419D01*
X145577747Y-82484952D01*
X145571639Y-82542057D01*
X145571634Y-82545766D01*
X145577012Y-82604421D01*
X145606400Y-82636088D01*
X145679679Y-82649052D01*
X145816731Y-82651597D01*
X145825634Y-82651600D01*
X146079634Y-82651600D01*
X146079634Y-82790369D01*
X146294178Y-82790369D01*
X146306609Y-82715100D01*
X146362991Y-82666774D01*
X146438138Y-82651600D01*
X146514660Y-82665009D01*
X146542679Y-82722419D01*
X146545300Y-82778600D01*
X146799300Y-82778600D01*
X146810691Y-82687836D01*
X146859111Y-82654633D01*
X146905134Y-82651600D01*
X146980770Y-82665269D01*
X147008439Y-82723373D01*
X147010838Y-82775788D01*
X147264967Y-82775788D01*
X147273670Y-82685913D01*
X147315626Y-82656402D01*
X147381384Y-82659371D01*
X147472054Y-82689691D01*
X147508534Y-82769771D01*
X147511195Y-82789183D01*
X147511125Y-82806822D01*
X147730634Y-82806822D01*
X147749203Y-82699607D01*
X147812820Y-82658421D01*
X147877058Y-82660397D01*
X147951558Y-82706689D01*
X147976862Y-82789183D01*
X147976792Y-82806822D01*
X148196300Y-82806822D01*
X148213060Y-82702363D01*
X148276879Y-82657924D01*
X148351522Y-82651600D01*
X148422498Y-82666850D01*
X148448294Y-82729130D01*
X148450300Y-82778600D01*
X148704300Y-82778600D01*
X148715691Y-82687836D01*
X148764111Y-82654633D01*
X148810134Y-82651600D01*
X148885770Y-82665269D01*
X148913439Y-82723373D01*
X148915967Y-82778600D01*
X149169967Y-82778600D01*
X149181357Y-82687836D01*
X149229777Y-82654633D01*
X149275800Y-82651600D01*
X149351436Y-82665269D01*
X149379106Y-82723373D01*
X149381505Y-82775788D01*
X149635634Y-82775788D01*
X149644336Y-82685913D01*
X149686292Y-82656402D01*
X149752050Y-82659371D01*
X149842721Y-82689691D01*
X149879200Y-82769771D01*
X149881862Y-82789183D01*
X149881535Y-82870682D01*
X149838295Y-82901477D01*
X149765445Y-82905600D01*
X149674240Y-82895760D01*
X149640063Y-82848266D01*
X149635634Y-82775788D01*
X149381505Y-82775788D01*
X149381634Y-82778600D01*
X149370243Y-82869363D01*
X149321823Y-82902567D01*
X149275800Y-82905600D01*
X149200164Y-82891931D01*
X149172494Y-82833827D01*
X149169967Y-82778600D01*
X148915967Y-82778600D01*
X148904576Y-82869363D01*
X148856156Y-82902567D01*
X148810134Y-82905600D01*
X148734497Y-82891931D01*
X148706828Y-82833827D01*
X148704300Y-82778600D01*
X148450300Y-82778600D01*
X148439811Y-82868554D01*
X148390330Y-82901709D01*
X148323300Y-82905600D01*
X148232045Y-82893738D01*
X148198879Y-82845299D01*
X148196300Y-82806822D01*
X147976792Y-82806822D01*
X147976535Y-82870682D01*
X147933295Y-82901477D01*
X147860445Y-82905600D01*
X147767911Y-82894326D01*
X147733659Y-82847918D01*
X147730634Y-82806822D01*
X147511125Y-82806822D01*
X147510868Y-82870682D01*
X147467628Y-82901477D01*
X147394779Y-82905600D01*
X147303573Y-82895760D01*
X147269397Y-82848266D01*
X147264967Y-82775788D01*
X147010838Y-82775788D01*
X147010967Y-82778600D01*
X146999576Y-82869363D01*
X146951156Y-82902567D01*
X146905134Y-82905600D01*
X146829497Y-82891931D01*
X146801828Y-82833827D01*
X146799300Y-82778600D01*
X146545300Y-82778600D01*
X146533986Y-82869287D01*
X146485543Y-82902493D01*
X146438138Y-82905600D01*
X146336326Y-82873455D01*
X146294178Y-82790369D01*
X146079634Y-82790369D01*
X146079634Y-82905600D01*
X145571634Y-82905600D01*
X145571634Y-83159600D01*
X146079634Y-83159600D01*
X146079634Y-83392433D01*
X146082381Y-83525782D01*
X146096901Y-83595215D01*
X146132612Y-83621452D01*
X146185467Y-83625266D01*
X146246080Y-83619223D01*
X146277640Y-83587278D01*
X146289566Y-83508715D01*
X146291300Y-83392433D01*
X146293433Y-83259326D01*
X146307408Y-83190045D01*
X146344595Y-83163749D01*
X146416358Y-83159600D01*
X146418300Y-83159600D01*
X146490904Y-83163510D01*
X146528694Y-83189132D01*
X146543037Y-83257306D01*
X146545300Y-83388873D01*
X146545300Y-83392433D01*
X146547433Y-83525540D01*
X146561408Y-83594822D01*
X146598595Y-83621117D01*
X146670358Y-83625266D01*
X146672300Y-83625266D01*
X146744904Y-83621357D01*
%TO.C,H10*%
D10*
X155617495Y-113304580D02*
X155617495Y-112304580D01*
X155617495Y-112780771D02*
X155046066Y-112780771D01*
X155046066Y-113304580D02*
X155046066Y-112304580D01*
X154046066Y-113304580D02*
X154617495Y-113304580D01*
X154331780Y-113304580D02*
X154331780Y-112304580D01*
X154427019Y-112447438D01*
X154522257Y-112542676D01*
X154617495Y-112590295D01*
X153427019Y-112304580D02*
X153331780Y-112304580D01*
X153236542Y-112352200D01*
X153188923Y-112399819D01*
X153141304Y-112495057D01*
X153093685Y-112685533D01*
X153093685Y-112923628D01*
X153141304Y-113114104D01*
X153188923Y-113209342D01*
X153236542Y-113256961D01*
X153331780Y-113304580D01*
X153427019Y-113304580D01*
X153522257Y-113256961D01*
X153569876Y-113209342D01*
X153617495Y-113114104D01*
X153665114Y-112923628D01*
X153665114Y-112685533D01*
X153617495Y-112495057D01*
X153569876Y-112399819D01*
X153522257Y-112352200D01*
X153427019Y-112304580D01*
%TO.C,H9*%
X158704104Y-113304580D02*
X158704104Y-112304580D01*
X158704104Y-112780771D02*
X158132676Y-112780771D01*
X158132676Y-113304580D02*
X158132676Y-112304580D01*
X157608866Y-113304580D02*
X157418390Y-113304580D01*
X157323152Y-113256961D01*
X157275533Y-113209342D01*
X157180295Y-113066485D01*
X157132676Y-112876009D01*
X157132676Y-112495057D01*
X157180295Y-112399819D01*
X157227914Y-112352200D01*
X157323152Y-112304580D01*
X157513628Y-112304580D01*
X157608866Y-112352200D01*
X157656485Y-112399819D01*
X157704104Y-112495057D01*
X157704104Y-112733152D01*
X157656485Y-112828390D01*
X157608866Y-112876009D01*
X157513628Y-112923628D01*
X157323152Y-112923628D01*
X157227914Y-112876009D01*
X157180295Y-112828390D01*
X157132676Y-112733152D01*
%TO.C,H8*%
X162266904Y-113304580D02*
X162266904Y-112304580D01*
X162266904Y-112780771D02*
X161695476Y-112780771D01*
X161695476Y-113304580D02*
X161695476Y-112304580D01*
X161076428Y-112733152D02*
X161171666Y-112685533D01*
X161219285Y-112637914D01*
X161266904Y-112542676D01*
X161266904Y-112495057D01*
X161219285Y-112399819D01*
X161171666Y-112352200D01*
X161076428Y-112304580D01*
X160885952Y-112304580D01*
X160790714Y-112352200D01*
X160743095Y-112399819D01*
X160695476Y-112495057D01*
X160695476Y-112542676D01*
X160743095Y-112637914D01*
X160790714Y-112685533D01*
X160885952Y-112733152D01*
X161076428Y-112733152D01*
X161171666Y-112780771D01*
X161219285Y-112828390D01*
X161266904Y-112923628D01*
X161266904Y-113114104D01*
X161219285Y-113209342D01*
X161171666Y-113256961D01*
X161076428Y-113304580D01*
X160885952Y-113304580D01*
X160790714Y-113256961D01*
X160743095Y-113209342D01*
X160695476Y-113114104D01*
X160695476Y-112923628D01*
X160743095Y-112828390D01*
X160790714Y-112780771D01*
X160885952Y-112733152D01*
%TO.C,H7*%
X165887304Y-113304580D02*
X165887304Y-112304580D01*
X165887304Y-112780771D02*
X165315876Y-112780771D01*
X165315876Y-113304580D02*
X165315876Y-112304580D01*
X164934923Y-112304580D02*
X164268257Y-112304580D01*
X164696828Y-113304580D01*
%TO.C,H6*%
X169494104Y-113304580D02*
X169494104Y-112304580D01*
X169494104Y-112780771D02*
X168922676Y-112780771D01*
X168922676Y-113304580D02*
X168922676Y-112304580D01*
X168017914Y-112304580D02*
X168208390Y-112304580D01*
X168303628Y-112352200D01*
X168351247Y-112399819D01*
X168446485Y-112542676D01*
X168494104Y-112733152D01*
X168494104Y-113114104D01*
X168446485Y-113209342D01*
X168398866Y-113256961D01*
X168303628Y-113304580D01*
X168113152Y-113304580D01*
X168017914Y-113256961D01*
X167970295Y-113209342D01*
X167922676Y-113114104D01*
X167922676Y-112876009D01*
X167970295Y-112780771D01*
X168017914Y-112733152D01*
X168113152Y-112685533D01*
X168303628Y-112685533D01*
X168398866Y-112733152D01*
X168446485Y-112780771D01*
X168494104Y-112876009D01*
%TO.C,H11*%
X151892295Y-113304580D02*
X151892295Y-112304580D01*
X151892295Y-112780771D02*
X151320866Y-112780771D01*
X151320866Y-113304580D02*
X151320866Y-112304580D01*
X150320866Y-113304580D02*
X150892295Y-113304580D01*
X150606580Y-113304580D02*
X150606580Y-112304580D01*
X150701819Y-112447438D01*
X150797057Y-112542676D01*
X150892295Y-112590295D01*
X149368485Y-113304580D02*
X149939914Y-113304580D01*
X149654200Y-113304580D02*
X149654200Y-112304580D01*
X149749438Y-112447438D01*
X149844676Y-112542676D01*
X149939914Y-112590295D01*
%TO.C,H14*%
X141115895Y-113304580D02*
X141115895Y-112304580D01*
X141115895Y-112780771D02*
X140544466Y-112780771D01*
X140544466Y-113304580D02*
X140544466Y-112304580D01*
X139544466Y-113304580D02*
X140115895Y-113304580D01*
X139830180Y-113304580D02*
X139830180Y-112304580D01*
X139925419Y-112447438D01*
X140020657Y-112542676D01*
X140115895Y-112590295D01*
X138687323Y-112637914D02*
X138687323Y-113304580D01*
X138925419Y-112256961D02*
X139163514Y-112971247D01*
X138544466Y-112971247D01*
%TO.C,H15*%
X137509095Y-113304580D02*
X137509095Y-112304580D01*
X137509095Y-112780771D02*
X136937666Y-112780771D01*
X136937666Y-113304580D02*
X136937666Y-112304580D01*
X135937666Y-113304580D02*
X136509095Y-113304580D01*
X136223380Y-113304580D02*
X136223380Y-112304580D01*
X136318619Y-112447438D01*
X136413857Y-112542676D01*
X136509095Y-112590295D01*
X135032904Y-112304580D02*
X135509095Y-112304580D01*
X135556714Y-112780771D01*
X135509095Y-112733152D01*
X135413857Y-112685533D01*
X135175761Y-112685533D01*
X135080523Y-112733152D01*
X135032904Y-112780771D01*
X134985285Y-112876009D01*
X134985285Y-113114104D01*
X135032904Y-113209342D01*
X135080523Y-113256961D01*
X135175761Y-113304580D01*
X135413857Y-113304580D01*
X135509095Y-113256961D01*
X135556714Y-113209342D01*
%TO.C,H16*%
X133876895Y-113304580D02*
X133876895Y-112304580D01*
X133876895Y-112780771D02*
X133305466Y-112780771D01*
X133305466Y-113304580D02*
X133305466Y-112304580D01*
X132305466Y-113304580D02*
X132876895Y-113304580D01*
X132591180Y-113304580D02*
X132591180Y-112304580D01*
X132686419Y-112447438D01*
X132781657Y-112542676D01*
X132876895Y-112590295D01*
X131448323Y-112304580D02*
X131638800Y-112304580D01*
X131734038Y-112352200D01*
X131781657Y-112399819D01*
X131876895Y-112542676D01*
X131924514Y-112733152D01*
X131924514Y-113114104D01*
X131876895Y-113209342D01*
X131829276Y-113256961D01*
X131734038Y-113304580D01*
X131543561Y-113304580D01*
X131448323Y-113256961D01*
X131400704Y-113209342D01*
X131353085Y-113114104D01*
X131353085Y-112876009D01*
X131400704Y-112780771D01*
X131448323Y-112733152D01*
X131543561Y-112685533D01*
X131734038Y-112685533D01*
X131829276Y-112733152D01*
X131876895Y-112780771D01*
X131924514Y-112876009D01*
%TO.C,H17*%
X130295495Y-113304580D02*
X130295495Y-112304580D01*
X130295495Y-112780771D02*
X129724066Y-112780771D01*
X129724066Y-113304580D02*
X129724066Y-112304580D01*
X128724066Y-113304580D02*
X129295495Y-113304580D01*
X129009780Y-113304580D02*
X129009780Y-112304580D01*
X129105019Y-112447438D01*
X129200257Y-112542676D01*
X129295495Y-112590295D01*
X128390733Y-112304580D02*
X127724066Y-112304580D01*
X128152638Y-113304580D01*
%TO.C,H12*%
X148329495Y-113340580D02*
X148329495Y-112340580D01*
X148329495Y-112816771D02*
X147758066Y-112816771D01*
X147758066Y-113340580D02*
X147758066Y-112340580D01*
X146758066Y-113340580D02*
X147329495Y-113340580D01*
X147043780Y-113340580D02*
X147043780Y-112340580D01*
X147139019Y-112483438D01*
X147234257Y-112578676D01*
X147329495Y-112626295D01*
X146377114Y-112435819D02*
X146329495Y-112388200D01*
X146234257Y-112340580D01*
X145996161Y-112340580D01*
X145900923Y-112388200D01*
X145853304Y-112435819D01*
X145805685Y-112531057D01*
X145805685Y-112626295D01*
X145853304Y-112769152D01*
X146424733Y-113340580D01*
X145805685Y-113340580D01*
%TO.C,H13*%
X144722695Y-113340580D02*
X144722695Y-112340580D01*
X144722695Y-112816771D02*
X144151266Y-112816771D01*
X144151266Y-113340580D02*
X144151266Y-112340580D01*
X143151266Y-113340580D02*
X143722695Y-113340580D01*
X143436980Y-113340580D02*
X143436980Y-112340580D01*
X143532219Y-112483438D01*
X143627457Y-112578676D01*
X143722695Y-112626295D01*
X142817933Y-112340580D02*
X142198885Y-112340580D01*
X142532219Y-112721533D01*
X142389361Y-112721533D01*
X142294123Y-112769152D01*
X142246504Y-112816771D01*
X142198885Y-112912009D01*
X142198885Y-113150104D01*
X142246504Y-113245342D01*
X142294123Y-113292961D01*
X142389361Y-113340580D01*
X142675076Y-113340580D01*
X142770314Y-113292961D01*
X142817933Y-113245342D01*
%TO.C,H5*%
X185953304Y-113340580D02*
X185953304Y-112340580D01*
X185953304Y-112816771D02*
X185381876Y-112816771D01*
X185381876Y-113340580D02*
X185381876Y-112340580D01*
X184429495Y-112340580D02*
X184905685Y-112340580D01*
X184953304Y-112816771D01*
X184905685Y-112769152D01*
X184810447Y-112721533D01*
X184572352Y-112721533D01*
X184477114Y-112769152D01*
X184429495Y-112816771D01*
X184381876Y-112912009D01*
X184381876Y-113150104D01*
X184429495Y-113245342D01*
X184477114Y-113292961D01*
X184572352Y-113340580D01*
X184810447Y-113340580D01*
X184905685Y-113292961D01*
X184953304Y-113245342D01*
%TO.C,H4*%
X168706704Y-95763780D02*
X168706704Y-94763780D01*
X168706704Y-95239971D02*
X168135276Y-95239971D01*
X168135276Y-95763780D02*
X168135276Y-94763780D01*
X167230514Y-95097114D02*
X167230514Y-95763780D01*
X167468609Y-94716161D02*
X167706704Y-95430447D01*
X167087657Y-95430447D01*
%TO.C,H3*%
X149656704Y-95763780D02*
X149656704Y-94763780D01*
X149656704Y-95239971D02*
X149085276Y-95239971D01*
X149085276Y-95763780D02*
X149085276Y-94763780D01*
X148704323Y-94763780D02*
X148085276Y-94763780D01*
X148418609Y-95144733D01*
X148275752Y-95144733D01*
X148180514Y-95192352D01*
X148132895Y-95239971D01*
X148085276Y-95335209D01*
X148085276Y-95573304D01*
X148132895Y-95668542D01*
X148180514Y-95716161D01*
X148275752Y-95763780D01*
X148561466Y-95763780D01*
X148656704Y-95716161D01*
X148704323Y-95668542D01*
%TO.C,H2*%
X130606704Y-95763780D02*
X130606704Y-94763780D01*
X130606704Y-95239971D02*
X130035276Y-95239971D01*
X130035276Y-95763780D02*
X130035276Y-94763780D01*
X129606704Y-94859019D02*
X129559085Y-94811400D01*
X129463847Y-94763780D01*
X129225752Y-94763780D01*
X129130514Y-94811400D01*
X129082895Y-94859019D01*
X129035276Y-94954257D01*
X129035276Y-95049495D01*
X129082895Y-95192352D01*
X129654323Y-95763780D01*
X129035276Y-95763780D01*
%TO.C,H1*%
X113334704Y-113329980D02*
X113334704Y-112329980D01*
X113334704Y-112806171D02*
X112763276Y-112806171D01*
X112763276Y-113329980D02*
X112763276Y-112329980D01*
X111763276Y-113329980D02*
X112334704Y-113329980D01*
X112048990Y-113329980D02*
X112048990Y-112329980D01*
X112144228Y-112472838D01*
X112239466Y-112568076D01*
X112334704Y-112615695D01*
%TD*%
M02*
