%TF.GenerationSoftware,KiCad,Pcbnew,(5.1.6-0-10_14)*%
%TF.CreationDate,2020-08-01T15:30:54-04:00*%
%TF.ProjectId,pin-check,70696e2d-6368-4656-936b-2e6b69636164,v1.1.0*%
%TF.SameCoordinates,Original*%
%TF.FileFunction,Soldermask,Bot*%
%TF.FilePolarity,Negative*%
%FSLAX46Y46*%
G04 Gerber Fmt 4.6, Leading zero omitted, Abs format (unit mm)*
G04 Created by KiCad (PCBNEW (5.1.6-0-10_14)) date 2020-08-01 15:30:54*
%MOMM*%
%LPD*%
G01*
G04 APERTURE LIST*
%ADD10C,0.100000*%
G04 APERTURE END LIST*
D10*
G36*
X186112157Y-114041936D02*
G01*
X186154065Y-114054649D01*
X186192678Y-114075288D01*
X186226530Y-114103070D01*
X186254312Y-114136922D01*
X186274951Y-114175535D01*
X186287664Y-114217443D01*
X186292200Y-114263503D01*
X186292200Y-116012897D01*
X186287664Y-116058957D01*
X186274951Y-116100865D01*
X186254312Y-116139478D01*
X186226530Y-116173330D01*
X186192678Y-116201112D01*
X186154065Y-116221751D01*
X186112157Y-116234464D01*
X186066097Y-116239000D01*
X184316703Y-116239000D01*
X184270643Y-116234464D01*
X184228735Y-116221751D01*
X184190122Y-116201112D01*
X184156270Y-116173330D01*
X184128488Y-116139478D01*
X184107849Y-116100865D01*
X184095136Y-116058957D01*
X184090600Y-116012897D01*
X184090600Y-114263503D01*
X184095136Y-114217443D01*
X184107849Y-114175535D01*
X184128488Y-114136922D01*
X184156270Y-114103070D01*
X184190122Y-114075288D01*
X184228735Y-114054649D01*
X184270643Y-114041936D01*
X184316703Y-114037400D01*
X186066097Y-114037400D01*
X186112157Y-114041936D01*
G37*
G36*
X169652957Y-114041936D02*
G01*
X169694865Y-114054649D01*
X169733478Y-114075288D01*
X169767330Y-114103070D01*
X169795112Y-114136922D01*
X169815751Y-114175535D01*
X169828464Y-114217443D01*
X169833000Y-114263503D01*
X169833000Y-116012897D01*
X169828464Y-116058957D01*
X169815751Y-116100865D01*
X169795112Y-116139478D01*
X169767330Y-116173330D01*
X169733478Y-116201112D01*
X169694865Y-116221751D01*
X169652957Y-116234464D01*
X169606897Y-116239000D01*
X167857503Y-116239000D01*
X167811443Y-116234464D01*
X167769535Y-116221751D01*
X167730922Y-116201112D01*
X167697070Y-116173330D01*
X167669288Y-116139478D01*
X167648649Y-116100865D01*
X167635936Y-116058957D01*
X167631400Y-116012897D01*
X167631400Y-114263503D01*
X167635936Y-114217443D01*
X167648649Y-114175535D01*
X167669288Y-114136922D01*
X167697070Y-114103070D01*
X167730922Y-114075288D01*
X167769535Y-114054649D01*
X167811443Y-114041936D01*
X167857503Y-114037400D01*
X169606897Y-114037400D01*
X169652957Y-114041936D01*
G37*
G36*
X166046157Y-114041936D02*
G01*
X166088065Y-114054649D01*
X166126678Y-114075288D01*
X166160530Y-114103070D01*
X166188312Y-114136922D01*
X166208951Y-114175535D01*
X166221664Y-114217443D01*
X166226200Y-114263503D01*
X166226200Y-116012897D01*
X166221664Y-116058957D01*
X166208951Y-116100865D01*
X166188312Y-116139478D01*
X166160530Y-116173330D01*
X166126678Y-116201112D01*
X166088065Y-116221751D01*
X166046157Y-116234464D01*
X166000097Y-116239000D01*
X164250703Y-116239000D01*
X164204643Y-116234464D01*
X164162735Y-116221751D01*
X164124122Y-116201112D01*
X164090270Y-116173330D01*
X164062488Y-116139478D01*
X164041849Y-116100865D01*
X164029136Y-116058957D01*
X164024600Y-116012897D01*
X164024600Y-114263503D01*
X164029136Y-114217443D01*
X164041849Y-114175535D01*
X164062488Y-114136922D01*
X164090270Y-114103070D01*
X164124122Y-114075288D01*
X164162735Y-114054649D01*
X164204643Y-114041936D01*
X164250703Y-114037400D01*
X166000097Y-114037400D01*
X166046157Y-114041936D01*
G37*
G36*
X162439357Y-114041936D02*
G01*
X162481265Y-114054649D01*
X162519878Y-114075288D01*
X162553730Y-114103070D01*
X162581512Y-114136922D01*
X162602151Y-114175535D01*
X162614864Y-114217443D01*
X162619400Y-114263503D01*
X162619400Y-116012897D01*
X162614864Y-116058957D01*
X162602151Y-116100865D01*
X162581512Y-116139478D01*
X162553730Y-116173330D01*
X162519878Y-116201112D01*
X162481265Y-116221751D01*
X162439357Y-116234464D01*
X162393297Y-116239000D01*
X160643903Y-116239000D01*
X160597843Y-116234464D01*
X160555935Y-116221751D01*
X160517322Y-116201112D01*
X160483470Y-116173330D01*
X160455688Y-116139478D01*
X160435049Y-116100865D01*
X160422336Y-116058957D01*
X160417800Y-116012897D01*
X160417800Y-114263503D01*
X160422336Y-114217443D01*
X160435049Y-114175535D01*
X160455688Y-114136922D01*
X160483470Y-114103070D01*
X160517322Y-114075288D01*
X160555935Y-114054649D01*
X160597843Y-114041936D01*
X160643903Y-114037400D01*
X162393297Y-114037400D01*
X162439357Y-114041936D01*
G37*
G36*
X158832557Y-114041936D02*
G01*
X158874465Y-114054649D01*
X158913078Y-114075288D01*
X158946930Y-114103070D01*
X158974712Y-114136922D01*
X158995351Y-114175535D01*
X159008064Y-114217443D01*
X159012600Y-114263503D01*
X159012600Y-116012897D01*
X159008064Y-116058957D01*
X158995351Y-116100865D01*
X158974712Y-116139478D01*
X158946930Y-116173330D01*
X158913078Y-116201112D01*
X158874465Y-116221751D01*
X158832557Y-116234464D01*
X158786497Y-116239000D01*
X157037103Y-116239000D01*
X156991043Y-116234464D01*
X156949135Y-116221751D01*
X156910522Y-116201112D01*
X156876670Y-116173330D01*
X156848888Y-116139478D01*
X156828249Y-116100865D01*
X156815536Y-116058957D01*
X156811000Y-116012897D01*
X156811000Y-114263503D01*
X156815536Y-114217443D01*
X156828249Y-114175535D01*
X156848888Y-114136922D01*
X156876670Y-114103070D01*
X156910522Y-114075288D01*
X156949135Y-114054649D01*
X156991043Y-114041936D01*
X157037103Y-114037400D01*
X158786497Y-114037400D01*
X158832557Y-114041936D01*
G37*
G36*
X155225757Y-114041936D02*
G01*
X155267665Y-114054649D01*
X155306278Y-114075288D01*
X155340130Y-114103070D01*
X155367912Y-114136922D01*
X155388551Y-114175535D01*
X155401264Y-114217443D01*
X155405800Y-114263503D01*
X155405800Y-116012897D01*
X155401264Y-116058957D01*
X155388551Y-116100865D01*
X155367912Y-116139478D01*
X155340130Y-116173330D01*
X155306278Y-116201112D01*
X155267665Y-116221751D01*
X155225757Y-116234464D01*
X155179697Y-116239000D01*
X153430303Y-116239000D01*
X153384243Y-116234464D01*
X153342335Y-116221751D01*
X153303722Y-116201112D01*
X153269870Y-116173330D01*
X153242088Y-116139478D01*
X153221449Y-116100865D01*
X153208736Y-116058957D01*
X153204200Y-116012897D01*
X153204200Y-114263503D01*
X153208736Y-114217443D01*
X153221449Y-114175535D01*
X153242088Y-114136922D01*
X153269870Y-114103070D01*
X153303722Y-114075288D01*
X153342335Y-114054649D01*
X153384243Y-114041936D01*
X153430303Y-114037400D01*
X155179697Y-114037400D01*
X155225757Y-114041936D01*
G37*
G36*
X151618957Y-114041936D02*
G01*
X151660865Y-114054649D01*
X151699478Y-114075288D01*
X151733330Y-114103070D01*
X151761112Y-114136922D01*
X151781751Y-114175535D01*
X151794464Y-114217443D01*
X151799000Y-114263503D01*
X151799000Y-116012897D01*
X151794464Y-116058957D01*
X151781751Y-116100865D01*
X151761112Y-116139478D01*
X151733330Y-116173330D01*
X151699478Y-116201112D01*
X151660865Y-116221751D01*
X151618957Y-116234464D01*
X151572897Y-116239000D01*
X149823503Y-116239000D01*
X149777443Y-116234464D01*
X149735535Y-116221751D01*
X149696922Y-116201112D01*
X149663070Y-116173330D01*
X149635288Y-116139478D01*
X149614649Y-116100865D01*
X149601936Y-116058957D01*
X149597400Y-116012897D01*
X149597400Y-114263503D01*
X149601936Y-114217443D01*
X149614649Y-114175535D01*
X149635288Y-114136922D01*
X149663070Y-114103070D01*
X149696922Y-114075288D01*
X149735535Y-114054649D01*
X149777443Y-114041936D01*
X149823503Y-114037400D01*
X151572897Y-114037400D01*
X151618957Y-114041936D01*
G37*
G36*
X148012157Y-114041936D02*
G01*
X148054065Y-114054649D01*
X148092678Y-114075288D01*
X148126530Y-114103070D01*
X148154312Y-114136922D01*
X148174951Y-114175535D01*
X148187664Y-114217443D01*
X148192200Y-114263503D01*
X148192200Y-116012897D01*
X148187664Y-116058957D01*
X148174951Y-116100865D01*
X148154312Y-116139478D01*
X148126530Y-116173330D01*
X148092678Y-116201112D01*
X148054065Y-116221751D01*
X148012157Y-116234464D01*
X147966097Y-116239000D01*
X146216703Y-116239000D01*
X146170643Y-116234464D01*
X146128735Y-116221751D01*
X146090122Y-116201112D01*
X146056270Y-116173330D01*
X146028488Y-116139478D01*
X146007849Y-116100865D01*
X145995136Y-116058957D01*
X145990600Y-116012897D01*
X145990600Y-114263503D01*
X145995136Y-114217443D01*
X146007849Y-114175535D01*
X146028488Y-114136922D01*
X146056270Y-114103070D01*
X146090122Y-114075288D01*
X146128735Y-114054649D01*
X146170643Y-114041936D01*
X146216703Y-114037400D01*
X147966097Y-114037400D01*
X148012157Y-114041936D01*
G37*
G36*
X144405357Y-114041936D02*
G01*
X144447265Y-114054649D01*
X144485878Y-114075288D01*
X144519730Y-114103070D01*
X144547512Y-114136922D01*
X144568151Y-114175535D01*
X144580864Y-114217443D01*
X144585400Y-114263503D01*
X144585400Y-116012897D01*
X144580864Y-116058957D01*
X144568151Y-116100865D01*
X144547512Y-116139478D01*
X144519730Y-116173330D01*
X144485878Y-116201112D01*
X144447265Y-116221751D01*
X144405357Y-116234464D01*
X144359297Y-116239000D01*
X142609903Y-116239000D01*
X142563843Y-116234464D01*
X142521935Y-116221751D01*
X142483322Y-116201112D01*
X142449470Y-116173330D01*
X142421688Y-116139478D01*
X142401049Y-116100865D01*
X142388336Y-116058957D01*
X142383800Y-116012897D01*
X142383800Y-114263503D01*
X142388336Y-114217443D01*
X142401049Y-114175535D01*
X142421688Y-114136922D01*
X142449470Y-114103070D01*
X142483322Y-114075288D01*
X142521935Y-114054649D01*
X142563843Y-114041936D01*
X142609903Y-114037400D01*
X144359297Y-114037400D01*
X144405357Y-114041936D01*
G37*
G36*
X140798557Y-114041936D02*
G01*
X140840465Y-114054649D01*
X140879078Y-114075288D01*
X140912930Y-114103070D01*
X140940712Y-114136922D01*
X140961351Y-114175535D01*
X140974064Y-114217443D01*
X140978600Y-114263503D01*
X140978600Y-116012897D01*
X140974064Y-116058957D01*
X140961351Y-116100865D01*
X140940712Y-116139478D01*
X140912930Y-116173330D01*
X140879078Y-116201112D01*
X140840465Y-116221751D01*
X140798557Y-116234464D01*
X140752497Y-116239000D01*
X139003103Y-116239000D01*
X138957043Y-116234464D01*
X138915135Y-116221751D01*
X138876522Y-116201112D01*
X138842670Y-116173330D01*
X138814888Y-116139478D01*
X138794249Y-116100865D01*
X138781536Y-116058957D01*
X138777000Y-116012897D01*
X138777000Y-114263503D01*
X138781536Y-114217443D01*
X138794249Y-114175535D01*
X138814888Y-114136922D01*
X138842670Y-114103070D01*
X138876522Y-114075288D01*
X138915135Y-114054649D01*
X138957043Y-114041936D01*
X139003103Y-114037400D01*
X140752497Y-114037400D01*
X140798557Y-114041936D01*
G37*
G36*
X137191757Y-114041936D02*
G01*
X137233665Y-114054649D01*
X137272278Y-114075288D01*
X137306130Y-114103070D01*
X137333912Y-114136922D01*
X137354551Y-114175535D01*
X137367264Y-114217443D01*
X137371800Y-114263503D01*
X137371800Y-116012897D01*
X137367264Y-116058957D01*
X137354551Y-116100865D01*
X137333912Y-116139478D01*
X137306130Y-116173330D01*
X137272278Y-116201112D01*
X137233665Y-116221751D01*
X137191757Y-116234464D01*
X137145697Y-116239000D01*
X135396303Y-116239000D01*
X135350243Y-116234464D01*
X135308335Y-116221751D01*
X135269722Y-116201112D01*
X135235870Y-116173330D01*
X135208088Y-116139478D01*
X135187449Y-116100865D01*
X135174736Y-116058957D01*
X135170200Y-116012897D01*
X135170200Y-114263503D01*
X135174736Y-114217443D01*
X135187449Y-114175535D01*
X135208088Y-114136922D01*
X135235870Y-114103070D01*
X135269722Y-114075288D01*
X135308335Y-114054649D01*
X135350243Y-114041936D01*
X135396303Y-114037400D01*
X137145697Y-114037400D01*
X137191757Y-114041936D01*
G37*
G36*
X133584957Y-114041936D02*
G01*
X133626865Y-114054649D01*
X133665478Y-114075288D01*
X133699330Y-114103070D01*
X133727112Y-114136922D01*
X133747751Y-114175535D01*
X133760464Y-114217443D01*
X133765000Y-114263503D01*
X133765000Y-116012897D01*
X133760464Y-116058957D01*
X133747751Y-116100865D01*
X133727112Y-116139478D01*
X133699330Y-116173330D01*
X133665478Y-116201112D01*
X133626865Y-116221751D01*
X133584957Y-116234464D01*
X133538897Y-116239000D01*
X131789503Y-116239000D01*
X131743443Y-116234464D01*
X131701535Y-116221751D01*
X131662922Y-116201112D01*
X131629070Y-116173330D01*
X131601288Y-116139478D01*
X131580649Y-116100865D01*
X131567936Y-116058957D01*
X131563400Y-116012897D01*
X131563400Y-114263503D01*
X131567936Y-114217443D01*
X131580649Y-114175535D01*
X131601288Y-114136922D01*
X131629070Y-114103070D01*
X131662922Y-114075288D01*
X131701535Y-114054649D01*
X131743443Y-114041936D01*
X131789503Y-114037400D01*
X133538897Y-114037400D01*
X133584957Y-114041936D01*
G37*
G36*
X129978157Y-114041936D02*
G01*
X130020065Y-114054649D01*
X130058678Y-114075288D01*
X130092530Y-114103070D01*
X130120312Y-114136922D01*
X130140951Y-114175535D01*
X130153664Y-114217443D01*
X130158200Y-114263503D01*
X130158200Y-116012897D01*
X130153664Y-116058957D01*
X130140951Y-116100865D01*
X130120312Y-116139478D01*
X130092530Y-116173330D01*
X130058678Y-116201112D01*
X130020065Y-116221751D01*
X129978157Y-116234464D01*
X129932097Y-116239000D01*
X128182703Y-116239000D01*
X128136643Y-116234464D01*
X128094735Y-116221751D01*
X128056122Y-116201112D01*
X128022270Y-116173330D01*
X127994488Y-116139478D01*
X127973849Y-116100865D01*
X127961136Y-116058957D01*
X127956600Y-116012897D01*
X127956600Y-114263503D01*
X127961136Y-114217443D01*
X127973849Y-114175535D01*
X127994488Y-114136922D01*
X128022270Y-114103070D01*
X128056122Y-114075288D01*
X128094735Y-114054649D01*
X128136643Y-114041936D01*
X128182703Y-114037400D01*
X129932097Y-114037400D01*
X129978157Y-114041936D01*
G37*
G36*
X113518957Y-114041936D02*
G01*
X113560865Y-114054649D01*
X113599478Y-114075288D01*
X113633330Y-114103070D01*
X113661112Y-114136922D01*
X113681751Y-114175535D01*
X113694464Y-114217443D01*
X113699000Y-114263503D01*
X113699000Y-116012897D01*
X113694464Y-116058957D01*
X113681751Y-116100865D01*
X113661112Y-116139478D01*
X113633330Y-116173330D01*
X113599478Y-116201112D01*
X113560865Y-116221751D01*
X113518957Y-116234464D01*
X113472897Y-116239000D01*
X111723503Y-116239000D01*
X111677443Y-116234464D01*
X111635535Y-116221751D01*
X111596922Y-116201112D01*
X111563070Y-116173330D01*
X111535288Y-116139478D01*
X111514649Y-116100865D01*
X111501936Y-116058957D01*
X111497400Y-116012897D01*
X111497400Y-114263503D01*
X111501936Y-114217443D01*
X111514649Y-114175535D01*
X111535288Y-114136922D01*
X111563070Y-114103070D01*
X111596922Y-114075288D01*
X111635535Y-114054649D01*
X111677443Y-114041936D01*
X111723503Y-114037400D01*
X113472897Y-114037400D01*
X113518957Y-114041936D01*
G37*
G36*
X168795600Y-108927800D02*
G01*
X167094000Y-108927800D01*
X167094000Y-107226200D01*
X168795600Y-107226200D01*
X168795600Y-108927800D01*
G37*
G36*
X149720200Y-108927800D02*
G01*
X148018600Y-108927800D01*
X148018600Y-107226200D01*
X149720200Y-107226200D01*
X149720200Y-108927800D01*
G37*
G36*
X130695600Y-108927800D02*
G01*
X128994000Y-108927800D01*
X128994000Y-107226200D01*
X130695600Y-107226200D01*
X130695600Y-108927800D01*
G37*
G36*
X112915600Y-108902400D02*
G01*
X111214000Y-108902400D01*
X111214000Y-107200800D01*
X112915600Y-107200800D01*
X112915600Y-108902400D01*
G37*
G36*
X177679364Y-103431627D02*
G01*
X178066219Y-103508577D01*
X178438329Y-103662711D01*
X178773221Y-103886477D01*
X179058023Y-104171279D01*
X179281789Y-104506171D01*
X179435923Y-104878281D01*
X179514500Y-105273316D01*
X179514500Y-105676084D01*
X179435923Y-106071119D01*
X179281789Y-106443229D01*
X179058023Y-106778121D01*
X178773221Y-107062923D01*
X178438329Y-107286689D01*
X178066219Y-107440823D01*
X177802862Y-107493208D01*
X177671185Y-107519400D01*
X177268415Y-107519400D01*
X177136738Y-107493208D01*
X176873381Y-107440823D01*
X176501271Y-107286689D01*
X176166379Y-107062923D01*
X175881577Y-106778121D01*
X175657811Y-106443229D01*
X175503677Y-106071119D01*
X175425100Y-105676084D01*
X175425100Y-105273316D01*
X175503677Y-104878281D01*
X175657811Y-104506171D01*
X175881577Y-104171279D01*
X176166379Y-103886477D01*
X176501271Y-103662711D01*
X176873381Y-103508577D01*
X177260236Y-103431627D01*
X177268415Y-103430000D01*
X177671185Y-103430000D01*
X177679364Y-103431627D01*
G37*
G36*
X158629364Y-103431627D02*
G01*
X159016219Y-103508577D01*
X159388329Y-103662711D01*
X159723221Y-103886477D01*
X160008023Y-104171279D01*
X160231789Y-104506171D01*
X160385923Y-104878281D01*
X160464500Y-105273316D01*
X160464500Y-105676084D01*
X160385923Y-106071119D01*
X160231789Y-106443229D01*
X160008023Y-106778121D01*
X159723221Y-107062923D01*
X159388329Y-107286689D01*
X159016219Y-107440823D01*
X158752862Y-107493208D01*
X158621185Y-107519400D01*
X158218415Y-107519400D01*
X158086738Y-107493208D01*
X157823381Y-107440823D01*
X157451271Y-107286689D01*
X157116379Y-107062923D01*
X156831577Y-106778121D01*
X156607811Y-106443229D01*
X156453677Y-106071119D01*
X156375100Y-105676084D01*
X156375100Y-105273316D01*
X156453677Y-104878281D01*
X156607811Y-104506171D01*
X156831577Y-104171279D01*
X157116379Y-103886477D01*
X157451271Y-103662711D01*
X157823381Y-103508577D01*
X158210236Y-103431627D01*
X158218415Y-103430000D01*
X158621185Y-103430000D01*
X158629364Y-103431627D01*
G37*
G36*
X139579364Y-103431627D02*
G01*
X139966219Y-103508577D01*
X140338329Y-103662711D01*
X140673221Y-103886477D01*
X140958023Y-104171279D01*
X141181789Y-104506171D01*
X141335923Y-104878281D01*
X141414500Y-105273316D01*
X141414500Y-105676084D01*
X141335923Y-106071119D01*
X141181789Y-106443229D01*
X140958023Y-106778121D01*
X140673221Y-107062923D01*
X140338329Y-107286689D01*
X139966219Y-107440823D01*
X139702862Y-107493208D01*
X139571185Y-107519400D01*
X139168415Y-107519400D01*
X139036738Y-107493208D01*
X138773381Y-107440823D01*
X138401271Y-107286689D01*
X138066379Y-107062923D01*
X137781577Y-106778121D01*
X137557811Y-106443229D01*
X137403677Y-106071119D01*
X137325100Y-105676084D01*
X137325100Y-105273316D01*
X137403677Y-104878281D01*
X137557811Y-104506171D01*
X137781577Y-104171279D01*
X138066379Y-103886477D01*
X138401271Y-103662711D01*
X138773381Y-103508577D01*
X139160236Y-103431627D01*
X139168415Y-103430000D01*
X139571185Y-103430000D01*
X139579364Y-103431627D01*
G37*
G36*
X120529364Y-103431627D02*
G01*
X120916219Y-103508577D01*
X121288329Y-103662711D01*
X121623221Y-103886477D01*
X121908023Y-104171279D01*
X122131789Y-104506171D01*
X122285923Y-104878281D01*
X122364500Y-105273316D01*
X122364500Y-105676084D01*
X122285923Y-106071119D01*
X122131789Y-106443229D01*
X121908023Y-106778121D01*
X121623221Y-107062923D01*
X121288329Y-107286689D01*
X120916219Y-107440823D01*
X120652862Y-107493208D01*
X120521185Y-107519400D01*
X120118415Y-107519400D01*
X119986738Y-107493208D01*
X119723381Y-107440823D01*
X119351271Y-107286689D01*
X119016379Y-107062923D01*
X118731577Y-106778121D01*
X118507811Y-106443229D01*
X118353677Y-106071119D01*
X118275100Y-105676084D01*
X118275100Y-105273316D01*
X118353677Y-104878281D01*
X118507811Y-104506171D01*
X118731577Y-104171279D01*
X119016379Y-103886477D01*
X119351271Y-103662711D01*
X119723381Y-103508577D01*
X120110236Y-103431627D01*
X120118415Y-103430000D01*
X120521185Y-103430000D01*
X120529364Y-103431627D01*
G37*
G36*
X153609846Y-104584478D02*
G01*
X153778331Y-104654266D01*
X153929963Y-104755584D01*
X154058916Y-104884537D01*
X154160234Y-105036169D01*
X154230022Y-105204654D01*
X154265600Y-105383517D01*
X154265600Y-105565883D01*
X154230022Y-105744746D01*
X154160234Y-105913231D01*
X154058916Y-106064863D01*
X153929963Y-106193816D01*
X153778331Y-106295134D01*
X153609846Y-106364922D01*
X153430983Y-106400500D01*
X153248617Y-106400500D01*
X153069754Y-106364922D01*
X152901269Y-106295134D01*
X152749637Y-106193816D01*
X152620684Y-106064863D01*
X152519366Y-105913231D01*
X152449578Y-105744746D01*
X152414000Y-105565883D01*
X152414000Y-105383517D01*
X152449578Y-105204654D01*
X152519366Y-105036169D01*
X152620684Y-104884537D01*
X152749637Y-104755584D01*
X152901269Y-104654266D01*
X153069754Y-104584478D01*
X153248617Y-104548900D01*
X153430983Y-104548900D01*
X153609846Y-104584478D01*
G37*
G36*
X163769846Y-104584478D02*
G01*
X163938331Y-104654266D01*
X164089963Y-104755584D01*
X164218916Y-104884537D01*
X164320234Y-105036169D01*
X164390022Y-105204654D01*
X164425600Y-105383517D01*
X164425600Y-105565883D01*
X164390022Y-105744746D01*
X164320234Y-105913231D01*
X164218916Y-106064863D01*
X164089963Y-106193816D01*
X163938331Y-106295134D01*
X163769846Y-106364922D01*
X163590983Y-106400500D01*
X163408617Y-106400500D01*
X163229754Y-106364922D01*
X163061269Y-106295134D01*
X162909637Y-106193816D01*
X162780684Y-106064863D01*
X162679366Y-105913231D01*
X162609578Y-105744746D01*
X162574000Y-105565883D01*
X162574000Y-105383517D01*
X162609578Y-105204654D01*
X162679366Y-105036169D01*
X162780684Y-104884537D01*
X162909637Y-104755584D01*
X163061269Y-104654266D01*
X163229754Y-104584478D01*
X163408617Y-104548900D01*
X163590983Y-104548900D01*
X163769846Y-104584478D01*
G37*
G36*
X125669846Y-104584478D02*
G01*
X125838331Y-104654266D01*
X125989963Y-104755584D01*
X126118916Y-104884537D01*
X126220234Y-105036169D01*
X126290022Y-105204654D01*
X126325600Y-105383517D01*
X126325600Y-105565883D01*
X126290022Y-105744746D01*
X126220234Y-105913231D01*
X126118916Y-106064863D01*
X125989963Y-106193816D01*
X125838331Y-106295134D01*
X125669846Y-106364922D01*
X125490983Y-106400500D01*
X125308617Y-106400500D01*
X125129754Y-106364922D01*
X124961269Y-106295134D01*
X124809637Y-106193816D01*
X124680684Y-106064863D01*
X124579366Y-105913231D01*
X124509578Y-105744746D01*
X124474000Y-105565883D01*
X124474000Y-105383517D01*
X124509578Y-105204654D01*
X124579366Y-105036169D01*
X124680684Y-104884537D01*
X124809637Y-104755584D01*
X124961269Y-104654266D01*
X125129754Y-104584478D01*
X125308617Y-104548900D01*
X125490983Y-104548900D01*
X125669846Y-104584478D01*
G37*
G36*
X144719846Y-104584478D02*
G01*
X144888331Y-104654266D01*
X145039963Y-104755584D01*
X145168916Y-104884537D01*
X145270234Y-105036169D01*
X145340022Y-105204654D01*
X145375600Y-105383517D01*
X145375600Y-105565883D01*
X145340022Y-105744746D01*
X145270234Y-105913231D01*
X145168916Y-106064863D01*
X145039963Y-106193816D01*
X144888331Y-106295134D01*
X144719846Y-106364922D01*
X144540983Y-106400500D01*
X144358617Y-106400500D01*
X144179754Y-106364922D01*
X144011269Y-106295134D01*
X143859637Y-106193816D01*
X143730684Y-106064863D01*
X143629366Y-105913231D01*
X143559578Y-105744746D01*
X143524000Y-105565883D01*
X143524000Y-105383517D01*
X143559578Y-105204654D01*
X143629366Y-105036169D01*
X143730684Y-104884537D01*
X143859637Y-104755584D01*
X144011269Y-104654266D01*
X144179754Y-104584478D01*
X144358617Y-104548900D01*
X144540983Y-104548900D01*
X144719846Y-104584478D01*
G37*
G36*
X134559846Y-104584478D02*
G01*
X134728331Y-104654266D01*
X134879963Y-104755584D01*
X135008916Y-104884537D01*
X135110234Y-105036169D01*
X135180022Y-105204654D01*
X135215600Y-105383517D01*
X135215600Y-105565883D01*
X135180022Y-105744746D01*
X135110234Y-105913231D01*
X135008916Y-106064863D01*
X134879963Y-106193816D01*
X134728331Y-106295134D01*
X134559846Y-106364922D01*
X134380983Y-106400500D01*
X134198617Y-106400500D01*
X134019754Y-106364922D01*
X133851269Y-106295134D01*
X133699637Y-106193816D01*
X133570684Y-106064863D01*
X133469366Y-105913231D01*
X133399578Y-105744746D01*
X133364000Y-105565883D01*
X133364000Y-105383517D01*
X133399578Y-105204654D01*
X133469366Y-105036169D01*
X133570684Y-104884537D01*
X133699637Y-104755584D01*
X133851269Y-104654266D01*
X134019754Y-104584478D01*
X134198617Y-104548900D01*
X134380983Y-104548900D01*
X134559846Y-104584478D01*
G37*
G36*
X115509846Y-104584478D02*
G01*
X115678331Y-104654266D01*
X115829963Y-104755584D01*
X115958916Y-104884537D01*
X116060234Y-105036169D01*
X116130022Y-105204654D01*
X116165600Y-105383517D01*
X116165600Y-105565883D01*
X116130022Y-105744746D01*
X116060234Y-105913231D01*
X115958916Y-106064863D01*
X115829963Y-106193816D01*
X115678331Y-106295134D01*
X115509846Y-106364922D01*
X115330983Y-106400500D01*
X115148617Y-106400500D01*
X114969754Y-106364922D01*
X114801269Y-106295134D01*
X114649637Y-106193816D01*
X114520684Y-106064863D01*
X114419366Y-105913231D01*
X114349578Y-105744746D01*
X114314000Y-105565883D01*
X114314000Y-105383517D01*
X114349578Y-105204654D01*
X114419366Y-105036169D01*
X114520684Y-104884537D01*
X114649637Y-104755584D01*
X114801269Y-104654266D01*
X114969754Y-104584478D01*
X115148617Y-104548900D01*
X115330983Y-104548900D01*
X115509846Y-104584478D01*
G37*
G36*
X172659846Y-104584478D02*
G01*
X172828331Y-104654266D01*
X172979963Y-104755584D01*
X173108916Y-104884537D01*
X173210234Y-105036169D01*
X173280022Y-105204654D01*
X173315600Y-105383517D01*
X173315600Y-105565883D01*
X173280022Y-105744746D01*
X173210234Y-105913231D01*
X173108916Y-106064863D01*
X172979963Y-106193816D01*
X172828331Y-106295134D01*
X172659846Y-106364922D01*
X172480983Y-106400500D01*
X172298617Y-106400500D01*
X172119754Y-106364922D01*
X171951269Y-106295134D01*
X171799637Y-106193816D01*
X171670684Y-106064863D01*
X171569366Y-105913231D01*
X171499578Y-105744746D01*
X171464000Y-105565883D01*
X171464000Y-105383517D01*
X171499578Y-105204654D01*
X171569366Y-105036169D01*
X171670684Y-104884537D01*
X171799637Y-104755584D01*
X171951269Y-104654266D01*
X172119754Y-104584478D01*
X172298617Y-104548900D01*
X172480983Y-104548900D01*
X172659846Y-104584478D01*
G37*
G36*
X182819846Y-104584478D02*
G01*
X182988331Y-104654266D01*
X183139963Y-104755584D01*
X183268916Y-104884537D01*
X183370234Y-105036169D01*
X183440022Y-105204654D01*
X183475600Y-105383517D01*
X183475600Y-105565883D01*
X183440022Y-105744746D01*
X183370234Y-105913231D01*
X183268916Y-106064863D01*
X183139963Y-106193816D01*
X182988331Y-106295134D01*
X182819846Y-106364922D01*
X182640983Y-106400500D01*
X182458617Y-106400500D01*
X182279754Y-106364922D01*
X182111269Y-106295134D01*
X181959637Y-106193816D01*
X181830684Y-106064863D01*
X181729366Y-105913231D01*
X181659578Y-105744746D01*
X181624000Y-105565883D01*
X181624000Y-105383517D01*
X181659578Y-105204654D01*
X181729366Y-105036169D01*
X181830684Y-104884537D01*
X181959637Y-104755584D01*
X182111269Y-104654266D01*
X182279754Y-104584478D01*
X182458617Y-104548900D01*
X182640983Y-104548900D01*
X182819846Y-104584478D01*
G37*
G36*
X175135082Y-100297157D02*
G01*
X175359937Y-100352698D01*
X175569635Y-100451039D01*
X175756118Y-100588401D01*
X175912220Y-100759505D01*
X176031942Y-100957774D01*
X176110683Y-101175591D01*
X176145417Y-101404584D01*
X176134809Y-101635953D01*
X176079268Y-101860808D01*
X175980927Y-102070506D01*
X175877987Y-102210258D01*
X175246485Y-102911611D01*
X174489195Y-103752668D01*
X174448599Y-103789704D01*
X174360966Y-103869654D01*
X174162696Y-103989376D01*
X173944879Y-104068117D01*
X173715886Y-104102851D01*
X173484518Y-104092244D01*
X173259663Y-104036702D01*
X173049965Y-103938361D01*
X172863482Y-103800999D01*
X172707380Y-103629896D01*
X172587658Y-103431626D01*
X172508917Y-103213809D01*
X172474183Y-102984816D01*
X172484790Y-102753448D01*
X172540332Y-102528593D01*
X172638673Y-102318895D01*
X172741613Y-102179144D01*
X173488562Y-101349572D01*
X174130405Y-100636732D01*
X174130407Y-100636730D01*
X174258633Y-100519746D01*
X174425283Y-100419117D01*
X174456902Y-100400024D01*
X174587816Y-100352699D01*
X174674720Y-100321283D01*
X174903713Y-100286549D01*
X175135082Y-100297157D01*
G37*
G36*
X117985082Y-100297157D02*
G01*
X118209937Y-100352698D01*
X118419635Y-100451039D01*
X118606118Y-100588401D01*
X118762220Y-100759505D01*
X118881942Y-100957774D01*
X118960683Y-101175591D01*
X118995417Y-101404584D01*
X118984809Y-101635953D01*
X118929268Y-101860808D01*
X118830927Y-102070506D01*
X118727987Y-102210258D01*
X118096485Y-102911611D01*
X117339195Y-103752668D01*
X117298599Y-103789704D01*
X117210966Y-103869654D01*
X117012696Y-103989376D01*
X116794879Y-104068117D01*
X116565886Y-104102851D01*
X116334518Y-104092244D01*
X116109663Y-104036702D01*
X115899965Y-103938361D01*
X115713482Y-103800999D01*
X115557380Y-103629896D01*
X115437658Y-103431626D01*
X115358917Y-103213809D01*
X115324183Y-102984816D01*
X115334790Y-102753448D01*
X115390332Y-102528593D01*
X115488673Y-102318895D01*
X115591613Y-102179144D01*
X116338562Y-101349572D01*
X116980405Y-100636732D01*
X116980407Y-100636730D01*
X117108633Y-100519746D01*
X117275283Y-100419117D01*
X117306902Y-100400024D01*
X117437816Y-100352699D01*
X117524720Y-100321283D01*
X117753713Y-100286549D01*
X117985082Y-100297157D01*
G37*
G36*
X156085082Y-100297157D02*
G01*
X156309937Y-100352698D01*
X156519635Y-100451039D01*
X156706118Y-100588401D01*
X156862220Y-100759505D01*
X156981942Y-100957774D01*
X157060683Y-101175591D01*
X157095417Y-101404584D01*
X157084809Y-101635953D01*
X157029268Y-101860808D01*
X156930927Y-102070506D01*
X156827987Y-102210258D01*
X156196485Y-102911611D01*
X155439195Y-103752668D01*
X155398599Y-103789704D01*
X155310966Y-103869654D01*
X155112696Y-103989376D01*
X154894879Y-104068117D01*
X154665886Y-104102851D01*
X154434518Y-104092244D01*
X154209663Y-104036702D01*
X153999965Y-103938361D01*
X153813482Y-103800999D01*
X153657380Y-103629896D01*
X153537658Y-103431626D01*
X153458917Y-103213809D01*
X153424183Y-102984816D01*
X153434790Y-102753448D01*
X153490332Y-102528593D01*
X153588673Y-102318895D01*
X153691613Y-102179144D01*
X154438562Y-101349572D01*
X155080405Y-100636732D01*
X155080407Y-100636730D01*
X155208633Y-100519746D01*
X155375283Y-100419117D01*
X155406902Y-100400024D01*
X155537816Y-100352699D01*
X155624720Y-100321283D01*
X155853713Y-100286549D01*
X156085082Y-100297157D01*
G37*
G36*
X137035082Y-100297157D02*
G01*
X137259937Y-100352698D01*
X137469635Y-100451039D01*
X137656118Y-100588401D01*
X137812220Y-100759505D01*
X137931942Y-100957774D01*
X138010683Y-101175591D01*
X138045417Y-101404584D01*
X138034809Y-101635953D01*
X137979268Y-101860808D01*
X137880927Y-102070506D01*
X137777987Y-102210258D01*
X137146485Y-102911611D01*
X136389195Y-103752668D01*
X136348599Y-103789704D01*
X136260966Y-103869654D01*
X136062696Y-103989376D01*
X135844879Y-104068117D01*
X135615886Y-104102851D01*
X135384518Y-104092244D01*
X135159663Y-104036702D01*
X134949965Y-103938361D01*
X134763482Y-103800999D01*
X134607380Y-103629896D01*
X134487658Y-103431626D01*
X134408917Y-103213809D01*
X134374183Y-102984816D01*
X134384790Y-102753448D01*
X134440332Y-102528593D01*
X134538673Y-102318895D01*
X134641613Y-102179144D01*
X135388562Y-101349572D01*
X136030405Y-100636732D01*
X136030407Y-100636730D01*
X136158633Y-100519746D01*
X136325283Y-100419117D01*
X136356902Y-100400024D01*
X136487816Y-100352699D01*
X136574720Y-100321283D01*
X136803713Y-100286549D01*
X137035082Y-100297157D01*
G37*
G36*
X130092969Y-102178895D02*
G01*
X130247805Y-102243031D01*
X130387154Y-102336140D01*
X130505660Y-102454646D01*
X130598769Y-102593995D01*
X130662905Y-102748831D01*
X130695600Y-102913203D01*
X130695600Y-103080797D01*
X130662905Y-103245169D01*
X130598769Y-103400005D01*
X130505660Y-103539354D01*
X130387154Y-103657860D01*
X130247805Y-103750969D01*
X130092969Y-103815105D01*
X129928597Y-103847800D01*
X129761003Y-103847800D01*
X129596631Y-103815105D01*
X129441795Y-103750969D01*
X129302446Y-103657860D01*
X129183940Y-103539354D01*
X129090831Y-103400005D01*
X129026695Y-103245169D01*
X128994000Y-103080797D01*
X128994000Y-102913203D01*
X129026695Y-102748831D01*
X129090831Y-102593995D01*
X129183940Y-102454646D01*
X129302446Y-102336140D01*
X129441795Y-102243031D01*
X129596631Y-102178895D01*
X129761003Y-102146200D01*
X129928597Y-102146200D01*
X130092969Y-102178895D01*
G37*
G36*
X149117569Y-102178895D02*
G01*
X149272405Y-102243031D01*
X149411754Y-102336140D01*
X149530260Y-102454646D01*
X149623369Y-102593995D01*
X149687505Y-102748831D01*
X149720200Y-102913203D01*
X149720200Y-103080797D01*
X149687505Y-103245169D01*
X149623369Y-103400005D01*
X149530260Y-103539354D01*
X149411754Y-103657860D01*
X149272405Y-103750969D01*
X149117569Y-103815105D01*
X148953197Y-103847800D01*
X148785603Y-103847800D01*
X148621231Y-103815105D01*
X148466395Y-103750969D01*
X148327046Y-103657860D01*
X148208540Y-103539354D01*
X148115431Y-103400005D01*
X148051295Y-103245169D01*
X148018600Y-103080797D01*
X148018600Y-102913203D01*
X148051295Y-102748831D01*
X148115431Y-102593995D01*
X148208540Y-102454646D01*
X148327046Y-102336140D01*
X148466395Y-102243031D01*
X148621231Y-102178895D01*
X148785603Y-102146200D01*
X148953197Y-102146200D01*
X149117569Y-102178895D01*
G37*
G36*
X168192969Y-102178895D02*
G01*
X168347805Y-102243031D01*
X168487154Y-102336140D01*
X168605660Y-102454646D01*
X168698769Y-102593995D01*
X168762905Y-102748831D01*
X168795600Y-102913203D01*
X168795600Y-103080797D01*
X168762905Y-103245169D01*
X168698769Y-103400005D01*
X168605660Y-103539354D01*
X168487154Y-103657860D01*
X168347805Y-103750969D01*
X168192969Y-103815105D01*
X168028597Y-103847800D01*
X167861003Y-103847800D01*
X167696631Y-103815105D01*
X167541795Y-103750969D01*
X167402446Y-103657860D01*
X167283940Y-103539354D01*
X167190831Y-103400005D01*
X167126695Y-103245169D01*
X167094000Y-103080797D01*
X167094000Y-102913203D01*
X167126695Y-102748831D01*
X167190831Y-102593995D01*
X167283940Y-102454646D01*
X167402446Y-102336140D01*
X167541795Y-102243031D01*
X167696631Y-102178895D01*
X167861003Y-102146200D01*
X168028597Y-102146200D01*
X168192969Y-102178895D01*
G37*
G36*
X112312969Y-102153495D02*
G01*
X112467805Y-102217631D01*
X112607154Y-102310740D01*
X112725660Y-102429246D01*
X112818769Y-102568595D01*
X112882905Y-102723431D01*
X112915600Y-102887803D01*
X112915600Y-103055397D01*
X112882905Y-103219769D01*
X112818769Y-103374605D01*
X112725660Y-103513954D01*
X112607154Y-103632460D01*
X112467805Y-103725569D01*
X112312969Y-103789705D01*
X112148597Y-103822400D01*
X111981003Y-103822400D01*
X111816631Y-103789705D01*
X111661795Y-103725569D01*
X111522446Y-103632460D01*
X111403940Y-103513954D01*
X111310831Y-103374605D01*
X111246695Y-103219769D01*
X111214000Y-103055397D01*
X111214000Y-102887803D01*
X111246695Y-102723431D01*
X111310831Y-102568595D01*
X111403940Y-102429246D01*
X111522446Y-102310740D01*
X111661795Y-102217631D01*
X111816631Y-102153495D01*
X111981003Y-102120800D01*
X112148597Y-102120800D01*
X112312969Y-102153495D01*
G37*
G36*
X180320845Y-99254833D02*
G01*
X180498760Y-99322684D01*
X180537252Y-99337363D01*
X180733403Y-99460528D01*
X180901756Y-99619592D01*
X181035843Y-99808444D01*
X181062311Y-99867545D01*
X181130511Y-100019828D01*
X181182119Y-100245612D01*
X181182119Y-100245615D01*
X181187042Y-100419117D01*
X181138429Y-101114319D01*
X181109409Y-101285447D01*
X181026879Y-101501856D01*
X180903714Y-101698007D01*
X180744651Y-101866361D01*
X180555798Y-102000447D01*
X180399363Y-102070506D01*
X180344414Y-102095115D01*
X180118630Y-102146723D01*
X180101789Y-102147201D01*
X179887109Y-102153292D01*
X179752021Y-102130383D01*
X179658755Y-102114567D01*
X179514484Y-102059547D01*
X179442348Y-102032037D01*
X179246197Y-101908872D01*
X179077843Y-101749809D01*
X178943757Y-101560956D01*
X178849090Y-101349574D01*
X178849089Y-101349572D01*
X178797481Y-101123788D01*
X178797147Y-101112023D01*
X178792558Y-100950284D01*
X178841171Y-100255081D01*
X178870191Y-100083953D01*
X178952721Y-99867544D01*
X179075886Y-99671393D01*
X179234949Y-99503040D01*
X179423802Y-99368953D01*
X179635184Y-99274286D01*
X179635186Y-99274286D01*
X179635187Y-99274285D01*
X179860969Y-99222678D01*
X179860973Y-99222677D01*
X180092491Y-99216109D01*
X180092494Y-99216109D01*
X180320845Y-99254833D01*
G37*
G36*
X123170845Y-99254833D02*
G01*
X123348760Y-99322684D01*
X123387252Y-99337363D01*
X123583403Y-99460528D01*
X123751756Y-99619592D01*
X123885843Y-99808444D01*
X123912311Y-99867545D01*
X123980511Y-100019828D01*
X124032119Y-100245612D01*
X124032119Y-100245615D01*
X124037042Y-100419117D01*
X123988429Y-101114319D01*
X123959409Y-101285447D01*
X123876879Y-101501856D01*
X123753714Y-101698007D01*
X123594651Y-101866361D01*
X123405798Y-102000447D01*
X123249363Y-102070506D01*
X123194414Y-102095115D01*
X122968630Y-102146723D01*
X122951789Y-102147201D01*
X122737109Y-102153292D01*
X122602021Y-102130383D01*
X122508755Y-102114567D01*
X122364484Y-102059547D01*
X122292348Y-102032037D01*
X122096197Y-101908872D01*
X121927843Y-101749809D01*
X121793757Y-101560956D01*
X121699090Y-101349574D01*
X121699089Y-101349572D01*
X121647481Y-101123788D01*
X121647147Y-101112023D01*
X121642558Y-100950284D01*
X121691171Y-100255081D01*
X121720191Y-100083953D01*
X121802721Y-99867544D01*
X121925886Y-99671393D01*
X122084949Y-99503040D01*
X122273802Y-99368953D01*
X122485184Y-99274286D01*
X122485186Y-99274286D01*
X122485187Y-99274285D01*
X122710969Y-99222678D01*
X122710973Y-99222677D01*
X122942491Y-99216109D01*
X122942494Y-99216109D01*
X123170845Y-99254833D01*
G37*
G36*
X161270845Y-99254833D02*
G01*
X161448760Y-99322684D01*
X161487252Y-99337363D01*
X161683403Y-99460528D01*
X161851756Y-99619592D01*
X161985843Y-99808444D01*
X162012311Y-99867545D01*
X162080511Y-100019828D01*
X162132119Y-100245612D01*
X162132119Y-100245615D01*
X162137042Y-100419117D01*
X162088429Y-101114319D01*
X162059409Y-101285447D01*
X161976879Y-101501856D01*
X161853714Y-101698007D01*
X161694651Y-101866361D01*
X161505798Y-102000447D01*
X161349363Y-102070506D01*
X161294414Y-102095115D01*
X161068630Y-102146723D01*
X161051789Y-102147201D01*
X160837109Y-102153292D01*
X160702021Y-102130383D01*
X160608755Y-102114567D01*
X160464484Y-102059547D01*
X160392348Y-102032037D01*
X160196197Y-101908872D01*
X160027843Y-101749809D01*
X159893757Y-101560956D01*
X159799090Y-101349574D01*
X159799089Y-101349572D01*
X159747481Y-101123788D01*
X159747147Y-101112023D01*
X159742558Y-100950284D01*
X159791171Y-100255081D01*
X159820191Y-100083953D01*
X159902721Y-99867544D01*
X160025886Y-99671393D01*
X160184949Y-99503040D01*
X160373802Y-99368953D01*
X160585184Y-99274286D01*
X160585186Y-99274286D01*
X160585187Y-99274285D01*
X160810969Y-99222678D01*
X160810973Y-99222677D01*
X161042491Y-99216109D01*
X161042494Y-99216109D01*
X161270845Y-99254833D01*
G37*
G36*
X142220845Y-99254833D02*
G01*
X142398760Y-99322684D01*
X142437252Y-99337363D01*
X142633403Y-99460528D01*
X142801756Y-99619592D01*
X142935843Y-99808444D01*
X142962311Y-99867545D01*
X143030511Y-100019828D01*
X143082119Y-100245612D01*
X143082119Y-100245615D01*
X143087042Y-100419117D01*
X143038429Y-101114319D01*
X143009409Y-101285447D01*
X142926879Y-101501856D01*
X142803714Y-101698007D01*
X142644651Y-101866361D01*
X142455798Y-102000447D01*
X142299363Y-102070506D01*
X142244414Y-102095115D01*
X142018630Y-102146723D01*
X142001789Y-102147201D01*
X141787109Y-102153292D01*
X141652021Y-102130383D01*
X141558755Y-102114567D01*
X141414484Y-102059547D01*
X141342348Y-102032037D01*
X141146197Y-101908872D01*
X140977843Y-101749809D01*
X140843757Y-101560956D01*
X140749090Y-101349574D01*
X140749089Y-101349572D01*
X140697481Y-101123788D01*
X140697147Y-101112023D01*
X140692558Y-100950284D01*
X140741171Y-100255081D01*
X140770191Y-100083953D01*
X140852721Y-99867544D01*
X140975886Y-99671393D01*
X141134949Y-99503040D01*
X141323802Y-99368953D01*
X141535184Y-99274286D01*
X141535186Y-99274286D01*
X141535187Y-99274285D01*
X141760969Y-99222678D01*
X141760973Y-99222677D01*
X141992491Y-99216109D01*
X141992494Y-99216109D01*
X142220845Y-99254833D01*
G37*
G36*
X168865557Y-96465136D02*
G01*
X168907465Y-96477849D01*
X168946078Y-96498488D01*
X168979930Y-96526270D01*
X169007712Y-96560122D01*
X169028351Y-96598735D01*
X169041064Y-96640643D01*
X169045600Y-96686703D01*
X169045600Y-98436097D01*
X169041064Y-98482157D01*
X169028351Y-98524065D01*
X169007712Y-98562678D01*
X168979930Y-98596530D01*
X168946078Y-98624312D01*
X168907465Y-98644951D01*
X168865557Y-98657664D01*
X168819497Y-98662200D01*
X167070103Y-98662200D01*
X167024043Y-98657664D01*
X166982135Y-98644951D01*
X166943522Y-98624312D01*
X166909670Y-98596530D01*
X166881888Y-98562678D01*
X166861249Y-98524065D01*
X166848536Y-98482157D01*
X166844000Y-98436097D01*
X166844000Y-96686703D01*
X166848536Y-96640643D01*
X166861249Y-96598735D01*
X166881888Y-96560122D01*
X166909670Y-96526270D01*
X166943522Y-96498488D01*
X166982135Y-96477849D01*
X167024043Y-96465136D01*
X167070103Y-96460600D01*
X168819497Y-96460600D01*
X168865557Y-96465136D01*
G37*
G36*
X149815557Y-96465136D02*
G01*
X149857465Y-96477849D01*
X149896078Y-96498488D01*
X149929930Y-96526270D01*
X149957712Y-96560122D01*
X149978351Y-96598735D01*
X149991064Y-96640643D01*
X149995600Y-96686703D01*
X149995600Y-98436097D01*
X149991064Y-98482157D01*
X149978351Y-98524065D01*
X149957712Y-98562678D01*
X149929930Y-98596530D01*
X149896078Y-98624312D01*
X149857465Y-98644951D01*
X149815557Y-98657664D01*
X149769497Y-98662200D01*
X148020103Y-98662200D01*
X147974043Y-98657664D01*
X147932135Y-98644951D01*
X147893522Y-98624312D01*
X147859670Y-98596530D01*
X147831888Y-98562678D01*
X147811249Y-98524065D01*
X147798536Y-98482157D01*
X147794000Y-98436097D01*
X147794000Y-96686703D01*
X147798536Y-96640643D01*
X147811249Y-96598735D01*
X147831888Y-96560122D01*
X147859670Y-96526270D01*
X147893522Y-96498488D01*
X147932135Y-96477849D01*
X147974043Y-96465136D01*
X148020103Y-96460600D01*
X149769497Y-96460600D01*
X149815557Y-96465136D01*
G37*
G36*
X130765557Y-96465136D02*
G01*
X130807465Y-96477849D01*
X130846078Y-96498488D01*
X130879930Y-96526270D01*
X130907712Y-96560122D01*
X130928351Y-96598735D01*
X130941064Y-96640643D01*
X130945600Y-96686703D01*
X130945600Y-98436097D01*
X130941064Y-98482157D01*
X130928351Y-98524065D01*
X130907712Y-98562678D01*
X130879930Y-98596530D01*
X130846078Y-98624312D01*
X130807465Y-98644951D01*
X130765557Y-98657664D01*
X130719497Y-98662200D01*
X128970103Y-98662200D01*
X128924043Y-98657664D01*
X128882135Y-98644951D01*
X128843522Y-98624312D01*
X128809670Y-98596530D01*
X128781888Y-98562678D01*
X128761249Y-98524065D01*
X128748536Y-98482157D01*
X128744000Y-98436097D01*
X128744000Y-96686703D01*
X128748536Y-96640643D01*
X128761249Y-96598735D01*
X128781888Y-96560122D01*
X128809670Y-96526270D01*
X128843522Y-96498488D01*
X128882135Y-96477849D01*
X128924043Y-96465136D01*
X128970103Y-96460600D01*
X130719497Y-96460600D01*
X130765557Y-96465136D01*
G37*
G36*
X162350166Y-87689181D02*
G01*
X162485509Y-87716102D01*
X162676741Y-87795313D01*
X162848846Y-87910310D01*
X162995210Y-88056674D01*
X163110207Y-88228779D01*
X163189418Y-88420011D01*
X163229800Y-88623026D01*
X163229800Y-88830014D01*
X163189418Y-89033029D01*
X163110207Y-89224261D01*
X162995210Y-89396366D01*
X162848846Y-89542730D01*
X162676741Y-89657727D01*
X162485509Y-89736938D01*
X162350166Y-89763859D01*
X162282495Y-89777320D01*
X162075505Y-89777320D01*
X162007834Y-89763859D01*
X161872491Y-89736938D01*
X161681259Y-89657727D01*
X161509154Y-89542730D01*
X161362790Y-89396366D01*
X161247793Y-89224261D01*
X161168582Y-89033029D01*
X161128200Y-88830014D01*
X161128200Y-88623026D01*
X161168582Y-88420011D01*
X161247793Y-88228779D01*
X161362790Y-88056674D01*
X161509154Y-87910310D01*
X161681259Y-87795313D01*
X161872491Y-87716102D01*
X162007834Y-87689181D01*
X162075505Y-87675720D01*
X162282495Y-87675720D01*
X162350166Y-87689181D01*
G37*
G36*
X157252768Y-87675720D02*
G01*
X157405509Y-87706102D01*
X157596741Y-87785313D01*
X157768846Y-87900310D01*
X157915210Y-88046674D01*
X158030207Y-88218779D01*
X158109418Y-88410011D01*
X158149800Y-88613026D01*
X158149800Y-88820014D01*
X158109418Y-89023029D01*
X158030207Y-89214261D01*
X157915210Y-89386366D01*
X157768846Y-89532730D01*
X157596741Y-89647727D01*
X157405509Y-89726938D01*
X157270166Y-89753859D01*
X157202495Y-89767320D01*
X156995505Y-89767320D01*
X156927834Y-89753859D01*
X156792491Y-89726938D01*
X156601259Y-89647727D01*
X156429154Y-89532730D01*
X156282790Y-89386366D01*
X156167793Y-89214261D01*
X156088582Y-89023029D01*
X156048200Y-88820014D01*
X156048200Y-88613026D01*
X156088582Y-88410011D01*
X156167793Y-88218779D01*
X156282790Y-88046674D01*
X156429154Y-87900310D01*
X156601259Y-87785313D01*
X156792491Y-87706102D01*
X156945232Y-87675720D01*
X156995505Y-87665720D01*
X157202495Y-87665720D01*
X157252768Y-87675720D01*
G37*
G36*
X175529800Y-87814833D02*
G01*
X175666437Y-87871429D01*
X175789407Y-87953595D01*
X175893985Y-88058173D01*
X175976151Y-88181143D01*
X176032747Y-88317780D01*
X176061600Y-88462833D01*
X176061600Y-88610727D01*
X176032747Y-88755780D01*
X175976151Y-88892417D01*
X175893985Y-89015387D01*
X175789407Y-89119965D01*
X175666437Y-89202131D01*
X175529800Y-89258727D01*
X175384747Y-89287580D01*
X175236853Y-89287580D01*
X175091800Y-89258727D01*
X174955163Y-89202131D01*
X174832193Y-89119965D01*
X174727615Y-89015387D01*
X174645449Y-88892417D01*
X174588853Y-88755780D01*
X174560000Y-88610727D01*
X174560000Y-88462833D01*
X174588853Y-88317780D01*
X174645449Y-88181143D01*
X174727615Y-88058173D01*
X174832193Y-87953595D01*
X174955163Y-87871429D01*
X175091800Y-87814833D01*
X175236853Y-87785980D01*
X175384747Y-87785980D01*
X175529800Y-87814833D01*
G37*
G36*
X133077469Y-87167495D02*
G01*
X133232305Y-87231631D01*
X133371654Y-87324740D01*
X133490160Y-87443246D01*
X133583269Y-87582595D01*
X133647405Y-87737431D01*
X133680100Y-87901803D01*
X133680100Y-88069397D01*
X133647405Y-88233769D01*
X133583269Y-88388605D01*
X133490160Y-88527954D01*
X133371654Y-88646460D01*
X133232305Y-88739569D01*
X133077469Y-88803705D01*
X132913097Y-88836400D01*
X132745503Y-88836400D01*
X132581131Y-88803705D01*
X132426295Y-88739569D01*
X132286946Y-88646460D01*
X132168440Y-88527954D01*
X132075331Y-88388605D01*
X132011195Y-88233769D01*
X131978500Y-88069397D01*
X131978500Y-87901803D01*
X132011195Y-87737431D01*
X132075331Y-87582595D01*
X132168440Y-87443246D01*
X132286946Y-87324740D01*
X132426295Y-87231631D01*
X132581131Y-87167495D01*
X132745503Y-87134800D01*
X132913097Y-87134800D01*
X133077469Y-87167495D01*
G37*
G36*
X130577469Y-87167495D02*
G01*
X130732305Y-87231631D01*
X130871654Y-87324740D01*
X130990160Y-87443246D01*
X131083269Y-87582595D01*
X131147405Y-87737431D01*
X131180100Y-87901803D01*
X131180100Y-88069397D01*
X131147405Y-88233769D01*
X131083269Y-88388605D01*
X130990160Y-88527954D01*
X130871654Y-88646460D01*
X130732305Y-88739569D01*
X130577469Y-88803705D01*
X130413097Y-88836400D01*
X130245503Y-88836400D01*
X130081131Y-88803705D01*
X129926295Y-88739569D01*
X129786946Y-88646460D01*
X129668440Y-88527954D01*
X129575331Y-88388605D01*
X129511195Y-88233769D01*
X129478500Y-88069397D01*
X129478500Y-87901803D01*
X129511195Y-87737431D01*
X129575331Y-87582595D01*
X129668440Y-87443246D01*
X129786946Y-87324740D01*
X129926295Y-87231631D01*
X130081131Y-87167495D01*
X130245503Y-87134800D01*
X130413097Y-87134800D01*
X130577469Y-87167495D01*
G37*
G36*
X113522255Y-86341542D02*
G01*
X113670478Y-86371025D01*
X113879909Y-86457774D01*
X114068393Y-86583715D01*
X114228685Y-86744007D01*
X114354626Y-86932491D01*
X114441375Y-87141922D01*
X114446462Y-87167496D01*
X114485600Y-87364256D01*
X114485600Y-87590944D01*
X114476846Y-87634951D01*
X114441375Y-87813278D01*
X114354626Y-88022709D01*
X114228685Y-88211193D01*
X114068393Y-88371485D01*
X113879909Y-88497426D01*
X113670478Y-88584175D01*
X113525439Y-88613025D01*
X113448144Y-88628400D01*
X113221456Y-88628400D01*
X113144161Y-88613025D01*
X112999122Y-88584175D01*
X112789691Y-88497426D01*
X112601207Y-88371485D01*
X112440915Y-88211193D01*
X112314974Y-88022709D01*
X112228225Y-87813278D01*
X112192754Y-87634951D01*
X112184000Y-87590944D01*
X112184000Y-87364256D01*
X112223138Y-87167496D01*
X112228225Y-87141922D01*
X112314974Y-86932491D01*
X112440915Y-86744007D01*
X112601207Y-86583715D01*
X112789691Y-86457774D01*
X112999122Y-86371025D01*
X113147345Y-86341542D01*
X113221456Y-86326800D01*
X113448144Y-86326800D01*
X113522255Y-86341542D01*
G37*
G36*
X184642255Y-86341542D02*
G01*
X184790478Y-86371025D01*
X184999909Y-86457774D01*
X185188393Y-86583715D01*
X185348685Y-86744007D01*
X185474626Y-86932491D01*
X185561375Y-87141922D01*
X185566462Y-87167496D01*
X185605600Y-87364256D01*
X185605600Y-87590944D01*
X185596846Y-87634951D01*
X185561375Y-87813278D01*
X185474626Y-88022709D01*
X185348685Y-88211193D01*
X185188393Y-88371485D01*
X184999909Y-88497426D01*
X184790478Y-88584175D01*
X184645439Y-88613025D01*
X184568144Y-88628400D01*
X184341456Y-88628400D01*
X184264161Y-88613025D01*
X184119122Y-88584175D01*
X183909691Y-88497426D01*
X183721207Y-88371485D01*
X183560915Y-88211193D01*
X183434974Y-88022709D01*
X183348225Y-87813278D01*
X183312754Y-87634951D01*
X183304000Y-87590944D01*
X183304000Y-87364256D01*
X183343138Y-87167496D01*
X183348225Y-87141922D01*
X183434974Y-86932491D01*
X183560915Y-86744007D01*
X183721207Y-86583715D01*
X183909691Y-86457774D01*
X184119122Y-86371025D01*
X184267345Y-86341542D01*
X184341456Y-86326800D01*
X184568144Y-86326800D01*
X184642255Y-86341542D01*
G37*
G36*
X173116800Y-87009653D02*
G01*
X173253437Y-87066249D01*
X173376407Y-87148415D01*
X173480985Y-87252993D01*
X173563151Y-87375963D01*
X173619747Y-87512600D01*
X173648600Y-87657653D01*
X173648600Y-87805547D01*
X173619747Y-87950600D01*
X173563151Y-88087237D01*
X173480985Y-88210207D01*
X173376407Y-88314785D01*
X173253437Y-88396951D01*
X173116800Y-88453547D01*
X172971747Y-88482400D01*
X172823853Y-88482400D01*
X172678800Y-88453547D01*
X172542163Y-88396951D01*
X172419193Y-88314785D01*
X172314615Y-88210207D01*
X172232449Y-88087237D01*
X172175853Y-87950600D01*
X172147000Y-87805547D01*
X172147000Y-87657653D01*
X172175853Y-87512600D01*
X172232449Y-87375963D01*
X172314615Y-87252993D01*
X172419193Y-87148415D01*
X172542163Y-87066249D01*
X172678800Y-87009653D01*
X172823853Y-86980800D01*
X172971747Y-86980800D01*
X173116800Y-87009653D01*
G37*
G36*
X170703800Y-86247653D02*
G01*
X170840437Y-86304249D01*
X170963407Y-86386415D01*
X171067985Y-86490993D01*
X171150151Y-86613963D01*
X171206747Y-86750600D01*
X171235600Y-86895653D01*
X171235600Y-87043547D01*
X171206747Y-87188600D01*
X171150151Y-87325237D01*
X171067985Y-87448207D01*
X170963407Y-87552785D01*
X170840437Y-87634951D01*
X170703800Y-87691547D01*
X170558747Y-87720400D01*
X170410853Y-87720400D01*
X170265800Y-87691547D01*
X170129163Y-87634951D01*
X170006193Y-87552785D01*
X169901615Y-87448207D01*
X169819449Y-87325237D01*
X169762853Y-87188600D01*
X169734000Y-87043547D01*
X169734000Y-86895653D01*
X169762853Y-86750600D01*
X169819449Y-86613963D01*
X169901615Y-86490993D01*
X170006193Y-86386415D01*
X170129163Y-86304249D01*
X170265800Y-86247653D01*
X170410853Y-86218800D01*
X170558747Y-86218800D01*
X170703800Y-86247653D01*
G37*
G36*
X168290800Y-85485653D02*
G01*
X168427437Y-85542249D01*
X168550407Y-85624415D01*
X168654985Y-85728993D01*
X168737151Y-85851963D01*
X168793747Y-85988600D01*
X168822600Y-86133653D01*
X168822600Y-86281547D01*
X168793747Y-86426600D01*
X168737151Y-86563237D01*
X168654985Y-86686207D01*
X168550407Y-86790785D01*
X168427437Y-86872951D01*
X168290800Y-86929547D01*
X168145747Y-86958400D01*
X167997853Y-86958400D01*
X167852800Y-86929547D01*
X167716163Y-86872951D01*
X167593193Y-86790785D01*
X167488615Y-86686207D01*
X167406449Y-86563237D01*
X167349853Y-86426600D01*
X167321000Y-86281547D01*
X167321000Y-86133653D01*
X167349853Y-85988600D01*
X167406449Y-85851963D01*
X167488615Y-85728993D01*
X167593193Y-85624415D01*
X167716163Y-85542249D01*
X167852800Y-85485653D01*
X167997853Y-85456800D01*
X168145747Y-85456800D01*
X168290800Y-85485653D01*
G37*
G36*
X125520969Y-84119495D02*
G01*
X125675805Y-84183631D01*
X125815154Y-84276740D01*
X125933660Y-84395246D01*
X126026769Y-84534595D01*
X126090905Y-84689431D01*
X126123600Y-84853803D01*
X126123600Y-85021397D01*
X126090905Y-85185769D01*
X126026769Y-85340605D01*
X125933660Y-85479954D01*
X125815154Y-85598460D01*
X125675805Y-85691569D01*
X125520969Y-85755705D01*
X125356597Y-85788400D01*
X125189003Y-85788400D01*
X125024631Y-85755705D01*
X124869795Y-85691569D01*
X124730446Y-85598460D01*
X124611940Y-85479954D01*
X124518831Y-85340605D01*
X124454695Y-85185769D01*
X124422000Y-85021397D01*
X124422000Y-84853803D01*
X124454695Y-84689431D01*
X124518831Y-84534595D01*
X124611940Y-84395246D01*
X124730446Y-84276740D01*
X124869795Y-84183631D01*
X125024631Y-84119495D01*
X125189003Y-84086800D01*
X125356597Y-84086800D01*
X125520969Y-84119495D01*
G37*
G36*
X128060969Y-84119495D02*
G01*
X128215805Y-84183631D01*
X128355154Y-84276740D01*
X128473660Y-84395246D01*
X128566769Y-84534595D01*
X128630905Y-84689431D01*
X128663600Y-84853803D01*
X128663600Y-85021397D01*
X128630905Y-85185769D01*
X128566769Y-85340605D01*
X128473660Y-85479954D01*
X128355154Y-85598460D01*
X128215805Y-85691569D01*
X128060969Y-85755705D01*
X127896597Y-85788400D01*
X127729003Y-85788400D01*
X127564631Y-85755705D01*
X127409795Y-85691569D01*
X127270446Y-85598460D01*
X127151940Y-85479954D01*
X127058831Y-85340605D01*
X126994695Y-85185769D01*
X126962000Y-85021397D01*
X126962000Y-84853803D01*
X126994695Y-84689431D01*
X127058831Y-84534595D01*
X127151940Y-84395246D01*
X127270446Y-84276740D01*
X127409795Y-84183631D01*
X127564631Y-84119495D01*
X127729003Y-84086800D01*
X127896597Y-84086800D01*
X128060969Y-84119495D01*
G37*
G36*
X130600969Y-84119495D02*
G01*
X130755805Y-84183631D01*
X130895154Y-84276740D01*
X131013660Y-84395246D01*
X131106769Y-84534595D01*
X131170905Y-84689431D01*
X131203600Y-84853803D01*
X131203600Y-85021397D01*
X131170905Y-85185769D01*
X131106769Y-85340605D01*
X131013660Y-85479954D01*
X130895154Y-85598460D01*
X130755805Y-85691569D01*
X130600969Y-85755705D01*
X130436597Y-85788400D01*
X130269003Y-85788400D01*
X130104631Y-85755705D01*
X129949795Y-85691569D01*
X129810446Y-85598460D01*
X129691940Y-85479954D01*
X129598831Y-85340605D01*
X129534695Y-85185769D01*
X129502000Y-85021397D01*
X129502000Y-84853803D01*
X129534695Y-84689431D01*
X129598831Y-84534595D01*
X129691940Y-84395246D01*
X129810446Y-84276740D01*
X129949795Y-84183631D01*
X130104631Y-84119495D01*
X130269003Y-84086800D01*
X130436597Y-84086800D01*
X130600969Y-84119495D01*
G37*
G36*
X133140969Y-84119495D02*
G01*
X133295805Y-84183631D01*
X133435154Y-84276740D01*
X133553660Y-84395246D01*
X133646769Y-84534595D01*
X133710905Y-84689431D01*
X133743600Y-84853803D01*
X133743600Y-85021397D01*
X133710905Y-85185769D01*
X133646769Y-85340605D01*
X133553660Y-85479954D01*
X133435154Y-85598460D01*
X133295805Y-85691569D01*
X133140969Y-85755705D01*
X132976597Y-85788400D01*
X132809003Y-85788400D01*
X132644631Y-85755705D01*
X132489795Y-85691569D01*
X132350446Y-85598460D01*
X132231940Y-85479954D01*
X132138831Y-85340605D01*
X132074695Y-85185769D01*
X132042000Y-85021397D01*
X132042000Y-84853803D01*
X132074695Y-84689431D01*
X132138831Y-84534595D01*
X132231940Y-84395246D01*
X132350446Y-84276740D01*
X132489795Y-84183631D01*
X132644631Y-84119495D01*
X132809003Y-84086800D01*
X132976597Y-84086800D01*
X133140969Y-84119495D01*
G37*
G36*
X122980969Y-84119495D02*
G01*
X123135805Y-84183631D01*
X123275154Y-84276740D01*
X123393660Y-84395246D01*
X123486769Y-84534595D01*
X123550905Y-84689431D01*
X123583600Y-84853803D01*
X123583600Y-85021397D01*
X123550905Y-85185769D01*
X123486769Y-85340605D01*
X123393660Y-85479954D01*
X123275154Y-85598460D01*
X123135805Y-85691569D01*
X122980969Y-85755705D01*
X122816597Y-85788400D01*
X122649003Y-85788400D01*
X122484631Y-85755705D01*
X122329795Y-85691569D01*
X122190446Y-85598460D01*
X122071940Y-85479954D01*
X121978831Y-85340605D01*
X121914695Y-85185769D01*
X121882000Y-85021397D01*
X121882000Y-84853803D01*
X121914695Y-84689431D01*
X121978831Y-84534595D01*
X122071940Y-84395246D01*
X122190446Y-84276740D01*
X122329795Y-84183631D01*
X122484631Y-84119495D01*
X122649003Y-84086800D01*
X122816597Y-84086800D01*
X122980969Y-84119495D01*
G37*
G36*
X120440969Y-84119495D02*
G01*
X120595805Y-84183631D01*
X120735154Y-84276740D01*
X120853660Y-84395246D01*
X120946769Y-84534595D01*
X121010905Y-84689431D01*
X121043600Y-84853803D01*
X121043600Y-85021397D01*
X121010905Y-85185769D01*
X120946769Y-85340605D01*
X120853660Y-85479954D01*
X120735154Y-85598460D01*
X120595805Y-85691569D01*
X120440969Y-85755705D01*
X120276597Y-85788400D01*
X120109003Y-85788400D01*
X119944631Y-85755705D01*
X119789795Y-85691569D01*
X119650446Y-85598460D01*
X119531940Y-85479954D01*
X119438831Y-85340605D01*
X119374695Y-85185769D01*
X119342000Y-85021397D01*
X119342000Y-84853803D01*
X119374695Y-84689431D01*
X119438831Y-84534595D01*
X119531940Y-84395246D01*
X119650446Y-84276740D01*
X119789795Y-84183631D01*
X119944631Y-84119495D01*
X120109003Y-84086800D01*
X120276597Y-84086800D01*
X120440969Y-84119495D01*
G37*
G36*
X117900969Y-84119495D02*
G01*
X118055805Y-84183631D01*
X118195154Y-84276740D01*
X118313660Y-84395246D01*
X118406769Y-84534595D01*
X118470905Y-84689431D01*
X118503600Y-84853803D01*
X118503600Y-85021397D01*
X118470905Y-85185769D01*
X118406769Y-85340605D01*
X118313660Y-85479954D01*
X118195154Y-85598460D01*
X118055805Y-85691569D01*
X117900969Y-85755705D01*
X117736597Y-85788400D01*
X117569003Y-85788400D01*
X117404631Y-85755705D01*
X117249795Y-85691569D01*
X117110446Y-85598460D01*
X116991940Y-85479954D01*
X116898831Y-85340605D01*
X116834695Y-85185769D01*
X116802000Y-85021397D01*
X116802000Y-84853803D01*
X116834695Y-84689431D01*
X116898831Y-84534595D01*
X116991940Y-84395246D01*
X117110446Y-84276740D01*
X117249795Y-84183631D01*
X117404631Y-84119495D01*
X117569003Y-84086800D01*
X117736597Y-84086800D01*
X117900969Y-84119495D01*
G37*
G36*
X135680969Y-84119495D02*
G01*
X135835805Y-84183631D01*
X135975154Y-84276740D01*
X136093660Y-84395246D01*
X136186769Y-84534595D01*
X136250905Y-84689431D01*
X136283600Y-84853803D01*
X136283600Y-85021397D01*
X136250905Y-85185769D01*
X136186769Y-85340605D01*
X136093660Y-85479954D01*
X135975154Y-85598460D01*
X135835805Y-85691569D01*
X135680969Y-85755705D01*
X135516597Y-85788400D01*
X135349003Y-85788400D01*
X135184631Y-85755705D01*
X135029795Y-85691569D01*
X134890446Y-85598460D01*
X134771940Y-85479954D01*
X134678831Y-85340605D01*
X134614695Y-85185769D01*
X134582000Y-85021397D01*
X134582000Y-84853803D01*
X134614695Y-84689431D01*
X134678831Y-84534595D01*
X134771940Y-84395246D01*
X134890446Y-84276740D01*
X135029795Y-84183631D01*
X135184631Y-84119495D01*
X135349003Y-84086800D01*
X135516597Y-84086800D01*
X135680969Y-84119495D01*
G37*
G36*
X138220969Y-84119495D02*
G01*
X138375805Y-84183631D01*
X138515154Y-84276740D01*
X138633660Y-84395246D01*
X138726769Y-84534595D01*
X138790905Y-84689431D01*
X138823600Y-84853803D01*
X138823600Y-85021397D01*
X138790905Y-85185769D01*
X138726769Y-85340605D01*
X138633660Y-85479954D01*
X138515154Y-85598460D01*
X138375805Y-85691569D01*
X138220969Y-85755705D01*
X138056597Y-85788400D01*
X137889003Y-85788400D01*
X137724631Y-85755705D01*
X137569795Y-85691569D01*
X137430446Y-85598460D01*
X137311940Y-85479954D01*
X137218831Y-85340605D01*
X137154695Y-85185769D01*
X137122000Y-85021397D01*
X137122000Y-84853803D01*
X137154695Y-84689431D01*
X137218831Y-84534595D01*
X137311940Y-84395246D01*
X137430446Y-84276740D01*
X137569795Y-84183631D01*
X137724631Y-84119495D01*
X137889003Y-84086800D01*
X138056597Y-84086800D01*
X138220969Y-84119495D01*
G37*
G36*
X140760969Y-84119495D02*
G01*
X140915805Y-84183631D01*
X141055154Y-84276740D01*
X141173660Y-84395246D01*
X141266769Y-84534595D01*
X141330905Y-84689431D01*
X141363600Y-84853803D01*
X141363600Y-85021397D01*
X141330905Y-85185769D01*
X141266769Y-85340605D01*
X141173660Y-85479954D01*
X141055154Y-85598460D01*
X140915805Y-85691569D01*
X140760969Y-85755705D01*
X140596597Y-85788400D01*
X140429003Y-85788400D01*
X140264631Y-85755705D01*
X140109795Y-85691569D01*
X139970446Y-85598460D01*
X139851940Y-85479954D01*
X139758831Y-85340605D01*
X139694695Y-85185769D01*
X139662000Y-85021397D01*
X139662000Y-84853803D01*
X139694695Y-84689431D01*
X139758831Y-84534595D01*
X139851940Y-84395246D01*
X139970446Y-84276740D01*
X140109795Y-84183631D01*
X140264631Y-84119495D01*
X140429003Y-84086800D01*
X140596597Y-84086800D01*
X140760969Y-84119495D01*
G37*
G36*
X143300969Y-84119495D02*
G01*
X143455805Y-84183631D01*
X143595154Y-84276740D01*
X143713660Y-84395246D01*
X143806769Y-84534595D01*
X143870905Y-84689431D01*
X143903600Y-84853803D01*
X143903600Y-85021397D01*
X143870905Y-85185769D01*
X143806769Y-85340605D01*
X143713660Y-85479954D01*
X143595154Y-85598460D01*
X143455805Y-85691569D01*
X143300969Y-85755705D01*
X143136597Y-85788400D01*
X142969003Y-85788400D01*
X142804631Y-85755705D01*
X142649795Y-85691569D01*
X142510446Y-85598460D01*
X142391940Y-85479954D01*
X142298831Y-85340605D01*
X142234695Y-85185769D01*
X142202000Y-85021397D01*
X142202000Y-84853803D01*
X142234695Y-84689431D01*
X142298831Y-84534595D01*
X142391940Y-84395246D01*
X142510446Y-84276740D01*
X142649795Y-84183631D01*
X142804631Y-84119495D01*
X142969003Y-84086800D01*
X143136597Y-84086800D01*
X143300969Y-84119495D01*
G37*
G36*
X145840969Y-84119495D02*
G01*
X145995805Y-84183631D01*
X146135154Y-84276740D01*
X146253660Y-84395246D01*
X146346769Y-84534595D01*
X146410905Y-84689431D01*
X146443600Y-84853803D01*
X146443600Y-85021397D01*
X146410905Y-85185769D01*
X146346769Y-85340605D01*
X146253660Y-85479954D01*
X146135154Y-85598460D01*
X145995805Y-85691569D01*
X145840969Y-85755705D01*
X145676597Y-85788400D01*
X145509003Y-85788400D01*
X145344631Y-85755705D01*
X145189795Y-85691569D01*
X145050446Y-85598460D01*
X144931940Y-85479954D01*
X144838831Y-85340605D01*
X144774695Y-85185769D01*
X144742000Y-85021397D01*
X144742000Y-84853803D01*
X144774695Y-84689431D01*
X144838831Y-84534595D01*
X144931940Y-84395246D01*
X145050446Y-84276740D01*
X145189795Y-84183631D01*
X145344631Y-84119495D01*
X145509003Y-84086800D01*
X145676597Y-84086800D01*
X145840969Y-84119495D01*
G37*
G36*
X148380969Y-84119495D02*
G01*
X148535805Y-84183631D01*
X148675154Y-84276740D01*
X148793660Y-84395246D01*
X148886769Y-84534595D01*
X148950905Y-84689431D01*
X148983600Y-84853803D01*
X148983600Y-85021397D01*
X148950905Y-85185769D01*
X148886769Y-85340605D01*
X148793660Y-85479954D01*
X148675154Y-85598460D01*
X148535805Y-85691569D01*
X148380969Y-85755705D01*
X148216597Y-85788400D01*
X148049003Y-85788400D01*
X147884631Y-85755705D01*
X147729795Y-85691569D01*
X147590446Y-85598460D01*
X147471940Y-85479954D01*
X147378831Y-85340605D01*
X147314695Y-85185769D01*
X147282000Y-85021397D01*
X147282000Y-84853803D01*
X147314695Y-84689431D01*
X147378831Y-84534595D01*
X147471940Y-84395246D01*
X147590446Y-84276740D01*
X147729795Y-84183631D01*
X147884631Y-84119495D01*
X148049003Y-84086800D01*
X148216597Y-84086800D01*
X148380969Y-84119495D01*
G37*
G36*
X150920969Y-84119495D02*
G01*
X151075805Y-84183631D01*
X151215154Y-84276740D01*
X151333660Y-84395246D01*
X151426769Y-84534595D01*
X151490905Y-84689431D01*
X151523600Y-84853803D01*
X151523600Y-85021397D01*
X151490905Y-85185769D01*
X151426769Y-85340605D01*
X151333660Y-85479954D01*
X151215154Y-85598460D01*
X151075805Y-85691569D01*
X150920969Y-85755705D01*
X150756597Y-85788400D01*
X150589003Y-85788400D01*
X150424631Y-85755705D01*
X150269795Y-85691569D01*
X150130446Y-85598460D01*
X150011940Y-85479954D01*
X149918831Y-85340605D01*
X149854695Y-85185769D01*
X149822000Y-85021397D01*
X149822000Y-84853803D01*
X149854695Y-84689431D01*
X149918831Y-84534595D01*
X150011940Y-84395246D01*
X150130446Y-84276740D01*
X150269795Y-84183631D01*
X150424631Y-84119495D01*
X150589003Y-84086800D01*
X150756597Y-84086800D01*
X150920969Y-84119495D01*
G37*
G36*
X185537966Y-82304261D02*
G01*
X185673309Y-82331182D01*
X185864541Y-82410393D01*
X186036646Y-82525390D01*
X186183010Y-82671754D01*
X186298007Y-82843859D01*
X186377218Y-83035091D01*
X186401209Y-83155704D01*
X186415683Y-83228466D01*
X186417600Y-83238106D01*
X186417600Y-83445094D01*
X186377218Y-83648109D01*
X186298007Y-83839341D01*
X186183010Y-84011446D01*
X186036646Y-84157810D01*
X185864541Y-84272807D01*
X185673309Y-84352018D01*
X185537966Y-84378939D01*
X185470295Y-84392400D01*
X185263305Y-84392400D01*
X185195634Y-84378939D01*
X185060291Y-84352018D01*
X184869059Y-84272807D01*
X184696954Y-84157810D01*
X184550590Y-84011446D01*
X184435593Y-83839341D01*
X184356382Y-83648109D01*
X184316000Y-83445094D01*
X184316000Y-83238106D01*
X184317918Y-83228466D01*
X184332391Y-83155704D01*
X184356382Y-83035091D01*
X184435593Y-82843859D01*
X184550590Y-82671754D01*
X184696954Y-82525390D01*
X184869059Y-82410393D01*
X185060291Y-82331182D01*
X185195634Y-82304261D01*
X185263305Y-82290800D01*
X185470295Y-82290800D01*
X185537966Y-82304261D01*
G37*
G36*
X179037966Y-82304261D02*
G01*
X179173309Y-82331182D01*
X179364541Y-82410393D01*
X179536646Y-82525390D01*
X179683010Y-82671754D01*
X179798007Y-82843859D01*
X179877218Y-83035091D01*
X179901209Y-83155704D01*
X179915683Y-83228466D01*
X179917600Y-83238106D01*
X179917600Y-83445094D01*
X179877218Y-83648109D01*
X179798007Y-83839341D01*
X179683010Y-84011446D01*
X179536646Y-84157810D01*
X179364541Y-84272807D01*
X179173309Y-84352018D01*
X179037966Y-84378939D01*
X178970295Y-84392400D01*
X178763305Y-84392400D01*
X178695634Y-84378939D01*
X178560291Y-84352018D01*
X178369059Y-84272807D01*
X178196954Y-84157810D01*
X178050590Y-84011446D01*
X177935593Y-83839341D01*
X177856382Y-83648109D01*
X177816000Y-83445094D01*
X177816000Y-83238106D01*
X177817918Y-83228466D01*
X177832391Y-83155704D01*
X177856382Y-83035091D01*
X177935593Y-82843859D01*
X178050590Y-82671754D01*
X178196954Y-82525390D01*
X178369059Y-82410393D01*
X178560291Y-82331182D01*
X178695634Y-82304261D01*
X178763305Y-82290800D01*
X178970295Y-82290800D01*
X179037966Y-82304261D01*
G37*
G36*
X160409638Y-82709030D02*
G01*
X160409641Y-82709031D01*
X160409640Y-82709031D01*
X160481288Y-82738708D01*
X160545769Y-82781793D01*
X160600607Y-82836631D01*
X160643692Y-82901112D01*
X160643692Y-82901113D01*
X160673370Y-82972762D01*
X160688500Y-83048824D01*
X160688500Y-83126376D01*
X160673370Y-83202438D01*
X160673369Y-83202440D01*
X160643692Y-83274088D01*
X160600607Y-83338569D01*
X160545769Y-83393407D01*
X160481288Y-83436492D01*
X160460518Y-83445095D01*
X160409638Y-83466170D01*
X160333576Y-83481300D01*
X160256024Y-83481300D01*
X160179962Y-83466170D01*
X160129082Y-83445095D01*
X160108312Y-83436492D01*
X160043831Y-83393407D01*
X159988993Y-83338569D01*
X159945908Y-83274088D01*
X159916231Y-83202440D01*
X159916230Y-83202438D01*
X159901100Y-83126376D01*
X159901100Y-83048824D01*
X159916230Y-82972762D01*
X159945908Y-82901113D01*
X159945908Y-82901112D01*
X159988993Y-82836631D01*
X160043831Y-82781793D01*
X160108312Y-82738708D01*
X160179960Y-82709031D01*
X160179959Y-82709031D01*
X160179962Y-82709030D01*
X160256024Y-82693900D01*
X160333576Y-82693900D01*
X160409638Y-82709030D01*
G37*
G36*
X156809638Y-82709030D02*
G01*
X156809641Y-82709031D01*
X156809640Y-82709031D01*
X156881288Y-82738708D01*
X156945769Y-82781793D01*
X157000607Y-82836631D01*
X157043692Y-82901112D01*
X157043692Y-82901113D01*
X157073370Y-82972762D01*
X157088500Y-83048824D01*
X157088500Y-83126376D01*
X157073370Y-83202438D01*
X157073369Y-83202440D01*
X157043692Y-83274088D01*
X157000607Y-83338569D01*
X156945769Y-83393407D01*
X156881288Y-83436492D01*
X156860518Y-83445095D01*
X156809638Y-83466170D01*
X156733576Y-83481300D01*
X156656024Y-83481300D01*
X156579962Y-83466170D01*
X156529082Y-83445095D01*
X156508312Y-83436492D01*
X156443831Y-83393407D01*
X156388993Y-83338569D01*
X156345908Y-83274088D01*
X156316231Y-83202440D01*
X156316230Y-83202438D01*
X156301100Y-83126376D01*
X156301100Y-83048824D01*
X156316230Y-82972762D01*
X156345908Y-82901113D01*
X156345908Y-82901112D01*
X156388993Y-82836631D01*
X156443831Y-82781793D01*
X156508312Y-82738708D01*
X156579960Y-82709031D01*
X156579959Y-82709031D01*
X156579962Y-82709030D01*
X156656024Y-82693900D01*
X156733576Y-82693900D01*
X156809638Y-82709030D01*
G37*
G36*
X158009638Y-82709030D02*
G01*
X158009641Y-82709031D01*
X158009640Y-82709031D01*
X158081288Y-82738708D01*
X158145769Y-82781793D01*
X158200607Y-82836631D01*
X158243692Y-82901112D01*
X158243692Y-82901113D01*
X158273370Y-82972762D01*
X158288500Y-83048824D01*
X158288500Y-83126376D01*
X158273370Y-83202438D01*
X158273369Y-83202440D01*
X158243692Y-83274088D01*
X158200607Y-83338569D01*
X158145769Y-83393407D01*
X158081288Y-83436492D01*
X158060518Y-83445095D01*
X158009638Y-83466170D01*
X157933576Y-83481300D01*
X157856024Y-83481300D01*
X157779962Y-83466170D01*
X157729082Y-83445095D01*
X157708312Y-83436492D01*
X157643831Y-83393407D01*
X157588993Y-83338569D01*
X157545908Y-83274088D01*
X157516231Y-83202440D01*
X157516230Y-83202438D01*
X157501100Y-83126376D01*
X157501100Y-83048824D01*
X157516230Y-82972762D01*
X157545908Y-82901113D01*
X157545908Y-82901112D01*
X157588993Y-82836631D01*
X157643831Y-82781793D01*
X157708312Y-82738708D01*
X157779960Y-82709031D01*
X157779959Y-82709031D01*
X157779962Y-82709030D01*
X157856024Y-82693900D01*
X157933576Y-82693900D01*
X158009638Y-82709030D01*
G37*
G36*
X119847341Y-82471327D02*
G01*
X119847344Y-82471328D01*
X119847343Y-82471328D01*
X119918991Y-82501005D01*
X119983472Y-82544090D01*
X120038310Y-82598928D01*
X120081395Y-82663409D01*
X120100291Y-82709030D01*
X120111073Y-82735059D01*
X120126203Y-82811121D01*
X120126203Y-82888673D01*
X120111073Y-82964735D01*
X120111072Y-82964737D01*
X120081395Y-83036385D01*
X120038310Y-83100866D01*
X119983472Y-83155704D01*
X119918991Y-83198789D01*
X119868328Y-83219774D01*
X119847341Y-83228467D01*
X119771279Y-83243597D01*
X119693727Y-83243597D01*
X119617665Y-83228467D01*
X119596678Y-83219774D01*
X119546015Y-83198789D01*
X119481534Y-83155704D01*
X119426696Y-83100866D01*
X119383611Y-83036385D01*
X119353934Y-82964737D01*
X119353933Y-82964735D01*
X119338803Y-82888673D01*
X119338803Y-82811121D01*
X119353933Y-82735059D01*
X119364715Y-82709030D01*
X119383611Y-82663409D01*
X119426696Y-82598928D01*
X119481534Y-82544090D01*
X119546015Y-82501005D01*
X119617663Y-82471328D01*
X119617662Y-82471328D01*
X119617665Y-82471327D01*
X119693727Y-82456197D01*
X119771279Y-82456197D01*
X119847341Y-82471327D01*
G37*
G36*
X115409638Y-80909030D02*
G01*
X115409641Y-80909031D01*
X115409640Y-80909031D01*
X115481288Y-80938708D01*
X115545769Y-80981793D01*
X115600607Y-81036631D01*
X115643692Y-81101112D01*
X115664677Y-81151775D01*
X115673370Y-81172762D01*
X115688500Y-81248824D01*
X115688500Y-81326376D01*
X115673370Y-81402438D01*
X115673369Y-81402440D01*
X115643692Y-81474088D01*
X115600607Y-81538569D01*
X115545769Y-81593407D01*
X115481288Y-81636492D01*
X115430625Y-81657477D01*
X115409638Y-81666170D01*
X115333576Y-81681300D01*
X115256024Y-81681300D01*
X115179962Y-81666170D01*
X115158975Y-81657477D01*
X115108312Y-81636492D01*
X115043831Y-81593407D01*
X114988993Y-81538569D01*
X114945908Y-81474088D01*
X114916231Y-81402440D01*
X114916230Y-81402438D01*
X114901100Y-81326376D01*
X114901100Y-81248824D01*
X114916230Y-81172762D01*
X114924923Y-81151775D01*
X114945908Y-81101112D01*
X114988993Y-81036631D01*
X115043831Y-80981793D01*
X115108312Y-80938708D01*
X115179960Y-80909031D01*
X115179959Y-80909031D01*
X115179962Y-80909030D01*
X115256024Y-80893900D01*
X115333576Y-80893900D01*
X115409638Y-80909030D01*
G37*
G36*
X175529800Y-80194833D02*
G01*
X175666437Y-80251429D01*
X175789407Y-80333595D01*
X175893985Y-80438173D01*
X175976151Y-80561143D01*
X176032747Y-80697780D01*
X176061600Y-80842833D01*
X176061600Y-80990727D01*
X176032747Y-81135780D01*
X175976151Y-81272417D01*
X175893985Y-81395387D01*
X175789407Y-81499965D01*
X175666437Y-81582131D01*
X175529800Y-81638727D01*
X175384747Y-81667580D01*
X175236853Y-81667580D01*
X175091800Y-81638727D01*
X174955163Y-81582131D01*
X174832193Y-81499965D01*
X174727615Y-81395387D01*
X174645449Y-81272417D01*
X174588853Y-81135780D01*
X174560000Y-80990727D01*
X174560000Y-80842833D01*
X174588853Y-80697780D01*
X174645449Y-80561143D01*
X174727615Y-80438173D01*
X174832193Y-80333595D01*
X174955163Y-80251429D01*
X175091800Y-80194833D01*
X175236853Y-80165980D01*
X175384747Y-80165980D01*
X175529800Y-80194833D01*
G37*
G36*
X173116800Y-79389653D02*
G01*
X173253437Y-79446249D01*
X173376407Y-79528415D01*
X173480985Y-79632993D01*
X173563151Y-79755963D01*
X173619747Y-79892600D01*
X173648600Y-80037653D01*
X173648600Y-80185547D01*
X173619747Y-80330600D01*
X173563151Y-80467237D01*
X173480985Y-80590207D01*
X173376407Y-80694785D01*
X173253437Y-80776951D01*
X173116800Y-80833547D01*
X172971747Y-80862400D01*
X172823853Y-80862400D01*
X172678800Y-80833547D01*
X172542163Y-80776951D01*
X172419193Y-80694785D01*
X172314615Y-80590207D01*
X172232449Y-80467237D01*
X172175853Y-80330600D01*
X172147000Y-80185547D01*
X172147000Y-80037653D01*
X172175853Y-79892600D01*
X172232449Y-79755963D01*
X172314615Y-79632993D01*
X172419193Y-79528415D01*
X172542163Y-79446249D01*
X172678800Y-79389653D01*
X172823853Y-79360800D01*
X172971747Y-79360800D01*
X173116800Y-79389653D01*
G37*
G36*
X158009638Y-80009030D02*
G01*
X158030625Y-80017723D01*
X158081288Y-80038708D01*
X158145769Y-80081793D01*
X158200607Y-80136631D01*
X158243692Y-80201112D01*
X158243692Y-80201113D01*
X158273370Y-80272762D01*
X158288500Y-80348824D01*
X158288500Y-80426376D01*
X158273370Y-80502438D01*
X158273369Y-80502440D01*
X158243692Y-80574088D01*
X158200607Y-80638569D01*
X158145769Y-80693407D01*
X158081288Y-80736492D01*
X158030625Y-80757477D01*
X158009638Y-80766170D01*
X157933576Y-80781300D01*
X157856024Y-80781300D01*
X157779962Y-80766170D01*
X157758975Y-80757477D01*
X157708312Y-80736492D01*
X157643831Y-80693407D01*
X157588993Y-80638569D01*
X157545908Y-80574088D01*
X157516231Y-80502440D01*
X157516230Y-80502438D01*
X157501100Y-80426376D01*
X157501100Y-80348824D01*
X157516230Y-80272762D01*
X157545908Y-80201113D01*
X157545908Y-80201112D01*
X157588993Y-80136631D01*
X157643831Y-80081793D01*
X157708312Y-80038708D01*
X157758975Y-80017723D01*
X157779962Y-80009030D01*
X157856024Y-79993900D01*
X157933576Y-79993900D01*
X158009638Y-80009030D01*
G37*
G36*
X166409638Y-79709030D02*
G01*
X166409641Y-79709031D01*
X166409640Y-79709031D01*
X166481288Y-79738708D01*
X166545769Y-79781793D01*
X166600607Y-79836631D01*
X166643692Y-79901112D01*
X166643692Y-79901113D01*
X166673370Y-79972762D01*
X166688500Y-80048824D01*
X166688500Y-80126376D01*
X166673370Y-80202438D01*
X166673369Y-80202440D01*
X166643692Y-80274088D01*
X166600607Y-80338569D01*
X166545769Y-80393407D01*
X166481288Y-80436492D01*
X166430625Y-80457477D01*
X166409638Y-80466170D01*
X166333576Y-80481300D01*
X166256024Y-80481300D01*
X166179962Y-80466170D01*
X166158975Y-80457477D01*
X166108312Y-80436492D01*
X166043831Y-80393407D01*
X165988993Y-80338569D01*
X165945908Y-80274088D01*
X165916231Y-80202440D01*
X165916230Y-80202438D01*
X165901100Y-80126376D01*
X165901100Y-80048824D01*
X165916230Y-79972762D01*
X165945908Y-79901113D01*
X165945908Y-79901112D01*
X165988993Y-79836631D01*
X166043831Y-79781793D01*
X166108312Y-79738708D01*
X166179960Y-79709031D01*
X166179959Y-79709031D01*
X166179962Y-79709030D01*
X166256024Y-79693900D01*
X166333576Y-79693900D01*
X166409638Y-79709030D01*
G37*
G36*
X170703800Y-78627653D02*
G01*
X170840437Y-78684249D01*
X170963407Y-78766415D01*
X171067985Y-78870993D01*
X171150151Y-78993963D01*
X171206747Y-79130600D01*
X171235600Y-79275653D01*
X171235600Y-79423547D01*
X171206747Y-79568600D01*
X171150151Y-79705237D01*
X171067985Y-79828207D01*
X170963407Y-79932785D01*
X170840437Y-80014951D01*
X170703800Y-80071547D01*
X170558747Y-80100400D01*
X170410853Y-80100400D01*
X170265800Y-80071547D01*
X170129163Y-80014951D01*
X170006193Y-79932785D01*
X169901615Y-79828207D01*
X169819449Y-79705237D01*
X169762853Y-79568600D01*
X169734000Y-79423547D01*
X169734000Y-79275653D01*
X169762853Y-79130600D01*
X169819449Y-78993963D01*
X169901615Y-78870993D01*
X170006193Y-78766415D01*
X170129163Y-78684249D01*
X170265800Y-78627653D01*
X170410853Y-78598800D01*
X170558747Y-78598800D01*
X170703800Y-78627653D01*
G37*
G36*
X179037966Y-77804261D02*
G01*
X179173309Y-77831182D01*
X179364541Y-77910393D01*
X179536646Y-78025390D01*
X179683010Y-78171754D01*
X179798007Y-78343859D01*
X179877218Y-78535091D01*
X179917600Y-78738106D01*
X179917600Y-78945094D01*
X179877218Y-79148109D01*
X179798007Y-79339341D01*
X179683010Y-79511446D01*
X179536646Y-79657810D01*
X179364541Y-79772807D01*
X179173309Y-79852018D01*
X179037966Y-79878939D01*
X178970295Y-79892400D01*
X178763305Y-79892400D01*
X178695634Y-79878939D01*
X178560291Y-79852018D01*
X178369059Y-79772807D01*
X178196954Y-79657810D01*
X178050590Y-79511446D01*
X177935593Y-79339341D01*
X177856382Y-79148109D01*
X177816000Y-78945094D01*
X177816000Y-78738106D01*
X177856382Y-78535091D01*
X177935593Y-78343859D01*
X178050590Y-78171754D01*
X178196954Y-78025390D01*
X178369059Y-77910393D01*
X178560291Y-77831182D01*
X178695634Y-77804261D01*
X178763305Y-77790800D01*
X178970295Y-77790800D01*
X179037966Y-77804261D01*
G37*
G36*
X185537966Y-77804261D02*
G01*
X185673309Y-77831182D01*
X185864541Y-77910393D01*
X186036646Y-78025390D01*
X186183010Y-78171754D01*
X186298007Y-78343859D01*
X186377218Y-78535091D01*
X186417600Y-78738106D01*
X186417600Y-78945094D01*
X186377218Y-79148109D01*
X186298007Y-79339341D01*
X186183010Y-79511446D01*
X186036646Y-79657810D01*
X185864541Y-79772807D01*
X185673309Y-79852018D01*
X185537966Y-79878939D01*
X185470295Y-79892400D01*
X185263305Y-79892400D01*
X185195634Y-79878939D01*
X185060291Y-79852018D01*
X184869059Y-79772807D01*
X184696954Y-79657810D01*
X184550590Y-79511446D01*
X184435593Y-79339341D01*
X184356382Y-79148109D01*
X184316000Y-78945094D01*
X184316000Y-78738106D01*
X184356382Y-78535091D01*
X184435593Y-78343859D01*
X184550590Y-78171754D01*
X184696954Y-78025390D01*
X184869059Y-77910393D01*
X185060291Y-77831182D01*
X185195634Y-77804261D01*
X185263305Y-77790800D01*
X185470295Y-77790800D01*
X185537966Y-77804261D01*
G37*
G36*
X175529800Y-77992653D02*
G01*
X175666437Y-78049249D01*
X175789407Y-78131415D01*
X175893985Y-78235993D01*
X175976151Y-78358963D01*
X176032747Y-78495600D01*
X176061600Y-78640653D01*
X176061600Y-78788547D01*
X176032747Y-78933600D01*
X175976151Y-79070237D01*
X175893985Y-79193207D01*
X175789407Y-79297785D01*
X175666437Y-79379951D01*
X175529800Y-79436547D01*
X175384747Y-79465400D01*
X175236853Y-79465400D01*
X175091800Y-79436547D01*
X174955163Y-79379951D01*
X174832193Y-79297785D01*
X174727615Y-79193207D01*
X174645449Y-79070237D01*
X174588853Y-78933600D01*
X174560000Y-78788547D01*
X174560000Y-78640653D01*
X174588853Y-78495600D01*
X174645449Y-78358963D01*
X174727615Y-78235993D01*
X174832193Y-78131415D01*
X174955163Y-78049249D01*
X175091800Y-77992653D01*
X175236853Y-77963800D01*
X175384747Y-77963800D01*
X175529800Y-77992653D01*
G37*
G36*
X168290800Y-77865653D02*
G01*
X168427437Y-77922249D01*
X168550407Y-78004415D01*
X168654985Y-78108993D01*
X168737151Y-78231963D01*
X168793747Y-78368600D01*
X168822600Y-78513653D01*
X168822600Y-78661547D01*
X168793747Y-78806600D01*
X168737151Y-78943237D01*
X168654985Y-79066207D01*
X168550407Y-79170785D01*
X168427437Y-79252951D01*
X168290800Y-79309547D01*
X168145747Y-79338400D01*
X167997853Y-79338400D01*
X167852800Y-79309547D01*
X167716163Y-79252951D01*
X167593193Y-79170785D01*
X167488615Y-79066207D01*
X167406449Y-78943237D01*
X167349853Y-78806600D01*
X167321000Y-78661547D01*
X167321000Y-78513653D01*
X167349853Y-78368600D01*
X167406449Y-78231963D01*
X167488615Y-78108993D01*
X167593193Y-78004415D01*
X167716163Y-77922249D01*
X167852800Y-77865653D01*
X167997853Y-77836800D01*
X168145747Y-77836800D01*
X168290800Y-77865653D01*
G37*
G36*
X162180262Y-77543456D02*
G01*
X162339647Y-77609476D01*
X162483090Y-77705321D01*
X162605079Y-77827310D01*
X162700924Y-77970753D01*
X162766944Y-78130138D01*
X162800600Y-78299341D01*
X162800600Y-78471859D01*
X162766944Y-78641062D01*
X162700924Y-78800447D01*
X162605079Y-78943890D01*
X162483090Y-79065879D01*
X162339647Y-79161724D01*
X162180262Y-79227744D01*
X162011059Y-79261400D01*
X161838541Y-79261400D01*
X161669338Y-79227744D01*
X161509953Y-79161724D01*
X161366510Y-79065879D01*
X161244521Y-78943890D01*
X161148676Y-78800447D01*
X161082656Y-78641062D01*
X161049000Y-78471859D01*
X161049000Y-78299341D01*
X161082656Y-78130138D01*
X161148676Y-77970753D01*
X161244521Y-77827310D01*
X161366510Y-77705321D01*
X161509953Y-77609476D01*
X161669338Y-77543456D01*
X161838541Y-77509800D01*
X162011059Y-77509800D01*
X162180262Y-77543456D01*
G37*
G36*
X173116800Y-77230653D02*
G01*
X173253437Y-77287249D01*
X173376407Y-77369415D01*
X173480985Y-77473993D01*
X173563151Y-77596963D01*
X173619747Y-77733600D01*
X173648600Y-77878653D01*
X173648600Y-78026547D01*
X173619747Y-78171600D01*
X173563151Y-78308237D01*
X173480985Y-78431207D01*
X173376407Y-78535785D01*
X173253437Y-78617951D01*
X173116800Y-78674547D01*
X172971747Y-78703400D01*
X172823853Y-78703400D01*
X172678800Y-78674547D01*
X172542163Y-78617951D01*
X172419193Y-78535785D01*
X172314615Y-78431207D01*
X172232449Y-78308237D01*
X172175853Y-78171600D01*
X172147000Y-78026547D01*
X172147000Y-77878653D01*
X172175853Y-77733600D01*
X172232449Y-77596963D01*
X172314615Y-77473993D01*
X172419193Y-77369415D01*
X172542163Y-77287249D01*
X172678800Y-77230653D01*
X172823853Y-77201800D01*
X172971747Y-77201800D01*
X173116800Y-77230653D01*
G37*
G36*
X148380969Y-76499495D02*
G01*
X148535805Y-76563631D01*
X148675154Y-76656740D01*
X148793660Y-76775246D01*
X148886769Y-76914595D01*
X148950905Y-77069431D01*
X148983600Y-77233803D01*
X148983600Y-77401397D01*
X148950905Y-77565769D01*
X148886769Y-77720605D01*
X148793660Y-77859954D01*
X148675154Y-77978460D01*
X148535805Y-78071569D01*
X148380969Y-78135705D01*
X148216597Y-78168400D01*
X148049003Y-78168400D01*
X147884631Y-78135705D01*
X147729795Y-78071569D01*
X147590446Y-77978460D01*
X147471940Y-77859954D01*
X147378831Y-77720605D01*
X147314695Y-77565769D01*
X147282000Y-77401397D01*
X147282000Y-77233803D01*
X147314695Y-77069431D01*
X147378831Y-76914595D01*
X147471940Y-76775246D01*
X147590446Y-76656740D01*
X147729795Y-76563631D01*
X147884631Y-76499495D01*
X148049003Y-76466800D01*
X148216597Y-76466800D01*
X148380969Y-76499495D01*
G37*
G36*
X151523600Y-78168400D02*
G01*
X149822000Y-78168400D01*
X149822000Y-76466800D01*
X151523600Y-76466800D01*
X151523600Y-78168400D01*
G37*
G36*
X145840969Y-76499495D02*
G01*
X145995805Y-76563631D01*
X146135154Y-76656740D01*
X146253660Y-76775246D01*
X146346769Y-76914595D01*
X146410905Y-77069431D01*
X146443600Y-77233803D01*
X146443600Y-77401397D01*
X146410905Y-77565769D01*
X146346769Y-77720605D01*
X146253660Y-77859954D01*
X146135154Y-77978460D01*
X145995805Y-78071569D01*
X145840969Y-78135705D01*
X145676597Y-78168400D01*
X145509003Y-78168400D01*
X145344631Y-78135705D01*
X145189795Y-78071569D01*
X145050446Y-77978460D01*
X144931940Y-77859954D01*
X144838831Y-77720605D01*
X144774695Y-77565769D01*
X144742000Y-77401397D01*
X144742000Y-77233803D01*
X144774695Y-77069431D01*
X144838831Y-76914595D01*
X144931940Y-76775246D01*
X145050446Y-76656740D01*
X145189795Y-76563631D01*
X145344631Y-76499495D01*
X145509003Y-76466800D01*
X145676597Y-76466800D01*
X145840969Y-76499495D01*
G37*
G36*
X122980969Y-76499495D02*
G01*
X123135805Y-76563631D01*
X123275154Y-76656740D01*
X123393660Y-76775246D01*
X123486769Y-76914595D01*
X123550905Y-77069431D01*
X123583600Y-77233803D01*
X123583600Y-77401397D01*
X123550905Y-77565769D01*
X123486769Y-77720605D01*
X123393660Y-77859954D01*
X123275154Y-77978460D01*
X123135805Y-78071569D01*
X122980969Y-78135705D01*
X122816597Y-78168400D01*
X122649003Y-78168400D01*
X122484631Y-78135705D01*
X122329795Y-78071569D01*
X122190446Y-77978460D01*
X122071940Y-77859954D01*
X121978831Y-77720605D01*
X121914695Y-77565769D01*
X121882000Y-77401397D01*
X121882000Y-77233803D01*
X121914695Y-77069431D01*
X121978831Y-76914595D01*
X122071940Y-76775246D01*
X122190446Y-76656740D01*
X122329795Y-76563631D01*
X122484631Y-76499495D01*
X122649003Y-76466800D01*
X122816597Y-76466800D01*
X122980969Y-76499495D01*
G37*
G36*
X143300969Y-76499495D02*
G01*
X143455805Y-76563631D01*
X143595154Y-76656740D01*
X143713660Y-76775246D01*
X143806769Y-76914595D01*
X143870905Y-77069431D01*
X143903600Y-77233803D01*
X143903600Y-77401397D01*
X143870905Y-77565769D01*
X143806769Y-77720605D01*
X143713660Y-77859954D01*
X143595154Y-77978460D01*
X143455805Y-78071569D01*
X143300969Y-78135705D01*
X143136597Y-78168400D01*
X142969003Y-78168400D01*
X142804631Y-78135705D01*
X142649795Y-78071569D01*
X142510446Y-77978460D01*
X142391940Y-77859954D01*
X142298831Y-77720605D01*
X142234695Y-77565769D01*
X142202000Y-77401397D01*
X142202000Y-77233803D01*
X142234695Y-77069431D01*
X142298831Y-76914595D01*
X142391940Y-76775246D01*
X142510446Y-76656740D01*
X142649795Y-76563631D01*
X142804631Y-76499495D01*
X142969003Y-76466800D01*
X143136597Y-76466800D01*
X143300969Y-76499495D01*
G37*
G36*
X140760969Y-76499495D02*
G01*
X140915805Y-76563631D01*
X141055154Y-76656740D01*
X141173660Y-76775246D01*
X141266769Y-76914595D01*
X141330905Y-77069431D01*
X141363600Y-77233803D01*
X141363600Y-77401397D01*
X141330905Y-77565769D01*
X141266769Y-77720605D01*
X141173660Y-77859954D01*
X141055154Y-77978460D01*
X140915805Y-78071569D01*
X140760969Y-78135705D01*
X140596597Y-78168400D01*
X140429003Y-78168400D01*
X140264631Y-78135705D01*
X140109795Y-78071569D01*
X139970446Y-77978460D01*
X139851940Y-77859954D01*
X139758831Y-77720605D01*
X139694695Y-77565769D01*
X139662000Y-77401397D01*
X139662000Y-77233803D01*
X139694695Y-77069431D01*
X139758831Y-76914595D01*
X139851940Y-76775246D01*
X139970446Y-76656740D01*
X140109795Y-76563631D01*
X140264631Y-76499495D01*
X140429003Y-76466800D01*
X140596597Y-76466800D01*
X140760969Y-76499495D01*
G37*
G36*
X138220969Y-76499495D02*
G01*
X138375805Y-76563631D01*
X138515154Y-76656740D01*
X138633660Y-76775246D01*
X138726769Y-76914595D01*
X138790905Y-77069431D01*
X138823600Y-77233803D01*
X138823600Y-77401397D01*
X138790905Y-77565769D01*
X138726769Y-77720605D01*
X138633660Y-77859954D01*
X138515154Y-77978460D01*
X138375805Y-78071569D01*
X138220969Y-78135705D01*
X138056597Y-78168400D01*
X137889003Y-78168400D01*
X137724631Y-78135705D01*
X137569795Y-78071569D01*
X137430446Y-77978460D01*
X137311940Y-77859954D01*
X137218831Y-77720605D01*
X137154695Y-77565769D01*
X137122000Y-77401397D01*
X137122000Y-77233803D01*
X137154695Y-77069431D01*
X137218831Y-76914595D01*
X137311940Y-76775246D01*
X137430446Y-76656740D01*
X137569795Y-76563631D01*
X137724631Y-76499495D01*
X137889003Y-76466800D01*
X138056597Y-76466800D01*
X138220969Y-76499495D01*
G37*
G36*
X120440969Y-76499495D02*
G01*
X120595805Y-76563631D01*
X120735154Y-76656740D01*
X120853660Y-76775246D01*
X120946769Y-76914595D01*
X121010905Y-77069431D01*
X121043600Y-77233803D01*
X121043600Y-77401397D01*
X121010905Y-77565769D01*
X120946769Y-77720605D01*
X120853660Y-77859954D01*
X120735154Y-77978460D01*
X120595805Y-78071569D01*
X120440969Y-78135705D01*
X120276597Y-78168400D01*
X120109003Y-78168400D01*
X119944631Y-78135705D01*
X119789795Y-78071569D01*
X119650446Y-77978460D01*
X119531940Y-77859954D01*
X119438831Y-77720605D01*
X119374695Y-77565769D01*
X119342000Y-77401397D01*
X119342000Y-77233803D01*
X119374695Y-77069431D01*
X119438831Y-76914595D01*
X119531940Y-76775246D01*
X119650446Y-76656740D01*
X119789795Y-76563631D01*
X119944631Y-76499495D01*
X120109003Y-76466800D01*
X120276597Y-76466800D01*
X120440969Y-76499495D01*
G37*
G36*
X117900969Y-76499495D02*
G01*
X118055805Y-76563631D01*
X118195154Y-76656740D01*
X118313660Y-76775246D01*
X118406769Y-76914595D01*
X118470905Y-77069431D01*
X118503600Y-77233803D01*
X118503600Y-77401397D01*
X118470905Y-77565769D01*
X118406769Y-77720605D01*
X118313660Y-77859954D01*
X118195154Y-77978460D01*
X118055805Y-78071569D01*
X117900969Y-78135705D01*
X117736597Y-78168400D01*
X117569003Y-78168400D01*
X117404631Y-78135705D01*
X117249795Y-78071569D01*
X117110446Y-77978460D01*
X116991940Y-77859954D01*
X116898831Y-77720605D01*
X116834695Y-77565769D01*
X116802000Y-77401397D01*
X116802000Y-77233803D01*
X116834695Y-77069431D01*
X116898831Y-76914595D01*
X116991940Y-76775246D01*
X117110446Y-76656740D01*
X117249795Y-76563631D01*
X117404631Y-76499495D01*
X117569003Y-76466800D01*
X117736597Y-76466800D01*
X117900969Y-76499495D01*
G37*
G36*
X135680969Y-76499495D02*
G01*
X135835805Y-76563631D01*
X135975154Y-76656740D01*
X136093660Y-76775246D01*
X136186769Y-76914595D01*
X136250905Y-77069431D01*
X136283600Y-77233803D01*
X136283600Y-77401397D01*
X136250905Y-77565769D01*
X136186769Y-77720605D01*
X136093660Y-77859954D01*
X135975154Y-77978460D01*
X135835805Y-78071569D01*
X135680969Y-78135705D01*
X135516597Y-78168400D01*
X135349003Y-78168400D01*
X135184631Y-78135705D01*
X135029795Y-78071569D01*
X134890446Y-77978460D01*
X134771940Y-77859954D01*
X134678831Y-77720605D01*
X134614695Y-77565769D01*
X134582000Y-77401397D01*
X134582000Y-77233803D01*
X134614695Y-77069431D01*
X134678831Y-76914595D01*
X134771940Y-76775246D01*
X134890446Y-76656740D01*
X135029795Y-76563631D01*
X135184631Y-76499495D01*
X135349003Y-76466800D01*
X135516597Y-76466800D01*
X135680969Y-76499495D01*
G37*
G36*
X133140969Y-76499495D02*
G01*
X133295805Y-76563631D01*
X133435154Y-76656740D01*
X133553660Y-76775246D01*
X133646769Y-76914595D01*
X133710905Y-77069431D01*
X133743600Y-77233803D01*
X133743600Y-77401397D01*
X133710905Y-77565769D01*
X133646769Y-77720605D01*
X133553660Y-77859954D01*
X133435154Y-77978460D01*
X133295805Y-78071569D01*
X133140969Y-78135705D01*
X132976597Y-78168400D01*
X132809003Y-78168400D01*
X132644631Y-78135705D01*
X132489795Y-78071569D01*
X132350446Y-77978460D01*
X132231940Y-77859954D01*
X132138831Y-77720605D01*
X132074695Y-77565769D01*
X132042000Y-77401397D01*
X132042000Y-77233803D01*
X132074695Y-77069431D01*
X132138831Y-76914595D01*
X132231940Y-76775246D01*
X132350446Y-76656740D01*
X132489795Y-76563631D01*
X132644631Y-76499495D01*
X132809003Y-76466800D01*
X132976597Y-76466800D01*
X133140969Y-76499495D01*
G37*
G36*
X125520969Y-76499495D02*
G01*
X125675805Y-76563631D01*
X125815154Y-76656740D01*
X125933660Y-76775246D01*
X126026769Y-76914595D01*
X126090905Y-77069431D01*
X126123600Y-77233803D01*
X126123600Y-77401397D01*
X126090905Y-77565769D01*
X126026769Y-77720605D01*
X125933660Y-77859954D01*
X125815154Y-77978460D01*
X125675805Y-78071569D01*
X125520969Y-78135705D01*
X125356597Y-78168400D01*
X125189003Y-78168400D01*
X125024631Y-78135705D01*
X124869795Y-78071569D01*
X124730446Y-77978460D01*
X124611940Y-77859954D01*
X124518831Y-77720605D01*
X124454695Y-77565769D01*
X124422000Y-77401397D01*
X124422000Y-77233803D01*
X124454695Y-77069431D01*
X124518831Y-76914595D01*
X124611940Y-76775246D01*
X124730446Y-76656740D01*
X124869795Y-76563631D01*
X125024631Y-76499495D01*
X125189003Y-76466800D01*
X125356597Y-76466800D01*
X125520969Y-76499495D01*
G37*
G36*
X130600969Y-76499495D02*
G01*
X130755805Y-76563631D01*
X130895154Y-76656740D01*
X131013660Y-76775246D01*
X131106769Y-76914595D01*
X131170905Y-77069431D01*
X131203600Y-77233803D01*
X131203600Y-77401397D01*
X131170905Y-77565769D01*
X131106769Y-77720605D01*
X131013660Y-77859954D01*
X130895154Y-77978460D01*
X130755805Y-78071569D01*
X130600969Y-78135705D01*
X130436597Y-78168400D01*
X130269003Y-78168400D01*
X130104631Y-78135705D01*
X129949795Y-78071569D01*
X129810446Y-77978460D01*
X129691940Y-77859954D01*
X129598831Y-77720605D01*
X129534695Y-77565769D01*
X129502000Y-77401397D01*
X129502000Y-77233803D01*
X129534695Y-77069431D01*
X129598831Y-76914595D01*
X129691940Y-76775246D01*
X129810446Y-76656740D01*
X129949795Y-76563631D01*
X130104631Y-76499495D01*
X130269003Y-76466800D01*
X130436597Y-76466800D01*
X130600969Y-76499495D01*
G37*
G36*
X128060969Y-76499495D02*
G01*
X128215805Y-76563631D01*
X128355154Y-76656740D01*
X128473660Y-76775246D01*
X128566769Y-76914595D01*
X128630905Y-77069431D01*
X128663600Y-77233803D01*
X128663600Y-77401397D01*
X128630905Y-77565769D01*
X128566769Y-77720605D01*
X128473660Y-77859954D01*
X128355154Y-77978460D01*
X128215805Y-78071569D01*
X128060969Y-78135705D01*
X127896597Y-78168400D01*
X127729003Y-78168400D01*
X127564631Y-78135705D01*
X127409795Y-78071569D01*
X127270446Y-77978460D01*
X127151940Y-77859954D01*
X127058831Y-77720605D01*
X126994695Y-77565769D01*
X126962000Y-77401397D01*
X126962000Y-77233803D01*
X126994695Y-77069431D01*
X127058831Y-76914595D01*
X127151940Y-76775246D01*
X127270446Y-76656740D01*
X127409795Y-76563631D01*
X127564631Y-76499495D01*
X127729003Y-76466800D01*
X127896597Y-76466800D01*
X128060969Y-76499495D01*
G37*
G36*
X170703800Y-76468653D02*
G01*
X170840437Y-76525249D01*
X170963407Y-76607415D01*
X171067985Y-76711993D01*
X171150151Y-76834963D01*
X171206747Y-76971600D01*
X171235600Y-77116653D01*
X171235600Y-77264547D01*
X171206747Y-77409600D01*
X171150151Y-77546237D01*
X171067985Y-77669207D01*
X170963407Y-77773785D01*
X170840437Y-77855951D01*
X170703800Y-77912547D01*
X170558747Y-77941400D01*
X170410853Y-77941400D01*
X170265800Y-77912547D01*
X170129163Y-77855951D01*
X170006193Y-77773785D01*
X169901615Y-77669207D01*
X169819449Y-77546237D01*
X169762853Y-77409600D01*
X169734000Y-77264547D01*
X169734000Y-77116653D01*
X169762853Y-76971600D01*
X169819449Y-76834963D01*
X169901615Y-76711993D01*
X170006193Y-76607415D01*
X170129163Y-76525249D01*
X170265800Y-76468653D01*
X170410853Y-76439800D01*
X170558747Y-76439800D01*
X170703800Y-76468653D01*
G37*
G36*
X168290800Y-75706653D02*
G01*
X168427437Y-75763249D01*
X168550407Y-75845415D01*
X168654985Y-75949993D01*
X168737151Y-76072963D01*
X168793747Y-76209600D01*
X168822600Y-76354653D01*
X168822600Y-76502547D01*
X168793747Y-76647600D01*
X168737151Y-76784237D01*
X168654985Y-76907207D01*
X168550407Y-77011785D01*
X168427437Y-77093951D01*
X168290800Y-77150547D01*
X168145747Y-77179400D01*
X167997853Y-77179400D01*
X167852800Y-77150547D01*
X167716163Y-77093951D01*
X167593193Y-77011785D01*
X167488615Y-76907207D01*
X167406449Y-76784237D01*
X167349853Y-76647600D01*
X167321000Y-76502547D01*
X167321000Y-76354653D01*
X167349853Y-76209600D01*
X167406449Y-76072963D01*
X167488615Y-75949993D01*
X167593193Y-75845415D01*
X167716163Y-75763249D01*
X167852800Y-75706653D01*
X167997853Y-75677800D01*
X168145747Y-75677800D01*
X168290800Y-75706653D01*
G37*
G36*
X179014966Y-74502261D02*
G01*
X179150309Y-74529182D01*
X179341541Y-74608393D01*
X179513646Y-74723390D01*
X179660010Y-74869754D01*
X179775007Y-75041859D01*
X179854218Y-75233091D01*
X179854218Y-75233093D01*
X179887904Y-75402440D01*
X179894600Y-75436106D01*
X179894600Y-75643094D01*
X179854218Y-75846109D01*
X179775007Y-76037341D01*
X179660010Y-76209446D01*
X179513646Y-76355810D01*
X179341541Y-76470807D01*
X179150309Y-76550018D01*
X179081871Y-76563631D01*
X178947295Y-76590400D01*
X178740305Y-76590400D01*
X178605729Y-76563631D01*
X178537291Y-76550018D01*
X178346059Y-76470807D01*
X178173954Y-76355810D01*
X178027590Y-76209446D01*
X177912593Y-76037341D01*
X177833382Y-75846109D01*
X177793000Y-75643094D01*
X177793000Y-75436106D01*
X177799697Y-75402440D01*
X177833382Y-75233093D01*
X177833382Y-75233091D01*
X177912593Y-75041859D01*
X178027590Y-74869754D01*
X178173954Y-74723390D01*
X178346059Y-74608393D01*
X178537291Y-74529182D01*
X178672634Y-74502261D01*
X178740305Y-74488800D01*
X178947295Y-74488800D01*
X179014966Y-74502261D01*
G37*
G36*
X185514966Y-74502261D02*
G01*
X185650309Y-74529182D01*
X185841541Y-74608393D01*
X186013646Y-74723390D01*
X186160010Y-74869754D01*
X186275007Y-75041859D01*
X186354218Y-75233091D01*
X186354218Y-75233093D01*
X186387904Y-75402440D01*
X186394600Y-75436106D01*
X186394600Y-75643094D01*
X186354218Y-75846109D01*
X186275007Y-76037341D01*
X186160010Y-76209446D01*
X186013646Y-76355810D01*
X185841541Y-76470807D01*
X185650309Y-76550018D01*
X185581871Y-76563631D01*
X185447295Y-76590400D01*
X185240305Y-76590400D01*
X185105729Y-76563631D01*
X185037291Y-76550018D01*
X184846059Y-76470807D01*
X184673954Y-76355810D01*
X184527590Y-76209446D01*
X184412593Y-76037341D01*
X184333382Y-75846109D01*
X184293000Y-75643094D01*
X184293000Y-75436106D01*
X184299697Y-75402440D01*
X184333382Y-75233093D01*
X184333382Y-75233091D01*
X184412593Y-75041859D01*
X184527590Y-74869754D01*
X184673954Y-74723390D01*
X184846059Y-74608393D01*
X185037291Y-74529182D01*
X185172634Y-74502261D01*
X185240305Y-74488800D01*
X185447295Y-74488800D01*
X185514966Y-74502261D01*
G37*
G36*
X162809638Y-75509030D02*
G01*
X162809641Y-75509031D01*
X162809640Y-75509031D01*
X162881288Y-75538708D01*
X162945769Y-75581793D01*
X163000607Y-75636631D01*
X163043692Y-75701112D01*
X163064677Y-75751775D01*
X163073370Y-75772762D01*
X163088500Y-75848824D01*
X163088500Y-75926376D01*
X163073370Y-76002438D01*
X163073369Y-76002440D01*
X163043692Y-76074088D01*
X163000607Y-76138569D01*
X162945769Y-76193407D01*
X162881288Y-76236492D01*
X162830625Y-76257477D01*
X162809638Y-76266170D01*
X162733576Y-76281300D01*
X162656024Y-76281300D01*
X162579962Y-76266170D01*
X162558975Y-76257477D01*
X162508312Y-76236492D01*
X162443831Y-76193407D01*
X162388993Y-76138569D01*
X162345908Y-76074088D01*
X162316231Y-76002440D01*
X162316230Y-76002438D01*
X162301100Y-75926376D01*
X162301100Y-75848824D01*
X162316230Y-75772762D01*
X162324923Y-75751775D01*
X162345908Y-75701112D01*
X162388993Y-75636631D01*
X162443831Y-75581793D01*
X162508312Y-75538708D01*
X162579960Y-75509031D01*
X162579959Y-75509031D01*
X162579962Y-75509030D01*
X162656024Y-75493900D01*
X162733576Y-75493900D01*
X162809638Y-75509030D01*
G37*
G36*
X161909638Y-75509030D02*
G01*
X161909641Y-75509031D01*
X161909640Y-75509031D01*
X161981288Y-75538708D01*
X162045769Y-75581793D01*
X162100607Y-75636631D01*
X162143692Y-75701112D01*
X162164677Y-75751775D01*
X162173370Y-75772762D01*
X162188500Y-75848824D01*
X162188500Y-75926376D01*
X162173370Y-76002438D01*
X162173369Y-76002440D01*
X162143692Y-76074088D01*
X162100607Y-76138569D01*
X162045769Y-76193407D01*
X161981288Y-76236492D01*
X161930625Y-76257477D01*
X161909638Y-76266170D01*
X161833576Y-76281300D01*
X161756024Y-76281300D01*
X161679962Y-76266170D01*
X161658975Y-76257477D01*
X161608312Y-76236492D01*
X161543831Y-76193407D01*
X161488993Y-76138569D01*
X161445908Y-76074088D01*
X161416231Y-76002440D01*
X161416230Y-76002438D01*
X161401100Y-75926376D01*
X161401100Y-75848824D01*
X161416230Y-75772762D01*
X161424923Y-75751775D01*
X161445908Y-75701112D01*
X161488993Y-75636631D01*
X161543831Y-75581793D01*
X161608312Y-75538708D01*
X161679960Y-75509031D01*
X161679959Y-75509031D01*
X161679962Y-75509030D01*
X161756024Y-75493900D01*
X161833576Y-75493900D01*
X161909638Y-75509030D01*
G37*
G36*
X156980262Y-74443456D02*
G01*
X157139647Y-74509476D01*
X157283090Y-74605321D01*
X157405079Y-74727310D01*
X157500924Y-74870753D01*
X157566944Y-75030138D01*
X157600600Y-75199341D01*
X157600600Y-75371859D01*
X157566944Y-75541062D01*
X157500924Y-75700447D01*
X157405079Y-75843890D01*
X157283090Y-75965879D01*
X157139647Y-76061724D01*
X156980262Y-76127744D01*
X156811059Y-76161400D01*
X156638541Y-76161400D01*
X156469338Y-76127744D01*
X156309953Y-76061724D01*
X156166510Y-75965879D01*
X156044521Y-75843890D01*
X155948676Y-75700447D01*
X155882656Y-75541062D01*
X155849000Y-75371859D01*
X155849000Y-75199341D01*
X155882656Y-75030138D01*
X155948676Y-74870753D01*
X156044521Y-74727310D01*
X156166510Y-74605321D01*
X156309953Y-74509476D01*
X156469338Y-74443456D01*
X156638541Y-74409800D01*
X156811059Y-74409800D01*
X156980262Y-74443456D01*
G37*
G36*
X160500047Y-74707888D02*
G01*
X160609386Y-74753178D01*
X160707788Y-74818928D01*
X160791472Y-74902612D01*
X160857222Y-75001014D01*
X160902512Y-75110353D01*
X160925600Y-75226426D01*
X160925600Y-75344774D01*
X160902512Y-75460847D01*
X160857222Y-75570186D01*
X160791472Y-75668588D01*
X160707788Y-75752272D01*
X160609386Y-75818022D01*
X160500047Y-75863312D01*
X160383974Y-75886400D01*
X160265626Y-75886400D01*
X160149553Y-75863312D01*
X160040214Y-75818022D01*
X159941812Y-75752272D01*
X159858128Y-75668588D01*
X159792378Y-75570186D01*
X159747088Y-75460847D01*
X159724000Y-75344774D01*
X159724000Y-75226426D01*
X159747088Y-75110353D01*
X159792378Y-75001014D01*
X159858128Y-74902612D01*
X159941812Y-74818928D01*
X160040214Y-74753178D01*
X160149553Y-74707888D01*
X160265626Y-74684800D01*
X160383974Y-74684800D01*
X160500047Y-74707888D01*
G37*
G36*
X147509638Y-74909030D02*
G01*
X147509641Y-74909031D01*
X147509640Y-74909031D01*
X147581288Y-74938708D01*
X147645769Y-74981793D01*
X147700607Y-75036631D01*
X147743692Y-75101112D01*
X147764677Y-75151775D01*
X147773370Y-75172762D01*
X147788500Y-75248824D01*
X147788500Y-75326376D01*
X147773370Y-75402438D01*
X147773369Y-75402440D01*
X147743692Y-75474088D01*
X147700607Y-75538569D01*
X147645769Y-75593407D01*
X147581288Y-75636492D01*
X147530625Y-75657477D01*
X147509638Y-75666170D01*
X147433576Y-75681300D01*
X147356024Y-75681300D01*
X147279962Y-75666170D01*
X147258975Y-75657477D01*
X147208312Y-75636492D01*
X147143831Y-75593407D01*
X147088993Y-75538569D01*
X147045908Y-75474088D01*
X147016231Y-75402440D01*
X147016230Y-75402438D01*
X147001100Y-75326376D01*
X147001100Y-75248824D01*
X147016230Y-75172762D01*
X147024923Y-75151775D01*
X147045908Y-75101112D01*
X147088993Y-75036631D01*
X147143831Y-74981793D01*
X147208312Y-74938708D01*
X147279960Y-74909031D01*
X147279959Y-74909031D01*
X147279962Y-74909030D01*
X147356024Y-74893900D01*
X147433576Y-74893900D01*
X147509638Y-74909030D01*
G37*
G36*
X147509638Y-74009030D02*
G01*
X147509641Y-74009031D01*
X147509640Y-74009031D01*
X147581288Y-74038708D01*
X147645769Y-74081793D01*
X147700607Y-74136631D01*
X147743692Y-74201112D01*
X147743692Y-74201113D01*
X147773370Y-74272762D01*
X147788500Y-74348824D01*
X147788500Y-74426376D01*
X147773370Y-74502438D01*
X147773369Y-74502440D01*
X147743692Y-74574088D01*
X147700607Y-74638569D01*
X147645769Y-74693407D01*
X147581288Y-74736492D01*
X147541001Y-74753179D01*
X147509638Y-74766170D01*
X147433576Y-74781300D01*
X147356024Y-74781300D01*
X147279962Y-74766170D01*
X147248599Y-74753179D01*
X147208312Y-74736492D01*
X147143831Y-74693407D01*
X147088993Y-74638569D01*
X147045908Y-74574088D01*
X147016231Y-74502440D01*
X147016230Y-74502438D01*
X147001100Y-74426376D01*
X147001100Y-74348824D01*
X147016230Y-74272762D01*
X147045908Y-74201113D01*
X147045908Y-74201112D01*
X147088993Y-74136631D01*
X147143831Y-74081793D01*
X147208312Y-74038708D01*
X147279960Y-74009031D01*
X147279959Y-74009031D01*
X147279962Y-74009030D01*
X147356024Y-73993900D01*
X147433576Y-73993900D01*
X147509638Y-74009030D01*
G37*
G36*
X139871969Y-73070495D02*
G01*
X140026805Y-73134631D01*
X140166154Y-73227740D01*
X140284660Y-73346246D01*
X140377769Y-73485595D01*
X140441905Y-73640431D01*
X140474600Y-73804803D01*
X140474600Y-73972397D01*
X140441905Y-74136769D01*
X140377769Y-74291605D01*
X140284660Y-74430954D01*
X140166154Y-74549460D01*
X140026805Y-74642569D01*
X139871969Y-74706705D01*
X139707597Y-74739400D01*
X139540003Y-74739400D01*
X139375631Y-74706705D01*
X139220795Y-74642569D01*
X139081446Y-74549460D01*
X138962940Y-74430954D01*
X138869831Y-74291605D01*
X138805695Y-74136769D01*
X138773000Y-73972397D01*
X138773000Y-73804803D01*
X138805695Y-73640431D01*
X138869831Y-73485595D01*
X138962940Y-73346246D01*
X139081446Y-73227740D01*
X139220795Y-73134631D01*
X139375631Y-73070495D01*
X139540003Y-73037800D01*
X139707597Y-73037800D01*
X139871969Y-73070495D01*
G37*
G36*
X142371969Y-73070495D02*
G01*
X142526805Y-73134631D01*
X142666154Y-73227740D01*
X142784660Y-73346246D01*
X142877769Y-73485595D01*
X142941905Y-73640431D01*
X142974600Y-73804803D01*
X142974600Y-73972397D01*
X142941905Y-74136769D01*
X142877769Y-74291605D01*
X142784660Y-74430954D01*
X142666154Y-74549460D01*
X142526805Y-74642569D01*
X142371969Y-74706705D01*
X142207597Y-74739400D01*
X142040003Y-74739400D01*
X141875631Y-74706705D01*
X141720795Y-74642569D01*
X141581446Y-74549460D01*
X141462940Y-74430954D01*
X141369831Y-74291605D01*
X141305695Y-74136769D01*
X141273000Y-73972397D01*
X141273000Y-73804803D01*
X141305695Y-73640431D01*
X141369831Y-73485595D01*
X141462940Y-73346246D01*
X141581446Y-73227740D01*
X141720795Y-73134631D01*
X141875631Y-73070495D01*
X142040003Y-73037800D01*
X142207597Y-73037800D01*
X142371969Y-73070495D01*
G37*
G36*
X119566554Y-72387417D02*
G01*
X119730489Y-72455321D01*
X119878027Y-72553903D01*
X120003497Y-72679373D01*
X120102079Y-72826911D01*
X120169983Y-72990846D01*
X120204600Y-73164879D01*
X120204600Y-73342321D01*
X120169983Y-73516354D01*
X120102079Y-73680289D01*
X120003497Y-73827827D01*
X119878027Y-73953297D01*
X119730489Y-74051879D01*
X119566554Y-74119783D01*
X119392521Y-74154400D01*
X119215079Y-74154400D01*
X119041046Y-74119783D01*
X118877111Y-74051879D01*
X118729573Y-73953297D01*
X118604103Y-73827827D01*
X118505521Y-73680289D01*
X118437617Y-73516354D01*
X118403000Y-73342321D01*
X118403000Y-73164879D01*
X118437617Y-72990846D01*
X118505521Y-72826911D01*
X118604103Y-72679373D01*
X118729573Y-72553903D01*
X118877111Y-72455321D01*
X119041046Y-72387417D01*
X119215079Y-72352800D01*
X119392521Y-72352800D01*
X119566554Y-72387417D01*
G37*
G36*
X122744600Y-74154400D02*
G01*
X120943000Y-74154400D01*
X120943000Y-72352800D01*
X122744600Y-72352800D01*
X122744600Y-74154400D01*
G37*
G36*
X157109638Y-72809030D02*
G01*
X157109641Y-72809031D01*
X157109640Y-72809031D01*
X157181288Y-72838708D01*
X157245769Y-72881793D01*
X157300607Y-72936631D01*
X157343692Y-73001112D01*
X157343692Y-73001113D01*
X157373370Y-73072762D01*
X157388500Y-73148824D01*
X157388500Y-73226376D01*
X157373370Y-73302438D01*
X157373369Y-73302440D01*
X157343692Y-73374088D01*
X157300607Y-73438569D01*
X157245769Y-73493407D01*
X157181288Y-73536492D01*
X157130625Y-73557477D01*
X157109638Y-73566170D01*
X157033576Y-73581300D01*
X156956024Y-73581300D01*
X156879962Y-73566170D01*
X156858975Y-73557477D01*
X156808312Y-73536492D01*
X156743831Y-73493407D01*
X156688993Y-73438569D01*
X156645908Y-73374088D01*
X156616231Y-73302440D01*
X156616230Y-73302438D01*
X156601100Y-73226376D01*
X156601100Y-73148824D01*
X156616230Y-73072762D01*
X156645908Y-73001113D01*
X156645908Y-73001112D01*
X156688993Y-72936631D01*
X156743831Y-72881793D01*
X156808312Y-72838708D01*
X156879960Y-72809031D01*
X156879959Y-72809031D01*
X156879962Y-72809030D01*
X156956024Y-72793900D01*
X157033576Y-72793900D01*
X157109638Y-72809030D01*
G37*
G36*
X151943470Y-72432838D02*
G01*
X152014308Y-72454326D01*
X152079593Y-72489222D01*
X152136816Y-72536184D01*
X152183778Y-72593407D01*
X152218674Y-72658692D01*
X152240162Y-72729530D01*
X152245600Y-72784742D01*
X152245600Y-73171658D01*
X152240162Y-73226870D01*
X152218674Y-73297708D01*
X152183778Y-73362993D01*
X152162742Y-73388625D01*
X152136816Y-73420216D01*
X152079594Y-73467177D01*
X152079592Y-73467178D01*
X152014307Y-73502074D01*
X151943469Y-73523562D01*
X151869800Y-73530818D01*
X151796130Y-73523562D01*
X151725292Y-73502074D01*
X151660007Y-73467178D01*
X151602784Y-73420216D01*
X151564927Y-73374087D01*
X151555823Y-73362994D01*
X151544773Y-73342321D01*
X151520926Y-73297707D01*
X151499438Y-73226869D01*
X151495055Y-73182368D01*
X151493125Y-73172664D01*
X151489336Y-73163518D01*
X151483836Y-73155287D01*
X151476836Y-73148287D01*
X151468605Y-73142787D01*
X151459459Y-73138998D01*
X151449750Y-73137067D01*
X151439850Y-73137067D01*
X151430141Y-73138998D01*
X151420995Y-73142787D01*
X151412764Y-73148287D01*
X151405764Y-73155287D01*
X151400264Y-73163518D01*
X151396475Y-73172664D01*
X151394545Y-73182367D01*
X151390162Y-73226870D01*
X151368674Y-73297708D01*
X151333778Y-73362993D01*
X151312742Y-73388625D01*
X151286816Y-73420216D01*
X151229594Y-73467177D01*
X151229592Y-73467178D01*
X151164307Y-73502074D01*
X151093469Y-73523562D01*
X151019800Y-73530818D01*
X150946130Y-73523562D01*
X150875292Y-73502074D01*
X150810007Y-73467178D01*
X150752784Y-73420216D01*
X150714927Y-73374087D01*
X150705823Y-73362994D01*
X150694773Y-73342321D01*
X150670926Y-73297707D01*
X150649438Y-73226869D01*
X150645055Y-73182368D01*
X150643125Y-73172664D01*
X150639336Y-73163518D01*
X150633836Y-73155287D01*
X150626836Y-73148287D01*
X150618605Y-73142787D01*
X150609459Y-73138998D01*
X150599750Y-73137067D01*
X150589850Y-73137067D01*
X150580141Y-73138998D01*
X150570995Y-73142787D01*
X150562764Y-73148287D01*
X150555764Y-73155287D01*
X150550264Y-73163518D01*
X150546475Y-73172664D01*
X150544545Y-73182367D01*
X150540162Y-73226870D01*
X150518674Y-73297708D01*
X150483778Y-73362993D01*
X150462742Y-73388625D01*
X150436816Y-73420216D01*
X150379594Y-73467177D01*
X150379592Y-73467178D01*
X150314307Y-73502074D01*
X150243469Y-73523562D01*
X150169800Y-73530818D01*
X150096130Y-73523562D01*
X150025292Y-73502074D01*
X149960007Y-73467178D01*
X149902784Y-73420216D01*
X149864927Y-73374087D01*
X149855823Y-73362994D01*
X149844773Y-73342321D01*
X149820926Y-73297707D01*
X149799438Y-73226869D01*
X149795055Y-73182368D01*
X149793125Y-73172664D01*
X149789336Y-73163518D01*
X149783836Y-73155287D01*
X149776836Y-73148287D01*
X149768605Y-73142787D01*
X149759459Y-73138998D01*
X149749750Y-73137067D01*
X149739850Y-73137067D01*
X149730141Y-73138998D01*
X149720995Y-73142787D01*
X149712764Y-73148287D01*
X149705764Y-73155287D01*
X149700264Y-73163518D01*
X149696475Y-73172664D01*
X149694545Y-73182367D01*
X149690162Y-73226870D01*
X149668674Y-73297708D01*
X149633778Y-73362993D01*
X149612742Y-73388625D01*
X149586816Y-73420216D01*
X149529594Y-73467177D01*
X149529592Y-73467178D01*
X149464307Y-73502074D01*
X149393469Y-73523562D01*
X149319800Y-73530818D01*
X149246130Y-73523562D01*
X149175292Y-73502074D01*
X149110007Y-73467178D01*
X149052784Y-73420216D01*
X149014927Y-73374087D01*
X149005823Y-73362994D01*
X148994773Y-73342321D01*
X148970926Y-73297707D01*
X148949438Y-73226869D01*
X148945055Y-73182368D01*
X148943125Y-73172664D01*
X148939336Y-73163518D01*
X148933836Y-73155287D01*
X148926836Y-73148287D01*
X148918605Y-73142787D01*
X148909459Y-73138998D01*
X148899750Y-73137067D01*
X148889850Y-73137067D01*
X148880141Y-73138998D01*
X148870995Y-73142787D01*
X148862764Y-73148287D01*
X148855764Y-73155287D01*
X148850264Y-73163518D01*
X148846475Y-73172664D01*
X148844545Y-73182367D01*
X148840162Y-73226870D01*
X148818674Y-73297708D01*
X148783778Y-73362993D01*
X148762742Y-73388625D01*
X148736816Y-73420216D01*
X148679594Y-73467177D01*
X148679592Y-73467178D01*
X148614307Y-73502074D01*
X148543469Y-73523562D01*
X148469800Y-73530818D01*
X148396130Y-73523562D01*
X148325292Y-73502074D01*
X148260007Y-73467178D01*
X148202784Y-73420216D01*
X148164927Y-73374087D01*
X148155823Y-73362994D01*
X148144773Y-73342321D01*
X148120926Y-73297707D01*
X148099438Y-73226869D01*
X148095055Y-73182368D01*
X148093125Y-73172664D01*
X148089336Y-73163518D01*
X148083836Y-73155287D01*
X148076836Y-73148287D01*
X148068605Y-73142787D01*
X148059459Y-73138998D01*
X148049750Y-73137067D01*
X148039850Y-73137067D01*
X148030141Y-73138998D01*
X148020995Y-73142787D01*
X148012764Y-73148287D01*
X148005764Y-73155287D01*
X148000264Y-73163518D01*
X147996475Y-73172664D01*
X147994545Y-73182367D01*
X147990162Y-73226870D01*
X147968674Y-73297708D01*
X147933778Y-73362993D01*
X147912742Y-73388625D01*
X147886816Y-73420216D01*
X147829594Y-73467177D01*
X147829592Y-73467178D01*
X147764307Y-73502074D01*
X147693469Y-73523562D01*
X147619800Y-73530818D01*
X147546130Y-73523562D01*
X147475292Y-73502074D01*
X147410007Y-73467178D01*
X147352784Y-73420216D01*
X147314927Y-73374087D01*
X147305823Y-73362994D01*
X147294773Y-73342321D01*
X147270926Y-73297707D01*
X147249438Y-73226869D01*
X147245055Y-73182368D01*
X147243125Y-73172664D01*
X147239336Y-73163518D01*
X147233836Y-73155287D01*
X147226836Y-73148287D01*
X147218605Y-73142787D01*
X147209459Y-73138998D01*
X147199750Y-73137067D01*
X147189850Y-73137067D01*
X147180141Y-73138998D01*
X147170995Y-73142787D01*
X147162764Y-73148287D01*
X147155764Y-73155287D01*
X147150264Y-73163518D01*
X147146475Y-73172664D01*
X147144545Y-73182367D01*
X147140162Y-73226870D01*
X147118674Y-73297708D01*
X147083778Y-73362993D01*
X147062742Y-73388625D01*
X147036816Y-73420216D01*
X146979594Y-73467177D01*
X146979592Y-73467178D01*
X146914307Y-73502074D01*
X146843469Y-73523562D01*
X146769800Y-73530818D01*
X146696130Y-73523562D01*
X146625292Y-73502074D01*
X146560007Y-73467178D01*
X146502784Y-73420216D01*
X146464927Y-73374087D01*
X146455823Y-73362994D01*
X146444773Y-73342321D01*
X146420926Y-73297707D01*
X146399438Y-73226869D01*
X146395055Y-73182368D01*
X146393125Y-73172664D01*
X146389336Y-73163518D01*
X146383836Y-73155287D01*
X146376836Y-73148287D01*
X146368605Y-73142787D01*
X146359459Y-73138998D01*
X146349750Y-73137067D01*
X146339850Y-73137067D01*
X146330141Y-73138998D01*
X146320995Y-73142787D01*
X146312764Y-73148287D01*
X146305764Y-73155287D01*
X146300264Y-73163518D01*
X146296475Y-73172664D01*
X146294545Y-73182367D01*
X146290162Y-73226870D01*
X146268674Y-73297708D01*
X146233778Y-73362993D01*
X146212742Y-73388625D01*
X146186816Y-73420216D01*
X146129594Y-73467177D01*
X146129592Y-73467178D01*
X146064307Y-73502074D01*
X145993469Y-73523562D01*
X145919800Y-73530818D01*
X145846130Y-73523562D01*
X145775292Y-73502074D01*
X145710007Y-73467178D01*
X145652784Y-73420216D01*
X145614927Y-73374087D01*
X145605823Y-73362994D01*
X145594773Y-73342321D01*
X145570926Y-73297707D01*
X145549438Y-73226869D01*
X145544000Y-73171657D01*
X145544000Y-72784742D01*
X145549438Y-72729530D01*
X145570927Y-72658692D01*
X145605823Y-72593407D01*
X145652785Y-72536184D01*
X145710008Y-72489222D01*
X145775293Y-72454326D01*
X145846131Y-72432838D01*
X145919800Y-72425582D01*
X145993470Y-72432838D01*
X146064308Y-72454326D01*
X146129593Y-72489222D01*
X146186816Y-72536184D01*
X146233778Y-72593407D01*
X146268674Y-72658692D01*
X146290162Y-72729530D01*
X146294545Y-72774031D01*
X146296475Y-72783735D01*
X146300264Y-72792881D01*
X146305764Y-72801112D01*
X146312764Y-72808112D01*
X146320995Y-72813612D01*
X146330141Y-72817401D01*
X146339850Y-72819332D01*
X146349750Y-72819332D01*
X146359459Y-72817401D01*
X146368605Y-72813612D01*
X146376836Y-72808112D01*
X146383836Y-72801112D01*
X146389336Y-72792881D01*
X146393125Y-72783735D01*
X146395055Y-72774031D01*
X146399438Y-72729530D01*
X146420927Y-72658692D01*
X146455823Y-72593407D01*
X146502785Y-72536184D01*
X146560008Y-72489222D01*
X146625293Y-72454326D01*
X146696131Y-72432838D01*
X146769800Y-72425582D01*
X146843470Y-72432838D01*
X146914308Y-72454326D01*
X146979593Y-72489222D01*
X147036816Y-72536184D01*
X147083778Y-72593407D01*
X147118674Y-72658692D01*
X147140162Y-72729530D01*
X147144545Y-72774031D01*
X147146475Y-72783735D01*
X147150264Y-72792881D01*
X147155764Y-72801112D01*
X147162764Y-72808112D01*
X147170995Y-72813612D01*
X147180141Y-72817401D01*
X147189850Y-72819332D01*
X147199750Y-72819332D01*
X147209459Y-72817401D01*
X147218605Y-72813612D01*
X147226836Y-72808112D01*
X147233836Y-72801112D01*
X147239336Y-72792881D01*
X147243125Y-72783735D01*
X147245055Y-72774031D01*
X147249438Y-72729530D01*
X147270927Y-72658692D01*
X147305823Y-72593407D01*
X147352785Y-72536184D01*
X147410008Y-72489222D01*
X147475293Y-72454326D01*
X147546131Y-72432838D01*
X147619800Y-72425582D01*
X147693470Y-72432838D01*
X147764308Y-72454326D01*
X147829593Y-72489222D01*
X147886816Y-72536184D01*
X147933778Y-72593407D01*
X147968674Y-72658692D01*
X147990162Y-72729530D01*
X147994545Y-72774031D01*
X147996475Y-72783735D01*
X148000264Y-72792881D01*
X148005764Y-72801112D01*
X148012764Y-72808112D01*
X148020995Y-72813612D01*
X148030141Y-72817401D01*
X148039850Y-72819332D01*
X148049750Y-72819332D01*
X148059459Y-72817401D01*
X148068605Y-72813612D01*
X148076836Y-72808112D01*
X148083836Y-72801112D01*
X148089336Y-72792881D01*
X148093125Y-72783735D01*
X148095055Y-72774031D01*
X148099438Y-72729530D01*
X148120927Y-72658692D01*
X148155823Y-72593407D01*
X148202785Y-72536184D01*
X148260008Y-72489222D01*
X148325293Y-72454326D01*
X148396131Y-72432838D01*
X148469800Y-72425582D01*
X148543470Y-72432838D01*
X148614308Y-72454326D01*
X148679593Y-72489222D01*
X148736816Y-72536184D01*
X148783778Y-72593407D01*
X148818674Y-72658692D01*
X148840162Y-72729530D01*
X148844545Y-72774031D01*
X148846475Y-72783735D01*
X148850264Y-72792881D01*
X148855764Y-72801112D01*
X148862764Y-72808112D01*
X148870995Y-72813612D01*
X148880141Y-72817401D01*
X148889850Y-72819332D01*
X148899750Y-72819332D01*
X148909459Y-72817401D01*
X148918605Y-72813612D01*
X148926836Y-72808112D01*
X148933836Y-72801112D01*
X148939336Y-72792881D01*
X148943125Y-72783735D01*
X148945055Y-72774031D01*
X148949438Y-72729530D01*
X148970927Y-72658692D01*
X149005823Y-72593407D01*
X149052785Y-72536184D01*
X149110008Y-72489222D01*
X149175293Y-72454326D01*
X149246131Y-72432838D01*
X149319800Y-72425582D01*
X149393470Y-72432838D01*
X149464308Y-72454326D01*
X149529593Y-72489222D01*
X149586816Y-72536184D01*
X149633778Y-72593407D01*
X149668674Y-72658692D01*
X149690162Y-72729530D01*
X149694545Y-72774031D01*
X149696475Y-72783735D01*
X149700264Y-72792881D01*
X149705764Y-72801112D01*
X149712764Y-72808112D01*
X149720995Y-72813612D01*
X149730141Y-72817401D01*
X149739850Y-72819332D01*
X149749750Y-72819332D01*
X149759459Y-72817401D01*
X149768605Y-72813612D01*
X149776836Y-72808112D01*
X149783836Y-72801112D01*
X149789336Y-72792881D01*
X149793125Y-72783735D01*
X149795055Y-72774031D01*
X149799438Y-72729530D01*
X149820927Y-72658692D01*
X149855823Y-72593407D01*
X149902785Y-72536184D01*
X149960008Y-72489222D01*
X150025293Y-72454326D01*
X150096131Y-72432838D01*
X150169800Y-72425582D01*
X150243470Y-72432838D01*
X150314308Y-72454326D01*
X150379593Y-72489222D01*
X150436816Y-72536184D01*
X150483778Y-72593407D01*
X150518674Y-72658692D01*
X150540162Y-72729530D01*
X150544545Y-72774031D01*
X150546475Y-72783735D01*
X150550264Y-72792881D01*
X150555764Y-72801112D01*
X150562764Y-72808112D01*
X150570995Y-72813612D01*
X150580141Y-72817401D01*
X150589850Y-72819332D01*
X150599750Y-72819332D01*
X150609459Y-72817401D01*
X150618605Y-72813612D01*
X150626836Y-72808112D01*
X150633836Y-72801112D01*
X150639336Y-72792881D01*
X150643125Y-72783735D01*
X150645055Y-72774031D01*
X150649438Y-72729530D01*
X150670927Y-72658692D01*
X150705823Y-72593407D01*
X150752785Y-72536184D01*
X150810008Y-72489222D01*
X150875293Y-72454326D01*
X150946131Y-72432838D01*
X151019800Y-72425582D01*
X151093470Y-72432838D01*
X151164308Y-72454326D01*
X151229593Y-72489222D01*
X151286816Y-72536184D01*
X151333778Y-72593407D01*
X151368674Y-72658692D01*
X151390162Y-72729530D01*
X151394545Y-72774031D01*
X151396475Y-72783735D01*
X151400264Y-72792881D01*
X151405764Y-72801112D01*
X151412764Y-72808112D01*
X151420995Y-72813612D01*
X151430141Y-72817401D01*
X151439850Y-72819332D01*
X151449750Y-72819332D01*
X151459459Y-72817401D01*
X151468605Y-72813612D01*
X151476836Y-72808112D01*
X151483836Y-72801112D01*
X151489336Y-72792881D01*
X151493125Y-72783735D01*
X151495055Y-72774031D01*
X151499438Y-72729530D01*
X151520927Y-72658692D01*
X151555823Y-72593407D01*
X151602785Y-72536184D01*
X151660008Y-72489222D01*
X151725293Y-72454326D01*
X151796131Y-72432838D01*
X151869800Y-72425582D01*
X151943470Y-72432838D01*
G37*
G36*
X129443385Y-71848574D02*
G01*
X129589121Y-71908940D01*
X129720280Y-71996578D01*
X129831822Y-72108120D01*
X129919460Y-72239279D01*
X129979826Y-72385015D01*
X130010600Y-72539728D01*
X130010600Y-72697472D01*
X129979826Y-72852185D01*
X129919460Y-72997921D01*
X129831822Y-73129080D01*
X129720280Y-73240622D01*
X129589121Y-73328260D01*
X129443385Y-73388626D01*
X129288672Y-73419400D01*
X129130928Y-73419400D01*
X128976215Y-73388626D01*
X128830479Y-73328260D01*
X128699320Y-73240622D01*
X128587778Y-73129080D01*
X128500140Y-72997921D01*
X128439774Y-72852185D01*
X128409000Y-72697472D01*
X128409000Y-72539728D01*
X128439774Y-72385015D01*
X128500140Y-72239279D01*
X128587778Y-72108120D01*
X128699320Y-71996578D01*
X128830479Y-71908940D01*
X128976215Y-71848574D01*
X129130928Y-71817800D01*
X129288672Y-71817800D01*
X129443385Y-71848574D01*
G37*
G36*
X134323385Y-71848574D02*
G01*
X134469121Y-71908940D01*
X134600280Y-71996578D01*
X134711822Y-72108120D01*
X134799460Y-72239279D01*
X134859826Y-72385015D01*
X134890600Y-72539728D01*
X134890600Y-72697472D01*
X134859826Y-72852185D01*
X134799460Y-72997921D01*
X134711822Y-73129080D01*
X134600280Y-73240622D01*
X134469121Y-73328260D01*
X134323385Y-73388626D01*
X134168672Y-73419400D01*
X134010928Y-73419400D01*
X133856215Y-73388626D01*
X133710479Y-73328260D01*
X133579320Y-73240622D01*
X133467778Y-73129080D01*
X133380140Y-72997921D01*
X133319774Y-72852185D01*
X133289000Y-72697472D01*
X133289000Y-72539728D01*
X133319774Y-72385015D01*
X133380140Y-72239279D01*
X133467778Y-72108120D01*
X133579320Y-71996578D01*
X133710479Y-71908940D01*
X133856215Y-71848574D01*
X134010928Y-71817800D01*
X134168672Y-71817800D01*
X134323385Y-71848574D01*
G37*
G36*
X153317974Y-70754646D02*
G01*
X153412375Y-70783283D01*
X153412378Y-70783284D01*
X153445121Y-70800786D01*
X153499376Y-70829785D01*
X153575632Y-70892368D01*
X153638215Y-70968624D01*
X153653890Y-70997951D01*
X153684716Y-71055622D01*
X153684717Y-71055625D01*
X153713354Y-71150026D01*
X153720600Y-71223598D01*
X153720600Y-72772802D01*
X153713354Y-72846374D01*
X153702609Y-72881793D01*
X153684716Y-72940778D01*
X153667214Y-72973521D01*
X153638215Y-73027776D01*
X153575632Y-73104032D01*
X153499376Y-73166615D01*
X153445120Y-73195615D01*
X153412377Y-73213116D01*
X153412374Y-73213117D01*
X153317973Y-73241754D01*
X153219800Y-73251423D01*
X153121626Y-73241754D01*
X153027225Y-73213117D01*
X153027222Y-73213116D01*
X152994479Y-73195614D01*
X152940224Y-73166615D01*
X152863968Y-73104032D01*
X152801385Y-73027776D01*
X152754885Y-72940778D01*
X152754884Y-72940777D01*
X152728010Y-72852187D01*
X152726246Y-72846373D01*
X152719000Y-72772801D01*
X152719001Y-71223598D01*
X152726247Y-71150026D01*
X152754884Y-71055625D01*
X152754885Y-71055622D01*
X152785711Y-70997951D01*
X152801386Y-70968624D01*
X152863969Y-70892368D01*
X152940225Y-70829785D01*
X152994480Y-70800786D01*
X153027223Y-70783284D01*
X153027226Y-70783283D01*
X153121627Y-70754646D01*
X153219800Y-70744977D01*
X153317974Y-70754646D01*
G37*
G36*
X144667974Y-70754646D02*
G01*
X144762375Y-70783283D01*
X144762378Y-70783284D01*
X144795121Y-70800786D01*
X144849376Y-70829785D01*
X144925632Y-70892368D01*
X144988215Y-70968624D01*
X145003890Y-70997951D01*
X145034716Y-71055622D01*
X145034717Y-71055625D01*
X145063354Y-71150026D01*
X145070600Y-71223598D01*
X145070600Y-72772802D01*
X145063354Y-72846374D01*
X145052609Y-72881793D01*
X145034716Y-72940778D01*
X145017214Y-72973521D01*
X144988215Y-73027776D01*
X144925632Y-73104032D01*
X144849376Y-73166615D01*
X144795120Y-73195615D01*
X144762377Y-73213116D01*
X144762374Y-73213117D01*
X144667973Y-73241754D01*
X144569800Y-73251423D01*
X144471626Y-73241754D01*
X144377225Y-73213117D01*
X144377222Y-73213116D01*
X144344479Y-73195614D01*
X144290224Y-73166615D01*
X144213968Y-73104032D01*
X144151385Y-73027776D01*
X144104885Y-72940778D01*
X144104884Y-72940777D01*
X144078010Y-72852187D01*
X144076246Y-72846373D01*
X144069000Y-72772801D01*
X144069001Y-71223598D01*
X144076247Y-71150026D01*
X144104884Y-71055625D01*
X144104885Y-71055622D01*
X144135711Y-70997951D01*
X144151386Y-70968624D01*
X144213969Y-70892368D01*
X144290225Y-70829785D01*
X144344480Y-70800786D01*
X144377223Y-70783284D01*
X144377226Y-70783283D01*
X144471627Y-70754646D01*
X144569800Y-70744977D01*
X144667974Y-70754646D01*
G37*
G36*
X151088470Y-71107838D02*
G01*
X151159308Y-71129326D01*
X151224593Y-71164222D01*
X151281816Y-71211184D01*
X151328778Y-71268407D01*
X151363674Y-71333692D01*
X151385162Y-71404530D01*
X151390600Y-71459742D01*
X151390600Y-71846658D01*
X151385162Y-71901870D01*
X151363674Y-71972708D01*
X151328778Y-72037993D01*
X151293237Y-72081300D01*
X151281816Y-72095216D01*
X151224594Y-72142177D01*
X151224592Y-72142178D01*
X151159307Y-72177074D01*
X151088469Y-72198562D01*
X151014800Y-72205818D01*
X150941130Y-72198562D01*
X150870292Y-72177074D01*
X150805007Y-72142178D01*
X150747784Y-72095216D01*
X150743832Y-72090400D01*
X150700823Y-72037994D01*
X150695648Y-72028312D01*
X150665926Y-71972707D01*
X150644438Y-71901869D01*
X150640055Y-71857368D01*
X150638125Y-71847664D01*
X150634336Y-71838518D01*
X150628836Y-71830287D01*
X150621836Y-71823287D01*
X150613605Y-71817787D01*
X150604459Y-71813998D01*
X150594750Y-71812067D01*
X150584850Y-71812067D01*
X150575141Y-71813998D01*
X150565995Y-71817787D01*
X150557764Y-71823287D01*
X150550764Y-71830287D01*
X150545264Y-71838518D01*
X150541475Y-71847664D01*
X150539545Y-71857367D01*
X150535162Y-71901870D01*
X150513674Y-71972708D01*
X150478778Y-72037993D01*
X150443237Y-72081300D01*
X150431816Y-72095216D01*
X150374594Y-72142177D01*
X150374592Y-72142178D01*
X150309307Y-72177074D01*
X150238469Y-72198562D01*
X150164800Y-72205818D01*
X150091130Y-72198562D01*
X150020292Y-72177074D01*
X149955007Y-72142178D01*
X149897784Y-72095216D01*
X149893832Y-72090400D01*
X149850823Y-72037994D01*
X149845648Y-72028312D01*
X149815926Y-71972707D01*
X149794438Y-71901869D01*
X149790055Y-71857368D01*
X149788125Y-71847664D01*
X149784336Y-71838518D01*
X149778836Y-71830287D01*
X149771836Y-71823287D01*
X149763605Y-71817787D01*
X149754459Y-71813998D01*
X149744750Y-71812067D01*
X149734850Y-71812067D01*
X149725141Y-71813998D01*
X149715995Y-71817787D01*
X149707764Y-71823287D01*
X149700764Y-71830287D01*
X149695264Y-71838518D01*
X149691475Y-71847664D01*
X149689545Y-71857367D01*
X149685162Y-71901870D01*
X149663674Y-71972708D01*
X149628778Y-72037993D01*
X149593237Y-72081300D01*
X149581816Y-72095216D01*
X149524594Y-72142177D01*
X149524592Y-72142178D01*
X149459307Y-72177074D01*
X149388469Y-72198562D01*
X149314800Y-72205818D01*
X149241130Y-72198562D01*
X149170292Y-72177074D01*
X149105007Y-72142178D01*
X149047784Y-72095216D01*
X149043832Y-72090400D01*
X149000823Y-72037994D01*
X148995648Y-72028312D01*
X148965926Y-71972707D01*
X148944438Y-71901869D01*
X148940055Y-71857368D01*
X148938125Y-71847664D01*
X148934336Y-71838518D01*
X148928836Y-71830287D01*
X148921836Y-71823287D01*
X148913605Y-71817787D01*
X148904459Y-71813998D01*
X148894750Y-71812067D01*
X148884850Y-71812067D01*
X148875141Y-71813998D01*
X148865995Y-71817787D01*
X148857764Y-71823287D01*
X148850764Y-71830287D01*
X148845264Y-71838518D01*
X148841475Y-71847664D01*
X148839545Y-71857367D01*
X148835162Y-71901870D01*
X148813674Y-71972708D01*
X148778778Y-72037993D01*
X148743237Y-72081300D01*
X148731816Y-72095216D01*
X148674594Y-72142177D01*
X148674592Y-72142178D01*
X148609307Y-72177074D01*
X148538469Y-72198562D01*
X148464800Y-72205818D01*
X148391130Y-72198562D01*
X148320292Y-72177074D01*
X148255007Y-72142178D01*
X148197784Y-72095216D01*
X148193832Y-72090400D01*
X148150823Y-72037994D01*
X148145648Y-72028312D01*
X148115926Y-71972707D01*
X148094438Y-71901869D01*
X148090055Y-71857368D01*
X148088125Y-71847664D01*
X148084336Y-71838518D01*
X148078836Y-71830287D01*
X148071836Y-71823287D01*
X148063605Y-71817787D01*
X148054459Y-71813998D01*
X148044750Y-71812067D01*
X148034850Y-71812067D01*
X148025141Y-71813998D01*
X148015995Y-71817787D01*
X148007764Y-71823287D01*
X148000764Y-71830287D01*
X147995264Y-71838518D01*
X147991475Y-71847664D01*
X147989545Y-71857367D01*
X147985162Y-71901870D01*
X147963674Y-71972708D01*
X147928778Y-72037993D01*
X147893237Y-72081300D01*
X147881816Y-72095216D01*
X147824594Y-72142177D01*
X147824592Y-72142178D01*
X147759307Y-72177074D01*
X147688469Y-72198562D01*
X147614800Y-72205818D01*
X147541130Y-72198562D01*
X147470292Y-72177074D01*
X147405007Y-72142178D01*
X147347784Y-72095216D01*
X147343832Y-72090400D01*
X147300823Y-72037994D01*
X147295648Y-72028312D01*
X147265926Y-71972707D01*
X147244438Y-71901869D01*
X147240055Y-71857368D01*
X147238125Y-71847664D01*
X147234336Y-71838518D01*
X147228836Y-71830287D01*
X147221836Y-71823287D01*
X147213605Y-71817787D01*
X147204459Y-71813998D01*
X147194750Y-71812067D01*
X147184850Y-71812067D01*
X147175141Y-71813998D01*
X147165995Y-71817787D01*
X147157764Y-71823287D01*
X147150764Y-71830287D01*
X147145264Y-71838518D01*
X147141475Y-71847664D01*
X147139545Y-71857367D01*
X147135162Y-71901870D01*
X147113674Y-71972708D01*
X147078778Y-72037993D01*
X147043237Y-72081300D01*
X147031816Y-72095216D01*
X146974594Y-72142177D01*
X146974592Y-72142178D01*
X146909307Y-72177074D01*
X146838469Y-72198562D01*
X146764800Y-72205818D01*
X146691130Y-72198562D01*
X146620292Y-72177074D01*
X146555007Y-72142178D01*
X146497784Y-72095216D01*
X146493832Y-72090400D01*
X146450823Y-72037994D01*
X146445648Y-72028312D01*
X146415926Y-71972707D01*
X146394438Y-71901869D01*
X146390055Y-71857368D01*
X146388125Y-71847664D01*
X146384336Y-71838518D01*
X146378836Y-71830287D01*
X146371836Y-71823287D01*
X146363605Y-71817787D01*
X146354459Y-71813998D01*
X146344750Y-71812067D01*
X146334850Y-71812067D01*
X146325141Y-71813998D01*
X146315995Y-71817787D01*
X146307764Y-71823287D01*
X146300764Y-71830287D01*
X146295264Y-71838518D01*
X146291475Y-71847664D01*
X146289545Y-71857367D01*
X146285162Y-71901870D01*
X146263674Y-71972708D01*
X146228778Y-72037993D01*
X146193237Y-72081300D01*
X146181816Y-72095216D01*
X146124594Y-72142177D01*
X146124592Y-72142178D01*
X146059307Y-72177074D01*
X145988469Y-72198562D01*
X145914800Y-72205818D01*
X145841130Y-72198562D01*
X145770292Y-72177074D01*
X145705007Y-72142178D01*
X145647784Y-72095216D01*
X145643832Y-72090400D01*
X145600823Y-72037994D01*
X145595648Y-72028312D01*
X145565926Y-71972707D01*
X145544438Y-71901869D01*
X145539000Y-71846657D01*
X145539000Y-71459742D01*
X145544438Y-71404530D01*
X145565927Y-71333692D01*
X145600823Y-71268407D01*
X145647785Y-71211184D01*
X145705008Y-71164222D01*
X145770293Y-71129326D01*
X145841131Y-71107838D01*
X145914800Y-71100582D01*
X145988470Y-71107838D01*
X146059308Y-71129326D01*
X146124593Y-71164222D01*
X146181816Y-71211184D01*
X146228778Y-71268407D01*
X146263674Y-71333692D01*
X146285162Y-71404530D01*
X146289545Y-71449031D01*
X146291475Y-71458735D01*
X146295264Y-71467881D01*
X146300764Y-71476112D01*
X146307764Y-71483112D01*
X146315995Y-71488612D01*
X146325141Y-71492401D01*
X146334850Y-71494332D01*
X146344750Y-71494332D01*
X146354459Y-71492401D01*
X146363605Y-71488612D01*
X146371836Y-71483112D01*
X146378836Y-71476112D01*
X146384336Y-71467881D01*
X146388125Y-71458735D01*
X146390055Y-71449031D01*
X146394438Y-71404530D01*
X146415927Y-71333692D01*
X146450823Y-71268407D01*
X146497785Y-71211184D01*
X146555008Y-71164222D01*
X146620293Y-71129326D01*
X146691131Y-71107838D01*
X146764800Y-71100582D01*
X146838470Y-71107838D01*
X146909308Y-71129326D01*
X146974593Y-71164222D01*
X147031816Y-71211184D01*
X147078778Y-71268407D01*
X147113674Y-71333692D01*
X147135162Y-71404530D01*
X147139545Y-71449031D01*
X147141475Y-71458735D01*
X147145264Y-71467881D01*
X147150764Y-71476112D01*
X147157764Y-71483112D01*
X147165995Y-71488612D01*
X147175141Y-71492401D01*
X147184850Y-71494332D01*
X147194750Y-71494332D01*
X147204459Y-71492401D01*
X147213605Y-71488612D01*
X147221836Y-71483112D01*
X147228836Y-71476112D01*
X147234336Y-71467881D01*
X147238125Y-71458735D01*
X147240055Y-71449031D01*
X147244438Y-71404530D01*
X147265927Y-71333692D01*
X147300823Y-71268407D01*
X147347785Y-71211184D01*
X147405008Y-71164222D01*
X147470293Y-71129326D01*
X147541131Y-71107838D01*
X147614800Y-71100582D01*
X147688470Y-71107838D01*
X147759308Y-71129326D01*
X147824593Y-71164222D01*
X147881816Y-71211184D01*
X147928778Y-71268407D01*
X147963674Y-71333692D01*
X147985162Y-71404530D01*
X147989545Y-71449031D01*
X147991475Y-71458735D01*
X147995264Y-71467881D01*
X148000764Y-71476112D01*
X148007764Y-71483112D01*
X148015995Y-71488612D01*
X148025141Y-71492401D01*
X148034850Y-71494332D01*
X148044750Y-71494332D01*
X148054459Y-71492401D01*
X148063605Y-71488612D01*
X148071836Y-71483112D01*
X148078836Y-71476112D01*
X148084336Y-71467881D01*
X148088125Y-71458735D01*
X148090055Y-71449031D01*
X148094438Y-71404530D01*
X148115927Y-71333692D01*
X148150823Y-71268407D01*
X148197785Y-71211184D01*
X148255008Y-71164222D01*
X148320293Y-71129326D01*
X148391131Y-71107838D01*
X148464800Y-71100582D01*
X148538470Y-71107838D01*
X148609308Y-71129326D01*
X148674593Y-71164222D01*
X148731816Y-71211184D01*
X148778778Y-71268407D01*
X148813674Y-71333692D01*
X148835162Y-71404530D01*
X148839545Y-71449031D01*
X148841475Y-71458735D01*
X148845264Y-71467881D01*
X148850764Y-71476112D01*
X148857764Y-71483112D01*
X148865995Y-71488612D01*
X148875141Y-71492401D01*
X148884850Y-71494332D01*
X148894750Y-71494332D01*
X148904459Y-71492401D01*
X148913605Y-71488612D01*
X148921836Y-71483112D01*
X148928836Y-71476112D01*
X148934336Y-71467881D01*
X148938125Y-71458735D01*
X148940055Y-71449031D01*
X148944438Y-71404530D01*
X148965927Y-71333692D01*
X149000823Y-71268407D01*
X149047785Y-71211184D01*
X149105008Y-71164222D01*
X149170293Y-71129326D01*
X149241131Y-71107838D01*
X149314800Y-71100582D01*
X149388470Y-71107838D01*
X149459308Y-71129326D01*
X149524593Y-71164222D01*
X149581816Y-71211184D01*
X149628778Y-71268407D01*
X149663674Y-71333692D01*
X149685162Y-71404530D01*
X149689545Y-71449031D01*
X149691475Y-71458735D01*
X149695264Y-71467881D01*
X149700764Y-71476112D01*
X149707764Y-71483112D01*
X149715995Y-71488612D01*
X149725141Y-71492401D01*
X149734850Y-71494332D01*
X149744750Y-71494332D01*
X149754459Y-71492401D01*
X149763605Y-71488612D01*
X149771836Y-71483112D01*
X149778836Y-71476112D01*
X149784336Y-71467881D01*
X149788125Y-71458735D01*
X149790055Y-71449031D01*
X149794438Y-71404530D01*
X149815927Y-71333692D01*
X149850823Y-71268407D01*
X149897785Y-71211184D01*
X149955008Y-71164222D01*
X150020293Y-71129326D01*
X150091131Y-71107838D01*
X150164800Y-71100582D01*
X150238470Y-71107838D01*
X150309308Y-71129326D01*
X150374593Y-71164222D01*
X150431816Y-71211184D01*
X150478778Y-71268407D01*
X150513674Y-71333692D01*
X150535162Y-71404530D01*
X150539545Y-71449031D01*
X150541475Y-71458735D01*
X150545264Y-71467881D01*
X150550764Y-71476112D01*
X150557764Y-71483112D01*
X150565995Y-71488612D01*
X150575141Y-71492401D01*
X150584850Y-71494332D01*
X150594750Y-71494332D01*
X150604459Y-71492401D01*
X150613605Y-71488612D01*
X150621836Y-71483112D01*
X150628836Y-71476112D01*
X150634336Y-71467881D01*
X150638125Y-71458735D01*
X150640055Y-71449031D01*
X150644438Y-71404530D01*
X150665927Y-71333692D01*
X150700823Y-71268407D01*
X150747785Y-71211184D01*
X150805008Y-71164222D01*
X150870293Y-71129326D01*
X150941131Y-71107838D01*
X151014800Y-71100582D01*
X151088470Y-71107838D01*
G37*
G36*
X151943470Y-71107838D02*
G01*
X152014308Y-71129326D01*
X152079593Y-71164222D01*
X152136816Y-71211184D01*
X152183778Y-71268407D01*
X152218674Y-71333692D01*
X152240162Y-71404530D01*
X152245600Y-71459742D01*
X152245600Y-71846658D01*
X152240162Y-71901870D01*
X152218674Y-71972708D01*
X152183778Y-72037993D01*
X152148237Y-72081300D01*
X152136816Y-72095216D01*
X152079594Y-72142177D01*
X152079592Y-72142178D01*
X152014307Y-72177074D01*
X151943469Y-72198562D01*
X151869800Y-72205818D01*
X151796130Y-72198562D01*
X151725292Y-72177074D01*
X151660007Y-72142178D01*
X151602784Y-72095216D01*
X151598832Y-72090400D01*
X151555823Y-72037994D01*
X151550648Y-72028312D01*
X151520926Y-71972707D01*
X151499438Y-71901869D01*
X151494000Y-71846657D01*
X151494000Y-71459742D01*
X151499438Y-71404530D01*
X151520927Y-71333692D01*
X151555823Y-71268407D01*
X151602785Y-71211184D01*
X151660008Y-71164222D01*
X151725293Y-71129326D01*
X151796131Y-71107838D01*
X151869800Y-71100582D01*
X151943470Y-71107838D01*
G37*
G36*
X185508698Y-70001014D02*
G01*
X185650309Y-70029182D01*
X185841541Y-70108393D01*
X186013646Y-70223390D01*
X186160010Y-70369754D01*
X186275007Y-70541859D01*
X186354218Y-70733091D01*
X186373452Y-70829786D01*
X186394600Y-70936105D01*
X186394600Y-71143095D01*
X186390397Y-71164223D01*
X186354218Y-71346109D01*
X186275007Y-71537341D01*
X186160010Y-71709446D01*
X186013646Y-71855810D01*
X185841541Y-71970807D01*
X185650309Y-72050018D01*
X185514966Y-72076939D01*
X185447295Y-72090400D01*
X185240305Y-72090400D01*
X185172634Y-72076939D01*
X185037291Y-72050018D01*
X184846059Y-71970807D01*
X184673954Y-71855810D01*
X184527590Y-71709446D01*
X184412593Y-71537341D01*
X184333382Y-71346109D01*
X184297203Y-71164223D01*
X184293000Y-71143095D01*
X184293000Y-70936105D01*
X184314148Y-70829786D01*
X184333382Y-70733091D01*
X184412593Y-70541859D01*
X184527590Y-70369754D01*
X184673954Y-70223390D01*
X184846059Y-70108393D01*
X185037291Y-70029182D01*
X185178902Y-70001014D01*
X185240305Y-69988800D01*
X185447295Y-69988800D01*
X185508698Y-70001014D01*
G37*
G36*
X179008698Y-70001014D02*
G01*
X179150309Y-70029182D01*
X179341541Y-70108393D01*
X179513646Y-70223390D01*
X179660010Y-70369754D01*
X179775007Y-70541859D01*
X179854218Y-70733091D01*
X179873452Y-70829786D01*
X179894600Y-70936105D01*
X179894600Y-71143095D01*
X179890397Y-71164223D01*
X179854218Y-71346109D01*
X179775007Y-71537341D01*
X179660010Y-71709446D01*
X179513646Y-71855810D01*
X179341541Y-71970807D01*
X179150309Y-72050018D01*
X179014966Y-72076939D01*
X178947295Y-72090400D01*
X178740305Y-72090400D01*
X178672634Y-72076939D01*
X178537291Y-72050018D01*
X178346059Y-71970807D01*
X178173954Y-71855810D01*
X178027590Y-71709446D01*
X177912593Y-71537341D01*
X177833382Y-71346109D01*
X177797203Y-71164223D01*
X177793000Y-71143095D01*
X177793000Y-70936105D01*
X177814148Y-70829786D01*
X177833382Y-70733091D01*
X177912593Y-70541859D01*
X178027590Y-70369754D01*
X178173954Y-70223390D01*
X178346059Y-70108393D01*
X178537291Y-70029182D01*
X178678902Y-70001014D01*
X178740305Y-69988800D01*
X178947295Y-69988800D01*
X179008698Y-70001014D01*
G37*
G36*
X160409638Y-71309030D02*
G01*
X160409641Y-71309031D01*
X160409640Y-71309031D01*
X160481288Y-71338708D01*
X160545769Y-71381793D01*
X160600607Y-71436631D01*
X160643692Y-71501112D01*
X160658698Y-71537340D01*
X160673370Y-71572762D01*
X160688500Y-71648824D01*
X160688500Y-71726376D01*
X160673370Y-71802438D01*
X160668582Y-71813998D01*
X160643692Y-71874088D01*
X160600607Y-71938569D01*
X160545769Y-71993407D01*
X160481288Y-72036492D01*
X160430625Y-72057477D01*
X160409638Y-72066170D01*
X160333576Y-72081300D01*
X160256024Y-72081300D01*
X160179962Y-72066170D01*
X160158975Y-72057477D01*
X160108312Y-72036492D01*
X160043831Y-71993407D01*
X159988993Y-71938569D01*
X159945908Y-71874088D01*
X159921018Y-71813998D01*
X159916230Y-71802438D01*
X159901100Y-71726376D01*
X159901100Y-71648824D01*
X159916230Y-71572762D01*
X159930902Y-71537340D01*
X159945908Y-71501112D01*
X159988993Y-71436631D01*
X160043831Y-71381793D01*
X160108312Y-71338708D01*
X160179960Y-71309031D01*
X160179959Y-71309031D01*
X160179962Y-71309030D01*
X160256024Y-71293900D01*
X160333576Y-71293900D01*
X160409638Y-71309030D01*
G37*
G36*
X175529800Y-70372653D02*
G01*
X175666437Y-70429249D01*
X175789407Y-70511415D01*
X175893985Y-70615993D01*
X175976151Y-70738963D01*
X176032747Y-70875600D01*
X176061600Y-71020653D01*
X176061600Y-71168547D01*
X176032747Y-71313600D01*
X175976151Y-71450237D01*
X175893985Y-71573207D01*
X175789407Y-71677785D01*
X175666437Y-71759951D01*
X175529800Y-71816547D01*
X175384747Y-71845400D01*
X175236853Y-71845400D01*
X175091800Y-71816547D01*
X174955163Y-71759951D01*
X174832193Y-71677785D01*
X174727615Y-71573207D01*
X174645449Y-71450237D01*
X174588853Y-71313600D01*
X174560000Y-71168547D01*
X174560000Y-71020653D01*
X174588853Y-70875600D01*
X174645449Y-70738963D01*
X174727615Y-70615993D01*
X174832193Y-70511415D01*
X174955163Y-70429249D01*
X175091800Y-70372653D01*
X175236853Y-70343800D01*
X175384747Y-70343800D01*
X175529800Y-70372653D01*
G37*
G36*
X122106554Y-69847417D02*
G01*
X122270489Y-69915321D01*
X122418027Y-70013903D01*
X122543497Y-70139373D01*
X122642079Y-70286911D01*
X122709983Y-70450846D01*
X122744600Y-70624879D01*
X122744600Y-70802321D01*
X122709983Y-70976354D01*
X122642079Y-71140289D01*
X122543497Y-71287827D01*
X122418027Y-71413297D01*
X122270489Y-71511879D01*
X122106554Y-71579783D01*
X121932521Y-71614400D01*
X121755079Y-71614400D01*
X121581046Y-71579783D01*
X121417111Y-71511879D01*
X121269573Y-71413297D01*
X121144103Y-71287827D01*
X121045521Y-71140289D01*
X120977617Y-70976354D01*
X120943000Y-70802321D01*
X120943000Y-70624879D01*
X120977617Y-70450846D01*
X121045521Y-70286911D01*
X121144103Y-70139373D01*
X121269573Y-70013903D01*
X121417111Y-69915321D01*
X121581046Y-69847417D01*
X121755079Y-69812800D01*
X121932521Y-69812800D01*
X122106554Y-69847417D01*
G37*
G36*
X119566554Y-69847417D02*
G01*
X119730489Y-69915321D01*
X119878027Y-70013903D01*
X120003497Y-70139373D01*
X120102079Y-70286911D01*
X120169983Y-70450846D01*
X120204600Y-70624879D01*
X120204600Y-70802321D01*
X120169983Y-70976354D01*
X120102079Y-71140289D01*
X120003497Y-71287827D01*
X119878027Y-71413297D01*
X119730489Y-71511879D01*
X119566554Y-71579783D01*
X119392521Y-71614400D01*
X119215079Y-71614400D01*
X119041046Y-71579783D01*
X118877111Y-71511879D01*
X118729573Y-71413297D01*
X118604103Y-71287827D01*
X118505521Y-71140289D01*
X118437617Y-70976354D01*
X118403000Y-70802321D01*
X118403000Y-70624879D01*
X118437617Y-70450846D01*
X118505521Y-70286911D01*
X118604103Y-70139373D01*
X118729573Y-70013903D01*
X118877111Y-69915321D01*
X119041046Y-69847417D01*
X119215079Y-69812800D01*
X119392521Y-69812800D01*
X119566554Y-69847417D01*
G37*
G36*
X166000600Y-71161400D02*
G01*
X164249000Y-71161400D01*
X164249000Y-69409800D01*
X166000600Y-69409800D01*
X166000600Y-71161400D01*
G37*
G36*
X156080262Y-69443456D02*
G01*
X156239647Y-69509476D01*
X156383090Y-69605321D01*
X156505079Y-69727310D01*
X156600924Y-69870753D01*
X156666944Y-70030138D01*
X156700600Y-70199341D01*
X156700600Y-70371859D01*
X156666944Y-70541062D01*
X156600924Y-70700447D01*
X156505079Y-70843890D01*
X156383090Y-70965879D01*
X156239647Y-71061724D01*
X156080262Y-71127744D01*
X155911059Y-71161400D01*
X155738541Y-71161400D01*
X155569338Y-71127744D01*
X155409953Y-71061724D01*
X155266510Y-70965879D01*
X155144521Y-70843890D01*
X155048676Y-70700447D01*
X154982656Y-70541062D01*
X154949000Y-70371859D01*
X154949000Y-70199341D01*
X154982656Y-70030138D01*
X155048676Y-69870753D01*
X155144521Y-69727310D01*
X155266510Y-69605321D01*
X155409953Y-69509476D01*
X155569338Y-69443456D01*
X155738541Y-69409800D01*
X155911059Y-69409800D01*
X156080262Y-69443456D01*
G37*
G36*
X173116800Y-69610653D02*
G01*
X173253437Y-69667249D01*
X173376407Y-69749415D01*
X173480985Y-69853993D01*
X173563151Y-69976963D01*
X173619747Y-70113600D01*
X173648600Y-70258653D01*
X173648600Y-70406547D01*
X173619747Y-70551600D01*
X173563151Y-70688237D01*
X173480985Y-70811207D01*
X173376407Y-70915785D01*
X173253437Y-70997951D01*
X173116800Y-71054547D01*
X172971747Y-71083400D01*
X172823853Y-71083400D01*
X172678800Y-71054547D01*
X172542163Y-70997951D01*
X172419193Y-70915785D01*
X172314615Y-70811207D01*
X172232449Y-70688237D01*
X172175853Y-70551600D01*
X172147000Y-70406547D01*
X172147000Y-70258653D01*
X172175853Y-70113600D01*
X172232449Y-69976963D01*
X172314615Y-69853993D01*
X172419193Y-69749415D01*
X172542163Y-69667249D01*
X172678800Y-69610653D01*
X172823853Y-69581800D01*
X172971747Y-69581800D01*
X173116800Y-69610653D01*
G37*
G36*
X160500047Y-69707888D02*
G01*
X160609386Y-69753178D01*
X160707788Y-69818928D01*
X160791472Y-69902612D01*
X160857222Y-70001014D01*
X160902512Y-70110353D01*
X160925600Y-70226426D01*
X160925600Y-70344774D01*
X160902512Y-70460847D01*
X160857222Y-70570186D01*
X160791472Y-70668588D01*
X160707788Y-70752272D01*
X160609386Y-70818022D01*
X160500047Y-70863312D01*
X160383974Y-70886400D01*
X160265626Y-70886400D01*
X160149553Y-70863312D01*
X160040214Y-70818022D01*
X159941812Y-70752272D01*
X159858128Y-70668588D01*
X159792378Y-70570186D01*
X159747088Y-70460847D01*
X159724000Y-70344774D01*
X159724000Y-70226426D01*
X159747088Y-70110353D01*
X159792378Y-70001014D01*
X159858128Y-69902612D01*
X159941812Y-69818928D01*
X160040214Y-69753178D01*
X160149553Y-69707888D01*
X160265626Y-69684800D01*
X160383974Y-69684800D01*
X160500047Y-69707888D01*
G37*
G36*
X170703800Y-68848653D02*
G01*
X170840437Y-68905249D01*
X170963407Y-68987415D01*
X171067985Y-69091993D01*
X171150151Y-69214963D01*
X171206747Y-69351600D01*
X171235600Y-69496653D01*
X171235600Y-69644547D01*
X171206747Y-69789600D01*
X171150151Y-69926237D01*
X171067985Y-70049207D01*
X170963407Y-70153785D01*
X170840437Y-70235951D01*
X170703800Y-70292547D01*
X170558747Y-70321400D01*
X170410853Y-70321400D01*
X170265800Y-70292547D01*
X170129163Y-70235951D01*
X170006193Y-70153785D01*
X169901615Y-70049207D01*
X169819449Y-69926237D01*
X169762853Y-69789600D01*
X169734000Y-69644547D01*
X169734000Y-69496653D01*
X169762853Y-69351600D01*
X169819449Y-69214963D01*
X169901615Y-69091993D01*
X170006193Y-68987415D01*
X170129163Y-68905249D01*
X170265800Y-68848653D01*
X170410853Y-68819800D01*
X170558747Y-68819800D01*
X170703800Y-68848653D01*
G37*
G36*
X141020131Y-68666810D02*
G01*
X141138569Y-68715868D01*
X141245161Y-68787091D01*
X141335809Y-68877739D01*
X141407032Y-68984331D01*
X141456090Y-69102769D01*
X141481100Y-69228502D01*
X141481100Y-69356698D01*
X141456090Y-69482431D01*
X141407032Y-69600869D01*
X141335809Y-69707461D01*
X141245161Y-69798109D01*
X141138569Y-69869332D01*
X141020131Y-69918390D01*
X140894398Y-69943400D01*
X140766202Y-69943400D01*
X140640469Y-69918390D01*
X140522031Y-69869332D01*
X140415439Y-69798109D01*
X140324791Y-69707461D01*
X140253568Y-69600869D01*
X140204510Y-69482431D01*
X140179500Y-69356698D01*
X140179500Y-69228502D01*
X140204510Y-69102769D01*
X140253568Y-68984331D01*
X140324791Y-68877739D01*
X140415439Y-68787091D01*
X140522031Y-68715868D01*
X140640469Y-68666810D01*
X140766202Y-68641800D01*
X140894398Y-68641800D01*
X141020131Y-68666810D01*
G37*
G36*
X168290800Y-68086653D02*
G01*
X168427437Y-68143249D01*
X168550407Y-68225415D01*
X168654985Y-68329993D01*
X168737151Y-68452963D01*
X168793747Y-68589600D01*
X168822600Y-68734653D01*
X168822600Y-68882547D01*
X168793747Y-69027600D01*
X168737151Y-69164237D01*
X168654985Y-69287207D01*
X168550407Y-69391785D01*
X168427437Y-69473951D01*
X168290800Y-69530547D01*
X168145747Y-69559400D01*
X167997853Y-69559400D01*
X167852800Y-69530547D01*
X167716163Y-69473951D01*
X167593193Y-69391785D01*
X167488615Y-69287207D01*
X167406449Y-69164237D01*
X167349853Y-69027600D01*
X167321000Y-68882547D01*
X167321000Y-68734653D01*
X167349853Y-68589600D01*
X167406449Y-68452963D01*
X167488615Y-68329993D01*
X167593193Y-68225415D01*
X167716163Y-68143249D01*
X167852800Y-68086653D01*
X167997853Y-68057800D01*
X168145747Y-68057800D01*
X168290800Y-68086653D01*
G37*
G36*
X153317974Y-67724646D02*
G01*
X153412375Y-67753283D01*
X153412378Y-67753284D01*
X153445121Y-67770786D01*
X153499376Y-67799785D01*
X153575632Y-67862368D01*
X153638215Y-67938624D01*
X153661630Y-67982431D01*
X153684716Y-68025622D01*
X153684717Y-68025625D01*
X153713354Y-68120026D01*
X153720600Y-68193598D01*
X153720600Y-69042802D01*
X153713354Y-69116374D01*
X153684717Y-69210774D01*
X153684716Y-69210778D01*
X153682479Y-69214963D01*
X153638215Y-69297776D01*
X153575632Y-69374032D01*
X153499376Y-69436615D01*
X153445120Y-69465615D01*
X153412377Y-69483116D01*
X153412374Y-69483117D01*
X153317973Y-69511754D01*
X153219800Y-69521423D01*
X153121626Y-69511754D01*
X153027225Y-69483117D01*
X153027222Y-69483116D01*
X152994479Y-69465614D01*
X152940224Y-69436615D01*
X152863968Y-69374032D01*
X152801385Y-69297776D01*
X152772385Y-69243520D01*
X152754884Y-69210777D01*
X152740766Y-69164237D01*
X152726246Y-69116373D01*
X152719000Y-69042801D01*
X152719000Y-68193604D01*
X152726247Y-68120023D01*
X152754883Y-68025627D01*
X152763142Y-68010175D01*
X152801386Y-67938624D01*
X152863969Y-67862368D01*
X152940225Y-67799785D01*
X152994480Y-67770786D01*
X153027223Y-67753284D01*
X153027226Y-67753283D01*
X153121627Y-67724646D01*
X153219800Y-67714977D01*
X153317974Y-67724646D01*
G37*
G36*
X144667974Y-67724646D02*
G01*
X144762375Y-67753283D01*
X144762378Y-67753284D01*
X144795121Y-67770786D01*
X144849376Y-67799785D01*
X144925632Y-67862368D01*
X144988215Y-67938624D01*
X145011630Y-67982431D01*
X145034716Y-68025622D01*
X145034717Y-68025625D01*
X145063354Y-68120026D01*
X145070600Y-68193598D01*
X145070600Y-69042802D01*
X145063354Y-69116374D01*
X145034717Y-69210774D01*
X145034716Y-69210778D01*
X145032479Y-69214963D01*
X144988215Y-69297776D01*
X144925632Y-69374032D01*
X144849376Y-69436615D01*
X144795120Y-69465615D01*
X144762377Y-69483116D01*
X144762374Y-69483117D01*
X144667973Y-69511754D01*
X144569800Y-69521423D01*
X144471626Y-69511754D01*
X144377225Y-69483117D01*
X144377222Y-69483116D01*
X144344479Y-69465614D01*
X144290224Y-69436615D01*
X144213968Y-69374032D01*
X144151385Y-69297776D01*
X144122385Y-69243520D01*
X144104884Y-69210777D01*
X144090766Y-69164237D01*
X144076246Y-69116373D01*
X144069000Y-69042801D01*
X144069000Y-68193604D01*
X144076247Y-68120023D01*
X144104883Y-68025627D01*
X144113142Y-68010175D01*
X144151386Y-67938624D01*
X144213969Y-67862368D01*
X144290225Y-67799785D01*
X144344480Y-67770786D01*
X144377223Y-67753284D01*
X144377226Y-67753283D01*
X144471627Y-67724646D01*
X144569800Y-67714977D01*
X144667974Y-67724646D01*
G37*
G36*
X119566554Y-67307417D02*
G01*
X119730489Y-67375321D01*
X119878027Y-67473903D01*
X120003497Y-67599373D01*
X120102079Y-67746911D01*
X120169983Y-67910846D01*
X120204600Y-68084879D01*
X120204600Y-68262321D01*
X120169983Y-68436354D01*
X120102079Y-68600289D01*
X120003497Y-68747827D01*
X119878027Y-68873297D01*
X119730489Y-68971879D01*
X119566554Y-69039783D01*
X119392521Y-69074400D01*
X119215079Y-69074400D01*
X119041046Y-69039783D01*
X118877111Y-68971879D01*
X118729573Y-68873297D01*
X118604103Y-68747827D01*
X118505521Y-68600289D01*
X118437617Y-68436354D01*
X118403000Y-68262321D01*
X118403000Y-68084879D01*
X118437617Y-67910846D01*
X118505521Y-67746911D01*
X118604103Y-67599373D01*
X118729573Y-67473903D01*
X118877111Y-67375321D01*
X119041046Y-67307417D01*
X119215079Y-67272800D01*
X119392521Y-67272800D01*
X119566554Y-67307417D01*
G37*
G36*
X122106554Y-67307417D02*
G01*
X122270489Y-67375321D01*
X122418027Y-67473903D01*
X122543497Y-67599373D01*
X122642079Y-67746911D01*
X122709983Y-67910846D01*
X122744600Y-68084879D01*
X122744600Y-68262321D01*
X122709983Y-68436354D01*
X122642079Y-68600289D01*
X122543497Y-68747827D01*
X122418027Y-68873297D01*
X122270489Y-68971879D01*
X122106554Y-69039783D01*
X121932521Y-69074400D01*
X121755079Y-69074400D01*
X121581046Y-69039783D01*
X121417111Y-68971879D01*
X121269573Y-68873297D01*
X121144103Y-68747827D01*
X121045521Y-68600289D01*
X120977617Y-68436354D01*
X120943000Y-68262321D01*
X120943000Y-68084879D01*
X120977617Y-67910846D01*
X121045521Y-67746911D01*
X121144103Y-67599373D01*
X121269573Y-67473903D01*
X121417111Y-67375321D01*
X121581046Y-67307417D01*
X121755079Y-67272800D01*
X121932521Y-67272800D01*
X122106554Y-67307417D01*
G37*
G36*
X126917969Y-66974495D02*
G01*
X127072805Y-67038631D01*
X127212154Y-67131740D01*
X127330660Y-67250246D01*
X127423769Y-67389595D01*
X127487905Y-67544431D01*
X127520600Y-67708803D01*
X127520600Y-67876397D01*
X127487905Y-68040769D01*
X127423769Y-68195605D01*
X127330660Y-68334954D01*
X127212154Y-68453460D01*
X127072805Y-68546569D01*
X126917969Y-68610705D01*
X126753597Y-68643400D01*
X126586003Y-68643400D01*
X126421631Y-68610705D01*
X126266795Y-68546569D01*
X126127446Y-68453460D01*
X126008940Y-68334954D01*
X125915831Y-68195605D01*
X125851695Y-68040769D01*
X125819000Y-67876397D01*
X125819000Y-67708803D01*
X125851695Y-67544431D01*
X125915831Y-67389595D01*
X126008940Y-67250246D01*
X126127446Y-67131740D01*
X126266795Y-67038631D01*
X126421631Y-66974495D01*
X126586003Y-66941800D01*
X126753597Y-66941800D01*
X126917969Y-66974495D01*
G37*
G36*
X129417969Y-66974495D02*
G01*
X129572805Y-67038631D01*
X129712154Y-67131740D01*
X129830660Y-67250246D01*
X129923769Y-67389595D01*
X129987905Y-67544431D01*
X130020600Y-67708803D01*
X130020600Y-67876397D01*
X129987905Y-68040769D01*
X129923769Y-68195605D01*
X129830660Y-68334954D01*
X129712154Y-68453460D01*
X129572805Y-68546569D01*
X129417969Y-68610705D01*
X129253597Y-68643400D01*
X129086003Y-68643400D01*
X128921631Y-68610705D01*
X128766795Y-68546569D01*
X128627446Y-68453460D01*
X128508940Y-68334954D01*
X128415831Y-68195605D01*
X128351695Y-68040769D01*
X128319000Y-67876397D01*
X128319000Y-67708803D01*
X128351695Y-67544431D01*
X128415831Y-67389595D01*
X128508940Y-67250246D01*
X128627446Y-67131740D01*
X128766795Y-67038631D01*
X128921631Y-66974495D01*
X129086003Y-66941800D01*
X129253597Y-66941800D01*
X129417969Y-66974495D01*
G37*
G36*
X134323969Y-66974495D02*
G01*
X134478805Y-67038631D01*
X134618154Y-67131740D01*
X134736660Y-67250246D01*
X134829769Y-67389595D01*
X134893905Y-67544431D01*
X134926600Y-67708803D01*
X134926600Y-67876397D01*
X134893905Y-68040769D01*
X134829769Y-68195605D01*
X134736660Y-68334954D01*
X134618154Y-68453460D01*
X134478805Y-68546569D01*
X134323969Y-68610705D01*
X134159597Y-68643400D01*
X133992003Y-68643400D01*
X133827631Y-68610705D01*
X133672795Y-68546569D01*
X133533446Y-68453460D01*
X133414940Y-68334954D01*
X133321831Y-68195605D01*
X133257695Y-68040769D01*
X133225000Y-67876397D01*
X133225000Y-67708803D01*
X133257695Y-67544431D01*
X133321831Y-67389595D01*
X133414940Y-67250246D01*
X133533446Y-67131740D01*
X133672795Y-67038631D01*
X133827631Y-66974495D01*
X133992003Y-66941800D01*
X134159597Y-66941800D01*
X134323969Y-66974495D01*
G37*
G36*
X136823969Y-66974495D02*
G01*
X136978805Y-67038631D01*
X137118154Y-67131740D01*
X137236660Y-67250246D01*
X137329769Y-67389595D01*
X137393905Y-67544431D01*
X137426600Y-67708803D01*
X137426600Y-67876397D01*
X137393905Y-68040769D01*
X137329769Y-68195605D01*
X137236660Y-68334954D01*
X137118154Y-68453460D01*
X136978805Y-68546569D01*
X136823969Y-68610705D01*
X136659597Y-68643400D01*
X136492003Y-68643400D01*
X136327631Y-68610705D01*
X136172795Y-68546569D01*
X136033446Y-68453460D01*
X135914940Y-68334954D01*
X135821831Y-68195605D01*
X135757695Y-68040769D01*
X135725000Y-67876397D01*
X135725000Y-67708803D01*
X135757695Y-67544431D01*
X135821831Y-67389595D01*
X135914940Y-67250246D01*
X136033446Y-67131740D01*
X136172795Y-67038631D01*
X136327631Y-66974495D01*
X136492003Y-66941800D01*
X136659597Y-66941800D01*
X136823969Y-66974495D01*
G37*
G36*
X141020131Y-67166810D02*
G01*
X141138569Y-67215868D01*
X141245161Y-67287091D01*
X141335809Y-67377739D01*
X141407032Y-67484331D01*
X141456090Y-67602769D01*
X141481100Y-67728502D01*
X141481100Y-67856698D01*
X141456090Y-67982431D01*
X141407032Y-68100869D01*
X141335809Y-68207461D01*
X141245161Y-68298109D01*
X141138569Y-68369332D01*
X141020131Y-68418390D01*
X140894398Y-68443400D01*
X140766202Y-68443400D01*
X140640469Y-68418390D01*
X140522031Y-68369332D01*
X140415439Y-68298109D01*
X140324791Y-68207461D01*
X140253568Y-68100869D01*
X140204510Y-67982431D01*
X140179500Y-67856698D01*
X140179500Y-67728502D01*
X140204510Y-67602769D01*
X140253568Y-67484331D01*
X140324791Y-67377739D01*
X140415439Y-67287091D01*
X140522031Y-67215868D01*
X140640469Y-67166810D01*
X140766202Y-67141800D01*
X140894398Y-67141800D01*
X141020131Y-67166810D01*
G37*
G36*
X113516661Y-65766429D02*
G01*
X113670478Y-65797025D01*
X113879909Y-65883774D01*
X114068393Y-66009715D01*
X114228685Y-66170007D01*
X114354626Y-66358491D01*
X114441375Y-66567922D01*
X114485600Y-66790257D01*
X114485600Y-67016943D01*
X114441375Y-67239278D01*
X114354626Y-67448709D01*
X114228685Y-67637193D01*
X114068393Y-67797485D01*
X113879909Y-67923426D01*
X113670478Y-68010175D01*
X113522255Y-68039658D01*
X113448144Y-68054400D01*
X113221456Y-68054400D01*
X113147345Y-68039658D01*
X112999122Y-68010175D01*
X112789691Y-67923426D01*
X112601207Y-67797485D01*
X112440915Y-67637193D01*
X112314974Y-67448709D01*
X112228225Y-67239278D01*
X112184000Y-67016943D01*
X112184000Y-66790257D01*
X112228225Y-66567922D01*
X112314974Y-66358491D01*
X112440915Y-66170007D01*
X112601207Y-66009715D01*
X112789691Y-65883774D01*
X112999122Y-65797025D01*
X113152939Y-65766429D01*
X113221456Y-65752800D01*
X113448144Y-65752800D01*
X113516661Y-65766429D01*
G37*
G36*
X184636661Y-65766429D02*
G01*
X184790478Y-65797025D01*
X184999909Y-65883774D01*
X185188393Y-66009715D01*
X185348685Y-66170007D01*
X185474626Y-66358491D01*
X185561375Y-66567922D01*
X185605600Y-66790257D01*
X185605600Y-67016943D01*
X185561375Y-67239278D01*
X185474626Y-67448709D01*
X185348685Y-67637193D01*
X185188393Y-67797485D01*
X184999909Y-67923426D01*
X184790478Y-68010175D01*
X184642255Y-68039658D01*
X184568144Y-68054400D01*
X184341456Y-68054400D01*
X184267345Y-68039658D01*
X184119122Y-68010175D01*
X183909691Y-67923426D01*
X183721207Y-67797485D01*
X183560915Y-67637193D01*
X183434974Y-67448709D01*
X183348225Y-67239278D01*
X183304000Y-67016943D01*
X183304000Y-66790257D01*
X183348225Y-66567922D01*
X183434974Y-66358491D01*
X183560915Y-66170007D01*
X183721207Y-66009715D01*
X183909691Y-65883774D01*
X184119122Y-65797025D01*
X184272939Y-65766429D01*
X184341456Y-65752800D01*
X184568144Y-65752800D01*
X184636661Y-65766429D01*
G37*
G36*
X151409638Y-66141920D02*
G01*
X151409641Y-66141921D01*
X151409640Y-66141921D01*
X151481288Y-66171598D01*
X151545769Y-66214683D01*
X151600607Y-66269521D01*
X151643692Y-66334002D01*
X151643692Y-66334003D01*
X151673370Y-66405652D01*
X151688500Y-66481714D01*
X151688500Y-66559266D01*
X151673370Y-66635328D01*
X151664677Y-66656315D01*
X151643692Y-66706978D01*
X151600607Y-66771459D01*
X151545769Y-66826297D01*
X151481288Y-66869382D01*
X151430625Y-66890367D01*
X151409638Y-66899060D01*
X151333576Y-66914190D01*
X151256024Y-66914190D01*
X151179962Y-66899060D01*
X151158975Y-66890367D01*
X151108312Y-66869382D01*
X151043831Y-66826297D01*
X150988993Y-66771459D01*
X150945908Y-66706978D01*
X150924923Y-66656315D01*
X150916230Y-66635328D01*
X150901100Y-66559266D01*
X150901100Y-66481714D01*
X150916230Y-66405652D01*
X150945908Y-66334003D01*
X150945908Y-66334002D01*
X150988993Y-66269521D01*
X151043831Y-66214683D01*
X151108312Y-66171598D01*
X151179960Y-66141921D01*
X151179959Y-66141921D01*
X151179962Y-66141920D01*
X151256024Y-66126790D01*
X151333576Y-66126790D01*
X151409638Y-66141920D01*
G37*
G36*
X173240600Y-66865400D02*
G01*
X171539000Y-66865400D01*
X171539000Y-65163800D01*
X173240600Y-65163800D01*
X173240600Y-66865400D01*
G37*
G36*
X167557969Y-65196495D02*
G01*
X167712805Y-65260631D01*
X167852154Y-65353740D01*
X167970660Y-65472246D01*
X168063769Y-65611595D01*
X168127905Y-65766431D01*
X168160600Y-65930803D01*
X168160600Y-66098397D01*
X168127905Y-66262769D01*
X168063769Y-66417605D01*
X167970660Y-66556954D01*
X167852154Y-66675460D01*
X167712805Y-66768569D01*
X167557969Y-66832705D01*
X167393597Y-66865400D01*
X167226003Y-66865400D01*
X167061631Y-66832705D01*
X166906795Y-66768569D01*
X166767446Y-66675460D01*
X166648940Y-66556954D01*
X166555831Y-66417605D01*
X166491695Y-66262769D01*
X166459000Y-66098397D01*
X166459000Y-65930803D01*
X166491695Y-65766431D01*
X166555831Y-65611595D01*
X166648940Y-65472246D01*
X166767446Y-65353740D01*
X166906795Y-65260631D01*
X167061631Y-65196495D01*
X167226003Y-65163800D01*
X167393597Y-65163800D01*
X167557969Y-65196495D01*
G37*
G36*
X180875600Y-66838400D02*
G01*
X179174000Y-66838400D01*
X179174000Y-65136800D01*
X180875600Y-65136800D01*
X180875600Y-66838400D01*
G37*
G36*
X175192969Y-65169495D02*
G01*
X175347805Y-65233631D01*
X175487154Y-65326740D01*
X175605660Y-65445246D01*
X175698769Y-65584595D01*
X175762905Y-65739431D01*
X175795600Y-65903803D01*
X175795600Y-66071397D01*
X175762905Y-66235769D01*
X175698769Y-66390605D01*
X175605660Y-66529954D01*
X175487154Y-66648460D01*
X175347805Y-66741569D01*
X175192969Y-66805705D01*
X175028597Y-66838400D01*
X174861003Y-66838400D01*
X174696631Y-66805705D01*
X174541795Y-66741569D01*
X174402446Y-66648460D01*
X174283940Y-66529954D01*
X174190831Y-66390605D01*
X174126695Y-66235769D01*
X174094000Y-66071397D01*
X174094000Y-65903803D01*
X174126695Y-65739431D01*
X174190831Y-65584595D01*
X174283940Y-65445246D01*
X174402446Y-65326740D01*
X174541795Y-65233631D01*
X174696631Y-65169495D01*
X174861003Y-65136800D01*
X175028597Y-65136800D01*
X175192969Y-65169495D01*
G37*
M02*
