%TF.GenerationSoftware,KiCad,Pcbnew,(5.1.6-0-10_14)*%
%TF.CreationDate,2020-08-01T15:30:54-04:00*%
%TF.ProjectId,pin-check,70696e2d-6368-4656-936b-2e6b69636164,v1.1.0*%
%TF.SameCoordinates,Original*%
%TF.FileFunction,Legend,Top*%
%TF.FilePolarity,Positive*%
%FSLAX46Y46*%
G04 Gerber Fmt 4.6, Leading zero omitted, Abs format (unit mm)*
G04 Created by KiCad (PCBNEW (5.1.6-0-10_14)) date 2020-08-01 15:30:54*
%MOMM*%
%LPD*%
G01*
G04 APERTURE LIST*
%ADD10C,0.250000*%
%ADD11C,0.120000*%
%ADD12C,0.400000*%
%ADD13C,0.127000*%
%ADD14C,0.010000*%
%ADD15C,0.150000*%
G04 APERTURE END LIST*
D10*
X180742419Y-85639980D02*
X180409085Y-85163790D01*
X180170990Y-85639980D02*
X180170990Y-84639980D01*
X180551942Y-84639980D01*
X180647180Y-84687600D01*
X180694800Y-84735219D01*
X180742419Y-84830457D01*
X180742419Y-84973314D01*
X180694800Y-85068552D01*
X180647180Y-85116171D01*
X180551942Y-85163790D01*
X180170990Y-85163790D01*
X181170990Y-85116171D02*
X181504323Y-85116171D01*
X181647180Y-85639980D02*
X181170990Y-85639980D01*
X181170990Y-84639980D01*
X181647180Y-84639980D01*
X182028133Y-85592361D02*
X182170990Y-85639980D01*
X182409085Y-85639980D01*
X182504323Y-85592361D01*
X182551942Y-85544742D01*
X182599561Y-85449504D01*
X182599561Y-85354266D01*
X182551942Y-85259028D01*
X182504323Y-85211409D01*
X182409085Y-85163790D01*
X182218609Y-85116171D01*
X182123371Y-85068552D01*
X182075752Y-85020933D01*
X182028133Y-84925695D01*
X182028133Y-84830457D01*
X182075752Y-84735219D01*
X182123371Y-84687600D01*
X182218609Y-84639980D01*
X182456704Y-84639980D01*
X182599561Y-84687600D01*
X183028133Y-85116171D02*
X183361466Y-85116171D01*
X183504323Y-85639980D02*
X183028133Y-85639980D01*
X183028133Y-84639980D01*
X183504323Y-84639980D01*
X183790038Y-84639980D02*
X184361466Y-84639980D01*
X184075752Y-85639980D02*
X184075752Y-84639980D01*
X180811657Y-69118171D02*
X180954514Y-69165790D01*
X181002133Y-69213409D01*
X181049752Y-69308647D01*
X181049752Y-69451504D01*
X181002133Y-69546742D01*
X180954514Y-69594361D01*
X180859276Y-69641980D01*
X180478323Y-69641980D01*
X180478323Y-68641980D01*
X180811657Y-68641980D01*
X180906895Y-68689600D01*
X180954514Y-68737219D01*
X181002133Y-68832457D01*
X181002133Y-68927695D01*
X180954514Y-69022933D01*
X180906895Y-69070552D01*
X180811657Y-69118171D01*
X180478323Y-69118171D01*
X181668800Y-68641980D02*
X181859276Y-68641980D01*
X181954514Y-68689600D01*
X182049752Y-68784838D01*
X182097371Y-68975314D01*
X182097371Y-69308647D01*
X182049752Y-69499123D01*
X181954514Y-69594361D01*
X181859276Y-69641980D01*
X181668800Y-69641980D01*
X181573561Y-69594361D01*
X181478323Y-69499123D01*
X181430704Y-69308647D01*
X181430704Y-68975314D01*
X181478323Y-68784838D01*
X181573561Y-68689600D01*
X181668800Y-68641980D01*
X182716419Y-68641980D02*
X182906895Y-68641980D01*
X183002133Y-68689600D01*
X183097371Y-68784838D01*
X183144990Y-68975314D01*
X183144990Y-69308647D01*
X183097371Y-69499123D01*
X183002133Y-69594361D01*
X182906895Y-69641980D01*
X182716419Y-69641980D01*
X182621180Y-69594361D01*
X182525942Y-69499123D01*
X182478323Y-69308647D01*
X182478323Y-68975314D01*
X182525942Y-68784838D01*
X182621180Y-68689600D01*
X182716419Y-68641980D01*
X183430704Y-68641980D02*
X184002133Y-68641980D01*
X183716419Y-69641980D02*
X183716419Y-68641980D01*
D11*
%TO.C,R8*%
X168071800Y-69748600D02*
X168071800Y-70698600D01*
X168071800Y-75488600D02*
X168071800Y-74538600D01*
X167151800Y-70698600D02*
X167151800Y-74538600D01*
X168991800Y-70698600D02*
X167151800Y-70698600D01*
X168991800Y-74538600D02*
X168991800Y-70698600D01*
X167151800Y-74538600D02*
X168991800Y-74538600D01*
%TO.C,R7*%
X170484800Y-70510600D02*
X170484800Y-71460600D01*
X170484800Y-76250600D02*
X170484800Y-75300600D01*
X169564800Y-71460600D02*
X169564800Y-75300600D01*
X171404800Y-71460600D02*
X169564800Y-71460600D01*
X171404800Y-75300600D02*
X171404800Y-71460600D01*
X169564800Y-75300600D02*
X171404800Y-75300600D01*
D12*
%TO.C,J2*%
X166024800Y-68885600D02*
G75*
G03*
X166024800Y-68885600I-200000J0D01*
G01*
D13*
X156024800Y-74385600D02*
X156024800Y-71335600D01*
X156024800Y-78385600D02*
X156024800Y-76285600D01*
X160674800Y-78385600D02*
X156024800Y-78385600D01*
X165024800Y-78385600D02*
X163024800Y-78385600D01*
X165024800Y-71485600D02*
X165024800Y-78385600D01*
X163324800Y-64385600D02*
X163324800Y-67385600D01*
X157324800Y-64385600D02*
X163324800Y-64385600D01*
X157324800Y-67385600D02*
X157324800Y-64385600D01*
X156024800Y-67385600D02*
X156024800Y-69135600D01*
X157324800Y-67385600D02*
X156024800Y-67385600D01*
X158074800Y-67385600D02*
X157324800Y-67385600D01*
X158074800Y-68685600D02*
X158074800Y-67385600D01*
X162574800Y-68685600D02*
X158074800Y-68685600D01*
X162574800Y-67385600D02*
X162574800Y-68685600D01*
X163324800Y-67385600D02*
X162574800Y-67385600D01*
X165024800Y-67385600D02*
X163324800Y-67385600D01*
X165024800Y-69085600D02*
X165024800Y-67385600D01*
D14*
%TO.C,G\u002A\u002A\u002A*%
G36*
X112205468Y-69897131D02*
G01*
X112263572Y-69869461D01*
X112318800Y-69866934D01*
X112404126Y-69858674D01*
X112439123Y-69816779D01*
X112445800Y-69718767D01*
X112452879Y-69619220D01*
X112488789Y-69578389D01*
X112572800Y-69570600D01*
X112658126Y-69578860D01*
X112693123Y-69620755D01*
X112699800Y-69718767D01*
X112706879Y-69818315D01*
X112742789Y-69859145D01*
X112826800Y-69866934D01*
X112912126Y-69858674D01*
X112947123Y-69816779D01*
X112953800Y-69718767D01*
X112960879Y-69619220D01*
X112996789Y-69578389D01*
X113080800Y-69570600D01*
X113166126Y-69578860D01*
X113201123Y-69620755D01*
X113207800Y-69718767D01*
X113214879Y-69818315D01*
X113250789Y-69859145D01*
X113334800Y-69866934D01*
X113420126Y-69858674D01*
X113455123Y-69816779D01*
X113461800Y-69718767D01*
X113468879Y-69619220D01*
X113504789Y-69578389D01*
X113588800Y-69570600D01*
X113674126Y-69578860D01*
X113709123Y-69620755D01*
X113715800Y-69718767D01*
X113722879Y-69818315D01*
X113758789Y-69859145D01*
X113842800Y-69866934D01*
X113928126Y-69858674D01*
X113963123Y-69816779D01*
X113969800Y-69718767D01*
X113976879Y-69619220D01*
X114012789Y-69578389D01*
X114096800Y-69570600D01*
X114182126Y-69578860D01*
X114217123Y-69620755D01*
X114223800Y-69718767D01*
X114230879Y-69818315D01*
X114266789Y-69859145D01*
X114350800Y-69866934D01*
X114441563Y-69878324D01*
X114474767Y-69926744D01*
X114477800Y-69972767D01*
X114464131Y-70048403D01*
X114406027Y-70076073D01*
X114350800Y-70078600D01*
X114260845Y-70089090D01*
X114227690Y-70138570D01*
X114223800Y-70205600D01*
X114234289Y-70295555D01*
X114283769Y-70328710D01*
X114350800Y-70332600D01*
X114440754Y-70343090D01*
X114473909Y-70392570D01*
X114477800Y-70459600D01*
X114467310Y-70549555D01*
X114417830Y-70582710D01*
X114350800Y-70586600D01*
X114260845Y-70597090D01*
X114227690Y-70646570D01*
X114223800Y-70713600D01*
X114234289Y-70803555D01*
X114283769Y-70836710D01*
X114350800Y-70840600D01*
X114441563Y-70851991D01*
X114474767Y-70900411D01*
X114477800Y-70946434D01*
X114464131Y-71022070D01*
X114406027Y-71049740D01*
X114350800Y-71052267D01*
X114260845Y-71062757D01*
X114227690Y-71112237D01*
X114223800Y-71179267D01*
X114234289Y-71269221D01*
X114283769Y-71302376D01*
X114350800Y-71306267D01*
X114441563Y-71317658D01*
X114474767Y-71366078D01*
X114477800Y-71412100D01*
X114464131Y-71487737D01*
X114406027Y-71515406D01*
X114350800Y-71517934D01*
X114265473Y-71526194D01*
X114230476Y-71568089D01*
X114223800Y-71666100D01*
X114230879Y-71765648D01*
X114266789Y-71806478D01*
X114350800Y-71814267D01*
X114441563Y-71825658D01*
X114474767Y-71874078D01*
X114477800Y-71920100D01*
X114464131Y-71995737D01*
X114406027Y-72023406D01*
X114350800Y-72025934D01*
X114260845Y-72036423D01*
X114227690Y-72085904D01*
X114223800Y-72152934D01*
X114234289Y-72242888D01*
X114283769Y-72276043D01*
X114350800Y-72279934D01*
X114441563Y-72291324D01*
X114474767Y-72339744D01*
X114477800Y-72385767D01*
X114464131Y-72461403D01*
X114406027Y-72489073D01*
X114350800Y-72491600D01*
X114260845Y-72502090D01*
X114227690Y-72551570D01*
X114223800Y-72618600D01*
X114234289Y-72708555D01*
X114283769Y-72741710D01*
X114350800Y-72745600D01*
X114440754Y-72756090D01*
X114473909Y-72805570D01*
X114477800Y-72872600D01*
X114467310Y-72962555D01*
X114417830Y-72995710D01*
X114350800Y-72999600D01*
X114260845Y-73010090D01*
X114227690Y-73059570D01*
X114223800Y-73126600D01*
X114234289Y-73216555D01*
X114283769Y-73249710D01*
X114350800Y-73253600D01*
X114441563Y-73264991D01*
X114474767Y-73313411D01*
X114477800Y-73359434D01*
X114464131Y-73435070D01*
X114406027Y-73462740D01*
X114350800Y-73465267D01*
X114260845Y-73475757D01*
X114227690Y-73525237D01*
X114223800Y-73592267D01*
X114234289Y-73682221D01*
X114283769Y-73715376D01*
X114350800Y-73719267D01*
X114441563Y-73730658D01*
X114474767Y-73779078D01*
X114477800Y-73825100D01*
X114464131Y-73900737D01*
X114406027Y-73928406D01*
X114350800Y-73930934D01*
X114265473Y-73939194D01*
X114230476Y-73981089D01*
X114223800Y-74079100D01*
X114230879Y-74178648D01*
X114266789Y-74219478D01*
X114350800Y-74227267D01*
X114441563Y-74238658D01*
X114474767Y-74287078D01*
X114477800Y-74333100D01*
X114464131Y-74408737D01*
X114406027Y-74436406D01*
X114350800Y-74438934D01*
X114260845Y-74449423D01*
X114227690Y-74498904D01*
X114223800Y-74565934D01*
X114234289Y-74655888D01*
X114283769Y-74689043D01*
X114350800Y-74692934D01*
X114441563Y-74704324D01*
X114474767Y-74752744D01*
X114477800Y-74798767D01*
X114464131Y-74874403D01*
X114406027Y-74902073D01*
X114350800Y-74904600D01*
X114260845Y-74915090D01*
X114227690Y-74964570D01*
X114223800Y-75031600D01*
X114234289Y-75121555D01*
X114283769Y-75154710D01*
X114350800Y-75158600D01*
X114440754Y-75169090D01*
X114473909Y-75218570D01*
X114477800Y-75285600D01*
X114467310Y-75375555D01*
X114417830Y-75408710D01*
X114350800Y-75412600D01*
X114260036Y-75423991D01*
X114226832Y-75472411D01*
X114223800Y-75518434D01*
X114237468Y-75594070D01*
X114295572Y-75621740D01*
X114350800Y-75624267D01*
X114440754Y-75634757D01*
X114473909Y-75684237D01*
X114477800Y-75751267D01*
X114467310Y-75841221D01*
X114417830Y-75874376D01*
X114350800Y-75878267D01*
X114260845Y-75888757D01*
X114227690Y-75938237D01*
X114223800Y-76005267D01*
X114234289Y-76095221D01*
X114283769Y-76128376D01*
X114350800Y-76132267D01*
X114441563Y-76143658D01*
X114474767Y-76192078D01*
X114477800Y-76238100D01*
X114464131Y-76313737D01*
X114406027Y-76341406D01*
X114350800Y-76343934D01*
X114260845Y-76354423D01*
X114227690Y-76403904D01*
X114223800Y-76470934D01*
X114234289Y-76560888D01*
X114283769Y-76594043D01*
X114350800Y-76597934D01*
X114440754Y-76608423D01*
X114473909Y-76657904D01*
X114477800Y-76724934D01*
X114467310Y-76814888D01*
X114417830Y-76848043D01*
X114350800Y-76851934D01*
X114260845Y-76862423D01*
X114227690Y-76911904D01*
X114223800Y-76978934D01*
X114234289Y-77068888D01*
X114283769Y-77102043D01*
X114350800Y-77105934D01*
X114441563Y-77117324D01*
X114474767Y-77165744D01*
X114477800Y-77211767D01*
X114464131Y-77287403D01*
X114406027Y-77315073D01*
X114350800Y-77317600D01*
X114260845Y-77328090D01*
X114227690Y-77377570D01*
X114223800Y-77444600D01*
X114234289Y-77534555D01*
X114283769Y-77567710D01*
X114350800Y-77571600D01*
X114441563Y-77582991D01*
X114474767Y-77631411D01*
X114477800Y-77677434D01*
X114464131Y-77753070D01*
X114406027Y-77780740D01*
X114350800Y-77783267D01*
X114265473Y-77791527D01*
X114230476Y-77833422D01*
X114223800Y-77931434D01*
X114230879Y-78030981D01*
X114266789Y-78071812D01*
X114350800Y-78079600D01*
X114441563Y-78090991D01*
X114474767Y-78139411D01*
X114477800Y-78185434D01*
X114464131Y-78261070D01*
X114406027Y-78288740D01*
X114350800Y-78291267D01*
X114260845Y-78301757D01*
X114227690Y-78351237D01*
X114223800Y-78418267D01*
X114234289Y-78508221D01*
X114283769Y-78541376D01*
X114350800Y-78545267D01*
X114441563Y-78556658D01*
X114474767Y-78605078D01*
X114477800Y-78651100D01*
X114464131Y-78726737D01*
X114406027Y-78754406D01*
X114350800Y-78756934D01*
X114260845Y-78767423D01*
X114227690Y-78816904D01*
X114223800Y-78883934D01*
X114234289Y-78973888D01*
X114283769Y-79007043D01*
X114350800Y-79010934D01*
X114440754Y-79021423D01*
X114473909Y-79070904D01*
X114477800Y-79137934D01*
X114467310Y-79227888D01*
X114417830Y-79261043D01*
X114350800Y-79264934D01*
X114260845Y-79275423D01*
X114227690Y-79324904D01*
X114223800Y-79391934D01*
X114234289Y-79481888D01*
X114283769Y-79515043D01*
X114350800Y-79518934D01*
X114441563Y-79530324D01*
X114474767Y-79578744D01*
X114477800Y-79624767D01*
X114464131Y-79700403D01*
X114406027Y-79728073D01*
X114350800Y-79730600D01*
X114260845Y-79741090D01*
X114227690Y-79790570D01*
X114223800Y-79857600D01*
X114234289Y-79947555D01*
X114283769Y-79980710D01*
X114350800Y-79984600D01*
X114441563Y-79995991D01*
X114474767Y-80044411D01*
X114477800Y-80090434D01*
X114464131Y-80166070D01*
X114406027Y-80193740D01*
X114350800Y-80196267D01*
X114265473Y-80204527D01*
X114230476Y-80246422D01*
X114223800Y-80344434D01*
X114230879Y-80443981D01*
X114266789Y-80484812D01*
X114350800Y-80492600D01*
X114441563Y-80503991D01*
X114474767Y-80552411D01*
X114477800Y-80598434D01*
X114464131Y-80674070D01*
X114406027Y-80701740D01*
X114350800Y-80704267D01*
X114260845Y-80714757D01*
X114227690Y-80764237D01*
X114223800Y-80831267D01*
X114234289Y-80921221D01*
X114283769Y-80954376D01*
X114350800Y-80958267D01*
X114441563Y-80969658D01*
X114474767Y-81018078D01*
X114477800Y-81064100D01*
X114464131Y-81139737D01*
X114406027Y-81167406D01*
X114350800Y-81169934D01*
X114260845Y-81180423D01*
X114227690Y-81229904D01*
X114223800Y-81296934D01*
X114234289Y-81386888D01*
X114283769Y-81420043D01*
X114350800Y-81423934D01*
X114440754Y-81434423D01*
X114473909Y-81483904D01*
X114477800Y-81550934D01*
X114467310Y-81640888D01*
X114417830Y-81674043D01*
X114350800Y-81677934D01*
X114260845Y-81688423D01*
X114227690Y-81737904D01*
X114223800Y-81804934D01*
X114234289Y-81894888D01*
X114283769Y-81928043D01*
X114350800Y-81931934D01*
X114441563Y-81943324D01*
X114474767Y-81991744D01*
X114477800Y-82037767D01*
X114464131Y-82113403D01*
X114406027Y-82141073D01*
X114350800Y-82143600D01*
X114260845Y-82154090D01*
X114227690Y-82203570D01*
X114223800Y-82270600D01*
X114234289Y-82360555D01*
X114283769Y-82393710D01*
X114350800Y-82397600D01*
X114440754Y-82408090D01*
X114473909Y-82457570D01*
X114477800Y-82524600D01*
X114467310Y-82614555D01*
X114417830Y-82647710D01*
X114350800Y-82651600D01*
X114260845Y-82662090D01*
X114227690Y-82711570D01*
X114223800Y-82778600D01*
X114234289Y-82868555D01*
X114283769Y-82901710D01*
X114350800Y-82905600D01*
X114441563Y-82916991D01*
X114474767Y-82965411D01*
X114477800Y-83011434D01*
X114464131Y-83087070D01*
X114406027Y-83114740D01*
X114350800Y-83117267D01*
X114260845Y-83127757D01*
X114227690Y-83177237D01*
X114223800Y-83244267D01*
X114234289Y-83334221D01*
X114283769Y-83367376D01*
X114350800Y-83371267D01*
X114441563Y-83382658D01*
X114474767Y-83431078D01*
X114477800Y-83477100D01*
X114464131Y-83552737D01*
X114406027Y-83580406D01*
X114350800Y-83582934D01*
X114265473Y-83591194D01*
X114230476Y-83633089D01*
X114223800Y-83731100D01*
X114230879Y-83830648D01*
X114266789Y-83871478D01*
X114350800Y-83879267D01*
X114441563Y-83890658D01*
X114474767Y-83939078D01*
X114477800Y-83985100D01*
X114464131Y-84060737D01*
X114406027Y-84088406D01*
X114350800Y-84090934D01*
X114260845Y-84101423D01*
X114227690Y-84150904D01*
X114223800Y-84217934D01*
X114234289Y-84307888D01*
X114283769Y-84341043D01*
X114350800Y-84344934D01*
X114441563Y-84356324D01*
X114474767Y-84404744D01*
X114477800Y-84450767D01*
X114464131Y-84526403D01*
X114406027Y-84554073D01*
X114350800Y-84556600D01*
X114260845Y-84567090D01*
X114227690Y-84616570D01*
X114223800Y-84683600D01*
X114213310Y-84773555D01*
X114163830Y-84806710D01*
X114096800Y-84810600D01*
X114006845Y-84800111D01*
X113973690Y-84750631D01*
X113969800Y-84683600D01*
X113959310Y-84593646D01*
X113909830Y-84560491D01*
X113842800Y-84556600D01*
X113842800Y-84344934D01*
X113932754Y-84334444D01*
X113965909Y-84284964D01*
X113969800Y-84217934D01*
X113959310Y-84127980D01*
X113909830Y-84094825D01*
X113842800Y-84090934D01*
X113842800Y-83879267D01*
X113928126Y-83871007D01*
X113963123Y-83829112D01*
X113969800Y-83731100D01*
X113962720Y-83631553D01*
X113926810Y-83590723D01*
X113842800Y-83582934D01*
X113842800Y-83371267D01*
X113932754Y-83360778D01*
X113965909Y-83311297D01*
X113969800Y-83244267D01*
X113959310Y-83154313D01*
X113909830Y-83121158D01*
X113842800Y-83117267D01*
X113842800Y-82905600D01*
X113932754Y-82895111D01*
X113965909Y-82845631D01*
X113969800Y-82778600D01*
X113959310Y-82688646D01*
X113909830Y-82655491D01*
X113842800Y-82651600D01*
X113842800Y-82397600D01*
X113932754Y-82387111D01*
X113965909Y-82337631D01*
X113969800Y-82270600D01*
X113959310Y-82180646D01*
X113909830Y-82147491D01*
X113842800Y-82143600D01*
X113842800Y-81931934D01*
X113932754Y-81921444D01*
X113965909Y-81871964D01*
X113969800Y-81804934D01*
X113959310Y-81714980D01*
X113909830Y-81681825D01*
X113842800Y-81677934D01*
X113842800Y-81423934D01*
X113932754Y-81413444D01*
X113965909Y-81363964D01*
X113969800Y-81296934D01*
X113959310Y-81206980D01*
X113909830Y-81173825D01*
X113842800Y-81169934D01*
X113842800Y-80958267D01*
X113932754Y-80947778D01*
X113965909Y-80898297D01*
X113969800Y-80831267D01*
X113959310Y-80741313D01*
X113909830Y-80708158D01*
X113842800Y-80704267D01*
X113842800Y-80492600D01*
X113928126Y-80484341D01*
X113963123Y-80442446D01*
X113969800Y-80344434D01*
X113962720Y-80244886D01*
X113926810Y-80204056D01*
X113842800Y-80196267D01*
X113842800Y-79984600D01*
X113932754Y-79974111D01*
X113965909Y-79924631D01*
X113969800Y-79857600D01*
X113959310Y-79767646D01*
X113909830Y-79734491D01*
X113842800Y-79730600D01*
X113842800Y-79518934D01*
X113932754Y-79508444D01*
X113965909Y-79458964D01*
X113969800Y-79391934D01*
X113959310Y-79301980D01*
X113909830Y-79268825D01*
X113842800Y-79264934D01*
X113842800Y-79010934D01*
X113932754Y-79000444D01*
X113965909Y-78950964D01*
X113969800Y-78883934D01*
X113959310Y-78793980D01*
X113909830Y-78760825D01*
X113842800Y-78756934D01*
X113842800Y-78545267D01*
X113932754Y-78534778D01*
X113965909Y-78485297D01*
X113969800Y-78418267D01*
X113959310Y-78328313D01*
X113909830Y-78295158D01*
X113842800Y-78291267D01*
X113842800Y-78079600D01*
X113928126Y-78071341D01*
X113963123Y-78029446D01*
X113969800Y-77931434D01*
X113962720Y-77831886D01*
X113926810Y-77791056D01*
X113842800Y-77783267D01*
X113842800Y-77571600D01*
X113932754Y-77561111D01*
X113965909Y-77511631D01*
X113969800Y-77444600D01*
X113959310Y-77354646D01*
X113909830Y-77321491D01*
X113842800Y-77317600D01*
X113842800Y-77105934D01*
X113932754Y-77095444D01*
X113965909Y-77045964D01*
X113969800Y-76978934D01*
X113959310Y-76888980D01*
X113909830Y-76855825D01*
X113842800Y-76851934D01*
X113842800Y-76597934D01*
X113932754Y-76587444D01*
X113965909Y-76537964D01*
X113969800Y-76470934D01*
X113959310Y-76380980D01*
X113909830Y-76347825D01*
X113842800Y-76343934D01*
X113842800Y-76132267D01*
X113932754Y-76121778D01*
X113965909Y-76072297D01*
X113969800Y-76005267D01*
X113959310Y-75915313D01*
X113909830Y-75882158D01*
X113842800Y-75878267D01*
X113842800Y-75624267D01*
X113933563Y-75612877D01*
X113966767Y-75564457D01*
X113969800Y-75518434D01*
X113956131Y-75442798D01*
X113898027Y-75415128D01*
X113842800Y-75412600D01*
X113842800Y-75158600D01*
X113932754Y-75148111D01*
X113965909Y-75098631D01*
X113969800Y-75031600D01*
X113959310Y-74941646D01*
X113909830Y-74908491D01*
X113842800Y-74904600D01*
X113842800Y-74692934D01*
X113932754Y-74682444D01*
X113965909Y-74632964D01*
X113969800Y-74565934D01*
X113959310Y-74475980D01*
X113909830Y-74442825D01*
X113842800Y-74438934D01*
X113842800Y-74227267D01*
X113928126Y-74219007D01*
X113963123Y-74177112D01*
X113969800Y-74079100D01*
X113962720Y-73979553D01*
X113926810Y-73938723D01*
X113842800Y-73930934D01*
X113842800Y-73719267D01*
X113932754Y-73708778D01*
X113965909Y-73659297D01*
X113969800Y-73592267D01*
X113959310Y-73502313D01*
X113909830Y-73469158D01*
X113842800Y-73465267D01*
X113842800Y-73253600D01*
X113932754Y-73243111D01*
X113965909Y-73193631D01*
X113969800Y-73126600D01*
X113959310Y-73036646D01*
X113909830Y-73003491D01*
X113842800Y-72999600D01*
X113842800Y-72745600D01*
X113932754Y-72735111D01*
X113965909Y-72685631D01*
X113969800Y-72618600D01*
X113959310Y-72528646D01*
X113909830Y-72495491D01*
X113842800Y-72491600D01*
X113842800Y-72279934D01*
X113932754Y-72269444D01*
X113965909Y-72219964D01*
X113969800Y-72152934D01*
X113959310Y-72062980D01*
X113909830Y-72029825D01*
X113842800Y-72025934D01*
X113842800Y-71814267D01*
X113928126Y-71806007D01*
X113963123Y-71764112D01*
X113969800Y-71666100D01*
X113962720Y-71566553D01*
X113926810Y-71525723D01*
X113842800Y-71517934D01*
X113842800Y-71306267D01*
X113932754Y-71295778D01*
X113965909Y-71246297D01*
X113969800Y-71179267D01*
X113959310Y-71089313D01*
X113909830Y-71056158D01*
X113842800Y-71052267D01*
X113842800Y-70840600D01*
X113932754Y-70830111D01*
X113965909Y-70780631D01*
X113969800Y-70713600D01*
X113959310Y-70623646D01*
X113909830Y-70590491D01*
X113842800Y-70586600D01*
X113842800Y-70332600D01*
X113932754Y-70322111D01*
X113965909Y-70272631D01*
X113969800Y-70205600D01*
X113959310Y-70115646D01*
X113909830Y-70082491D01*
X113842800Y-70078600D01*
X113752845Y-70089090D01*
X113719690Y-70138570D01*
X113715800Y-70205600D01*
X113726289Y-70295555D01*
X113775769Y-70328710D01*
X113842800Y-70332600D01*
X113842800Y-70586600D01*
X113752845Y-70597090D01*
X113719690Y-70646570D01*
X113715800Y-70713600D01*
X113726289Y-70803555D01*
X113775769Y-70836710D01*
X113842800Y-70840600D01*
X113842800Y-71052267D01*
X113752845Y-71062757D01*
X113719690Y-71112237D01*
X113715800Y-71179267D01*
X113726289Y-71269221D01*
X113775769Y-71302376D01*
X113842800Y-71306267D01*
X113842800Y-71517934D01*
X113757473Y-71526194D01*
X113722476Y-71568089D01*
X113715800Y-71666100D01*
X113722879Y-71765648D01*
X113758789Y-71806478D01*
X113842800Y-71814267D01*
X113842800Y-72025934D01*
X113752845Y-72036423D01*
X113719690Y-72085904D01*
X113715800Y-72152934D01*
X113726289Y-72242888D01*
X113775769Y-72276043D01*
X113842800Y-72279934D01*
X113842800Y-72491600D01*
X113752845Y-72502090D01*
X113719690Y-72551570D01*
X113715800Y-72618600D01*
X113726289Y-72708555D01*
X113775769Y-72741710D01*
X113842800Y-72745600D01*
X113842800Y-72999600D01*
X113752845Y-73010090D01*
X113719690Y-73059570D01*
X113715800Y-73126600D01*
X113726289Y-73216555D01*
X113775769Y-73249710D01*
X113842800Y-73253600D01*
X113842800Y-73465267D01*
X113752845Y-73475757D01*
X113719690Y-73525237D01*
X113715800Y-73592267D01*
X113726289Y-73682221D01*
X113775769Y-73715376D01*
X113842800Y-73719267D01*
X113842800Y-73930934D01*
X113757473Y-73939194D01*
X113722476Y-73981089D01*
X113715800Y-74079100D01*
X113722879Y-74178648D01*
X113758789Y-74219478D01*
X113842800Y-74227267D01*
X113842800Y-74438934D01*
X113752845Y-74449423D01*
X113719690Y-74498904D01*
X113715800Y-74565934D01*
X113726289Y-74655888D01*
X113775769Y-74689043D01*
X113842800Y-74692934D01*
X113842800Y-74904600D01*
X113752845Y-74915090D01*
X113719690Y-74964570D01*
X113715800Y-75031600D01*
X113726289Y-75121555D01*
X113775769Y-75154710D01*
X113842800Y-75158600D01*
X113842800Y-75412600D01*
X113752036Y-75423991D01*
X113718832Y-75472411D01*
X113715800Y-75518434D01*
X113729468Y-75594070D01*
X113787572Y-75621740D01*
X113842800Y-75624267D01*
X113842800Y-75878267D01*
X113752845Y-75888757D01*
X113719690Y-75938237D01*
X113715800Y-76005267D01*
X113726289Y-76095221D01*
X113775769Y-76128376D01*
X113842800Y-76132267D01*
X113842800Y-76343934D01*
X113752845Y-76354423D01*
X113719690Y-76403904D01*
X113715800Y-76470934D01*
X113726289Y-76560888D01*
X113775769Y-76594043D01*
X113842800Y-76597934D01*
X113842800Y-76851934D01*
X113752845Y-76862423D01*
X113719690Y-76911904D01*
X113715800Y-76978934D01*
X113726289Y-77068888D01*
X113775769Y-77102043D01*
X113842800Y-77105934D01*
X113842800Y-77317600D01*
X113752845Y-77328090D01*
X113719690Y-77377570D01*
X113715800Y-77444600D01*
X113726289Y-77534555D01*
X113775769Y-77567710D01*
X113842800Y-77571600D01*
X113842800Y-77783267D01*
X113757473Y-77791527D01*
X113722476Y-77833422D01*
X113715800Y-77931434D01*
X113722879Y-78030981D01*
X113758789Y-78071812D01*
X113842800Y-78079600D01*
X113842800Y-78291267D01*
X113752845Y-78301757D01*
X113719690Y-78351237D01*
X113715800Y-78418267D01*
X113726289Y-78508221D01*
X113775769Y-78541376D01*
X113842800Y-78545267D01*
X113842800Y-78756934D01*
X113752845Y-78767423D01*
X113719690Y-78816904D01*
X113715800Y-78883934D01*
X113726289Y-78973888D01*
X113775769Y-79007043D01*
X113842800Y-79010934D01*
X113842800Y-79264934D01*
X113752845Y-79275423D01*
X113719690Y-79324904D01*
X113715800Y-79391934D01*
X113726289Y-79481888D01*
X113775769Y-79515043D01*
X113842800Y-79518934D01*
X113842800Y-79730600D01*
X113752845Y-79741090D01*
X113719690Y-79790570D01*
X113715800Y-79857600D01*
X113726289Y-79947555D01*
X113775769Y-79980710D01*
X113842800Y-79984600D01*
X113842800Y-80196267D01*
X113757473Y-80204527D01*
X113722476Y-80246422D01*
X113715800Y-80344434D01*
X113722879Y-80443981D01*
X113758789Y-80484812D01*
X113842800Y-80492600D01*
X113842800Y-80704267D01*
X113752845Y-80714757D01*
X113719690Y-80764237D01*
X113715800Y-80831267D01*
X113726289Y-80921221D01*
X113775769Y-80954376D01*
X113842800Y-80958267D01*
X113842800Y-81169934D01*
X113752845Y-81180423D01*
X113719690Y-81229904D01*
X113715800Y-81296934D01*
X113726289Y-81386888D01*
X113775769Y-81420043D01*
X113842800Y-81423934D01*
X113842800Y-81677934D01*
X113752845Y-81688423D01*
X113719690Y-81737904D01*
X113715800Y-81804934D01*
X113726289Y-81894888D01*
X113775769Y-81928043D01*
X113842800Y-81931934D01*
X113842800Y-82143600D01*
X113752845Y-82154090D01*
X113719690Y-82203570D01*
X113715800Y-82270600D01*
X113726289Y-82360555D01*
X113775769Y-82393710D01*
X113842800Y-82397600D01*
X113842800Y-82651600D01*
X113752845Y-82662090D01*
X113719690Y-82711570D01*
X113715800Y-82778600D01*
X113726289Y-82868555D01*
X113775769Y-82901710D01*
X113842800Y-82905600D01*
X113842800Y-83117267D01*
X113752845Y-83127757D01*
X113719690Y-83177237D01*
X113715800Y-83244267D01*
X113726289Y-83334221D01*
X113775769Y-83367376D01*
X113842800Y-83371267D01*
X113842800Y-83582934D01*
X113757473Y-83591194D01*
X113722476Y-83633089D01*
X113715800Y-83731100D01*
X113722879Y-83830648D01*
X113758789Y-83871478D01*
X113842800Y-83879267D01*
X113842800Y-84090934D01*
X113752845Y-84101423D01*
X113719690Y-84150904D01*
X113715800Y-84217934D01*
X113726289Y-84307888D01*
X113775769Y-84341043D01*
X113842800Y-84344934D01*
X113842800Y-84556600D01*
X113752845Y-84567090D01*
X113719690Y-84616570D01*
X113715800Y-84683600D01*
X113705310Y-84773555D01*
X113655830Y-84806710D01*
X113588800Y-84810600D01*
X113498845Y-84800111D01*
X113465690Y-84750631D01*
X113461800Y-84683600D01*
X113451310Y-84593646D01*
X113401830Y-84560491D01*
X113334800Y-84556600D01*
X113334800Y-84344934D01*
X113424754Y-84334444D01*
X113457909Y-84284964D01*
X113461800Y-84217934D01*
X113451310Y-84127980D01*
X113401830Y-84094825D01*
X113334800Y-84090934D01*
X113334800Y-83879267D01*
X113420126Y-83871007D01*
X113455123Y-83829112D01*
X113461800Y-83731100D01*
X113454720Y-83631553D01*
X113418810Y-83590723D01*
X113334800Y-83582934D01*
X113334800Y-83371267D01*
X113424754Y-83360778D01*
X113457909Y-83311297D01*
X113461800Y-83244267D01*
X113451310Y-83154313D01*
X113401830Y-83121158D01*
X113334800Y-83117267D01*
X113334800Y-82905600D01*
X113424754Y-82895111D01*
X113457909Y-82845631D01*
X113461800Y-82778600D01*
X113451310Y-82688646D01*
X113401830Y-82655491D01*
X113334800Y-82651600D01*
X113334800Y-82397600D01*
X113424754Y-82387111D01*
X113457909Y-82337631D01*
X113461800Y-82270600D01*
X113451310Y-82180646D01*
X113401830Y-82147491D01*
X113334800Y-82143600D01*
X113334800Y-81931934D01*
X113424754Y-81921444D01*
X113457909Y-81871964D01*
X113461800Y-81804934D01*
X113451310Y-81714980D01*
X113401830Y-81681825D01*
X113334800Y-81677934D01*
X113334800Y-81423934D01*
X113424754Y-81413444D01*
X113457909Y-81363964D01*
X113461800Y-81296934D01*
X113451310Y-81206980D01*
X113401830Y-81173825D01*
X113334800Y-81169934D01*
X113334800Y-80958267D01*
X113424754Y-80947778D01*
X113457909Y-80898297D01*
X113461800Y-80831267D01*
X113451310Y-80741313D01*
X113401830Y-80708158D01*
X113334800Y-80704267D01*
X113334800Y-80492600D01*
X113420126Y-80484341D01*
X113455123Y-80442446D01*
X113461800Y-80344434D01*
X113454720Y-80244886D01*
X113418810Y-80204056D01*
X113334800Y-80196267D01*
X113334800Y-79984600D01*
X113424754Y-79974111D01*
X113457909Y-79924631D01*
X113461800Y-79857600D01*
X113451310Y-79767646D01*
X113401830Y-79734491D01*
X113334800Y-79730600D01*
X113334800Y-79518934D01*
X113424754Y-79508444D01*
X113457909Y-79458964D01*
X113461800Y-79391934D01*
X113451310Y-79301980D01*
X113401830Y-79268825D01*
X113334800Y-79264934D01*
X113334800Y-79010934D01*
X113424754Y-79000444D01*
X113457909Y-78950964D01*
X113461800Y-78883934D01*
X113451310Y-78793980D01*
X113401830Y-78760825D01*
X113334800Y-78756934D01*
X113334800Y-78545267D01*
X113424754Y-78534778D01*
X113457909Y-78485297D01*
X113461800Y-78418267D01*
X113451310Y-78328313D01*
X113401830Y-78295158D01*
X113334800Y-78291267D01*
X113334800Y-78079600D01*
X113420126Y-78071341D01*
X113455123Y-78029446D01*
X113461800Y-77931434D01*
X113454720Y-77831886D01*
X113418810Y-77791056D01*
X113334800Y-77783267D01*
X113334800Y-77571600D01*
X113424754Y-77561111D01*
X113457909Y-77511631D01*
X113461800Y-77444600D01*
X113451310Y-77354646D01*
X113401830Y-77321491D01*
X113334800Y-77317600D01*
X113334800Y-77105934D01*
X113424754Y-77095444D01*
X113457909Y-77045964D01*
X113461800Y-76978934D01*
X113451310Y-76888980D01*
X113401830Y-76855825D01*
X113334800Y-76851934D01*
X113334800Y-76597934D01*
X113424754Y-76587444D01*
X113457909Y-76537964D01*
X113461800Y-76470934D01*
X113451310Y-76380980D01*
X113401830Y-76347825D01*
X113334800Y-76343934D01*
X113334800Y-76132267D01*
X113424754Y-76121778D01*
X113457909Y-76072297D01*
X113461800Y-76005267D01*
X113451310Y-75915313D01*
X113401830Y-75882158D01*
X113334800Y-75878267D01*
X113334800Y-75624267D01*
X113425563Y-75612877D01*
X113458767Y-75564457D01*
X113461800Y-75518434D01*
X113448131Y-75442798D01*
X113390027Y-75415128D01*
X113334800Y-75412600D01*
X113334800Y-75158600D01*
X113424754Y-75148111D01*
X113457909Y-75098631D01*
X113461800Y-75031600D01*
X113451310Y-74941646D01*
X113401830Y-74908491D01*
X113334800Y-74904600D01*
X113334800Y-74692934D01*
X113424754Y-74682444D01*
X113457909Y-74632964D01*
X113461800Y-74565934D01*
X113451310Y-74475980D01*
X113401830Y-74442825D01*
X113334800Y-74438934D01*
X113334800Y-74227267D01*
X113420126Y-74219007D01*
X113455123Y-74177112D01*
X113461800Y-74079100D01*
X113454720Y-73979553D01*
X113418810Y-73938723D01*
X113334800Y-73930934D01*
X113334800Y-73719267D01*
X113424754Y-73708778D01*
X113457909Y-73659297D01*
X113461800Y-73592267D01*
X113451310Y-73502313D01*
X113401830Y-73469158D01*
X113334800Y-73465267D01*
X113334800Y-73253600D01*
X113424754Y-73243111D01*
X113457909Y-73193631D01*
X113461800Y-73126600D01*
X113451310Y-73036646D01*
X113401830Y-73003491D01*
X113334800Y-72999600D01*
X113334800Y-72745600D01*
X113424754Y-72735111D01*
X113457909Y-72685631D01*
X113461800Y-72618600D01*
X113451310Y-72528646D01*
X113401830Y-72495491D01*
X113334800Y-72491600D01*
X113334800Y-72279934D01*
X113424754Y-72269444D01*
X113457909Y-72219964D01*
X113461800Y-72152934D01*
X113451310Y-72062980D01*
X113401830Y-72029825D01*
X113334800Y-72025934D01*
X113334800Y-71814267D01*
X113420126Y-71806007D01*
X113455123Y-71764112D01*
X113461800Y-71666100D01*
X113454720Y-71566553D01*
X113418810Y-71525723D01*
X113334800Y-71517934D01*
X113334800Y-71306267D01*
X113424754Y-71295778D01*
X113457909Y-71246297D01*
X113461800Y-71179267D01*
X113451310Y-71089313D01*
X113401830Y-71056158D01*
X113334800Y-71052267D01*
X113334800Y-70840600D01*
X113424754Y-70830111D01*
X113457909Y-70780631D01*
X113461800Y-70713600D01*
X113451310Y-70623646D01*
X113401830Y-70590491D01*
X113334800Y-70586600D01*
X113334800Y-70332600D01*
X113424754Y-70322111D01*
X113457909Y-70272631D01*
X113461800Y-70205600D01*
X113451310Y-70115646D01*
X113401830Y-70082491D01*
X113334800Y-70078600D01*
X113244845Y-70089090D01*
X113211690Y-70138570D01*
X113207800Y-70205600D01*
X113218289Y-70295555D01*
X113267769Y-70328710D01*
X113334800Y-70332600D01*
X113334800Y-70586600D01*
X113244845Y-70597090D01*
X113211690Y-70646570D01*
X113207800Y-70713600D01*
X113218289Y-70803555D01*
X113267769Y-70836710D01*
X113334800Y-70840600D01*
X113334800Y-71052267D01*
X113244845Y-71062757D01*
X113211690Y-71112237D01*
X113207800Y-71179267D01*
X113218289Y-71269221D01*
X113267769Y-71302376D01*
X113334800Y-71306267D01*
X113334800Y-71517934D01*
X113249473Y-71526194D01*
X113214476Y-71568089D01*
X113207800Y-71666100D01*
X113214879Y-71765648D01*
X113250789Y-71806478D01*
X113334800Y-71814267D01*
X113334800Y-72025934D01*
X113244845Y-72036423D01*
X113211690Y-72085904D01*
X113207800Y-72152934D01*
X113218289Y-72242888D01*
X113267769Y-72276043D01*
X113334800Y-72279934D01*
X113334800Y-72491600D01*
X113244845Y-72502090D01*
X113211690Y-72551570D01*
X113207800Y-72618600D01*
X113218289Y-72708555D01*
X113267769Y-72741710D01*
X113334800Y-72745600D01*
X113334800Y-72999600D01*
X113244845Y-73010090D01*
X113211690Y-73059570D01*
X113207800Y-73126600D01*
X113218289Y-73216555D01*
X113267769Y-73249710D01*
X113334800Y-73253600D01*
X113334800Y-73465267D01*
X113244845Y-73475757D01*
X113211690Y-73525237D01*
X113207800Y-73592267D01*
X113218289Y-73682221D01*
X113267769Y-73715376D01*
X113334800Y-73719267D01*
X113334800Y-73930934D01*
X113249473Y-73939194D01*
X113214476Y-73981089D01*
X113207800Y-74079100D01*
X113214879Y-74178648D01*
X113250789Y-74219478D01*
X113334800Y-74227267D01*
X113334800Y-74438934D01*
X113244845Y-74449423D01*
X113211690Y-74498904D01*
X113207800Y-74565934D01*
X113218289Y-74655888D01*
X113267769Y-74689043D01*
X113334800Y-74692934D01*
X113334800Y-74904600D01*
X113244845Y-74915090D01*
X113211690Y-74964570D01*
X113207800Y-75031600D01*
X113218289Y-75121555D01*
X113267769Y-75154710D01*
X113334800Y-75158600D01*
X113334800Y-75412600D01*
X113244036Y-75423991D01*
X113210832Y-75472411D01*
X113207800Y-75518434D01*
X113221468Y-75594070D01*
X113279572Y-75621740D01*
X113334800Y-75624267D01*
X113334800Y-75878267D01*
X113244845Y-75888757D01*
X113211690Y-75938237D01*
X113207800Y-76005267D01*
X113218289Y-76095221D01*
X113267769Y-76128376D01*
X113334800Y-76132267D01*
X113334800Y-76343934D01*
X113244845Y-76354423D01*
X113211690Y-76403904D01*
X113207800Y-76470934D01*
X113218289Y-76560888D01*
X113267769Y-76594043D01*
X113334800Y-76597934D01*
X113334800Y-76851934D01*
X113244845Y-76862423D01*
X113211690Y-76911904D01*
X113207800Y-76978934D01*
X113218289Y-77068888D01*
X113267769Y-77102043D01*
X113334800Y-77105934D01*
X113334800Y-77317600D01*
X113244845Y-77328090D01*
X113211690Y-77377570D01*
X113207800Y-77444600D01*
X113218289Y-77534555D01*
X113267769Y-77567710D01*
X113334800Y-77571600D01*
X113334800Y-77783267D01*
X113249473Y-77791527D01*
X113214476Y-77833422D01*
X113207800Y-77931434D01*
X113214879Y-78030981D01*
X113250789Y-78071812D01*
X113334800Y-78079600D01*
X113334800Y-78291267D01*
X113244845Y-78301757D01*
X113211690Y-78351237D01*
X113207800Y-78418267D01*
X113218289Y-78508221D01*
X113267769Y-78541376D01*
X113334800Y-78545267D01*
X113334800Y-78756934D01*
X113244845Y-78767423D01*
X113211690Y-78816904D01*
X113207800Y-78883934D01*
X113218289Y-78973888D01*
X113267769Y-79007043D01*
X113334800Y-79010934D01*
X113334800Y-79264934D01*
X113244845Y-79275423D01*
X113211690Y-79324904D01*
X113207800Y-79391934D01*
X113218289Y-79481888D01*
X113267769Y-79515043D01*
X113334800Y-79518934D01*
X113334800Y-79730600D01*
X113244845Y-79741090D01*
X113211690Y-79790570D01*
X113207800Y-79857600D01*
X113218289Y-79947555D01*
X113267769Y-79980710D01*
X113334800Y-79984600D01*
X113334800Y-80196267D01*
X113249473Y-80204527D01*
X113214476Y-80246422D01*
X113207800Y-80344434D01*
X113214879Y-80443981D01*
X113250789Y-80484812D01*
X113334800Y-80492600D01*
X113334800Y-80704267D01*
X113244845Y-80714757D01*
X113211690Y-80764237D01*
X113207800Y-80831267D01*
X113218289Y-80921221D01*
X113267769Y-80954376D01*
X113334800Y-80958267D01*
X113334800Y-81169934D01*
X113244845Y-81180423D01*
X113211690Y-81229904D01*
X113207800Y-81296934D01*
X113218289Y-81386888D01*
X113267769Y-81420043D01*
X113334800Y-81423934D01*
X113334800Y-81677934D01*
X113244845Y-81688423D01*
X113211690Y-81737904D01*
X113207800Y-81804934D01*
X113218289Y-81894888D01*
X113267769Y-81928043D01*
X113334800Y-81931934D01*
X113334800Y-82143600D01*
X113244845Y-82154090D01*
X113211690Y-82203570D01*
X113207800Y-82270600D01*
X113218289Y-82360555D01*
X113267769Y-82393710D01*
X113334800Y-82397600D01*
X113334800Y-82651600D01*
X113244845Y-82662090D01*
X113211690Y-82711570D01*
X113207800Y-82778600D01*
X113218289Y-82868555D01*
X113267769Y-82901710D01*
X113334800Y-82905600D01*
X113334800Y-83117267D01*
X113244845Y-83127757D01*
X113211690Y-83177237D01*
X113207800Y-83244267D01*
X113218289Y-83334221D01*
X113267769Y-83367376D01*
X113334800Y-83371267D01*
X113334800Y-83582934D01*
X113249473Y-83591194D01*
X113214476Y-83633089D01*
X113207800Y-83731100D01*
X113214879Y-83830648D01*
X113250789Y-83871478D01*
X113334800Y-83879267D01*
X113334800Y-84090934D01*
X113244845Y-84101423D01*
X113211690Y-84150904D01*
X113207800Y-84217934D01*
X113218289Y-84307888D01*
X113267769Y-84341043D01*
X113334800Y-84344934D01*
X113334800Y-84556600D01*
X113244845Y-84567090D01*
X113211690Y-84616570D01*
X113207800Y-84683600D01*
X113197310Y-84773555D01*
X113147830Y-84806710D01*
X113080800Y-84810600D01*
X112990845Y-84800111D01*
X112957690Y-84750631D01*
X112953800Y-84683600D01*
X112943310Y-84593646D01*
X112893830Y-84560491D01*
X112826800Y-84556600D01*
X112826800Y-84344934D01*
X112916754Y-84334444D01*
X112949909Y-84284964D01*
X112953800Y-84217934D01*
X112943310Y-84127980D01*
X112893830Y-84094825D01*
X112826800Y-84090934D01*
X112826800Y-83879267D01*
X112912126Y-83871007D01*
X112947123Y-83829112D01*
X112953800Y-83731100D01*
X112946720Y-83631553D01*
X112910810Y-83590723D01*
X112826800Y-83582934D01*
X112826800Y-83371267D01*
X112916754Y-83360778D01*
X112949909Y-83311297D01*
X112953800Y-83244267D01*
X112943310Y-83154313D01*
X112893830Y-83121158D01*
X112826800Y-83117267D01*
X112826800Y-82905600D01*
X112916754Y-82895111D01*
X112949909Y-82845631D01*
X112953800Y-82778600D01*
X112943310Y-82688646D01*
X112893830Y-82655491D01*
X112826800Y-82651600D01*
X112826800Y-82397600D01*
X112916754Y-82387111D01*
X112949909Y-82337631D01*
X112953800Y-82270600D01*
X112943310Y-82180646D01*
X112893830Y-82147491D01*
X112826800Y-82143600D01*
X112826800Y-81931934D01*
X112916754Y-81921444D01*
X112949909Y-81871964D01*
X112953800Y-81804934D01*
X112943310Y-81714980D01*
X112893830Y-81681825D01*
X112826800Y-81677934D01*
X112826800Y-81423934D01*
X112916754Y-81413444D01*
X112949909Y-81363964D01*
X112953800Y-81296934D01*
X112943310Y-81206980D01*
X112893830Y-81173825D01*
X112826800Y-81169934D01*
X112826800Y-80958267D01*
X112916754Y-80947778D01*
X112949909Y-80898297D01*
X112953800Y-80831267D01*
X112943310Y-80741313D01*
X112893830Y-80708158D01*
X112826800Y-80704267D01*
X112826800Y-80492600D01*
X112912126Y-80484341D01*
X112947123Y-80442446D01*
X112953800Y-80344434D01*
X112946720Y-80244886D01*
X112910810Y-80204056D01*
X112826800Y-80196267D01*
X112826800Y-79984600D01*
X112916754Y-79974111D01*
X112949909Y-79924631D01*
X112953800Y-79857600D01*
X112943310Y-79767646D01*
X112893830Y-79734491D01*
X112826800Y-79730600D01*
X112826800Y-79518934D01*
X112916754Y-79508444D01*
X112949909Y-79458964D01*
X112953800Y-79391934D01*
X112943310Y-79301980D01*
X112893830Y-79268825D01*
X112826800Y-79264934D01*
X112826800Y-79010934D01*
X112916754Y-79000444D01*
X112949909Y-78950964D01*
X112953800Y-78883934D01*
X112943310Y-78793980D01*
X112893830Y-78760825D01*
X112826800Y-78756934D01*
X112826800Y-78545267D01*
X112916754Y-78534778D01*
X112949909Y-78485297D01*
X112953800Y-78418267D01*
X112943310Y-78328313D01*
X112893830Y-78295158D01*
X112826800Y-78291267D01*
X112826800Y-78079600D01*
X112912126Y-78071341D01*
X112947123Y-78029446D01*
X112953800Y-77931434D01*
X112946720Y-77831886D01*
X112910810Y-77791056D01*
X112826800Y-77783267D01*
X112826800Y-77571600D01*
X112916754Y-77561111D01*
X112949909Y-77511631D01*
X112953800Y-77444600D01*
X112943310Y-77354646D01*
X112893830Y-77321491D01*
X112826800Y-77317600D01*
X112826800Y-77105934D01*
X112916754Y-77095444D01*
X112949909Y-77045964D01*
X112953800Y-76978934D01*
X112943310Y-76888980D01*
X112893830Y-76855825D01*
X112826800Y-76851934D01*
X112826800Y-76597934D01*
X112916754Y-76587444D01*
X112949909Y-76537964D01*
X112953800Y-76470934D01*
X112943310Y-76380980D01*
X112893830Y-76347825D01*
X112826800Y-76343934D01*
X112826800Y-76132267D01*
X112916754Y-76121778D01*
X112949909Y-76072297D01*
X112953800Y-76005267D01*
X112943310Y-75915313D01*
X112893830Y-75882158D01*
X112826800Y-75878267D01*
X112826800Y-75624267D01*
X112917563Y-75612877D01*
X112950767Y-75564457D01*
X112953800Y-75518434D01*
X112940131Y-75442798D01*
X112882027Y-75415128D01*
X112826800Y-75412600D01*
X112826800Y-75158600D01*
X112916754Y-75148111D01*
X112949909Y-75098631D01*
X112953800Y-75031600D01*
X112943310Y-74941646D01*
X112893830Y-74908491D01*
X112826800Y-74904600D01*
X112826800Y-74692934D01*
X112916754Y-74682444D01*
X112949909Y-74632964D01*
X112953800Y-74565934D01*
X112943310Y-74475980D01*
X112893830Y-74442825D01*
X112826800Y-74438934D01*
X112826800Y-74227267D01*
X112912126Y-74219007D01*
X112947123Y-74177112D01*
X112953800Y-74079100D01*
X112946720Y-73979553D01*
X112910810Y-73938723D01*
X112826800Y-73930934D01*
X112826800Y-73719267D01*
X112916754Y-73708778D01*
X112949909Y-73659297D01*
X112953800Y-73592267D01*
X112943310Y-73502313D01*
X112893830Y-73469158D01*
X112826800Y-73465267D01*
X112826800Y-73253600D01*
X112916754Y-73243111D01*
X112949909Y-73193631D01*
X112953800Y-73126600D01*
X112943310Y-73036646D01*
X112893830Y-73003491D01*
X112826800Y-72999600D01*
X112826800Y-72745600D01*
X112916754Y-72735111D01*
X112949909Y-72685631D01*
X112953800Y-72618600D01*
X112943310Y-72528646D01*
X112893830Y-72495491D01*
X112826800Y-72491600D01*
X112826800Y-72279934D01*
X112916754Y-72269444D01*
X112949909Y-72219964D01*
X112953800Y-72152934D01*
X112943310Y-72062980D01*
X112893830Y-72029825D01*
X112826800Y-72025934D01*
X112826800Y-71814267D01*
X112912126Y-71806007D01*
X112947123Y-71764112D01*
X112953800Y-71666100D01*
X112946720Y-71566553D01*
X112910810Y-71525723D01*
X112826800Y-71517934D01*
X112826800Y-71306267D01*
X112916754Y-71295778D01*
X112949909Y-71246297D01*
X112953800Y-71179267D01*
X112943310Y-71089313D01*
X112893830Y-71056158D01*
X112826800Y-71052267D01*
X112826800Y-70840600D01*
X112916754Y-70830111D01*
X112949909Y-70780631D01*
X112953800Y-70713600D01*
X112943310Y-70623646D01*
X112893830Y-70590491D01*
X112826800Y-70586600D01*
X112826800Y-70332600D01*
X112916754Y-70322111D01*
X112949909Y-70272631D01*
X112953800Y-70205600D01*
X112943310Y-70115646D01*
X112893830Y-70082491D01*
X112826800Y-70078600D01*
X112736845Y-70089090D01*
X112703690Y-70138570D01*
X112699800Y-70205600D01*
X112710289Y-70295555D01*
X112759769Y-70328710D01*
X112826800Y-70332600D01*
X112826800Y-70586600D01*
X112736845Y-70597090D01*
X112703690Y-70646570D01*
X112699800Y-70713600D01*
X112710289Y-70803555D01*
X112759769Y-70836710D01*
X112826800Y-70840600D01*
X112826800Y-71052267D01*
X112736845Y-71062757D01*
X112703690Y-71112237D01*
X112699800Y-71179267D01*
X112710289Y-71269221D01*
X112759769Y-71302376D01*
X112826800Y-71306267D01*
X112826800Y-71517934D01*
X112741473Y-71526194D01*
X112706476Y-71568089D01*
X112699800Y-71666100D01*
X112706879Y-71765648D01*
X112742789Y-71806478D01*
X112826800Y-71814267D01*
X112826800Y-72025934D01*
X112736845Y-72036423D01*
X112703690Y-72085904D01*
X112699800Y-72152934D01*
X112710289Y-72242888D01*
X112759769Y-72276043D01*
X112826800Y-72279934D01*
X112826800Y-72491600D01*
X112736845Y-72502090D01*
X112703690Y-72551570D01*
X112699800Y-72618600D01*
X112710289Y-72708555D01*
X112759769Y-72741710D01*
X112826800Y-72745600D01*
X112826800Y-72999600D01*
X112736845Y-73010090D01*
X112703690Y-73059570D01*
X112699800Y-73126600D01*
X112710289Y-73216555D01*
X112759769Y-73249710D01*
X112826800Y-73253600D01*
X112826800Y-73465267D01*
X112736845Y-73475757D01*
X112703690Y-73525237D01*
X112699800Y-73592267D01*
X112710289Y-73682221D01*
X112759769Y-73715376D01*
X112826800Y-73719267D01*
X112826800Y-73930934D01*
X112741473Y-73939194D01*
X112706476Y-73981089D01*
X112699800Y-74079100D01*
X112706879Y-74178648D01*
X112742789Y-74219478D01*
X112826800Y-74227267D01*
X112826800Y-74438934D01*
X112736845Y-74449423D01*
X112703690Y-74498904D01*
X112699800Y-74565934D01*
X112710289Y-74655888D01*
X112759769Y-74689043D01*
X112826800Y-74692934D01*
X112826800Y-74904600D01*
X112736845Y-74915090D01*
X112703690Y-74964570D01*
X112699800Y-75031600D01*
X112710289Y-75121555D01*
X112759769Y-75154710D01*
X112826800Y-75158600D01*
X112826800Y-75412600D01*
X112736036Y-75423991D01*
X112702832Y-75472411D01*
X112699800Y-75518434D01*
X112713468Y-75594070D01*
X112771572Y-75621740D01*
X112826800Y-75624267D01*
X112826800Y-75878267D01*
X112736845Y-75888757D01*
X112703690Y-75938237D01*
X112699800Y-76005267D01*
X112710289Y-76095221D01*
X112759769Y-76128376D01*
X112826800Y-76132267D01*
X112826800Y-76343934D01*
X112736845Y-76354423D01*
X112703690Y-76403904D01*
X112699800Y-76470934D01*
X112710289Y-76560888D01*
X112759769Y-76594043D01*
X112826800Y-76597934D01*
X112826800Y-76851934D01*
X112736845Y-76862423D01*
X112703690Y-76911904D01*
X112699800Y-76978934D01*
X112710289Y-77068888D01*
X112759769Y-77102043D01*
X112826800Y-77105934D01*
X112826800Y-77317600D01*
X112736845Y-77328090D01*
X112703690Y-77377570D01*
X112699800Y-77444600D01*
X112710289Y-77534555D01*
X112759769Y-77567710D01*
X112826800Y-77571600D01*
X112826800Y-77783267D01*
X112741473Y-77791527D01*
X112706476Y-77833422D01*
X112699800Y-77931434D01*
X112706879Y-78030981D01*
X112742789Y-78071812D01*
X112826800Y-78079600D01*
X112826800Y-78291267D01*
X112736845Y-78301757D01*
X112703690Y-78351237D01*
X112699800Y-78418267D01*
X112710289Y-78508221D01*
X112759769Y-78541376D01*
X112826800Y-78545267D01*
X112826800Y-78756934D01*
X112736845Y-78767423D01*
X112703690Y-78816904D01*
X112699800Y-78883934D01*
X112710289Y-78973888D01*
X112759769Y-79007043D01*
X112826800Y-79010934D01*
X112826800Y-79264934D01*
X112736845Y-79275423D01*
X112703690Y-79324904D01*
X112699800Y-79391934D01*
X112710289Y-79481888D01*
X112759769Y-79515043D01*
X112826800Y-79518934D01*
X112826800Y-79730600D01*
X112736845Y-79741090D01*
X112703690Y-79790570D01*
X112699800Y-79857600D01*
X112710289Y-79947555D01*
X112759769Y-79980710D01*
X112826800Y-79984600D01*
X112826800Y-80196267D01*
X112741473Y-80204527D01*
X112706476Y-80246422D01*
X112699800Y-80344434D01*
X112706879Y-80443981D01*
X112742789Y-80484812D01*
X112826800Y-80492600D01*
X112826800Y-80704267D01*
X112736845Y-80714757D01*
X112703690Y-80764237D01*
X112699800Y-80831267D01*
X112710289Y-80921221D01*
X112759769Y-80954376D01*
X112826800Y-80958267D01*
X112826800Y-81169934D01*
X112736845Y-81180423D01*
X112703690Y-81229904D01*
X112699800Y-81296934D01*
X112710289Y-81386888D01*
X112759769Y-81420043D01*
X112826800Y-81423934D01*
X112826800Y-81677934D01*
X112736845Y-81688423D01*
X112703690Y-81737904D01*
X112699800Y-81804934D01*
X112710289Y-81894888D01*
X112759769Y-81928043D01*
X112826800Y-81931934D01*
X112826800Y-82143600D01*
X112736845Y-82154090D01*
X112703690Y-82203570D01*
X112699800Y-82270600D01*
X112710289Y-82360555D01*
X112759769Y-82393710D01*
X112826800Y-82397600D01*
X112826800Y-82651600D01*
X112736845Y-82662090D01*
X112703690Y-82711570D01*
X112699800Y-82778600D01*
X112710289Y-82868555D01*
X112759769Y-82901710D01*
X112826800Y-82905600D01*
X112826800Y-83117267D01*
X112736845Y-83127757D01*
X112703690Y-83177237D01*
X112699800Y-83244267D01*
X112710289Y-83334221D01*
X112759769Y-83367376D01*
X112826800Y-83371267D01*
X112826800Y-83582934D01*
X112741473Y-83591194D01*
X112706476Y-83633089D01*
X112699800Y-83731100D01*
X112706879Y-83830648D01*
X112742789Y-83871478D01*
X112826800Y-83879267D01*
X112826800Y-84090934D01*
X112736845Y-84101423D01*
X112703690Y-84150904D01*
X112699800Y-84217934D01*
X112710289Y-84307888D01*
X112759769Y-84341043D01*
X112826800Y-84344934D01*
X112826800Y-84556600D01*
X112736845Y-84567090D01*
X112703690Y-84616570D01*
X112699800Y-84683600D01*
X112689310Y-84773555D01*
X112639830Y-84806710D01*
X112572800Y-84810600D01*
X112482845Y-84800111D01*
X112449690Y-84750631D01*
X112445800Y-84683600D01*
X112435310Y-84593646D01*
X112385830Y-84560491D01*
X112318800Y-84556600D01*
X112228036Y-84545210D01*
X112194832Y-84496790D01*
X112191800Y-84450767D01*
X112205468Y-84375131D01*
X112263572Y-84347461D01*
X112318800Y-84344934D01*
X112408754Y-84334444D01*
X112441909Y-84284964D01*
X112445800Y-84217934D01*
X112435310Y-84127980D01*
X112385830Y-84094825D01*
X112318800Y-84090934D01*
X112228036Y-84079543D01*
X112194832Y-84031123D01*
X112191800Y-83985100D01*
X112205468Y-83909464D01*
X112263572Y-83881795D01*
X112318800Y-83879267D01*
X112404126Y-83871007D01*
X112439123Y-83829112D01*
X112445800Y-83731100D01*
X112438720Y-83631553D01*
X112402810Y-83590723D01*
X112318800Y-83582934D01*
X112228036Y-83571543D01*
X112194832Y-83523123D01*
X112191800Y-83477100D01*
X112205468Y-83401464D01*
X112263572Y-83373795D01*
X112318800Y-83371267D01*
X112408754Y-83360778D01*
X112441909Y-83311297D01*
X112445800Y-83244267D01*
X112435310Y-83154313D01*
X112385830Y-83121158D01*
X112318800Y-83117267D01*
X112228036Y-83105877D01*
X112194832Y-83057457D01*
X112191800Y-83011434D01*
X112205468Y-82935798D01*
X112263572Y-82908128D01*
X112318800Y-82905600D01*
X112408754Y-82895111D01*
X112441909Y-82845631D01*
X112445800Y-82778600D01*
X112435310Y-82688646D01*
X112385830Y-82655491D01*
X112318800Y-82651600D01*
X112228845Y-82641111D01*
X112195690Y-82591631D01*
X112191800Y-82524600D01*
X112202289Y-82434646D01*
X112251769Y-82401491D01*
X112318800Y-82397600D01*
X112408754Y-82387111D01*
X112441909Y-82337631D01*
X112445800Y-82270600D01*
X112435310Y-82180646D01*
X112385830Y-82147491D01*
X112318800Y-82143600D01*
X112228036Y-82132210D01*
X112194832Y-82083790D01*
X112191800Y-82037767D01*
X112205468Y-81962131D01*
X112263572Y-81934461D01*
X112318800Y-81931934D01*
X112408754Y-81921444D01*
X112441909Y-81871964D01*
X112445800Y-81804934D01*
X112435310Y-81714980D01*
X112385830Y-81681825D01*
X112318800Y-81677934D01*
X112228845Y-81667444D01*
X112195690Y-81617964D01*
X112191800Y-81550934D01*
X112202289Y-81460980D01*
X112251769Y-81427825D01*
X112318800Y-81423934D01*
X112408754Y-81413444D01*
X112441909Y-81363964D01*
X112445800Y-81296934D01*
X112435310Y-81206980D01*
X112385830Y-81173825D01*
X112318800Y-81169934D01*
X112228036Y-81158543D01*
X112194832Y-81110123D01*
X112191800Y-81064100D01*
X112205468Y-80988464D01*
X112263572Y-80960795D01*
X112318800Y-80958267D01*
X112408754Y-80947778D01*
X112441909Y-80898297D01*
X112445800Y-80831267D01*
X112435310Y-80741313D01*
X112385830Y-80708158D01*
X112318800Y-80704267D01*
X112228036Y-80692877D01*
X112194832Y-80644457D01*
X112191800Y-80598434D01*
X112205468Y-80522798D01*
X112263572Y-80495128D01*
X112318800Y-80492600D01*
X112404126Y-80484341D01*
X112439123Y-80442446D01*
X112445800Y-80344434D01*
X112438720Y-80244886D01*
X112402810Y-80204056D01*
X112318800Y-80196267D01*
X112228036Y-80184877D01*
X112194832Y-80136457D01*
X112191800Y-80090434D01*
X112205468Y-80014798D01*
X112263572Y-79987128D01*
X112318800Y-79984600D01*
X112408754Y-79974111D01*
X112441909Y-79924631D01*
X112445800Y-79857600D01*
X112435310Y-79767646D01*
X112385830Y-79734491D01*
X112318800Y-79730600D01*
X112228036Y-79719210D01*
X112194832Y-79670790D01*
X112191800Y-79624767D01*
X112205468Y-79549131D01*
X112263572Y-79521461D01*
X112318800Y-79518934D01*
X112408754Y-79508444D01*
X112441909Y-79458964D01*
X112445800Y-79391934D01*
X112435310Y-79301980D01*
X112385830Y-79268825D01*
X112318800Y-79264934D01*
X112228845Y-79254444D01*
X112195690Y-79204964D01*
X112191800Y-79137934D01*
X112202289Y-79047980D01*
X112251769Y-79014825D01*
X112318800Y-79010934D01*
X112408754Y-79000444D01*
X112441909Y-78950964D01*
X112445800Y-78883934D01*
X112435310Y-78793980D01*
X112385830Y-78760825D01*
X112318800Y-78756934D01*
X112228036Y-78745543D01*
X112194832Y-78697123D01*
X112191800Y-78651100D01*
X112205468Y-78575464D01*
X112263572Y-78547795D01*
X112318800Y-78545267D01*
X112408754Y-78534778D01*
X112441909Y-78485297D01*
X112445800Y-78418267D01*
X112435310Y-78328313D01*
X112385830Y-78295158D01*
X112318800Y-78291267D01*
X112228036Y-78279877D01*
X112194832Y-78231457D01*
X112191800Y-78185434D01*
X112205468Y-78109798D01*
X112263572Y-78082128D01*
X112318800Y-78079600D01*
X112404126Y-78071341D01*
X112439123Y-78029446D01*
X112445800Y-77931434D01*
X112438720Y-77831886D01*
X112402810Y-77791056D01*
X112318800Y-77783267D01*
X112228036Y-77771877D01*
X112194832Y-77723457D01*
X112191800Y-77677434D01*
X112205468Y-77601798D01*
X112263572Y-77574128D01*
X112318800Y-77571600D01*
X112408754Y-77561111D01*
X112441909Y-77511631D01*
X112445800Y-77444600D01*
X112435310Y-77354646D01*
X112385830Y-77321491D01*
X112318800Y-77317600D01*
X112228036Y-77306210D01*
X112194832Y-77257790D01*
X112191800Y-77211767D01*
X112205468Y-77136131D01*
X112263572Y-77108461D01*
X112318800Y-77105934D01*
X112408754Y-77095444D01*
X112441909Y-77045964D01*
X112445800Y-76978934D01*
X112435310Y-76888980D01*
X112385830Y-76855825D01*
X112318800Y-76851934D01*
X112228845Y-76841444D01*
X112195690Y-76791964D01*
X112191800Y-76724934D01*
X112202289Y-76634980D01*
X112251769Y-76601825D01*
X112318800Y-76597934D01*
X112408754Y-76587444D01*
X112441909Y-76537964D01*
X112445800Y-76470934D01*
X112435310Y-76380980D01*
X112385830Y-76347825D01*
X112318800Y-76343934D01*
X112228036Y-76332543D01*
X112194832Y-76284123D01*
X112191800Y-76238100D01*
X112205468Y-76162464D01*
X112263572Y-76134795D01*
X112318800Y-76132267D01*
X112408754Y-76121778D01*
X112441909Y-76072297D01*
X112445800Y-76005267D01*
X112435310Y-75915313D01*
X112385830Y-75882158D01*
X112318800Y-75878267D01*
X112228845Y-75867778D01*
X112195690Y-75818297D01*
X112191800Y-75751267D01*
X112202289Y-75661313D01*
X112251769Y-75628158D01*
X112318800Y-75624267D01*
X112409563Y-75612877D01*
X112442767Y-75564457D01*
X112445800Y-75518434D01*
X112432131Y-75442798D01*
X112374027Y-75415128D01*
X112318800Y-75412600D01*
X112228845Y-75402111D01*
X112195690Y-75352631D01*
X112191800Y-75285600D01*
X112202289Y-75195646D01*
X112251769Y-75162491D01*
X112318800Y-75158600D01*
X112408754Y-75148111D01*
X112441909Y-75098631D01*
X112445800Y-75031600D01*
X112435310Y-74941646D01*
X112385830Y-74908491D01*
X112318800Y-74904600D01*
X112228036Y-74893210D01*
X112194832Y-74844790D01*
X112191800Y-74798767D01*
X112205468Y-74723131D01*
X112263572Y-74695461D01*
X112318800Y-74692934D01*
X112408754Y-74682444D01*
X112441909Y-74632964D01*
X112445800Y-74565934D01*
X112435310Y-74475980D01*
X112385830Y-74442825D01*
X112318800Y-74438934D01*
X112228036Y-74427543D01*
X112194832Y-74379123D01*
X112191800Y-74333100D01*
X112205468Y-74257464D01*
X112263572Y-74229795D01*
X112318800Y-74227267D01*
X112404126Y-74219007D01*
X112439123Y-74177112D01*
X112445800Y-74079100D01*
X112438720Y-73979553D01*
X112402810Y-73938723D01*
X112318800Y-73930934D01*
X112228036Y-73919543D01*
X112194832Y-73871123D01*
X112191800Y-73825100D01*
X112205468Y-73749464D01*
X112263572Y-73721795D01*
X112318800Y-73719267D01*
X112408754Y-73708778D01*
X112441909Y-73659297D01*
X112445800Y-73592267D01*
X112435310Y-73502313D01*
X112385830Y-73469158D01*
X112318800Y-73465267D01*
X112228036Y-73453877D01*
X112194832Y-73405457D01*
X112191800Y-73359434D01*
X112205468Y-73283798D01*
X112263572Y-73256128D01*
X112318800Y-73253600D01*
X112408754Y-73243111D01*
X112441909Y-73193631D01*
X112445800Y-73126600D01*
X112435310Y-73036646D01*
X112385830Y-73003491D01*
X112318800Y-72999600D01*
X112228845Y-72989111D01*
X112195690Y-72939631D01*
X112191800Y-72872600D01*
X112202289Y-72782646D01*
X112251769Y-72749491D01*
X112318800Y-72745600D01*
X112408754Y-72735111D01*
X112441909Y-72685631D01*
X112445800Y-72618600D01*
X112435310Y-72528646D01*
X112385830Y-72495491D01*
X112318800Y-72491600D01*
X112228036Y-72480210D01*
X112194832Y-72431790D01*
X112191800Y-72385767D01*
X112205468Y-72310131D01*
X112263572Y-72282461D01*
X112318800Y-72279934D01*
X112408754Y-72269444D01*
X112441909Y-72219964D01*
X112445800Y-72152934D01*
X112435310Y-72062980D01*
X112385830Y-72029825D01*
X112318800Y-72025934D01*
X112228036Y-72014543D01*
X112194832Y-71966123D01*
X112191800Y-71920100D01*
X112205468Y-71844464D01*
X112263572Y-71816795D01*
X112318800Y-71814267D01*
X112404126Y-71806007D01*
X112439123Y-71764112D01*
X112445800Y-71666100D01*
X112438720Y-71566553D01*
X112402810Y-71525723D01*
X112318800Y-71517934D01*
X112228036Y-71506543D01*
X112194832Y-71458123D01*
X112191800Y-71412100D01*
X112205468Y-71336464D01*
X112263572Y-71308795D01*
X112318800Y-71306267D01*
X112408754Y-71295778D01*
X112441909Y-71246297D01*
X112445800Y-71179267D01*
X112435310Y-71089313D01*
X112385830Y-71056158D01*
X112318800Y-71052267D01*
X112228036Y-71040877D01*
X112194832Y-70992457D01*
X112191800Y-70946434D01*
X112205468Y-70870798D01*
X112263572Y-70843128D01*
X112318800Y-70840600D01*
X112408754Y-70830111D01*
X112441909Y-70780631D01*
X112445800Y-70713600D01*
X112435310Y-70623646D01*
X112385830Y-70590491D01*
X112318800Y-70586600D01*
X112228845Y-70576111D01*
X112195690Y-70526631D01*
X112191800Y-70459600D01*
X112202289Y-70369646D01*
X112251769Y-70336491D01*
X112318800Y-70332600D01*
X112408754Y-70322111D01*
X112441909Y-70272631D01*
X112445800Y-70205600D01*
X112435310Y-70115646D01*
X112385830Y-70082491D01*
X112318800Y-70078600D01*
X112228036Y-70067210D01*
X112194832Y-70018790D01*
X112191800Y-69972767D01*
X112205468Y-69897131D01*
G37*
X112205468Y-69897131D02*
X112263572Y-69869461D01*
X112318800Y-69866934D01*
X112404126Y-69858674D01*
X112439123Y-69816779D01*
X112445800Y-69718767D01*
X112452879Y-69619220D01*
X112488789Y-69578389D01*
X112572800Y-69570600D01*
X112658126Y-69578860D01*
X112693123Y-69620755D01*
X112699800Y-69718767D01*
X112706879Y-69818315D01*
X112742789Y-69859145D01*
X112826800Y-69866934D01*
X112912126Y-69858674D01*
X112947123Y-69816779D01*
X112953800Y-69718767D01*
X112960879Y-69619220D01*
X112996789Y-69578389D01*
X113080800Y-69570600D01*
X113166126Y-69578860D01*
X113201123Y-69620755D01*
X113207800Y-69718767D01*
X113214879Y-69818315D01*
X113250789Y-69859145D01*
X113334800Y-69866934D01*
X113420126Y-69858674D01*
X113455123Y-69816779D01*
X113461800Y-69718767D01*
X113468879Y-69619220D01*
X113504789Y-69578389D01*
X113588800Y-69570600D01*
X113674126Y-69578860D01*
X113709123Y-69620755D01*
X113715800Y-69718767D01*
X113722879Y-69818315D01*
X113758789Y-69859145D01*
X113842800Y-69866934D01*
X113928126Y-69858674D01*
X113963123Y-69816779D01*
X113969800Y-69718767D01*
X113976879Y-69619220D01*
X114012789Y-69578389D01*
X114096800Y-69570600D01*
X114182126Y-69578860D01*
X114217123Y-69620755D01*
X114223800Y-69718767D01*
X114230879Y-69818315D01*
X114266789Y-69859145D01*
X114350800Y-69866934D01*
X114441563Y-69878324D01*
X114474767Y-69926744D01*
X114477800Y-69972767D01*
X114464131Y-70048403D01*
X114406027Y-70076073D01*
X114350800Y-70078600D01*
X114260845Y-70089090D01*
X114227690Y-70138570D01*
X114223800Y-70205600D01*
X114234289Y-70295555D01*
X114283769Y-70328710D01*
X114350800Y-70332600D01*
X114440754Y-70343090D01*
X114473909Y-70392570D01*
X114477800Y-70459600D01*
X114467310Y-70549555D01*
X114417830Y-70582710D01*
X114350800Y-70586600D01*
X114260845Y-70597090D01*
X114227690Y-70646570D01*
X114223800Y-70713600D01*
X114234289Y-70803555D01*
X114283769Y-70836710D01*
X114350800Y-70840600D01*
X114441563Y-70851991D01*
X114474767Y-70900411D01*
X114477800Y-70946434D01*
X114464131Y-71022070D01*
X114406027Y-71049740D01*
X114350800Y-71052267D01*
X114260845Y-71062757D01*
X114227690Y-71112237D01*
X114223800Y-71179267D01*
X114234289Y-71269221D01*
X114283769Y-71302376D01*
X114350800Y-71306267D01*
X114441563Y-71317658D01*
X114474767Y-71366078D01*
X114477800Y-71412100D01*
X114464131Y-71487737D01*
X114406027Y-71515406D01*
X114350800Y-71517934D01*
X114265473Y-71526194D01*
X114230476Y-71568089D01*
X114223800Y-71666100D01*
X114230879Y-71765648D01*
X114266789Y-71806478D01*
X114350800Y-71814267D01*
X114441563Y-71825658D01*
X114474767Y-71874078D01*
X114477800Y-71920100D01*
X114464131Y-71995737D01*
X114406027Y-72023406D01*
X114350800Y-72025934D01*
X114260845Y-72036423D01*
X114227690Y-72085904D01*
X114223800Y-72152934D01*
X114234289Y-72242888D01*
X114283769Y-72276043D01*
X114350800Y-72279934D01*
X114441563Y-72291324D01*
X114474767Y-72339744D01*
X114477800Y-72385767D01*
X114464131Y-72461403D01*
X114406027Y-72489073D01*
X114350800Y-72491600D01*
X114260845Y-72502090D01*
X114227690Y-72551570D01*
X114223800Y-72618600D01*
X114234289Y-72708555D01*
X114283769Y-72741710D01*
X114350800Y-72745600D01*
X114440754Y-72756090D01*
X114473909Y-72805570D01*
X114477800Y-72872600D01*
X114467310Y-72962555D01*
X114417830Y-72995710D01*
X114350800Y-72999600D01*
X114260845Y-73010090D01*
X114227690Y-73059570D01*
X114223800Y-73126600D01*
X114234289Y-73216555D01*
X114283769Y-73249710D01*
X114350800Y-73253600D01*
X114441563Y-73264991D01*
X114474767Y-73313411D01*
X114477800Y-73359434D01*
X114464131Y-73435070D01*
X114406027Y-73462740D01*
X114350800Y-73465267D01*
X114260845Y-73475757D01*
X114227690Y-73525237D01*
X114223800Y-73592267D01*
X114234289Y-73682221D01*
X114283769Y-73715376D01*
X114350800Y-73719267D01*
X114441563Y-73730658D01*
X114474767Y-73779078D01*
X114477800Y-73825100D01*
X114464131Y-73900737D01*
X114406027Y-73928406D01*
X114350800Y-73930934D01*
X114265473Y-73939194D01*
X114230476Y-73981089D01*
X114223800Y-74079100D01*
X114230879Y-74178648D01*
X114266789Y-74219478D01*
X114350800Y-74227267D01*
X114441563Y-74238658D01*
X114474767Y-74287078D01*
X114477800Y-74333100D01*
X114464131Y-74408737D01*
X114406027Y-74436406D01*
X114350800Y-74438934D01*
X114260845Y-74449423D01*
X114227690Y-74498904D01*
X114223800Y-74565934D01*
X114234289Y-74655888D01*
X114283769Y-74689043D01*
X114350800Y-74692934D01*
X114441563Y-74704324D01*
X114474767Y-74752744D01*
X114477800Y-74798767D01*
X114464131Y-74874403D01*
X114406027Y-74902073D01*
X114350800Y-74904600D01*
X114260845Y-74915090D01*
X114227690Y-74964570D01*
X114223800Y-75031600D01*
X114234289Y-75121555D01*
X114283769Y-75154710D01*
X114350800Y-75158600D01*
X114440754Y-75169090D01*
X114473909Y-75218570D01*
X114477800Y-75285600D01*
X114467310Y-75375555D01*
X114417830Y-75408710D01*
X114350800Y-75412600D01*
X114260036Y-75423991D01*
X114226832Y-75472411D01*
X114223800Y-75518434D01*
X114237468Y-75594070D01*
X114295572Y-75621740D01*
X114350800Y-75624267D01*
X114440754Y-75634757D01*
X114473909Y-75684237D01*
X114477800Y-75751267D01*
X114467310Y-75841221D01*
X114417830Y-75874376D01*
X114350800Y-75878267D01*
X114260845Y-75888757D01*
X114227690Y-75938237D01*
X114223800Y-76005267D01*
X114234289Y-76095221D01*
X114283769Y-76128376D01*
X114350800Y-76132267D01*
X114441563Y-76143658D01*
X114474767Y-76192078D01*
X114477800Y-76238100D01*
X114464131Y-76313737D01*
X114406027Y-76341406D01*
X114350800Y-76343934D01*
X114260845Y-76354423D01*
X114227690Y-76403904D01*
X114223800Y-76470934D01*
X114234289Y-76560888D01*
X114283769Y-76594043D01*
X114350800Y-76597934D01*
X114440754Y-76608423D01*
X114473909Y-76657904D01*
X114477800Y-76724934D01*
X114467310Y-76814888D01*
X114417830Y-76848043D01*
X114350800Y-76851934D01*
X114260845Y-76862423D01*
X114227690Y-76911904D01*
X114223800Y-76978934D01*
X114234289Y-77068888D01*
X114283769Y-77102043D01*
X114350800Y-77105934D01*
X114441563Y-77117324D01*
X114474767Y-77165744D01*
X114477800Y-77211767D01*
X114464131Y-77287403D01*
X114406027Y-77315073D01*
X114350800Y-77317600D01*
X114260845Y-77328090D01*
X114227690Y-77377570D01*
X114223800Y-77444600D01*
X114234289Y-77534555D01*
X114283769Y-77567710D01*
X114350800Y-77571600D01*
X114441563Y-77582991D01*
X114474767Y-77631411D01*
X114477800Y-77677434D01*
X114464131Y-77753070D01*
X114406027Y-77780740D01*
X114350800Y-77783267D01*
X114265473Y-77791527D01*
X114230476Y-77833422D01*
X114223800Y-77931434D01*
X114230879Y-78030981D01*
X114266789Y-78071812D01*
X114350800Y-78079600D01*
X114441563Y-78090991D01*
X114474767Y-78139411D01*
X114477800Y-78185434D01*
X114464131Y-78261070D01*
X114406027Y-78288740D01*
X114350800Y-78291267D01*
X114260845Y-78301757D01*
X114227690Y-78351237D01*
X114223800Y-78418267D01*
X114234289Y-78508221D01*
X114283769Y-78541376D01*
X114350800Y-78545267D01*
X114441563Y-78556658D01*
X114474767Y-78605078D01*
X114477800Y-78651100D01*
X114464131Y-78726737D01*
X114406027Y-78754406D01*
X114350800Y-78756934D01*
X114260845Y-78767423D01*
X114227690Y-78816904D01*
X114223800Y-78883934D01*
X114234289Y-78973888D01*
X114283769Y-79007043D01*
X114350800Y-79010934D01*
X114440754Y-79021423D01*
X114473909Y-79070904D01*
X114477800Y-79137934D01*
X114467310Y-79227888D01*
X114417830Y-79261043D01*
X114350800Y-79264934D01*
X114260845Y-79275423D01*
X114227690Y-79324904D01*
X114223800Y-79391934D01*
X114234289Y-79481888D01*
X114283769Y-79515043D01*
X114350800Y-79518934D01*
X114441563Y-79530324D01*
X114474767Y-79578744D01*
X114477800Y-79624767D01*
X114464131Y-79700403D01*
X114406027Y-79728073D01*
X114350800Y-79730600D01*
X114260845Y-79741090D01*
X114227690Y-79790570D01*
X114223800Y-79857600D01*
X114234289Y-79947555D01*
X114283769Y-79980710D01*
X114350800Y-79984600D01*
X114441563Y-79995991D01*
X114474767Y-80044411D01*
X114477800Y-80090434D01*
X114464131Y-80166070D01*
X114406027Y-80193740D01*
X114350800Y-80196267D01*
X114265473Y-80204527D01*
X114230476Y-80246422D01*
X114223800Y-80344434D01*
X114230879Y-80443981D01*
X114266789Y-80484812D01*
X114350800Y-80492600D01*
X114441563Y-80503991D01*
X114474767Y-80552411D01*
X114477800Y-80598434D01*
X114464131Y-80674070D01*
X114406027Y-80701740D01*
X114350800Y-80704267D01*
X114260845Y-80714757D01*
X114227690Y-80764237D01*
X114223800Y-80831267D01*
X114234289Y-80921221D01*
X114283769Y-80954376D01*
X114350800Y-80958267D01*
X114441563Y-80969658D01*
X114474767Y-81018078D01*
X114477800Y-81064100D01*
X114464131Y-81139737D01*
X114406027Y-81167406D01*
X114350800Y-81169934D01*
X114260845Y-81180423D01*
X114227690Y-81229904D01*
X114223800Y-81296934D01*
X114234289Y-81386888D01*
X114283769Y-81420043D01*
X114350800Y-81423934D01*
X114440754Y-81434423D01*
X114473909Y-81483904D01*
X114477800Y-81550934D01*
X114467310Y-81640888D01*
X114417830Y-81674043D01*
X114350800Y-81677934D01*
X114260845Y-81688423D01*
X114227690Y-81737904D01*
X114223800Y-81804934D01*
X114234289Y-81894888D01*
X114283769Y-81928043D01*
X114350800Y-81931934D01*
X114441563Y-81943324D01*
X114474767Y-81991744D01*
X114477800Y-82037767D01*
X114464131Y-82113403D01*
X114406027Y-82141073D01*
X114350800Y-82143600D01*
X114260845Y-82154090D01*
X114227690Y-82203570D01*
X114223800Y-82270600D01*
X114234289Y-82360555D01*
X114283769Y-82393710D01*
X114350800Y-82397600D01*
X114440754Y-82408090D01*
X114473909Y-82457570D01*
X114477800Y-82524600D01*
X114467310Y-82614555D01*
X114417830Y-82647710D01*
X114350800Y-82651600D01*
X114260845Y-82662090D01*
X114227690Y-82711570D01*
X114223800Y-82778600D01*
X114234289Y-82868555D01*
X114283769Y-82901710D01*
X114350800Y-82905600D01*
X114441563Y-82916991D01*
X114474767Y-82965411D01*
X114477800Y-83011434D01*
X114464131Y-83087070D01*
X114406027Y-83114740D01*
X114350800Y-83117267D01*
X114260845Y-83127757D01*
X114227690Y-83177237D01*
X114223800Y-83244267D01*
X114234289Y-83334221D01*
X114283769Y-83367376D01*
X114350800Y-83371267D01*
X114441563Y-83382658D01*
X114474767Y-83431078D01*
X114477800Y-83477100D01*
X114464131Y-83552737D01*
X114406027Y-83580406D01*
X114350800Y-83582934D01*
X114265473Y-83591194D01*
X114230476Y-83633089D01*
X114223800Y-83731100D01*
X114230879Y-83830648D01*
X114266789Y-83871478D01*
X114350800Y-83879267D01*
X114441563Y-83890658D01*
X114474767Y-83939078D01*
X114477800Y-83985100D01*
X114464131Y-84060737D01*
X114406027Y-84088406D01*
X114350800Y-84090934D01*
X114260845Y-84101423D01*
X114227690Y-84150904D01*
X114223800Y-84217934D01*
X114234289Y-84307888D01*
X114283769Y-84341043D01*
X114350800Y-84344934D01*
X114441563Y-84356324D01*
X114474767Y-84404744D01*
X114477800Y-84450767D01*
X114464131Y-84526403D01*
X114406027Y-84554073D01*
X114350800Y-84556600D01*
X114260845Y-84567090D01*
X114227690Y-84616570D01*
X114223800Y-84683600D01*
X114213310Y-84773555D01*
X114163830Y-84806710D01*
X114096800Y-84810600D01*
X114006845Y-84800111D01*
X113973690Y-84750631D01*
X113969800Y-84683600D01*
X113959310Y-84593646D01*
X113909830Y-84560491D01*
X113842800Y-84556600D01*
X113842800Y-84344934D01*
X113932754Y-84334444D01*
X113965909Y-84284964D01*
X113969800Y-84217934D01*
X113959310Y-84127980D01*
X113909830Y-84094825D01*
X113842800Y-84090934D01*
X113842800Y-83879267D01*
X113928126Y-83871007D01*
X113963123Y-83829112D01*
X113969800Y-83731100D01*
X113962720Y-83631553D01*
X113926810Y-83590723D01*
X113842800Y-83582934D01*
X113842800Y-83371267D01*
X113932754Y-83360778D01*
X113965909Y-83311297D01*
X113969800Y-83244267D01*
X113959310Y-83154313D01*
X113909830Y-83121158D01*
X113842800Y-83117267D01*
X113842800Y-82905600D01*
X113932754Y-82895111D01*
X113965909Y-82845631D01*
X113969800Y-82778600D01*
X113959310Y-82688646D01*
X113909830Y-82655491D01*
X113842800Y-82651600D01*
X113842800Y-82397600D01*
X113932754Y-82387111D01*
X113965909Y-82337631D01*
X113969800Y-82270600D01*
X113959310Y-82180646D01*
X113909830Y-82147491D01*
X113842800Y-82143600D01*
X113842800Y-81931934D01*
X113932754Y-81921444D01*
X113965909Y-81871964D01*
X113969800Y-81804934D01*
X113959310Y-81714980D01*
X113909830Y-81681825D01*
X113842800Y-81677934D01*
X113842800Y-81423934D01*
X113932754Y-81413444D01*
X113965909Y-81363964D01*
X113969800Y-81296934D01*
X113959310Y-81206980D01*
X113909830Y-81173825D01*
X113842800Y-81169934D01*
X113842800Y-80958267D01*
X113932754Y-80947778D01*
X113965909Y-80898297D01*
X113969800Y-80831267D01*
X113959310Y-80741313D01*
X113909830Y-80708158D01*
X113842800Y-80704267D01*
X113842800Y-80492600D01*
X113928126Y-80484341D01*
X113963123Y-80442446D01*
X113969800Y-80344434D01*
X113962720Y-80244886D01*
X113926810Y-80204056D01*
X113842800Y-80196267D01*
X113842800Y-79984600D01*
X113932754Y-79974111D01*
X113965909Y-79924631D01*
X113969800Y-79857600D01*
X113959310Y-79767646D01*
X113909830Y-79734491D01*
X113842800Y-79730600D01*
X113842800Y-79518934D01*
X113932754Y-79508444D01*
X113965909Y-79458964D01*
X113969800Y-79391934D01*
X113959310Y-79301980D01*
X113909830Y-79268825D01*
X113842800Y-79264934D01*
X113842800Y-79010934D01*
X113932754Y-79000444D01*
X113965909Y-78950964D01*
X113969800Y-78883934D01*
X113959310Y-78793980D01*
X113909830Y-78760825D01*
X113842800Y-78756934D01*
X113842800Y-78545267D01*
X113932754Y-78534778D01*
X113965909Y-78485297D01*
X113969800Y-78418267D01*
X113959310Y-78328313D01*
X113909830Y-78295158D01*
X113842800Y-78291267D01*
X113842800Y-78079600D01*
X113928126Y-78071341D01*
X113963123Y-78029446D01*
X113969800Y-77931434D01*
X113962720Y-77831886D01*
X113926810Y-77791056D01*
X113842800Y-77783267D01*
X113842800Y-77571600D01*
X113932754Y-77561111D01*
X113965909Y-77511631D01*
X113969800Y-77444600D01*
X113959310Y-77354646D01*
X113909830Y-77321491D01*
X113842800Y-77317600D01*
X113842800Y-77105934D01*
X113932754Y-77095444D01*
X113965909Y-77045964D01*
X113969800Y-76978934D01*
X113959310Y-76888980D01*
X113909830Y-76855825D01*
X113842800Y-76851934D01*
X113842800Y-76597934D01*
X113932754Y-76587444D01*
X113965909Y-76537964D01*
X113969800Y-76470934D01*
X113959310Y-76380980D01*
X113909830Y-76347825D01*
X113842800Y-76343934D01*
X113842800Y-76132267D01*
X113932754Y-76121778D01*
X113965909Y-76072297D01*
X113969800Y-76005267D01*
X113959310Y-75915313D01*
X113909830Y-75882158D01*
X113842800Y-75878267D01*
X113842800Y-75624267D01*
X113933563Y-75612877D01*
X113966767Y-75564457D01*
X113969800Y-75518434D01*
X113956131Y-75442798D01*
X113898027Y-75415128D01*
X113842800Y-75412600D01*
X113842800Y-75158600D01*
X113932754Y-75148111D01*
X113965909Y-75098631D01*
X113969800Y-75031600D01*
X113959310Y-74941646D01*
X113909830Y-74908491D01*
X113842800Y-74904600D01*
X113842800Y-74692934D01*
X113932754Y-74682444D01*
X113965909Y-74632964D01*
X113969800Y-74565934D01*
X113959310Y-74475980D01*
X113909830Y-74442825D01*
X113842800Y-74438934D01*
X113842800Y-74227267D01*
X113928126Y-74219007D01*
X113963123Y-74177112D01*
X113969800Y-74079100D01*
X113962720Y-73979553D01*
X113926810Y-73938723D01*
X113842800Y-73930934D01*
X113842800Y-73719267D01*
X113932754Y-73708778D01*
X113965909Y-73659297D01*
X113969800Y-73592267D01*
X113959310Y-73502313D01*
X113909830Y-73469158D01*
X113842800Y-73465267D01*
X113842800Y-73253600D01*
X113932754Y-73243111D01*
X113965909Y-73193631D01*
X113969800Y-73126600D01*
X113959310Y-73036646D01*
X113909830Y-73003491D01*
X113842800Y-72999600D01*
X113842800Y-72745600D01*
X113932754Y-72735111D01*
X113965909Y-72685631D01*
X113969800Y-72618600D01*
X113959310Y-72528646D01*
X113909830Y-72495491D01*
X113842800Y-72491600D01*
X113842800Y-72279934D01*
X113932754Y-72269444D01*
X113965909Y-72219964D01*
X113969800Y-72152934D01*
X113959310Y-72062980D01*
X113909830Y-72029825D01*
X113842800Y-72025934D01*
X113842800Y-71814267D01*
X113928126Y-71806007D01*
X113963123Y-71764112D01*
X113969800Y-71666100D01*
X113962720Y-71566553D01*
X113926810Y-71525723D01*
X113842800Y-71517934D01*
X113842800Y-71306267D01*
X113932754Y-71295778D01*
X113965909Y-71246297D01*
X113969800Y-71179267D01*
X113959310Y-71089313D01*
X113909830Y-71056158D01*
X113842800Y-71052267D01*
X113842800Y-70840600D01*
X113932754Y-70830111D01*
X113965909Y-70780631D01*
X113969800Y-70713600D01*
X113959310Y-70623646D01*
X113909830Y-70590491D01*
X113842800Y-70586600D01*
X113842800Y-70332600D01*
X113932754Y-70322111D01*
X113965909Y-70272631D01*
X113969800Y-70205600D01*
X113959310Y-70115646D01*
X113909830Y-70082491D01*
X113842800Y-70078600D01*
X113752845Y-70089090D01*
X113719690Y-70138570D01*
X113715800Y-70205600D01*
X113726289Y-70295555D01*
X113775769Y-70328710D01*
X113842800Y-70332600D01*
X113842800Y-70586600D01*
X113752845Y-70597090D01*
X113719690Y-70646570D01*
X113715800Y-70713600D01*
X113726289Y-70803555D01*
X113775769Y-70836710D01*
X113842800Y-70840600D01*
X113842800Y-71052267D01*
X113752845Y-71062757D01*
X113719690Y-71112237D01*
X113715800Y-71179267D01*
X113726289Y-71269221D01*
X113775769Y-71302376D01*
X113842800Y-71306267D01*
X113842800Y-71517934D01*
X113757473Y-71526194D01*
X113722476Y-71568089D01*
X113715800Y-71666100D01*
X113722879Y-71765648D01*
X113758789Y-71806478D01*
X113842800Y-71814267D01*
X113842800Y-72025934D01*
X113752845Y-72036423D01*
X113719690Y-72085904D01*
X113715800Y-72152934D01*
X113726289Y-72242888D01*
X113775769Y-72276043D01*
X113842800Y-72279934D01*
X113842800Y-72491600D01*
X113752845Y-72502090D01*
X113719690Y-72551570D01*
X113715800Y-72618600D01*
X113726289Y-72708555D01*
X113775769Y-72741710D01*
X113842800Y-72745600D01*
X113842800Y-72999600D01*
X113752845Y-73010090D01*
X113719690Y-73059570D01*
X113715800Y-73126600D01*
X113726289Y-73216555D01*
X113775769Y-73249710D01*
X113842800Y-73253600D01*
X113842800Y-73465267D01*
X113752845Y-73475757D01*
X113719690Y-73525237D01*
X113715800Y-73592267D01*
X113726289Y-73682221D01*
X113775769Y-73715376D01*
X113842800Y-73719267D01*
X113842800Y-73930934D01*
X113757473Y-73939194D01*
X113722476Y-73981089D01*
X113715800Y-74079100D01*
X113722879Y-74178648D01*
X113758789Y-74219478D01*
X113842800Y-74227267D01*
X113842800Y-74438934D01*
X113752845Y-74449423D01*
X113719690Y-74498904D01*
X113715800Y-74565934D01*
X113726289Y-74655888D01*
X113775769Y-74689043D01*
X113842800Y-74692934D01*
X113842800Y-74904600D01*
X113752845Y-74915090D01*
X113719690Y-74964570D01*
X113715800Y-75031600D01*
X113726289Y-75121555D01*
X113775769Y-75154710D01*
X113842800Y-75158600D01*
X113842800Y-75412600D01*
X113752036Y-75423991D01*
X113718832Y-75472411D01*
X113715800Y-75518434D01*
X113729468Y-75594070D01*
X113787572Y-75621740D01*
X113842800Y-75624267D01*
X113842800Y-75878267D01*
X113752845Y-75888757D01*
X113719690Y-75938237D01*
X113715800Y-76005267D01*
X113726289Y-76095221D01*
X113775769Y-76128376D01*
X113842800Y-76132267D01*
X113842800Y-76343934D01*
X113752845Y-76354423D01*
X113719690Y-76403904D01*
X113715800Y-76470934D01*
X113726289Y-76560888D01*
X113775769Y-76594043D01*
X113842800Y-76597934D01*
X113842800Y-76851934D01*
X113752845Y-76862423D01*
X113719690Y-76911904D01*
X113715800Y-76978934D01*
X113726289Y-77068888D01*
X113775769Y-77102043D01*
X113842800Y-77105934D01*
X113842800Y-77317600D01*
X113752845Y-77328090D01*
X113719690Y-77377570D01*
X113715800Y-77444600D01*
X113726289Y-77534555D01*
X113775769Y-77567710D01*
X113842800Y-77571600D01*
X113842800Y-77783267D01*
X113757473Y-77791527D01*
X113722476Y-77833422D01*
X113715800Y-77931434D01*
X113722879Y-78030981D01*
X113758789Y-78071812D01*
X113842800Y-78079600D01*
X113842800Y-78291267D01*
X113752845Y-78301757D01*
X113719690Y-78351237D01*
X113715800Y-78418267D01*
X113726289Y-78508221D01*
X113775769Y-78541376D01*
X113842800Y-78545267D01*
X113842800Y-78756934D01*
X113752845Y-78767423D01*
X113719690Y-78816904D01*
X113715800Y-78883934D01*
X113726289Y-78973888D01*
X113775769Y-79007043D01*
X113842800Y-79010934D01*
X113842800Y-79264934D01*
X113752845Y-79275423D01*
X113719690Y-79324904D01*
X113715800Y-79391934D01*
X113726289Y-79481888D01*
X113775769Y-79515043D01*
X113842800Y-79518934D01*
X113842800Y-79730600D01*
X113752845Y-79741090D01*
X113719690Y-79790570D01*
X113715800Y-79857600D01*
X113726289Y-79947555D01*
X113775769Y-79980710D01*
X113842800Y-79984600D01*
X113842800Y-80196267D01*
X113757473Y-80204527D01*
X113722476Y-80246422D01*
X113715800Y-80344434D01*
X113722879Y-80443981D01*
X113758789Y-80484812D01*
X113842800Y-80492600D01*
X113842800Y-80704267D01*
X113752845Y-80714757D01*
X113719690Y-80764237D01*
X113715800Y-80831267D01*
X113726289Y-80921221D01*
X113775769Y-80954376D01*
X113842800Y-80958267D01*
X113842800Y-81169934D01*
X113752845Y-81180423D01*
X113719690Y-81229904D01*
X113715800Y-81296934D01*
X113726289Y-81386888D01*
X113775769Y-81420043D01*
X113842800Y-81423934D01*
X113842800Y-81677934D01*
X113752845Y-81688423D01*
X113719690Y-81737904D01*
X113715800Y-81804934D01*
X113726289Y-81894888D01*
X113775769Y-81928043D01*
X113842800Y-81931934D01*
X113842800Y-82143600D01*
X113752845Y-82154090D01*
X113719690Y-82203570D01*
X113715800Y-82270600D01*
X113726289Y-82360555D01*
X113775769Y-82393710D01*
X113842800Y-82397600D01*
X113842800Y-82651600D01*
X113752845Y-82662090D01*
X113719690Y-82711570D01*
X113715800Y-82778600D01*
X113726289Y-82868555D01*
X113775769Y-82901710D01*
X113842800Y-82905600D01*
X113842800Y-83117267D01*
X113752845Y-83127757D01*
X113719690Y-83177237D01*
X113715800Y-83244267D01*
X113726289Y-83334221D01*
X113775769Y-83367376D01*
X113842800Y-83371267D01*
X113842800Y-83582934D01*
X113757473Y-83591194D01*
X113722476Y-83633089D01*
X113715800Y-83731100D01*
X113722879Y-83830648D01*
X113758789Y-83871478D01*
X113842800Y-83879267D01*
X113842800Y-84090934D01*
X113752845Y-84101423D01*
X113719690Y-84150904D01*
X113715800Y-84217934D01*
X113726289Y-84307888D01*
X113775769Y-84341043D01*
X113842800Y-84344934D01*
X113842800Y-84556600D01*
X113752845Y-84567090D01*
X113719690Y-84616570D01*
X113715800Y-84683600D01*
X113705310Y-84773555D01*
X113655830Y-84806710D01*
X113588800Y-84810600D01*
X113498845Y-84800111D01*
X113465690Y-84750631D01*
X113461800Y-84683600D01*
X113451310Y-84593646D01*
X113401830Y-84560491D01*
X113334800Y-84556600D01*
X113334800Y-84344934D01*
X113424754Y-84334444D01*
X113457909Y-84284964D01*
X113461800Y-84217934D01*
X113451310Y-84127980D01*
X113401830Y-84094825D01*
X113334800Y-84090934D01*
X113334800Y-83879267D01*
X113420126Y-83871007D01*
X113455123Y-83829112D01*
X113461800Y-83731100D01*
X113454720Y-83631553D01*
X113418810Y-83590723D01*
X113334800Y-83582934D01*
X113334800Y-83371267D01*
X113424754Y-83360778D01*
X113457909Y-83311297D01*
X113461800Y-83244267D01*
X113451310Y-83154313D01*
X113401830Y-83121158D01*
X113334800Y-83117267D01*
X113334800Y-82905600D01*
X113424754Y-82895111D01*
X113457909Y-82845631D01*
X113461800Y-82778600D01*
X113451310Y-82688646D01*
X113401830Y-82655491D01*
X113334800Y-82651600D01*
X113334800Y-82397600D01*
X113424754Y-82387111D01*
X113457909Y-82337631D01*
X113461800Y-82270600D01*
X113451310Y-82180646D01*
X113401830Y-82147491D01*
X113334800Y-82143600D01*
X113334800Y-81931934D01*
X113424754Y-81921444D01*
X113457909Y-81871964D01*
X113461800Y-81804934D01*
X113451310Y-81714980D01*
X113401830Y-81681825D01*
X113334800Y-81677934D01*
X113334800Y-81423934D01*
X113424754Y-81413444D01*
X113457909Y-81363964D01*
X113461800Y-81296934D01*
X113451310Y-81206980D01*
X113401830Y-81173825D01*
X113334800Y-81169934D01*
X113334800Y-80958267D01*
X113424754Y-80947778D01*
X113457909Y-80898297D01*
X113461800Y-80831267D01*
X113451310Y-80741313D01*
X113401830Y-80708158D01*
X113334800Y-80704267D01*
X113334800Y-80492600D01*
X113420126Y-80484341D01*
X113455123Y-80442446D01*
X113461800Y-80344434D01*
X113454720Y-80244886D01*
X113418810Y-80204056D01*
X113334800Y-80196267D01*
X113334800Y-79984600D01*
X113424754Y-79974111D01*
X113457909Y-79924631D01*
X113461800Y-79857600D01*
X113451310Y-79767646D01*
X113401830Y-79734491D01*
X113334800Y-79730600D01*
X113334800Y-79518934D01*
X113424754Y-79508444D01*
X113457909Y-79458964D01*
X113461800Y-79391934D01*
X113451310Y-79301980D01*
X113401830Y-79268825D01*
X113334800Y-79264934D01*
X113334800Y-79010934D01*
X113424754Y-79000444D01*
X113457909Y-78950964D01*
X113461800Y-78883934D01*
X113451310Y-78793980D01*
X113401830Y-78760825D01*
X113334800Y-78756934D01*
X113334800Y-78545267D01*
X113424754Y-78534778D01*
X113457909Y-78485297D01*
X113461800Y-78418267D01*
X113451310Y-78328313D01*
X113401830Y-78295158D01*
X113334800Y-78291267D01*
X113334800Y-78079600D01*
X113420126Y-78071341D01*
X113455123Y-78029446D01*
X113461800Y-77931434D01*
X113454720Y-77831886D01*
X113418810Y-77791056D01*
X113334800Y-77783267D01*
X113334800Y-77571600D01*
X113424754Y-77561111D01*
X113457909Y-77511631D01*
X113461800Y-77444600D01*
X113451310Y-77354646D01*
X113401830Y-77321491D01*
X113334800Y-77317600D01*
X113334800Y-77105934D01*
X113424754Y-77095444D01*
X113457909Y-77045964D01*
X113461800Y-76978934D01*
X113451310Y-76888980D01*
X113401830Y-76855825D01*
X113334800Y-76851934D01*
X113334800Y-76597934D01*
X113424754Y-76587444D01*
X113457909Y-76537964D01*
X113461800Y-76470934D01*
X113451310Y-76380980D01*
X113401830Y-76347825D01*
X113334800Y-76343934D01*
X113334800Y-76132267D01*
X113424754Y-76121778D01*
X113457909Y-76072297D01*
X113461800Y-76005267D01*
X113451310Y-75915313D01*
X113401830Y-75882158D01*
X113334800Y-75878267D01*
X113334800Y-75624267D01*
X113425563Y-75612877D01*
X113458767Y-75564457D01*
X113461800Y-75518434D01*
X113448131Y-75442798D01*
X113390027Y-75415128D01*
X113334800Y-75412600D01*
X113334800Y-75158600D01*
X113424754Y-75148111D01*
X113457909Y-75098631D01*
X113461800Y-75031600D01*
X113451310Y-74941646D01*
X113401830Y-74908491D01*
X113334800Y-74904600D01*
X113334800Y-74692934D01*
X113424754Y-74682444D01*
X113457909Y-74632964D01*
X113461800Y-74565934D01*
X113451310Y-74475980D01*
X113401830Y-74442825D01*
X113334800Y-74438934D01*
X113334800Y-74227267D01*
X113420126Y-74219007D01*
X113455123Y-74177112D01*
X113461800Y-74079100D01*
X113454720Y-73979553D01*
X113418810Y-73938723D01*
X113334800Y-73930934D01*
X113334800Y-73719267D01*
X113424754Y-73708778D01*
X113457909Y-73659297D01*
X113461800Y-73592267D01*
X113451310Y-73502313D01*
X113401830Y-73469158D01*
X113334800Y-73465267D01*
X113334800Y-73253600D01*
X113424754Y-73243111D01*
X113457909Y-73193631D01*
X113461800Y-73126600D01*
X113451310Y-73036646D01*
X113401830Y-73003491D01*
X113334800Y-72999600D01*
X113334800Y-72745600D01*
X113424754Y-72735111D01*
X113457909Y-72685631D01*
X113461800Y-72618600D01*
X113451310Y-72528646D01*
X113401830Y-72495491D01*
X113334800Y-72491600D01*
X113334800Y-72279934D01*
X113424754Y-72269444D01*
X113457909Y-72219964D01*
X113461800Y-72152934D01*
X113451310Y-72062980D01*
X113401830Y-72029825D01*
X113334800Y-72025934D01*
X113334800Y-71814267D01*
X113420126Y-71806007D01*
X113455123Y-71764112D01*
X113461800Y-71666100D01*
X113454720Y-71566553D01*
X113418810Y-71525723D01*
X113334800Y-71517934D01*
X113334800Y-71306267D01*
X113424754Y-71295778D01*
X113457909Y-71246297D01*
X113461800Y-71179267D01*
X113451310Y-71089313D01*
X113401830Y-71056158D01*
X113334800Y-71052267D01*
X113334800Y-70840600D01*
X113424754Y-70830111D01*
X113457909Y-70780631D01*
X113461800Y-70713600D01*
X113451310Y-70623646D01*
X113401830Y-70590491D01*
X113334800Y-70586600D01*
X113334800Y-70332600D01*
X113424754Y-70322111D01*
X113457909Y-70272631D01*
X113461800Y-70205600D01*
X113451310Y-70115646D01*
X113401830Y-70082491D01*
X113334800Y-70078600D01*
X113244845Y-70089090D01*
X113211690Y-70138570D01*
X113207800Y-70205600D01*
X113218289Y-70295555D01*
X113267769Y-70328710D01*
X113334800Y-70332600D01*
X113334800Y-70586600D01*
X113244845Y-70597090D01*
X113211690Y-70646570D01*
X113207800Y-70713600D01*
X113218289Y-70803555D01*
X113267769Y-70836710D01*
X113334800Y-70840600D01*
X113334800Y-71052267D01*
X113244845Y-71062757D01*
X113211690Y-71112237D01*
X113207800Y-71179267D01*
X113218289Y-71269221D01*
X113267769Y-71302376D01*
X113334800Y-71306267D01*
X113334800Y-71517934D01*
X113249473Y-71526194D01*
X113214476Y-71568089D01*
X113207800Y-71666100D01*
X113214879Y-71765648D01*
X113250789Y-71806478D01*
X113334800Y-71814267D01*
X113334800Y-72025934D01*
X113244845Y-72036423D01*
X113211690Y-72085904D01*
X113207800Y-72152934D01*
X113218289Y-72242888D01*
X113267769Y-72276043D01*
X113334800Y-72279934D01*
X113334800Y-72491600D01*
X113244845Y-72502090D01*
X113211690Y-72551570D01*
X113207800Y-72618600D01*
X113218289Y-72708555D01*
X113267769Y-72741710D01*
X113334800Y-72745600D01*
X113334800Y-72999600D01*
X113244845Y-73010090D01*
X113211690Y-73059570D01*
X113207800Y-73126600D01*
X113218289Y-73216555D01*
X113267769Y-73249710D01*
X113334800Y-73253600D01*
X113334800Y-73465267D01*
X113244845Y-73475757D01*
X113211690Y-73525237D01*
X113207800Y-73592267D01*
X113218289Y-73682221D01*
X113267769Y-73715376D01*
X113334800Y-73719267D01*
X113334800Y-73930934D01*
X113249473Y-73939194D01*
X113214476Y-73981089D01*
X113207800Y-74079100D01*
X113214879Y-74178648D01*
X113250789Y-74219478D01*
X113334800Y-74227267D01*
X113334800Y-74438934D01*
X113244845Y-74449423D01*
X113211690Y-74498904D01*
X113207800Y-74565934D01*
X113218289Y-74655888D01*
X113267769Y-74689043D01*
X113334800Y-74692934D01*
X113334800Y-74904600D01*
X113244845Y-74915090D01*
X113211690Y-74964570D01*
X113207800Y-75031600D01*
X113218289Y-75121555D01*
X113267769Y-75154710D01*
X113334800Y-75158600D01*
X113334800Y-75412600D01*
X113244036Y-75423991D01*
X113210832Y-75472411D01*
X113207800Y-75518434D01*
X113221468Y-75594070D01*
X113279572Y-75621740D01*
X113334800Y-75624267D01*
X113334800Y-75878267D01*
X113244845Y-75888757D01*
X113211690Y-75938237D01*
X113207800Y-76005267D01*
X113218289Y-76095221D01*
X113267769Y-76128376D01*
X113334800Y-76132267D01*
X113334800Y-76343934D01*
X113244845Y-76354423D01*
X113211690Y-76403904D01*
X113207800Y-76470934D01*
X113218289Y-76560888D01*
X113267769Y-76594043D01*
X113334800Y-76597934D01*
X113334800Y-76851934D01*
X113244845Y-76862423D01*
X113211690Y-76911904D01*
X113207800Y-76978934D01*
X113218289Y-77068888D01*
X113267769Y-77102043D01*
X113334800Y-77105934D01*
X113334800Y-77317600D01*
X113244845Y-77328090D01*
X113211690Y-77377570D01*
X113207800Y-77444600D01*
X113218289Y-77534555D01*
X113267769Y-77567710D01*
X113334800Y-77571600D01*
X113334800Y-77783267D01*
X113249473Y-77791527D01*
X113214476Y-77833422D01*
X113207800Y-77931434D01*
X113214879Y-78030981D01*
X113250789Y-78071812D01*
X113334800Y-78079600D01*
X113334800Y-78291267D01*
X113244845Y-78301757D01*
X113211690Y-78351237D01*
X113207800Y-78418267D01*
X113218289Y-78508221D01*
X113267769Y-78541376D01*
X113334800Y-78545267D01*
X113334800Y-78756934D01*
X113244845Y-78767423D01*
X113211690Y-78816904D01*
X113207800Y-78883934D01*
X113218289Y-78973888D01*
X113267769Y-79007043D01*
X113334800Y-79010934D01*
X113334800Y-79264934D01*
X113244845Y-79275423D01*
X113211690Y-79324904D01*
X113207800Y-79391934D01*
X113218289Y-79481888D01*
X113267769Y-79515043D01*
X113334800Y-79518934D01*
X113334800Y-79730600D01*
X113244845Y-79741090D01*
X113211690Y-79790570D01*
X113207800Y-79857600D01*
X113218289Y-79947555D01*
X113267769Y-79980710D01*
X113334800Y-79984600D01*
X113334800Y-80196267D01*
X113249473Y-80204527D01*
X113214476Y-80246422D01*
X113207800Y-80344434D01*
X113214879Y-80443981D01*
X113250789Y-80484812D01*
X113334800Y-80492600D01*
X113334800Y-80704267D01*
X113244845Y-80714757D01*
X113211690Y-80764237D01*
X113207800Y-80831267D01*
X113218289Y-80921221D01*
X113267769Y-80954376D01*
X113334800Y-80958267D01*
X113334800Y-81169934D01*
X113244845Y-81180423D01*
X113211690Y-81229904D01*
X113207800Y-81296934D01*
X113218289Y-81386888D01*
X113267769Y-81420043D01*
X113334800Y-81423934D01*
X113334800Y-81677934D01*
X113244845Y-81688423D01*
X113211690Y-81737904D01*
X113207800Y-81804934D01*
X113218289Y-81894888D01*
X113267769Y-81928043D01*
X113334800Y-81931934D01*
X113334800Y-82143600D01*
X113244845Y-82154090D01*
X113211690Y-82203570D01*
X113207800Y-82270600D01*
X113218289Y-82360555D01*
X113267769Y-82393710D01*
X113334800Y-82397600D01*
X113334800Y-82651600D01*
X113244845Y-82662090D01*
X113211690Y-82711570D01*
X113207800Y-82778600D01*
X113218289Y-82868555D01*
X113267769Y-82901710D01*
X113334800Y-82905600D01*
X113334800Y-83117267D01*
X113244845Y-83127757D01*
X113211690Y-83177237D01*
X113207800Y-83244267D01*
X113218289Y-83334221D01*
X113267769Y-83367376D01*
X113334800Y-83371267D01*
X113334800Y-83582934D01*
X113249473Y-83591194D01*
X113214476Y-83633089D01*
X113207800Y-83731100D01*
X113214879Y-83830648D01*
X113250789Y-83871478D01*
X113334800Y-83879267D01*
X113334800Y-84090934D01*
X113244845Y-84101423D01*
X113211690Y-84150904D01*
X113207800Y-84217934D01*
X113218289Y-84307888D01*
X113267769Y-84341043D01*
X113334800Y-84344934D01*
X113334800Y-84556600D01*
X113244845Y-84567090D01*
X113211690Y-84616570D01*
X113207800Y-84683600D01*
X113197310Y-84773555D01*
X113147830Y-84806710D01*
X113080800Y-84810600D01*
X112990845Y-84800111D01*
X112957690Y-84750631D01*
X112953800Y-84683600D01*
X112943310Y-84593646D01*
X112893830Y-84560491D01*
X112826800Y-84556600D01*
X112826800Y-84344934D01*
X112916754Y-84334444D01*
X112949909Y-84284964D01*
X112953800Y-84217934D01*
X112943310Y-84127980D01*
X112893830Y-84094825D01*
X112826800Y-84090934D01*
X112826800Y-83879267D01*
X112912126Y-83871007D01*
X112947123Y-83829112D01*
X112953800Y-83731100D01*
X112946720Y-83631553D01*
X112910810Y-83590723D01*
X112826800Y-83582934D01*
X112826800Y-83371267D01*
X112916754Y-83360778D01*
X112949909Y-83311297D01*
X112953800Y-83244267D01*
X112943310Y-83154313D01*
X112893830Y-83121158D01*
X112826800Y-83117267D01*
X112826800Y-82905600D01*
X112916754Y-82895111D01*
X112949909Y-82845631D01*
X112953800Y-82778600D01*
X112943310Y-82688646D01*
X112893830Y-82655491D01*
X112826800Y-82651600D01*
X112826800Y-82397600D01*
X112916754Y-82387111D01*
X112949909Y-82337631D01*
X112953800Y-82270600D01*
X112943310Y-82180646D01*
X112893830Y-82147491D01*
X112826800Y-82143600D01*
X112826800Y-81931934D01*
X112916754Y-81921444D01*
X112949909Y-81871964D01*
X112953800Y-81804934D01*
X112943310Y-81714980D01*
X112893830Y-81681825D01*
X112826800Y-81677934D01*
X112826800Y-81423934D01*
X112916754Y-81413444D01*
X112949909Y-81363964D01*
X112953800Y-81296934D01*
X112943310Y-81206980D01*
X112893830Y-81173825D01*
X112826800Y-81169934D01*
X112826800Y-80958267D01*
X112916754Y-80947778D01*
X112949909Y-80898297D01*
X112953800Y-80831267D01*
X112943310Y-80741313D01*
X112893830Y-80708158D01*
X112826800Y-80704267D01*
X112826800Y-80492600D01*
X112912126Y-80484341D01*
X112947123Y-80442446D01*
X112953800Y-80344434D01*
X112946720Y-80244886D01*
X112910810Y-80204056D01*
X112826800Y-80196267D01*
X112826800Y-79984600D01*
X112916754Y-79974111D01*
X112949909Y-79924631D01*
X112953800Y-79857600D01*
X112943310Y-79767646D01*
X112893830Y-79734491D01*
X112826800Y-79730600D01*
X112826800Y-79518934D01*
X112916754Y-79508444D01*
X112949909Y-79458964D01*
X112953800Y-79391934D01*
X112943310Y-79301980D01*
X112893830Y-79268825D01*
X112826800Y-79264934D01*
X112826800Y-79010934D01*
X112916754Y-79000444D01*
X112949909Y-78950964D01*
X112953800Y-78883934D01*
X112943310Y-78793980D01*
X112893830Y-78760825D01*
X112826800Y-78756934D01*
X112826800Y-78545267D01*
X112916754Y-78534778D01*
X112949909Y-78485297D01*
X112953800Y-78418267D01*
X112943310Y-78328313D01*
X112893830Y-78295158D01*
X112826800Y-78291267D01*
X112826800Y-78079600D01*
X112912126Y-78071341D01*
X112947123Y-78029446D01*
X112953800Y-77931434D01*
X112946720Y-77831886D01*
X112910810Y-77791056D01*
X112826800Y-77783267D01*
X112826800Y-77571600D01*
X112916754Y-77561111D01*
X112949909Y-77511631D01*
X112953800Y-77444600D01*
X112943310Y-77354646D01*
X112893830Y-77321491D01*
X112826800Y-77317600D01*
X112826800Y-77105934D01*
X112916754Y-77095444D01*
X112949909Y-77045964D01*
X112953800Y-76978934D01*
X112943310Y-76888980D01*
X112893830Y-76855825D01*
X112826800Y-76851934D01*
X112826800Y-76597934D01*
X112916754Y-76587444D01*
X112949909Y-76537964D01*
X112953800Y-76470934D01*
X112943310Y-76380980D01*
X112893830Y-76347825D01*
X112826800Y-76343934D01*
X112826800Y-76132267D01*
X112916754Y-76121778D01*
X112949909Y-76072297D01*
X112953800Y-76005267D01*
X112943310Y-75915313D01*
X112893830Y-75882158D01*
X112826800Y-75878267D01*
X112826800Y-75624267D01*
X112917563Y-75612877D01*
X112950767Y-75564457D01*
X112953800Y-75518434D01*
X112940131Y-75442798D01*
X112882027Y-75415128D01*
X112826800Y-75412600D01*
X112826800Y-75158600D01*
X112916754Y-75148111D01*
X112949909Y-75098631D01*
X112953800Y-75031600D01*
X112943310Y-74941646D01*
X112893830Y-74908491D01*
X112826800Y-74904600D01*
X112826800Y-74692934D01*
X112916754Y-74682444D01*
X112949909Y-74632964D01*
X112953800Y-74565934D01*
X112943310Y-74475980D01*
X112893830Y-74442825D01*
X112826800Y-74438934D01*
X112826800Y-74227267D01*
X112912126Y-74219007D01*
X112947123Y-74177112D01*
X112953800Y-74079100D01*
X112946720Y-73979553D01*
X112910810Y-73938723D01*
X112826800Y-73930934D01*
X112826800Y-73719267D01*
X112916754Y-73708778D01*
X112949909Y-73659297D01*
X112953800Y-73592267D01*
X112943310Y-73502313D01*
X112893830Y-73469158D01*
X112826800Y-73465267D01*
X112826800Y-73253600D01*
X112916754Y-73243111D01*
X112949909Y-73193631D01*
X112953800Y-73126600D01*
X112943310Y-73036646D01*
X112893830Y-73003491D01*
X112826800Y-72999600D01*
X112826800Y-72745600D01*
X112916754Y-72735111D01*
X112949909Y-72685631D01*
X112953800Y-72618600D01*
X112943310Y-72528646D01*
X112893830Y-72495491D01*
X112826800Y-72491600D01*
X112826800Y-72279934D01*
X112916754Y-72269444D01*
X112949909Y-72219964D01*
X112953800Y-72152934D01*
X112943310Y-72062980D01*
X112893830Y-72029825D01*
X112826800Y-72025934D01*
X112826800Y-71814267D01*
X112912126Y-71806007D01*
X112947123Y-71764112D01*
X112953800Y-71666100D01*
X112946720Y-71566553D01*
X112910810Y-71525723D01*
X112826800Y-71517934D01*
X112826800Y-71306267D01*
X112916754Y-71295778D01*
X112949909Y-71246297D01*
X112953800Y-71179267D01*
X112943310Y-71089313D01*
X112893830Y-71056158D01*
X112826800Y-71052267D01*
X112826800Y-70840600D01*
X112916754Y-70830111D01*
X112949909Y-70780631D01*
X112953800Y-70713600D01*
X112943310Y-70623646D01*
X112893830Y-70590491D01*
X112826800Y-70586600D01*
X112826800Y-70332600D01*
X112916754Y-70322111D01*
X112949909Y-70272631D01*
X112953800Y-70205600D01*
X112943310Y-70115646D01*
X112893830Y-70082491D01*
X112826800Y-70078600D01*
X112736845Y-70089090D01*
X112703690Y-70138570D01*
X112699800Y-70205600D01*
X112710289Y-70295555D01*
X112759769Y-70328710D01*
X112826800Y-70332600D01*
X112826800Y-70586600D01*
X112736845Y-70597090D01*
X112703690Y-70646570D01*
X112699800Y-70713600D01*
X112710289Y-70803555D01*
X112759769Y-70836710D01*
X112826800Y-70840600D01*
X112826800Y-71052267D01*
X112736845Y-71062757D01*
X112703690Y-71112237D01*
X112699800Y-71179267D01*
X112710289Y-71269221D01*
X112759769Y-71302376D01*
X112826800Y-71306267D01*
X112826800Y-71517934D01*
X112741473Y-71526194D01*
X112706476Y-71568089D01*
X112699800Y-71666100D01*
X112706879Y-71765648D01*
X112742789Y-71806478D01*
X112826800Y-71814267D01*
X112826800Y-72025934D01*
X112736845Y-72036423D01*
X112703690Y-72085904D01*
X112699800Y-72152934D01*
X112710289Y-72242888D01*
X112759769Y-72276043D01*
X112826800Y-72279934D01*
X112826800Y-72491600D01*
X112736845Y-72502090D01*
X112703690Y-72551570D01*
X112699800Y-72618600D01*
X112710289Y-72708555D01*
X112759769Y-72741710D01*
X112826800Y-72745600D01*
X112826800Y-72999600D01*
X112736845Y-73010090D01*
X112703690Y-73059570D01*
X112699800Y-73126600D01*
X112710289Y-73216555D01*
X112759769Y-73249710D01*
X112826800Y-73253600D01*
X112826800Y-73465267D01*
X112736845Y-73475757D01*
X112703690Y-73525237D01*
X112699800Y-73592267D01*
X112710289Y-73682221D01*
X112759769Y-73715376D01*
X112826800Y-73719267D01*
X112826800Y-73930934D01*
X112741473Y-73939194D01*
X112706476Y-73981089D01*
X112699800Y-74079100D01*
X112706879Y-74178648D01*
X112742789Y-74219478D01*
X112826800Y-74227267D01*
X112826800Y-74438934D01*
X112736845Y-74449423D01*
X112703690Y-74498904D01*
X112699800Y-74565934D01*
X112710289Y-74655888D01*
X112759769Y-74689043D01*
X112826800Y-74692934D01*
X112826800Y-74904600D01*
X112736845Y-74915090D01*
X112703690Y-74964570D01*
X112699800Y-75031600D01*
X112710289Y-75121555D01*
X112759769Y-75154710D01*
X112826800Y-75158600D01*
X112826800Y-75412600D01*
X112736036Y-75423991D01*
X112702832Y-75472411D01*
X112699800Y-75518434D01*
X112713468Y-75594070D01*
X112771572Y-75621740D01*
X112826800Y-75624267D01*
X112826800Y-75878267D01*
X112736845Y-75888757D01*
X112703690Y-75938237D01*
X112699800Y-76005267D01*
X112710289Y-76095221D01*
X112759769Y-76128376D01*
X112826800Y-76132267D01*
X112826800Y-76343934D01*
X112736845Y-76354423D01*
X112703690Y-76403904D01*
X112699800Y-76470934D01*
X112710289Y-76560888D01*
X112759769Y-76594043D01*
X112826800Y-76597934D01*
X112826800Y-76851934D01*
X112736845Y-76862423D01*
X112703690Y-76911904D01*
X112699800Y-76978934D01*
X112710289Y-77068888D01*
X112759769Y-77102043D01*
X112826800Y-77105934D01*
X112826800Y-77317600D01*
X112736845Y-77328090D01*
X112703690Y-77377570D01*
X112699800Y-77444600D01*
X112710289Y-77534555D01*
X112759769Y-77567710D01*
X112826800Y-77571600D01*
X112826800Y-77783267D01*
X112741473Y-77791527D01*
X112706476Y-77833422D01*
X112699800Y-77931434D01*
X112706879Y-78030981D01*
X112742789Y-78071812D01*
X112826800Y-78079600D01*
X112826800Y-78291267D01*
X112736845Y-78301757D01*
X112703690Y-78351237D01*
X112699800Y-78418267D01*
X112710289Y-78508221D01*
X112759769Y-78541376D01*
X112826800Y-78545267D01*
X112826800Y-78756934D01*
X112736845Y-78767423D01*
X112703690Y-78816904D01*
X112699800Y-78883934D01*
X112710289Y-78973888D01*
X112759769Y-79007043D01*
X112826800Y-79010934D01*
X112826800Y-79264934D01*
X112736845Y-79275423D01*
X112703690Y-79324904D01*
X112699800Y-79391934D01*
X112710289Y-79481888D01*
X112759769Y-79515043D01*
X112826800Y-79518934D01*
X112826800Y-79730600D01*
X112736845Y-79741090D01*
X112703690Y-79790570D01*
X112699800Y-79857600D01*
X112710289Y-79947555D01*
X112759769Y-79980710D01*
X112826800Y-79984600D01*
X112826800Y-80196267D01*
X112741473Y-80204527D01*
X112706476Y-80246422D01*
X112699800Y-80344434D01*
X112706879Y-80443981D01*
X112742789Y-80484812D01*
X112826800Y-80492600D01*
X112826800Y-80704267D01*
X112736845Y-80714757D01*
X112703690Y-80764237D01*
X112699800Y-80831267D01*
X112710289Y-80921221D01*
X112759769Y-80954376D01*
X112826800Y-80958267D01*
X112826800Y-81169934D01*
X112736845Y-81180423D01*
X112703690Y-81229904D01*
X112699800Y-81296934D01*
X112710289Y-81386888D01*
X112759769Y-81420043D01*
X112826800Y-81423934D01*
X112826800Y-81677934D01*
X112736845Y-81688423D01*
X112703690Y-81737904D01*
X112699800Y-81804934D01*
X112710289Y-81894888D01*
X112759769Y-81928043D01*
X112826800Y-81931934D01*
X112826800Y-82143600D01*
X112736845Y-82154090D01*
X112703690Y-82203570D01*
X112699800Y-82270600D01*
X112710289Y-82360555D01*
X112759769Y-82393710D01*
X112826800Y-82397600D01*
X112826800Y-82651600D01*
X112736845Y-82662090D01*
X112703690Y-82711570D01*
X112699800Y-82778600D01*
X112710289Y-82868555D01*
X112759769Y-82901710D01*
X112826800Y-82905600D01*
X112826800Y-83117267D01*
X112736845Y-83127757D01*
X112703690Y-83177237D01*
X112699800Y-83244267D01*
X112710289Y-83334221D01*
X112759769Y-83367376D01*
X112826800Y-83371267D01*
X112826800Y-83582934D01*
X112741473Y-83591194D01*
X112706476Y-83633089D01*
X112699800Y-83731100D01*
X112706879Y-83830648D01*
X112742789Y-83871478D01*
X112826800Y-83879267D01*
X112826800Y-84090934D01*
X112736845Y-84101423D01*
X112703690Y-84150904D01*
X112699800Y-84217934D01*
X112710289Y-84307888D01*
X112759769Y-84341043D01*
X112826800Y-84344934D01*
X112826800Y-84556600D01*
X112736845Y-84567090D01*
X112703690Y-84616570D01*
X112699800Y-84683600D01*
X112689310Y-84773555D01*
X112639830Y-84806710D01*
X112572800Y-84810600D01*
X112482845Y-84800111D01*
X112449690Y-84750631D01*
X112445800Y-84683600D01*
X112435310Y-84593646D01*
X112385830Y-84560491D01*
X112318800Y-84556600D01*
X112228036Y-84545210D01*
X112194832Y-84496790D01*
X112191800Y-84450767D01*
X112205468Y-84375131D01*
X112263572Y-84347461D01*
X112318800Y-84344934D01*
X112408754Y-84334444D01*
X112441909Y-84284964D01*
X112445800Y-84217934D01*
X112435310Y-84127980D01*
X112385830Y-84094825D01*
X112318800Y-84090934D01*
X112228036Y-84079543D01*
X112194832Y-84031123D01*
X112191800Y-83985100D01*
X112205468Y-83909464D01*
X112263572Y-83881795D01*
X112318800Y-83879267D01*
X112404126Y-83871007D01*
X112439123Y-83829112D01*
X112445800Y-83731100D01*
X112438720Y-83631553D01*
X112402810Y-83590723D01*
X112318800Y-83582934D01*
X112228036Y-83571543D01*
X112194832Y-83523123D01*
X112191800Y-83477100D01*
X112205468Y-83401464D01*
X112263572Y-83373795D01*
X112318800Y-83371267D01*
X112408754Y-83360778D01*
X112441909Y-83311297D01*
X112445800Y-83244267D01*
X112435310Y-83154313D01*
X112385830Y-83121158D01*
X112318800Y-83117267D01*
X112228036Y-83105877D01*
X112194832Y-83057457D01*
X112191800Y-83011434D01*
X112205468Y-82935798D01*
X112263572Y-82908128D01*
X112318800Y-82905600D01*
X112408754Y-82895111D01*
X112441909Y-82845631D01*
X112445800Y-82778600D01*
X112435310Y-82688646D01*
X112385830Y-82655491D01*
X112318800Y-82651600D01*
X112228845Y-82641111D01*
X112195690Y-82591631D01*
X112191800Y-82524600D01*
X112202289Y-82434646D01*
X112251769Y-82401491D01*
X112318800Y-82397600D01*
X112408754Y-82387111D01*
X112441909Y-82337631D01*
X112445800Y-82270600D01*
X112435310Y-82180646D01*
X112385830Y-82147491D01*
X112318800Y-82143600D01*
X112228036Y-82132210D01*
X112194832Y-82083790D01*
X112191800Y-82037767D01*
X112205468Y-81962131D01*
X112263572Y-81934461D01*
X112318800Y-81931934D01*
X112408754Y-81921444D01*
X112441909Y-81871964D01*
X112445800Y-81804934D01*
X112435310Y-81714980D01*
X112385830Y-81681825D01*
X112318800Y-81677934D01*
X112228845Y-81667444D01*
X112195690Y-81617964D01*
X112191800Y-81550934D01*
X112202289Y-81460980D01*
X112251769Y-81427825D01*
X112318800Y-81423934D01*
X112408754Y-81413444D01*
X112441909Y-81363964D01*
X112445800Y-81296934D01*
X112435310Y-81206980D01*
X112385830Y-81173825D01*
X112318800Y-81169934D01*
X112228036Y-81158543D01*
X112194832Y-81110123D01*
X112191800Y-81064100D01*
X112205468Y-80988464D01*
X112263572Y-80960795D01*
X112318800Y-80958267D01*
X112408754Y-80947778D01*
X112441909Y-80898297D01*
X112445800Y-80831267D01*
X112435310Y-80741313D01*
X112385830Y-80708158D01*
X112318800Y-80704267D01*
X112228036Y-80692877D01*
X112194832Y-80644457D01*
X112191800Y-80598434D01*
X112205468Y-80522798D01*
X112263572Y-80495128D01*
X112318800Y-80492600D01*
X112404126Y-80484341D01*
X112439123Y-80442446D01*
X112445800Y-80344434D01*
X112438720Y-80244886D01*
X112402810Y-80204056D01*
X112318800Y-80196267D01*
X112228036Y-80184877D01*
X112194832Y-80136457D01*
X112191800Y-80090434D01*
X112205468Y-80014798D01*
X112263572Y-79987128D01*
X112318800Y-79984600D01*
X112408754Y-79974111D01*
X112441909Y-79924631D01*
X112445800Y-79857600D01*
X112435310Y-79767646D01*
X112385830Y-79734491D01*
X112318800Y-79730600D01*
X112228036Y-79719210D01*
X112194832Y-79670790D01*
X112191800Y-79624767D01*
X112205468Y-79549131D01*
X112263572Y-79521461D01*
X112318800Y-79518934D01*
X112408754Y-79508444D01*
X112441909Y-79458964D01*
X112445800Y-79391934D01*
X112435310Y-79301980D01*
X112385830Y-79268825D01*
X112318800Y-79264934D01*
X112228845Y-79254444D01*
X112195690Y-79204964D01*
X112191800Y-79137934D01*
X112202289Y-79047980D01*
X112251769Y-79014825D01*
X112318800Y-79010934D01*
X112408754Y-79000444D01*
X112441909Y-78950964D01*
X112445800Y-78883934D01*
X112435310Y-78793980D01*
X112385830Y-78760825D01*
X112318800Y-78756934D01*
X112228036Y-78745543D01*
X112194832Y-78697123D01*
X112191800Y-78651100D01*
X112205468Y-78575464D01*
X112263572Y-78547795D01*
X112318800Y-78545267D01*
X112408754Y-78534778D01*
X112441909Y-78485297D01*
X112445800Y-78418267D01*
X112435310Y-78328313D01*
X112385830Y-78295158D01*
X112318800Y-78291267D01*
X112228036Y-78279877D01*
X112194832Y-78231457D01*
X112191800Y-78185434D01*
X112205468Y-78109798D01*
X112263572Y-78082128D01*
X112318800Y-78079600D01*
X112404126Y-78071341D01*
X112439123Y-78029446D01*
X112445800Y-77931434D01*
X112438720Y-77831886D01*
X112402810Y-77791056D01*
X112318800Y-77783267D01*
X112228036Y-77771877D01*
X112194832Y-77723457D01*
X112191800Y-77677434D01*
X112205468Y-77601798D01*
X112263572Y-77574128D01*
X112318800Y-77571600D01*
X112408754Y-77561111D01*
X112441909Y-77511631D01*
X112445800Y-77444600D01*
X112435310Y-77354646D01*
X112385830Y-77321491D01*
X112318800Y-77317600D01*
X112228036Y-77306210D01*
X112194832Y-77257790D01*
X112191800Y-77211767D01*
X112205468Y-77136131D01*
X112263572Y-77108461D01*
X112318800Y-77105934D01*
X112408754Y-77095444D01*
X112441909Y-77045964D01*
X112445800Y-76978934D01*
X112435310Y-76888980D01*
X112385830Y-76855825D01*
X112318800Y-76851934D01*
X112228845Y-76841444D01*
X112195690Y-76791964D01*
X112191800Y-76724934D01*
X112202289Y-76634980D01*
X112251769Y-76601825D01*
X112318800Y-76597934D01*
X112408754Y-76587444D01*
X112441909Y-76537964D01*
X112445800Y-76470934D01*
X112435310Y-76380980D01*
X112385830Y-76347825D01*
X112318800Y-76343934D01*
X112228036Y-76332543D01*
X112194832Y-76284123D01*
X112191800Y-76238100D01*
X112205468Y-76162464D01*
X112263572Y-76134795D01*
X112318800Y-76132267D01*
X112408754Y-76121778D01*
X112441909Y-76072297D01*
X112445800Y-76005267D01*
X112435310Y-75915313D01*
X112385830Y-75882158D01*
X112318800Y-75878267D01*
X112228845Y-75867778D01*
X112195690Y-75818297D01*
X112191800Y-75751267D01*
X112202289Y-75661313D01*
X112251769Y-75628158D01*
X112318800Y-75624267D01*
X112409563Y-75612877D01*
X112442767Y-75564457D01*
X112445800Y-75518434D01*
X112432131Y-75442798D01*
X112374027Y-75415128D01*
X112318800Y-75412600D01*
X112228845Y-75402111D01*
X112195690Y-75352631D01*
X112191800Y-75285600D01*
X112202289Y-75195646D01*
X112251769Y-75162491D01*
X112318800Y-75158600D01*
X112408754Y-75148111D01*
X112441909Y-75098631D01*
X112445800Y-75031600D01*
X112435310Y-74941646D01*
X112385830Y-74908491D01*
X112318800Y-74904600D01*
X112228036Y-74893210D01*
X112194832Y-74844790D01*
X112191800Y-74798767D01*
X112205468Y-74723131D01*
X112263572Y-74695461D01*
X112318800Y-74692934D01*
X112408754Y-74682444D01*
X112441909Y-74632964D01*
X112445800Y-74565934D01*
X112435310Y-74475980D01*
X112385830Y-74442825D01*
X112318800Y-74438934D01*
X112228036Y-74427543D01*
X112194832Y-74379123D01*
X112191800Y-74333100D01*
X112205468Y-74257464D01*
X112263572Y-74229795D01*
X112318800Y-74227267D01*
X112404126Y-74219007D01*
X112439123Y-74177112D01*
X112445800Y-74079100D01*
X112438720Y-73979553D01*
X112402810Y-73938723D01*
X112318800Y-73930934D01*
X112228036Y-73919543D01*
X112194832Y-73871123D01*
X112191800Y-73825100D01*
X112205468Y-73749464D01*
X112263572Y-73721795D01*
X112318800Y-73719267D01*
X112408754Y-73708778D01*
X112441909Y-73659297D01*
X112445800Y-73592267D01*
X112435310Y-73502313D01*
X112385830Y-73469158D01*
X112318800Y-73465267D01*
X112228036Y-73453877D01*
X112194832Y-73405457D01*
X112191800Y-73359434D01*
X112205468Y-73283798D01*
X112263572Y-73256128D01*
X112318800Y-73253600D01*
X112408754Y-73243111D01*
X112441909Y-73193631D01*
X112445800Y-73126600D01*
X112435310Y-73036646D01*
X112385830Y-73003491D01*
X112318800Y-72999600D01*
X112228845Y-72989111D01*
X112195690Y-72939631D01*
X112191800Y-72872600D01*
X112202289Y-72782646D01*
X112251769Y-72749491D01*
X112318800Y-72745600D01*
X112408754Y-72735111D01*
X112441909Y-72685631D01*
X112445800Y-72618600D01*
X112435310Y-72528646D01*
X112385830Y-72495491D01*
X112318800Y-72491600D01*
X112228036Y-72480210D01*
X112194832Y-72431790D01*
X112191800Y-72385767D01*
X112205468Y-72310131D01*
X112263572Y-72282461D01*
X112318800Y-72279934D01*
X112408754Y-72269444D01*
X112441909Y-72219964D01*
X112445800Y-72152934D01*
X112435310Y-72062980D01*
X112385830Y-72029825D01*
X112318800Y-72025934D01*
X112228036Y-72014543D01*
X112194832Y-71966123D01*
X112191800Y-71920100D01*
X112205468Y-71844464D01*
X112263572Y-71816795D01*
X112318800Y-71814267D01*
X112404126Y-71806007D01*
X112439123Y-71764112D01*
X112445800Y-71666100D01*
X112438720Y-71566553D01*
X112402810Y-71525723D01*
X112318800Y-71517934D01*
X112228036Y-71506543D01*
X112194832Y-71458123D01*
X112191800Y-71412100D01*
X112205468Y-71336464D01*
X112263572Y-71308795D01*
X112318800Y-71306267D01*
X112408754Y-71295778D01*
X112441909Y-71246297D01*
X112445800Y-71179267D01*
X112435310Y-71089313D01*
X112385830Y-71056158D01*
X112318800Y-71052267D01*
X112228036Y-71040877D01*
X112194832Y-70992457D01*
X112191800Y-70946434D01*
X112205468Y-70870798D01*
X112263572Y-70843128D01*
X112318800Y-70840600D01*
X112408754Y-70830111D01*
X112441909Y-70780631D01*
X112445800Y-70713600D01*
X112435310Y-70623646D01*
X112385830Y-70590491D01*
X112318800Y-70586600D01*
X112228845Y-70576111D01*
X112195690Y-70526631D01*
X112191800Y-70459600D01*
X112202289Y-70369646D01*
X112251769Y-70336491D01*
X112318800Y-70332600D01*
X112408754Y-70322111D01*
X112441909Y-70272631D01*
X112445800Y-70205600D01*
X112435310Y-70115646D01*
X112385830Y-70082491D01*
X112318800Y-70078600D01*
X112228036Y-70067210D01*
X112194832Y-70018790D01*
X112191800Y-69972767D01*
X112205468Y-69897131D01*
D11*
%TO.C,J1*%
X123173800Y-74583600D02*
X121843800Y-74583600D01*
X123173800Y-73253600D02*
X123173800Y-74583600D01*
X120573800Y-74583600D02*
X117973800Y-74583600D01*
X120573800Y-71983600D02*
X120573800Y-74583600D01*
X123173800Y-71983600D02*
X120573800Y-71983600D01*
X117973800Y-74583600D02*
X117973800Y-66843600D01*
X123173800Y-71983600D02*
X123173800Y-66843600D01*
X123173800Y-66843600D02*
X117973800Y-66843600D01*
D15*
%TO.C,P1*%
X153519800Y-66878200D02*
X144269800Y-66878200D01*
X153369800Y-73538200D02*
X144419800Y-73538200D01*
X144414800Y-65128200D02*
X144419800Y-64368200D01*
X153369800Y-64368200D02*
X144419800Y-64368200D01*
X153369800Y-64368200D02*
X153374800Y-65128200D01*
X148894800Y-66878200D02*
X148894800Y-68148200D01*
D11*
%TO.C,D1*%
X112594800Y-105961600D02*
X111514800Y-105961600D01*
X112594800Y-104911600D02*
X111514800Y-104911600D01*
X112064800Y-105851600D02*
X112594800Y-104941600D01*
X112054800Y-105861600D02*
X111514800Y-104911600D01*
X113064800Y-106991600D02*
X111064800Y-106991600D01*
X112054800Y-107251600D02*
X112054800Y-105971600D01*
X112054800Y-103791600D02*
X112054800Y-104911600D01*
X113064800Y-104001600D02*
X111074800Y-104001600D01*
X111064800Y-106991600D02*
X111074800Y-104001600D01*
X113064800Y-106981600D02*
X113064800Y-104011600D01*
%TO.C,D8*%
X170299800Y-65484600D02*
X170299800Y-66564600D01*
X169249800Y-65484600D02*
X169249800Y-66564600D01*
X170189800Y-66014600D02*
X169279800Y-65484600D01*
X170199800Y-66024600D02*
X169249800Y-66564600D01*
X171329800Y-65014600D02*
X171329800Y-67014600D01*
X171589800Y-66024600D02*
X170309800Y-66024600D01*
X168129800Y-66024600D02*
X169249800Y-66024600D01*
X168339800Y-65014600D02*
X168339800Y-67004600D01*
X171329800Y-67014600D02*
X168339800Y-67004600D01*
X171319800Y-65014600D02*
X168349800Y-65014600D01*
%TO.C,D7*%
X177934800Y-65457600D02*
X177934800Y-66537600D01*
X176884800Y-65457600D02*
X176884800Y-66537600D01*
X177824800Y-65987600D02*
X176914800Y-65457600D01*
X177834800Y-65997600D02*
X176884800Y-66537600D01*
X178964800Y-64987600D02*
X178964800Y-66987600D01*
X179224800Y-65997600D02*
X177944800Y-65997600D01*
X175764800Y-65997600D02*
X176884800Y-65997600D01*
X175974800Y-64987600D02*
X175974800Y-66977600D01*
X178964800Y-66987600D02*
X175974800Y-66977600D01*
X178954800Y-64987600D02*
X175984800Y-64987600D01*
%TO.C,D4*%
X168474800Y-105987000D02*
X167394800Y-105987000D01*
X168474800Y-104937000D02*
X167394800Y-104937000D01*
X167944800Y-105877000D02*
X168474800Y-104967000D01*
X167934800Y-105887000D02*
X167394800Y-104937000D01*
X168944800Y-107017000D02*
X166944800Y-107017000D01*
X167934800Y-107277000D02*
X167934800Y-105997000D01*
X167934800Y-103817000D02*
X167934800Y-104937000D01*
X168944800Y-104027000D02*
X166954800Y-104027000D01*
X166944800Y-107017000D02*
X166954800Y-104027000D01*
X168944800Y-107007000D02*
X168944800Y-104037000D01*
%TO.C,D3*%
X149399400Y-105987000D02*
X148319400Y-105987000D01*
X149399400Y-104937000D02*
X148319400Y-104937000D01*
X148869400Y-105877000D02*
X149399400Y-104967000D01*
X148859400Y-105887000D02*
X148319400Y-104937000D01*
X149869400Y-107017000D02*
X147869400Y-107017000D01*
X148859400Y-107277000D02*
X148859400Y-105997000D01*
X148859400Y-103817000D02*
X148859400Y-104937000D01*
X149869400Y-104027000D02*
X147879400Y-104027000D01*
X147869400Y-107017000D02*
X147879400Y-104027000D01*
X149869400Y-107007000D02*
X149869400Y-104037000D01*
%TO.C,D2*%
X130374800Y-105987000D02*
X129294800Y-105987000D01*
X130374800Y-104937000D02*
X129294800Y-104937000D01*
X129844800Y-105877000D02*
X130374800Y-104967000D01*
X129834800Y-105887000D02*
X129294800Y-104937000D01*
X130844800Y-107017000D02*
X128844800Y-107017000D01*
X129834800Y-107277000D02*
X129834800Y-105997000D01*
X129834800Y-103817000D02*
X129834800Y-104937000D01*
X130844800Y-104027000D02*
X128854800Y-104027000D01*
X128844800Y-107017000D02*
X128854800Y-104027000D01*
X130844800Y-107007000D02*
X130844800Y-104037000D01*
%TO.C,R6*%
X172897800Y-77012600D02*
X172897800Y-76062600D01*
X172897800Y-71272600D02*
X172897800Y-72222600D01*
X173817800Y-76062600D02*
X173817800Y-72222600D01*
X171977800Y-76062600D02*
X173817800Y-76062600D01*
X171977800Y-72222600D02*
X171977800Y-76062600D01*
X173817800Y-72222600D02*
X171977800Y-72222600D01*
%TO.C,R5*%
X175310800Y-72034600D02*
X175310800Y-72984600D01*
X175310800Y-77774600D02*
X175310800Y-76824600D01*
X174390800Y-72984600D02*
X174390800Y-76824600D01*
X176230800Y-72984600D02*
X174390800Y-72984600D01*
X176230800Y-76824600D02*
X176230800Y-72984600D01*
X174390800Y-76824600D02*
X176230800Y-76824600D01*
%TO.C,R4*%
X168071800Y-79527600D02*
X168071800Y-80477600D01*
X168071800Y-85267600D02*
X168071800Y-84317600D01*
X167151800Y-80477600D02*
X167151800Y-84317600D01*
X168991800Y-80477600D02*
X167151800Y-80477600D01*
X168991800Y-84317600D02*
X168991800Y-80477600D01*
X167151800Y-84317600D02*
X168991800Y-84317600D01*
%TO.C,R3*%
X170484800Y-80289600D02*
X170484800Y-81239600D01*
X170484800Y-86029600D02*
X170484800Y-85079600D01*
X169564800Y-81239600D02*
X169564800Y-85079600D01*
X171404800Y-81239600D02*
X169564800Y-81239600D01*
X171404800Y-85079600D02*
X171404800Y-81239600D01*
X169564800Y-85079600D02*
X171404800Y-85079600D01*
%TO.C,R2*%
X172897800Y-81051600D02*
X172897800Y-82001600D01*
X172897800Y-86791600D02*
X172897800Y-85841600D01*
X171977800Y-82001600D02*
X171977800Y-85841600D01*
X173817800Y-82001600D02*
X171977800Y-82001600D01*
X173817800Y-85841600D02*
X173817800Y-82001600D01*
X171977800Y-85841600D02*
X173817800Y-85841600D01*
%TO.C,R1*%
X175310800Y-81856780D02*
X175310800Y-82806780D01*
X175310800Y-87596780D02*
X175310800Y-86646780D01*
X174390800Y-82806780D02*
X174390800Y-86646780D01*
X176230800Y-82806780D02*
X174390800Y-82806780D01*
X176230800Y-86646780D02*
X176230800Y-82806780D01*
X174390800Y-86646780D02*
X176230800Y-86646780D01*
%TO.C,F1*%
X155269000Y-86606520D02*
X164009000Y-86606520D01*
X155269000Y-86606520D02*
X155269000Y-90846520D01*
X164009000Y-90846520D02*
X164009000Y-86606520D01*
X164009000Y-90846520D02*
X155269000Y-90846520D01*
%TO.C,C3*%
X142950300Y-68542600D02*
G75*
G03*
X142950300Y-68542600I-2120000J0D01*
G01*
%TO.C,Y1*%
X128449800Y-75143600D02*
X134849800Y-75143600D01*
X128449800Y-70093600D02*
X134849800Y-70093600D01*
X134849800Y-75143600D02*
G75*
G03*
X134849800Y-70093600I0J2525000D01*
G01*
X128449800Y-75143600D02*
G75*
G02*
X128449800Y-70093600I0J2525000D01*
G01*
%TO.C,U1*%
X152002800Y-83777600D02*
X152002800Y-82127600D01*
X116322800Y-83777600D02*
X152002800Y-83777600D01*
X116322800Y-78477600D02*
X116322800Y-83777600D01*
X152002800Y-78477600D02*
X116322800Y-78477600D01*
X152002800Y-80127600D02*
X152002800Y-78477600D01*
X152002800Y-82127600D02*
G75*
G02*
X152002800Y-80127600I0J1000000D01*
G01*
%TO.C,SW8*%
X185593800Y-74039600D02*
X185593800Y-72539600D01*
X184343800Y-70039600D02*
X179843800Y-70039600D01*
X178593800Y-72539600D02*
X178593800Y-74039600D01*
X179843800Y-76539600D02*
X184343800Y-76539600D01*
%TO.C,SW7*%
X185616800Y-81841600D02*
X185616800Y-80341600D01*
X184366800Y-77841600D02*
X179866800Y-77841600D01*
X178616800Y-80341600D02*
X178616800Y-81841600D01*
X179866800Y-84341600D02*
X184366800Y-84341600D01*
%TO.C,C5*%
X129459300Y-87320600D02*
X129459300Y-86615600D01*
X129459300Y-89355600D02*
X129459300Y-88650600D01*
X133699300Y-87320600D02*
X133699300Y-86615600D01*
X133699300Y-89355600D02*
X133699300Y-88650600D01*
X133699300Y-86615600D02*
X129459300Y-86615600D01*
X133699300Y-89355600D02*
X129459300Y-89355600D01*
%TO.C,C4*%
X142993800Y-74553600D02*
X142993800Y-75258600D01*
X142993800Y-72518600D02*
X142993800Y-73223600D01*
X138753800Y-74553600D02*
X138753800Y-75258600D01*
X138753800Y-72518600D02*
X138753800Y-73223600D01*
X138753800Y-75258600D02*
X142993800Y-75258600D01*
X138753800Y-72518600D02*
X142993800Y-72518600D01*
%TO.C,C2*%
X130039800Y-68457600D02*
X130039800Y-69162600D01*
X130039800Y-66422600D02*
X130039800Y-67127600D01*
X125799800Y-68457600D02*
X125799800Y-69162600D01*
X125799800Y-66422600D02*
X125799800Y-67127600D01*
X125799800Y-69162600D02*
X130039800Y-69162600D01*
X125799800Y-66422600D02*
X130039800Y-66422600D01*
%TO.C,C1*%
X133205800Y-67127600D02*
X133205800Y-66422600D01*
X133205800Y-69162600D02*
X133205800Y-68457600D01*
X137445800Y-67127600D02*
X137445800Y-66422600D01*
X137445800Y-69162600D02*
X137445800Y-68457600D01*
X137445800Y-66422600D02*
X133205800Y-66422600D01*
X137445800Y-69162600D02*
X133205800Y-69162600D01*
%TO.C,R8*%
D15*
X168524180Y-72785266D02*
X168047990Y-73118600D01*
X168524180Y-73356695D02*
X167524180Y-73356695D01*
X167524180Y-72975742D01*
X167571800Y-72880504D01*
X167619419Y-72832885D01*
X167714657Y-72785266D01*
X167857514Y-72785266D01*
X167952752Y-72832885D01*
X168000371Y-72880504D01*
X168047990Y-72975742D01*
X168047990Y-73356695D01*
X167952752Y-72213838D02*
X167905133Y-72309076D01*
X167857514Y-72356695D01*
X167762276Y-72404314D01*
X167714657Y-72404314D01*
X167619419Y-72356695D01*
X167571800Y-72309076D01*
X167524180Y-72213838D01*
X167524180Y-72023361D01*
X167571800Y-71928123D01*
X167619419Y-71880504D01*
X167714657Y-71832885D01*
X167762276Y-71832885D01*
X167857514Y-71880504D01*
X167905133Y-71928123D01*
X167952752Y-72023361D01*
X167952752Y-72213838D01*
X168000371Y-72309076D01*
X168047990Y-72356695D01*
X168143228Y-72404314D01*
X168333704Y-72404314D01*
X168428942Y-72356695D01*
X168476561Y-72309076D01*
X168524180Y-72213838D01*
X168524180Y-72023361D01*
X168476561Y-71928123D01*
X168428942Y-71880504D01*
X168333704Y-71832885D01*
X168143228Y-71832885D01*
X168047990Y-71880504D01*
X168000371Y-71928123D01*
X167952752Y-72023361D01*
%TO.C,R7*%
X170937180Y-73547266D02*
X170460990Y-73880600D01*
X170937180Y-74118695D02*
X169937180Y-74118695D01*
X169937180Y-73737742D01*
X169984800Y-73642504D01*
X170032419Y-73594885D01*
X170127657Y-73547266D01*
X170270514Y-73547266D01*
X170365752Y-73594885D01*
X170413371Y-73642504D01*
X170460990Y-73737742D01*
X170460990Y-74118695D01*
X169937180Y-73213933D02*
X169937180Y-72547266D01*
X170937180Y-72975838D01*
%TO.C,J2*%
X159991466Y-79703980D02*
X159991466Y-80418266D01*
X159943847Y-80561123D01*
X159848609Y-80656361D01*
X159705752Y-80703980D01*
X159610514Y-80703980D01*
X160420038Y-79799219D02*
X160467657Y-79751600D01*
X160562895Y-79703980D01*
X160800990Y-79703980D01*
X160896228Y-79751600D01*
X160943847Y-79799219D01*
X160991466Y-79894457D01*
X160991466Y-79989695D01*
X160943847Y-80132552D01*
X160372419Y-80703980D01*
X160991466Y-80703980D01*
%TO.C,J1*%
X120310466Y-65505980D02*
X120310466Y-66220266D01*
X120262847Y-66363123D01*
X120167609Y-66458361D01*
X120024752Y-66505980D01*
X119929514Y-66505980D01*
X121310466Y-66505980D02*
X120739038Y-66505980D01*
X121024752Y-66505980D02*
X121024752Y-65505980D01*
X120929514Y-65648838D01*
X120834276Y-65744076D01*
X120739038Y-65791695D01*
%TO.C,P1*%
X148174202Y-74975980D02*
X148174202Y-73975980D01*
X148555155Y-73975980D01*
X148650393Y-74023600D01*
X148698012Y-74071219D01*
X148745631Y-74166457D01*
X148745631Y-74309314D01*
X148698012Y-74404552D01*
X148650393Y-74452171D01*
X148555155Y-74499790D01*
X148174202Y-74499790D01*
X149698012Y-74975980D02*
X149126583Y-74975980D01*
X149412298Y-74975980D02*
X149412298Y-73975980D01*
X149317059Y-74118838D01*
X149221821Y-74214076D01*
X149126583Y-74261695D01*
%TO.C,D1*%
X112426704Y-101142076D02*
X111626704Y-101142076D01*
X111626704Y-100951600D01*
X111664800Y-100837314D01*
X111740990Y-100761123D01*
X111817180Y-100723028D01*
X111969561Y-100684933D01*
X112083847Y-100684933D01*
X112236228Y-100723028D01*
X112312419Y-100761123D01*
X112388609Y-100837314D01*
X112426704Y-100951600D01*
X112426704Y-101142076D01*
X112426704Y-99923028D02*
X112426704Y-100380171D01*
X112426704Y-100151600D02*
X111626704Y-100151600D01*
X111740990Y-100227790D01*
X111817180Y-100303980D01*
X111855276Y-100380171D01*
%TO.C,D8*%
X169259323Y-68281504D02*
X169259323Y-67481504D01*
X169449800Y-67481504D01*
X169564085Y-67519600D01*
X169640276Y-67595790D01*
X169678371Y-67671980D01*
X169716466Y-67824361D01*
X169716466Y-67938647D01*
X169678371Y-68091028D01*
X169640276Y-68167219D01*
X169564085Y-68243409D01*
X169449800Y-68281504D01*
X169259323Y-68281504D01*
X170173609Y-67824361D02*
X170097419Y-67786266D01*
X170059323Y-67748171D01*
X170021228Y-67671980D01*
X170021228Y-67633885D01*
X170059323Y-67557695D01*
X170097419Y-67519600D01*
X170173609Y-67481504D01*
X170325990Y-67481504D01*
X170402180Y-67519600D01*
X170440276Y-67557695D01*
X170478371Y-67633885D01*
X170478371Y-67671980D01*
X170440276Y-67748171D01*
X170402180Y-67786266D01*
X170325990Y-67824361D01*
X170173609Y-67824361D01*
X170097419Y-67862457D01*
X170059323Y-67900552D01*
X170021228Y-67976742D01*
X170021228Y-68129123D01*
X170059323Y-68205314D01*
X170097419Y-68243409D01*
X170173609Y-68281504D01*
X170325990Y-68281504D01*
X170402180Y-68243409D01*
X170440276Y-68205314D01*
X170478371Y-68129123D01*
X170478371Y-67976742D01*
X170440276Y-67900552D01*
X170402180Y-67862457D01*
X170325990Y-67824361D01*
%TO.C,D7*%
X176894323Y-68127504D02*
X176894323Y-67327504D01*
X177084800Y-67327504D01*
X177199085Y-67365600D01*
X177275276Y-67441790D01*
X177313371Y-67517980D01*
X177351466Y-67670361D01*
X177351466Y-67784647D01*
X177313371Y-67937028D01*
X177275276Y-68013219D01*
X177199085Y-68089409D01*
X177084800Y-68127504D01*
X176894323Y-68127504D01*
X177618133Y-67327504D02*
X178151466Y-67327504D01*
X177808609Y-68127504D01*
%TO.C,D4*%
X168306704Y-101167476D02*
X167506704Y-101167476D01*
X167506704Y-100977000D01*
X167544800Y-100862714D01*
X167620990Y-100786523D01*
X167697180Y-100748428D01*
X167849561Y-100710333D01*
X167963847Y-100710333D01*
X168116228Y-100748428D01*
X168192419Y-100786523D01*
X168268609Y-100862714D01*
X168306704Y-100977000D01*
X168306704Y-101167476D01*
X167773371Y-100024619D02*
X168306704Y-100024619D01*
X167468609Y-100215095D02*
X168040038Y-100405571D01*
X168040038Y-99910333D01*
%TO.C,D3*%
X149231304Y-101167476D02*
X148431304Y-101167476D01*
X148431304Y-100977000D01*
X148469400Y-100862714D01*
X148545590Y-100786523D01*
X148621780Y-100748428D01*
X148774161Y-100710333D01*
X148888447Y-100710333D01*
X149040828Y-100748428D01*
X149117019Y-100786523D01*
X149193209Y-100862714D01*
X149231304Y-100977000D01*
X149231304Y-101167476D01*
X148431304Y-100443666D02*
X148431304Y-99948428D01*
X148736066Y-100215095D01*
X148736066Y-100100809D01*
X148774161Y-100024619D01*
X148812257Y-99986523D01*
X148888447Y-99948428D01*
X149078923Y-99948428D01*
X149155114Y-99986523D01*
X149193209Y-100024619D01*
X149231304Y-100100809D01*
X149231304Y-100329380D01*
X149193209Y-100405571D01*
X149155114Y-100443666D01*
%TO.C,D2*%
X130206704Y-101167476D02*
X129406704Y-101167476D01*
X129406704Y-100977000D01*
X129444800Y-100862714D01*
X129520990Y-100786523D01*
X129597180Y-100748428D01*
X129749561Y-100710333D01*
X129863847Y-100710333D01*
X130016228Y-100748428D01*
X130092419Y-100786523D01*
X130168609Y-100862714D01*
X130206704Y-100977000D01*
X130206704Y-101167476D01*
X129482895Y-100405571D02*
X129444800Y-100367476D01*
X129406704Y-100291285D01*
X129406704Y-100100809D01*
X129444800Y-100024619D01*
X129482895Y-99986523D01*
X129559085Y-99948428D01*
X129635276Y-99948428D01*
X129749561Y-99986523D01*
X130206704Y-100443666D01*
X130206704Y-99948428D01*
%TO.C,R6*%
X173350180Y-74309266D02*
X172873990Y-74642600D01*
X173350180Y-74880695D02*
X172350180Y-74880695D01*
X172350180Y-74499742D01*
X172397800Y-74404504D01*
X172445419Y-74356885D01*
X172540657Y-74309266D01*
X172683514Y-74309266D01*
X172778752Y-74356885D01*
X172826371Y-74404504D01*
X172873990Y-74499742D01*
X172873990Y-74880695D01*
X172350180Y-73452123D02*
X172350180Y-73642600D01*
X172397800Y-73737838D01*
X172445419Y-73785457D01*
X172588276Y-73880695D01*
X172778752Y-73928314D01*
X173159704Y-73928314D01*
X173254942Y-73880695D01*
X173302561Y-73833076D01*
X173350180Y-73737838D01*
X173350180Y-73547361D01*
X173302561Y-73452123D01*
X173254942Y-73404504D01*
X173159704Y-73356885D01*
X172921609Y-73356885D01*
X172826371Y-73404504D01*
X172778752Y-73452123D01*
X172731133Y-73547361D01*
X172731133Y-73737838D01*
X172778752Y-73833076D01*
X172826371Y-73880695D01*
X172921609Y-73928314D01*
%TO.C,R5*%
X175763180Y-75071266D02*
X175286990Y-75404600D01*
X175763180Y-75642695D02*
X174763180Y-75642695D01*
X174763180Y-75261742D01*
X174810800Y-75166504D01*
X174858419Y-75118885D01*
X174953657Y-75071266D01*
X175096514Y-75071266D01*
X175191752Y-75118885D01*
X175239371Y-75166504D01*
X175286990Y-75261742D01*
X175286990Y-75642695D01*
X174763180Y-74166504D02*
X174763180Y-74642695D01*
X175239371Y-74690314D01*
X175191752Y-74642695D01*
X175144133Y-74547457D01*
X175144133Y-74309361D01*
X175191752Y-74214123D01*
X175239371Y-74166504D01*
X175334609Y-74118885D01*
X175572704Y-74118885D01*
X175667942Y-74166504D01*
X175715561Y-74214123D01*
X175763180Y-74309361D01*
X175763180Y-74547457D01*
X175715561Y-74642695D01*
X175667942Y-74690314D01*
%TO.C,R4*%
X168524180Y-82564266D02*
X168047990Y-82897600D01*
X168524180Y-83135695D02*
X167524180Y-83135695D01*
X167524180Y-82754742D01*
X167571800Y-82659504D01*
X167619419Y-82611885D01*
X167714657Y-82564266D01*
X167857514Y-82564266D01*
X167952752Y-82611885D01*
X168000371Y-82659504D01*
X168047990Y-82754742D01*
X168047990Y-83135695D01*
X167857514Y-81707123D02*
X168524180Y-81707123D01*
X167476561Y-81945219D02*
X168190847Y-82183314D01*
X168190847Y-81564266D01*
%TO.C,R3*%
X170937180Y-83326266D02*
X170460990Y-83659600D01*
X170937180Y-83897695D02*
X169937180Y-83897695D01*
X169937180Y-83516742D01*
X169984800Y-83421504D01*
X170032419Y-83373885D01*
X170127657Y-83326266D01*
X170270514Y-83326266D01*
X170365752Y-83373885D01*
X170413371Y-83421504D01*
X170460990Y-83516742D01*
X170460990Y-83897695D01*
X169937180Y-82992933D02*
X169937180Y-82373885D01*
X170318133Y-82707219D01*
X170318133Y-82564361D01*
X170365752Y-82469123D01*
X170413371Y-82421504D01*
X170508609Y-82373885D01*
X170746704Y-82373885D01*
X170841942Y-82421504D01*
X170889561Y-82469123D01*
X170937180Y-82564361D01*
X170937180Y-82850076D01*
X170889561Y-82945314D01*
X170841942Y-82992933D01*
%TO.C,R2*%
X173350180Y-84088266D02*
X172873990Y-84421600D01*
X173350180Y-84659695D02*
X172350180Y-84659695D01*
X172350180Y-84278742D01*
X172397800Y-84183504D01*
X172445419Y-84135885D01*
X172540657Y-84088266D01*
X172683514Y-84088266D01*
X172778752Y-84135885D01*
X172826371Y-84183504D01*
X172873990Y-84278742D01*
X172873990Y-84659695D01*
X172445419Y-83707314D02*
X172397800Y-83659695D01*
X172350180Y-83564457D01*
X172350180Y-83326361D01*
X172397800Y-83231123D01*
X172445419Y-83183504D01*
X172540657Y-83135885D01*
X172635895Y-83135885D01*
X172778752Y-83183504D01*
X173350180Y-83754933D01*
X173350180Y-83135885D01*
%TO.C,R1*%
X175763180Y-84850266D02*
X175286990Y-85183600D01*
X175763180Y-85421695D02*
X174763180Y-85421695D01*
X174763180Y-85040742D01*
X174810800Y-84945504D01*
X174858419Y-84897885D01*
X174953657Y-84850266D01*
X175096514Y-84850266D01*
X175191752Y-84897885D01*
X175239371Y-84945504D01*
X175286990Y-85040742D01*
X175286990Y-85421695D01*
X175763180Y-83897885D02*
X175763180Y-84469314D01*
X175763180Y-84183600D02*
X174763180Y-84183600D01*
X174906038Y-84278838D01*
X175001276Y-84374076D01*
X175048895Y-84469314D01*
%TO.C,F1*%
X159356466Y-91728491D02*
X159023133Y-91728491D01*
X159023133Y-92252300D02*
X159023133Y-91252300D01*
X159499323Y-91252300D01*
X160404085Y-92252300D02*
X159832657Y-92252300D01*
X160118371Y-92252300D02*
X160118371Y-91252300D01*
X160023133Y-91395158D01*
X159927895Y-91490396D01*
X159832657Y-91538015D01*
%TO.C,C3*%
X140663633Y-65863742D02*
X140616014Y-65911361D01*
X140473157Y-65958980D01*
X140377919Y-65958980D01*
X140235061Y-65911361D01*
X140139823Y-65816123D01*
X140092204Y-65720885D01*
X140044585Y-65530409D01*
X140044585Y-65387552D01*
X140092204Y-65197076D01*
X140139823Y-65101838D01*
X140235061Y-65006600D01*
X140377919Y-64958980D01*
X140473157Y-64958980D01*
X140616014Y-65006600D01*
X140663633Y-65054219D01*
X140996966Y-64958980D02*
X141616014Y-64958980D01*
X141282680Y-65339933D01*
X141425538Y-65339933D01*
X141520776Y-65387552D01*
X141568395Y-65435171D01*
X141616014Y-65530409D01*
X141616014Y-65768504D01*
X141568395Y-65863742D01*
X141520776Y-65911361D01*
X141425538Y-65958980D01*
X141139823Y-65958980D01*
X141044585Y-65911361D01*
X140996966Y-65863742D01*
%TO.C,Y1*%
X131173609Y-69069790D02*
X131173609Y-69545980D01*
X130840276Y-68545980D02*
X131173609Y-69069790D01*
X131506942Y-68545980D01*
X132364085Y-69545980D02*
X131792657Y-69545980D01*
X132078371Y-69545980D02*
X132078371Y-68545980D01*
X131983133Y-68688838D01*
X131887895Y-68784076D01*
X131792657Y-68831695D01*
%TO.C,U1*%
X152455180Y-81889504D02*
X153264704Y-81889504D01*
X153359942Y-81841885D01*
X153407561Y-81794266D01*
X153455180Y-81699028D01*
X153455180Y-81508552D01*
X153407561Y-81413314D01*
X153359942Y-81365695D01*
X153264704Y-81318076D01*
X152455180Y-81318076D01*
X153455180Y-80318076D02*
X153455180Y-80889504D01*
X153455180Y-80603790D02*
X152455180Y-80603790D01*
X152598038Y-80699028D01*
X152693276Y-80794266D01*
X152740895Y-80889504D01*
%TO.C,SW8*%
X180835466Y-73785361D02*
X180978323Y-73832980D01*
X181216419Y-73832980D01*
X181311657Y-73785361D01*
X181359276Y-73737742D01*
X181406895Y-73642504D01*
X181406895Y-73547266D01*
X181359276Y-73452028D01*
X181311657Y-73404409D01*
X181216419Y-73356790D01*
X181025942Y-73309171D01*
X180930704Y-73261552D01*
X180883085Y-73213933D01*
X180835466Y-73118695D01*
X180835466Y-73023457D01*
X180883085Y-72928219D01*
X180930704Y-72880600D01*
X181025942Y-72832980D01*
X181264038Y-72832980D01*
X181406895Y-72880600D01*
X181740228Y-72832980D02*
X181978323Y-73832980D01*
X182168800Y-73118695D01*
X182359276Y-73832980D01*
X182597371Y-72832980D01*
X183121180Y-73261552D02*
X183025942Y-73213933D01*
X182978323Y-73166314D01*
X182930704Y-73071076D01*
X182930704Y-73023457D01*
X182978323Y-72928219D01*
X183025942Y-72880600D01*
X183121180Y-72832980D01*
X183311657Y-72832980D01*
X183406895Y-72880600D01*
X183454514Y-72928219D01*
X183502133Y-73023457D01*
X183502133Y-73071076D01*
X183454514Y-73166314D01*
X183406895Y-73213933D01*
X183311657Y-73261552D01*
X183121180Y-73261552D01*
X183025942Y-73309171D01*
X182978323Y-73356790D01*
X182930704Y-73452028D01*
X182930704Y-73642504D01*
X182978323Y-73737742D01*
X183025942Y-73785361D01*
X183121180Y-73832980D01*
X183311657Y-73832980D01*
X183406895Y-73785361D01*
X183454514Y-73737742D01*
X183502133Y-73642504D01*
X183502133Y-73452028D01*
X183454514Y-73356790D01*
X183406895Y-73309171D01*
X183311657Y-73261552D01*
%TO.C,SW7*%
X180835466Y-81659361D02*
X180978323Y-81706980D01*
X181216419Y-81706980D01*
X181311657Y-81659361D01*
X181359276Y-81611742D01*
X181406895Y-81516504D01*
X181406895Y-81421266D01*
X181359276Y-81326028D01*
X181311657Y-81278409D01*
X181216419Y-81230790D01*
X181025942Y-81183171D01*
X180930704Y-81135552D01*
X180883085Y-81087933D01*
X180835466Y-80992695D01*
X180835466Y-80897457D01*
X180883085Y-80802219D01*
X180930704Y-80754600D01*
X181025942Y-80706980D01*
X181264038Y-80706980D01*
X181406895Y-80754600D01*
X181740228Y-80706980D02*
X181978323Y-81706980D01*
X182168800Y-80992695D01*
X182359276Y-81706980D01*
X182597371Y-80706980D01*
X182883085Y-80706980D02*
X183549752Y-80706980D01*
X183121180Y-81706980D01*
%TO.C,C5*%
X131392633Y-90628742D02*
X131345014Y-90676361D01*
X131202157Y-90723980D01*
X131106919Y-90723980D01*
X130964061Y-90676361D01*
X130868823Y-90581123D01*
X130821204Y-90485885D01*
X130773585Y-90295409D01*
X130773585Y-90152552D01*
X130821204Y-89962076D01*
X130868823Y-89866838D01*
X130964061Y-89771600D01*
X131106919Y-89723980D01*
X131202157Y-89723980D01*
X131345014Y-89771600D01*
X131392633Y-89819219D01*
X132297395Y-89723980D02*
X131821204Y-89723980D01*
X131773585Y-90200171D01*
X131821204Y-90152552D01*
X131916442Y-90104933D01*
X132154538Y-90104933D01*
X132249776Y-90152552D01*
X132297395Y-90200171D01*
X132345014Y-90295409D01*
X132345014Y-90533504D01*
X132297395Y-90628742D01*
X132249776Y-90676361D01*
X132154538Y-90723980D01*
X131916442Y-90723980D01*
X131821204Y-90676361D01*
X131773585Y-90628742D01*
%TO.C,C4*%
X140727133Y-72023242D02*
X140679514Y-72070861D01*
X140536657Y-72118480D01*
X140441419Y-72118480D01*
X140298561Y-72070861D01*
X140203323Y-71975623D01*
X140155704Y-71880385D01*
X140108085Y-71689909D01*
X140108085Y-71547052D01*
X140155704Y-71356576D01*
X140203323Y-71261338D01*
X140298561Y-71166100D01*
X140441419Y-71118480D01*
X140536657Y-71118480D01*
X140679514Y-71166100D01*
X140727133Y-71213719D01*
X141584276Y-71451814D02*
X141584276Y-72118480D01*
X141346180Y-71070861D02*
X141108085Y-71785147D01*
X141727133Y-71785147D01*
%TO.C,C2*%
X127709633Y-65863742D02*
X127662014Y-65911361D01*
X127519157Y-65958980D01*
X127423919Y-65958980D01*
X127281061Y-65911361D01*
X127185823Y-65816123D01*
X127138204Y-65720885D01*
X127090585Y-65530409D01*
X127090585Y-65387552D01*
X127138204Y-65197076D01*
X127185823Y-65101838D01*
X127281061Y-65006600D01*
X127423919Y-64958980D01*
X127519157Y-64958980D01*
X127662014Y-65006600D01*
X127709633Y-65054219D01*
X128090585Y-65054219D02*
X128138204Y-65006600D01*
X128233442Y-64958980D01*
X128471538Y-64958980D01*
X128566776Y-65006600D01*
X128614395Y-65054219D01*
X128662014Y-65149457D01*
X128662014Y-65244695D01*
X128614395Y-65387552D01*
X128042966Y-65958980D01*
X128662014Y-65958980D01*
%TO.C,C1*%
X135075633Y-65863742D02*
X135028014Y-65911361D01*
X134885157Y-65958980D01*
X134789919Y-65958980D01*
X134647061Y-65911361D01*
X134551823Y-65816123D01*
X134504204Y-65720885D01*
X134456585Y-65530409D01*
X134456585Y-65387552D01*
X134504204Y-65197076D01*
X134551823Y-65101838D01*
X134647061Y-65006600D01*
X134789919Y-64958980D01*
X134885157Y-64958980D01*
X135028014Y-65006600D01*
X135075633Y-65054219D01*
X136028014Y-65958980D02*
X135456585Y-65958980D01*
X135742300Y-65958980D02*
X135742300Y-64958980D01*
X135647061Y-65101838D01*
X135551823Y-65197076D01*
X135456585Y-65244695D01*
%TD*%
M02*
