M48
; DRILL file {KiCad (5.1.6-0-10_14)} date Saturday, August 01, 2020 at 03:30:50 PM
; FORMAT={-:-/ absolute / inch / decimal}
; #@! TF.CreationDate,2020-08-01T15:30:50-04:00
; #@! TF.GenerationSoftware,Kicad,Pcbnew,(5.1.6-0-10_14)
FMAT,2
INCH
T1C0.0130
T2C0.0157
T3C0.0236
T4C0.0276
T5C0.0315
T6C0.0394
T7C0.0433
T8C0.0583
T9C0.0433
T10C0.0689
T11C0.0866
T12C0.1570
%
G90
G05
T1
X4.5392Y-3.2003
X4.7139Y-3.2618
X5.8029Y-2.9286
X5.8029Y-2.9641
X5.9565Y-2.6189
X6.1691Y-3.2712
X6.1809Y-2.8814
X6.2163Y-3.1649
X6.2163Y-3.2712
X6.3108Y-2.8223
X6.3108Y-3.2712
X6.3699Y-2.9877
X6.4053Y-2.9877
X6.547Y-3.1531
T2
X5.7447Y-2.821
X5.7449Y-2.8732
X5.7781Y-2.821
X5.7783Y-2.8732
X5.8116Y-2.821
X5.8118Y-2.8732
X5.8451Y-2.821
X5.8453Y-2.8732
X5.8785Y-2.821
X5.8787Y-2.8732
X5.912Y-2.821
X5.9122Y-2.8732
X5.9455Y-2.821
X5.9457Y-2.8732
X5.9791Y-2.821
X5.9791Y-2.8732
T3
X5.5445Y-2.669
X5.5445Y-2.7281
T4
X6.902Y-3.1857
X6.902Y-3.4857
X6.807Y-3.154
X6.807Y-3.454
X6.712Y-2.739
X6.712Y-3.039
X6.712Y-3.124
X6.712Y-3.424
X6.617Y-3.094
X6.617Y-3.394
X6.902Y-2.799
X6.902Y-3.099
X6.807Y-2.769
X6.807Y-3.069
X6.617Y-2.709
X6.617Y-3.009
T5
X6.612Y-4.055
X6.612Y-4.255
X5.497Y-2.909
X5.5954Y-2.909
X6.8876Y-2.5979
X7.0876Y-2.5979
X4.632Y-3.044
X4.632Y-3.344
X4.732Y-3.044
X4.732Y-3.344
X4.832Y-3.044
X4.832Y-3.344
X4.932Y-3.044
X4.932Y-3.344
X5.032Y-3.044
X5.032Y-3.344
X5.132Y-3.044
X5.132Y-3.344
X5.232Y-3.044
X5.232Y-3.344
X5.332Y-3.044
X5.332Y-3.344
X5.432Y-3.044
X5.432Y-3.344
X5.532Y-3.044
X5.532Y-3.344
X5.632Y-3.044
X5.632Y-3.344
X5.732Y-3.044
X5.732Y-3.344
X5.832Y-3.044
X5.832Y-3.344
X5.932Y-3.044
X5.932Y-3.344
X6.587Y-2.599
X6.787Y-2.599
X5.1311Y-3.464
X5.2295Y-3.464
X5.087Y-2.859
X5.2791Y-2.859
X5.112Y-4.055
X5.112Y-4.255
X5.2786Y-2.669
X5.377Y-2.669
X5.861Y-4.055
X5.861Y-4.255
X4.987Y-2.669
X5.0854Y-2.669
X4.412Y-4.054
X4.412Y-4.254
T6
X4.697Y-2.684
X4.697Y-2.784
X4.697Y-2.884
X4.797Y-2.684
X4.797Y-2.784
X4.797Y-2.884
X6.185Y-3.4928
X6.385Y-3.4932
T7
X7.0411Y-2.7968
X7.0411Y-2.974
X7.297Y-2.7968
X7.297Y-2.974
X4.433Y-4.533
X6.217Y-4.533
X5.112Y-3.841
X5.862Y-3.841
X6.612Y-3.841
X7.042Y-3.104
X7.042Y-3.2812
X7.2979Y-3.104
X7.2979Y-3.2812
X7.291Y-4.533
X6.1348Y-2.7671
X6.1703Y-2.964
X6.375Y-3.086
X6.501Y-2.7671
X5.649Y-4.533
X5.791Y-4.533
X5.081Y-4.533
X5.223Y-4.533
X5.365Y-4.533
X5.507Y-4.533
X5.933Y-4.533
X6.643Y-4.533
X6.075Y-4.533
X6.501Y-4.533
X6.359Y-4.533
T9
X6.312Y-2.7671
X6.312Y-2.964
T10
X4.537Y-4.1525
X4.937Y-4.1525
X6.787Y-4.1525
X7.187Y-4.1525
X6.037Y-4.1525
X6.437Y-4.1525
X5.287Y-4.1525
X5.687Y-4.1525
T11
X7.262Y-2.634
X7.262Y-3.444
X4.462Y-2.634
X4.462Y-3.444
T12
X6.987Y-4.1525
X6.237Y-4.1525
X5.487Y-4.1525
X4.737Y-4.1525
T3
G00X5.6917Y-2.7173
M15
G01X5.6917Y-2.6858
M16
G05
G00X5.6917Y-2.8641
M15
G01X5.6917Y-2.805
M16
G05
G00X6.0323Y-2.7173
M15
G01X6.0323Y-2.6858
M16
G05
G00X6.0323Y-2.8641
M15
G01X6.0323Y-2.805
M16
G05
T8
G00X4.5869Y-4.0519
M15
G01X4.6383Y-3.9949
M16
G05
G00X4.8354Y-3.9752
M15
G01X4.837Y-3.9527
M16
G05
G00X6.8369Y-4.0519
M15
G01X6.8883Y-3.9949
M16
G05
G00X7.0854Y-3.9752
M15
G01X7.087Y-3.9527
M16
G05
G00X6.0869Y-4.0519
M15
G01X6.1383Y-3.9949
M16
G05
G00X6.3354Y-3.9752
M15
G01X6.337Y-3.9527
M16
G05
G00X5.3369Y-4.0519
M15
G01X5.3883Y-3.9949
M16
G05
G00X5.5854Y-3.9752
M15
G01X5.587Y-3.9527
M16
G05
T0
M30
