M48
; DRILL file {KiCad (5.1.6-0-10_14)} date Sunday, July 26, 2020 at 04:46:30 PM
; FORMAT={-:-/ absolute / inch / decimal}
; #@! TF.CreationDate,2020-07-26T16:46:30-04:00
; #@! TF.GenerationSoftware,Kicad,Pcbnew,(5.1.6-0-10_14)
FMAT,2
INCH
T1C0.0130
T2C0.0157
T3C0.0236
T4C0.0276
T5C0.0315
T6C0.0394
T7C0.0433
T8C0.0591
T9C0.0433
T10C0.0669
T11C0.0866
T12C0.1575
%
G90
G05
T1
X3.4272Y-1.6663
X3.6019Y-1.7278
X4.6909Y-1.3946
X4.6909Y-1.4301
X4.8445Y-1.0849
X5.0571Y-1.7372
X5.0689Y-1.3474
X5.1043Y-1.6309
X5.1043Y-1.7372
X5.1988Y-1.2883
X5.1988Y-1.7372
X5.2579Y-1.4537
X5.2933Y-1.4537
X5.435Y-1.6191
T2
X4.6327Y-1.287
X4.6329Y-1.3392
X4.6661Y-1.287
X4.6663Y-1.3392
X4.6996Y-1.287
X4.6998Y-1.3392
X4.7331Y-1.287
X4.7333Y-1.3392
X4.7665Y-1.287
X4.7667Y-1.3392
X4.8Y-1.287
X4.8002Y-1.3392
X4.8335Y-1.287
X4.8337Y-1.3392
X4.8671Y-1.287
X4.8671Y-1.3392
T3
X4.4325Y-1.135
X4.4325Y-1.1941
T4
X5.6Y-1.205
X5.6Y-1.505
X5.695Y-1.235
X5.695Y-1.535
X5.79Y-1.265
X5.79Y-1.565
X5.505Y-1.56
X5.505Y-1.86
X5.505Y-1.175
X5.505Y-1.475
X5.6Y-1.59
X5.6Y-1.89
X5.695Y-1.62
X5.695Y-1.92
X5.79Y-1.6517
X5.79Y-1.9517
T5
X4.749Y-2.521
X4.749Y-2.721
X5.5Y-2.521
X5.5Y-2.721
X3.52Y-1.51
X3.52Y-1.81
X3.62Y-1.51
X3.62Y-1.81
X3.72Y-1.51
X3.72Y-1.81
X3.82Y-1.51
X3.82Y-1.81
X3.92Y-1.51
X3.92Y-1.81
X4.02Y-1.51
X4.02Y-1.81
X4.12Y-1.51
X4.12Y-1.81
X4.22Y-1.51
X4.22Y-1.81
X4.32Y-1.51
X4.32Y-1.81
X4.42Y-1.51
X4.42Y-1.81
X4.52Y-1.51
X4.52Y-1.81
X4.62Y-1.51
X4.62Y-1.81
X4.72Y-1.51
X4.72Y-1.81
X4.82Y-1.51
X4.82Y-1.81
X3.875Y-1.135
X3.9734Y-1.135
X4.1666Y-1.135
X4.265Y-1.135
X4.0191Y-1.93
X4.1175Y-1.93
X5.475Y-1.065
X5.675Y-1.065
X5.7756Y-1.0639
X5.9756Y-1.0639
X3.975Y-1.325
X4.1671Y-1.325
X3.3Y-2.52
X3.3Y-2.72
X4.0Y-2.521
X4.0Y-2.721
X4.385Y-1.375
X4.4834Y-1.375
T6
X5.073Y-1.9194
X5.273Y-1.9198
X3.585Y-1.15
X3.585Y-1.25
X3.585Y-1.35
X3.685Y-1.15
X3.685Y-1.25
X3.685Y-1.35
T7
X4.75Y-2.307
X5.105Y-2.999
X3.969Y-2.999
X4.111Y-2.999
X5.0228Y-1.2331
X5.0583Y-1.43
X5.263Y-1.552
X5.389Y-1.2331
X4.253Y-2.999
X4.0Y-2.307
X4.395Y-2.999
X4.821Y-2.999
X5.5Y-2.307
X5.531Y-2.999
X5.389Y-2.999
X5.93Y-1.57
X5.93Y-1.7472
X6.1859Y-1.57
X6.1859Y-1.7472
X6.179Y-2.999
X4.537Y-2.999
X5.9291Y-1.2628
X5.9291Y-1.44
X6.185Y-1.2628
X6.185Y-1.44
X4.963Y-2.999
X4.679Y-2.999
X3.321Y-2.999
X5.247Y-2.999
T8
X3.4744Y-2.5213
X3.7244Y-2.4213
X4.2244Y-2.5213
X4.4744Y-2.4213
X4.9744Y-2.5213
X5.2244Y-2.4213
X5.7244Y-2.5213
X5.9744Y-2.4213
T9
X5.2Y-1.2331
X5.2Y-1.43
T10
X3.4244Y-2.6213
X3.8244Y-2.6213
X4.1744Y-2.6213
X4.5744Y-2.6213
X4.9244Y-2.6213
X5.3244Y-2.6213
X5.6744Y-2.6213
X6.0744Y-2.6213
T11
X3.35Y-1.1
X6.15Y-1.91
X3.35Y-1.91
X6.15Y-1.1
T12
X3.6244Y-2.6213
X4.3744Y-2.6213
X5.1244Y-2.6213
X5.8744Y-2.6213
T3
G00X4.5797Y-1.1833
M15
G01X4.5797Y-1.1518
M16
G05
G00X4.5797Y-1.3301
M15
G01X4.5797Y-1.271
M16
G05
G00X4.9203Y-1.1833
M15
G01X4.9203Y-1.1518
M16
G05
G00X4.9203Y-1.3301
M15
G01X4.9203Y-1.271
M16
G05
T0
M30
