%TF.GenerationSoftware,KiCad,Pcbnew,(5.1.6-0-10_14)*%
%TF.CreationDate,2020-07-26T16:45:55-04:00*%
%TF.ProjectId,pin-check,70696e2d-6368-4656-936b-2e6b69636164,v1.0.0*%
%TF.SameCoordinates,Original*%
%TF.FileFunction,Copper,L2,Bot*%
%TF.FilePolarity,Positive*%
%FSLAX46Y46*%
G04 Gerber Fmt 4.6, Leading zero omitted, Abs format (unit mm)*
G04 Created by KiCad (PCBNEW (5.1.6-0-10_14)) date 2020-07-26 16:45:55*
%MOMM*%
%LPD*%
G01*
G04 APERTURE LIST*
%TA.AperFunction,ComponentPad*%
%ADD10O,1.400000X1.400000*%
%TD*%
%TA.AperFunction,ComponentPad*%
%ADD11C,1.400000*%
%TD*%
%TA.AperFunction,ComponentPad*%
%ADD12C,1.650000*%
%TD*%
%TA.AperFunction,ComponentPad*%
%ADD13R,1.650000X1.650000*%
%TD*%
%TA.AperFunction,ComponentPad*%
%ADD14O,1.700000X1.700000*%
%TD*%
%TA.AperFunction,ComponentPad*%
%ADD15R,1.700000X1.700000*%
%TD*%
%TA.AperFunction,ComponentPad*%
%ADD16O,0.650000X1.000000*%
%TD*%
%TA.AperFunction,ComponentPad*%
%ADD17O,0.900000X2.400000*%
%TD*%
%TA.AperFunction,ComponentPad*%
%ADD18O,0.900000X1.700000*%
%TD*%
%TA.AperFunction,ComponentPad*%
%ADD19O,1.600000X1.600000*%
%TD*%
%TA.AperFunction,ComponentPad*%
%ADD20R,1.600000X1.600000*%
%TD*%
%TA.AperFunction,ComponentPad*%
%ADD21C,2.000000*%
%TD*%
%TA.AperFunction,ComponentPad*%
%ADD22C,1.200000*%
%TD*%
%TA.AperFunction,ComponentPad*%
%ADD23C,1.500000*%
%TD*%
%TA.AperFunction,ComponentPad*%
%ADD24C,2.200000*%
%TD*%
%TA.AperFunction,ComponentPad*%
%ADD25C,1.600000*%
%TD*%
%TA.AperFunction,ViaPad*%
%ADD26C,0.685800*%
%TD*%
%TA.AperFunction,Conductor*%
%ADD27C,0.600000*%
%TD*%
%TA.AperFunction,Conductor*%
%ADD28C,0.300000*%
%TD*%
%TA.AperFunction,Conductor*%
%ADD29C,0.254000*%
%TD*%
G04 APERTURE END LIST*
D10*
%TO.P,R8,2*%
%TO.N,/C4*%
X139827000Y-29845000D03*
D11*
%TO.P,R8,1*%
%TO.N,+5V*%
X139827000Y-37465000D03*
%TD*%
D10*
%TO.P,R7,2*%
%TO.N,/C5*%
X142240000Y-30607000D03*
D11*
%TO.P,R7,1*%
%TO.N,+5V*%
X142240000Y-38227000D03*
%TD*%
D12*
%TO.P,J2,4*%
%TO.N,+5V*%
X127580000Y-31322000D03*
%TO.P,J2,3*%
%TO.N,/C4*%
X133680000Y-39422000D03*
%TO.P,J2,2*%
%TO.N,/C5*%
X128480000Y-36322000D03*
D13*
%TO.P,J2,1*%
%TO.N,GND*%
X136880000Y-31322000D03*
%TD*%
D14*
%TO.P,J1,6*%
%TO.N,GND*%
X91059000Y-29210000D03*
%TO.P,J1,5*%
%TO.N,/Reset*%
X93599000Y-29210000D03*
%TO.P,J1,4*%
%TO.N,/B3*%
X91059000Y-31750000D03*
%TO.P,J1,3*%
%TO.N,/Col0*%
X93599000Y-31750000D03*
%TO.P,J1,2*%
%TO.N,+5V*%
X91059000Y-34290000D03*
D15*
%TO.P,J1,1*%
%TO.N,/B4*%
X93599000Y-34290000D03*
%TD*%
D16*
%TO.P,P1,A5*%
%TO.N,Net-(P1-PadA5)*%
X121925000Y-34014600D03*
%TO.P,P1,A1*%
%TO.N,GND*%
X123625000Y-34014600D03*
%TO.P,P1,A4*%
%TO.N,Net-(F1-Pad2)*%
X122775000Y-34014600D03*
%TO.P,P1,A6*%
%TO.N,Net-(D8-Pad1)*%
X121075000Y-34014600D03*
%TO.P,P1,A7*%
%TO.N,Net-(D7-Pad1)*%
X120225000Y-34014600D03*
%TO.P,P1,A8*%
%TO.N,Net-(P1-PadA8)*%
X119375000Y-34014600D03*
%TO.P,P1,A9*%
%TO.N,Net-(F1-Pad2)*%
X118525000Y-34014600D03*
%TO.P,P1,A12*%
%TO.N,GND*%
X117675000Y-34014600D03*
%TO.P,P1,B12*%
X123625000Y-32689600D03*
%TO.P,P1,B9*%
%TO.N,Net-(F1-Pad2)*%
X122770000Y-32689600D03*
%TO.P,P1,B8*%
%TO.N,Net-(P1-PadB8)*%
X121920000Y-32689600D03*
%TO.P,P1,B7*%
%TO.N,Net-(D7-Pad1)*%
X121070000Y-32689600D03*
%TO.P,P1,B6*%
%TO.N,Net-(D8-Pad1)*%
X120220000Y-32689600D03*
%TO.P,P1,B5*%
%TO.N,Net-(P1-PadB5)*%
X119370000Y-32689600D03*
%TO.P,P1,B4*%
%TO.N,Net-(F1-Pad2)*%
X118520000Y-32689600D03*
%TO.P,P1,B1*%
%TO.N,GND*%
X117670000Y-32689600D03*
D17*
%TO.P,P1,S1*%
X124975000Y-33034600D03*
X116325000Y-33034600D03*
D18*
X124975000Y-29654600D03*
X116325000Y-29654600D03*
%TD*%
D19*
%TO.P,D1,2*%
%TO.N,Net-(D1-Pad2)*%
X83820000Y-64008000D03*
D20*
%TO.P,D1,1*%
%TO.N,/Row0*%
X83820000Y-69088000D03*
%TD*%
D19*
%TO.P,D8,2*%
%TO.N,GND*%
X139065000Y-27051000D03*
D20*
%TO.P,D8,1*%
%TO.N,Net-(D8-Pad1)*%
X144145000Y-27051000D03*
%TD*%
D19*
%TO.P,D7,2*%
%TO.N,GND*%
X146700000Y-27024000D03*
D20*
%TO.P,D7,1*%
%TO.N,Net-(D7-Pad1)*%
X151780000Y-27024000D03*
%TD*%
D19*
%TO.P,D4,2*%
%TO.N,Net-(D4-Pad2)*%
X139700000Y-64033400D03*
D20*
%TO.P,D4,1*%
%TO.N,/Row0*%
X139700000Y-69113400D03*
%TD*%
D19*
%TO.P,D3,2*%
%TO.N,Net-(D3-Pad2)*%
X120624600Y-64033400D03*
D20*
%TO.P,D3,1*%
%TO.N,/Row0*%
X120624600Y-69113400D03*
%TD*%
D19*
%TO.P,D2,2*%
%TO.N,Net-(D2-Pad2)*%
X101600000Y-64033400D03*
D20*
%TO.P,D2,1*%
%TO.N,/Row0*%
X101600000Y-69113400D03*
%TD*%
D10*
%TO.P,R6,2*%
%TO.N,/D+*%
X144653000Y-38989000D03*
D11*
%TO.P,R6,1*%
%TO.N,Net-(D8-Pad1)*%
X144653000Y-31369000D03*
%TD*%
D10*
%TO.P,R5,2*%
%TO.N,Net-(D7-Pad1)*%
X147066000Y-32131000D03*
D11*
%TO.P,R5,1*%
%TO.N,/D-*%
X147066000Y-39751000D03*
%TD*%
D10*
%TO.P,R4,2*%
%TO.N,Net-(D7-Pad1)*%
X139827000Y-39624000D03*
D11*
%TO.P,R4,1*%
%TO.N,+5V*%
X139827000Y-47244000D03*
%TD*%
D10*
%TO.P,R3,2*%
%TO.N,GND*%
X142240000Y-40386000D03*
D11*
%TO.P,R3,1*%
%TO.N,Net-(P1-PadA5)*%
X142240000Y-48006000D03*
%TD*%
D10*
%TO.P,R2,2*%
%TO.N,GND*%
X144653000Y-41148000D03*
D11*
%TO.P,R2,1*%
%TO.N,Net-(P1-PadB5)*%
X144653000Y-48768000D03*
%TD*%
D10*
%TO.P,R1,2*%
%TO.N,/Reset*%
X147066000Y-41953180D03*
D11*
%TO.P,R1,1*%
%TO.N,+5V*%
X147066000Y-49573180D03*
%TD*%
%TO.P,H10,1*%
%TO.N,/D7*%
%TA.AperFunction,ComponentPad*%
G36*
G01*
X127110200Y-75374600D02*
X127110200Y-76974600D01*
G75*
G02*
X126860200Y-77224600I-250000J0D01*
G01*
X125260200Y-77224600D01*
G75*
G02*
X125010200Y-76974600I0J250000D01*
G01*
X125010200Y-75374600D01*
G75*
G02*
X125260200Y-75124600I250000J0D01*
G01*
X126860200Y-75124600D01*
G75*
G02*
X127110200Y-75374600I0J-250000D01*
G01*
G37*
%TD.AperFunction*%
%TD*%
%TO.P,H9,1*%
%TO.N,/D6*%
%TA.AperFunction,ComponentPad*%
G36*
G01*
X130717000Y-75374600D02*
X130717000Y-76974600D01*
G75*
G02*
X130467000Y-77224600I-250000J0D01*
G01*
X128867000Y-77224600D01*
G75*
G02*
X128617000Y-76974600I0J250000D01*
G01*
X128617000Y-75374600D01*
G75*
G02*
X128867000Y-75124600I250000J0D01*
G01*
X130467000Y-75124600D01*
G75*
G02*
X130717000Y-75374600I0J-250000D01*
G01*
G37*
%TD.AperFunction*%
%TD*%
%TO.P,H8,1*%
%TO.N,/D4*%
%TA.AperFunction,ComponentPad*%
G36*
G01*
X134323800Y-75374600D02*
X134323800Y-76974600D01*
G75*
G02*
X134073800Y-77224600I-250000J0D01*
G01*
X132473800Y-77224600D01*
G75*
G02*
X132223800Y-76974600I0J250000D01*
G01*
X132223800Y-75374600D01*
G75*
G02*
X132473800Y-75124600I250000J0D01*
G01*
X134073800Y-75124600D01*
G75*
G02*
X134323800Y-75374600I0J-250000D01*
G01*
G37*
%TD.AperFunction*%
%TD*%
%TO.P,H7,1*%
%TO.N,/D1*%
%TA.AperFunction,ComponentPad*%
G36*
G01*
X137930600Y-75374600D02*
X137930600Y-76974600D01*
G75*
G02*
X137680600Y-77224600I-250000J0D01*
G01*
X136080600Y-77224600D01*
G75*
G02*
X135830600Y-76974600I0J250000D01*
G01*
X135830600Y-75374600D01*
G75*
G02*
X136080600Y-75124600I250000J0D01*
G01*
X137680600Y-75124600D01*
G75*
G02*
X137930600Y-75374600I0J-250000D01*
G01*
G37*
%TD.AperFunction*%
%TD*%
%TO.P,H6,1*%
%TO.N,/D0*%
%TA.AperFunction,ComponentPad*%
G36*
G01*
X141537400Y-75374600D02*
X141537400Y-76974600D01*
G75*
G02*
X141287400Y-77224600I-250000J0D01*
G01*
X139687400Y-77224600D01*
G75*
G02*
X139437400Y-76974600I0J250000D01*
G01*
X139437400Y-75374600D01*
G75*
G02*
X139687400Y-75124600I250000J0D01*
G01*
X141287400Y-75124600D01*
G75*
G02*
X141537400Y-75374600I0J-250000D01*
G01*
G37*
%TD.AperFunction*%
%TD*%
%TO.P,H11,1*%
%TO.N,/C5*%
%TA.AperFunction,ComponentPad*%
G36*
G01*
X123503400Y-75374600D02*
X123503400Y-76974600D01*
G75*
G02*
X123253400Y-77224600I-250000J0D01*
G01*
X121653400Y-77224600D01*
G75*
G02*
X121403400Y-76974600I0J250000D01*
G01*
X121403400Y-75374600D01*
G75*
G02*
X121653400Y-75124600I250000J0D01*
G01*
X123253400Y-75124600D01*
G75*
G02*
X123503400Y-75374600I0J-250000D01*
G01*
G37*
%TD.AperFunction*%
%TD*%
%TO.P,H14,1*%
%TO.N,/B4*%
%TA.AperFunction,ComponentPad*%
G36*
G01*
X112683000Y-75374600D02*
X112683000Y-76974600D01*
G75*
G02*
X112433000Y-77224600I-250000J0D01*
G01*
X110833000Y-77224600D01*
G75*
G02*
X110583000Y-76974600I0J250000D01*
G01*
X110583000Y-75374600D01*
G75*
G02*
X110833000Y-75124600I250000J0D01*
G01*
X112433000Y-75124600D01*
G75*
G02*
X112683000Y-75374600I0J-250000D01*
G01*
G37*
%TD.AperFunction*%
%TD*%
%TO.P,H15,1*%
%TO.N,/B3*%
%TA.AperFunction,ComponentPad*%
G36*
G01*
X109076200Y-75374600D02*
X109076200Y-76974600D01*
G75*
G02*
X108826200Y-77224600I-250000J0D01*
G01*
X107226200Y-77224600D01*
G75*
G02*
X106976200Y-76974600I0J250000D01*
G01*
X106976200Y-75374600D01*
G75*
G02*
X107226200Y-75124600I250000J0D01*
G01*
X108826200Y-75124600D01*
G75*
G02*
X109076200Y-75374600I0J-250000D01*
G01*
G37*
%TD.AperFunction*%
%TD*%
%TO.P,H16,1*%
%TO.N,/B2*%
%TA.AperFunction,ComponentPad*%
G36*
G01*
X105469400Y-75374600D02*
X105469400Y-76974600D01*
G75*
G02*
X105219400Y-77224600I-250000J0D01*
G01*
X103619400Y-77224600D01*
G75*
G02*
X103369400Y-76974600I0J250000D01*
G01*
X103369400Y-75374600D01*
G75*
G02*
X103619400Y-75124600I250000J0D01*
G01*
X105219400Y-75124600D01*
G75*
G02*
X105469400Y-75374600I0J-250000D01*
G01*
G37*
%TD.AperFunction*%
%TD*%
%TO.P,H17,1*%
%TO.N,/B1*%
%TA.AperFunction,ComponentPad*%
G36*
G01*
X101862600Y-75374600D02*
X101862600Y-76974600D01*
G75*
G02*
X101612600Y-77224600I-250000J0D01*
G01*
X100012600Y-77224600D01*
G75*
G02*
X99762600Y-76974600I0J250000D01*
G01*
X99762600Y-75374600D01*
G75*
G02*
X100012600Y-75124600I250000J0D01*
G01*
X101612600Y-75124600D01*
G75*
G02*
X101862600Y-75374600I0J-250000D01*
G01*
G37*
%TD.AperFunction*%
%TD*%
%TO.P,H12,1*%
%TO.N,/C4*%
%TA.AperFunction,ComponentPad*%
G36*
G01*
X119896600Y-75374600D02*
X119896600Y-76974600D01*
G75*
G02*
X119646600Y-77224600I-250000J0D01*
G01*
X118046600Y-77224600D01*
G75*
G02*
X117796600Y-76974600I0J250000D01*
G01*
X117796600Y-75374600D01*
G75*
G02*
X118046600Y-75124600I250000J0D01*
G01*
X119646600Y-75124600D01*
G75*
G02*
X119896600Y-75374600I0J-250000D01*
G01*
G37*
%TD.AperFunction*%
%TD*%
%TO.P,H13,1*%
%TO.N,/C3*%
%TA.AperFunction,ComponentPad*%
G36*
G01*
X116289800Y-75374600D02*
X116289800Y-76974600D01*
G75*
G02*
X116039800Y-77224600I-250000J0D01*
G01*
X114439800Y-77224600D01*
G75*
G02*
X114189800Y-76974600I0J250000D01*
G01*
X114189800Y-75374600D01*
G75*
G02*
X114439800Y-75124600I250000J0D01*
G01*
X116039800Y-75124600D01*
G75*
G02*
X116289800Y-75374600I0J-250000D01*
G01*
G37*
%TD.AperFunction*%
%TD*%
%TO.P,H5,1*%
%TO.N,/Col3*%
%TA.AperFunction,ComponentPad*%
G36*
G01*
X157996600Y-75374600D02*
X157996600Y-76974600D01*
G75*
G02*
X157746600Y-77224600I-250000J0D01*
G01*
X156146600Y-77224600D01*
G75*
G02*
X155896600Y-76974600I0J250000D01*
G01*
X155896600Y-75374600D01*
G75*
G02*
X156146600Y-75124600I250000J0D01*
G01*
X157746600Y-75124600D01*
G75*
G02*
X157996600Y-75374600I0J-250000D01*
G01*
G37*
%TD.AperFunction*%
%TD*%
%TO.P,H4,1*%
%TO.N,/Col2*%
%TA.AperFunction,ComponentPad*%
G36*
G01*
X140750000Y-57797800D02*
X140750000Y-59397800D01*
G75*
G02*
X140500000Y-59647800I-250000J0D01*
G01*
X138900000Y-59647800D01*
G75*
G02*
X138650000Y-59397800I0J250000D01*
G01*
X138650000Y-57797800D01*
G75*
G02*
X138900000Y-57547800I250000J0D01*
G01*
X140500000Y-57547800D01*
G75*
G02*
X140750000Y-57797800I0J-250000D01*
G01*
G37*
%TD.AperFunction*%
%TD*%
%TO.P,H3,1*%
%TO.N,/Col1*%
%TA.AperFunction,ComponentPad*%
G36*
G01*
X121700000Y-57797800D02*
X121700000Y-59397800D01*
G75*
G02*
X121450000Y-59647800I-250000J0D01*
G01*
X119850000Y-59647800D01*
G75*
G02*
X119600000Y-59397800I0J250000D01*
G01*
X119600000Y-57797800D01*
G75*
G02*
X119850000Y-57547800I250000J0D01*
G01*
X121450000Y-57547800D01*
G75*
G02*
X121700000Y-57797800I0J-250000D01*
G01*
G37*
%TD.AperFunction*%
%TD*%
%TO.P,H2,1*%
%TO.N,/Col0*%
%TA.AperFunction,ComponentPad*%
G36*
G01*
X102650000Y-57797800D02*
X102650000Y-59397800D01*
G75*
G02*
X102400000Y-59647800I-250000J0D01*
G01*
X100800000Y-59647800D01*
G75*
G02*
X100550000Y-59397800I0J250000D01*
G01*
X100550000Y-57797800D01*
G75*
G02*
X100800000Y-57547800I250000J0D01*
G01*
X102400000Y-57547800D01*
G75*
G02*
X102650000Y-57797800I0J-250000D01*
G01*
G37*
%TD.AperFunction*%
%TD*%
%TO.P,H1,1*%
%TO.N,/Row0*%
%TA.AperFunction,ComponentPad*%
G36*
G01*
X85403400Y-75374600D02*
X85403400Y-76974600D01*
G75*
G02*
X85153400Y-77224600I-250000J0D01*
G01*
X83553400Y-77224600D01*
G75*
G02*
X83303400Y-76974600I0J250000D01*
G01*
X83303400Y-75374600D01*
G75*
G02*
X83553400Y-75124600I250000J0D01*
G01*
X85153400Y-75124600D01*
G75*
G02*
X85403400Y-75374600I0J-250000D01*
G01*
G37*
%TD.AperFunction*%
%TD*%
D21*
%TO.P,F1,2*%
%TO.N,Net-(F1-Pad2)*%
X128854200Y-48752920D03*
%TO.P,F1,1*%
%TO.N,+5V*%
X133934200Y-48762920D03*
%TD*%
D22*
%TO.P,C3,2*%
%TO.N,+5V*%
X112585500Y-30329000D03*
%TO.P,C3,1*%
%TO.N,GND*%
X112585500Y-28829000D03*
%TD*%
D23*
%TO.P,Y1,2*%
%TO.N,Net-(C1-Pad2)*%
X105845000Y-33655000D03*
%TO.P,Y1,1*%
%TO.N,Net-(C2-Pad2)*%
X100965000Y-33655000D03*
%TD*%
D19*
%TO.P,U1,28*%
%TO.N,/C5*%
X122428000Y-45974000D03*
%TO.P,U1,14*%
%TO.N,/Row0*%
X89408000Y-38354000D03*
%TO.P,U1,27*%
%TO.N,/C4*%
X119888000Y-45974000D03*
%TO.P,U1,13*%
%TO.N,/D7*%
X91948000Y-38354000D03*
%TO.P,U1,26*%
%TO.N,/C3*%
X117348000Y-45974000D03*
%TO.P,U1,12*%
%TO.N,/D6*%
X94488000Y-38354000D03*
%TO.P,U1,25*%
%TO.N,/Col3*%
X114808000Y-45974000D03*
%TO.P,U1,11*%
%TO.N,/Boot*%
X97028000Y-38354000D03*
%TO.P,U1,24*%
%TO.N,/Col2*%
X112268000Y-45974000D03*
%TO.P,U1,10*%
%TO.N,Net-(C2-Pad2)*%
X99568000Y-38354000D03*
%TO.P,U1,23*%
%TO.N,/Col1*%
X109728000Y-45974000D03*
%TO.P,U1,9*%
%TO.N,Net-(C1-Pad2)*%
X102108000Y-38354000D03*
%TO.P,U1,22*%
%TO.N,GND*%
X107188000Y-45974000D03*
%TO.P,U1,8*%
X104648000Y-38354000D03*
%TO.P,U1,21*%
%TO.N,Net-(U1-Pad21)*%
X104648000Y-45974000D03*
%TO.P,U1,7*%
%TO.N,+5V*%
X107188000Y-38354000D03*
%TO.P,U1,20*%
X102108000Y-45974000D03*
%TO.P,U1,6*%
%TO.N,/D4*%
X109728000Y-38354000D03*
%TO.P,U1,19*%
%TO.N,/Col0*%
X99568000Y-45974000D03*
%TO.P,U1,5*%
%TO.N,/D-*%
X112268000Y-38354000D03*
%TO.P,U1,18*%
%TO.N,/B4*%
X97028000Y-45974000D03*
%TO.P,U1,4*%
%TO.N,/D+*%
X114808000Y-38354000D03*
%TO.P,U1,17*%
%TO.N,/B3*%
X94488000Y-45974000D03*
%TO.P,U1,3*%
%TO.N,/D1*%
X117348000Y-38354000D03*
%TO.P,U1,16*%
%TO.N,/B2*%
X91948000Y-45974000D03*
%TO.P,U1,2*%
%TO.N,/D0*%
X119888000Y-38354000D03*
%TO.P,U1,15*%
%TO.N,/B1*%
X89408000Y-45974000D03*
D20*
%TO.P,U1,1*%
%TO.N,/Reset*%
X122428000Y-38354000D03*
%TD*%
D21*
%TO.P,SW8,1*%
%TO.N,/Boot*%
X157099000Y-32076000D03*
%TO.P,SW8,2*%
%TO.N,GND*%
X157099000Y-36576000D03*
%TO.P,SW8,1*%
%TO.N,/Boot*%
X150599000Y-32076000D03*
%TO.P,SW8,2*%
%TO.N,GND*%
X150599000Y-36576000D03*
%TD*%
%TO.P,SW7,1*%
%TO.N,/Reset*%
X157122000Y-39878000D03*
%TO.P,SW7,2*%
%TO.N,GND*%
X157122000Y-44378000D03*
%TO.P,SW7,1*%
%TO.N,/Reset*%
X150622000Y-39878000D03*
%TO.P,SW7,2*%
%TO.N,GND*%
X150622000Y-44378000D03*
%TD*%
D24*
%TO.P,SW4,2*%
%TO.N,Net-(D4-Pad2)*%
X145400000Y-64040000D03*
%TO.P,SW4,1*%
%TO.N,/Col3*%
X151750000Y-61500000D03*
%TD*%
%TO.P,SW3,2*%
%TO.N,Net-(D3-Pad2)*%
X126350000Y-64040000D03*
%TO.P,SW3,1*%
%TO.N,/Col2*%
X132700000Y-61500000D03*
%TD*%
%TO.P,SW2,2*%
%TO.N,Net-(D2-Pad2)*%
X107300000Y-64040000D03*
%TO.P,SW2,1*%
%TO.N,/Col1*%
X113650000Y-61500000D03*
%TD*%
%TO.P,SW1,2*%
%TO.N,Net-(D1-Pad2)*%
X88250000Y-64040000D03*
%TO.P,SW1,1*%
%TO.N,/Col0*%
X94600000Y-61500000D03*
%TD*%
D25*
%TO.P,C5,2*%
%TO.N,+5V*%
X102084500Y-49022000D03*
%TO.P,C5,1*%
%TO.N,GND*%
X104584500Y-49022000D03*
%TD*%
%TO.P,C4,2*%
%TO.N,+5V*%
X113879000Y-34925000D03*
%TO.P,C4,1*%
%TO.N,GND*%
X111379000Y-34925000D03*
%TD*%
%TO.P,C2,2*%
%TO.N,Net-(C2-Pad2)*%
X100925000Y-28829000D03*
%TO.P,C2,1*%
%TO.N,GND*%
X98425000Y-28829000D03*
%TD*%
%TO.P,C1,2*%
%TO.N,Net-(C1-Pad2)*%
X105831000Y-28829000D03*
%TO.P,C1,1*%
%TO.N,GND*%
X108331000Y-28829000D03*
%TD*%
D26*
%TO.N,/Row0*%
X87050000Y-42324000D03*
%TO.N,Net-(D7-Pad1)*%
X134450000Y-36924000D03*
X132050000Y-32724000D03*
%TO.N,/Col0*%
X91487703Y-43886297D03*
%TO.N,/C5*%
X128450000Y-44124000D03*
%TO.N,Net-(P1-PadB5)*%
X138050000Y-41124000D03*
X133550000Y-36924000D03*
X123050000Y-27556890D03*
%TO.N,Net-(P1-PadA5)*%
X132050000Y-44124000D03*
X128750000Y-34224000D03*
%TO.N,/D-*%
X119150000Y-35424000D03*
%TO.N,/D+*%
X119150000Y-36324000D03*
%TO.N,/C4*%
X129650000Y-41424000D03*
X129650000Y-44124000D03*
%TD*%
D27*
%TO.N,+5V*%
X112626599Y-36177401D02*
X113879000Y-34925000D01*
X91059000Y-34290000D02*
X92946401Y-36177401D01*
X107188000Y-38354000D02*
X107188000Y-36892802D01*
X107188000Y-36892802D02*
X107903401Y-36177401D01*
X107903401Y-36177401D02*
X112626599Y-36177401D01*
X92946401Y-36177401D02*
X107903401Y-36177401D01*
X138308080Y-48762920D02*
X139827000Y-47244000D01*
X133934200Y-48762920D02*
X138308080Y-48762920D01*
X138308080Y-48762920D02*
X138788920Y-48762920D01*
X146718779Y-49920401D02*
X147066000Y-49573180D01*
X139946401Y-49920401D02*
X146718779Y-49920401D01*
X138788920Y-48762920D02*
X139946401Y-49920401D01*
X141478000Y-37465000D02*
X142240000Y-38227000D01*
X139827000Y-37465000D02*
X141478000Y-37465000D01*
D28*
%TO.N,Net-(D1-Pad2)*%
X88218000Y-64008000D02*
X88250000Y-64040000D01*
X83820000Y-64008000D02*
X88218000Y-64008000D01*
%TO.N,/Row0*%
X101574600Y-69088000D02*
X101600000Y-69113400D01*
X83820000Y-69088000D02*
X101574600Y-69088000D01*
X120624600Y-69113400D02*
X139700000Y-69113400D01*
X87050000Y-40712000D02*
X89408000Y-38354000D01*
X87050000Y-42324000D02*
X87050000Y-40712000D01*
X101600000Y-69113400D02*
X120624600Y-69113400D01*
%TO.N,Net-(D2-Pad2)*%
X107293400Y-64033400D02*
X107300000Y-64040000D01*
X101600000Y-64033400D02*
X107293400Y-64033400D01*
%TO.N,Net-(D3-Pad2)*%
X126343400Y-64033400D02*
X126350000Y-64040000D01*
X120624600Y-64033400D02*
X126343400Y-64033400D01*
%TO.N,Net-(D4-Pad2)*%
X145393400Y-64033400D02*
X145400000Y-64040000D01*
X139700000Y-64033400D02*
X145393400Y-64033400D01*
%TO.N,Net-(D7-Pad1)*%
X121070000Y-32901891D02*
X121070000Y-32689600D01*
X120225000Y-33746891D02*
X121070000Y-32901891D01*
X120225000Y-34014600D02*
X120225000Y-33746891D01*
X137150000Y-39624000D02*
X134450000Y-36924000D01*
X139827000Y-39624000D02*
X137150000Y-39624000D01*
X121070000Y-31889600D02*
X121070000Y-32689600D01*
X121427410Y-31532190D02*
X121070000Y-31889600D01*
X125286658Y-31532190D02*
X121427410Y-31532190D01*
X126478468Y-32724000D02*
X125286658Y-31532190D01*
X132050000Y-32724000D02*
X126478468Y-32724000D01*
%TO.N,Net-(D8-Pad1)*%
X144653000Y-31369000D02*
X141808000Y-28524000D01*
X120220000Y-31889600D02*
X120220000Y-32689600D01*
X123607410Y-28502190D02*
X120220000Y-31889600D01*
X125286658Y-28502190D02*
X123607410Y-28502190D01*
X125308468Y-28524000D02*
X125286658Y-28502190D01*
X141808000Y-28524000D02*
X125308468Y-28524000D01*
%TO.N,/Col0*%
X98697800Y-61500000D02*
X101600000Y-58597800D01*
X94600000Y-61500000D02*
X98697800Y-61500000D01*
X94600000Y-50942000D02*
X99568000Y-45974000D01*
X94600000Y-61500000D02*
X94600000Y-50942000D01*
X97480297Y-43886297D02*
X99568000Y-45974000D01*
X91487703Y-43886297D02*
X97480297Y-43886297D01*
%TO.N,/Col1*%
X117747800Y-61500000D02*
X120650000Y-58597800D01*
X113650000Y-61500000D02*
X117747800Y-61500000D01*
X113650000Y-49896000D02*
X109728000Y-45974000D01*
X113650000Y-61500000D02*
X113650000Y-49896000D01*
%TO.N,/Col2*%
X136797800Y-61500000D02*
X139700000Y-58597800D01*
X132700000Y-61500000D02*
X136797800Y-61500000D01*
X132700000Y-61500000D02*
X126576410Y-55376410D01*
X121670410Y-55376410D02*
X112268000Y-45974000D01*
X126576410Y-55376410D02*
X121670410Y-55376410D01*
%TO.N,/Col3*%
X151750000Y-70978000D02*
X156946600Y-76174600D01*
X151750000Y-61500000D02*
X151750000Y-70978000D01*
X151750000Y-61500000D02*
X145174000Y-54924000D01*
X123758000Y-54924000D02*
X114808000Y-45974000D01*
X145174000Y-54924000D02*
X123758000Y-54924000D01*
%TO.N,/C5*%
X128480000Y-36322000D02*
X131178000Y-33624000D01*
X139223000Y-33624000D02*
X142240000Y-30607000D01*
X131178000Y-33624000D02*
X139223000Y-33624000D01*
X126600000Y-45974000D02*
X122428000Y-45974000D01*
X128450000Y-44124000D02*
X126600000Y-45974000D01*
%TO.N,/Reset*%
X148546820Y-41953180D02*
X150622000Y-39878000D01*
X147066000Y-41953180D02*
X148546820Y-41953180D01*
X122428000Y-38354000D02*
X124780000Y-38354000D01*
X146868779Y-42150401D02*
X147066000Y-41953180D01*
X128576401Y-42150401D02*
X146868779Y-42150401D01*
X124780000Y-38354000D02*
X128576401Y-42150401D01*
X121325599Y-37251599D02*
X122428000Y-38354000D01*
X118727931Y-37251599D02*
X121325599Y-37251599D01*
X96991599Y-32602599D02*
X114078931Y-32602599D01*
X114078931Y-32602599D02*
X118727931Y-37251599D01*
X93599000Y-29210000D02*
X96991599Y-32602599D01*
%TO.N,Net-(P1-PadB5)*%
X145977045Y-40145599D02*
X143963955Y-40145599D01*
X133550000Y-36979046D02*
X133550000Y-36924000D01*
X142721153Y-41388401D02*
X137959355Y-41388401D01*
X145822847Y-39991401D02*
X145977045Y-40145599D01*
X143409847Y-39229401D02*
X144171847Y-39991401D01*
X144171847Y-39991401D02*
X145822847Y-39991401D01*
X137959355Y-41388401D02*
X133550000Y-36979046D01*
X141758847Y-39229401D02*
X143409847Y-39229401D01*
X143963955Y-40145599D02*
X142721153Y-41388401D01*
X139864248Y-41124000D02*
X141758847Y-39229401D01*
X138050000Y-41124000D02*
X139864248Y-41124000D01*
X119370000Y-31236890D02*
X119370000Y-32689600D01*
X123050000Y-27556890D02*
X119370000Y-31236890D01*
%TO.N,Net-(P1-PadA5)*%
X138358000Y-44124000D02*
X132050000Y-44124000D01*
X142240000Y-48006000D02*
X138358000Y-44124000D01*
X128156990Y-34817010D02*
X122443010Y-34817010D01*
X128750000Y-34224000D02*
X128156990Y-34817010D01*
X121925000Y-34299000D02*
X121925000Y-34014600D01*
X122443010Y-34817010D02*
X121925000Y-34299000D01*
%TO.N,/D-*%
X147066000Y-39751000D02*
X147066000Y-38740000D01*
X147066000Y-38740000D02*
X144050000Y-35724000D01*
X144050000Y-35724000D02*
X143150000Y-34824000D01*
X131646554Y-34824000D02*
X128946554Y-37524000D01*
X143150000Y-34824000D02*
X131646554Y-34824000D01*
X128946554Y-37524000D02*
X127250000Y-37524000D01*
X127250000Y-37524000D02*
X126950000Y-37524000D01*
X124850000Y-35424000D02*
X119150000Y-35424000D01*
X126950000Y-37524000D02*
X124850000Y-35424000D01*
%TO.N,/D+*%
X126762606Y-37976410D02*
X129133949Y-37976409D01*
X125110196Y-36324000D02*
X126762606Y-37976410D01*
X119150000Y-36324000D02*
X125110196Y-36324000D01*
X129133949Y-37976409D02*
X131833948Y-35276410D01*
X140940410Y-35276410D02*
X144653000Y-38989000D01*
X131833948Y-35276410D02*
X140940410Y-35276410D01*
%TO.N,/Boot*%
X150599000Y-32076000D02*
X157099000Y-32076000D01*
X151924401Y-33401401D02*
X150599000Y-32076000D01*
X151924401Y-40503153D02*
X151924401Y-33401401D01*
X149471973Y-42955581D02*
X151924401Y-40503153D01*
X127380098Y-41593902D02*
X128741777Y-42955581D01*
X100267902Y-41593902D02*
X127380098Y-41593902D01*
X128741777Y-42955581D02*
X149471973Y-42955581D01*
X97028000Y-38354000D02*
X100267902Y-41593902D01*
%TO.N,/C4*%
X131652000Y-39422000D02*
X129650000Y-41424000D01*
X133680000Y-39422000D02*
X131652000Y-39422000D01*
X129650000Y-44124000D02*
X129650000Y-45624000D01*
X120990401Y-47076401D02*
X119888000Y-45974000D01*
X128197599Y-47076401D02*
X120990401Y-47076401D01*
X129650000Y-45624000D02*
X128197599Y-47076401D01*
%TD*%
D29*
%TO.N,GND*%
G36*
X138001481Y-26087586D02*
G01*
X137833963Y-26313580D01*
X137713754Y-26567913D01*
X137673096Y-26701961D01*
X137795085Y-26924000D01*
X138938000Y-26924000D01*
X138938000Y-26904000D01*
X139192000Y-26904000D01*
X139192000Y-26924000D01*
X140334915Y-26924000D01*
X140456904Y-26701961D01*
X140416246Y-26567913D01*
X140296037Y-26313580D01*
X140128519Y-26087586D01*
X140098099Y-26060000D01*
X142739366Y-26060000D01*
X142719188Y-26126518D01*
X142706928Y-26251000D01*
X142706928Y-27851000D01*
X142719188Y-27975482D01*
X142755498Y-28095180D01*
X142814463Y-28205494D01*
X142893815Y-28302185D01*
X142990506Y-28381537D01*
X143100820Y-28440502D01*
X143220518Y-28476812D01*
X143345000Y-28489072D01*
X144945000Y-28489072D01*
X145069482Y-28476812D01*
X145189180Y-28440502D01*
X145299494Y-28381537D01*
X145396185Y-28302185D01*
X145475537Y-28205494D01*
X145534502Y-28095180D01*
X145570812Y-27975482D01*
X145577477Y-27907813D01*
X145636481Y-27987414D01*
X145844869Y-28176385D01*
X146086119Y-28321070D01*
X146350960Y-28415909D01*
X146573000Y-28294624D01*
X146573000Y-27151000D01*
X146827000Y-27151000D01*
X146827000Y-28294624D01*
X147049040Y-28415909D01*
X147313881Y-28321070D01*
X147555131Y-28176385D01*
X147763519Y-27987414D01*
X147931037Y-27761420D01*
X148051246Y-27507087D01*
X148091904Y-27373039D01*
X147969915Y-27151000D01*
X146827000Y-27151000D01*
X146573000Y-27151000D01*
X146553000Y-27151000D01*
X146553000Y-26897000D01*
X146573000Y-26897000D01*
X146573000Y-26877000D01*
X146827000Y-26877000D01*
X146827000Y-26897000D01*
X147969915Y-26897000D01*
X148091904Y-26674961D01*
X148051246Y-26540913D01*
X147931037Y-26286580D01*
X147763519Y-26060586D01*
X147762873Y-26060000D01*
X150366176Y-26060000D01*
X150354188Y-26099518D01*
X150341928Y-26224000D01*
X150341928Y-27824000D01*
X150354188Y-27948482D01*
X150390498Y-28068180D01*
X150449463Y-28178494D01*
X150528815Y-28275185D01*
X150625506Y-28354537D01*
X150735820Y-28413502D01*
X150855518Y-28449812D01*
X150980000Y-28462072D01*
X152580000Y-28462072D01*
X152704482Y-28449812D01*
X152824180Y-28413502D01*
X152934494Y-28354537D01*
X153031185Y-28275185D01*
X153110537Y-28178494D01*
X153169502Y-28068180D01*
X153205812Y-27948482D01*
X153218072Y-27824000D01*
X153218072Y-27769117D01*
X154475000Y-27769117D01*
X154475000Y-28110883D01*
X154541675Y-28446081D01*
X154672463Y-28761831D01*
X154862337Y-29045998D01*
X155104002Y-29287663D01*
X155388169Y-29477537D01*
X155703919Y-29608325D01*
X156039117Y-29675000D01*
X156380883Y-29675000D01*
X156716081Y-29608325D01*
X157031831Y-29477537D01*
X157315998Y-29287663D01*
X157557663Y-29045998D01*
X157747537Y-28761831D01*
X157878325Y-28446081D01*
X157945000Y-28110883D01*
X157945000Y-27769117D01*
X157878325Y-27433919D01*
X157747537Y-27118169D01*
X157557663Y-26834002D01*
X157315998Y-26592337D01*
X157031831Y-26402463D01*
X156716081Y-26271675D01*
X156380883Y-26205000D01*
X156039117Y-26205000D01*
X155703919Y-26271675D01*
X155388169Y-26402463D01*
X155104002Y-26592337D01*
X154862337Y-26834002D01*
X154672463Y-27118169D01*
X154541675Y-27433919D01*
X154475000Y-27769117D01*
X153218072Y-27769117D01*
X153218072Y-26224000D01*
X153205812Y-26099518D01*
X153193824Y-26060000D01*
X156177721Y-26060000D01*
X156574545Y-26098909D01*
X156925208Y-26204780D01*
X157248625Y-26376744D01*
X157532484Y-26608254D01*
X157765965Y-26890486D01*
X157940183Y-27212695D01*
X158048502Y-27562614D01*
X158090001Y-27957452D01*
X158090001Y-30771768D01*
X157873463Y-30627082D01*
X157575912Y-30503832D01*
X157260033Y-30441000D01*
X156937967Y-30441000D01*
X156622088Y-30503832D01*
X156324537Y-30627082D01*
X156056748Y-30806013D01*
X155829013Y-31033748D01*
X155657123Y-31291000D01*
X152040877Y-31291000D01*
X151868987Y-31033748D01*
X151641252Y-30806013D01*
X151373463Y-30627082D01*
X151075912Y-30503832D01*
X150760033Y-30441000D01*
X150437967Y-30441000D01*
X150122088Y-30503832D01*
X149824537Y-30627082D01*
X149556748Y-30806013D01*
X149329013Y-31033748D01*
X149150082Y-31301537D01*
X149026832Y-31599088D01*
X148964000Y-31914967D01*
X148964000Y-32237033D01*
X149026832Y-32552912D01*
X149150082Y-32850463D01*
X149329013Y-33118252D01*
X149556748Y-33345987D01*
X149824537Y-33524918D01*
X150122088Y-33648168D01*
X150437967Y-33711000D01*
X150760033Y-33711000D01*
X151063483Y-33650640D01*
X151139402Y-33726560D01*
X151139402Y-35027423D01*
X150857892Y-34953616D01*
X150536405Y-34934282D01*
X150217325Y-34978039D01*
X149912912Y-35083205D01*
X149738956Y-35176186D01*
X149643192Y-35440587D01*
X150599000Y-36396395D01*
X150613143Y-36382253D01*
X150792748Y-36561858D01*
X150778605Y-36576000D01*
X150792748Y-36590143D01*
X150613143Y-36769748D01*
X150599000Y-36755605D01*
X149643192Y-37711413D01*
X149738956Y-37975814D01*
X150028571Y-38116704D01*
X150340108Y-38198384D01*
X150661595Y-38217718D01*
X150980675Y-38173961D01*
X151139401Y-38119126D01*
X151139401Y-38322603D01*
X151098912Y-38305832D01*
X150783033Y-38243000D01*
X150460967Y-38243000D01*
X150145088Y-38305832D01*
X149847537Y-38429082D01*
X149579748Y-38608013D01*
X149352013Y-38835748D01*
X149173082Y-39103537D01*
X149049832Y-39401088D01*
X148987000Y-39716967D01*
X148987000Y-40039033D01*
X149047360Y-40342483D01*
X148221663Y-41168180D01*
X148147070Y-41168180D01*
X148102962Y-41102167D01*
X147917013Y-40916218D01*
X147821038Y-40852090D01*
X147917013Y-40787962D01*
X148102962Y-40602013D01*
X148249061Y-40383359D01*
X148349696Y-40140405D01*
X148401000Y-39882486D01*
X148401000Y-39619514D01*
X148349696Y-39361595D01*
X148249061Y-39118641D01*
X148102962Y-38899987D01*
X147917013Y-38714038D01*
X147847678Y-38667710D01*
X147839641Y-38586113D01*
X147824832Y-38537292D01*
X147794754Y-38438140D01*
X147774368Y-38400000D01*
X147721862Y-38301767D01*
X147672450Y-38241559D01*
X147648345Y-38212187D01*
X147648342Y-38212184D01*
X147623764Y-38182236D01*
X147593816Y-38157658D01*
X146074753Y-36638595D01*
X148957282Y-36638595D01*
X149001039Y-36957675D01*
X149106205Y-37262088D01*
X149199186Y-37436044D01*
X149463587Y-37531808D01*
X150419395Y-36576000D01*
X149463587Y-35620192D01*
X149199186Y-35715956D01*
X149058296Y-36005571D01*
X148976616Y-36317108D01*
X148957282Y-36638595D01*
X146074753Y-36638595D01*
X144632349Y-35196192D01*
X144632345Y-35196187D01*
X143732347Y-34296190D01*
X143707764Y-34266236D01*
X143588233Y-34168138D01*
X143451860Y-34095246D01*
X143303887Y-34050359D01*
X143188561Y-34039000D01*
X143188553Y-34039000D01*
X143150000Y-34035203D01*
X143111447Y-34039000D01*
X139918157Y-34039000D01*
X142030647Y-31926511D01*
X142108514Y-31942000D01*
X142371486Y-31942000D01*
X142629405Y-31890696D01*
X142872359Y-31790061D01*
X143091013Y-31643962D01*
X143276962Y-31458013D01*
X143318000Y-31396595D01*
X143318000Y-31500486D01*
X143369304Y-31758405D01*
X143469939Y-32001359D01*
X143616038Y-32220013D01*
X143801987Y-32405962D01*
X144020641Y-32552061D01*
X144263595Y-32652696D01*
X144521514Y-32704000D01*
X144784486Y-32704000D01*
X145042405Y-32652696D01*
X145285359Y-32552061D01*
X145504013Y-32405962D01*
X145689962Y-32220013D01*
X145731000Y-32158595D01*
X145731000Y-32262486D01*
X145782304Y-32520405D01*
X145882939Y-32763359D01*
X146029038Y-32982013D01*
X146214987Y-33167962D01*
X146433641Y-33314061D01*
X146676595Y-33414696D01*
X146934514Y-33466000D01*
X147197486Y-33466000D01*
X147455405Y-33414696D01*
X147698359Y-33314061D01*
X147917013Y-33167962D01*
X148102962Y-32982013D01*
X148249061Y-32763359D01*
X148349696Y-32520405D01*
X148401000Y-32262486D01*
X148401000Y-31999514D01*
X148349696Y-31741595D01*
X148249061Y-31498641D01*
X148102962Y-31279987D01*
X147917013Y-31094038D01*
X147698359Y-30947939D01*
X147455405Y-30847304D01*
X147197486Y-30796000D01*
X146934514Y-30796000D01*
X146676595Y-30847304D01*
X146433641Y-30947939D01*
X146214987Y-31094038D01*
X146029038Y-31279987D01*
X145988000Y-31341405D01*
X145988000Y-31237514D01*
X145936696Y-30979595D01*
X145836061Y-30736641D01*
X145689962Y-30517987D01*
X145504013Y-30332038D01*
X145285359Y-30185939D01*
X145042405Y-30085304D01*
X144784486Y-30034000D01*
X144521514Y-30034000D01*
X144443646Y-30049489D01*
X142390345Y-27996188D01*
X142365764Y-27966236D01*
X142246233Y-27868138D01*
X142109860Y-27795246D01*
X141961887Y-27750359D01*
X141846561Y-27739000D01*
X141846553Y-27739000D01*
X141808000Y-27735203D01*
X141769447Y-27739000D01*
X140319395Y-27739000D01*
X140416246Y-27534087D01*
X140456904Y-27400039D01*
X140334915Y-27178000D01*
X139192000Y-27178000D01*
X139192000Y-27198000D01*
X138938000Y-27198000D01*
X138938000Y-27178000D01*
X137795085Y-27178000D01*
X137673096Y-27400039D01*
X137713754Y-27534087D01*
X137810605Y-27739000D01*
X125474997Y-27739000D01*
X125440545Y-27728549D01*
X125325219Y-27717190D01*
X125325211Y-27717190D01*
X125286658Y-27713393D01*
X125248105Y-27717190D01*
X124015173Y-27717190D01*
X124027900Y-27653205D01*
X124027900Y-27460575D01*
X123990320Y-27271647D01*
X123916604Y-27093680D01*
X123809585Y-26933515D01*
X123673375Y-26797305D01*
X123513210Y-26690286D01*
X123335243Y-26616570D01*
X123146315Y-26578990D01*
X122953685Y-26578990D01*
X122764757Y-26616570D01*
X122586790Y-26690286D01*
X122426625Y-26797305D01*
X122290415Y-26933515D01*
X122183396Y-27093680D01*
X122109680Y-27271647D01*
X122081025Y-27415707D01*
X118842190Y-30654543D01*
X118812236Y-30679126D01*
X118714138Y-30798658D01*
X118641246Y-30935031D01*
X118596359Y-31083004D01*
X118585000Y-31198330D01*
X118585000Y-31198337D01*
X118581203Y-31236890D01*
X118585000Y-31275443D01*
X118585000Y-31556357D01*
X118520000Y-31549955D01*
X118331808Y-31568490D01*
X118150847Y-31623384D01*
X118096647Y-31652354D01*
X117944294Y-31594620D01*
X117797000Y-31723479D01*
X117797000Y-31882322D01*
X117717927Y-31978672D01*
X117628784Y-32145446D01*
X117573890Y-32326407D01*
X117560000Y-32467438D01*
X117560000Y-32836600D01*
X117543000Y-32836600D01*
X117543000Y-32816600D01*
X117523000Y-32816600D01*
X117523000Y-32562600D01*
X117543000Y-32562600D01*
X117543000Y-31723479D01*
X117395706Y-31594620D01*
X117223169Y-31660003D01*
X117217438Y-31663757D01*
X117156587Y-31576209D01*
X117002408Y-31427586D01*
X116822197Y-31311898D01*
X116619001Y-31240192D01*
X116452000Y-31367098D01*
X116452000Y-32907600D01*
X116472000Y-32907600D01*
X116472000Y-33161600D01*
X116452000Y-33161600D01*
X116452000Y-33181600D01*
X116198000Y-33181600D01*
X116198000Y-33161600D01*
X116178000Y-33161600D01*
X116178000Y-32907600D01*
X116198000Y-32907600D01*
X116198000Y-31367098D01*
X116030999Y-31240192D01*
X115827803Y-31311898D01*
X115647592Y-31427586D01*
X115493413Y-31576209D01*
X115371191Y-31752055D01*
X115285624Y-31948367D01*
X115240000Y-32157600D01*
X115240000Y-32653511D01*
X114661276Y-32074787D01*
X114636695Y-32044835D01*
X114517164Y-31946737D01*
X114380791Y-31873845D01*
X114232818Y-31828958D01*
X114117492Y-31817599D01*
X114117484Y-31817599D01*
X114078931Y-31813802D01*
X114040378Y-31817599D01*
X97316756Y-31817599D01*
X95320859Y-29821702D01*
X97611903Y-29821702D01*
X97683486Y-30065671D01*
X97938996Y-30186571D01*
X98213184Y-30255300D01*
X98495512Y-30269217D01*
X98775130Y-30227787D01*
X99041292Y-30132603D01*
X99166514Y-30065671D01*
X99238097Y-29821702D01*
X98425000Y-29008605D01*
X97611903Y-29821702D01*
X95320859Y-29821702D01*
X95046075Y-29546918D01*
X95084000Y-29356260D01*
X95084000Y-29063740D01*
X95051333Y-28899512D01*
X96984783Y-28899512D01*
X97026213Y-29179130D01*
X97121397Y-29445292D01*
X97188329Y-29570514D01*
X97432298Y-29642097D01*
X98245395Y-28829000D01*
X98604605Y-28829000D01*
X99417702Y-29642097D01*
X99661671Y-29570514D01*
X99675324Y-29541659D01*
X99810363Y-29743759D01*
X100010241Y-29943637D01*
X100245273Y-30100680D01*
X100506426Y-30208853D01*
X100783665Y-30264000D01*
X101066335Y-30264000D01*
X101343574Y-30208853D01*
X101604727Y-30100680D01*
X101839759Y-29943637D01*
X102039637Y-29743759D01*
X102196680Y-29508727D01*
X102304853Y-29247574D01*
X102360000Y-28970335D01*
X102360000Y-28687665D01*
X104396000Y-28687665D01*
X104396000Y-28970335D01*
X104451147Y-29247574D01*
X104559320Y-29508727D01*
X104716363Y-29743759D01*
X104916241Y-29943637D01*
X105151273Y-30100680D01*
X105412426Y-30208853D01*
X105689665Y-30264000D01*
X105972335Y-30264000D01*
X106249574Y-30208853D01*
X106510727Y-30100680D01*
X106745759Y-29943637D01*
X106867694Y-29821702D01*
X107517903Y-29821702D01*
X107589486Y-30065671D01*
X107844996Y-30186571D01*
X108119184Y-30255300D01*
X108401512Y-30269217D01*
X108681130Y-30227787D01*
X108947292Y-30132603D01*
X109072514Y-30065671D01*
X109144097Y-29821702D01*
X108331000Y-29008605D01*
X107517903Y-29821702D01*
X106867694Y-29821702D01*
X106945637Y-29743759D01*
X107079692Y-29543131D01*
X107094329Y-29570514D01*
X107338298Y-29642097D01*
X108151395Y-28829000D01*
X108510605Y-28829000D01*
X109323702Y-29642097D01*
X109567671Y-29570514D01*
X109688571Y-29315004D01*
X109757300Y-29040816D01*
X109763874Y-28907438D01*
X111347005Y-28907438D01*
X111386105Y-29147549D01*
X111471298Y-29375418D01*
X111512152Y-29451852D01*
X111680479Y-29487467D01*
X111626213Y-29541733D01*
X111491057Y-29744008D01*
X111397960Y-29968764D01*
X111350500Y-30207363D01*
X111350500Y-30450637D01*
X111397960Y-30689236D01*
X111491057Y-30913992D01*
X111626213Y-31116267D01*
X111798233Y-31288287D01*
X112000508Y-31423443D01*
X112225264Y-31516540D01*
X112463863Y-31564000D01*
X112707137Y-31564000D01*
X112945736Y-31516540D01*
X113170492Y-31423443D01*
X113372767Y-31288287D01*
X113544787Y-31116267D01*
X113679943Y-30913992D01*
X113773040Y-30689236D01*
X113820500Y-30450637D01*
X113820500Y-30207363D01*
X113773040Y-29968764D01*
X113695515Y-29781600D01*
X115240000Y-29781600D01*
X115240000Y-30181600D01*
X115285624Y-30390833D01*
X115371191Y-30587145D01*
X115493413Y-30762991D01*
X115647592Y-30911614D01*
X115827803Y-31027302D01*
X116030999Y-31099008D01*
X116198000Y-30972102D01*
X116198000Y-29781600D01*
X116452000Y-29781600D01*
X116452000Y-30972102D01*
X116619001Y-31099008D01*
X116822197Y-31027302D01*
X117002408Y-30911614D01*
X117156587Y-30762991D01*
X117278809Y-30587145D01*
X117364376Y-30390833D01*
X117410000Y-30181600D01*
X117410000Y-29781600D01*
X116452000Y-29781600D01*
X116198000Y-29781600D01*
X115240000Y-29781600D01*
X113695515Y-29781600D01*
X113679943Y-29744008D01*
X113544787Y-29541733D01*
X113490521Y-29487467D01*
X113658848Y-29451852D01*
X113759737Y-29230484D01*
X113783965Y-29127600D01*
X115240000Y-29127600D01*
X115240000Y-29527600D01*
X116198000Y-29527600D01*
X116198000Y-28337098D01*
X116452000Y-28337098D01*
X116452000Y-29527600D01*
X117410000Y-29527600D01*
X117410000Y-29127600D01*
X117364376Y-28918367D01*
X117278809Y-28722055D01*
X117156587Y-28546209D01*
X117002408Y-28397586D01*
X116822197Y-28281898D01*
X116619001Y-28210192D01*
X116452000Y-28337098D01*
X116198000Y-28337098D01*
X116030999Y-28210192D01*
X115827803Y-28281898D01*
X115647592Y-28397586D01*
X115493413Y-28546209D01*
X115371191Y-28722055D01*
X115285624Y-28918367D01*
X115240000Y-29127600D01*
X113783965Y-29127600D01*
X113815500Y-28993687D01*
X113823995Y-28750562D01*
X113784895Y-28510451D01*
X113699702Y-28282582D01*
X113658848Y-28206148D01*
X113435264Y-28158841D01*
X112765105Y-28829000D01*
X112779248Y-28843143D01*
X112599643Y-29022748D01*
X112585500Y-29008605D01*
X112571358Y-29022748D01*
X112391753Y-28843143D01*
X112405895Y-28829000D01*
X111735736Y-28158841D01*
X111512152Y-28206148D01*
X111411263Y-28427516D01*
X111355500Y-28664313D01*
X111347005Y-28907438D01*
X109763874Y-28907438D01*
X109771217Y-28758488D01*
X109729787Y-28478870D01*
X109634603Y-28212708D01*
X109567671Y-28087486D01*
X109323702Y-28015903D01*
X108510605Y-28829000D01*
X108151395Y-28829000D01*
X107338298Y-28015903D01*
X107094329Y-28087486D01*
X107080676Y-28116341D01*
X106945637Y-27914241D01*
X106867694Y-27836298D01*
X107517903Y-27836298D01*
X108331000Y-28649395D01*
X109001159Y-27979236D01*
X111915341Y-27979236D01*
X112585500Y-28649395D01*
X113255659Y-27979236D01*
X113208352Y-27755652D01*
X112986984Y-27654763D01*
X112750187Y-27599000D01*
X112507062Y-27590505D01*
X112266951Y-27629605D01*
X112039082Y-27714798D01*
X111962648Y-27755652D01*
X111915341Y-27979236D01*
X109001159Y-27979236D01*
X109144097Y-27836298D01*
X109072514Y-27592329D01*
X108817004Y-27471429D01*
X108542816Y-27402700D01*
X108260488Y-27388783D01*
X107980870Y-27430213D01*
X107714708Y-27525397D01*
X107589486Y-27592329D01*
X107517903Y-27836298D01*
X106867694Y-27836298D01*
X106745759Y-27714363D01*
X106510727Y-27557320D01*
X106249574Y-27449147D01*
X105972335Y-27394000D01*
X105689665Y-27394000D01*
X105412426Y-27449147D01*
X105151273Y-27557320D01*
X104916241Y-27714363D01*
X104716363Y-27914241D01*
X104559320Y-28149273D01*
X104451147Y-28410426D01*
X104396000Y-28687665D01*
X102360000Y-28687665D01*
X102304853Y-28410426D01*
X102196680Y-28149273D01*
X102039637Y-27914241D01*
X101839759Y-27714363D01*
X101604727Y-27557320D01*
X101343574Y-27449147D01*
X101066335Y-27394000D01*
X100783665Y-27394000D01*
X100506426Y-27449147D01*
X100245273Y-27557320D01*
X100010241Y-27714363D01*
X99810363Y-27914241D01*
X99676308Y-28114869D01*
X99661671Y-28087486D01*
X99417702Y-28015903D01*
X98604605Y-28829000D01*
X98245395Y-28829000D01*
X97432298Y-28015903D01*
X97188329Y-28087486D01*
X97067429Y-28342996D01*
X96998700Y-28617184D01*
X96984783Y-28899512D01*
X95051333Y-28899512D01*
X95026932Y-28776842D01*
X94914990Y-28506589D01*
X94752475Y-28263368D01*
X94545632Y-28056525D01*
X94302411Y-27894010D01*
X94163082Y-27836298D01*
X97611903Y-27836298D01*
X98425000Y-28649395D01*
X99238097Y-27836298D01*
X99166514Y-27592329D01*
X98911004Y-27471429D01*
X98636816Y-27402700D01*
X98354488Y-27388783D01*
X98074870Y-27430213D01*
X97808708Y-27525397D01*
X97683486Y-27592329D01*
X97611903Y-27836298D01*
X94163082Y-27836298D01*
X94032158Y-27782068D01*
X93745260Y-27725000D01*
X93452740Y-27725000D01*
X93165842Y-27782068D01*
X92895589Y-27894010D01*
X92652368Y-28056525D01*
X92445525Y-28263368D01*
X92327900Y-28439406D01*
X92156588Y-28209731D01*
X91940355Y-28014822D01*
X91690252Y-27865843D01*
X91415891Y-27768519D01*
X91186000Y-27889186D01*
X91186000Y-29083000D01*
X91206000Y-29083000D01*
X91206000Y-29337000D01*
X91186000Y-29337000D01*
X91186000Y-29357000D01*
X90932000Y-29357000D01*
X90932000Y-29337000D01*
X89738845Y-29337000D01*
X89617524Y-29566890D01*
X89662175Y-29714099D01*
X89787359Y-29976920D01*
X89961412Y-30210269D01*
X90177645Y-30405178D01*
X90294534Y-30474805D01*
X90112368Y-30596525D01*
X89905525Y-30803368D01*
X89743010Y-31046589D01*
X89631068Y-31316842D01*
X89574000Y-31603740D01*
X89574000Y-31896260D01*
X89631068Y-32183158D01*
X89743010Y-32453411D01*
X89905525Y-32696632D01*
X90112368Y-32903475D01*
X90286760Y-33020000D01*
X90112368Y-33136525D01*
X89905525Y-33343368D01*
X89743010Y-33586589D01*
X89631068Y-33856842D01*
X89574000Y-34143740D01*
X89574000Y-34436260D01*
X89631068Y-34723158D01*
X89743010Y-34993411D01*
X89905525Y-35236632D01*
X90112368Y-35443475D01*
X90355589Y-35605990D01*
X90625842Y-35717932D01*
X90912740Y-35775000D01*
X91205260Y-35775000D01*
X91218981Y-35772271D01*
X92252775Y-36806065D01*
X92282057Y-36841745D01*
X92424429Y-36958587D01*
X92586861Y-37045408D01*
X92693927Y-37077886D01*
X92763108Y-37098872D01*
X92946400Y-37116925D01*
X92992332Y-37112401D01*
X93763253Y-37112401D01*
X93573241Y-37239363D01*
X93373363Y-37439241D01*
X93218000Y-37671759D01*
X93062637Y-37439241D01*
X92862759Y-37239363D01*
X92627727Y-37082320D01*
X92366574Y-36974147D01*
X92089335Y-36919000D01*
X91806665Y-36919000D01*
X91529426Y-36974147D01*
X91268273Y-37082320D01*
X91033241Y-37239363D01*
X90833363Y-37439241D01*
X90678000Y-37671759D01*
X90522637Y-37439241D01*
X90322759Y-37239363D01*
X90087727Y-37082320D01*
X89826574Y-36974147D01*
X89549335Y-36919000D01*
X89266665Y-36919000D01*
X88989426Y-36974147D01*
X88728273Y-37082320D01*
X88493241Y-37239363D01*
X88293363Y-37439241D01*
X88136320Y-37674273D01*
X88028147Y-37935426D01*
X87973000Y-38212665D01*
X87973000Y-38495335D01*
X88003446Y-38648397D01*
X86522185Y-40129658D01*
X86492237Y-40154236D01*
X86467659Y-40184184D01*
X86467655Y-40184188D01*
X86448934Y-40207000D01*
X86394139Y-40273767D01*
X86380392Y-40299486D01*
X86321246Y-40410141D01*
X86276359Y-40558114D01*
X86261203Y-40712000D01*
X86265001Y-40750562D01*
X86265000Y-41738661D01*
X86183396Y-41860790D01*
X86109680Y-42038757D01*
X86072100Y-42227685D01*
X86072100Y-42420315D01*
X86109680Y-42609243D01*
X86183396Y-42787210D01*
X86290415Y-42947375D01*
X86426625Y-43083585D01*
X86586790Y-43190604D01*
X86764757Y-43264320D01*
X86953685Y-43301900D01*
X87146315Y-43301900D01*
X87335243Y-43264320D01*
X87513210Y-43190604D01*
X87673375Y-43083585D01*
X87809585Y-42947375D01*
X87916604Y-42787210D01*
X87990320Y-42609243D01*
X88027900Y-42420315D01*
X88027900Y-42227685D01*
X87990320Y-42038757D01*
X87916604Y-41860790D01*
X87835000Y-41738661D01*
X87835000Y-41037157D01*
X89113603Y-39758554D01*
X89266665Y-39789000D01*
X89549335Y-39789000D01*
X89826574Y-39733853D01*
X90087727Y-39625680D01*
X90322759Y-39468637D01*
X90522637Y-39268759D01*
X90678000Y-39036241D01*
X90833363Y-39268759D01*
X91033241Y-39468637D01*
X91268273Y-39625680D01*
X91529426Y-39733853D01*
X91806665Y-39789000D01*
X92089335Y-39789000D01*
X92366574Y-39733853D01*
X92627727Y-39625680D01*
X92862759Y-39468637D01*
X93062637Y-39268759D01*
X93218000Y-39036241D01*
X93373363Y-39268759D01*
X93573241Y-39468637D01*
X93808273Y-39625680D01*
X94069426Y-39733853D01*
X94346665Y-39789000D01*
X94629335Y-39789000D01*
X94906574Y-39733853D01*
X95167727Y-39625680D01*
X95402759Y-39468637D01*
X95602637Y-39268759D01*
X95758000Y-39036241D01*
X95913363Y-39268759D01*
X96113241Y-39468637D01*
X96348273Y-39625680D01*
X96609426Y-39733853D01*
X96886665Y-39789000D01*
X97169335Y-39789000D01*
X97322397Y-39758554D01*
X99685560Y-42121718D01*
X99710138Y-42151666D01*
X99740086Y-42176244D01*
X99740089Y-42176247D01*
X99766158Y-42197641D01*
X99829669Y-42249764D01*
X99966042Y-42322656D01*
X100079574Y-42357096D01*
X100114014Y-42367543D01*
X100128392Y-42368959D01*
X100229341Y-42378902D01*
X100229348Y-42378902D01*
X100267901Y-42382699D01*
X100306454Y-42378902D01*
X127054941Y-42378902D01*
X127954806Y-43278767D01*
X127826625Y-43364415D01*
X127690415Y-43500625D01*
X127583396Y-43660790D01*
X127509680Y-43838757D01*
X127481025Y-43982818D01*
X126274843Y-45189000D01*
X123629339Y-45189000D01*
X123542637Y-45059241D01*
X123342759Y-44859363D01*
X123107727Y-44702320D01*
X122846574Y-44594147D01*
X122569335Y-44539000D01*
X122286665Y-44539000D01*
X122009426Y-44594147D01*
X121748273Y-44702320D01*
X121513241Y-44859363D01*
X121313363Y-45059241D01*
X121158000Y-45291759D01*
X121002637Y-45059241D01*
X120802759Y-44859363D01*
X120567727Y-44702320D01*
X120306574Y-44594147D01*
X120029335Y-44539000D01*
X119746665Y-44539000D01*
X119469426Y-44594147D01*
X119208273Y-44702320D01*
X118973241Y-44859363D01*
X118773363Y-45059241D01*
X118618000Y-45291759D01*
X118462637Y-45059241D01*
X118262759Y-44859363D01*
X118027727Y-44702320D01*
X117766574Y-44594147D01*
X117489335Y-44539000D01*
X117206665Y-44539000D01*
X116929426Y-44594147D01*
X116668273Y-44702320D01*
X116433241Y-44859363D01*
X116233363Y-45059241D01*
X116078000Y-45291759D01*
X115922637Y-45059241D01*
X115722759Y-44859363D01*
X115487727Y-44702320D01*
X115226574Y-44594147D01*
X114949335Y-44539000D01*
X114666665Y-44539000D01*
X114389426Y-44594147D01*
X114128273Y-44702320D01*
X113893241Y-44859363D01*
X113693363Y-45059241D01*
X113538000Y-45291759D01*
X113382637Y-45059241D01*
X113182759Y-44859363D01*
X112947727Y-44702320D01*
X112686574Y-44594147D01*
X112409335Y-44539000D01*
X112126665Y-44539000D01*
X111849426Y-44594147D01*
X111588273Y-44702320D01*
X111353241Y-44859363D01*
X111153363Y-45059241D01*
X110998000Y-45291759D01*
X110842637Y-45059241D01*
X110642759Y-44859363D01*
X110407727Y-44702320D01*
X110146574Y-44594147D01*
X109869335Y-44539000D01*
X109586665Y-44539000D01*
X109309426Y-44594147D01*
X109048273Y-44702320D01*
X108813241Y-44859363D01*
X108613363Y-45059241D01*
X108456320Y-45294273D01*
X108451933Y-45304865D01*
X108340385Y-45118869D01*
X108151414Y-44910481D01*
X107925420Y-44742963D01*
X107671087Y-44622754D01*
X107537039Y-44582096D01*
X107315000Y-44704085D01*
X107315000Y-45847000D01*
X107335000Y-45847000D01*
X107335000Y-46101000D01*
X107315000Y-46101000D01*
X107315000Y-47243915D01*
X107537039Y-47365904D01*
X107671087Y-47325246D01*
X107925420Y-47205037D01*
X108151414Y-47037519D01*
X108340385Y-46829131D01*
X108451933Y-46643135D01*
X108456320Y-46653727D01*
X108613363Y-46888759D01*
X108813241Y-47088637D01*
X109048273Y-47245680D01*
X109309426Y-47353853D01*
X109586665Y-47409000D01*
X109869335Y-47409000D01*
X110022397Y-47378554D01*
X112865001Y-50221158D01*
X112865000Y-59947207D01*
X112828169Y-59962463D01*
X112544002Y-60152337D01*
X112302337Y-60394002D01*
X112112463Y-60678169D01*
X111981675Y-60993919D01*
X111915000Y-61329117D01*
X111915000Y-61670883D01*
X111981675Y-62006081D01*
X112112463Y-62321831D01*
X112302337Y-62605998D01*
X112544002Y-62847663D01*
X112828169Y-63037537D01*
X113143919Y-63168325D01*
X113479117Y-63235000D01*
X113820883Y-63235000D01*
X114156081Y-63168325D01*
X114471831Y-63037537D01*
X114755998Y-62847663D01*
X114997663Y-62605998D01*
X115187537Y-62321831D01*
X115202793Y-62285000D01*
X117709247Y-62285000D01*
X117747800Y-62288797D01*
X117786353Y-62285000D01*
X117786361Y-62285000D01*
X117901687Y-62273641D01*
X118049660Y-62228754D01*
X118186033Y-62155862D01*
X118305564Y-62057764D01*
X118330147Y-62027810D01*
X120072085Y-60285872D01*
X121450000Y-60285872D01*
X121623254Y-60268808D01*
X121789850Y-60218272D01*
X121943386Y-60136205D01*
X122077962Y-60025762D01*
X122188405Y-59891186D01*
X122270472Y-59737650D01*
X122321008Y-59571054D01*
X122338072Y-59397800D01*
X122338072Y-57797800D01*
X122321008Y-57624546D01*
X122270472Y-57457950D01*
X122188405Y-57304414D01*
X122077962Y-57169838D01*
X121943386Y-57059395D01*
X121789850Y-56977328D01*
X121623254Y-56926792D01*
X121450000Y-56909728D01*
X119850000Y-56909728D01*
X119676746Y-56926792D01*
X119510150Y-56977328D01*
X119356614Y-57059395D01*
X119222038Y-57169838D01*
X119111595Y-57304414D01*
X119029528Y-57457950D01*
X118978992Y-57624546D01*
X118961928Y-57797800D01*
X118961928Y-59175715D01*
X117422643Y-60715000D01*
X115202793Y-60715000D01*
X115187537Y-60678169D01*
X114997663Y-60394002D01*
X114755998Y-60152337D01*
X114471831Y-59962463D01*
X114435000Y-59947207D01*
X114435000Y-49934556D01*
X114438797Y-49896000D01*
X114435000Y-49857444D01*
X114435000Y-49857439D01*
X114428867Y-49795172D01*
X114423642Y-49742113D01*
X114378754Y-49594140D01*
X114360966Y-49560861D01*
X114305862Y-49457767D01*
X114207764Y-49338236D01*
X114177810Y-49313653D01*
X112273157Y-47409000D01*
X112409335Y-47409000D01*
X112562397Y-47378554D01*
X121088063Y-55904220D01*
X121112646Y-55934174D01*
X121232177Y-56032272D01*
X121368550Y-56105164D01*
X121516523Y-56150052D01*
X121591436Y-56157430D01*
X121631849Y-56161410D01*
X121631854Y-56161410D01*
X121670410Y-56165207D01*
X121708966Y-56161410D01*
X126251253Y-56161410D01*
X131046931Y-60957089D01*
X131031675Y-60993919D01*
X130965000Y-61329117D01*
X130965000Y-61670883D01*
X131031675Y-62006081D01*
X131162463Y-62321831D01*
X131352337Y-62605998D01*
X131594002Y-62847663D01*
X131878169Y-63037537D01*
X132193919Y-63168325D01*
X132529117Y-63235000D01*
X132870883Y-63235000D01*
X133206081Y-63168325D01*
X133521831Y-63037537D01*
X133805998Y-62847663D01*
X134047663Y-62605998D01*
X134237537Y-62321831D01*
X134252793Y-62285000D01*
X136759247Y-62285000D01*
X136797800Y-62288797D01*
X136836353Y-62285000D01*
X136836361Y-62285000D01*
X136951687Y-62273641D01*
X137099660Y-62228754D01*
X137236033Y-62155862D01*
X137355564Y-62057764D01*
X137380147Y-62027810D01*
X139122085Y-60285872D01*
X140500000Y-60285872D01*
X140673254Y-60268808D01*
X140839850Y-60218272D01*
X140993386Y-60136205D01*
X141127962Y-60025762D01*
X141238405Y-59891186D01*
X141320472Y-59737650D01*
X141371008Y-59571054D01*
X141388072Y-59397800D01*
X141388072Y-57797800D01*
X141371008Y-57624546D01*
X141320472Y-57457950D01*
X141238405Y-57304414D01*
X141127962Y-57169838D01*
X140993386Y-57059395D01*
X140839850Y-56977328D01*
X140673254Y-56926792D01*
X140500000Y-56909728D01*
X138900000Y-56909728D01*
X138726746Y-56926792D01*
X138560150Y-56977328D01*
X138406614Y-57059395D01*
X138272038Y-57169838D01*
X138161595Y-57304414D01*
X138079528Y-57457950D01*
X138028992Y-57624546D01*
X138011928Y-57797800D01*
X138011928Y-59175715D01*
X136472643Y-60715000D01*
X134252793Y-60715000D01*
X134237537Y-60678169D01*
X134047663Y-60394002D01*
X133805998Y-60152337D01*
X133521831Y-59962463D01*
X133206081Y-59831675D01*
X132870883Y-59765000D01*
X132529117Y-59765000D01*
X132193919Y-59831675D01*
X132157089Y-59846931D01*
X128019157Y-55709000D01*
X144848843Y-55709000D01*
X150096931Y-60957089D01*
X150081675Y-60993919D01*
X150015000Y-61329117D01*
X150015000Y-61670883D01*
X150081675Y-62006081D01*
X150212463Y-62321831D01*
X150402337Y-62605998D01*
X150644002Y-62847663D01*
X150928169Y-63037537D01*
X150965000Y-63052793D01*
X150965000Y-64608547D01*
X150889715Y-64533262D01*
X150458141Y-64244893D01*
X149978601Y-64046261D01*
X149469525Y-63945000D01*
X148950475Y-63945000D01*
X148441399Y-64046261D01*
X147961859Y-64244893D01*
X147530285Y-64533262D01*
X147163262Y-64900285D01*
X146874893Y-65331859D01*
X146676261Y-65811399D01*
X146575000Y-66320475D01*
X146575000Y-66839525D01*
X146676261Y-67348601D01*
X146874893Y-67828141D01*
X147163262Y-68259715D01*
X147530285Y-68626738D01*
X147961859Y-68915107D01*
X148441399Y-69113739D01*
X148950475Y-69215000D01*
X149469525Y-69215000D01*
X149978601Y-69113739D01*
X150458141Y-68915107D01*
X150889715Y-68626738D01*
X150965001Y-68551452D01*
X150965001Y-70939437D01*
X150961203Y-70978000D01*
X150976359Y-71131886D01*
X151021246Y-71279859D01*
X151021247Y-71279860D01*
X151094139Y-71416233D01*
X151134690Y-71465644D01*
X151167655Y-71505812D01*
X151167659Y-71505816D01*
X151192237Y-71535764D01*
X151222185Y-71560342D01*
X155258528Y-75596686D01*
X155258528Y-76974600D01*
X155267333Y-77064000D01*
X142166667Y-77064000D01*
X142175472Y-76974600D01*
X142175472Y-75374600D01*
X142158408Y-75201346D01*
X142107872Y-75034750D01*
X142025805Y-74881214D01*
X141915362Y-74746638D01*
X141780786Y-74636195D01*
X141627250Y-74554128D01*
X141460654Y-74503592D01*
X141287400Y-74486528D01*
X139687400Y-74486528D01*
X139514146Y-74503592D01*
X139347550Y-74554128D01*
X139194014Y-74636195D01*
X139059438Y-74746638D01*
X138948995Y-74881214D01*
X138866928Y-75034750D01*
X138816392Y-75201346D01*
X138799328Y-75374600D01*
X138799328Y-76974600D01*
X138808133Y-77064000D01*
X138559867Y-77064000D01*
X138568672Y-76974600D01*
X138568672Y-75374600D01*
X138551608Y-75201346D01*
X138501072Y-75034750D01*
X138419005Y-74881214D01*
X138308562Y-74746638D01*
X138173986Y-74636195D01*
X138020450Y-74554128D01*
X137853854Y-74503592D01*
X137680600Y-74486528D01*
X136080600Y-74486528D01*
X135907346Y-74503592D01*
X135740750Y-74554128D01*
X135587214Y-74636195D01*
X135452638Y-74746638D01*
X135342195Y-74881214D01*
X135260128Y-75034750D01*
X135209592Y-75201346D01*
X135192528Y-75374600D01*
X135192528Y-76974600D01*
X135201333Y-77064000D01*
X134953067Y-77064000D01*
X134961872Y-76974600D01*
X134961872Y-75374600D01*
X134944808Y-75201346D01*
X134894272Y-75034750D01*
X134812205Y-74881214D01*
X134701762Y-74746638D01*
X134567186Y-74636195D01*
X134413650Y-74554128D01*
X134247054Y-74503592D01*
X134073800Y-74486528D01*
X132473800Y-74486528D01*
X132300546Y-74503592D01*
X132133950Y-74554128D01*
X131980414Y-74636195D01*
X131845838Y-74746638D01*
X131735395Y-74881214D01*
X131653328Y-75034750D01*
X131602792Y-75201346D01*
X131585728Y-75374600D01*
X131585728Y-76974600D01*
X131594533Y-77064000D01*
X131346267Y-77064000D01*
X131355072Y-76974600D01*
X131355072Y-75374600D01*
X131338008Y-75201346D01*
X131287472Y-75034750D01*
X131205405Y-74881214D01*
X131094962Y-74746638D01*
X130960386Y-74636195D01*
X130806850Y-74554128D01*
X130640254Y-74503592D01*
X130467000Y-74486528D01*
X128867000Y-74486528D01*
X128693746Y-74503592D01*
X128527150Y-74554128D01*
X128373614Y-74636195D01*
X128239038Y-74746638D01*
X128128595Y-74881214D01*
X128046528Y-75034750D01*
X127995992Y-75201346D01*
X127978928Y-75374600D01*
X127978928Y-76974600D01*
X127987733Y-77064000D01*
X127739467Y-77064000D01*
X127748272Y-76974600D01*
X127748272Y-75374600D01*
X127731208Y-75201346D01*
X127680672Y-75034750D01*
X127598605Y-74881214D01*
X127488162Y-74746638D01*
X127353586Y-74636195D01*
X127200050Y-74554128D01*
X127033454Y-74503592D01*
X126860200Y-74486528D01*
X125260200Y-74486528D01*
X125086946Y-74503592D01*
X124920350Y-74554128D01*
X124766814Y-74636195D01*
X124632238Y-74746638D01*
X124521795Y-74881214D01*
X124439728Y-75034750D01*
X124389192Y-75201346D01*
X124372128Y-75374600D01*
X124372128Y-76974600D01*
X124380933Y-77064000D01*
X124132667Y-77064000D01*
X124141472Y-76974600D01*
X124141472Y-75374600D01*
X124124408Y-75201346D01*
X124073872Y-75034750D01*
X123991805Y-74881214D01*
X123881362Y-74746638D01*
X123746786Y-74636195D01*
X123593250Y-74554128D01*
X123426654Y-74503592D01*
X123253400Y-74486528D01*
X121653400Y-74486528D01*
X121480146Y-74503592D01*
X121313550Y-74554128D01*
X121160014Y-74636195D01*
X121025438Y-74746638D01*
X120914995Y-74881214D01*
X120832928Y-75034750D01*
X120782392Y-75201346D01*
X120765328Y-75374600D01*
X120765328Y-76974600D01*
X120774133Y-77064000D01*
X120525867Y-77064000D01*
X120534672Y-76974600D01*
X120534672Y-75374600D01*
X120517608Y-75201346D01*
X120467072Y-75034750D01*
X120385005Y-74881214D01*
X120274562Y-74746638D01*
X120139986Y-74636195D01*
X119986450Y-74554128D01*
X119819854Y-74503592D01*
X119646600Y-74486528D01*
X118046600Y-74486528D01*
X117873346Y-74503592D01*
X117706750Y-74554128D01*
X117553214Y-74636195D01*
X117418638Y-74746638D01*
X117308195Y-74881214D01*
X117226128Y-75034750D01*
X117175592Y-75201346D01*
X117158528Y-75374600D01*
X117158528Y-76974600D01*
X117167333Y-77064000D01*
X116919067Y-77064000D01*
X116927872Y-76974600D01*
X116927872Y-75374600D01*
X116910808Y-75201346D01*
X116860272Y-75034750D01*
X116778205Y-74881214D01*
X116667762Y-74746638D01*
X116533186Y-74636195D01*
X116379650Y-74554128D01*
X116213054Y-74503592D01*
X116039800Y-74486528D01*
X114439800Y-74486528D01*
X114266546Y-74503592D01*
X114099950Y-74554128D01*
X113946414Y-74636195D01*
X113811838Y-74746638D01*
X113701395Y-74881214D01*
X113619328Y-75034750D01*
X113568792Y-75201346D01*
X113551728Y-75374600D01*
X113551728Y-76974600D01*
X113560533Y-77064000D01*
X113312267Y-77064000D01*
X113321072Y-76974600D01*
X113321072Y-75374600D01*
X113304008Y-75201346D01*
X113253472Y-75034750D01*
X113171405Y-74881214D01*
X113060962Y-74746638D01*
X112926386Y-74636195D01*
X112772850Y-74554128D01*
X112606254Y-74503592D01*
X112433000Y-74486528D01*
X110833000Y-74486528D01*
X110659746Y-74503592D01*
X110493150Y-74554128D01*
X110339614Y-74636195D01*
X110205038Y-74746638D01*
X110094595Y-74881214D01*
X110012528Y-75034750D01*
X109961992Y-75201346D01*
X109944928Y-75374600D01*
X109944928Y-76974600D01*
X109953733Y-77064000D01*
X109705467Y-77064000D01*
X109714272Y-76974600D01*
X109714272Y-75374600D01*
X109697208Y-75201346D01*
X109646672Y-75034750D01*
X109564605Y-74881214D01*
X109454162Y-74746638D01*
X109319586Y-74636195D01*
X109166050Y-74554128D01*
X108999454Y-74503592D01*
X108826200Y-74486528D01*
X107226200Y-74486528D01*
X107052946Y-74503592D01*
X106886350Y-74554128D01*
X106732814Y-74636195D01*
X106598238Y-74746638D01*
X106487795Y-74881214D01*
X106405728Y-75034750D01*
X106355192Y-75201346D01*
X106338128Y-75374600D01*
X106338128Y-76974600D01*
X106346933Y-77064000D01*
X106098667Y-77064000D01*
X106107472Y-76974600D01*
X106107472Y-75374600D01*
X106090408Y-75201346D01*
X106039872Y-75034750D01*
X105957805Y-74881214D01*
X105847362Y-74746638D01*
X105712786Y-74636195D01*
X105559250Y-74554128D01*
X105392654Y-74503592D01*
X105219400Y-74486528D01*
X103619400Y-74486528D01*
X103446146Y-74503592D01*
X103279550Y-74554128D01*
X103126014Y-74636195D01*
X102991438Y-74746638D01*
X102880995Y-74881214D01*
X102798928Y-75034750D01*
X102748392Y-75201346D01*
X102731328Y-75374600D01*
X102731328Y-76974600D01*
X102740133Y-77064000D01*
X102491867Y-77064000D01*
X102500672Y-76974600D01*
X102500672Y-75374600D01*
X102483608Y-75201346D01*
X102433072Y-75034750D01*
X102351005Y-74881214D01*
X102240562Y-74746638D01*
X102105986Y-74636195D01*
X101952450Y-74554128D01*
X101785854Y-74503592D01*
X101612600Y-74486528D01*
X100012600Y-74486528D01*
X99839346Y-74503592D01*
X99672750Y-74554128D01*
X99519214Y-74636195D01*
X99384638Y-74746638D01*
X99274195Y-74881214D01*
X99192128Y-75034750D01*
X99141592Y-75201346D01*
X99124528Y-75374600D01*
X99124528Y-76974600D01*
X99133333Y-77064000D01*
X86032667Y-77064000D01*
X86041472Y-76974600D01*
X86041472Y-75374600D01*
X86024408Y-75201346D01*
X85973872Y-75034750D01*
X85891805Y-74881214D01*
X85781362Y-74746638D01*
X85646786Y-74636195D01*
X85493250Y-74554128D01*
X85326654Y-74503592D01*
X85153400Y-74486528D01*
X83553400Y-74486528D01*
X83380146Y-74503592D01*
X83213550Y-74554128D01*
X83210000Y-74556026D01*
X83210000Y-70526072D01*
X84620000Y-70526072D01*
X84744482Y-70513812D01*
X84864180Y-70477502D01*
X84974494Y-70418537D01*
X85071185Y-70339185D01*
X85150537Y-70242494D01*
X85209502Y-70132180D01*
X85245812Y-70012482D01*
X85258072Y-69888000D01*
X85258072Y-69873000D01*
X100161928Y-69873000D01*
X100161928Y-69913400D01*
X100174188Y-70037882D01*
X100210498Y-70157580D01*
X100269463Y-70267894D01*
X100348815Y-70364585D01*
X100445506Y-70443937D01*
X100555820Y-70502902D01*
X100675518Y-70539212D01*
X100800000Y-70551472D01*
X102400000Y-70551472D01*
X102524482Y-70539212D01*
X102644180Y-70502902D01*
X102754494Y-70443937D01*
X102851185Y-70364585D01*
X102930537Y-70267894D01*
X102989502Y-70157580D01*
X103025812Y-70037882D01*
X103038072Y-69913400D01*
X103038072Y-69898400D01*
X119186528Y-69898400D01*
X119186528Y-69913400D01*
X119198788Y-70037882D01*
X119235098Y-70157580D01*
X119294063Y-70267894D01*
X119373415Y-70364585D01*
X119470106Y-70443937D01*
X119580420Y-70502902D01*
X119700118Y-70539212D01*
X119824600Y-70551472D01*
X121424600Y-70551472D01*
X121549082Y-70539212D01*
X121668780Y-70502902D01*
X121779094Y-70443937D01*
X121875785Y-70364585D01*
X121955137Y-70267894D01*
X122014102Y-70157580D01*
X122050412Y-70037882D01*
X122062672Y-69913400D01*
X122062672Y-69898400D01*
X138261928Y-69898400D01*
X138261928Y-69913400D01*
X138274188Y-70037882D01*
X138310498Y-70157580D01*
X138369463Y-70267894D01*
X138448815Y-70364585D01*
X138545506Y-70443937D01*
X138655820Y-70502902D01*
X138775518Y-70539212D01*
X138900000Y-70551472D01*
X140500000Y-70551472D01*
X140624482Y-70539212D01*
X140744180Y-70502902D01*
X140854494Y-70443937D01*
X140951185Y-70364585D01*
X141030537Y-70267894D01*
X141089502Y-70157580D01*
X141125812Y-70037882D01*
X141138072Y-69913400D01*
X141138072Y-68313400D01*
X141125812Y-68188918D01*
X141089502Y-68069220D01*
X141030537Y-67958906D01*
X140951185Y-67862215D01*
X140854494Y-67782863D01*
X140744180Y-67723898D01*
X140624482Y-67687588D01*
X140500000Y-67675328D01*
X138900000Y-67675328D01*
X138775518Y-67687588D01*
X138655820Y-67723898D01*
X138545506Y-67782863D01*
X138448815Y-67862215D01*
X138369463Y-67958906D01*
X138310498Y-68069220D01*
X138274188Y-68188918D01*
X138261928Y-68313400D01*
X138261928Y-68328400D01*
X132138053Y-68328400D01*
X132206738Y-68259715D01*
X132495107Y-67828141D01*
X132693739Y-67348601D01*
X132795000Y-66839525D01*
X132795000Y-66433740D01*
X133755000Y-66433740D01*
X133755000Y-66726260D01*
X133812068Y-67013158D01*
X133924010Y-67283411D01*
X134086525Y-67526632D01*
X134293368Y-67733475D01*
X134536589Y-67895990D01*
X134806842Y-68007932D01*
X135093740Y-68065000D01*
X135386260Y-68065000D01*
X135673158Y-68007932D01*
X135943411Y-67895990D01*
X136186632Y-67733475D01*
X136393475Y-67526632D01*
X136555990Y-67283411D01*
X136667932Y-67013158D01*
X136725000Y-66726260D01*
X136725000Y-66433740D01*
X136667932Y-66146842D01*
X136555990Y-65876589D01*
X136393475Y-65633368D01*
X136186632Y-65426525D01*
X135943411Y-65264010D01*
X135673158Y-65152068D01*
X135386260Y-65095000D01*
X135093740Y-65095000D01*
X134806842Y-65152068D01*
X134536589Y-65264010D01*
X134293368Y-65426525D01*
X134086525Y-65633368D01*
X133924010Y-65876589D01*
X133812068Y-66146842D01*
X133755000Y-66433740D01*
X132795000Y-66433740D01*
X132795000Y-66320475D01*
X132693739Y-65811399D01*
X132495107Y-65331859D01*
X132206738Y-64900285D01*
X131839715Y-64533262D01*
X131408141Y-64244893D01*
X130928601Y-64046261D01*
X130419525Y-63945000D01*
X129900475Y-63945000D01*
X129391399Y-64046261D01*
X128911859Y-64244893D01*
X128480285Y-64533262D01*
X128113262Y-64900285D01*
X127824893Y-65331859D01*
X127626261Y-65811399D01*
X127525000Y-66320475D01*
X127525000Y-66839525D01*
X127626261Y-67348601D01*
X127824893Y-67828141D01*
X128113262Y-68259715D01*
X128181947Y-68328400D01*
X122062672Y-68328400D01*
X122062672Y-68313400D01*
X122050412Y-68188918D01*
X122014102Y-68069220D01*
X121955137Y-67958906D01*
X121875785Y-67862215D01*
X121779094Y-67782863D01*
X121668780Y-67723898D01*
X121549082Y-67687588D01*
X121424600Y-67675328D01*
X119824600Y-67675328D01*
X119700118Y-67687588D01*
X119580420Y-67723898D01*
X119470106Y-67782863D01*
X119373415Y-67862215D01*
X119294063Y-67958906D01*
X119235098Y-68069220D01*
X119198788Y-68188918D01*
X119186528Y-68313400D01*
X119186528Y-68328400D01*
X113088053Y-68328400D01*
X113156738Y-68259715D01*
X113445107Y-67828141D01*
X113643739Y-67348601D01*
X113745000Y-66839525D01*
X113745000Y-66433740D01*
X114705000Y-66433740D01*
X114705000Y-66726260D01*
X114762068Y-67013158D01*
X114874010Y-67283411D01*
X115036525Y-67526632D01*
X115243368Y-67733475D01*
X115486589Y-67895990D01*
X115756842Y-68007932D01*
X116043740Y-68065000D01*
X116336260Y-68065000D01*
X116623158Y-68007932D01*
X116893411Y-67895990D01*
X117136632Y-67733475D01*
X117343475Y-67526632D01*
X117505990Y-67283411D01*
X117617932Y-67013158D01*
X117675000Y-66726260D01*
X117675000Y-66433740D01*
X117617932Y-66146842D01*
X117505990Y-65876589D01*
X117343475Y-65633368D01*
X117136632Y-65426525D01*
X116893411Y-65264010D01*
X116623158Y-65152068D01*
X116336260Y-65095000D01*
X116043740Y-65095000D01*
X115756842Y-65152068D01*
X115486589Y-65264010D01*
X115243368Y-65426525D01*
X115036525Y-65633368D01*
X114874010Y-65876589D01*
X114762068Y-66146842D01*
X114705000Y-66433740D01*
X113745000Y-66433740D01*
X113745000Y-66320475D01*
X113643739Y-65811399D01*
X113445107Y-65331859D01*
X113156738Y-64900285D01*
X112789715Y-64533262D01*
X112358141Y-64244893D01*
X111878601Y-64046261D01*
X111369525Y-63945000D01*
X110850475Y-63945000D01*
X110341399Y-64046261D01*
X109861859Y-64244893D01*
X109430285Y-64533262D01*
X109063262Y-64900285D01*
X108774893Y-65331859D01*
X108576261Y-65811399D01*
X108475000Y-66320475D01*
X108475000Y-66839525D01*
X108576261Y-67348601D01*
X108774893Y-67828141D01*
X109063262Y-68259715D01*
X109131947Y-68328400D01*
X103038072Y-68328400D01*
X103038072Y-68313400D01*
X103025812Y-68188918D01*
X102989502Y-68069220D01*
X102930537Y-67958906D01*
X102851185Y-67862215D01*
X102754494Y-67782863D01*
X102644180Y-67723898D01*
X102524482Y-67687588D01*
X102400000Y-67675328D01*
X100800000Y-67675328D01*
X100675518Y-67687588D01*
X100555820Y-67723898D01*
X100445506Y-67782863D01*
X100348815Y-67862215D01*
X100269463Y-67958906D01*
X100210498Y-68069220D01*
X100174188Y-68188918D01*
X100162952Y-68303000D01*
X94063453Y-68303000D01*
X94106738Y-68259715D01*
X94395107Y-67828141D01*
X94593739Y-67348601D01*
X94695000Y-66839525D01*
X94695000Y-66433740D01*
X95655000Y-66433740D01*
X95655000Y-66726260D01*
X95712068Y-67013158D01*
X95824010Y-67283411D01*
X95986525Y-67526632D01*
X96193368Y-67733475D01*
X96436589Y-67895990D01*
X96706842Y-68007932D01*
X96993740Y-68065000D01*
X97286260Y-68065000D01*
X97573158Y-68007932D01*
X97843411Y-67895990D01*
X98086632Y-67733475D01*
X98293475Y-67526632D01*
X98455990Y-67283411D01*
X98567932Y-67013158D01*
X98625000Y-66726260D01*
X98625000Y-66433740D01*
X98567932Y-66146842D01*
X98455990Y-65876589D01*
X98293475Y-65633368D01*
X98086632Y-65426525D01*
X97843411Y-65264010D01*
X97573158Y-65152068D01*
X97286260Y-65095000D01*
X96993740Y-65095000D01*
X96706842Y-65152068D01*
X96436589Y-65264010D01*
X96193368Y-65426525D01*
X95986525Y-65633368D01*
X95824010Y-65876589D01*
X95712068Y-66146842D01*
X95655000Y-66433740D01*
X94695000Y-66433740D01*
X94695000Y-66320475D01*
X94593739Y-65811399D01*
X94395107Y-65331859D01*
X94106738Y-64900285D01*
X93739715Y-64533262D01*
X93308141Y-64244893D01*
X92828601Y-64046261D01*
X92319525Y-63945000D01*
X91800475Y-63945000D01*
X91291399Y-64046261D01*
X90811859Y-64244893D01*
X90380285Y-64533262D01*
X90013262Y-64900285D01*
X89724893Y-65331859D01*
X89526261Y-65811399D01*
X89425000Y-66320475D01*
X89425000Y-66839525D01*
X89526261Y-67348601D01*
X89724893Y-67828141D01*
X90013262Y-68259715D01*
X90056547Y-68303000D01*
X85258072Y-68303000D01*
X85258072Y-68288000D01*
X85245812Y-68163518D01*
X85209502Y-68043820D01*
X85150537Y-67933506D01*
X85071185Y-67836815D01*
X84974494Y-67757463D01*
X84864180Y-67698498D01*
X84744482Y-67662188D01*
X84620000Y-67649928D01*
X83210000Y-67649928D01*
X83210000Y-65308562D01*
X83401426Y-65387853D01*
X83678665Y-65443000D01*
X83961335Y-65443000D01*
X84238574Y-65387853D01*
X84499727Y-65279680D01*
X84734759Y-65122637D01*
X84934637Y-64922759D01*
X85021339Y-64793000D01*
X86683952Y-64793000D01*
X86712463Y-64861831D01*
X86868261Y-65095000D01*
X86833740Y-65095000D01*
X86546842Y-65152068D01*
X86276589Y-65264010D01*
X86033368Y-65426525D01*
X85826525Y-65633368D01*
X85664010Y-65876589D01*
X85552068Y-66146842D01*
X85495000Y-66433740D01*
X85495000Y-66726260D01*
X85552068Y-67013158D01*
X85664010Y-67283411D01*
X85826525Y-67526632D01*
X86033368Y-67733475D01*
X86276589Y-67895990D01*
X86546842Y-68007932D01*
X86833740Y-68065000D01*
X87126260Y-68065000D01*
X87413158Y-68007932D01*
X87683411Y-67895990D01*
X87926632Y-67733475D01*
X88133475Y-67526632D01*
X88295990Y-67283411D01*
X88407932Y-67013158D01*
X88465000Y-66726260D01*
X88465000Y-66433740D01*
X88407932Y-66146842D01*
X88295990Y-65876589D01*
X88228110Y-65775000D01*
X88420883Y-65775000D01*
X88756081Y-65708325D01*
X89071831Y-65577537D01*
X89355998Y-65387663D01*
X89597663Y-65145998D01*
X89787537Y-64861831D01*
X89918325Y-64546081D01*
X89985000Y-64210883D01*
X89985000Y-63892065D01*
X100165000Y-63892065D01*
X100165000Y-64174735D01*
X100220147Y-64451974D01*
X100328320Y-64713127D01*
X100485363Y-64948159D01*
X100685241Y-65148037D01*
X100920273Y-65305080D01*
X101181426Y-65413253D01*
X101458665Y-65468400D01*
X101741335Y-65468400D01*
X102018574Y-65413253D01*
X102279727Y-65305080D01*
X102514759Y-65148037D01*
X102714637Y-64948159D01*
X102801339Y-64818400D01*
X105744473Y-64818400D01*
X105762463Y-64861831D01*
X105918261Y-65095000D01*
X105883740Y-65095000D01*
X105596842Y-65152068D01*
X105326589Y-65264010D01*
X105083368Y-65426525D01*
X104876525Y-65633368D01*
X104714010Y-65876589D01*
X104602068Y-66146842D01*
X104545000Y-66433740D01*
X104545000Y-66726260D01*
X104602068Y-67013158D01*
X104714010Y-67283411D01*
X104876525Y-67526632D01*
X105083368Y-67733475D01*
X105326589Y-67895990D01*
X105596842Y-68007932D01*
X105883740Y-68065000D01*
X106176260Y-68065000D01*
X106463158Y-68007932D01*
X106733411Y-67895990D01*
X106976632Y-67733475D01*
X107183475Y-67526632D01*
X107345990Y-67283411D01*
X107457932Y-67013158D01*
X107515000Y-66726260D01*
X107515000Y-66433740D01*
X107457932Y-66146842D01*
X107345990Y-65876589D01*
X107278110Y-65775000D01*
X107470883Y-65775000D01*
X107806081Y-65708325D01*
X108121831Y-65577537D01*
X108405998Y-65387663D01*
X108647663Y-65145998D01*
X108837537Y-64861831D01*
X108968325Y-64546081D01*
X109035000Y-64210883D01*
X109035000Y-63892065D01*
X119189600Y-63892065D01*
X119189600Y-64174735D01*
X119244747Y-64451974D01*
X119352920Y-64713127D01*
X119509963Y-64948159D01*
X119709841Y-65148037D01*
X119944873Y-65305080D01*
X120206026Y-65413253D01*
X120483265Y-65468400D01*
X120765935Y-65468400D01*
X121043174Y-65413253D01*
X121304327Y-65305080D01*
X121539359Y-65148037D01*
X121739237Y-64948159D01*
X121825939Y-64818400D01*
X124794473Y-64818400D01*
X124812463Y-64861831D01*
X124968261Y-65095000D01*
X124933740Y-65095000D01*
X124646842Y-65152068D01*
X124376589Y-65264010D01*
X124133368Y-65426525D01*
X123926525Y-65633368D01*
X123764010Y-65876589D01*
X123652068Y-66146842D01*
X123595000Y-66433740D01*
X123595000Y-66726260D01*
X123652068Y-67013158D01*
X123764010Y-67283411D01*
X123926525Y-67526632D01*
X124133368Y-67733475D01*
X124376589Y-67895990D01*
X124646842Y-68007932D01*
X124933740Y-68065000D01*
X125226260Y-68065000D01*
X125513158Y-68007932D01*
X125783411Y-67895990D01*
X126026632Y-67733475D01*
X126233475Y-67526632D01*
X126395990Y-67283411D01*
X126507932Y-67013158D01*
X126565000Y-66726260D01*
X126565000Y-66433740D01*
X126507932Y-66146842D01*
X126395990Y-65876589D01*
X126328110Y-65775000D01*
X126520883Y-65775000D01*
X126856081Y-65708325D01*
X127171831Y-65577537D01*
X127455998Y-65387663D01*
X127697663Y-65145998D01*
X127887537Y-64861831D01*
X128018325Y-64546081D01*
X128085000Y-64210883D01*
X128085000Y-63892065D01*
X138265000Y-63892065D01*
X138265000Y-64174735D01*
X138320147Y-64451974D01*
X138428320Y-64713127D01*
X138585363Y-64948159D01*
X138785241Y-65148037D01*
X139020273Y-65305080D01*
X139281426Y-65413253D01*
X139558665Y-65468400D01*
X139841335Y-65468400D01*
X140118574Y-65413253D01*
X140379727Y-65305080D01*
X140614759Y-65148037D01*
X140814637Y-64948159D01*
X140901339Y-64818400D01*
X143844473Y-64818400D01*
X143862463Y-64861831D01*
X144018261Y-65095000D01*
X143983740Y-65095000D01*
X143696842Y-65152068D01*
X143426589Y-65264010D01*
X143183368Y-65426525D01*
X142976525Y-65633368D01*
X142814010Y-65876589D01*
X142702068Y-66146842D01*
X142645000Y-66433740D01*
X142645000Y-66726260D01*
X142702068Y-67013158D01*
X142814010Y-67283411D01*
X142976525Y-67526632D01*
X143183368Y-67733475D01*
X143426589Y-67895990D01*
X143696842Y-68007932D01*
X143983740Y-68065000D01*
X144276260Y-68065000D01*
X144563158Y-68007932D01*
X144833411Y-67895990D01*
X145076632Y-67733475D01*
X145283475Y-67526632D01*
X145445990Y-67283411D01*
X145557932Y-67013158D01*
X145615000Y-66726260D01*
X145615000Y-66433740D01*
X145557932Y-66146842D01*
X145445990Y-65876589D01*
X145378110Y-65775000D01*
X145570883Y-65775000D01*
X145906081Y-65708325D01*
X146221831Y-65577537D01*
X146505998Y-65387663D01*
X146747663Y-65145998D01*
X146937537Y-64861831D01*
X147068325Y-64546081D01*
X147135000Y-64210883D01*
X147135000Y-63869117D01*
X147068325Y-63533919D01*
X146937537Y-63218169D01*
X146747663Y-62934002D01*
X146505998Y-62692337D01*
X146221831Y-62502463D01*
X145906081Y-62371675D01*
X145570883Y-62305000D01*
X145229117Y-62305000D01*
X144893919Y-62371675D01*
X144578169Y-62502463D01*
X144294002Y-62692337D01*
X144052337Y-62934002D01*
X143862463Y-63218169D01*
X143849941Y-63248400D01*
X140901339Y-63248400D01*
X140814637Y-63118641D01*
X140614759Y-62918763D01*
X140379727Y-62761720D01*
X140118574Y-62653547D01*
X139841335Y-62598400D01*
X139558665Y-62598400D01*
X139281426Y-62653547D01*
X139020273Y-62761720D01*
X138785241Y-62918763D01*
X138585363Y-63118641D01*
X138428320Y-63353673D01*
X138320147Y-63614826D01*
X138265000Y-63892065D01*
X128085000Y-63892065D01*
X128085000Y-63869117D01*
X128018325Y-63533919D01*
X127887537Y-63218169D01*
X127697663Y-62934002D01*
X127455998Y-62692337D01*
X127171831Y-62502463D01*
X126856081Y-62371675D01*
X126520883Y-62305000D01*
X126179117Y-62305000D01*
X125843919Y-62371675D01*
X125528169Y-62502463D01*
X125244002Y-62692337D01*
X125002337Y-62934002D01*
X124812463Y-63218169D01*
X124799941Y-63248400D01*
X121825939Y-63248400D01*
X121739237Y-63118641D01*
X121539359Y-62918763D01*
X121304327Y-62761720D01*
X121043174Y-62653547D01*
X120765935Y-62598400D01*
X120483265Y-62598400D01*
X120206026Y-62653547D01*
X119944873Y-62761720D01*
X119709841Y-62918763D01*
X119509963Y-63118641D01*
X119352920Y-63353673D01*
X119244747Y-63614826D01*
X119189600Y-63892065D01*
X109035000Y-63892065D01*
X109035000Y-63869117D01*
X108968325Y-63533919D01*
X108837537Y-63218169D01*
X108647663Y-62934002D01*
X108405998Y-62692337D01*
X108121831Y-62502463D01*
X107806081Y-62371675D01*
X107470883Y-62305000D01*
X107129117Y-62305000D01*
X106793919Y-62371675D01*
X106478169Y-62502463D01*
X106194002Y-62692337D01*
X105952337Y-62934002D01*
X105762463Y-63218169D01*
X105749941Y-63248400D01*
X102801339Y-63248400D01*
X102714637Y-63118641D01*
X102514759Y-62918763D01*
X102279727Y-62761720D01*
X102018574Y-62653547D01*
X101741335Y-62598400D01*
X101458665Y-62598400D01*
X101181426Y-62653547D01*
X100920273Y-62761720D01*
X100685241Y-62918763D01*
X100485363Y-63118641D01*
X100328320Y-63353673D01*
X100220147Y-63614826D01*
X100165000Y-63892065D01*
X89985000Y-63892065D01*
X89985000Y-63869117D01*
X89918325Y-63533919D01*
X89787537Y-63218169D01*
X89597663Y-62934002D01*
X89355998Y-62692337D01*
X89071831Y-62502463D01*
X88756081Y-62371675D01*
X88420883Y-62305000D01*
X88079117Y-62305000D01*
X87743919Y-62371675D01*
X87428169Y-62502463D01*
X87144002Y-62692337D01*
X86902337Y-62934002D01*
X86712463Y-63218169D01*
X86710462Y-63223000D01*
X85021339Y-63223000D01*
X84934637Y-63093241D01*
X84734759Y-62893363D01*
X84499727Y-62736320D01*
X84238574Y-62628147D01*
X83961335Y-62573000D01*
X83678665Y-62573000D01*
X83401426Y-62628147D01*
X83210000Y-62707438D01*
X83210000Y-48343117D01*
X83355000Y-48343117D01*
X83355000Y-48684883D01*
X83421675Y-49020081D01*
X83552463Y-49335831D01*
X83742337Y-49619998D01*
X83984002Y-49861663D01*
X84268169Y-50051537D01*
X84583919Y-50182325D01*
X84919117Y-50249000D01*
X85260883Y-50249000D01*
X85596081Y-50182325D01*
X85911831Y-50051537D01*
X86195998Y-49861663D01*
X86437663Y-49619998D01*
X86627537Y-49335831D01*
X86758325Y-49020081D01*
X86825000Y-48684883D01*
X86825000Y-48343117D01*
X86758325Y-48007919D01*
X86627537Y-47692169D01*
X86437663Y-47408002D01*
X86195998Y-47166337D01*
X85911831Y-46976463D01*
X85596081Y-46845675D01*
X85260883Y-46779000D01*
X84919117Y-46779000D01*
X84583919Y-46845675D01*
X84268169Y-46976463D01*
X83984002Y-47166337D01*
X83742337Y-47408002D01*
X83552463Y-47692169D01*
X83421675Y-48007919D01*
X83355000Y-48343117D01*
X83210000Y-48343117D01*
X83210000Y-45832665D01*
X87973000Y-45832665D01*
X87973000Y-46115335D01*
X88028147Y-46392574D01*
X88136320Y-46653727D01*
X88293363Y-46888759D01*
X88493241Y-47088637D01*
X88728273Y-47245680D01*
X88989426Y-47353853D01*
X89266665Y-47409000D01*
X89549335Y-47409000D01*
X89826574Y-47353853D01*
X90087727Y-47245680D01*
X90322759Y-47088637D01*
X90522637Y-46888759D01*
X90678000Y-46656241D01*
X90833363Y-46888759D01*
X91033241Y-47088637D01*
X91268273Y-47245680D01*
X91529426Y-47353853D01*
X91806665Y-47409000D01*
X92089335Y-47409000D01*
X92366574Y-47353853D01*
X92627727Y-47245680D01*
X92862759Y-47088637D01*
X93062637Y-46888759D01*
X93218000Y-46656241D01*
X93373363Y-46888759D01*
X93573241Y-47088637D01*
X93808273Y-47245680D01*
X94069426Y-47353853D01*
X94346665Y-47409000D01*
X94629335Y-47409000D01*
X94906574Y-47353853D01*
X95167727Y-47245680D01*
X95402759Y-47088637D01*
X95602637Y-46888759D01*
X95758000Y-46656241D01*
X95913363Y-46888759D01*
X96113241Y-47088637D01*
X96348273Y-47245680D01*
X96609426Y-47353853D01*
X96886665Y-47409000D01*
X97022842Y-47409000D01*
X94072185Y-50359658D01*
X94042237Y-50384236D01*
X94017659Y-50414184D01*
X94017655Y-50414188D01*
X93994525Y-50442372D01*
X93944139Y-50503767D01*
X93918433Y-50551861D01*
X93871246Y-50640141D01*
X93826359Y-50788114D01*
X93811203Y-50942000D01*
X93815001Y-50980563D01*
X93815000Y-59947207D01*
X93778169Y-59962463D01*
X93494002Y-60152337D01*
X93252337Y-60394002D01*
X93062463Y-60678169D01*
X92931675Y-60993919D01*
X92865000Y-61329117D01*
X92865000Y-61670883D01*
X92931675Y-62006081D01*
X93062463Y-62321831D01*
X93252337Y-62605998D01*
X93494002Y-62847663D01*
X93778169Y-63037537D01*
X94093919Y-63168325D01*
X94429117Y-63235000D01*
X94770883Y-63235000D01*
X95106081Y-63168325D01*
X95421831Y-63037537D01*
X95705998Y-62847663D01*
X95947663Y-62605998D01*
X96137537Y-62321831D01*
X96152793Y-62285000D01*
X98659247Y-62285000D01*
X98697800Y-62288797D01*
X98736353Y-62285000D01*
X98736361Y-62285000D01*
X98851687Y-62273641D01*
X98999660Y-62228754D01*
X99136033Y-62155862D01*
X99255564Y-62057764D01*
X99280147Y-62027810D01*
X101022085Y-60285872D01*
X102400000Y-60285872D01*
X102573254Y-60268808D01*
X102739850Y-60218272D01*
X102893386Y-60136205D01*
X103027962Y-60025762D01*
X103138405Y-59891186D01*
X103220472Y-59737650D01*
X103271008Y-59571054D01*
X103288072Y-59397800D01*
X103288072Y-57797800D01*
X103271008Y-57624546D01*
X103220472Y-57457950D01*
X103138405Y-57304414D01*
X103027962Y-57169838D01*
X102893386Y-57059395D01*
X102739850Y-56977328D01*
X102573254Y-56926792D01*
X102400000Y-56909728D01*
X100800000Y-56909728D01*
X100626746Y-56926792D01*
X100460150Y-56977328D01*
X100306614Y-57059395D01*
X100172038Y-57169838D01*
X100061595Y-57304414D01*
X99979528Y-57457950D01*
X99928992Y-57624546D01*
X99911928Y-57797800D01*
X99911928Y-59175715D01*
X98372643Y-60715000D01*
X96152793Y-60715000D01*
X96137537Y-60678169D01*
X95947663Y-60394002D01*
X95705998Y-60152337D01*
X95421831Y-59962463D01*
X95385000Y-59947207D01*
X95385000Y-51267157D01*
X97771492Y-48880665D01*
X100649500Y-48880665D01*
X100649500Y-49163335D01*
X100704647Y-49440574D01*
X100812820Y-49701727D01*
X100969863Y-49936759D01*
X101169741Y-50136637D01*
X101404773Y-50293680D01*
X101665926Y-50401853D01*
X101943165Y-50457000D01*
X102225835Y-50457000D01*
X102503074Y-50401853D01*
X102764227Y-50293680D01*
X102999259Y-50136637D01*
X103121194Y-50014702D01*
X103771403Y-50014702D01*
X103842986Y-50258671D01*
X104098496Y-50379571D01*
X104372684Y-50448300D01*
X104655012Y-50462217D01*
X104934630Y-50420787D01*
X105200792Y-50325603D01*
X105326014Y-50258671D01*
X105397597Y-50014702D01*
X104584500Y-49201605D01*
X103771403Y-50014702D01*
X103121194Y-50014702D01*
X103199137Y-49936759D01*
X103333192Y-49736131D01*
X103347829Y-49763514D01*
X103591798Y-49835097D01*
X104404895Y-49022000D01*
X104764105Y-49022000D01*
X105577202Y-49835097D01*
X105821171Y-49763514D01*
X105942071Y-49508004D01*
X106010800Y-49233816D01*
X106024717Y-48951488D01*
X105983287Y-48671870D01*
X105888103Y-48405708D01*
X105821171Y-48280486D01*
X105577202Y-48208903D01*
X104764105Y-49022000D01*
X104404895Y-49022000D01*
X103591798Y-48208903D01*
X103347829Y-48280486D01*
X103334176Y-48309341D01*
X103199137Y-48107241D01*
X103121194Y-48029298D01*
X103771403Y-48029298D01*
X104584500Y-48842395D01*
X105397597Y-48029298D01*
X105326014Y-47785329D01*
X105070504Y-47664429D01*
X104796316Y-47595700D01*
X104513988Y-47581783D01*
X104234370Y-47623213D01*
X103968208Y-47718397D01*
X103842986Y-47785329D01*
X103771403Y-48029298D01*
X103121194Y-48029298D01*
X102999259Y-47907363D01*
X102764227Y-47750320D01*
X102503074Y-47642147D01*
X102225835Y-47587000D01*
X101943165Y-47587000D01*
X101665926Y-47642147D01*
X101404773Y-47750320D01*
X101169741Y-47907363D01*
X100969863Y-48107241D01*
X100812820Y-48342273D01*
X100704647Y-48603426D01*
X100649500Y-48880665D01*
X97771492Y-48880665D01*
X99273604Y-47378554D01*
X99426665Y-47409000D01*
X99709335Y-47409000D01*
X99986574Y-47353853D01*
X100247727Y-47245680D01*
X100482759Y-47088637D01*
X100682637Y-46888759D01*
X100838000Y-46656241D01*
X100993363Y-46888759D01*
X101193241Y-47088637D01*
X101428273Y-47245680D01*
X101689426Y-47353853D01*
X101966665Y-47409000D01*
X102249335Y-47409000D01*
X102526574Y-47353853D01*
X102787727Y-47245680D01*
X103022759Y-47088637D01*
X103222637Y-46888759D01*
X103378000Y-46656241D01*
X103533363Y-46888759D01*
X103733241Y-47088637D01*
X103968273Y-47245680D01*
X104229426Y-47353853D01*
X104506665Y-47409000D01*
X104789335Y-47409000D01*
X105066574Y-47353853D01*
X105327727Y-47245680D01*
X105562759Y-47088637D01*
X105762637Y-46888759D01*
X105919680Y-46653727D01*
X105924067Y-46643135D01*
X106035615Y-46829131D01*
X106224586Y-47037519D01*
X106450580Y-47205037D01*
X106704913Y-47325246D01*
X106838961Y-47365904D01*
X107061000Y-47243915D01*
X107061000Y-46101000D01*
X107041000Y-46101000D01*
X107041000Y-45847000D01*
X107061000Y-45847000D01*
X107061000Y-44704085D01*
X106838961Y-44582096D01*
X106704913Y-44622754D01*
X106450580Y-44742963D01*
X106224586Y-44910481D01*
X106035615Y-45118869D01*
X105924067Y-45304865D01*
X105919680Y-45294273D01*
X105762637Y-45059241D01*
X105562759Y-44859363D01*
X105327727Y-44702320D01*
X105066574Y-44594147D01*
X104789335Y-44539000D01*
X104506665Y-44539000D01*
X104229426Y-44594147D01*
X103968273Y-44702320D01*
X103733241Y-44859363D01*
X103533363Y-45059241D01*
X103378000Y-45291759D01*
X103222637Y-45059241D01*
X103022759Y-44859363D01*
X102787727Y-44702320D01*
X102526574Y-44594147D01*
X102249335Y-44539000D01*
X101966665Y-44539000D01*
X101689426Y-44594147D01*
X101428273Y-44702320D01*
X101193241Y-44859363D01*
X100993363Y-45059241D01*
X100838000Y-45291759D01*
X100682637Y-45059241D01*
X100482759Y-44859363D01*
X100247727Y-44702320D01*
X99986574Y-44594147D01*
X99709335Y-44539000D01*
X99426665Y-44539000D01*
X99273604Y-44569446D01*
X98062644Y-43358487D01*
X98038061Y-43328533D01*
X97918530Y-43230435D01*
X97782157Y-43157543D01*
X97634184Y-43112656D01*
X97518858Y-43101297D01*
X97518850Y-43101297D01*
X97480297Y-43097500D01*
X97441744Y-43101297D01*
X92073042Y-43101297D01*
X91950913Y-43019693D01*
X91772946Y-42945977D01*
X91584018Y-42908397D01*
X91391388Y-42908397D01*
X91202460Y-42945977D01*
X91024493Y-43019693D01*
X90864328Y-43126712D01*
X90728118Y-43262922D01*
X90621099Y-43423087D01*
X90547383Y-43601054D01*
X90509803Y-43789982D01*
X90509803Y-43982612D01*
X90547383Y-44171540D01*
X90621099Y-44349507D01*
X90728118Y-44509672D01*
X90864328Y-44645882D01*
X91024493Y-44752901D01*
X91128252Y-44795879D01*
X91033241Y-44859363D01*
X90833363Y-45059241D01*
X90678000Y-45291759D01*
X90522637Y-45059241D01*
X90322759Y-44859363D01*
X90087727Y-44702320D01*
X89826574Y-44594147D01*
X89549335Y-44539000D01*
X89266665Y-44539000D01*
X88989426Y-44594147D01*
X88728273Y-44702320D01*
X88493241Y-44859363D01*
X88293363Y-45059241D01*
X88136320Y-45294273D01*
X88028147Y-45555426D01*
X87973000Y-45832665D01*
X83210000Y-45832665D01*
X83210000Y-27972279D01*
X83229920Y-27769117D01*
X83355000Y-27769117D01*
X83355000Y-28110883D01*
X83421675Y-28446081D01*
X83552463Y-28761831D01*
X83742337Y-29045998D01*
X83984002Y-29287663D01*
X84268169Y-29477537D01*
X84583919Y-29608325D01*
X84919117Y-29675000D01*
X85260883Y-29675000D01*
X85596081Y-29608325D01*
X85911831Y-29477537D01*
X86195998Y-29287663D01*
X86437663Y-29045998D01*
X86566546Y-28853110D01*
X89617524Y-28853110D01*
X89738845Y-29083000D01*
X90932000Y-29083000D01*
X90932000Y-27889186D01*
X90702109Y-27768519D01*
X90427748Y-27865843D01*
X90177645Y-28014822D01*
X89961412Y-28209731D01*
X89787359Y-28443080D01*
X89662175Y-28705901D01*
X89617524Y-28853110D01*
X86566546Y-28853110D01*
X86627537Y-28761831D01*
X86758325Y-28446081D01*
X86825000Y-28110883D01*
X86825000Y-27769117D01*
X86758325Y-27433919D01*
X86627537Y-27118169D01*
X86437663Y-26834002D01*
X86195998Y-26592337D01*
X85911831Y-26402463D01*
X85596081Y-26271675D01*
X85260883Y-26205000D01*
X84919117Y-26205000D01*
X84583919Y-26271675D01*
X84268169Y-26402463D01*
X83984002Y-26592337D01*
X83742337Y-26834002D01*
X83552463Y-27118169D01*
X83421675Y-27433919D01*
X83355000Y-27769117D01*
X83229920Y-27769117D01*
X83248909Y-27575455D01*
X83354780Y-27224792D01*
X83526744Y-26901375D01*
X83758254Y-26617516D01*
X84040486Y-26384035D01*
X84362695Y-26209817D01*
X84712614Y-26101498D01*
X85107443Y-26060000D01*
X138031901Y-26060000D01*
X138001481Y-26087586D01*
G37*
X138001481Y-26087586D02*
X137833963Y-26313580D01*
X137713754Y-26567913D01*
X137673096Y-26701961D01*
X137795085Y-26924000D01*
X138938000Y-26924000D01*
X138938000Y-26904000D01*
X139192000Y-26904000D01*
X139192000Y-26924000D01*
X140334915Y-26924000D01*
X140456904Y-26701961D01*
X140416246Y-26567913D01*
X140296037Y-26313580D01*
X140128519Y-26087586D01*
X140098099Y-26060000D01*
X142739366Y-26060000D01*
X142719188Y-26126518D01*
X142706928Y-26251000D01*
X142706928Y-27851000D01*
X142719188Y-27975482D01*
X142755498Y-28095180D01*
X142814463Y-28205494D01*
X142893815Y-28302185D01*
X142990506Y-28381537D01*
X143100820Y-28440502D01*
X143220518Y-28476812D01*
X143345000Y-28489072D01*
X144945000Y-28489072D01*
X145069482Y-28476812D01*
X145189180Y-28440502D01*
X145299494Y-28381537D01*
X145396185Y-28302185D01*
X145475537Y-28205494D01*
X145534502Y-28095180D01*
X145570812Y-27975482D01*
X145577477Y-27907813D01*
X145636481Y-27987414D01*
X145844869Y-28176385D01*
X146086119Y-28321070D01*
X146350960Y-28415909D01*
X146573000Y-28294624D01*
X146573000Y-27151000D01*
X146827000Y-27151000D01*
X146827000Y-28294624D01*
X147049040Y-28415909D01*
X147313881Y-28321070D01*
X147555131Y-28176385D01*
X147763519Y-27987414D01*
X147931037Y-27761420D01*
X148051246Y-27507087D01*
X148091904Y-27373039D01*
X147969915Y-27151000D01*
X146827000Y-27151000D01*
X146573000Y-27151000D01*
X146553000Y-27151000D01*
X146553000Y-26897000D01*
X146573000Y-26897000D01*
X146573000Y-26877000D01*
X146827000Y-26877000D01*
X146827000Y-26897000D01*
X147969915Y-26897000D01*
X148091904Y-26674961D01*
X148051246Y-26540913D01*
X147931037Y-26286580D01*
X147763519Y-26060586D01*
X147762873Y-26060000D01*
X150366176Y-26060000D01*
X150354188Y-26099518D01*
X150341928Y-26224000D01*
X150341928Y-27824000D01*
X150354188Y-27948482D01*
X150390498Y-28068180D01*
X150449463Y-28178494D01*
X150528815Y-28275185D01*
X150625506Y-28354537D01*
X150735820Y-28413502D01*
X150855518Y-28449812D01*
X150980000Y-28462072D01*
X152580000Y-28462072D01*
X152704482Y-28449812D01*
X152824180Y-28413502D01*
X152934494Y-28354537D01*
X153031185Y-28275185D01*
X153110537Y-28178494D01*
X153169502Y-28068180D01*
X153205812Y-27948482D01*
X153218072Y-27824000D01*
X153218072Y-27769117D01*
X154475000Y-27769117D01*
X154475000Y-28110883D01*
X154541675Y-28446081D01*
X154672463Y-28761831D01*
X154862337Y-29045998D01*
X155104002Y-29287663D01*
X155388169Y-29477537D01*
X155703919Y-29608325D01*
X156039117Y-29675000D01*
X156380883Y-29675000D01*
X156716081Y-29608325D01*
X157031831Y-29477537D01*
X157315998Y-29287663D01*
X157557663Y-29045998D01*
X157747537Y-28761831D01*
X157878325Y-28446081D01*
X157945000Y-28110883D01*
X157945000Y-27769117D01*
X157878325Y-27433919D01*
X157747537Y-27118169D01*
X157557663Y-26834002D01*
X157315998Y-26592337D01*
X157031831Y-26402463D01*
X156716081Y-26271675D01*
X156380883Y-26205000D01*
X156039117Y-26205000D01*
X155703919Y-26271675D01*
X155388169Y-26402463D01*
X155104002Y-26592337D01*
X154862337Y-26834002D01*
X154672463Y-27118169D01*
X154541675Y-27433919D01*
X154475000Y-27769117D01*
X153218072Y-27769117D01*
X153218072Y-26224000D01*
X153205812Y-26099518D01*
X153193824Y-26060000D01*
X156177721Y-26060000D01*
X156574545Y-26098909D01*
X156925208Y-26204780D01*
X157248625Y-26376744D01*
X157532484Y-26608254D01*
X157765965Y-26890486D01*
X157940183Y-27212695D01*
X158048502Y-27562614D01*
X158090001Y-27957452D01*
X158090001Y-30771768D01*
X157873463Y-30627082D01*
X157575912Y-30503832D01*
X157260033Y-30441000D01*
X156937967Y-30441000D01*
X156622088Y-30503832D01*
X156324537Y-30627082D01*
X156056748Y-30806013D01*
X155829013Y-31033748D01*
X155657123Y-31291000D01*
X152040877Y-31291000D01*
X151868987Y-31033748D01*
X151641252Y-30806013D01*
X151373463Y-30627082D01*
X151075912Y-30503832D01*
X150760033Y-30441000D01*
X150437967Y-30441000D01*
X150122088Y-30503832D01*
X149824537Y-30627082D01*
X149556748Y-30806013D01*
X149329013Y-31033748D01*
X149150082Y-31301537D01*
X149026832Y-31599088D01*
X148964000Y-31914967D01*
X148964000Y-32237033D01*
X149026832Y-32552912D01*
X149150082Y-32850463D01*
X149329013Y-33118252D01*
X149556748Y-33345987D01*
X149824537Y-33524918D01*
X150122088Y-33648168D01*
X150437967Y-33711000D01*
X150760033Y-33711000D01*
X151063483Y-33650640D01*
X151139402Y-33726560D01*
X151139402Y-35027423D01*
X150857892Y-34953616D01*
X150536405Y-34934282D01*
X150217325Y-34978039D01*
X149912912Y-35083205D01*
X149738956Y-35176186D01*
X149643192Y-35440587D01*
X150599000Y-36396395D01*
X150613143Y-36382253D01*
X150792748Y-36561858D01*
X150778605Y-36576000D01*
X150792748Y-36590143D01*
X150613143Y-36769748D01*
X150599000Y-36755605D01*
X149643192Y-37711413D01*
X149738956Y-37975814D01*
X150028571Y-38116704D01*
X150340108Y-38198384D01*
X150661595Y-38217718D01*
X150980675Y-38173961D01*
X151139401Y-38119126D01*
X151139401Y-38322603D01*
X151098912Y-38305832D01*
X150783033Y-38243000D01*
X150460967Y-38243000D01*
X150145088Y-38305832D01*
X149847537Y-38429082D01*
X149579748Y-38608013D01*
X149352013Y-38835748D01*
X149173082Y-39103537D01*
X149049832Y-39401088D01*
X148987000Y-39716967D01*
X148987000Y-40039033D01*
X149047360Y-40342483D01*
X148221663Y-41168180D01*
X148147070Y-41168180D01*
X148102962Y-41102167D01*
X147917013Y-40916218D01*
X147821038Y-40852090D01*
X147917013Y-40787962D01*
X148102962Y-40602013D01*
X148249061Y-40383359D01*
X148349696Y-40140405D01*
X148401000Y-39882486D01*
X148401000Y-39619514D01*
X148349696Y-39361595D01*
X148249061Y-39118641D01*
X148102962Y-38899987D01*
X147917013Y-38714038D01*
X147847678Y-38667710D01*
X147839641Y-38586113D01*
X147824832Y-38537292D01*
X147794754Y-38438140D01*
X147774368Y-38400000D01*
X147721862Y-38301767D01*
X147672450Y-38241559D01*
X147648345Y-38212187D01*
X147648342Y-38212184D01*
X147623764Y-38182236D01*
X147593816Y-38157658D01*
X146074753Y-36638595D01*
X148957282Y-36638595D01*
X149001039Y-36957675D01*
X149106205Y-37262088D01*
X149199186Y-37436044D01*
X149463587Y-37531808D01*
X150419395Y-36576000D01*
X149463587Y-35620192D01*
X149199186Y-35715956D01*
X149058296Y-36005571D01*
X148976616Y-36317108D01*
X148957282Y-36638595D01*
X146074753Y-36638595D01*
X144632349Y-35196192D01*
X144632345Y-35196187D01*
X143732347Y-34296190D01*
X143707764Y-34266236D01*
X143588233Y-34168138D01*
X143451860Y-34095246D01*
X143303887Y-34050359D01*
X143188561Y-34039000D01*
X143188553Y-34039000D01*
X143150000Y-34035203D01*
X143111447Y-34039000D01*
X139918157Y-34039000D01*
X142030647Y-31926511D01*
X142108514Y-31942000D01*
X142371486Y-31942000D01*
X142629405Y-31890696D01*
X142872359Y-31790061D01*
X143091013Y-31643962D01*
X143276962Y-31458013D01*
X143318000Y-31396595D01*
X143318000Y-31500486D01*
X143369304Y-31758405D01*
X143469939Y-32001359D01*
X143616038Y-32220013D01*
X143801987Y-32405962D01*
X144020641Y-32552061D01*
X144263595Y-32652696D01*
X144521514Y-32704000D01*
X144784486Y-32704000D01*
X145042405Y-32652696D01*
X145285359Y-32552061D01*
X145504013Y-32405962D01*
X145689962Y-32220013D01*
X145731000Y-32158595D01*
X145731000Y-32262486D01*
X145782304Y-32520405D01*
X145882939Y-32763359D01*
X146029038Y-32982013D01*
X146214987Y-33167962D01*
X146433641Y-33314061D01*
X146676595Y-33414696D01*
X146934514Y-33466000D01*
X147197486Y-33466000D01*
X147455405Y-33414696D01*
X147698359Y-33314061D01*
X147917013Y-33167962D01*
X148102962Y-32982013D01*
X148249061Y-32763359D01*
X148349696Y-32520405D01*
X148401000Y-32262486D01*
X148401000Y-31999514D01*
X148349696Y-31741595D01*
X148249061Y-31498641D01*
X148102962Y-31279987D01*
X147917013Y-31094038D01*
X147698359Y-30947939D01*
X147455405Y-30847304D01*
X147197486Y-30796000D01*
X146934514Y-30796000D01*
X146676595Y-30847304D01*
X146433641Y-30947939D01*
X146214987Y-31094038D01*
X146029038Y-31279987D01*
X145988000Y-31341405D01*
X145988000Y-31237514D01*
X145936696Y-30979595D01*
X145836061Y-30736641D01*
X145689962Y-30517987D01*
X145504013Y-30332038D01*
X145285359Y-30185939D01*
X145042405Y-30085304D01*
X144784486Y-30034000D01*
X144521514Y-30034000D01*
X144443646Y-30049489D01*
X142390345Y-27996188D01*
X142365764Y-27966236D01*
X142246233Y-27868138D01*
X142109860Y-27795246D01*
X141961887Y-27750359D01*
X141846561Y-27739000D01*
X141846553Y-27739000D01*
X141808000Y-27735203D01*
X141769447Y-27739000D01*
X140319395Y-27739000D01*
X140416246Y-27534087D01*
X140456904Y-27400039D01*
X140334915Y-27178000D01*
X139192000Y-27178000D01*
X139192000Y-27198000D01*
X138938000Y-27198000D01*
X138938000Y-27178000D01*
X137795085Y-27178000D01*
X137673096Y-27400039D01*
X137713754Y-27534087D01*
X137810605Y-27739000D01*
X125474997Y-27739000D01*
X125440545Y-27728549D01*
X125325219Y-27717190D01*
X125325211Y-27717190D01*
X125286658Y-27713393D01*
X125248105Y-27717190D01*
X124015173Y-27717190D01*
X124027900Y-27653205D01*
X124027900Y-27460575D01*
X123990320Y-27271647D01*
X123916604Y-27093680D01*
X123809585Y-26933515D01*
X123673375Y-26797305D01*
X123513210Y-26690286D01*
X123335243Y-26616570D01*
X123146315Y-26578990D01*
X122953685Y-26578990D01*
X122764757Y-26616570D01*
X122586790Y-26690286D01*
X122426625Y-26797305D01*
X122290415Y-26933515D01*
X122183396Y-27093680D01*
X122109680Y-27271647D01*
X122081025Y-27415707D01*
X118842190Y-30654543D01*
X118812236Y-30679126D01*
X118714138Y-30798658D01*
X118641246Y-30935031D01*
X118596359Y-31083004D01*
X118585000Y-31198330D01*
X118585000Y-31198337D01*
X118581203Y-31236890D01*
X118585000Y-31275443D01*
X118585000Y-31556357D01*
X118520000Y-31549955D01*
X118331808Y-31568490D01*
X118150847Y-31623384D01*
X118096647Y-31652354D01*
X117944294Y-31594620D01*
X117797000Y-31723479D01*
X117797000Y-31882322D01*
X117717927Y-31978672D01*
X117628784Y-32145446D01*
X117573890Y-32326407D01*
X117560000Y-32467438D01*
X117560000Y-32836600D01*
X117543000Y-32836600D01*
X117543000Y-32816600D01*
X117523000Y-32816600D01*
X117523000Y-32562600D01*
X117543000Y-32562600D01*
X117543000Y-31723479D01*
X117395706Y-31594620D01*
X117223169Y-31660003D01*
X117217438Y-31663757D01*
X117156587Y-31576209D01*
X117002408Y-31427586D01*
X116822197Y-31311898D01*
X116619001Y-31240192D01*
X116452000Y-31367098D01*
X116452000Y-32907600D01*
X116472000Y-32907600D01*
X116472000Y-33161600D01*
X116452000Y-33161600D01*
X116452000Y-33181600D01*
X116198000Y-33181600D01*
X116198000Y-33161600D01*
X116178000Y-33161600D01*
X116178000Y-32907600D01*
X116198000Y-32907600D01*
X116198000Y-31367098D01*
X116030999Y-31240192D01*
X115827803Y-31311898D01*
X115647592Y-31427586D01*
X115493413Y-31576209D01*
X115371191Y-31752055D01*
X115285624Y-31948367D01*
X115240000Y-32157600D01*
X115240000Y-32653511D01*
X114661276Y-32074787D01*
X114636695Y-32044835D01*
X114517164Y-31946737D01*
X114380791Y-31873845D01*
X114232818Y-31828958D01*
X114117492Y-31817599D01*
X114117484Y-31817599D01*
X114078931Y-31813802D01*
X114040378Y-31817599D01*
X97316756Y-31817599D01*
X95320859Y-29821702D01*
X97611903Y-29821702D01*
X97683486Y-30065671D01*
X97938996Y-30186571D01*
X98213184Y-30255300D01*
X98495512Y-30269217D01*
X98775130Y-30227787D01*
X99041292Y-30132603D01*
X99166514Y-30065671D01*
X99238097Y-29821702D01*
X98425000Y-29008605D01*
X97611903Y-29821702D01*
X95320859Y-29821702D01*
X95046075Y-29546918D01*
X95084000Y-29356260D01*
X95084000Y-29063740D01*
X95051333Y-28899512D01*
X96984783Y-28899512D01*
X97026213Y-29179130D01*
X97121397Y-29445292D01*
X97188329Y-29570514D01*
X97432298Y-29642097D01*
X98245395Y-28829000D01*
X98604605Y-28829000D01*
X99417702Y-29642097D01*
X99661671Y-29570514D01*
X99675324Y-29541659D01*
X99810363Y-29743759D01*
X100010241Y-29943637D01*
X100245273Y-30100680D01*
X100506426Y-30208853D01*
X100783665Y-30264000D01*
X101066335Y-30264000D01*
X101343574Y-30208853D01*
X101604727Y-30100680D01*
X101839759Y-29943637D01*
X102039637Y-29743759D01*
X102196680Y-29508727D01*
X102304853Y-29247574D01*
X102360000Y-28970335D01*
X102360000Y-28687665D01*
X104396000Y-28687665D01*
X104396000Y-28970335D01*
X104451147Y-29247574D01*
X104559320Y-29508727D01*
X104716363Y-29743759D01*
X104916241Y-29943637D01*
X105151273Y-30100680D01*
X105412426Y-30208853D01*
X105689665Y-30264000D01*
X105972335Y-30264000D01*
X106249574Y-30208853D01*
X106510727Y-30100680D01*
X106745759Y-29943637D01*
X106867694Y-29821702D01*
X107517903Y-29821702D01*
X107589486Y-30065671D01*
X107844996Y-30186571D01*
X108119184Y-30255300D01*
X108401512Y-30269217D01*
X108681130Y-30227787D01*
X108947292Y-30132603D01*
X109072514Y-30065671D01*
X109144097Y-29821702D01*
X108331000Y-29008605D01*
X107517903Y-29821702D01*
X106867694Y-29821702D01*
X106945637Y-29743759D01*
X107079692Y-29543131D01*
X107094329Y-29570514D01*
X107338298Y-29642097D01*
X108151395Y-28829000D01*
X108510605Y-28829000D01*
X109323702Y-29642097D01*
X109567671Y-29570514D01*
X109688571Y-29315004D01*
X109757300Y-29040816D01*
X109763874Y-28907438D01*
X111347005Y-28907438D01*
X111386105Y-29147549D01*
X111471298Y-29375418D01*
X111512152Y-29451852D01*
X111680479Y-29487467D01*
X111626213Y-29541733D01*
X111491057Y-29744008D01*
X111397960Y-29968764D01*
X111350500Y-30207363D01*
X111350500Y-30450637D01*
X111397960Y-30689236D01*
X111491057Y-30913992D01*
X111626213Y-31116267D01*
X111798233Y-31288287D01*
X112000508Y-31423443D01*
X112225264Y-31516540D01*
X112463863Y-31564000D01*
X112707137Y-31564000D01*
X112945736Y-31516540D01*
X113170492Y-31423443D01*
X113372767Y-31288287D01*
X113544787Y-31116267D01*
X113679943Y-30913992D01*
X113773040Y-30689236D01*
X113820500Y-30450637D01*
X113820500Y-30207363D01*
X113773040Y-29968764D01*
X113695515Y-29781600D01*
X115240000Y-29781600D01*
X115240000Y-30181600D01*
X115285624Y-30390833D01*
X115371191Y-30587145D01*
X115493413Y-30762991D01*
X115647592Y-30911614D01*
X115827803Y-31027302D01*
X116030999Y-31099008D01*
X116198000Y-30972102D01*
X116198000Y-29781600D01*
X116452000Y-29781600D01*
X116452000Y-30972102D01*
X116619001Y-31099008D01*
X116822197Y-31027302D01*
X117002408Y-30911614D01*
X117156587Y-30762991D01*
X117278809Y-30587145D01*
X117364376Y-30390833D01*
X117410000Y-30181600D01*
X117410000Y-29781600D01*
X116452000Y-29781600D01*
X116198000Y-29781600D01*
X115240000Y-29781600D01*
X113695515Y-29781600D01*
X113679943Y-29744008D01*
X113544787Y-29541733D01*
X113490521Y-29487467D01*
X113658848Y-29451852D01*
X113759737Y-29230484D01*
X113783965Y-29127600D01*
X115240000Y-29127600D01*
X115240000Y-29527600D01*
X116198000Y-29527600D01*
X116198000Y-28337098D01*
X116452000Y-28337098D01*
X116452000Y-29527600D01*
X117410000Y-29527600D01*
X117410000Y-29127600D01*
X117364376Y-28918367D01*
X117278809Y-28722055D01*
X117156587Y-28546209D01*
X117002408Y-28397586D01*
X116822197Y-28281898D01*
X116619001Y-28210192D01*
X116452000Y-28337098D01*
X116198000Y-28337098D01*
X116030999Y-28210192D01*
X115827803Y-28281898D01*
X115647592Y-28397586D01*
X115493413Y-28546209D01*
X115371191Y-28722055D01*
X115285624Y-28918367D01*
X115240000Y-29127600D01*
X113783965Y-29127600D01*
X113815500Y-28993687D01*
X113823995Y-28750562D01*
X113784895Y-28510451D01*
X113699702Y-28282582D01*
X113658848Y-28206148D01*
X113435264Y-28158841D01*
X112765105Y-28829000D01*
X112779248Y-28843143D01*
X112599643Y-29022748D01*
X112585500Y-29008605D01*
X112571358Y-29022748D01*
X112391753Y-28843143D01*
X112405895Y-28829000D01*
X111735736Y-28158841D01*
X111512152Y-28206148D01*
X111411263Y-28427516D01*
X111355500Y-28664313D01*
X111347005Y-28907438D01*
X109763874Y-28907438D01*
X109771217Y-28758488D01*
X109729787Y-28478870D01*
X109634603Y-28212708D01*
X109567671Y-28087486D01*
X109323702Y-28015903D01*
X108510605Y-28829000D01*
X108151395Y-28829000D01*
X107338298Y-28015903D01*
X107094329Y-28087486D01*
X107080676Y-28116341D01*
X106945637Y-27914241D01*
X106867694Y-27836298D01*
X107517903Y-27836298D01*
X108331000Y-28649395D01*
X109001159Y-27979236D01*
X111915341Y-27979236D01*
X112585500Y-28649395D01*
X113255659Y-27979236D01*
X113208352Y-27755652D01*
X112986984Y-27654763D01*
X112750187Y-27599000D01*
X112507062Y-27590505D01*
X112266951Y-27629605D01*
X112039082Y-27714798D01*
X111962648Y-27755652D01*
X111915341Y-27979236D01*
X109001159Y-27979236D01*
X109144097Y-27836298D01*
X109072514Y-27592329D01*
X108817004Y-27471429D01*
X108542816Y-27402700D01*
X108260488Y-27388783D01*
X107980870Y-27430213D01*
X107714708Y-27525397D01*
X107589486Y-27592329D01*
X107517903Y-27836298D01*
X106867694Y-27836298D01*
X106745759Y-27714363D01*
X106510727Y-27557320D01*
X106249574Y-27449147D01*
X105972335Y-27394000D01*
X105689665Y-27394000D01*
X105412426Y-27449147D01*
X105151273Y-27557320D01*
X104916241Y-27714363D01*
X104716363Y-27914241D01*
X104559320Y-28149273D01*
X104451147Y-28410426D01*
X104396000Y-28687665D01*
X102360000Y-28687665D01*
X102304853Y-28410426D01*
X102196680Y-28149273D01*
X102039637Y-27914241D01*
X101839759Y-27714363D01*
X101604727Y-27557320D01*
X101343574Y-27449147D01*
X101066335Y-27394000D01*
X100783665Y-27394000D01*
X100506426Y-27449147D01*
X100245273Y-27557320D01*
X100010241Y-27714363D01*
X99810363Y-27914241D01*
X99676308Y-28114869D01*
X99661671Y-28087486D01*
X99417702Y-28015903D01*
X98604605Y-28829000D01*
X98245395Y-28829000D01*
X97432298Y-28015903D01*
X97188329Y-28087486D01*
X97067429Y-28342996D01*
X96998700Y-28617184D01*
X96984783Y-28899512D01*
X95051333Y-28899512D01*
X95026932Y-28776842D01*
X94914990Y-28506589D01*
X94752475Y-28263368D01*
X94545632Y-28056525D01*
X94302411Y-27894010D01*
X94163082Y-27836298D01*
X97611903Y-27836298D01*
X98425000Y-28649395D01*
X99238097Y-27836298D01*
X99166514Y-27592329D01*
X98911004Y-27471429D01*
X98636816Y-27402700D01*
X98354488Y-27388783D01*
X98074870Y-27430213D01*
X97808708Y-27525397D01*
X97683486Y-27592329D01*
X97611903Y-27836298D01*
X94163082Y-27836298D01*
X94032158Y-27782068D01*
X93745260Y-27725000D01*
X93452740Y-27725000D01*
X93165842Y-27782068D01*
X92895589Y-27894010D01*
X92652368Y-28056525D01*
X92445525Y-28263368D01*
X92327900Y-28439406D01*
X92156588Y-28209731D01*
X91940355Y-28014822D01*
X91690252Y-27865843D01*
X91415891Y-27768519D01*
X91186000Y-27889186D01*
X91186000Y-29083000D01*
X91206000Y-29083000D01*
X91206000Y-29337000D01*
X91186000Y-29337000D01*
X91186000Y-29357000D01*
X90932000Y-29357000D01*
X90932000Y-29337000D01*
X89738845Y-29337000D01*
X89617524Y-29566890D01*
X89662175Y-29714099D01*
X89787359Y-29976920D01*
X89961412Y-30210269D01*
X90177645Y-30405178D01*
X90294534Y-30474805D01*
X90112368Y-30596525D01*
X89905525Y-30803368D01*
X89743010Y-31046589D01*
X89631068Y-31316842D01*
X89574000Y-31603740D01*
X89574000Y-31896260D01*
X89631068Y-32183158D01*
X89743010Y-32453411D01*
X89905525Y-32696632D01*
X90112368Y-32903475D01*
X90286760Y-33020000D01*
X90112368Y-33136525D01*
X89905525Y-33343368D01*
X89743010Y-33586589D01*
X89631068Y-33856842D01*
X89574000Y-34143740D01*
X89574000Y-34436260D01*
X89631068Y-34723158D01*
X89743010Y-34993411D01*
X89905525Y-35236632D01*
X90112368Y-35443475D01*
X90355589Y-35605990D01*
X90625842Y-35717932D01*
X90912740Y-35775000D01*
X91205260Y-35775000D01*
X91218981Y-35772271D01*
X92252775Y-36806065D01*
X92282057Y-36841745D01*
X92424429Y-36958587D01*
X92586861Y-37045408D01*
X92693927Y-37077886D01*
X92763108Y-37098872D01*
X92946400Y-37116925D01*
X92992332Y-37112401D01*
X93763253Y-37112401D01*
X93573241Y-37239363D01*
X93373363Y-37439241D01*
X93218000Y-37671759D01*
X93062637Y-37439241D01*
X92862759Y-37239363D01*
X92627727Y-37082320D01*
X92366574Y-36974147D01*
X92089335Y-36919000D01*
X91806665Y-36919000D01*
X91529426Y-36974147D01*
X91268273Y-37082320D01*
X91033241Y-37239363D01*
X90833363Y-37439241D01*
X90678000Y-37671759D01*
X90522637Y-37439241D01*
X90322759Y-37239363D01*
X90087727Y-37082320D01*
X89826574Y-36974147D01*
X89549335Y-36919000D01*
X89266665Y-36919000D01*
X88989426Y-36974147D01*
X88728273Y-37082320D01*
X88493241Y-37239363D01*
X88293363Y-37439241D01*
X88136320Y-37674273D01*
X88028147Y-37935426D01*
X87973000Y-38212665D01*
X87973000Y-38495335D01*
X88003446Y-38648397D01*
X86522185Y-40129658D01*
X86492237Y-40154236D01*
X86467659Y-40184184D01*
X86467655Y-40184188D01*
X86448934Y-40207000D01*
X86394139Y-40273767D01*
X86380392Y-40299486D01*
X86321246Y-40410141D01*
X86276359Y-40558114D01*
X86261203Y-40712000D01*
X86265001Y-40750562D01*
X86265000Y-41738661D01*
X86183396Y-41860790D01*
X86109680Y-42038757D01*
X86072100Y-42227685D01*
X86072100Y-42420315D01*
X86109680Y-42609243D01*
X86183396Y-42787210D01*
X86290415Y-42947375D01*
X86426625Y-43083585D01*
X86586790Y-43190604D01*
X86764757Y-43264320D01*
X86953685Y-43301900D01*
X87146315Y-43301900D01*
X87335243Y-43264320D01*
X87513210Y-43190604D01*
X87673375Y-43083585D01*
X87809585Y-42947375D01*
X87916604Y-42787210D01*
X87990320Y-42609243D01*
X88027900Y-42420315D01*
X88027900Y-42227685D01*
X87990320Y-42038757D01*
X87916604Y-41860790D01*
X87835000Y-41738661D01*
X87835000Y-41037157D01*
X89113603Y-39758554D01*
X89266665Y-39789000D01*
X89549335Y-39789000D01*
X89826574Y-39733853D01*
X90087727Y-39625680D01*
X90322759Y-39468637D01*
X90522637Y-39268759D01*
X90678000Y-39036241D01*
X90833363Y-39268759D01*
X91033241Y-39468637D01*
X91268273Y-39625680D01*
X91529426Y-39733853D01*
X91806665Y-39789000D01*
X92089335Y-39789000D01*
X92366574Y-39733853D01*
X92627727Y-39625680D01*
X92862759Y-39468637D01*
X93062637Y-39268759D01*
X93218000Y-39036241D01*
X93373363Y-39268759D01*
X93573241Y-39468637D01*
X93808273Y-39625680D01*
X94069426Y-39733853D01*
X94346665Y-39789000D01*
X94629335Y-39789000D01*
X94906574Y-39733853D01*
X95167727Y-39625680D01*
X95402759Y-39468637D01*
X95602637Y-39268759D01*
X95758000Y-39036241D01*
X95913363Y-39268759D01*
X96113241Y-39468637D01*
X96348273Y-39625680D01*
X96609426Y-39733853D01*
X96886665Y-39789000D01*
X97169335Y-39789000D01*
X97322397Y-39758554D01*
X99685560Y-42121718D01*
X99710138Y-42151666D01*
X99740086Y-42176244D01*
X99740089Y-42176247D01*
X99766158Y-42197641D01*
X99829669Y-42249764D01*
X99966042Y-42322656D01*
X100079574Y-42357096D01*
X100114014Y-42367543D01*
X100128392Y-42368959D01*
X100229341Y-42378902D01*
X100229348Y-42378902D01*
X100267901Y-42382699D01*
X100306454Y-42378902D01*
X127054941Y-42378902D01*
X127954806Y-43278767D01*
X127826625Y-43364415D01*
X127690415Y-43500625D01*
X127583396Y-43660790D01*
X127509680Y-43838757D01*
X127481025Y-43982818D01*
X126274843Y-45189000D01*
X123629339Y-45189000D01*
X123542637Y-45059241D01*
X123342759Y-44859363D01*
X123107727Y-44702320D01*
X122846574Y-44594147D01*
X122569335Y-44539000D01*
X122286665Y-44539000D01*
X122009426Y-44594147D01*
X121748273Y-44702320D01*
X121513241Y-44859363D01*
X121313363Y-45059241D01*
X121158000Y-45291759D01*
X121002637Y-45059241D01*
X120802759Y-44859363D01*
X120567727Y-44702320D01*
X120306574Y-44594147D01*
X120029335Y-44539000D01*
X119746665Y-44539000D01*
X119469426Y-44594147D01*
X119208273Y-44702320D01*
X118973241Y-44859363D01*
X118773363Y-45059241D01*
X118618000Y-45291759D01*
X118462637Y-45059241D01*
X118262759Y-44859363D01*
X118027727Y-44702320D01*
X117766574Y-44594147D01*
X117489335Y-44539000D01*
X117206665Y-44539000D01*
X116929426Y-44594147D01*
X116668273Y-44702320D01*
X116433241Y-44859363D01*
X116233363Y-45059241D01*
X116078000Y-45291759D01*
X115922637Y-45059241D01*
X115722759Y-44859363D01*
X115487727Y-44702320D01*
X115226574Y-44594147D01*
X114949335Y-44539000D01*
X114666665Y-44539000D01*
X114389426Y-44594147D01*
X114128273Y-44702320D01*
X113893241Y-44859363D01*
X113693363Y-45059241D01*
X113538000Y-45291759D01*
X113382637Y-45059241D01*
X113182759Y-44859363D01*
X112947727Y-44702320D01*
X112686574Y-44594147D01*
X112409335Y-44539000D01*
X112126665Y-44539000D01*
X111849426Y-44594147D01*
X111588273Y-44702320D01*
X111353241Y-44859363D01*
X111153363Y-45059241D01*
X110998000Y-45291759D01*
X110842637Y-45059241D01*
X110642759Y-44859363D01*
X110407727Y-44702320D01*
X110146574Y-44594147D01*
X109869335Y-44539000D01*
X109586665Y-44539000D01*
X109309426Y-44594147D01*
X109048273Y-44702320D01*
X108813241Y-44859363D01*
X108613363Y-45059241D01*
X108456320Y-45294273D01*
X108451933Y-45304865D01*
X108340385Y-45118869D01*
X108151414Y-44910481D01*
X107925420Y-44742963D01*
X107671087Y-44622754D01*
X107537039Y-44582096D01*
X107315000Y-44704085D01*
X107315000Y-45847000D01*
X107335000Y-45847000D01*
X107335000Y-46101000D01*
X107315000Y-46101000D01*
X107315000Y-47243915D01*
X107537039Y-47365904D01*
X107671087Y-47325246D01*
X107925420Y-47205037D01*
X108151414Y-47037519D01*
X108340385Y-46829131D01*
X108451933Y-46643135D01*
X108456320Y-46653727D01*
X108613363Y-46888759D01*
X108813241Y-47088637D01*
X109048273Y-47245680D01*
X109309426Y-47353853D01*
X109586665Y-47409000D01*
X109869335Y-47409000D01*
X110022397Y-47378554D01*
X112865001Y-50221158D01*
X112865000Y-59947207D01*
X112828169Y-59962463D01*
X112544002Y-60152337D01*
X112302337Y-60394002D01*
X112112463Y-60678169D01*
X111981675Y-60993919D01*
X111915000Y-61329117D01*
X111915000Y-61670883D01*
X111981675Y-62006081D01*
X112112463Y-62321831D01*
X112302337Y-62605998D01*
X112544002Y-62847663D01*
X112828169Y-63037537D01*
X113143919Y-63168325D01*
X113479117Y-63235000D01*
X113820883Y-63235000D01*
X114156081Y-63168325D01*
X114471831Y-63037537D01*
X114755998Y-62847663D01*
X114997663Y-62605998D01*
X115187537Y-62321831D01*
X115202793Y-62285000D01*
X117709247Y-62285000D01*
X117747800Y-62288797D01*
X117786353Y-62285000D01*
X117786361Y-62285000D01*
X117901687Y-62273641D01*
X118049660Y-62228754D01*
X118186033Y-62155862D01*
X118305564Y-62057764D01*
X118330147Y-62027810D01*
X120072085Y-60285872D01*
X121450000Y-60285872D01*
X121623254Y-60268808D01*
X121789850Y-60218272D01*
X121943386Y-60136205D01*
X122077962Y-60025762D01*
X122188405Y-59891186D01*
X122270472Y-59737650D01*
X122321008Y-59571054D01*
X122338072Y-59397800D01*
X122338072Y-57797800D01*
X122321008Y-57624546D01*
X122270472Y-57457950D01*
X122188405Y-57304414D01*
X122077962Y-57169838D01*
X121943386Y-57059395D01*
X121789850Y-56977328D01*
X121623254Y-56926792D01*
X121450000Y-56909728D01*
X119850000Y-56909728D01*
X119676746Y-56926792D01*
X119510150Y-56977328D01*
X119356614Y-57059395D01*
X119222038Y-57169838D01*
X119111595Y-57304414D01*
X119029528Y-57457950D01*
X118978992Y-57624546D01*
X118961928Y-57797800D01*
X118961928Y-59175715D01*
X117422643Y-60715000D01*
X115202793Y-60715000D01*
X115187537Y-60678169D01*
X114997663Y-60394002D01*
X114755998Y-60152337D01*
X114471831Y-59962463D01*
X114435000Y-59947207D01*
X114435000Y-49934556D01*
X114438797Y-49896000D01*
X114435000Y-49857444D01*
X114435000Y-49857439D01*
X114428867Y-49795172D01*
X114423642Y-49742113D01*
X114378754Y-49594140D01*
X114360966Y-49560861D01*
X114305862Y-49457767D01*
X114207764Y-49338236D01*
X114177810Y-49313653D01*
X112273157Y-47409000D01*
X112409335Y-47409000D01*
X112562397Y-47378554D01*
X121088063Y-55904220D01*
X121112646Y-55934174D01*
X121232177Y-56032272D01*
X121368550Y-56105164D01*
X121516523Y-56150052D01*
X121591436Y-56157430D01*
X121631849Y-56161410D01*
X121631854Y-56161410D01*
X121670410Y-56165207D01*
X121708966Y-56161410D01*
X126251253Y-56161410D01*
X131046931Y-60957089D01*
X131031675Y-60993919D01*
X130965000Y-61329117D01*
X130965000Y-61670883D01*
X131031675Y-62006081D01*
X131162463Y-62321831D01*
X131352337Y-62605998D01*
X131594002Y-62847663D01*
X131878169Y-63037537D01*
X132193919Y-63168325D01*
X132529117Y-63235000D01*
X132870883Y-63235000D01*
X133206081Y-63168325D01*
X133521831Y-63037537D01*
X133805998Y-62847663D01*
X134047663Y-62605998D01*
X134237537Y-62321831D01*
X134252793Y-62285000D01*
X136759247Y-62285000D01*
X136797800Y-62288797D01*
X136836353Y-62285000D01*
X136836361Y-62285000D01*
X136951687Y-62273641D01*
X137099660Y-62228754D01*
X137236033Y-62155862D01*
X137355564Y-62057764D01*
X137380147Y-62027810D01*
X139122085Y-60285872D01*
X140500000Y-60285872D01*
X140673254Y-60268808D01*
X140839850Y-60218272D01*
X140993386Y-60136205D01*
X141127962Y-60025762D01*
X141238405Y-59891186D01*
X141320472Y-59737650D01*
X141371008Y-59571054D01*
X141388072Y-59397800D01*
X141388072Y-57797800D01*
X141371008Y-57624546D01*
X141320472Y-57457950D01*
X141238405Y-57304414D01*
X141127962Y-57169838D01*
X140993386Y-57059395D01*
X140839850Y-56977328D01*
X140673254Y-56926792D01*
X140500000Y-56909728D01*
X138900000Y-56909728D01*
X138726746Y-56926792D01*
X138560150Y-56977328D01*
X138406614Y-57059395D01*
X138272038Y-57169838D01*
X138161595Y-57304414D01*
X138079528Y-57457950D01*
X138028992Y-57624546D01*
X138011928Y-57797800D01*
X138011928Y-59175715D01*
X136472643Y-60715000D01*
X134252793Y-60715000D01*
X134237537Y-60678169D01*
X134047663Y-60394002D01*
X133805998Y-60152337D01*
X133521831Y-59962463D01*
X133206081Y-59831675D01*
X132870883Y-59765000D01*
X132529117Y-59765000D01*
X132193919Y-59831675D01*
X132157089Y-59846931D01*
X128019157Y-55709000D01*
X144848843Y-55709000D01*
X150096931Y-60957089D01*
X150081675Y-60993919D01*
X150015000Y-61329117D01*
X150015000Y-61670883D01*
X150081675Y-62006081D01*
X150212463Y-62321831D01*
X150402337Y-62605998D01*
X150644002Y-62847663D01*
X150928169Y-63037537D01*
X150965000Y-63052793D01*
X150965000Y-64608547D01*
X150889715Y-64533262D01*
X150458141Y-64244893D01*
X149978601Y-64046261D01*
X149469525Y-63945000D01*
X148950475Y-63945000D01*
X148441399Y-64046261D01*
X147961859Y-64244893D01*
X147530285Y-64533262D01*
X147163262Y-64900285D01*
X146874893Y-65331859D01*
X146676261Y-65811399D01*
X146575000Y-66320475D01*
X146575000Y-66839525D01*
X146676261Y-67348601D01*
X146874893Y-67828141D01*
X147163262Y-68259715D01*
X147530285Y-68626738D01*
X147961859Y-68915107D01*
X148441399Y-69113739D01*
X148950475Y-69215000D01*
X149469525Y-69215000D01*
X149978601Y-69113739D01*
X150458141Y-68915107D01*
X150889715Y-68626738D01*
X150965001Y-68551452D01*
X150965001Y-70939437D01*
X150961203Y-70978000D01*
X150976359Y-71131886D01*
X151021246Y-71279859D01*
X151021247Y-71279860D01*
X151094139Y-71416233D01*
X151134690Y-71465644D01*
X151167655Y-71505812D01*
X151167659Y-71505816D01*
X151192237Y-71535764D01*
X151222185Y-71560342D01*
X155258528Y-75596686D01*
X155258528Y-76974600D01*
X155267333Y-77064000D01*
X142166667Y-77064000D01*
X142175472Y-76974600D01*
X142175472Y-75374600D01*
X142158408Y-75201346D01*
X142107872Y-75034750D01*
X142025805Y-74881214D01*
X141915362Y-74746638D01*
X141780786Y-74636195D01*
X141627250Y-74554128D01*
X141460654Y-74503592D01*
X141287400Y-74486528D01*
X139687400Y-74486528D01*
X139514146Y-74503592D01*
X139347550Y-74554128D01*
X139194014Y-74636195D01*
X139059438Y-74746638D01*
X138948995Y-74881214D01*
X138866928Y-75034750D01*
X138816392Y-75201346D01*
X138799328Y-75374600D01*
X138799328Y-76974600D01*
X138808133Y-77064000D01*
X138559867Y-77064000D01*
X138568672Y-76974600D01*
X138568672Y-75374600D01*
X138551608Y-75201346D01*
X138501072Y-75034750D01*
X138419005Y-74881214D01*
X138308562Y-74746638D01*
X138173986Y-74636195D01*
X138020450Y-74554128D01*
X137853854Y-74503592D01*
X137680600Y-74486528D01*
X136080600Y-74486528D01*
X135907346Y-74503592D01*
X135740750Y-74554128D01*
X135587214Y-74636195D01*
X135452638Y-74746638D01*
X135342195Y-74881214D01*
X135260128Y-75034750D01*
X135209592Y-75201346D01*
X135192528Y-75374600D01*
X135192528Y-76974600D01*
X135201333Y-77064000D01*
X134953067Y-77064000D01*
X134961872Y-76974600D01*
X134961872Y-75374600D01*
X134944808Y-75201346D01*
X134894272Y-75034750D01*
X134812205Y-74881214D01*
X134701762Y-74746638D01*
X134567186Y-74636195D01*
X134413650Y-74554128D01*
X134247054Y-74503592D01*
X134073800Y-74486528D01*
X132473800Y-74486528D01*
X132300546Y-74503592D01*
X132133950Y-74554128D01*
X131980414Y-74636195D01*
X131845838Y-74746638D01*
X131735395Y-74881214D01*
X131653328Y-75034750D01*
X131602792Y-75201346D01*
X131585728Y-75374600D01*
X131585728Y-76974600D01*
X131594533Y-77064000D01*
X131346267Y-77064000D01*
X131355072Y-76974600D01*
X131355072Y-75374600D01*
X131338008Y-75201346D01*
X131287472Y-75034750D01*
X131205405Y-74881214D01*
X131094962Y-74746638D01*
X130960386Y-74636195D01*
X130806850Y-74554128D01*
X130640254Y-74503592D01*
X130467000Y-74486528D01*
X128867000Y-74486528D01*
X128693746Y-74503592D01*
X128527150Y-74554128D01*
X128373614Y-74636195D01*
X128239038Y-74746638D01*
X128128595Y-74881214D01*
X128046528Y-75034750D01*
X127995992Y-75201346D01*
X127978928Y-75374600D01*
X127978928Y-76974600D01*
X127987733Y-77064000D01*
X127739467Y-77064000D01*
X127748272Y-76974600D01*
X127748272Y-75374600D01*
X127731208Y-75201346D01*
X127680672Y-75034750D01*
X127598605Y-74881214D01*
X127488162Y-74746638D01*
X127353586Y-74636195D01*
X127200050Y-74554128D01*
X127033454Y-74503592D01*
X126860200Y-74486528D01*
X125260200Y-74486528D01*
X125086946Y-74503592D01*
X124920350Y-74554128D01*
X124766814Y-74636195D01*
X124632238Y-74746638D01*
X124521795Y-74881214D01*
X124439728Y-75034750D01*
X124389192Y-75201346D01*
X124372128Y-75374600D01*
X124372128Y-76974600D01*
X124380933Y-77064000D01*
X124132667Y-77064000D01*
X124141472Y-76974600D01*
X124141472Y-75374600D01*
X124124408Y-75201346D01*
X124073872Y-75034750D01*
X123991805Y-74881214D01*
X123881362Y-74746638D01*
X123746786Y-74636195D01*
X123593250Y-74554128D01*
X123426654Y-74503592D01*
X123253400Y-74486528D01*
X121653400Y-74486528D01*
X121480146Y-74503592D01*
X121313550Y-74554128D01*
X121160014Y-74636195D01*
X121025438Y-74746638D01*
X120914995Y-74881214D01*
X120832928Y-75034750D01*
X120782392Y-75201346D01*
X120765328Y-75374600D01*
X120765328Y-76974600D01*
X120774133Y-77064000D01*
X120525867Y-77064000D01*
X120534672Y-76974600D01*
X120534672Y-75374600D01*
X120517608Y-75201346D01*
X120467072Y-75034750D01*
X120385005Y-74881214D01*
X120274562Y-74746638D01*
X120139986Y-74636195D01*
X119986450Y-74554128D01*
X119819854Y-74503592D01*
X119646600Y-74486528D01*
X118046600Y-74486528D01*
X117873346Y-74503592D01*
X117706750Y-74554128D01*
X117553214Y-74636195D01*
X117418638Y-74746638D01*
X117308195Y-74881214D01*
X117226128Y-75034750D01*
X117175592Y-75201346D01*
X117158528Y-75374600D01*
X117158528Y-76974600D01*
X117167333Y-77064000D01*
X116919067Y-77064000D01*
X116927872Y-76974600D01*
X116927872Y-75374600D01*
X116910808Y-75201346D01*
X116860272Y-75034750D01*
X116778205Y-74881214D01*
X116667762Y-74746638D01*
X116533186Y-74636195D01*
X116379650Y-74554128D01*
X116213054Y-74503592D01*
X116039800Y-74486528D01*
X114439800Y-74486528D01*
X114266546Y-74503592D01*
X114099950Y-74554128D01*
X113946414Y-74636195D01*
X113811838Y-74746638D01*
X113701395Y-74881214D01*
X113619328Y-75034750D01*
X113568792Y-75201346D01*
X113551728Y-75374600D01*
X113551728Y-76974600D01*
X113560533Y-77064000D01*
X113312267Y-77064000D01*
X113321072Y-76974600D01*
X113321072Y-75374600D01*
X113304008Y-75201346D01*
X113253472Y-75034750D01*
X113171405Y-74881214D01*
X113060962Y-74746638D01*
X112926386Y-74636195D01*
X112772850Y-74554128D01*
X112606254Y-74503592D01*
X112433000Y-74486528D01*
X110833000Y-74486528D01*
X110659746Y-74503592D01*
X110493150Y-74554128D01*
X110339614Y-74636195D01*
X110205038Y-74746638D01*
X110094595Y-74881214D01*
X110012528Y-75034750D01*
X109961992Y-75201346D01*
X109944928Y-75374600D01*
X109944928Y-76974600D01*
X109953733Y-77064000D01*
X109705467Y-77064000D01*
X109714272Y-76974600D01*
X109714272Y-75374600D01*
X109697208Y-75201346D01*
X109646672Y-75034750D01*
X109564605Y-74881214D01*
X109454162Y-74746638D01*
X109319586Y-74636195D01*
X109166050Y-74554128D01*
X108999454Y-74503592D01*
X108826200Y-74486528D01*
X107226200Y-74486528D01*
X107052946Y-74503592D01*
X106886350Y-74554128D01*
X106732814Y-74636195D01*
X106598238Y-74746638D01*
X106487795Y-74881214D01*
X106405728Y-75034750D01*
X106355192Y-75201346D01*
X106338128Y-75374600D01*
X106338128Y-76974600D01*
X106346933Y-77064000D01*
X106098667Y-77064000D01*
X106107472Y-76974600D01*
X106107472Y-75374600D01*
X106090408Y-75201346D01*
X106039872Y-75034750D01*
X105957805Y-74881214D01*
X105847362Y-74746638D01*
X105712786Y-74636195D01*
X105559250Y-74554128D01*
X105392654Y-74503592D01*
X105219400Y-74486528D01*
X103619400Y-74486528D01*
X103446146Y-74503592D01*
X103279550Y-74554128D01*
X103126014Y-74636195D01*
X102991438Y-74746638D01*
X102880995Y-74881214D01*
X102798928Y-75034750D01*
X102748392Y-75201346D01*
X102731328Y-75374600D01*
X102731328Y-76974600D01*
X102740133Y-77064000D01*
X102491867Y-77064000D01*
X102500672Y-76974600D01*
X102500672Y-75374600D01*
X102483608Y-75201346D01*
X102433072Y-75034750D01*
X102351005Y-74881214D01*
X102240562Y-74746638D01*
X102105986Y-74636195D01*
X101952450Y-74554128D01*
X101785854Y-74503592D01*
X101612600Y-74486528D01*
X100012600Y-74486528D01*
X99839346Y-74503592D01*
X99672750Y-74554128D01*
X99519214Y-74636195D01*
X99384638Y-74746638D01*
X99274195Y-74881214D01*
X99192128Y-75034750D01*
X99141592Y-75201346D01*
X99124528Y-75374600D01*
X99124528Y-76974600D01*
X99133333Y-77064000D01*
X86032667Y-77064000D01*
X86041472Y-76974600D01*
X86041472Y-75374600D01*
X86024408Y-75201346D01*
X85973872Y-75034750D01*
X85891805Y-74881214D01*
X85781362Y-74746638D01*
X85646786Y-74636195D01*
X85493250Y-74554128D01*
X85326654Y-74503592D01*
X85153400Y-74486528D01*
X83553400Y-74486528D01*
X83380146Y-74503592D01*
X83213550Y-74554128D01*
X83210000Y-74556026D01*
X83210000Y-70526072D01*
X84620000Y-70526072D01*
X84744482Y-70513812D01*
X84864180Y-70477502D01*
X84974494Y-70418537D01*
X85071185Y-70339185D01*
X85150537Y-70242494D01*
X85209502Y-70132180D01*
X85245812Y-70012482D01*
X85258072Y-69888000D01*
X85258072Y-69873000D01*
X100161928Y-69873000D01*
X100161928Y-69913400D01*
X100174188Y-70037882D01*
X100210498Y-70157580D01*
X100269463Y-70267894D01*
X100348815Y-70364585D01*
X100445506Y-70443937D01*
X100555820Y-70502902D01*
X100675518Y-70539212D01*
X100800000Y-70551472D01*
X102400000Y-70551472D01*
X102524482Y-70539212D01*
X102644180Y-70502902D01*
X102754494Y-70443937D01*
X102851185Y-70364585D01*
X102930537Y-70267894D01*
X102989502Y-70157580D01*
X103025812Y-70037882D01*
X103038072Y-69913400D01*
X103038072Y-69898400D01*
X119186528Y-69898400D01*
X119186528Y-69913400D01*
X119198788Y-70037882D01*
X119235098Y-70157580D01*
X119294063Y-70267894D01*
X119373415Y-70364585D01*
X119470106Y-70443937D01*
X119580420Y-70502902D01*
X119700118Y-70539212D01*
X119824600Y-70551472D01*
X121424600Y-70551472D01*
X121549082Y-70539212D01*
X121668780Y-70502902D01*
X121779094Y-70443937D01*
X121875785Y-70364585D01*
X121955137Y-70267894D01*
X122014102Y-70157580D01*
X122050412Y-70037882D01*
X122062672Y-69913400D01*
X122062672Y-69898400D01*
X138261928Y-69898400D01*
X138261928Y-69913400D01*
X138274188Y-70037882D01*
X138310498Y-70157580D01*
X138369463Y-70267894D01*
X138448815Y-70364585D01*
X138545506Y-70443937D01*
X138655820Y-70502902D01*
X138775518Y-70539212D01*
X138900000Y-70551472D01*
X140500000Y-70551472D01*
X140624482Y-70539212D01*
X140744180Y-70502902D01*
X140854494Y-70443937D01*
X140951185Y-70364585D01*
X141030537Y-70267894D01*
X141089502Y-70157580D01*
X141125812Y-70037882D01*
X141138072Y-69913400D01*
X141138072Y-68313400D01*
X141125812Y-68188918D01*
X141089502Y-68069220D01*
X141030537Y-67958906D01*
X140951185Y-67862215D01*
X140854494Y-67782863D01*
X140744180Y-67723898D01*
X140624482Y-67687588D01*
X140500000Y-67675328D01*
X138900000Y-67675328D01*
X138775518Y-67687588D01*
X138655820Y-67723898D01*
X138545506Y-67782863D01*
X138448815Y-67862215D01*
X138369463Y-67958906D01*
X138310498Y-68069220D01*
X138274188Y-68188918D01*
X138261928Y-68313400D01*
X138261928Y-68328400D01*
X132138053Y-68328400D01*
X132206738Y-68259715D01*
X132495107Y-67828141D01*
X132693739Y-67348601D01*
X132795000Y-66839525D01*
X132795000Y-66433740D01*
X133755000Y-66433740D01*
X133755000Y-66726260D01*
X133812068Y-67013158D01*
X133924010Y-67283411D01*
X134086525Y-67526632D01*
X134293368Y-67733475D01*
X134536589Y-67895990D01*
X134806842Y-68007932D01*
X135093740Y-68065000D01*
X135386260Y-68065000D01*
X135673158Y-68007932D01*
X135943411Y-67895990D01*
X136186632Y-67733475D01*
X136393475Y-67526632D01*
X136555990Y-67283411D01*
X136667932Y-67013158D01*
X136725000Y-66726260D01*
X136725000Y-66433740D01*
X136667932Y-66146842D01*
X136555990Y-65876589D01*
X136393475Y-65633368D01*
X136186632Y-65426525D01*
X135943411Y-65264010D01*
X135673158Y-65152068D01*
X135386260Y-65095000D01*
X135093740Y-65095000D01*
X134806842Y-65152068D01*
X134536589Y-65264010D01*
X134293368Y-65426525D01*
X134086525Y-65633368D01*
X133924010Y-65876589D01*
X133812068Y-66146842D01*
X133755000Y-66433740D01*
X132795000Y-66433740D01*
X132795000Y-66320475D01*
X132693739Y-65811399D01*
X132495107Y-65331859D01*
X132206738Y-64900285D01*
X131839715Y-64533262D01*
X131408141Y-64244893D01*
X130928601Y-64046261D01*
X130419525Y-63945000D01*
X129900475Y-63945000D01*
X129391399Y-64046261D01*
X128911859Y-64244893D01*
X128480285Y-64533262D01*
X128113262Y-64900285D01*
X127824893Y-65331859D01*
X127626261Y-65811399D01*
X127525000Y-66320475D01*
X127525000Y-66839525D01*
X127626261Y-67348601D01*
X127824893Y-67828141D01*
X128113262Y-68259715D01*
X128181947Y-68328400D01*
X122062672Y-68328400D01*
X122062672Y-68313400D01*
X122050412Y-68188918D01*
X122014102Y-68069220D01*
X121955137Y-67958906D01*
X121875785Y-67862215D01*
X121779094Y-67782863D01*
X121668780Y-67723898D01*
X121549082Y-67687588D01*
X121424600Y-67675328D01*
X119824600Y-67675328D01*
X119700118Y-67687588D01*
X119580420Y-67723898D01*
X119470106Y-67782863D01*
X119373415Y-67862215D01*
X119294063Y-67958906D01*
X119235098Y-68069220D01*
X119198788Y-68188918D01*
X119186528Y-68313400D01*
X119186528Y-68328400D01*
X113088053Y-68328400D01*
X113156738Y-68259715D01*
X113445107Y-67828141D01*
X113643739Y-67348601D01*
X113745000Y-66839525D01*
X113745000Y-66433740D01*
X114705000Y-66433740D01*
X114705000Y-66726260D01*
X114762068Y-67013158D01*
X114874010Y-67283411D01*
X115036525Y-67526632D01*
X115243368Y-67733475D01*
X115486589Y-67895990D01*
X115756842Y-68007932D01*
X116043740Y-68065000D01*
X116336260Y-68065000D01*
X116623158Y-68007932D01*
X116893411Y-67895990D01*
X117136632Y-67733475D01*
X117343475Y-67526632D01*
X117505990Y-67283411D01*
X117617932Y-67013158D01*
X117675000Y-66726260D01*
X117675000Y-66433740D01*
X117617932Y-66146842D01*
X117505990Y-65876589D01*
X117343475Y-65633368D01*
X117136632Y-65426525D01*
X116893411Y-65264010D01*
X116623158Y-65152068D01*
X116336260Y-65095000D01*
X116043740Y-65095000D01*
X115756842Y-65152068D01*
X115486589Y-65264010D01*
X115243368Y-65426525D01*
X115036525Y-65633368D01*
X114874010Y-65876589D01*
X114762068Y-66146842D01*
X114705000Y-66433740D01*
X113745000Y-66433740D01*
X113745000Y-66320475D01*
X113643739Y-65811399D01*
X113445107Y-65331859D01*
X113156738Y-64900285D01*
X112789715Y-64533262D01*
X112358141Y-64244893D01*
X111878601Y-64046261D01*
X111369525Y-63945000D01*
X110850475Y-63945000D01*
X110341399Y-64046261D01*
X109861859Y-64244893D01*
X109430285Y-64533262D01*
X109063262Y-64900285D01*
X108774893Y-65331859D01*
X108576261Y-65811399D01*
X108475000Y-66320475D01*
X108475000Y-66839525D01*
X108576261Y-67348601D01*
X108774893Y-67828141D01*
X109063262Y-68259715D01*
X109131947Y-68328400D01*
X103038072Y-68328400D01*
X103038072Y-68313400D01*
X103025812Y-68188918D01*
X102989502Y-68069220D01*
X102930537Y-67958906D01*
X102851185Y-67862215D01*
X102754494Y-67782863D01*
X102644180Y-67723898D01*
X102524482Y-67687588D01*
X102400000Y-67675328D01*
X100800000Y-67675328D01*
X100675518Y-67687588D01*
X100555820Y-67723898D01*
X100445506Y-67782863D01*
X100348815Y-67862215D01*
X100269463Y-67958906D01*
X100210498Y-68069220D01*
X100174188Y-68188918D01*
X100162952Y-68303000D01*
X94063453Y-68303000D01*
X94106738Y-68259715D01*
X94395107Y-67828141D01*
X94593739Y-67348601D01*
X94695000Y-66839525D01*
X94695000Y-66433740D01*
X95655000Y-66433740D01*
X95655000Y-66726260D01*
X95712068Y-67013158D01*
X95824010Y-67283411D01*
X95986525Y-67526632D01*
X96193368Y-67733475D01*
X96436589Y-67895990D01*
X96706842Y-68007932D01*
X96993740Y-68065000D01*
X97286260Y-68065000D01*
X97573158Y-68007932D01*
X97843411Y-67895990D01*
X98086632Y-67733475D01*
X98293475Y-67526632D01*
X98455990Y-67283411D01*
X98567932Y-67013158D01*
X98625000Y-66726260D01*
X98625000Y-66433740D01*
X98567932Y-66146842D01*
X98455990Y-65876589D01*
X98293475Y-65633368D01*
X98086632Y-65426525D01*
X97843411Y-65264010D01*
X97573158Y-65152068D01*
X97286260Y-65095000D01*
X96993740Y-65095000D01*
X96706842Y-65152068D01*
X96436589Y-65264010D01*
X96193368Y-65426525D01*
X95986525Y-65633368D01*
X95824010Y-65876589D01*
X95712068Y-66146842D01*
X95655000Y-66433740D01*
X94695000Y-66433740D01*
X94695000Y-66320475D01*
X94593739Y-65811399D01*
X94395107Y-65331859D01*
X94106738Y-64900285D01*
X93739715Y-64533262D01*
X93308141Y-64244893D01*
X92828601Y-64046261D01*
X92319525Y-63945000D01*
X91800475Y-63945000D01*
X91291399Y-64046261D01*
X90811859Y-64244893D01*
X90380285Y-64533262D01*
X90013262Y-64900285D01*
X89724893Y-65331859D01*
X89526261Y-65811399D01*
X89425000Y-66320475D01*
X89425000Y-66839525D01*
X89526261Y-67348601D01*
X89724893Y-67828141D01*
X90013262Y-68259715D01*
X90056547Y-68303000D01*
X85258072Y-68303000D01*
X85258072Y-68288000D01*
X85245812Y-68163518D01*
X85209502Y-68043820D01*
X85150537Y-67933506D01*
X85071185Y-67836815D01*
X84974494Y-67757463D01*
X84864180Y-67698498D01*
X84744482Y-67662188D01*
X84620000Y-67649928D01*
X83210000Y-67649928D01*
X83210000Y-65308562D01*
X83401426Y-65387853D01*
X83678665Y-65443000D01*
X83961335Y-65443000D01*
X84238574Y-65387853D01*
X84499727Y-65279680D01*
X84734759Y-65122637D01*
X84934637Y-64922759D01*
X85021339Y-64793000D01*
X86683952Y-64793000D01*
X86712463Y-64861831D01*
X86868261Y-65095000D01*
X86833740Y-65095000D01*
X86546842Y-65152068D01*
X86276589Y-65264010D01*
X86033368Y-65426525D01*
X85826525Y-65633368D01*
X85664010Y-65876589D01*
X85552068Y-66146842D01*
X85495000Y-66433740D01*
X85495000Y-66726260D01*
X85552068Y-67013158D01*
X85664010Y-67283411D01*
X85826525Y-67526632D01*
X86033368Y-67733475D01*
X86276589Y-67895990D01*
X86546842Y-68007932D01*
X86833740Y-68065000D01*
X87126260Y-68065000D01*
X87413158Y-68007932D01*
X87683411Y-67895990D01*
X87926632Y-67733475D01*
X88133475Y-67526632D01*
X88295990Y-67283411D01*
X88407932Y-67013158D01*
X88465000Y-66726260D01*
X88465000Y-66433740D01*
X88407932Y-66146842D01*
X88295990Y-65876589D01*
X88228110Y-65775000D01*
X88420883Y-65775000D01*
X88756081Y-65708325D01*
X89071831Y-65577537D01*
X89355998Y-65387663D01*
X89597663Y-65145998D01*
X89787537Y-64861831D01*
X89918325Y-64546081D01*
X89985000Y-64210883D01*
X89985000Y-63892065D01*
X100165000Y-63892065D01*
X100165000Y-64174735D01*
X100220147Y-64451974D01*
X100328320Y-64713127D01*
X100485363Y-64948159D01*
X100685241Y-65148037D01*
X100920273Y-65305080D01*
X101181426Y-65413253D01*
X101458665Y-65468400D01*
X101741335Y-65468400D01*
X102018574Y-65413253D01*
X102279727Y-65305080D01*
X102514759Y-65148037D01*
X102714637Y-64948159D01*
X102801339Y-64818400D01*
X105744473Y-64818400D01*
X105762463Y-64861831D01*
X105918261Y-65095000D01*
X105883740Y-65095000D01*
X105596842Y-65152068D01*
X105326589Y-65264010D01*
X105083368Y-65426525D01*
X104876525Y-65633368D01*
X104714010Y-65876589D01*
X104602068Y-66146842D01*
X104545000Y-66433740D01*
X104545000Y-66726260D01*
X104602068Y-67013158D01*
X104714010Y-67283411D01*
X104876525Y-67526632D01*
X105083368Y-67733475D01*
X105326589Y-67895990D01*
X105596842Y-68007932D01*
X105883740Y-68065000D01*
X106176260Y-68065000D01*
X106463158Y-68007932D01*
X106733411Y-67895990D01*
X106976632Y-67733475D01*
X107183475Y-67526632D01*
X107345990Y-67283411D01*
X107457932Y-67013158D01*
X107515000Y-66726260D01*
X107515000Y-66433740D01*
X107457932Y-66146842D01*
X107345990Y-65876589D01*
X107278110Y-65775000D01*
X107470883Y-65775000D01*
X107806081Y-65708325D01*
X108121831Y-65577537D01*
X108405998Y-65387663D01*
X108647663Y-65145998D01*
X108837537Y-64861831D01*
X108968325Y-64546081D01*
X109035000Y-64210883D01*
X109035000Y-63892065D01*
X119189600Y-63892065D01*
X119189600Y-64174735D01*
X119244747Y-64451974D01*
X119352920Y-64713127D01*
X119509963Y-64948159D01*
X119709841Y-65148037D01*
X119944873Y-65305080D01*
X120206026Y-65413253D01*
X120483265Y-65468400D01*
X120765935Y-65468400D01*
X121043174Y-65413253D01*
X121304327Y-65305080D01*
X121539359Y-65148037D01*
X121739237Y-64948159D01*
X121825939Y-64818400D01*
X124794473Y-64818400D01*
X124812463Y-64861831D01*
X124968261Y-65095000D01*
X124933740Y-65095000D01*
X124646842Y-65152068D01*
X124376589Y-65264010D01*
X124133368Y-65426525D01*
X123926525Y-65633368D01*
X123764010Y-65876589D01*
X123652068Y-66146842D01*
X123595000Y-66433740D01*
X123595000Y-66726260D01*
X123652068Y-67013158D01*
X123764010Y-67283411D01*
X123926525Y-67526632D01*
X124133368Y-67733475D01*
X124376589Y-67895990D01*
X124646842Y-68007932D01*
X124933740Y-68065000D01*
X125226260Y-68065000D01*
X125513158Y-68007932D01*
X125783411Y-67895990D01*
X126026632Y-67733475D01*
X126233475Y-67526632D01*
X126395990Y-67283411D01*
X126507932Y-67013158D01*
X126565000Y-66726260D01*
X126565000Y-66433740D01*
X126507932Y-66146842D01*
X126395990Y-65876589D01*
X126328110Y-65775000D01*
X126520883Y-65775000D01*
X126856081Y-65708325D01*
X127171831Y-65577537D01*
X127455998Y-65387663D01*
X127697663Y-65145998D01*
X127887537Y-64861831D01*
X128018325Y-64546081D01*
X128085000Y-64210883D01*
X128085000Y-63892065D01*
X138265000Y-63892065D01*
X138265000Y-64174735D01*
X138320147Y-64451974D01*
X138428320Y-64713127D01*
X138585363Y-64948159D01*
X138785241Y-65148037D01*
X139020273Y-65305080D01*
X139281426Y-65413253D01*
X139558665Y-65468400D01*
X139841335Y-65468400D01*
X140118574Y-65413253D01*
X140379727Y-65305080D01*
X140614759Y-65148037D01*
X140814637Y-64948159D01*
X140901339Y-64818400D01*
X143844473Y-64818400D01*
X143862463Y-64861831D01*
X144018261Y-65095000D01*
X143983740Y-65095000D01*
X143696842Y-65152068D01*
X143426589Y-65264010D01*
X143183368Y-65426525D01*
X142976525Y-65633368D01*
X142814010Y-65876589D01*
X142702068Y-66146842D01*
X142645000Y-66433740D01*
X142645000Y-66726260D01*
X142702068Y-67013158D01*
X142814010Y-67283411D01*
X142976525Y-67526632D01*
X143183368Y-67733475D01*
X143426589Y-67895990D01*
X143696842Y-68007932D01*
X143983740Y-68065000D01*
X144276260Y-68065000D01*
X144563158Y-68007932D01*
X144833411Y-67895990D01*
X145076632Y-67733475D01*
X145283475Y-67526632D01*
X145445990Y-67283411D01*
X145557932Y-67013158D01*
X145615000Y-66726260D01*
X145615000Y-66433740D01*
X145557932Y-66146842D01*
X145445990Y-65876589D01*
X145378110Y-65775000D01*
X145570883Y-65775000D01*
X145906081Y-65708325D01*
X146221831Y-65577537D01*
X146505998Y-65387663D01*
X146747663Y-65145998D01*
X146937537Y-64861831D01*
X147068325Y-64546081D01*
X147135000Y-64210883D01*
X147135000Y-63869117D01*
X147068325Y-63533919D01*
X146937537Y-63218169D01*
X146747663Y-62934002D01*
X146505998Y-62692337D01*
X146221831Y-62502463D01*
X145906081Y-62371675D01*
X145570883Y-62305000D01*
X145229117Y-62305000D01*
X144893919Y-62371675D01*
X144578169Y-62502463D01*
X144294002Y-62692337D01*
X144052337Y-62934002D01*
X143862463Y-63218169D01*
X143849941Y-63248400D01*
X140901339Y-63248400D01*
X140814637Y-63118641D01*
X140614759Y-62918763D01*
X140379727Y-62761720D01*
X140118574Y-62653547D01*
X139841335Y-62598400D01*
X139558665Y-62598400D01*
X139281426Y-62653547D01*
X139020273Y-62761720D01*
X138785241Y-62918763D01*
X138585363Y-63118641D01*
X138428320Y-63353673D01*
X138320147Y-63614826D01*
X138265000Y-63892065D01*
X128085000Y-63892065D01*
X128085000Y-63869117D01*
X128018325Y-63533919D01*
X127887537Y-63218169D01*
X127697663Y-62934002D01*
X127455998Y-62692337D01*
X127171831Y-62502463D01*
X126856081Y-62371675D01*
X126520883Y-62305000D01*
X126179117Y-62305000D01*
X125843919Y-62371675D01*
X125528169Y-62502463D01*
X125244002Y-62692337D01*
X125002337Y-62934002D01*
X124812463Y-63218169D01*
X124799941Y-63248400D01*
X121825939Y-63248400D01*
X121739237Y-63118641D01*
X121539359Y-62918763D01*
X121304327Y-62761720D01*
X121043174Y-62653547D01*
X120765935Y-62598400D01*
X120483265Y-62598400D01*
X120206026Y-62653547D01*
X119944873Y-62761720D01*
X119709841Y-62918763D01*
X119509963Y-63118641D01*
X119352920Y-63353673D01*
X119244747Y-63614826D01*
X119189600Y-63892065D01*
X109035000Y-63892065D01*
X109035000Y-63869117D01*
X108968325Y-63533919D01*
X108837537Y-63218169D01*
X108647663Y-62934002D01*
X108405998Y-62692337D01*
X108121831Y-62502463D01*
X107806081Y-62371675D01*
X107470883Y-62305000D01*
X107129117Y-62305000D01*
X106793919Y-62371675D01*
X106478169Y-62502463D01*
X106194002Y-62692337D01*
X105952337Y-62934002D01*
X105762463Y-63218169D01*
X105749941Y-63248400D01*
X102801339Y-63248400D01*
X102714637Y-63118641D01*
X102514759Y-62918763D01*
X102279727Y-62761720D01*
X102018574Y-62653547D01*
X101741335Y-62598400D01*
X101458665Y-62598400D01*
X101181426Y-62653547D01*
X100920273Y-62761720D01*
X100685241Y-62918763D01*
X100485363Y-63118641D01*
X100328320Y-63353673D01*
X100220147Y-63614826D01*
X100165000Y-63892065D01*
X89985000Y-63892065D01*
X89985000Y-63869117D01*
X89918325Y-63533919D01*
X89787537Y-63218169D01*
X89597663Y-62934002D01*
X89355998Y-62692337D01*
X89071831Y-62502463D01*
X88756081Y-62371675D01*
X88420883Y-62305000D01*
X88079117Y-62305000D01*
X87743919Y-62371675D01*
X87428169Y-62502463D01*
X87144002Y-62692337D01*
X86902337Y-62934002D01*
X86712463Y-63218169D01*
X86710462Y-63223000D01*
X85021339Y-63223000D01*
X84934637Y-63093241D01*
X84734759Y-62893363D01*
X84499727Y-62736320D01*
X84238574Y-62628147D01*
X83961335Y-62573000D01*
X83678665Y-62573000D01*
X83401426Y-62628147D01*
X83210000Y-62707438D01*
X83210000Y-48343117D01*
X83355000Y-48343117D01*
X83355000Y-48684883D01*
X83421675Y-49020081D01*
X83552463Y-49335831D01*
X83742337Y-49619998D01*
X83984002Y-49861663D01*
X84268169Y-50051537D01*
X84583919Y-50182325D01*
X84919117Y-50249000D01*
X85260883Y-50249000D01*
X85596081Y-50182325D01*
X85911831Y-50051537D01*
X86195998Y-49861663D01*
X86437663Y-49619998D01*
X86627537Y-49335831D01*
X86758325Y-49020081D01*
X86825000Y-48684883D01*
X86825000Y-48343117D01*
X86758325Y-48007919D01*
X86627537Y-47692169D01*
X86437663Y-47408002D01*
X86195998Y-47166337D01*
X85911831Y-46976463D01*
X85596081Y-46845675D01*
X85260883Y-46779000D01*
X84919117Y-46779000D01*
X84583919Y-46845675D01*
X84268169Y-46976463D01*
X83984002Y-47166337D01*
X83742337Y-47408002D01*
X83552463Y-47692169D01*
X83421675Y-48007919D01*
X83355000Y-48343117D01*
X83210000Y-48343117D01*
X83210000Y-45832665D01*
X87973000Y-45832665D01*
X87973000Y-46115335D01*
X88028147Y-46392574D01*
X88136320Y-46653727D01*
X88293363Y-46888759D01*
X88493241Y-47088637D01*
X88728273Y-47245680D01*
X88989426Y-47353853D01*
X89266665Y-47409000D01*
X89549335Y-47409000D01*
X89826574Y-47353853D01*
X90087727Y-47245680D01*
X90322759Y-47088637D01*
X90522637Y-46888759D01*
X90678000Y-46656241D01*
X90833363Y-46888759D01*
X91033241Y-47088637D01*
X91268273Y-47245680D01*
X91529426Y-47353853D01*
X91806665Y-47409000D01*
X92089335Y-47409000D01*
X92366574Y-47353853D01*
X92627727Y-47245680D01*
X92862759Y-47088637D01*
X93062637Y-46888759D01*
X93218000Y-46656241D01*
X93373363Y-46888759D01*
X93573241Y-47088637D01*
X93808273Y-47245680D01*
X94069426Y-47353853D01*
X94346665Y-47409000D01*
X94629335Y-47409000D01*
X94906574Y-47353853D01*
X95167727Y-47245680D01*
X95402759Y-47088637D01*
X95602637Y-46888759D01*
X95758000Y-46656241D01*
X95913363Y-46888759D01*
X96113241Y-47088637D01*
X96348273Y-47245680D01*
X96609426Y-47353853D01*
X96886665Y-47409000D01*
X97022842Y-47409000D01*
X94072185Y-50359658D01*
X94042237Y-50384236D01*
X94017659Y-50414184D01*
X94017655Y-50414188D01*
X93994525Y-50442372D01*
X93944139Y-50503767D01*
X93918433Y-50551861D01*
X93871246Y-50640141D01*
X93826359Y-50788114D01*
X93811203Y-50942000D01*
X93815001Y-50980563D01*
X93815000Y-59947207D01*
X93778169Y-59962463D01*
X93494002Y-60152337D01*
X93252337Y-60394002D01*
X93062463Y-60678169D01*
X92931675Y-60993919D01*
X92865000Y-61329117D01*
X92865000Y-61670883D01*
X92931675Y-62006081D01*
X93062463Y-62321831D01*
X93252337Y-62605998D01*
X93494002Y-62847663D01*
X93778169Y-63037537D01*
X94093919Y-63168325D01*
X94429117Y-63235000D01*
X94770883Y-63235000D01*
X95106081Y-63168325D01*
X95421831Y-63037537D01*
X95705998Y-62847663D01*
X95947663Y-62605998D01*
X96137537Y-62321831D01*
X96152793Y-62285000D01*
X98659247Y-62285000D01*
X98697800Y-62288797D01*
X98736353Y-62285000D01*
X98736361Y-62285000D01*
X98851687Y-62273641D01*
X98999660Y-62228754D01*
X99136033Y-62155862D01*
X99255564Y-62057764D01*
X99280147Y-62027810D01*
X101022085Y-60285872D01*
X102400000Y-60285872D01*
X102573254Y-60268808D01*
X102739850Y-60218272D01*
X102893386Y-60136205D01*
X103027962Y-60025762D01*
X103138405Y-59891186D01*
X103220472Y-59737650D01*
X103271008Y-59571054D01*
X103288072Y-59397800D01*
X103288072Y-57797800D01*
X103271008Y-57624546D01*
X103220472Y-57457950D01*
X103138405Y-57304414D01*
X103027962Y-57169838D01*
X102893386Y-57059395D01*
X102739850Y-56977328D01*
X102573254Y-56926792D01*
X102400000Y-56909728D01*
X100800000Y-56909728D01*
X100626746Y-56926792D01*
X100460150Y-56977328D01*
X100306614Y-57059395D01*
X100172038Y-57169838D01*
X100061595Y-57304414D01*
X99979528Y-57457950D01*
X99928992Y-57624546D01*
X99911928Y-57797800D01*
X99911928Y-59175715D01*
X98372643Y-60715000D01*
X96152793Y-60715000D01*
X96137537Y-60678169D01*
X95947663Y-60394002D01*
X95705998Y-60152337D01*
X95421831Y-59962463D01*
X95385000Y-59947207D01*
X95385000Y-51267157D01*
X97771492Y-48880665D01*
X100649500Y-48880665D01*
X100649500Y-49163335D01*
X100704647Y-49440574D01*
X100812820Y-49701727D01*
X100969863Y-49936759D01*
X101169741Y-50136637D01*
X101404773Y-50293680D01*
X101665926Y-50401853D01*
X101943165Y-50457000D01*
X102225835Y-50457000D01*
X102503074Y-50401853D01*
X102764227Y-50293680D01*
X102999259Y-50136637D01*
X103121194Y-50014702D01*
X103771403Y-50014702D01*
X103842986Y-50258671D01*
X104098496Y-50379571D01*
X104372684Y-50448300D01*
X104655012Y-50462217D01*
X104934630Y-50420787D01*
X105200792Y-50325603D01*
X105326014Y-50258671D01*
X105397597Y-50014702D01*
X104584500Y-49201605D01*
X103771403Y-50014702D01*
X103121194Y-50014702D01*
X103199137Y-49936759D01*
X103333192Y-49736131D01*
X103347829Y-49763514D01*
X103591798Y-49835097D01*
X104404895Y-49022000D01*
X104764105Y-49022000D01*
X105577202Y-49835097D01*
X105821171Y-49763514D01*
X105942071Y-49508004D01*
X106010800Y-49233816D01*
X106024717Y-48951488D01*
X105983287Y-48671870D01*
X105888103Y-48405708D01*
X105821171Y-48280486D01*
X105577202Y-48208903D01*
X104764105Y-49022000D01*
X104404895Y-49022000D01*
X103591798Y-48208903D01*
X103347829Y-48280486D01*
X103334176Y-48309341D01*
X103199137Y-48107241D01*
X103121194Y-48029298D01*
X103771403Y-48029298D01*
X104584500Y-48842395D01*
X105397597Y-48029298D01*
X105326014Y-47785329D01*
X105070504Y-47664429D01*
X104796316Y-47595700D01*
X104513988Y-47581783D01*
X104234370Y-47623213D01*
X103968208Y-47718397D01*
X103842986Y-47785329D01*
X103771403Y-48029298D01*
X103121194Y-48029298D01*
X102999259Y-47907363D01*
X102764227Y-47750320D01*
X102503074Y-47642147D01*
X102225835Y-47587000D01*
X101943165Y-47587000D01*
X101665926Y-47642147D01*
X101404773Y-47750320D01*
X101169741Y-47907363D01*
X100969863Y-48107241D01*
X100812820Y-48342273D01*
X100704647Y-48603426D01*
X100649500Y-48880665D01*
X97771492Y-48880665D01*
X99273604Y-47378554D01*
X99426665Y-47409000D01*
X99709335Y-47409000D01*
X99986574Y-47353853D01*
X100247727Y-47245680D01*
X100482759Y-47088637D01*
X100682637Y-46888759D01*
X100838000Y-46656241D01*
X100993363Y-46888759D01*
X101193241Y-47088637D01*
X101428273Y-47245680D01*
X101689426Y-47353853D01*
X101966665Y-47409000D01*
X102249335Y-47409000D01*
X102526574Y-47353853D01*
X102787727Y-47245680D01*
X103022759Y-47088637D01*
X103222637Y-46888759D01*
X103378000Y-46656241D01*
X103533363Y-46888759D01*
X103733241Y-47088637D01*
X103968273Y-47245680D01*
X104229426Y-47353853D01*
X104506665Y-47409000D01*
X104789335Y-47409000D01*
X105066574Y-47353853D01*
X105327727Y-47245680D01*
X105562759Y-47088637D01*
X105762637Y-46888759D01*
X105919680Y-46653727D01*
X105924067Y-46643135D01*
X106035615Y-46829131D01*
X106224586Y-47037519D01*
X106450580Y-47205037D01*
X106704913Y-47325246D01*
X106838961Y-47365904D01*
X107061000Y-47243915D01*
X107061000Y-46101000D01*
X107041000Y-46101000D01*
X107041000Y-45847000D01*
X107061000Y-45847000D01*
X107061000Y-44704085D01*
X106838961Y-44582096D01*
X106704913Y-44622754D01*
X106450580Y-44742963D01*
X106224586Y-44910481D01*
X106035615Y-45118869D01*
X105924067Y-45304865D01*
X105919680Y-45294273D01*
X105762637Y-45059241D01*
X105562759Y-44859363D01*
X105327727Y-44702320D01*
X105066574Y-44594147D01*
X104789335Y-44539000D01*
X104506665Y-44539000D01*
X104229426Y-44594147D01*
X103968273Y-44702320D01*
X103733241Y-44859363D01*
X103533363Y-45059241D01*
X103378000Y-45291759D01*
X103222637Y-45059241D01*
X103022759Y-44859363D01*
X102787727Y-44702320D01*
X102526574Y-44594147D01*
X102249335Y-44539000D01*
X101966665Y-44539000D01*
X101689426Y-44594147D01*
X101428273Y-44702320D01*
X101193241Y-44859363D01*
X100993363Y-45059241D01*
X100838000Y-45291759D01*
X100682637Y-45059241D01*
X100482759Y-44859363D01*
X100247727Y-44702320D01*
X99986574Y-44594147D01*
X99709335Y-44539000D01*
X99426665Y-44539000D01*
X99273604Y-44569446D01*
X98062644Y-43358487D01*
X98038061Y-43328533D01*
X97918530Y-43230435D01*
X97782157Y-43157543D01*
X97634184Y-43112656D01*
X97518858Y-43101297D01*
X97518850Y-43101297D01*
X97480297Y-43097500D01*
X97441744Y-43101297D01*
X92073042Y-43101297D01*
X91950913Y-43019693D01*
X91772946Y-42945977D01*
X91584018Y-42908397D01*
X91391388Y-42908397D01*
X91202460Y-42945977D01*
X91024493Y-43019693D01*
X90864328Y-43126712D01*
X90728118Y-43262922D01*
X90621099Y-43423087D01*
X90547383Y-43601054D01*
X90509803Y-43789982D01*
X90509803Y-43982612D01*
X90547383Y-44171540D01*
X90621099Y-44349507D01*
X90728118Y-44509672D01*
X90864328Y-44645882D01*
X91024493Y-44752901D01*
X91128252Y-44795879D01*
X91033241Y-44859363D01*
X90833363Y-45059241D01*
X90678000Y-45291759D01*
X90522637Y-45059241D01*
X90322759Y-44859363D01*
X90087727Y-44702320D01*
X89826574Y-44594147D01*
X89549335Y-44539000D01*
X89266665Y-44539000D01*
X88989426Y-44594147D01*
X88728273Y-44702320D01*
X88493241Y-44859363D01*
X88293363Y-45059241D01*
X88136320Y-45294273D01*
X88028147Y-45555426D01*
X87973000Y-45832665D01*
X83210000Y-45832665D01*
X83210000Y-27972279D01*
X83229920Y-27769117D01*
X83355000Y-27769117D01*
X83355000Y-28110883D01*
X83421675Y-28446081D01*
X83552463Y-28761831D01*
X83742337Y-29045998D01*
X83984002Y-29287663D01*
X84268169Y-29477537D01*
X84583919Y-29608325D01*
X84919117Y-29675000D01*
X85260883Y-29675000D01*
X85596081Y-29608325D01*
X85911831Y-29477537D01*
X86195998Y-29287663D01*
X86437663Y-29045998D01*
X86566546Y-28853110D01*
X89617524Y-28853110D01*
X89738845Y-29083000D01*
X90932000Y-29083000D01*
X90932000Y-27889186D01*
X90702109Y-27768519D01*
X90427748Y-27865843D01*
X90177645Y-28014822D01*
X89961412Y-28209731D01*
X89787359Y-28443080D01*
X89662175Y-28705901D01*
X89617524Y-28853110D01*
X86566546Y-28853110D01*
X86627537Y-28761831D01*
X86758325Y-28446081D01*
X86825000Y-28110883D01*
X86825000Y-27769117D01*
X86758325Y-27433919D01*
X86627537Y-27118169D01*
X86437663Y-26834002D01*
X86195998Y-26592337D01*
X85911831Y-26402463D01*
X85596081Y-26271675D01*
X85260883Y-26205000D01*
X84919117Y-26205000D01*
X84583919Y-26271675D01*
X84268169Y-26402463D01*
X83984002Y-26592337D01*
X83742337Y-26834002D01*
X83552463Y-27118169D01*
X83421675Y-27433919D01*
X83355000Y-27769117D01*
X83229920Y-27769117D01*
X83248909Y-27575455D01*
X83354780Y-27224792D01*
X83526744Y-26901375D01*
X83758254Y-26617516D01*
X84040486Y-26384035D01*
X84362695Y-26209817D01*
X84712614Y-26101498D01*
X85107443Y-26060000D01*
X138031901Y-26060000D01*
X138001481Y-26087586D01*
G36*
X155829013Y-33118252D02*
G01*
X156056748Y-33345987D01*
X156324537Y-33524918D01*
X156622088Y-33648168D01*
X156937967Y-33711000D01*
X157260033Y-33711000D01*
X157575912Y-33648168D01*
X157873463Y-33524918D01*
X158090001Y-33380232D01*
X158090001Y-35405391D01*
X158054807Y-35440585D01*
X157959044Y-35176186D01*
X157669429Y-35035296D01*
X157357892Y-34953616D01*
X157036405Y-34934282D01*
X156717325Y-34978039D01*
X156412912Y-35083205D01*
X156238956Y-35176186D01*
X156143192Y-35440587D01*
X157099000Y-36396395D01*
X157113143Y-36382253D01*
X157292748Y-36561858D01*
X157278605Y-36576000D01*
X157292748Y-36590143D01*
X157113143Y-36769748D01*
X157099000Y-36755605D01*
X156143192Y-37711413D01*
X156238956Y-37975814D01*
X156528571Y-38116704D01*
X156840108Y-38198384D01*
X157161595Y-38217718D01*
X157480675Y-38173961D01*
X157785088Y-38068795D01*
X157959044Y-37975814D01*
X158054807Y-37711415D01*
X158090001Y-37746609D01*
X158090001Y-38558400D01*
X157896463Y-38429082D01*
X157598912Y-38305832D01*
X157283033Y-38243000D01*
X156960967Y-38243000D01*
X156645088Y-38305832D01*
X156347537Y-38429082D01*
X156079748Y-38608013D01*
X155852013Y-38835748D01*
X155673082Y-39103537D01*
X155549832Y-39401088D01*
X155487000Y-39716967D01*
X155487000Y-40039033D01*
X155549832Y-40354912D01*
X155673082Y-40652463D01*
X155852013Y-40920252D01*
X156079748Y-41147987D01*
X156347537Y-41326918D01*
X156645088Y-41450168D01*
X156960967Y-41513000D01*
X157283033Y-41513000D01*
X157598912Y-41450168D01*
X157896463Y-41326918D01*
X158090001Y-41197600D01*
X158090001Y-43230391D01*
X158077807Y-43242585D01*
X157982044Y-42978186D01*
X157692429Y-42837296D01*
X157380892Y-42755616D01*
X157059405Y-42736282D01*
X156740325Y-42780039D01*
X156435912Y-42885205D01*
X156261956Y-42978186D01*
X156166192Y-43242587D01*
X157122000Y-44198395D01*
X157136143Y-44184253D01*
X157315748Y-44363858D01*
X157301605Y-44378000D01*
X157315748Y-44392143D01*
X157136143Y-44571748D01*
X157122000Y-44557605D01*
X156166192Y-45513413D01*
X156261956Y-45777814D01*
X156551571Y-45918704D01*
X156863108Y-46000384D01*
X157184595Y-46019718D01*
X157503675Y-45975961D01*
X157808088Y-45870795D01*
X157982044Y-45777814D01*
X158077807Y-45513415D01*
X158090001Y-45525609D01*
X158090000Y-74556026D01*
X158086450Y-74554128D01*
X157919854Y-74503592D01*
X157746600Y-74486528D01*
X156368686Y-74486528D01*
X152535000Y-70652843D01*
X152535000Y-66433740D01*
X152805000Y-66433740D01*
X152805000Y-66726260D01*
X152862068Y-67013158D01*
X152974010Y-67283411D01*
X153136525Y-67526632D01*
X153343368Y-67733475D01*
X153586589Y-67895990D01*
X153856842Y-68007932D01*
X154143740Y-68065000D01*
X154436260Y-68065000D01*
X154723158Y-68007932D01*
X154993411Y-67895990D01*
X155236632Y-67733475D01*
X155443475Y-67526632D01*
X155605990Y-67283411D01*
X155717932Y-67013158D01*
X155775000Y-66726260D01*
X155775000Y-66433740D01*
X155717932Y-66146842D01*
X155605990Y-65876589D01*
X155443475Y-65633368D01*
X155236632Y-65426525D01*
X154993411Y-65264010D01*
X154723158Y-65152068D01*
X154436260Y-65095000D01*
X154143740Y-65095000D01*
X153856842Y-65152068D01*
X153586589Y-65264010D01*
X153343368Y-65426525D01*
X153136525Y-65633368D01*
X152974010Y-65876589D01*
X152862068Y-66146842D01*
X152805000Y-66433740D01*
X152535000Y-66433740D01*
X152535000Y-63052793D01*
X152571831Y-63037537D01*
X152855998Y-62847663D01*
X153097663Y-62605998D01*
X153287537Y-62321831D01*
X153418325Y-62006081D01*
X153485000Y-61670883D01*
X153485000Y-61329117D01*
X153418325Y-60993919D01*
X153287537Y-60678169D01*
X153097663Y-60394002D01*
X152855998Y-60152337D01*
X152571831Y-59962463D01*
X152256081Y-59831675D01*
X151920883Y-59765000D01*
X151579117Y-59765000D01*
X151243919Y-59831675D01*
X151207089Y-59846931D01*
X145756347Y-54396190D01*
X145731764Y-54366236D01*
X145612233Y-54268138D01*
X145475860Y-54195246D01*
X145327887Y-54150359D01*
X145212561Y-54139000D01*
X145212553Y-54139000D01*
X145174000Y-54135203D01*
X145135447Y-54139000D01*
X124083158Y-54139000D01*
X117353157Y-47409000D01*
X117489335Y-47409000D01*
X117766574Y-47353853D01*
X118027727Y-47245680D01*
X118262759Y-47088637D01*
X118462637Y-46888759D01*
X118618000Y-46656241D01*
X118773363Y-46888759D01*
X118973241Y-47088637D01*
X119208273Y-47245680D01*
X119469426Y-47353853D01*
X119746665Y-47409000D01*
X120029335Y-47409000D01*
X120182396Y-47378554D01*
X120408059Y-47604216D01*
X120432637Y-47634165D01*
X120462585Y-47658743D01*
X120462588Y-47658746D01*
X120469513Y-47664429D01*
X120552168Y-47732263D01*
X120688541Y-47805155D01*
X120802073Y-47839595D01*
X120836513Y-47850042D01*
X120850891Y-47851458D01*
X120951840Y-47861401D01*
X120951847Y-47861401D01*
X120990400Y-47865198D01*
X121028953Y-47861401D01*
X127483496Y-47861401D01*
X127405282Y-47978457D01*
X127282032Y-48276008D01*
X127219200Y-48591887D01*
X127219200Y-48913953D01*
X127282032Y-49229832D01*
X127405282Y-49527383D01*
X127584213Y-49795172D01*
X127811948Y-50022907D01*
X128079737Y-50201838D01*
X128377288Y-50325088D01*
X128693167Y-50387920D01*
X129015233Y-50387920D01*
X129331112Y-50325088D01*
X129628663Y-50201838D01*
X129896452Y-50022907D01*
X130124187Y-49795172D01*
X130303118Y-49527383D01*
X130426368Y-49229832D01*
X130489200Y-48913953D01*
X130489200Y-48591887D01*
X130426368Y-48276008D01*
X130303118Y-47978457D01*
X130124187Y-47710668D01*
X129896452Y-47482933D01*
X129628663Y-47304002D01*
X129331112Y-47180752D01*
X129224593Y-47159564D01*
X130177816Y-46206342D01*
X130207764Y-46181764D01*
X130305862Y-46062233D01*
X130378754Y-45925860D01*
X130402676Y-45847000D01*
X130423641Y-45777888D01*
X130434056Y-45672141D01*
X130435000Y-45662561D01*
X130435000Y-45662554D01*
X130438797Y-45624001D01*
X130435000Y-45585448D01*
X130435000Y-44709339D01*
X130516604Y-44587210D01*
X130590320Y-44409243D01*
X130627900Y-44220315D01*
X130627900Y-44027685D01*
X130590320Y-43838757D01*
X130549654Y-43740581D01*
X131150346Y-43740581D01*
X131109680Y-43838757D01*
X131072100Y-44027685D01*
X131072100Y-44220315D01*
X131109680Y-44409243D01*
X131183396Y-44587210D01*
X131290415Y-44747375D01*
X131426625Y-44883585D01*
X131586790Y-44990604D01*
X131764757Y-45064320D01*
X131953685Y-45101900D01*
X132146315Y-45101900D01*
X132335243Y-45064320D01*
X132513210Y-44990604D01*
X132635339Y-44909000D01*
X138032843Y-44909000D01*
X139188731Y-46064888D01*
X138975987Y-46207038D01*
X138790038Y-46392987D01*
X138643939Y-46611641D01*
X138543304Y-46854595D01*
X138492000Y-47112514D01*
X138492000Y-47256710D01*
X137920791Y-47827920D01*
X135275851Y-47827920D01*
X135204187Y-47720668D01*
X134976452Y-47492933D01*
X134708663Y-47314002D01*
X134411112Y-47190752D01*
X134095233Y-47127920D01*
X133773167Y-47127920D01*
X133457288Y-47190752D01*
X133159737Y-47314002D01*
X132891948Y-47492933D01*
X132664213Y-47720668D01*
X132485282Y-47988457D01*
X132362032Y-48286008D01*
X132299200Y-48601887D01*
X132299200Y-48923953D01*
X132362032Y-49239832D01*
X132485282Y-49537383D01*
X132664213Y-49805172D01*
X132891948Y-50032907D01*
X133159737Y-50211838D01*
X133457288Y-50335088D01*
X133773167Y-50397920D01*
X134095233Y-50397920D01*
X134411112Y-50335088D01*
X134708663Y-50211838D01*
X134976452Y-50032907D01*
X135204187Y-49805172D01*
X135275851Y-49697920D01*
X138262148Y-49697920D01*
X138308080Y-49702444D01*
X138354012Y-49697920D01*
X138401631Y-49697920D01*
X139252775Y-50549065D01*
X139282057Y-50584745D01*
X139424429Y-50701587D01*
X139586861Y-50788408D01*
X139709644Y-50825654D01*
X139763108Y-50841872D01*
X139946400Y-50859925D01*
X139992332Y-50855401D01*
X146672847Y-50855401D01*
X146673092Y-50855425D01*
X146676595Y-50856876D01*
X146934514Y-50908180D01*
X147197486Y-50908180D01*
X147455405Y-50856876D01*
X147698359Y-50756241D01*
X147917013Y-50610142D01*
X148102962Y-50424193D01*
X148249061Y-50205539D01*
X148349696Y-49962585D01*
X148401000Y-49704666D01*
X148401000Y-49441694D01*
X148349696Y-49183775D01*
X148249061Y-48940821D01*
X148102962Y-48722167D01*
X147917013Y-48536218D01*
X147698359Y-48390119D01*
X147584887Y-48343117D01*
X154475000Y-48343117D01*
X154475000Y-48684883D01*
X154541675Y-49020081D01*
X154672463Y-49335831D01*
X154862337Y-49619998D01*
X155104002Y-49861663D01*
X155388169Y-50051537D01*
X155703919Y-50182325D01*
X156039117Y-50249000D01*
X156380883Y-50249000D01*
X156716081Y-50182325D01*
X157031831Y-50051537D01*
X157315998Y-49861663D01*
X157557663Y-49619998D01*
X157747537Y-49335831D01*
X157878325Y-49020081D01*
X157945000Y-48684883D01*
X157945000Y-48343117D01*
X157878325Y-48007919D01*
X157747537Y-47692169D01*
X157557663Y-47408002D01*
X157315998Y-47166337D01*
X157031831Y-46976463D01*
X156716081Y-46845675D01*
X156380883Y-46779000D01*
X156039117Y-46779000D01*
X155703919Y-46845675D01*
X155388169Y-46976463D01*
X155104002Y-47166337D01*
X154862337Y-47408002D01*
X154672463Y-47692169D01*
X154541675Y-48007919D01*
X154475000Y-48343117D01*
X147584887Y-48343117D01*
X147455405Y-48289484D01*
X147197486Y-48238180D01*
X146934514Y-48238180D01*
X146676595Y-48289484D01*
X146433641Y-48390119D01*
X146214987Y-48536218D01*
X146029038Y-48722167D01*
X145988000Y-48783585D01*
X145988000Y-48636514D01*
X145936696Y-48378595D01*
X145836061Y-48135641D01*
X145689962Y-47916987D01*
X145504013Y-47731038D01*
X145285359Y-47584939D01*
X145042405Y-47484304D01*
X144784486Y-47433000D01*
X144521514Y-47433000D01*
X144263595Y-47484304D01*
X144020641Y-47584939D01*
X143801987Y-47731038D01*
X143616038Y-47916987D01*
X143575000Y-47978405D01*
X143575000Y-47874514D01*
X143523696Y-47616595D01*
X143423061Y-47373641D01*
X143276962Y-47154987D01*
X143091013Y-46969038D01*
X142872359Y-46822939D01*
X142629405Y-46722304D01*
X142371486Y-46671000D01*
X142108514Y-46671000D01*
X142030647Y-46686489D01*
X140857571Y-45513413D01*
X149666192Y-45513413D01*
X149761956Y-45777814D01*
X150051571Y-45918704D01*
X150363108Y-46000384D01*
X150684595Y-46019718D01*
X151003675Y-45975961D01*
X151308088Y-45870795D01*
X151482044Y-45777814D01*
X151577808Y-45513413D01*
X150622000Y-44557605D01*
X149666192Y-45513413D01*
X140857571Y-45513413D01*
X139084738Y-43740581D01*
X149113885Y-43740581D01*
X149081296Y-43807571D01*
X148999616Y-44119108D01*
X148980282Y-44440595D01*
X149024039Y-44759675D01*
X149129205Y-45064088D01*
X149222186Y-45238044D01*
X149486587Y-45333808D01*
X150442395Y-44378000D01*
X150801605Y-44378000D01*
X151757413Y-45333808D01*
X152021814Y-45238044D01*
X152162704Y-44948429D01*
X152244384Y-44636892D01*
X152256189Y-44440595D01*
X155480282Y-44440595D01*
X155524039Y-44759675D01*
X155629205Y-45064088D01*
X155722186Y-45238044D01*
X155986587Y-45333808D01*
X156942395Y-44378000D01*
X155986587Y-43422192D01*
X155722186Y-43517956D01*
X155581296Y-43807571D01*
X155499616Y-44119108D01*
X155480282Y-44440595D01*
X152256189Y-44440595D01*
X152263718Y-44315405D01*
X152219961Y-43996325D01*
X152114795Y-43691912D01*
X152021814Y-43517956D01*
X151757413Y-43422192D01*
X150801605Y-44378000D01*
X150442395Y-44378000D01*
X150428253Y-44363858D01*
X150607858Y-44184253D01*
X150622000Y-44198395D01*
X151577808Y-43242587D01*
X151482044Y-42978186D01*
X151192429Y-42837296D01*
X150880892Y-42755616D01*
X150787700Y-42750011D01*
X152452218Y-41085494D01*
X152482165Y-41060917D01*
X152509439Y-41027685D01*
X152556686Y-40970114D01*
X152580263Y-40941386D01*
X152653155Y-40805013D01*
X152653155Y-40805012D01*
X152698043Y-40657040D01*
X152706246Y-40573746D01*
X152709401Y-40541714D01*
X152709401Y-40541709D01*
X152713198Y-40503153D01*
X152709401Y-40464598D01*
X152709401Y-36638595D01*
X155457282Y-36638595D01*
X155501039Y-36957675D01*
X155606205Y-37262088D01*
X155699186Y-37436044D01*
X155963587Y-37531808D01*
X156919395Y-36576000D01*
X155963587Y-35620192D01*
X155699186Y-35715956D01*
X155558296Y-36005571D01*
X155476616Y-36317108D01*
X155457282Y-36638595D01*
X152709401Y-36638595D01*
X152709401Y-33439953D01*
X152713198Y-33401400D01*
X152709401Y-33362847D01*
X152709401Y-33362840D01*
X152698042Y-33247514D01*
X152653155Y-33099541D01*
X152580263Y-32963168D01*
X152510274Y-32877887D01*
X152506746Y-32873588D01*
X152506743Y-32873585D01*
X152496415Y-32861000D01*
X155657123Y-32861000D01*
X155829013Y-33118252D01*
G37*
X155829013Y-33118252D02*
X156056748Y-33345987D01*
X156324537Y-33524918D01*
X156622088Y-33648168D01*
X156937967Y-33711000D01*
X157260033Y-33711000D01*
X157575912Y-33648168D01*
X157873463Y-33524918D01*
X158090001Y-33380232D01*
X158090001Y-35405391D01*
X158054807Y-35440585D01*
X157959044Y-35176186D01*
X157669429Y-35035296D01*
X157357892Y-34953616D01*
X157036405Y-34934282D01*
X156717325Y-34978039D01*
X156412912Y-35083205D01*
X156238956Y-35176186D01*
X156143192Y-35440587D01*
X157099000Y-36396395D01*
X157113143Y-36382253D01*
X157292748Y-36561858D01*
X157278605Y-36576000D01*
X157292748Y-36590143D01*
X157113143Y-36769748D01*
X157099000Y-36755605D01*
X156143192Y-37711413D01*
X156238956Y-37975814D01*
X156528571Y-38116704D01*
X156840108Y-38198384D01*
X157161595Y-38217718D01*
X157480675Y-38173961D01*
X157785088Y-38068795D01*
X157959044Y-37975814D01*
X158054807Y-37711415D01*
X158090001Y-37746609D01*
X158090001Y-38558400D01*
X157896463Y-38429082D01*
X157598912Y-38305832D01*
X157283033Y-38243000D01*
X156960967Y-38243000D01*
X156645088Y-38305832D01*
X156347537Y-38429082D01*
X156079748Y-38608013D01*
X155852013Y-38835748D01*
X155673082Y-39103537D01*
X155549832Y-39401088D01*
X155487000Y-39716967D01*
X155487000Y-40039033D01*
X155549832Y-40354912D01*
X155673082Y-40652463D01*
X155852013Y-40920252D01*
X156079748Y-41147987D01*
X156347537Y-41326918D01*
X156645088Y-41450168D01*
X156960967Y-41513000D01*
X157283033Y-41513000D01*
X157598912Y-41450168D01*
X157896463Y-41326918D01*
X158090001Y-41197600D01*
X158090001Y-43230391D01*
X158077807Y-43242585D01*
X157982044Y-42978186D01*
X157692429Y-42837296D01*
X157380892Y-42755616D01*
X157059405Y-42736282D01*
X156740325Y-42780039D01*
X156435912Y-42885205D01*
X156261956Y-42978186D01*
X156166192Y-43242587D01*
X157122000Y-44198395D01*
X157136143Y-44184253D01*
X157315748Y-44363858D01*
X157301605Y-44378000D01*
X157315748Y-44392143D01*
X157136143Y-44571748D01*
X157122000Y-44557605D01*
X156166192Y-45513413D01*
X156261956Y-45777814D01*
X156551571Y-45918704D01*
X156863108Y-46000384D01*
X157184595Y-46019718D01*
X157503675Y-45975961D01*
X157808088Y-45870795D01*
X157982044Y-45777814D01*
X158077807Y-45513415D01*
X158090001Y-45525609D01*
X158090000Y-74556026D01*
X158086450Y-74554128D01*
X157919854Y-74503592D01*
X157746600Y-74486528D01*
X156368686Y-74486528D01*
X152535000Y-70652843D01*
X152535000Y-66433740D01*
X152805000Y-66433740D01*
X152805000Y-66726260D01*
X152862068Y-67013158D01*
X152974010Y-67283411D01*
X153136525Y-67526632D01*
X153343368Y-67733475D01*
X153586589Y-67895990D01*
X153856842Y-68007932D01*
X154143740Y-68065000D01*
X154436260Y-68065000D01*
X154723158Y-68007932D01*
X154993411Y-67895990D01*
X155236632Y-67733475D01*
X155443475Y-67526632D01*
X155605990Y-67283411D01*
X155717932Y-67013158D01*
X155775000Y-66726260D01*
X155775000Y-66433740D01*
X155717932Y-66146842D01*
X155605990Y-65876589D01*
X155443475Y-65633368D01*
X155236632Y-65426525D01*
X154993411Y-65264010D01*
X154723158Y-65152068D01*
X154436260Y-65095000D01*
X154143740Y-65095000D01*
X153856842Y-65152068D01*
X153586589Y-65264010D01*
X153343368Y-65426525D01*
X153136525Y-65633368D01*
X152974010Y-65876589D01*
X152862068Y-66146842D01*
X152805000Y-66433740D01*
X152535000Y-66433740D01*
X152535000Y-63052793D01*
X152571831Y-63037537D01*
X152855998Y-62847663D01*
X153097663Y-62605998D01*
X153287537Y-62321831D01*
X153418325Y-62006081D01*
X153485000Y-61670883D01*
X153485000Y-61329117D01*
X153418325Y-60993919D01*
X153287537Y-60678169D01*
X153097663Y-60394002D01*
X152855998Y-60152337D01*
X152571831Y-59962463D01*
X152256081Y-59831675D01*
X151920883Y-59765000D01*
X151579117Y-59765000D01*
X151243919Y-59831675D01*
X151207089Y-59846931D01*
X145756347Y-54396190D01*
X145731764Y-54366236D01*
X145612233Y-54268138D01*
X145475860Y-54195246D01*
X145327887Y-54150359D01*
X145212561Y-54139000D01*
X145212553Y-54139000D01*
X145174000Y-54135203D01*
X145135447Y-54139000D01*
X124083158Y-54139000D01*
X117353157Y-47409000D01*
X117489335Y-47409000D01*
X117766574Y-47353853D01*
X118027727Y-47245680D01*
X118262759Y-47088637D01*
X118462637Y-46888759D01*
X118618000Y-46656241D01*
X118773363Y-46888759D01*
X118973241Y-47088637D01*
X119208273Y-47245680D01*
X119469426Y-47353853D01*
X119746665Y-47409000D01*
X120029335Y-47409000D01*
X120182396Y-47378554D01*
X120408059Y-47604216D01*
X120432637Y-47634165D01*
X120462585Y-47658743D01*
X120462588Y-47658746D01*
X120469513Y-47664429D01*
X120552168Y-47732263D01*
X120688541Y-47805155D01*
X120802073Y-47839595D01*
X120836513Y-47850042D01*
X120850891Y-47851458D01*
X120951840Y-47861401D01*
X120951847Y-47861401D01*
X120990400Y-47865198D01*
X121028953Y-47861401D01*
X127483496Y-47861401D01*
X127405282Y-47978457D01*
X127282032Y-48276008D01*
X127219200Y-48591887D01*
X127219200Y-48913953D01*
X127282032Y-49229832D01*
X127405282Y-49527383D01*
X127584213Y-49795172D01*
X127811948Y-50022907D01*
X128079737Y-50201838D01*
X128377288Y-50325088D01*
X128693167Y-50387920D01*
X129015233Y-50387920D01*
X129331112Y-50325088D01*
X129628663Y-50201838D01*
X129896452Y-50022907D01*
X130124187Y-49795172D01*
X130303118Y-49527383D01*
X130426368Y-49229832D01*
X130489200Y-48913953D01*
X130489200Y-48591887D01*
X130426368Y-48276008D01*
X130303118Y-47978457D01*
X130124187Y-47710668D01*
X129896452Y-47482933D01*
X129628663Y-47304002D01*
X129331112Y-47180752D01*
X129224593Y-47159564D01*
X130177816Y-46206342D01*
X130207764Y-46181764D01*
X130305862Y-46062233D01*
X130378754Y-45925860D01*
X130402676Y-45847000D01*
X130423641Y-45777888D01*
X130434056Y-45672141D01*
X130435000Y-45662561D01*
X130435000Y-45662554D01*
X130438797Y-45624001D01*
X130435000Y-45585448D01*
X130435000Y-44709339D01*
X130516604Y-44587210D01*
X130590320Y-44409243D01*
X130627900Y-44220315D01*
X130627900Y-44027685D01*
X130590320Y-43838757D01*
X130549654Y-43740581D01*
X131150346Y-43740581D01*
X131109680Y-43838757D01*
X131072100Y-44027685D01*
X131072100Y-44220315D01*
X131109680Y-44409243D01*
X131183396Y-44587210D01*
X131290415Y-44747375D01*
X131426625Y-44883585D01*
X131586790Y-44990604D01*
X131764757Y-45064320D01*
X131953685Y-45101900D01*
X132146315Y-45101900D01*
X132335243Y-45064320D01*
X132513210Y-44990604D01*
X132635339Y-44909000D01*
X138032843Y-44909000D01*
X139188731Y-46064888D01*
X138975987Y-46207038D01*
X138790038Y-46392987D01*
X138643939Y-46611641D01*
X138543304Y-46854595D01*
X138492000Y-47112514D01*
X138492000Y-47256710D01*
X137920791Y-47827920D01*
X135275851Y-47827920D01*
X135204187Y-47720668D01*
X134976452Y-47492933D01*
X134708663Y-47314002D01*
X134411112Y-47190752D01*
X134095233Y-47127920D01*
X133773167Y-47127920D01*
X133457288Y-47190752D01*
X133159737Y-47314002D01*
X132891948Y-47492933D01*
X132664213Y-47720668D01*
X132485282Y-47988457D01*
X132362032Y-48286008D01*
X132299200Y-48601887D01*
X132299200Y-48923953D01*
X132362032Y-49239832D01*
X132485282Y-49537383D01*
X132664213Y-49805172D01*
X132891948Y-50032907D01*
X133159737Y-50211838D01*
X133457288Y-50335088D01*
X133773167Y-50397920D01*
X134095233Y-50397920D01*
X134411112Y-50335088D01*
X134708663Y-50211838D01*
X134976452Y-50032907D01*
X135204187Y-49805172D01*
X135275851Y-49697920D01*
X138262148Y-49697920D01*
X138308080Y-49702444D01*
X138354012Y-49697920D01*
X138401631Y-49697920D01*
X139252775Y-50549065D01*
X139282057Y-50584745D01*
X139424429Y-50701587D01*
X139586861Y-50788408D01*
X139709644Y-50825654D01*
X139763108Y-50841872D01*
X139946400Y-50859925D01*
X139992332Y-50855401D01*
X146672847Y-50855401D01*
X146673092Y-50855425D01*
X146676595Y-50856876D01*
X146934514Y-50908180D01*
X147197486Y-50908180D01*
X147455405Y-50856876D01*
X147698359Y-50756241D01*
X147917013Y-50610142D01*
X148102962Y-50424193D01*
X148249061Y-50205539D01*
X148349696Y-49962585D01*
X148401000Y-49704666D01*
X148401000Y-49441694D01*
X148349696Y-49183775D01*
X148249061Y-48940821D01*
X148102962Y-48722167D01*
X147917013Y-48536218D01*
X147698359Y-48390119D01*
X147584887Y-48343117D01*
X154475000Y-48343117D01*
X154475000Y-48684883D01*
X154541675Y-49020081D01*
X154672463Y-49335831D01*
X154862337Y-49619998D01*
X155104002Y-49861663D01*
X155388169Y-50051537D01*
X155703919Y-50182325D01*
X156039117Y-50249000D01*
X156380883Y-50249000D01*
X156716081Y-50182325D01*
X157031831Y-50051537D01*
X157315998Y-49861663D01*
X157557663Y-49619998D01*
X157747537Y-49335831D01*
X157878325Y-49020081D01*
X157945000Y-48684883D01*
X157945000Y-48343117D01*
X157878325Y-48007919D01*
X157747537Y-47692169D01*
X157557663Y-47408002D01*
X157315998Y-47166337D01*
X157031831Y-46976463D01*
X156716081Y-46845675D01*
X156380883Y-46779000D01*
X156039117Y-46779000D01*
X155703919Y-46845675D01*
X155388169Y-46976463D01*
X155104002Y-47166337D01*
X154862337Y-47408002D01*
X154672463Y-47692169D01*
X154541675Y-48007919D01*
X154475000Y-48343117D01*
X147584887Y-48343117D01*
X147455405Y-48289484D01*
X147197486Y-48238180D01*
X146934514Y-48238180D01*
X146676595Y-48289484D01*
X146433641Y-48390119D01*
X146214987Y-48536218D01*
X146029038Y-48722167D01*
X145988000Y-48783585D01*
X145988000Y-48636514D01*
X145936696Y-48378595D01*
X145836061Y-48135641D01*
X145689962Y-47916987D01*
X145504013Y-47731038D01*
X145285359Y-47584939D01*
X145042405Y-47484304D01*
X144784486Y-47433000D01*
X144521514Y-47433000D01*
X144263595Y-47484304D01*
X144020641Y-47584939D01*
X143801987Y-47731038D01*
X143616038Y-47916987D01*
X143575000Y-47978405D01*
X143575000Y-47874514D01*
X143523696Y-47616595D01*
X143423061Y-47373641D01*
X143276962Y-47154987D01*
X143091013Y-46969038D01*
X142872359Y-46822939D01*
X142629405Y-46722304D01*
X142371486Y-46671000D01*
X142108514Y-46671000D01*
X142030647Y-46686489D01*
X140857571Y-45513413D01*
X149666192Y-45513413D01*
X149761956Y-45777814D01*
X150051571Y-45918704D01*
X150363108Y-46000384D01*
X150684595Y-46019718D01*
X151003675Y-45975961D01*
X151308088Y-45870795D01*
X151482044Y-45777814D01*
X151577808Y-45513413D01*
X150622000Y-44557605D01*
X149666192Y-45513413D01*
X140857571Y-45513413D01*
X139084738Y-43740581D01*
X149113885Y-43740581D01*
X149081296Y-43807571D01*
X148999616Y-44119108D01*
X148980282Y-44440595D01*
X149024039Y-44759675D01*
X149129205Y-45064088D01*
X149222186Y-45238044D01*
X149486587Y-45333808D01*
X150442395Y-44378000D01*
X150801605Y-44378000D01*
X151757413Y-45333808D01*
X152021814Y-45238044D01*
X152162704Y-44948429D01*
X152244384Y-44636892D01*
X152256189Y-44440595D01*
X155480282Y-44440595D01*
X155524039Y-44759675D01*
X155629205Y-45064088D01*
X155722186Y-45238044D01*
X155986587Y-45333808D01*
X156942395Y-44378000D01*
X155986587Y-43422192D01*
X155722186Y-43517956D01*
X155581296Y-43807571D01*
X155499616Y-44119108D01*
X155480282Y-44440595D01*
X152256189Y-44440595D01*
X152263718Y-44315405D01*
X152219961Y-43996325D01*
X152114795Y-43691912D01*
X152021814Y-43517956D01*
X151757413Y-43422192D01*
X150801605Y-44378000D01*
X150442395Y-44378000D01*
X150428253Y-44363858D01*
X150607858Y-44184253D01*
X150622000Y-44198395D01*
X151577808Y-43242587D01*
X151482044Y-42978186D01*
X151192429Y-42837296D01*
X150880892Y-42755616D01*
X150787700Y-42750011D01*
X152452218Y-41085494D01*
X152482165Y-41060917D01*
X152509439Y-41027685D01*
X152556686Y-40970114D01*
X152580263Y-40941386D01*
X152653155Y-40805013D01*
X152653155Y-40805012D01*
X152698043Y-40657040D01*
X152706246Y-40573746D01*
X152709401Y-40541714D01*
X152709401Y-40541709D01*
X152713198Y-40503153D01*
X152709401Y-40464598D01*
X152709401Y-36638595D01*
X155457282Y-36638595D01*
X155501039Y-36957675D01*
X155606205Y-37262088D01*
X155699186Y-37436044D01*
X155963587Y-37531808D01*
X156919395Y-36576000D01*
X155963587Y-35620192D01*
X155699186Y-35715956D01*
X155558296Y-36005571D01*
X155476616Y-36317108D01*
X155457282Y-36638595D01*
X152709401Y-36638595D01*
X152709401Y-33439953D01*
X152713198Y-33401400D01*
X152709401Y-33362847D01*
X152709401Y-33362840D01*
X152698042Y-33247514D01*
X152653155Y-33099541D01*
X152580263Y-32963168D01*
X152510274Y-32877887D01*
X152506746Y-32873588D01*
X152506743Y-32873585D01*
X152496415Y-32861000D01*
X155657123Y-32861000D01*
X155829013Y-33118252D01*
G36*
X146214987Y-40916218D02*
G01*
X146029038Y-41102167D01*
X145882939Y-41320821D01*
X145869572Y-41353091D01*
X145823201Y-41275000D01*
X144780000Y-41275000D01*
X144780000Y-41295000D01*
X144526000Y-41295000D01*
X144526000Y-41275000D01*
X144506000Y-41275000D01*
X144506000Y-41021000D01*
X144526000Y-41021000D01*
X144526000Y-41001000D01*
X144780000Y-41001000D01*
X144780000Y-41021000D01*
X145823201Y-41021000D01*
X145876882Y-40930599D01*
X145938489Y-40930599D01*
X145977045Y-40934396D01*
X146015601Y-40930599D01*
X146015606Y-40930599D01*
X146056019Y-40926619D01*
X146130932Y-40919241D01*
X146253696Y-40882000D01*
X146276593Y-40875054D01*
X146214987Y-40916218D01*
G37*
X146214987Y-40916218D02*
X146029038Y-41102167D01*
X145882939Y-41320821D01*
X145869572Y-41353091D01*
X145823201Y-41275000D01*
X144780000Y-41275000D01*
X144780000Y-41295000D01*
X144526000Y-41295000D01*
X144526000Y-41275000D01*
X144506000Y-41275000D01*
X144506000Y-41021000D01*
X144526000Y-41021000D01*
X144526000Y-41001000D01*
X144780000Y-41001000D01*
X144780000Y-41021000D01*
X145823201Y-41021000D01*
X145876882Y-40930599D01*
X145938489Y-40930599D01*
X145977045Y-40934396D01*
X146015601Y-40930599D01*
X146015606Y-40930599D01*
X146056019Y-40926619D01*
X146130932Y-40919241D01*
X146253696Y-40882000D01*
X146276593Y-40875054D01*
X146214987Y-40916218D01*
G36*
X104775000Y-38227000D02*
G01*
X104795000Y-38227000D01*
X104795000Y-38481000D01*
X104775000Y-38481000D01*
X104775000Y-39623915D01*
X104997039Y-39745904D01*
X105131087Y-39705246D01*
X105385420Y-39585037D01*
X105611414Y-39417519D01*
X105800385Y-39209131D01*
X105911933Y-39023135D01*
X105916320Y-39033727D01*
X106073363Y-39268759D01*
X106273241Y-39468637D01*
X106508273Y-39625680D01*
X106769426Y-39733853D01*
X107046665Y-39789000D01*
X107329335Y-39789000D01*
X107606574Y-39733853D01*
X107867727Y-39625680D01*
X108102759Y-39468637D01*
X108302637Y-39268759D01*
X108458000Y-39036241D01*
X108613363Y-39268759D01*
X108813241Y-39468637D01*
X109048273Y-39625680D01*
X109309426Y-39733853D01*
X109586665Y-39789000D01*
X109869335Y-39789000D01*
X110146574Y-39733853D01*
X110407727Y-39625680D01*
X110642759Y-39468637D01*
X110842637Y-39268759D01*
X110998000Y-39036241D01*
X111153363Y-39268759D01*
X111353241Y-39468637D01*
X111588273Y-39625680D01*
X111849426Y-39733853D01*
X112126665Y-39789000D01*
X112409335Y-39789000D01*
X112686574Y-39733853D01*
X112947727Y-39625680D01*
X113182759Y-39468637D01*
X113382637Y-39268759D01*
X113538000Y-39036241D01*
X113693363Y-39268759D01*
X113893241Y-39468637D01*
X114128273Y-39625680D01*
X114389426Y-39733853D01*
X114666665Y-39789000D01*
X114949335Y-39789000D01*
X115226574Y-39733853D01*
X115487727Y-39625680D01*
X115722759Y-39468637D01*
X115922637Y-39268759D01*
X116078000Y-39036241D01*
X116233363Y-39268759D01*
X116433241Y-39468637D01*
X116668273Y-39625680D01*
X116929426Y-39733853D01*
X117206665Y-39789000D01*
X117489335Y-39789000D01*
X117766574Y-39733853D01*
X118027727Y-39625680D01*
X118262759Y-39468637D01*
X118462637Y-39268759D01*
X118618000Y-39036241D01*
X118773363Y-39268759D01*
X118973241Y-39468637D01*
X119208273Y-39625680D01*
X119469426Y-39733853D01*
X119746665Y-39789000D01*
X120029335Y-39789000D01*
X120306574Y-39733853D01*
X120567727Y-39625680D01*
X120802759Y-39468637D01*
X121001357Y-39270039D01*
X121002188Y-39278482D01*
X121038498Y-39398180D01*
X121097463Y-39508494D01*
X121176815Y-39605185D01*
X121273506Y-39684537D01*
X121383820Y-39743502D01*
X121503518Y-39779812D01*
X121628000Y-39792072D01*
X123228000Y-39792072D01*
X123352482Y-39779812D01*
X123472180Y-39743502D01*
X123582494Y-39684537D01*
X123679185Y-39605185D01*
X123758537Y-39508494D01*
X123817502Y-39398180D01*
X123853812Y-39278482D01*
X123866072Y-39154000D01*
X123866072Y-39139000D01*
X124454843Y-39139000D01*
X126124745Y-40808902D01*
X100593060Y-40808902D01*
X99573158Y-39789000D01*
X99709335Y-39789000D01*
X99986574Y-39733853D01*
X100247727Y-39625680D01*
X100482759Y-39468637D01*
X100682637Y-39268759D01*
X100838000Y-39036241D01*
X100993363Y-39268759D01*
X101193241Y-39468637D01*
X101428273Y-39625680D01*
X101689426Y-39733853D01*
X101966665Y-39789000D01*
X102249335Y-39789000D01*
X102526574Y-39733853D01*
X102787727Y-39625680D01*
X103022759Y-39468637D01*
X103222637Y-39268759D01*
X103379680Y-39033727D01*
X103384067Y-39023135D01*
X103495615Y-39209131D01*
X103684586Y-39417519D01*
X103910580Y-39585037D01*
X104164913Y-39705246D01*
X104298961Y-39745904D01*
X104521000Y-39623915D01*
X104521000Y-38481000D01*
X104501000Y-38481000D01*
X104501000Y-38227000D01*
X104521000Y-38227000D01*
X104521000Y-38207000D01*
X104775000Y-38207000D01*
X104775000Y-38227000D01*
G37*
X104775000Y-38227000D02*
X104795000Y-38227000D01*
X104795000Y-38481000D01*
X104775000Y-38481000D01*
X104775000Y-39623915D01*
X104997039Y-39745904D01*
X105131087Y-39705246D01*
X105385420Y-39585037D01*
X105611414Y-39417519D01*
X105800385Y-39209131D01*
X105911933Y-39023135D01*
X105916320Y-39033727D01*
X106073363Y-39268759D01*
X106273241Y-39468637D01*
X106508273Y-39625680D01*
X106769426Y-39733853D01*
X107046665Y-39789000D01*
X107329335Y-39789000D01*
X107606574Y-39733853D01*
X107867727Y-39625680D01*
X108102759Y-39468637D01*
X108302637Y-39268759D01*
X108458000Y-39036241D01*
X108613363Y-39268759D01*
X108813241Y-39468637D01*
X109048273Y-39625680D01*
X109309426Y-39733853D01*
X109586665Y-39789000D01*
X109869335Y-39789000D01*
X110146574Y-39733853D01*
X110407727Y-39625680D01*
X110642759Y-39468637D01*
X110842637Y-39268759D01*
X110998000Y-39036241D01*
X111153363Y-39268759D01*
X111353241Y-39468637D01*
X111588273Y-39625680D01*
X111849426Y-39733853D01*
X112126665Y-39789000D01*
X112409335Y-39789000D01*
X112686574Y-39733853D01*
X112947727Y-39625680D01*
X113182759Y-39468637D01*
X113382637Y-39268759D01*
X113538000Y-39036241D01*
X113693363Y-39268759D01*
X113893241Y-39468637D01*
X114128273Y-39625680D01*
X114389426Y-39733853D01*
X114666665Y-39789000D01*
X114949335Y-39789000D01*
X115226574Y-39733853D01*
X115487727Y-39625680D01*
X115722759Y-39468637D01*
X115922637Y-39268759D01*
X116078000Y-39036241D01*
X116233363Y-39268759D01*
X116433241Y-39468637D01*
X116668273Y-39625680D01*
X116929426Y-39733853D01*
X117206665Y-39789000D01*
X117489335Y-39789000D01*
X117766574Y-39733853D01*
X118027727Y-39625680D01*
X118262759Y-39468637D01*
X118462637Y-39268759D01*
X118618000Y-39036241D01*
X118773363Y-39268759D01*
X118973241Y-39468637D01*
X119208273Y-39625680D01*
X119469426Y-39733853D01*
X119746665Y-39789000D01*
X120029335Y-39789000D01*
X120306574Y-39733853D01*
X120567727Y-39625680D01*
X120802759Y-39468637D01*
X121001357Y-39270039D01*
X121002188Y-39278482D01*
X121038498Y-39398180D01*
X121097463Y-39508494D01*
X121176815Y-39605185D01*
X121273506Y-39684537D01*
X121383820Y-39743502D01*
X121503518Y-39779812D01*
X121628000Y-39792072D01*
X123228000Y-39792072D01*
X123352482Y-39779812D01*
X123472180Y-39743502D01*
X123582494Y-39684537D01*
X123679185Y-39605185D01*
X123758537Y-39508494D01*
X123817502Y-39398180D01*
X123853812Y-39278482D01*
X123866072Y-39154000D01*
X123866072Y-39139000D01*
X124454843Y-39139000D01*
X126124745Y-40808902D01*
X100593060Y-40808902D01*
X99573158Y-39789000D01*
X99709335Y-39789000D01*
X99986574Y-39733853D01*
X100247727Y-39625680D01*
X100482759Y-39468637D01*
X100682637Y-39268759D01*
X100838000Y-39036241D01*
X100993363Y-39268759D01*
X101193241Y-39468637D01*
X101428273Y-39625680D01*
X101689426Y-39733853D01*
X101966665Y-39789000D01*
X102249335Y-39789000D01*
X102526574Y-39733853D01*
X102787727Y-39625680D01*
X103022759Y-39468637D01*
X103222637Y-39268759D01*
X103379680Y-39033727D01*
X103384067Y-39023135D01*
X103495615Y-39209131D01*
X103684586Y-39417519D01*
X103910580Y-39585037D01*
X104164913Y-39705246D01*
X104298961Y-39745904D01*
X104521000Y-39623915D01*
X104521000Y-38481000D01*
X104501000Y-38481000D01*
X104501000Y-38227000D01*
X104521000Y-38227000D01*
X104521000Y-38207000D01*
X104775000Y-38207000D01*
X104775000Y-38227000D01*
G36*
X142367000Y-40259000D02*
G01*
X142387000Y-40259000D01*
X142387000Y-40513000D01*
X142367000Y-40513000D01*
X142367000Y-40533000D01*
X142113000Y-40533000D01*
X142113000Y-40513000D01*
X142093000Y-40513000D01*
X142093000Y-40259000D01*
X142113000Y-40259000D01*
X142113000Y-40239000D01*
X142367000Y-40239000D01*
X142367000Y-40259000D01*
G37*
X142367000Y-40259000D02*
X142387000Y-40259000D01*
X142387000Y-40513000D01*
X142367000Y-40513000D01*
X142367000Y-40533000D01*
X142113000Y-40533000D01*
X142113000Y-40513000D01*
X142093000Y-40513000D01*
X142093000Y-40259000D01*
X142113000Y-40259000D01*
X142113000Y-40239000D01*
X142367000Y-40239000D01*
X142367000Y-40259000D01*
G36*
X96409252Y-33130409D02*
G01*
X96433835Y-33160363D01*
X96553366Y-33258461D01*
X96681457Y-33326926D01*
X96689739Y-33331353D01*
X96837712Y-33376241D01*
X96912625Y-33383619D01*
X96953038Y-33387599D01*
X96953043Y-33387599D01*
X96991599Y-33391396D01*
X97030155Y-33387599D01*
X99606056Y-33387599D01*
X99580000Y-33518589D01*
X99580000Y-33791411D01*
X99633225Y-34058989D01*
X99737629Y-34311043D01*
X99889201Y-34537886D01*
X100082114Y-34730799D01*
X100308957Y-34882371D01*
X100561011Y-34986775D01*
X100828589Y-35040000D01*
X101101411Y-35040000D01*
X101368989Y-34986775D01*
X101621043Y-34882371D01*
X101847886Y-34730799D01*
X102040799Y-34537886D01*
X102192371Y-34311043D01*
X102296775Y-34058989D01*
X102350000Y-33791411D01*
X102350000Y-33518589D01*
X102323944Y-33387599D01*
X104486056Y-33387599D01*
X104460000Y-33518589D01*
X104460000Y-33791411D01*
X104513225Y-34058989D01*
X104617629Y-34311043D01*
X104769201Y-34537886D01*
X104962114Y-34730799D01*
X105188957Y-34882371D01*
X105441011Y-34986775D01*
X105708589Y-35040000D01*
X105981411Y-35040000D01*
X106248989Y-34986775D01*
X106501043Y-34882371D01*
X106727886Y-34730799D01*
X106920799Y-34537886D01*
X107072371Y-34311043D01*
X107176775Y-34058989D01*
X107201975Y-33932298D01*
X110565903Y-33932298D01*
X111379000Y-34745395D01*
X112192097Y-33932298D01*
X112120514Y-33688329D01*
X111865004Y-33567429D01*
X111590816Y-33498700D01*
X111308488Y-33484783D01*
X111028870Y-33526213D01*
X110762708Y-33621397D01*
X110637486Y-33688329D01*
X110565903Y-33932298D01*
X107201975Y-33932298D01*
X107230000Y-33791411D01*
X107230000Y-33518589D01*
X107203944Y-33387599D01*
X113753774Y-33387599D01*
X113856175Y-33490000D01*
X113737665Y-33490000D01*
X113460426Y-33545147D01*
X113199273Y-33653320D01*
X112964241Y-33810363D01*
X112764363Y-34010241D01*
X112630308Y-34210869D01*
X112615671Y-34183486D01*
X112371702Y-34111903D01*
X111558605Y-34925000D01*
X111572748Y-34939143D01*
X111393143Y-35118748D01*
X111379000Y-35104605D01*
X111364858Y-35118748D01*
X111185253Y-34939143D01*
X111199395Y-34925000D01*
X110386298Y-34111903D01*
X110142329Y-34183486D01*
X110021429Y-34438996D01*
X109952700Y-34713184D01*
X109938783Y-34995512D01*
X109975364Y-35242401D01*
X107949336Y-35242401D01*
X107903401Y-35237877D01*
X107857466Y-35242401D01*
X95076987Y-35242401D01*
X95087072Y-35140000D01*
X95087072Y-33440000D01*
X95074812Y-33315518D01*
X95038502Y-33195820D01*
X94979537Y-33085506D01*
X94900185Y-32988815D01*
X94803494Y-32909463D01*
X94693180Y-32850498D01*
X94620620Y-32828487D01*
X94752475Y-32696632D01*
X94914990Y-32453411D01*
X95026932Y-32183158D01*
X95084000Y-31896260D01*
X95084000Y-31805157D01*
X96409252Y-33130409D01*
G37*
X96409252Y-33130409D02*
X96433835Y-33160363D01*
X96553366Y-33258461D01*
X96681457Y-33326926D01*
X96689739Y-33331353D01*
X96837712Y-33376241D01*
X96912625Y-33383619D01*
X96953038Y-33387599D01*
X96953043Y-33387599D01*
X96991599Y-33391396D01*
X97030155Y-33387599D01*
X99606056Y-33387599D01*
X99580000Y-33518589D01*
X99580000Y-33791411D01*
X99633225Y-34058989D01*
X99737629Y-34311043D01*
X99889201Y-34537886D01*
X100082114Y-34730799D01*
X100308957Y-34882371D01*
X100561011Y-34986775D01*
X100828589Y-35040000D01*
X101101411Y-35040000D01*
X101368989Y-34986775D01*
X101621043Y-34882371D01*
X101847886Y-34730799D01*
X102040799Y-34537886D01*
X102192371Y-34311043D01*
X102296775Y-34058989D01*
X102350000Y-33791411D01*
X102350000Y-33518589D01*
X102323944Y-33387599D01*
X104486056Y-33387599D01*
X104460000Y-33518589D01*
X104460000Y-33791411D01*
X104513225Y-34058989D01*
X104617629Y-34311043D01*
X104769201Y-34537886D01*
X104962114Y-34730799D01*
X105188957Y-34882371D01*
X105441011Y-34986775D01*
X105708589Y-35040000D01*
X105981411Y-35040000D01*
X106248989Y-34986775D01*
X106501043Y-34882371D01*
X106727886Y-34730799D01*
X106920799Y-34537886D01*
X107072371Y-34311043D01*
X107176775Y-34058989D01*
X107201975Y-33932298D01*
X110565903Y-33932298D01*
X111379000Y-34745395D01*
X112192097Y-33932298D01*
X112120514Y-33688329D01*
X111865004Y-33567429D01*
X111590816Y-33498700D01*
X111308488Y-33484783D01*
X111028870Y-33526213D01*
X110762708Y-33621397D01*
X110637486Y-33688329D01*
X110565903Y-33932298D01*
X107201975Y-33932298D01*
X107230000Y-33791411D01*
X107230000Y-33518589D01*
X107203944Y-33387599D01*
X113753774Y-33387599D01*
X113856175Y-33490000D01*
X113737665Y-33490000D01*
X113460426Y-33545147D01*
X113199273Y-33653320D01*
X112964241Y-33810363D01*
X112764363Y-34010241D01*
X112630308Y-34210869D01*
X112615671Y-34183486D01*
X112371702Y-34111903D01*
X111558605Y-34925000D01*
X111572748Y-34939143D01*
X111393143Y-35118748D01*
X111379000Y-35104605D01*
X111364858Y-35118748D01*
X111185253Y-34939143D01*
X111199395Y-34925000D01*
X110386298Y-34111903D01*
X110142329Y-34183486D01*
X110021429Y-34438996D01*
X109952700Y-34713184D01*
X109938783Y-34995512D01*
X109975364Y-35242401D01*
X107949336Y-35242401D01*
X107903401Y-35237877D01*
X107857466Y-35242401D01*
X95076987Y-35242401D01*
X95087072Y-35140000D01*
X95087072Y-33440000D01*
X95074812Y-33315518D01*
X95038502Y-33195820D01*
X94979537Y-33085506D01*
X94900185Y-32988815D01*
X94803494Y-32909463D01*
X94693180Y-32850498D01*
X94620620Y-32828487D01*
X94752475Y-32696632D01*
X94914990Y-32453411D01*
X95026932Y-32183158D01*
X95084000Y-31896260D01*
X95084000Y-31805157D01*
X96409252Y-33130409D01*
G36*
X117565000Y-34161600D02*
G01*
X117548000Y-34161600D01*
X117548000Y-34141600D01*
X117528000Y-34141600D01*
X117528000Y-33887600D01*
X117548000Y-33887600D01*
X117548000Y-33867600D01*
X117565000Y-33867600D01*
X117565000Y-34161600D01*
G37*
X117565000Y-34161600D02*
X117548000Y-34161600D01*
X117548000Y-34141600D01*
X117528000Y-34141600D01*
X117528000Y-33887600D01*
X117548000Y-33887600D01*
X117548000Y-33867600D01*
X117565000Y-33867600D01*
X117565000Y-34161600D01*
G36*
X123752000Y-33887600D02*
G01*
X123772000Y-33887600D01*
X123772000Y-34032010D01*
X123735000Y-34032010D01*
X123735000Y-33867600D01*
X123752000Y-33867600D01*
X123752000Y-33887600D01*
G37*
X123752000Y-33887600D02*
X123772000Y-33887600D01*
X123772000Y-34032010D01*
X123735000Y-34032010D01*
X123735000Y-33867600D01*
X123752000Y-33867600D01*
X123752000Y-33887600D01*
G36*
X125102000Y-32907600D02*
G01*
X125122000Y-32907600D01*
X125122000Y-33161600D01*
X125102000Y-33161600D01*
X125102000Y-33181600D01*
X124848000Y-33181600D01*
X124848000Y-33161600D01*
X124828000Y-33161600D01*
X124828000Y-32907600D01*
X124848000Y-32907600D01*
X124848000Y-32887600D01*
X125102000Y-32887600D01*
X125102000Y-32907600D01*
G37*
X125102000Y-32907600D02*
X125122000Y-32907600D01*
X125122000Y-33161600D01*
X125102000Y-33161600D01*
X125102000Y-33181600D01*
X124848000Y-33181600D01*
X124848000Y-33161600D01*
X124828000Y-33161600D01*
X124828000Y-32907600D01*
X124848000Y-32907600D01*
X124848000Y-32887600D01*
X125102000Y-32887600D01*
X125102000Y-32907600D01*
G36*
X138543304Y-29455595D02*
G01*
X138492000Y-29713514D01*
X138492000Y-29976486D01*
X138543304Y-30234405D01*
X138643939Y-30477359D01*
X138790038Y-30696013D01*
X138975987Y-30881962D01*
X139194641Y-31028061D01*
X139437595Y-31128696D01*
X139695514Y-31180000D01*
X139958486Y-31180000D01*
X140216405Y-31128696D01*
X140459359Y-31028061D01*
X140678013Y-30881962D01*
X140863962Y-30696013D01*
X140905000Y-30634595D01*
X140905000Y-30738486D01*
X140920489Y-30816353D01*
X138897843Y-32839000D01*
X133024183Y-32839000D01*
X133027900Y-32820315D01*
X133027900Y-32627685D01*
X132990320Y-32438757D01*
X132916604Y-32260790D01*
X132876730Y-32201114D01*
X132930844Y-32147000D01*
X135416928Y-32147000D01*
X135429188Y-32271482D01*
X135465498Y-32391180D01*
X135524463Y-32501494D01*
X135603815Y-32598185D01*
X135700506Y-32677537D01*
X135810820Y-32736502D01*
X135930518Y-32772812D01*
X136055000Y-32785072D01*
X136594250Y-32782000D01*
X136753000Y-32623250D01*
X136753000Y-31449000D01*
X137007000Y-31449000D01*
X137007000Y-32623250D01*
X137165750Y-32782000D01*
X137705000Y-32785072D01*
X137829482Y-32772812D01*
X137949180Y-32736502D01*
X138059494Y-32677537D01*
X138156185Y-32598185D01*
X138235537Y-32501494D01*
X138294502Y-32391180D01*
X138330812Y-32271482D01*
X138343072Y-32147000D01*
X138340000Y-31607750D01*
X138181250Y-31449000D01*
X137007000Y-31449000D01*
X136753000Y-31449000D01*
X135578750Y-31449000D01*
X135420000Y-31607750D01*
X135416928Y-32147000D01*
X132930844Y-32147000D01*
X133000450Y-32077394D01*
X133130134Y-31883308D01*
X133219461Y-31667652D01*
X133265000Y-31438712D01*
X133265000Y-31205288D01*
X133219461Y-30976348D01*
X133130134Y-30760692D01*
X133000450Y-30566606D01*
X132930844Y-30497000D01*
X135416928Y-30497000D01*
X135420000Y-31036250D01*
X135578750Y-31195000D01*
X136753000Y-31195000D01*
X136753000Y-30020750D01*
X137007000Y-30020750D01*
X137007000Y-31195000D01*
X138181250Y-31195000D01*
X138340000Y-31036250D01*
X138343072Y-30497000D01*
X138330812Y-30372518D01*
X138294502Y-30252820D01*
X138235537Y-30142506D01*
X138156185Y-30045815D01*
X138059494Y-29966463D01*
X137949180Y-29907498D01*
X137829482Y-29871188D01*
X137705000Y-29858928D01*
X137165750Y-29862000D01*
X137007000Y-30020750D01*
X136753000Y-30020750D01*
X136594250Y-29862000D01*
X136055000Y-29858928D01*
X135930518Y-29871188D01*
X135810820Y-29907498D01*
X135700506Y-29966463D01*
X135603815Y-30045815D01*
X135524463Y-30142506D01*
X135465498Y-30252820D01*
X135429188Y-30372518D01*
X135416928Y-30497000D01*
X132930844Y-30497000D01*
X132835394Y-30401550D01*
X132641308Y-30271866D01*
X132425652Y-30182539D01*
X132196712Y-30137000D01*
X131963288Y-30137000D01*
X131734348Y-30182539D01*
X131518692Y-30271866D01*
X131324606Y-30401550D01*
X131159550Y-30566606D01*
X131029866Y-30760692D01*
X130940539Y-30976348D01*
X130895000Y-31205288D01*
X130895000Y-31438712D01*
X130940539Y-31667652D01*
X131029866Y-31883308D01*
X131067078Y-31939000D01*
X128904723Y-31939000D01*
X128983893Y-31747866D01*
X129040000Y-31465797D01*
X129040000Y-31178203D01*
X128983893Y-30896134D01*
X128873835Y-30630431D01*
X128714056Y-30391304D01*
X128510696Y-30187944D01*
X128271569Y-30028165D01*
X128005866Y-29918107D01*
X127723797Y-29862000D01*
X127436203Y-29862000D01*
X127154134Y-29918107D01*
X126888431Y-30028165D01*
X126649304Y-30187944D01*
X126445944Y-30391304D01*
X126286165Y-30630431D01*
X126176107Y-30896134D01*
X126120000Y-31178203D01*
X126120000Y-31255375D01*
X125869005Y-31004380D01*
X125844422Y-30974426D01*
X125724891Y-30876328D01*
X125701811Y-30863992D01*
X125806587Y-30762991D01*
X125928809Y-30587145D01*
X126014376Y-30390833D01*
X126060000Y-30181600D01*
X126060000Y-29781600D01*
X125102000Y-29781600D01*
X125102000Y-29801600D01*
X124848000Y-29801600D01*
X124848000Y-29781600D01*
X123890000Y-29781600D01*
X123890000Y-30181600D01*
X123935624Y-30390833D01*
X124021191Y-30587145D01*
X124132430Y-30747190D01*
X122472568Y-30747190D01*
X123890000Y-29329758D01*
X123890000Y-29527600D01*
X124848000Y-29527600D01*
X124848000Y-29507600D01*
X125102000Y-29507600D01*
X125102000Y-29527600D01*
X126060000Y-29527600D01*
X126060000Y-29309000D01*
X138604026Y-29309000D01*
X138543304Y-29455595D01*
G37*
X138543304Y-29455595D02*
X138492000Y-29713514D01*
X138492000Y-29976486D01*
X138543304Y-30234405D01*
X138643939Y-30477359D01*
X138790038Y-30696013D01*
X138975987Y-30881962D01*
X139194641Y-31028061D01*
X139437595Y-31128696D01*
X139695514Y-31180000D01*
X139958486Y-31180000D01*
X140216405Y-31128696D01*
X140459359Y-31028061D01*
X140678013Y-30881962D01*
X140863962Y-30696013D01*
X140905000Y-30634595D01*
X140905000Y-30738486D01*
X140920489Y-30816353D01*
X138897843Y-32839000D01*
X133024183Y-32839000D01*
X133027900Y-32820315D01*
X133027900Y-32627685D01*
X132990320Y-32438757D01*
X132916604Y-32260790D01*
X132876730Y-32201114D01*
X132930844Y-32147000D01*
X135416928Y-32147000D01*
X135429188Y-32271482D01*
X135465498Y-32391180D01*
X135524463Y-32501494D01*
X135603815Y-32598185D01*
X135700506Y-32677537D01*
X135810820Y-32736502D01*
X135930518Y-32772812D01*
X136055000Y-32785072D01*
X136594250Y-32782000D01*
X136753000Y-32623250D01*
X136753000Y-31449000D01*
X137007000Y-31449000D01*
X137007000Y-32623250D01*
X137165750Y-32782000D01*
X137705000Y-32785072D01*
X137829482Y-32772812D01*
X137949180Y-32736502D01*
X138059494Y-32677537D01*
X138156185Y-32598185D01*
X138235537Y-32501494D01*
X138294502Y-32391180D01*
X138330812Y-32271482D01*
X138343072Y-32147000D01*
X138340000Y-31607750D01*
X138181250Y-31449000D01*
X137007000Y-31449000D01*
X136753000Y-31449000D01*
X135578750Y-31449000D01*
X135420000Y-31607750D01*
X135416928Y-32147000D01*
X132930844Y-32147000D01*
X133000450Y-32077394D01*
X133130134Y-31883308D01*
X133219461Y-31667652D01*
X133265000Y-31438712D01*
X133265000Y-31205288D01*
X133219461Y-30976348D01*
X133130134Y-30760692D01*
X133000450Y-30566606D01*
X132930844Y-30497000D01*
X135416928Y-30497000D01*
X135420000Y-31036250D01*
X135578750Y-31195000D01*
X136753000Y-31195000D01*
X136753000Y-30020750D01*
X137007000Y-30020750D01*
X137007000Y-31195000D01*
X138181250Y-31195000D01*
X138340000Y-31036250D01*
X138343072Y-30497000D01*
X138330812Y-30372518D01*
X138294502Y-30252820D01*
X138235537Y-30142506D01*
X138156185Y-30045815D01*
X138059494Y-29966463D01*
X137949180Y-29907498D01*
X137829482Y-29871188D01*
X137705000Y-29858928D01*
X137165750Y-29862000D01*
X137007000Y-30020750D01*
X136753000Y-30020750D01*
X136594250Y-29862000D01*
X136055000Y-29858928D01*
X135930518Y-29871188D01*
X135810820Y-29907498D01*
X135700506Y-29966463D01*
X135603815Y-30045815D01*
X135524463Y-30142506D01*
X135465498Y-30252820D01*
X135429188Y-30372518D01*
X135416928Y-30497000D01*
X132930844Y-30497000D01*
X132835394Y-30401550D01*
X132641308Y-30271866D01*
X132425652Y-30182539D01*
X132196712Y-30137000D01*
X131963288Y-30137000D01*
X131734348Y-30182539D01*
X131518692Y-30271866D01*
X131324606Y-30401550D01*
X131159550Y-30566606D01*
X131029866Y-30760692D01*
X130940539Y-30976348D01*
X130895000Y-31205288D01*
X130895000Y-31438712D01*
X130940539Y-31667652D01*
X131029866Y-31883308D01*
X131067078Y-31939000D01*
X128904723Y-31939000D01*
X128983893Y-31747866D01*
X129040000Y-31465797D01*
X129040000Y-31178203D01*
X128983893Y-30896134D01*
X128873835Y-30630431D01*
X128714056Y-30391304D01*
X128510696Y-30187944D01*
X128271569Y-30028165D01*
X128005866Y-29918107D01*
X127723797Y-29862000D01*
X127436203Y-29862000D01*
X127154134Y-29918107D01*
X126888431Y-30028165D01*
X126649304Y-30187944D01*
X126445944Y-30391304D01*
X126286165Y-30630431D01*
X126176107Y-30896134D01*
X126120000Y-31178203D01*
X126120000Y-31255375D01*
X125869005Y-31004380D01*
X125844422Y-30974426D01*
X125724891Y-30876328D01*
X125701811Y-30863992D01*
X125806587Y-30762991D01*
X125928809Y-30587145D01*
X126014376Y-30390833D01*
X126060000Y-30181600D01*
X126060000Y-29781600D01*
X125102000Y-29781600D01*
X125102000Y-29801600D01*
X124848000Y-29801600D01*
X124848000Y-29781600D01*
X123890000Y-29781600D01*
X123890000Y-30181600D01*
X123935624Y-30390833D01*
X124021191Y-30587145D01*
X124132430Y-30747190D01*
X122472568Y-30747190D01*
X123890000Y-29329758D01*
X123890000Y-29527600D01*
X124848000Y-29527600D01*
X124848000Y-29507600D01*
X125102000Y-29507600D01*
X125102000Y-29527600D01*
X126060000Y-29527600D01*
X126060000Y-29309000D01*
X138604026Y-29309000D01*
X138543304Y-29455595D01*
G36*
X123752000Y-32562600D02*
G01*
X123772000Y-32562600D01*
X123772000Y-32816600D01*
X123752000Y-32816600D01*
X123752000Y-32836600D01*
X123730000Y-32836600D01*
X123730000Y-32542600D01*
X123752000Y-32542600D01*
X123752000Y-32562600D01*
G37*
X123752000Y-32562600D02*
X123772000Y-32562600D01*
X123772000Y-32816600D01*
X123752000Y-32816600D01*
X123752000Y-32836600D01*
X123730000Y-32836600D01*
X123730000Y-32542600D01*
X123752000Y-32542600D01*
X123752000Y-32562600D01*
%TD*%
M02*
