%TF.GenerationSoftware,KiCad,Pcbnew,(5.1.6-0-10_14)*%
%TF.CreationDate,2020-07-26T16:45:55-04:00*%
%TF.ProjectId,pin-check,70696e2d-6368-4656-936b-2e6b69636164,v1.0.0*%
%TF.SameCoordinates,Original*%
%TF.FileFunction,Legend,Bot*%
%TF.FilePolarity,Positive*%
%FSLAX46Y46*%
G04 Gerber Fmt 4.6, Leading zero omitted, Abs format (unit mm)*
G04 Created by KiCad (PCBNEW (5.1.6-0-10_14)) date 2020-07-26 16:45:55*
%MOMM*%
%LPD*%
G01*
G04 APERTURE LIST*
%ADD10C,0.250000*%
%ADD11C,0.150000*%
G04 APERTURE END LIST*
D10*
X95816666Y-71559714D02*
X95816666Y-72559714D01*
X95816666Y-71607333D02*
X95721428Y-71559714D01*
X95530952Y-71559714D01*
X95435714Y-71607333D01*
X95388095Y-71654952D01*
X95340476Y-71750190D01*
X95340476Y-72035904D01*
X95388095Y-72131142D01*
X95435714Y-72178761D01*
X95530952Y-72226380D01*
X95721428Y-72226380D01*
X95816666Y-72178761D01*
X94911904Y-72226380D02*
X94911904Y-71559714D01*
X94911904Y-71226380D02*
X94959523Y-71274000D01*
X94911904Y-71321619D01*
X94864285Y-71274000D01*
X94911904Y-71226380D01*
X94911904Y-71321619D01*
X94435714Y-71559714D02*
X94435714Y-72226380D01*
X94435714Y-71654952D02*
X94388095Y-71607333D01*
X94292857Y-71559714D01*
X94150000Y-71559714D01*
X94054761Y-71607333D01*
X94007142Y-71702571D01*
X94007142Y-72226380D01*
X93530952Y-71845428D02*
X92769047Y-71845428D01*
X91864285Y-72178761D02*
X91959523Y-72226380D01*
X92150000Y-72226380D01*
X92245238Y-72178761D01*
X92292857Y-72131142D01*
X92340476Y-72035904D01*
X92340476Y-71750190D01*
X92292857Y-71654952D01*
X92245238Y-71607333D01*
X92150000Y-71559714D01*
X91959523Y-71559714D01*
X91864285Y-71607333D01*
X91435714Y-72226380D02*
X91435714Y-71226380D01*
X91007142Y-72226380D02*
X91007142Y-71702571D01*
X91054761Y-71607333D01*
X91150000Y-71559714D01*
X91292857Y-71559714D01*
X91388095Y-71607333D01*
X91435714Y-71654952D01*
X90150000Y-72178761D02*
X90245238Y-72226380D01*
X90435714Y-72226380D01*
X90530952Y-72178761D01*
X90578571Y-72083523D01*
X90578571Y-71702571D01*
X90530952Y-71607333D01*
X90435714Y-71559714D01*
X90245238Y-71559714D01*
X90150000Y-71607333D01*
X90102380Y-71702571D01*
X90102380Y-71797809D01*
X90578571Y-71893047D01*
X89245238Y-72178761D02*
X89340476Y-72226380D01*
X89530952Y-72226380D01*
X89626190Y-72178761D01*
X89673809Y-72131142D01*
X89721428Y-72035904D01*
X89721428Y-71750190D01*
X89673809Y-71654952D01*
X89626190Y-71607333D01*
X89530952Y-71559714D01*
X89340476Y-71559714D01*
X89245238Y-71607333D01*
X88816666Y-72226380D02*
X88816666Y-71226380D01*
X88721428Y-71845428D02*
X88435714Y-72226380D01*
X88435714Y-71559714D02*
X88816666Y-71940666D01*
X94292857Y-73309714D02*
X94054761Y-73976380D01*
X93816666Y-73309714D01*
X92911904Y-73976380D02*
X93483333Y-73976380D01*
X93197619Y-73976380D02*
X93197619Y-72976380D01*
X93292857Y-73119238D01*
X93388095Y-73214476D01*
X93483333Y-73262095D01*
X92483333Y-73881142D02*
X92435714Y-73928761D01*
X92483333Y-73976380D01*
X92530952Y-73928761D01*
X92483333Y-73881142D01*
X92483333Y-73976380D01*
X91816666Y-72976380D02*
X91721428Y-72976380D01*
X91626190Y-73024000D01*
X91578571Y-73071619D01*
X91530952Y-73166857D01*
X91483333Y-73357333D01*
X91483333Y-73595428D01*
X91530952Y-73785904D01*
X91578571Y-73881142D01*
X91626190Y-73928761D01*
X91721428Y-73976380D01*
X91816666Y-73976380D01*
X91911904Y-73928761D01*
X91959523Y-73881142D01*
X92007142Y-73785904D01*
X92054761Y-73595428D01*
X92054761Y-73357333D01*
X92007142Y-73166857D01*
X91959523Y-73071619D01*
X91911904Y-73024000D01*
X91816666Y-72976380D01*
X91054761Y-73881142D02*
X91007142Y-73928761D01*
X91054761Y-73976380D01*
X91102380Y-73928761D01*
X91054761Y-73881142D01*
X91054761Y-73976380D01*
X90388095Y-72976380D02*
X90292857Y-72976380D01*
X90197619Y-73024000D01*
X90150000Y-73071619D01*
X90102380Y-73166857D01*
X90054761Y-73357333D01*
X90054761Y-73595428D01*
X90102380Y-73785904D01*
X90150000Y-73881142D01*
X90197619Y-73928761D01*
X90292857Y-73976380D01*
X90388095Y-73976380D01*
X90483333Y-73928761D01*
X90530952Y-73881142D01*
X90578571Y-73785904D01*
X90626190Y-73595428D01*
X90626190Y-73357333D01*
X90578571Y-73166857D01*
X90530952Y-73071619D01*
X90483333Y-73024000D01*
X90388095Y-72976380D01*
X95030952Y-75726380D02*
X95030952Y-74726380D01*
X95030952Y-75107333D02*
X94935714Y-75059714D01*
X94745238Y-75059714D01*
X94650000Y-75107333D01*
X94602380Y-75154952D01*
X94554761Y-75250190D01*
X94554761Y-75535904D01*
X94602380Y-75631142D01*
X94650000Y-75678761D01*
X94745238Y-75726380D01*
X94935714Y-75726380D01*
X95030952Y-75678761D01*
X94221428Y-75059714D02*
X93983333Y-75726380D01*
X93745238Y-75059714D02*
X93983333Y-75726380D01*
X94078571Y-75964476D01*
X94126190Y-76012095D01*
X94221428Y-76059714D01*
X92602380Y-75726380D02*
X92602380Y-74726380D01*
X92602380Y-75107333D02*
X92507142Y-75059714D01*
X92316666Y-75059714D01*
X92221428Y-75107333D01*
X92173809Y-75154952D01*
X92126190Y-75250190D01*
X92126190Y-75535904D01*
X92173809Y-75631142D01*
X92221428Y-75678761D01*
X92316666Y-75726380D01*
X92507142Y-75726380D01*
X92602380Y-75678761D01*
X91697619Y-75726380D02*
X91697619Y-75059714D01*
X91697619Y-75250190D02*
X91650000Y-75154952D01*
X91602380Y-75107333D01*
X91507142Y-75059714D01*
X91411904Y-75059714D01*
X91078571Y-75726380D02*
X91078571Y-75059714D01*
X91078571Y-74726380D02*
X91126190Y-74774000D01*
X91078571Y-74821619D01*
X91030952Y-74774000D01*
X91078571Y-74726380D01*
X91078571Y-74821619D01*
X90173809Y-75726380D02*
X90173809Y-75202571D01*
X90221428Y-75107333D01*
X90316666Y-75059714D01*
X90507142Y-75059714D01*
X90602380Y-75107333D01*
X90173809Y-75678761D02*
X90269047Y-75726380D01*
X90507142Y-75726380D01*
X90602380Y-75678761D01*
X90650000Y-75583523D01*
X90650000Y-75488285D01*
X90602380Y-75393047D01*
X90507142Y-75345428D01*
X90269047Y-75345428D01*
X90173809Y-75297809D01*
X89697619Y-75059714D02*
X89697619Y-75726380D01*
X89697619Y-75154952D02*
X89650000Y-75107333D01*
X89554761Y-75059714D01*
X89411904Y-75059714D01*
X89316666Y-75107333D01*
X89269047Y-75202571D01*
X89269047Y-75726380D01*
%TO.C,H10*%
D11*
X127372695Y-74340980D02*
X127372695Y-73340980D01*
X127372695Y-73817171D02*
X126801266Y-73817171D01*
X126801266Y-74340980D02*
X126801266Y-73340980D01*
X125801266Y-74340980D02*
X126372695Y-74340980D01*
X126086980Y-74340980D02*
X126086980Y-73340980D01*
X126182219Y-73483838D01*
X126277457Y-73579076D01*
X126372695Y-73626695D01*
X125182219Y-73340980D02*
X125086980Y-73340980D01*
X124991742Y-73388600D01*
X124944123Y-73436219D01*
X124896504Y-73531457D01*
X124848885Y-73721933D01*
X124848885Y-73960028D01*
X124896504Y-74150504D01*
X124944123Y-74245742D01*
X124991742Y-74293361D01*
X125086980Y-74340980D01*
X125182219Y-74340980D01*
X125277457Y-74293361D01*
X125325076Y-74245742D01*
X125372695Y-74150504D01*
X125420314Y-73960028D01*
X125420314Y-73721933D01*
X125372695Y-73531457D01*
X125325076Y-73436219D01*
X125277457Y-73388600D01*
X125182219Y-73340980D01*
%TO.C,H9*%
X130459304Y-74340980D02*
X130459304Y-73340980D01*
X130459304Y-73817171D02*
X129887876Y-73817171D01*
X129887876Y-74340980D02*
X129887876Y-73340980D01*
X129364066Y-74340980D02*
X129173590Y-74340980D01*
X129078352Y-74293361D01*
X129030733Y-74245742D01*
X128935495Y-74102885D01*
X128887876Y-73912409D01*
X128887876Y-73531457D01*
X128935495Y-73436219D01*
X128983114Y-73388600D01*
X129078352Y-73340980D01*
X129268828Y-73340980D01*
X129364066Y-73388600D01*
X129411685Y-73436219D01*
X129459304Y-73531457D01*
X129459304Y-73769552D01*
X129411685Y-73864790D01*
X129364066Y-73912409D01*
X129268828Y-73960028D01*
X129078352Y-73960028D01*
X128983114Y-73912409D01*
X128935495Y-73864790D01*
X128887876Y-73769552D01*
%TO.C,H8*%
X134022104Y-74340980D02*
X134022104Y-73340980D01*
X134022104Y-73817171D02*
X133450676Y-73817171D01*
X133450676Y-74340980D02*
X133450676Y-73340980D01*
X132831628Y-73769552D02*
X132926866Y-73721933D01*
X132974485Y-73674314D01*
X133022104Y-73579076D01*
X133022104Y-73531457D01*
X132974485Y-73436219D01*
X132926866Y-73388600D01*
X132831628Y-73340980D01*
X132641152Y-73340980D01*
X132545914Y-73388600D01*
X132498295Y-73436219D01*
X132450676Y-73531457D01*
X132450676Y-73579076D01*
X132498295Y-73674314D01*
X132545914Y-73721933D01*
X132641152Y-73769552D01*
X132831628Y-73769552D01*
X132926866Y-73817171D01*
X132974485Y-73864790D01*
X133022104Y-73960028D01*
X133022104Y-74150504D01*
X132974485Y-74245742D01*
X132926866Y-74293361D01*
X132831628Y-74340980D01*
X132641152Y-74340980D01*
X132545914Y-74293361D01*
X132498295Y-74245742D01*
X132450676Y-74150504D01*
X132450676Y-73960028D01*
X132498295Y-73864790D01*
X132545914Y-73817171D01*
X132641152Y-73769552D01*
%TO.C,H7*%
X137642504Y-74340980D02*
X137642504Y-73340980D01*
X137642504Y-73817171D02*
X137071076Y-73817171D01*
X137071076Y-74340980D02*
X137071076Y-73340980D01*
X136690123Y-73340980D02*
X136023457Y-73340980D01*
X136452028Y-74340980D01*
%TO.C,H6*%
X141249304Y-74340980D02*
X141249304Y-73340980D01*
X141249304Y-73817171D02*
X140677876Y-73817171D01*
X140677876Y-74340980D02*
X140677876Y-73340980D01*
X139773114Y-73340980D02*
X139963590Y-73340980D01*
X140058828Y-73388600D01*
X140106447Y-73436219D01*
X140201685Y-73579076D01*
X140249304Y-73769552D01*
X140249304Y-74150504D01*
X140201685Y-74245742D01*
X140154066Y-74293361D01*
X140058828Y-74340980D01*
X139868352Y-74340980D01*
X139773114Y-74293361D01*
X139725495Y-74245742D01*
X139677876Y-74150504D01*
X139677876Y-73912409D01*
X139725495Y-73817171D01*
X139773114Y-73769552D01*
X139868352Y-73721933D01*
X140058828Y-73721933D01*
X140154066Y-73769552D01*
X140201685Y-73817171D01*
X140249304Y-73912409D01*
%TO.C,H11*%
X123647495Y-74340980D02*
X123647495Y-73340980D01*
X123647495Y-73817171D02*
X123076066Y-73817171D01*
X123076066Y-74340980D02*
X123076066Y-73340980D01*
X122076066Y-74340980D02*
X122647495Y-74340980D01*
X122361780Y-74340980D02*
X122361780Y-73340980D01*
X122457019Y-73483838D01*
X122552257Y-73579076D01*
X122647495Y-73626695D01*
X121123685Y-74340980D02*
X121695114Y-74340980D01*
X121409400Y-74340980D02*
X121409400Y-73340980D01*
X121504638Y-73483838D01*
X121599876Y-73579076D01*
X121695114Y-73626695D01*
%TO.C,H14*%
X112871095Y-74340980D02*
X112871095Y-73340980D01*
X112871095Y-73817171D02*
X112299666Y-73817171D01*
X112299666Y-74340980D02*
X112299666Y-73340980D01*
X111299666Y-74340980D02*
X111871095Y-74340980D01*
X111585380Y-74340980D02*
X111585380Y-73340980D01*
X111680619Y-73483838D01*
X111775857Y-73579076D01*
X111871095Y-73626695D01*
X110442523Y-73674314D02*
X110442523Y-74340980D01*
X110680619Y-73293361D02*
X110918714Y-74007647D01*
X110299666Y-74007647D01*
%TO.C,H15*%
X109264295Y-74340980D02*
X109264295Y-73340980D01*
X109264295Y-73817171D02*
X108692866Y-73817171D01*
X108692866Y-74340980D02*
X108692866Y-73340980D01*
X107692866Y-74340980D02*
X108264295Y-74340980D01*
X107978580Y-74340980D02*
X107978580Y-73340980D01*
X108073819Y-73483838D01*
X108169057Y-73579076D01*
X108264295Y-73626695D01*
X106788104Y-73340980D02*
X107264295Y-73340980D01*
X107311914Y-73817171D01*
X107264295Y-73769552D01*
X107169057Y-73721933D01*
X106930961Y-73721933D01*
X106835723Y-73769552D01*
X106788104Y-73817171D01*
X106740485Y-73912409D01*
X106740485Y-74150504D01*
X106788104Y-74245742D01*
X106835723Y-74293361D01*
X106930961Y-74340980D01*
X107169057Y-74340980D01*
X107264295Y-74293361D01*
X107311914Y-74245742D01*
%TO.C,H16*%
X105632095Y-74340980D02*
X105632095Y-73340980D01*
X105632095Y-73817171D02*
X105060666Y-73817171D01*
X105060666Y-74340980D02*
X105060666Y-73340980D01*
X104060666Y-74340980D02*
X104632095Y-74340980D01*
X104346380Y-74340980D02*
X104346380Y-73340980D01*
X104441619Y-73483838D01*
X104536857Y-73579076D01*
X104632095Y-73626695D01*
X103203523Y-73340980D02*
X103394000Y-73340980D01*
X103489238Y-73388600D01*
X103536857Y-73436219D01*
X103632095Y-73579076D01*
X103679714Y-73769552D01*
X103679714Y-74150504D01*
X103632095Y-74245742D01*
X103584476Y-74293361D01*
X103489238Y-74340980D01*
X103298761Y-74340980D01*
X103203523Y-74293361D01*
X103155904Y-74245742D01*
X103108285Y-74150504D01*
X103108285Y-73912409D01*
X103155904Y-73817171D01*
X103203523Y-73769552D01*
X103298761Y-73721933D01*
X103489238Y-73721933D01*
X103584476Y-73769552D01*
X103632095Y-73817171D01*
X103679714Y-73912409D01*
%TO.C,H17*%
X102050695Y-74340980D02*
X102050695Y-73340980D01*
X102050695Y-73817171D02*
X101479266Y-73817171D01*
X101479266Y-74340980D02*
X101479266Y-73340980D01*
X100479266Y-74340980D02*
X101050695Y-74340980D01*
X100764980Y-74340980D02*
X100764980Y-73340980D01*
X100860219Y-73483838D01*
X100955457Y-73579076D01*
X101050695Y-73626695D01*
X100145933Y-73340980D02*
X99479266Y-73340980D01*
X99907838Y-74340980D01*
%TO.C,H12*%
X120084695Y-74376980D02*
X120084695Y-73376980D01*
X120084695Y-73853171D02*
X119513266Y-73853171D01*
X119513266Y-74376980D02*
X119513266Y-73376980D01*
X118513266Y-74376980D02*
X119084695Y-74376980D01*
X118798980Y-74376980D02*
X118798980Y-73376980D01*
X118894219Y-73519838D01*
X118989457Y-73615076D01*
X119084695Y-73662695D01*
X118132314Y-73472219D02*
X118084695Y-73424600D01*
X117989457Y-73376980D01*
X117751361Y-73376980D01*
X117656123Y-73424600D01*
X117608504Y-73472219D01*
X117560885Y-73567457D01*
X117560885Y-73662695D01*
X117608504Y-73805552D01*
X118179933Y-74376980D01*
X117560885Y-74376980D01*
%TO.C,H13*%
X116477895Y-74376980D02*
X116477895Y-73376980D01*
X116477895Y-73853171D02*
X115906466Y-73853171D01*
X115906466Y-74376980D02*
X115906466Y-73376980D01*
X114906466Y-74376980D02*
X115477895Y-74376980D01*
X115192180Y-74376980D02*
X115192180Y-73376980D01*
X115287419Y-73519838D01*
X115382657Y-73615076D01*
X115477895Y-73662695D01*
X114573133Y-73376980D02*
X113954085Y-73376980D01*
X114287419Y-73757933D01*
X114144561Y-73757933D01*
X114049323Y-73805552D01*
X114001704Y-73853171D01*
X113954085Y-73948409D01*
X113954085Y-74186504D01*
X114001704Y-74281742D01*
X114049323Y-74329361D01*
X114144561Y-74376980D01*
X114430276Y-74376980D01*
X114525514Y-74329361D01*
X114573133Y-74281742D01*
%TO.C,H5*%
X157708504Y-74376980D02*
X157708504Y-73376980D01*
X157708504Y-73853171D02*
X157137076Y-73853171D01*
X157137076Y-74376980D02*
X157137076Y-73376980D01*
X156184695Y-73376980D02*
X156660885Y-73376980D01*
X156708504Y-73853171D01*
X156660885Y-73805552D01*
X156565647Y-73757933D01*
X156327552Y-73757933D01*
X156232314Y-73805552D01*
X156184695Y-73853171D01*
X156137076Y-73948409D01*
X156137076Y-74186504D01*
X156184695Y-74281742D01*
X156232314Y-74329361D01*
X156327552Y-74376980D01*
X156565647Y-74376980D01*
X156660885Y-74329361D01*
X156708504Y-74281742D01*
%TO.C,H4*%
X140461904Y-56800180D02*
X140461904Y-55800180D01*
X140461904Y-56276371D02*
X139890476Y-56276371D01*
X139890476Y-56800180D02*
X139890476Y-55800180D01*
X138985714Y-56133514D02*
X138985714Y-56800180D01*
X139223809Y-55752561D02*
X139461904Y-56466847D01*
X138842857Y-56466847D01*
%TO.C,H3*%
X121411904Y-56800180D02*
X121411904Y-55800180D01*
X121411904Y-56276371D02*
X120840476Y-56276371D01*
X120840476Y-56800180D02*
X120840476Y-55800180D01*
X120459523Y-55800180D02*
X119840476Y-55800180D01*
X120173809Y-56181133D01*
X120030952Y-56181133D01*
X119935714Y-56228752D01*
X119888095Y-56276371D01*
X119840476Y-56371609D01*
X119840476Y-56609704D01*
X119888095Y-56704942D01*
X119935714Y-56752561D01*
X120030952Y-56800180D01*
X120316666Y-56800180D01*
X120411904Y-56752561D01*
X120459523Y-56704942D01*
%TO.C,H2*%
X102361904Y-56800180D02*
X102361904Y-55800180D01*
X102361904Y-56276371D02*
X101790476Y-56276371D01*
X101790476Y-56800180D02*
X101790476Y-55800180D01*
X101361904Y-55895419D02*
X101314285Y-55847800D01*
X101219047Y-55800180D01*
X100980952Y-55800180D01*
X100885714Y-55847800D01*
X100838095Y-55895419D01*
X100790476Y-55990657D01*
X100790476Y-56085895D01*
X100838095Y-56228752D01*
X101409523Y-56800180D01*
X100790476Y-56800180D01*
%TO.C,H1*%
X85089904Y-74366380D02*
X85089904Y-73366380D01*
X85089904Y-73842571D02*
X84518476Y-73842571D01*
X84518476Y-74366380D02*
X84518476Y-73366380D01*
X83518476Y-74366380D02*
X84089904Y-74366380D01*
X83804190Y-74366380D02*
X83804190Y-73366380D01*
X83899428Y-73509238D01*
X83994666Y-73604476D01*
X84089904Y-73652095D01*
%TD*%
M02*
